<?xml version="1.0" encoding="UTF-8" standalone="no" ?>
<!DOCTYPE svg PUBLIC "-//W3C//DTD SVG 1.1//EN" "http://www.w3.org/Graphics/SVG/1.1/DTD/svg11.dtd">
<svg xmlns="http://www.w3.org/2000/svg" xmlns:xlink="http://www.w3.org/1999/xlink" version="1.1" width="833" height="400" viewBox="0 0 833 400" xml:space="preserve">
<desc>Created with Fabric.js 6.7.1</desc>
<defs>
</defs>
<g transform="matrix(1 0 0 1 254.1032 162.6058)"  >
<line style="stroke: rgb(0,0,0); stroke-width: 3; stroke-dasharray: none; stroke-linecap: butt; stroke-dashoffset: 0; stroke-linejoin: miter; stroke-miterlimit: 4; fill: rgb(0,0,0); fill-rule: nonzero; opacity: 1;"  x1="-161.9212187215864" y1="22.958072871158507" x2="161.9212187215864" y2="-22.958072871158507" />
</g>
<g transform="matrix(1 0 0 1 502.9555 216.0083)"  >
<path style="stroke: rgb(0,0,0); stroke-width: 12; stroke-dasharray: none; stroke-linecap: butt; stroke-dashoffset: 0; stroke-linejoin: miter; stroke-miterlimit: 4; fill: rgb(255,255,255); fill-opacity: 0; fill-rule: nonzero; opacity: 1;"  transform=" translate(-502.9555, -216.0083)" d="M 475.9952 113.6951 Q 535.9661 216.5074 522.9724 318.3214" stroke-linecap="round" />
</g>
<g transform="matrix(1 0 0 1 218.6205 77.9965)"  >
<path style="stroke: rgb(0,0,0); stroke-width: 12; stroke-dasharray: none; stroke-linecap: round; stroke-dashoffset: 0; stroke-linejoin: round; stroke-miterlimit: 4; fill: rgb(255,255,255); fill-opacity: 0; fill-rule: nonzero; opacity: 1;"  transform=" translate(-218.6205, -77.9965)" d="M 124.1664 107.7061 L 313.0745 61.7899 M 313.0745 61.7899 L 278.3498 94.9289 M 313.0745 61.7899 L 267.0129 48.2869" stroke-linecap="round" />
</g>
<g transform="matrix(1 0 0 1 220.1197 229.2871)"  >
<path style="stroke: rgb(0,0,0); stroke-width: 4; stroke-dasharray: none; stroke-linecap: round; stroke-dashoffset: 0; stroke-linejoin: round; stroke-miterlimit: 4; fill: rgb(255,255,255); fill-opacity: 0; fill-rule: nonzero; opacity: 1;"  transform=" translate(-220.1197, -229.2871)" d="M 84.1859 212.5147 L 356.0536 239.4654 M 356.0536 239.4654 L 341.4756 246.0595 M 356.0536 239.4654 L 343.054 230.1376" stroke-linecap="round" />
</g>
</svg>