<svg xmlns="http://www.w3.org/2000/svg" xmlns:xlink="http://www.w3.org/1999/xlink" version="1.1" width="392.62952024676764" height="379.8917867847067" viewBox="222.42241683644818 16 392.62952024676764 379.8917867847067" xml:space="preserve">
<desc>Created with Fabric.js 6.7.1</desc>
<defs>
</defs>
<g transform="matrix(0.9524 0 0 0.9524 463.5745 49.8172)">
<path style="stroke: rgb(0,0,0); stroke-width: 1.9; stroke-dasharray: none; stroke-linecap: round; stroke-dashoffset: 0; stroke-linejoin: round; stroke-miterlimit: 4; fill: none; fill-rule: nonzero; opacity: 1;" transform=" translate(-252.6531, -31.3076)" d="M 255 15 C 261 15 257 27 257 33 L 255 36 L 255 44 C 254.3 44.7 254 45.9 254 47 C 251.9 48.1 248.7 47.7 247 46 L 247 38 L 249 35 L 250 26 C 252 23 250.8 17.6 254 16" stroke-linecap="round"/>
</g>
<g transform="matrix(0.9524 0 0 0.9524 404.8605 218.0984)">
<path style="stroke: rgb(0,0,0); stroke-width: 1.9; stroke-dasharray: none; stroke-linecap: round; stroke-dashoffset: 0; stroke-linejoin: round; stroke-miterlimit: 4; fill: none; fill-rule: nonzero; opacity: 1;" transform=" translate(-191, -208)" d="M 231 43 C 232.4 43 234 44.6 234 46 C 231.5 48.5 227.5 49.5 225 52 C 222.2 52.9 219.1 53.9 217 56 C 217 57.9 218.3 60.1 220 61 L 233 61 L 234 62 C 239.4 62 244.6 65 250 65 C 254.3 67.1 258.6 69.6 262 73 C 263.5 75.9 268.7 74.7 271 77 C 275.2 78.1 279.5 79.4 283 82 C 284.8 82 286.2 84 288 84 L 300 99 C 304.5 99 309.2 97.5 313 95 C 316.8 95 320.2 92 324 92 L 336 86 C 340.1 85.3 343.9 83 348 83 C 348 86.3 343.3 89 340 89 C 338 90.5 335.5 92 333 92 C 329.2 94.1 325.2 96.2 321 97 C 318.3 99.7 312 100.2 312 104 L 314 105 L 325 117 C 326.7 120.5 326.2 125.2 329 128 C 329 133.9 336.3 138.6 342 140 L 352 150 C 353.3 152.5 353.4 155.6 355 158 L 355 165 C 351.8 168.2 359 173.5 359 178 C 360.8 179.8 360.9 182.7 362 185 C 362 187 361.6 189.6 363 191 L 363 203 C 361.6 204.4 362 207 362 209 L 359 215 C 359 218 356.3 220.3 355 223 L 350 228 L 349 240 C 346 243 343.3 248 339 248 C 334.6 250.2 328 253 328 258 C 324.6 263.1 323.3 269.7 319 274 L 319 276 C 317.6 278.8 316.2 281.8 314 284 L 314 285 L 306 293 C 302.9 293 300.2 295.8 298 298 C 294.3 298.7 290.8 301 287 301 L 286 302 L 280 302 C 278.5 303.5 275.5 302.5 274 304 L 268 304 L 267 305 L 257 305 L 256 306 L 250 306 C 248.3 307.7 245.3 308 244 310 C 244 317.2 250.6 323 252 330 C 254.2 332.2 254.8 335.8 257 338 L 262 349 C 263.2 350.2 264.5 351.3 266 352 L 273 352 C 275.1 354.1 279.9 350.9 282 353 L 310 353 C 311.5 353.7 311.5 357.3 310 358 L 294 358 C 291.6 355.6 287.4 356 284 356 C 282.8 357.2 280.2 357.2 279 356 L 269 356 C 268.2 356.8 267 357.8 267 359 C 268.5 361.9 271 364.7 271 368 C 272 369 269.3 371.6 268 371 C 268 366.2 262 362.8 262 358 C 261.2 357.2 260.1 356.5 259 356 C 255.9 356 252.6 355.7 250 354 L 250 353 C 252.5 351 255 348.1 255 345 C 252.8 342 250 338.7 250 335 C 248.9 333.9 248 332.5 248 331 L 244 325 L 244 323 L 240 318 C 240 314.1 234 311.9 234 308 L 230 304 C 230 303.1 228.8 302.4 228 302 C 227.4 300.7 226 298 225 299 C 225 303.5 227.9 307.6 229 312 L 234 319 C 234 321 234.4 323.6 233 325 L 231 325 L 220 313 C 220 309.1 216.7 305.7 214 303 L 210 295 C 210 292.2 208.5 289.4 207 287 C 207 282.2 206.1 277.3 204 273 L 204 261 C 201.8 258.8 202.4 254.8 201 252 C 200.3 247.7 197.9 243.9 196 240 L 187 231 C 185.3 231 183.7 230 182 230 L 178 228 L 168 228 C 163.1 230.9 157.7 234 152 234 C 149.5 231.5 146.9 228.5 146 225 C 142.8 223.4 140.4 229.9 137 231 L 130 236 C 130 238.1 132.9 240 135 240 L 137 238 L 144 238 C 145.8 239.8 145.2 243.2 147 245 C 150.8 243.7 155.4 241.2 159 243 L 163 248 C 163 252.5 165 256.9 167 261 L 175 268 C 177.7 268 180.6 267.8 183 269 C 183 273.1 174.8 272.4 173 276 C 173.7 278.9 177 281 177 284 L 182 288 L 192 289 C 193.9 290 196 291.1 197 293 C 197 297.1 197.5 301.7 200 305 C 200 306.7 200.2 308.5 201 310 L 207 318 L 207 320 L 212 325 C 216.3 325 218.7 332 223 332 L 234 344 L 235 348 L 241 355 C 243 360.9 250.4 368.6 246 373 C 243.3 371 242.4 367.4 240 365 C 240 363.5 239.1 362.1 238 361 L 234 353 C 232.1 352 231 349.9 230 348 L 222 339 C 222 338.1 220.8 337.4 220 337 C 217 334 213 332 210 329 L 209 329 C 206.6 326.6 204.1 324.2 203 321 C 200.6 318.6 199.4 315.4 197 313 C 195.6 310.2 194 307.2 194 304 C 192.6 302.6 193 300 193 298 C 190.4 295.4 186.7 293.6 183 293 C 181.2 291.2 178.5 290 176 290 C 173.3 287.3 170.7 284.4 169 281 C 169 277.7 166.3 273 163 273 L 162 274 L 132 274 L 131 275 L 119 274 L 118 275 L 100 275 L 99 276 L 88 276 C 87.1 275.1 87.1 272.9 88 272 L 94 272 C 95.4 270.6 98.6 270.6 100 272 L 106 272 L 107 271 L 122 271 L 123 270 L 132 270 C 133.4 268.6 132.7 265.1 131 264 C 130.1 262.1 129 260.1 129 258 C 130.9 254.1 133.3 250.4 136 247 C 134.3 243.7 127.7 245.3 126 242 C 123.7 240.1 121 238 118 238 C 116.7 239.3 114.3 238.7 113 240 L 95 240 L 94 239 C 88.3 238.1 82.8 236 77 236 L 76 237 L 65 237 C 61.9 233.9 56.4 234 52 234 C 44.8 230.4 37.6 225.2 34 218 C 28.1 212.1 22.7 205.5 19 198 L 19 179 C 20.3 177.7 19.7 175.3 21 174 C 21.9 169.4 24.6 163.9 22 160 L 22 151 C 24.1 147.9 24.8 144 27 141 L 27 140 L 31 136 L 31 135 C 33.5 132.5 36.5 129.9 40 129 C 42.3 126.7 42.2 122.7 44 120 L 45 116 L 56 104 C 58.8 102.6 61.9 101.6 65 101 C 67.3 98.7 71.7 99.3 74 97 L 76 93 L 82 87 L 82 86 C 87.4 83.8 93 82 98 79 L 107 79 C 109 77 111.1 74.7 112 72 C 117.4 66.6 124.1 62.4 131 59 C 132.1 59 133.3 58.7 134 58 L 142 58 C 143.4 56.6 146.6 56.6 148 58 C 152.1 58 156.7 57.5 160 55 L 166 55 C 167.3 53.7 169.7 54.3 171 53 L 190 53 L 191 54 L 202 54 L 203 55 L 210 55 C 215.1 49.9 221.8 45 229 45 L 230 44" stroke-linecap="round"/>
</g>
<g transform="matrix(0.9524 0 0 0.9524 591.8461 82.0004)">
<path style="stroke: rgb(0,0,0); stroke-width: 1.9; stroke-dasharray: none; stroke-linecap: round; stroke-dashoffset: 0; stroke-linejoin: round; stroke-miterlimit: 4; fill: none; fill-rule: nonzero; opacity: 1;" transform=" translate(-387.3382, -65.1)" d="M 391 46 C 393.9 46.7 397.1 51.9 395 54 C 395 59.7 393 66 389 70 C 388.3 74.4 386 78.6 386 83 C 384.4 84.6 380.6 84.6 379 83 C 379 77.2 383 71.8 383 66 L 388 56 L 388 49 L 390 47" stroke-linecap="round"/>
</g>
<g transform="matrix(0.9524 0 0 0.9524 572.9526 84.5275)">
<path style="stroke: rgb(0,0,0); stroke-width: 1.9; stroke-dasharray: none; stroke-linecap: round; stroke-dashoffset: 0; stroke-linejoin: round; stroke-miterlimit: 4; fill: none; fill-rule: nonzero; opacity: 1;" transform=" translate(-367.5, -67.7535)" d="M 371 48 C 373.6 48 376 51.4 376 54 C 373.3 58.1 371 63 371 68 C 369.4 69.6 369.6 72.4 368 74 C 368 77.3 367 80.7 367 84 C 366.3 84.7 366 85.9 366 87 C 363.8 88.1 359 87.4 359 85 C 360.3 83.7 359.7 81.3 361 80 L 361 71 C 366.5 65.5 365.5 56 369 49 L 370 49" stroke-linecap="round"/>
</g>
<g transform="matrix(0.9524 0 0 0.9524 393.429 81.985)">
<path style="stroke: rgb(0,0,0); stroke-width: 1.9; stroke-dasharray: none; stroke-linecap: round; stroke-dashoffset: 0; stroke-linejoin: round; stroke-miterlimit: 4; fill: none; fill-rule: nonzero; opacity: 1;" transform=" translate(-179, -65.0842)" d="M 178 57 C 179.7 57 181.8 56.8 183 58 L 195 58 C 195.8 58.8 197 59.8 197 61 C 191.9 63.5 187.3 66.9 182 69 C 179.1 71.9 172.9 74.9 170 72 C 169.1 69.3 167 67 165 65 C 163.1 65 161 62.9 161 61 C 163.4 59.4 167 60 169 58 L 177 58" stroke-linecap="round"/>
</g>
<g transform="matrix(0.9524 0 0 0.9524 342.0019 125.7153)">
<path style="stroke: rgb(0,0,0); stroke-width: 1.9; stroke-dasharray: none; stroke-linecap: round; stroke-dashoffset: 0; stroke-linejoin: round; stroke-miterlimit: 4; fill: none; fill-rule: nonzero; opacity: 1;" transform=" translate(-125, -111)" d="M 138 62 L 150 62 L 152 64 L 162 69 C 163.4 71.7 166.2 73.5 168 76 C 167 77.5 168.2 81 170 81 C 171.3 79.7 173.2 79 175 79 C 178.4 76.3 182.1 73.9 186 72 C 188.7 72 191.3 70 194 70 C 198.9 65.1 206.1 62 213 62 L 220 69 L 221 75 C 222.3 76.3 221.7 78.7 223 80 L 223 91 C 221.5 92.5 222.5 95.5 221 97 L 221 104 C 219.1 105.9 214.9 104.9 213 103 L 201 103 C 195.9 106.4 189.9 108.3 185 112 L 168 112 C 166.2 110.7 164.2 109 162 109 C 159.9 106.4 157.2 103.8 154 103 C 153.3 103.7 153 104.9 153 106 L 158 112 L 157 114 L 145 114 L 144 115 L 136 115 C 134.3 116.7 130.7 115.3 129 117 L 122 117 C 120.6 118.4 118 118 116 118 C 111.5 115.8 107.5 112.5 104 109 C 102.4 105.8 103.6 99 100 99 L 97 105 C 94 105 90.1 102.9 88 105 C 89.9 108.8 95 110 98 113 L 99 113 L 106 120 C 107.3 122.7 106 126 106 129 L 99 136 C 94.4 136 91.4 141.5 87 143 L 81 149 L 81 150 L 74 157 C 71.5 157 68.8 158.2 67 160 L 57 160 C 56.3 159.3 55.1 159 54 159 L 49 155 C 49 151.7 44.3 145.7 42 148 C 42 151 43.5 155.3 41 157 L 33 159 C 31.2 160.2 28.3 158.7 27 157 C 28.2 154.6 28 151.7 28 149 C 30.3 145.9 34 142.9 34 139 C 37.8 135.8 43 134 48 134 C 49.5 135 51.2 136 53 136 L 63 146 C 64.1 146 65.3 145.7 66 145 L 65 141 L 56 132 C 52.9 130.5 49.4 129.4 47 127 L 49 119 C 50.7 117.3 51.9 115.1 54 114 L 61 107 C 64.2 106.2 68.6 104.6 71 107 L 72 123 C 71.1 123.9 68.9 123.9 68 123 L 62 123 C 60.5 121.5 56.9 123.1 56 125 C 57.4 126.4 59.6 126.6 61 128 L 71 129 C 73.4 131.4 78 132.5 81 131 C 81 129.2 80.3 127.3 79 126 C 78.2 121 76 116.1 76 111 C 74.1 109.1 76 105.7 76 103 C 77.6 101.4 78.5 99.2 79 97 L 87 89 C 91.3 89 95.1 85.9 99 84 C 102.7 84 106.7 84.3 110 86 C 113.2 89.2 117.5 92 122 92 C 123.7 95.5 118 99.1 118 103 C 118.7 103.7 119.9 104 121 104 L 127 97 C 130.5 95.3 134.1 93 138 93 L 139 92 L 161 92 L 162 93 L 170 93 L 171 92 L 184 92 C 186.4 89.6 191.6 89.6 194 92 L 200 92 L 201 90 L 194 85 C 194 80.6 199.1 75.1 196 72 C 192.7 72 191.1 76.8 190 80 L 184 85 C 179.2 85 174.8 88 170 88 C 168.8 89.2 166.2 89.2 165 88 L 125 88 L 124 87 C 119.9 86 115.5 84.3 113 81 C 114.8 79.2 116 76.5 116 74 L 122 69 C 127.1 67.3 131.6 63 137 63" stroke-linecap="round"/>
</g>
<g transform="matrix(0.9524 0 0 0.9524 450.1784 90.0002)">
<path style="stroke: rgb(0,0,0); stroke-width: 1.9; stroke-dasharray: none; stroke-linecap: round; stroke-dashoffset: 0; stroke-linejoin: round; stroke-miterlimit: 4; fill: none; fill-rule: nonzero; opacity: 1;" transform=" translate(-238.5871, -73.5)" d="M 227 65 C 230.8 65 234.8 65.9 238 68 C 242.8 68.6 247.7 69.8 252 72 C 252.4 72.9 252.7 74.3 252 75 L 245 75 C 243.8 76.2 241.7 76 240 76 C 236.8 77.6 233.5 79.5 231 82 C 229.5 82 228.1 81.1 227 80 C 227 75.3 222.7 69.3 226 66" stroke-linecap="round"/>
</g>
<g transform="matrix(0.9524 0 0 0.9524 470.1764 117.6195)">
<path style="stroke: rgb(0,0,0); stroke-width: 1.9; stroke-dasharray: none; stroke-linecap: round; stroke-dashoffset: 0; stroke-linejoin: round; stroke-miterlimit: 4; fill: none; fill-rule: nonzero; opacity: 1;" transform=" translate(-259.5845, -102.5)" d="M 253 79 C 256.1 82.1 262.9 78.9 266 82 L 274 82 C 276.1 84.1 279.3 84.7 282 86 C 283.2 87.2 284.3 89 286 89 L 292 96 C 292 98.4 293.7 100.8 293 103 C 286.5 106.9 279.6 112 272 112 C 271.3 112.7 270.1 113 269 113 L 263 116 C 259.9 112.9 259 106.9 261 103 L 265 98 C 265 96.2 261.6 95.2 260 96 L 255 102 C 252.3 102 248.9 99.1 247 101 L 248 104 L 254 110 C 255.2 112.4 255 115.3 255 118 C 249.2 122.7 241.5 126 234 126 L 228 119 C 228 115.9 228.2 112.2 226 110 L 226 98 C 227.5 96.5 227.1 93.9 228 92 L 236 84 C 238.1 84 239.9 82 242 82 C 245 80.5 248.6 80 252 80" stroke-linecap="round"/>
</g>
<g transform="matrix(0.9524 0 0 0.9524 479.8603 160.471)">
<path style="stroke: rgb(0,0,0); stroke-width: 1.9; stroke-dasharray: none; stroke-linecap: round; stroke-dashoffset: 0; stroke-linejoin: round; stroke-miterlimit: 4; fill: none; fill-rule: nonzero; opacity: 1;" transform=" translate(-269.7522, -147.4937)" d="M 300 106 C 302.7 106 305.6 105.8 308 107 C 308.8 107.8 309.8 109 311 109 L 319 117 C 319 122 324 126 324 131 C 324.9 131.9 324.4 133.7 324 135 L 316 139 C 312.8 139 309.8 140.6 307 142 C 304.3 144.7 300.7 146.3 298 149 C 296.6 149 295 149 294 150 C 292 150 289.4 149.6 288 151 C 286.3 149.3 281 150.6 281 153 C 283.2 155.2 286.8 156 290 156 C 291.4 157.4 290.4 160.6 289 162 C 287.2 166.6 284.2 170.6 282 175 C 280 177 277.9 179.3 277 182 C 272.9 184.1 269.6 189 265 189 C 262.5 186.5 260.6 183.2 259 180 C 259 177.6 256.7 175.7 255 174 L 252 168 L 244 160 C 241 160 238.9 156.7 236 156 C 230.2 150.2 221.6 147.9 215 143 C 215 140.2 218.6 138.6 221 137 C 224.1 136.4 226.8 134 230 134 L 231 133 C 234.6 133 238.5 131.5 241 129 C 246.3 129 250.7 124 256 124 L 258 128 L 258 137 L 259 138 L 259 152 C 256.6 154.4 256.4 158.6 254 161 C 254 162.8 257.5 164 259 163 C 260.9 163 263.1 164.3 264 166 L 269 171 C 270.7 171 273 169.7 273 168 L 265 159 C 265 157 265.4 154.4 264 153 L 264 138 L 263 137 L 263 129 C 265.1 126.9 269.9 127.9 272 130 L 280 129 C 282.2 131.2 282.9 136 286 136 L 288 134 L 288 123 L 291 117 C 291 115.6 291.4 114.2 292 113 L 298 107 L 299 107" stroke-linecap="round"/>
</g>
<g transform="matrix(0.9524 0 0 0.9524 368.9991 173.3092)">
<path style="stroke: rgb(0,0,0); stroke-width: 1.9; stroke-dasharray: none; stroke-linecap: round; stroke-dashoffset: 0; stroke-linejoin: round; stroke-miterlimit: 4; fill: none; fill-rule: nonzero; opacity: 1;" transform=" translate(-153.3475, -160.9736)" d="M 204 108 C 206 108 208.6 107.6 210 109 L 213 109 L 220 114 C 220.8 116.3 222.3 118.3 224 120 C 225.4 122.8 227 125.8 227 129 C 222.2 133.8 210.8 138.7 207 133 L 207 126 C 205.5 125.3 203 127.3 203 129 C 201.7 131.2 200 133.5 200 136 L 194 141 C 192.1 141.9 189.5 141.5 188 143 L 180 143 L 179 142 L 162 142 L 161 143 L 147 143 L 146 144 L 136 144 C 135.5 144.5 134.5 144.5 134 144 C 132 144 129.4 144.4 128 143 C 125.2 143 122.8 140 120 140 L 116 144 L 116 145 L 99 162 C 96.8 166.4 93 170.1 89 173 C 89 174.4 89 176 90 177 C 94.3 179.5 98.5 182.5 102 186 L 105 187 L 112 193 L 113 196 L 118 203 C 121.1 199.9 118.7 191 123 191 C 124.3 192.3 126.3 192.6 128 193 C 131.8 196.8 132.4 204.2 130 209 C 128.2 210.8 126.3 212.8 124 214 C 119.6 214 115 213 111 211 L 103 202 L 102 199 L 86 184 C 84.4 179.3 81 175 81 170 C 77.9 166.9 80.9 160.1 84 157 C 85.2 154.1 86.8 151.2 89 149 C 89 147.3 91.5 146.7 93 146 L 101 140 L 102 140 L 110 132 C 111.7 128.6 113.6 121.3 117 123 L 123 123 L 124 122 L 131 122 C 132.3 120.7 134.7 121.3 136 120 L 144 119 L 146 121 L 140 127 C 138.8 129.4 138.3 135 141 135 C 143.8 132.2 145 126 149 126 C 151.3 124.1 154 122 157 122 C 159.2 119.8 163.8 121.2 166 119 L 178 119 C 184.6 115 193.5 114.5 199 109 L 203 109" stroke-linecap="round"/>
</g>
<g transform="matrix(0.9524 0 0 0.9524 485.3336 133.4605)">
<path style="stroke: rgb(0,0,0); stroke-width: 1.9; stroke-dasharray: none; stroke-linecap: round; stroke-dashoffset: 0; stroke-linejoin: round; stroke-miterlimit: 4; fill: none; fill-rule: nonzero; opacity: 1;" transform=" translate(-275.5, -119.1333)" d="M 282 113 C 284.2 113 285 116.8 285 119 L 278 125 C 275.7 125 273.3 125.6 271 125 L 266 121 L 267 119 C 269.8 117.6 272.8 116 276 116 C 277.3 114.7 279.3 114.4 281 114" stroke-linecap="round"/>
</g>
<g transform="matrix(0.9524 0 0 0.9524 494.3824 206.1916)">
<path style="stroke: rgb(0,0,0); stroke-width: 1.9; stroke-dasharray: none; stroke-linecap: round; stroke-dashoffset: 0; stroke-linejoin: round; stroke-miterlimit: 4; fill: none; fill-rule: nonzero; opacity: 1;" transform=" translate(-285, -195.5)" d="M 328 140 C 329.9 141.9 333.1 142.1 335 144 C 336.7 144 338.5 144.2 340 145 L 349 155 C 349 159 349 163.1 348 167 C 345 170 340.6 170.9 337 173 L 324 173 C 322.7 171.7 320 173.5 319 175 C 322.2 177.2 326.3 178.3 329 181 C 329 184.5 329.5 188.5 332 191 C 334.7 191 334 185.7 334 183 C 336.1 178.8 341.7 177.3 345 174 C 347 174 349.1 173.4 351 174 C 352.8 175.8 354.2 178.2 356 180 C 356 184.1 355.1 189.1 358 192 L 358 203 C 356.7 204.3 357.3 206.7 356 208 C 356 212.8 353.4 217.6 350 221 L 344 221 L 335 213 C 331.2 213 327.8 210 324 210 C 321 207.7 317.3 206 315 203 L 315 195 L 314 194 C 310.9 194 307.6 194.3 305 196 L 297 196 L 296 197 L 281 196 C 279.8 197.2 279.8 199.8 281 201 L 292 201 C 295.1 204.1 296.6 210.5 294 214 C 291.2 215.4 288.2 217 285 217 C 283 215 279.5 215.3 277 214 C 273.7 210.7 269 209.4 265 207 L 254 207 C 253.3 207.7 252.1 208 251 208 C 248.2 209.4 245.2 210.8 243 213 C 240.6 213 238.4 214.4 236 215 L 228 224 C 228 225.7 227 227.3 227 229 C 224.6 233.8 225.6 240.2 228 245 L 232 249 C 231.2 249.8 230.2 251 229 251 L 224 246 L 224 245 C 222.2 243.2 220.3 241.2 218 240 C 217 237.9 217 235.1 218 233 C 219.8 231.2 221.8 229.3 223 227 C 223 225.3 222.8 223.5 222 222 L 215 215 C 215 213.1 212 211.9 212 210 L 214 208 L 230 209 C 231.4 210.4 234 209 236 209 C 238.6 206.4 236.3 201.3 238 198 C 239.7 198.4 241.7 198.7 243 200 C 246.5 200 250.2 199.1 253 197 C 253.9 197 254.6 195.8 255 195 C 257.4 193.2 261.5 192.3 264 194 C 267.2 194 270.8 193.2 273 191 L 274 191 L 285 179 C 285 174.1 290.8 170.8 292 166 C 293.7 164.3 295.2 162.3 296 160 C 298.5 157.5 301.5 154.9 305 154 C 308.3 150.7 314.3 156 319 156 C 321.7 158 326.6 159.4 329 157 L 329 155 L 336 148 C 335.2 146.4 332.8 146 331 146 L 323 152 C 321.2 152 319.5 151 318 150 L 312 149 C 311.5 148.5 311 147.7 311 147 C 314.2 143.8 319 143 323 141 L 327 141" stroke-linecap="round"/>
</g>
<g transform="matrix(0.9524 0 0 0.9524 391.5253 202.0197)">
<path style="stroke: rgb(0,0,0); stroke-width: 1.9; stroke-dasharray: none; stroke-linecap: round; stroke-dashoffset: 0; stroke-linejoin: round; stroke-miterlimit: 4; fill: none; fill-rule: nonzero; opacity: 1;" transform=" translate(-177, -191.1197)" d="M 172 146 C 173.9 146 178.4 147.6 177 149 L 171 149 C 169.5 150.5 166.5 149.5 165 151 L 159 151 C 157.5 152.5 154.5 151.5 153 153 L 143 153 C 139.9 156.1 134.4 156 130 156 C 124.9 158.5 119.4 162.5 118 168 C 116.9 169.1 117.1 170.9 116 172 C 117.7 175.4 120.6 178.3 124 180 L 138 180 C 139.8 178.2 142.9 178.4 145 177 C 151.1 176.2 156.9 174 163 173 C 165.9 171.1 169.6 170.5 173 170 C 174.5 168.5 176.9 168 179 168 L 183 166 L 199 166 C 199.5 165.5 200.5 165.5 201 166 L 209 166 C 210.3 167.3 212.7 166.7 214 168 L 222 170 L 236 177 C 238.7 177.4 242.1 177.9 244 176 C 244 173.6 243.7 170.7 242 169 C 242 167.2 238.4 164.8 240 164 C 240.8 164.8 241.8 166 243 166 L 251 175 C 251.7 177.8 252 181 254 183 C 254 187.6 251.1 192.9 247 195 C 244.6 195 242.4 193.6 240 193 C 236.3 189.3 233.7 184.7 230 181 L 228 180 C 224.5 180 220.5 180.5 218 183 C 216 187.1 218.8 192.8 222 196 L 229 200 C 230 201 231 203 230 204 L 218 204 C 215.3 201.3 209.7 204.3 207 207 C 207 209.7 206.8 212.6 208 215 L 217 223 C 217 227.3 213.4 230.9 212 235 C 211 236 209.2 236.6 208 236 C 207 233.5 205.9 230.9 204 229 C 204 224.2 198 220.8 198 216 C 197.1 215.1 197.6 213.3 198 212 L 204 204 C 205.6 197.8 211 192.4 211 186 C 212.6 183.3 214 180.2 214 177 L 208 171 L 204 169 L 191 170 C 188.2 171.9 184.4 172 181 172 C 178 175 172.5 173.7 169 176 L 160 177 C 156.8 179.2 152.7 180.3 150 183 C 147 183 147.7 189.3 149 192 L 153 197 L 153 207 C 152.3 207.7 150.9 207.4 150 207 C 149.4 203.1 148.3 199.1 146 196 L 146 195 L 139 189 L 135 187 L 120 187 L 119 186 C 115.9 186 112.6 185.7 110 184 C 104.8 184 100 177.2 100 172 C 101.8 170.2 101.9 167.3 103 165 L 110 158 C 114 156.4 117.7 153 122 153 L 123 152 L 130 151 C 131.3 149.7 133.7 150.3 135 149 L 145 149 L 146 148 L 158 148 C 158.7 148.7 160.3 147.7 161 147 L 171 147" stroke-linecap="round"/>
</g>
<g transform="matrix(0.9524 0 0 0.9524 381.0485 176.5966)">
<path style="stroke: rgb(0,0,0); stroke-width: 1.9; stroke-dasharray: none; stroke-linecap: round; stroke-dashoffset: 0; stroke-linejoin: round; stroke-miterlimit: 4; fill: none; fill-rule: nonzero; opacity: 1;" transform=" translate(-166, -164.4263)" d="M 179 154 L 195 154 C 199.3 156.2 205 155.3 209 158 C 209 159.5 206.3 160.7 205 160 L 190 160 C 187.8 162.2 183.2 160.8 181 163 C 174.5 163 168.4 166.2 162 167 C 157.9 169.7 151.5 168.5 148 172 C 145.9 172 143.9 173.1 142 174 L 131 174 C 129.1 175.9 125.4 174.2 123 173 L 123 167 L 133 160 C 137.1 160 141.3 158.8 145 157 L 153 157 C 154.4 158.4 152.6 161.6 154 163 C 162.4 163 170.5 158.8 178 155" stroke-linecap="round"/>
</g>
<g transform="matrix(0.9524 0 0 0.9524 271.0447 197.1434)">
<path style="stroke: rgb(0,0,0); stroke-width: 1.9; stroke-dasharray: none; stroke-linecap: round; stroke-dashoffset: 0; stroke-linejoin: round; stroke-miterlimit: 4; fill: none; fill-rule: nonzero; opacity: 1;" transform=" translate(-50.4964, -186)" d="M 41 162 L 47 162 C 50 165 55.5 163.7 59 166 C 61 166 63.6 166.4 65 165 L 71 164 C 72.2 162.8 74.8 163.8 76 165 L 76 176 C 78.1 179.1 76.6 184.4 74 187 C 70 189 65.4 190 61 190 C 58.9 187.9 55.8 186.9 53 186 C 50.9 182.9 55 178.7 55 175 C 53.6 173.6 49.9 174.2 49 176 C 46.2 178.8 41.9 180 38 180 C 36.8 181.2 36.8 183.8 38 185 C 41.5 185.7 45.4 187.8 47 191 C 47 198.9 40.9 210 33 210 C 29.5 206.5 27.1 201.9 24 198 L 24 177 C 27.5 170.8 33 164.2 40 163" stroke-linecap="round"/>
</g>
<g transform="matrix(0.9524 0 0 0.9524 531.0482 198.5719)">
<path style="stroke: rgb(0,0,0); stroke-width: 1.9; stroke-dasharray: none; stroke-linecap: round; stroke-dashoffset: 0; stroke-linejoin: round; stroke-miterlimit: 4; fill: none; fill-rule: nonzero; opacity: 1;" transform=" translate(-323.5, -187.5)" d="M 303 167 C 306.8 167 309.7 171 312 174 C 312.5 177.6 313.5 181.5 316 184 C 318.5 184 320.5 187 323 187 L 327 191 C 330.3 191 332 195.5 335 197 C 339.5 197 344.2 195.5 348 193 C 349.5 193 351.3 193.7 352 195 L 346 202 C 346.9 203.9 346.1 208 344 208 C 341.3 205.3 338.4 202.7 335 201 C 332.2 201 329.8 198 327 198 L 320 191 C 316.5 191 312.5 190.5 310 188 L 302 188 C 300 189.3 296.7 190.7 295 189 C 295 187.1 296.3 184.9 298 184 C 301.6 184 305.2 182.2 308 180 L 308 178 L 303 168" stroke-linecap="round"/>
</g>
<g transform="matrix(0.9524 0 0 0.9524 393.7566 213.8101)">
<path style="stroke: rgb(0,0,0); stroke-width: 1.9; stroke-dasharray: none; stroke-linecap: round; stroke-dashoffset: 0; stroke-linejoin: round; stroke-miterlimit: 4; fill: none; fill-rule: nonzero; opacity: 1;" transform=" translate(-179.3439, -203.5)" d="M 191 176 L 204 176 C 207.3 179.3 205.1 185.8 203 190 C 203 192.8 200 195.2 200 198 L 193 210 C 193 216.1 194 222.7 197 228 C 197 229.1 196.7 230.3 196 231 C 194.8 229.8 193.7 228 192 228 L 187 224 L 169 224 C 166.9 223 164.3 224 162 224 C 159.6 225.8 155.1 227.1 153 225 C 153 221.2 156 217.8 156 214 C 157.4 212.6 157 210 157 208 C 158.5 205 160.4 200.4 158 198 C 158 194.2 155 190.8 155 187 C 158.4 183.6 163.7 183.1 168 181 C 170 181 172.6 181.4 174 180 C 177.1 180 180.8 180.2 183 178 L 190 177" stroke-linecap="round"/>
</g>
<g transform="matrix(0.9524 0 0 0.9524 441.0478 201.2939)">
<path style="stroke: rgb(0,0,0); stroke-width: 1.9; stroke-dasharray: none; stroke-linecap: round; stroke-dashoffset: 0; stroke-linejoin: round; stroke-miterlimit: 4; fill: none; fill-rule: nonzero; opacity: 1;" transform=" translate(-229, -190.3585)" d="M 224 185 L 226 185 L 235 195 C 232.8 197.2 229 193.7 226 193 C 224.5 191 223 188.5 223 186" stroke-linecap="round"/>
</g>
<g transform="matrix(0.9524 0 0 0.9524 292.0007 219.8457)">
<path style="stroke: rgb(0,0,0); stroke-width: 1.9; stroke-dasharray: none; stroke-linecap: round; stroke-dashoffset: 0; stroke-linejoin: round; stroke-miterlimit: 4; fill: none; fill-rule: nonzero; opacity: 1;" transform=" translate(-72.5, -209.8375)" d="M 80 188 L 83 188 L 92 197 L 93 197 C 95.4 199.4 97.9 201.8 99 205 L 106 212 C 106 213.2 104.8 214.2 104 215 C 96.3 218.8 89.1 223.9 83 230 L 81 231 L 73 231 C 72.1 231.9 69.9 231.9 69 231 L 58 231 C 56 229 52.8 228 50 228 C 46 224 39 220.7 39 215 L 48 207 C 49.1 203.7 51 200.5 51 197 C 52.1 194.7 56.2 192.2 58 194 L 67 195 C 68.2 193.8 70.3 194 72 194 L 79 189" stroke-linecap="round"/>
</g>
<g transform="matrix(0.9524 0 0 0.9524 333.9053 225.2385)">
<path style="stroke: rgb(0,0,0); stroke-width: 1.9; stroke-dasharray: none; stroke-linecap: round; stroke-dashoffset: 0; stroke-linejoin: round; stroke-miterlimit: 4; fill: none; fill-rule: nonzero; opacity: 1;" transform=" translate(-116.5, -215.5)" d="M 138 196 C 140.8 196 142 200 144 202 L 144 211 C 142.8 212.2 143 214.3 143 216 C 140.8 220.5 137.5 224.5 134 228 C 129.7 228 126.3 233 122 233 L 121 234 L 113 234 L 112 235 L 96 235 C 94.1 233.1 89 233.7 89 231 L 98 223 C 101.4 221.3 105.2 220 109 220 C 112.6 216.4 119.8 220.2 124 223 C 128.5 223 131.9 217.4 133 213 L 136 209 L 136 199 L 137 197" stroke-linecap="round"/>
</g>
<g transform="matrix(0.9524 0 0 0.9524 293.429 220.9526)">
<path style="stroke: rgb(0,0,0); stroke-width: 1.9; stroke-dasharray: none; stroke-linecap: round; stroke-dashoffset: 0; stroke-linejoin: round; stroke-miterlimit: 4; fill: none; fill-rule: nonzero; opacity: 1;" transform=" translate(-74, -211)" d="M 56 200 L 59 200 L 65 204 C 66.5 204 67.9 204.9 69 206 C 71 206 73.6 205.6 75 207 L 76 206 L 82 206 L 83 205 C 86.5 205 90.5 205.5 93 208 C 93 208.7 92.5 209.5 92 210 L 83 210 L 82 211 C 76.8 211 70.3 213.3 68 218 L 64 222 C 63.3 222 62.5 221.5 62 221 C 62 216.7 66.1 211.1 63 208 L 61 208 L 56 203 C 55.3 203 55 201.7 55 201" stroke-linecap="round"/>
</g>
<g transform="matrix(0.9524 0 0 0.9524 523.4292 231.9052)">
<path style="stroke: rgb(0,0,0); stroke-width: 1.9; stroke-dasharray: none; stroke-linecap: round; stroke-dashoffset: 0; stroke-linejoin: round; stroke-miterlimit: 4; fill: none; fill-rule: nonzero; opacity: 1;" transform=" translate(-315.5, -222.5)" d="M 305 200 C 307.3 201.2 310 203.4 310 206 C 308 208 314.1 211 317 211 C 319.3 212.7 322.2 214 325 214 L 333 218 C 335.4 220.4 337.7 224 341 224 L 346 230 C 346 231.4 346 233 345 234 C 344.2 238 341.6 242.2 338 244 C 336.3 244 334.2 243.8 333 245 L 321 245 L 320 244 L 310 244 C 305.5 241 305.2 232.7 300 231 C 296 227 285 228.7 285 223 C 288.8 219.2 297.2 217.2 301 221 C 302.5 225.5 308.1 227.4 312 230 L 319 231 L 327 240 C 329.1 237.9 328 234 328 231 L 333 226 C 333 224 328.4 223.6 327 225 C 325.1 225.8 322.4 227.4 321 226 C 319.3 226 317.2 226.2 316 225 C 311.3 223.8 306.7 221 304 217 L 304 214 L 309 209 C 308.1 207.1 305.1 207 303 207 L 297 202 L 298 201 L 304 201" stroke-linecap="round"/>
</g>
<g transform="matrix(0.9524 0 0 0.9524 463.9052 239.5242)">
<path style="stroke: rgb(0,0,0); stroke-width: 1.9; stroke-dasharray: none; stroke-linecap: round; stroke-dashoffset: 0; stroke-linejoin: round; stroke-miterlimit: 4; fill: none; fill-rule: nonzero; opacity: 1;" transform=" translate(-253, -230.5)" d="M 255 213 C 261.4 213 268.4 215.4 273 220 L 274 222 L 274 230 C 272.1 231.9 267.9 229.1 266 231 C 263.6 231 260.7 233.7 259 232 C 259 230.6 259 229 260 228 L 260 219 C 258.9 217.9 257.5 217 256 217 C 254.6 219.7 254 222.9 254 226 C 252 228 251.9 233 249 233 C 247.5 230 245.3 226 242 226 C 240.6 227.4 240.4 230.1 241 232 L 237 237 L 237 239 L 242 244 C 242 245.7 240.7 248 239 248 C 237.5 247.3 236.2 246.2 235 245 C 233 241 232 236.4 232 232 C 234.1 228.9 234.4 224.6 237 222 C 240.3 220.7 243.4 218 247 218 L 252 214 L 254 214" stroke-linecap="round"/>
</g>
<g transform="matrix(0.9524 0 0 0.9524 478.1911 269.8895)">
<path style="stroke: rgb(0,0,0); stroke-width: 1.9; stroke-dasharray: none; stroke-linecap: round; stroke-dashoffset: 0; stroke-linejoin: round; stroke-miterlimit: 4; fill: none; fill-rule: nonzero; opacity: 1;" transform=" translate(-268, -262.3834)" d="M 286 232 C 288.5 232 290.6 234.2 293 235 L 298 240 C 299.3 242.5 299.4 245.6 301 248 C 301 251.4 300.9 255.2 299 258 L 297 266 C 295.7 268 295 270.6 295 273 C 292.3 275.1 289.3 277.2 286 278 L 276 285 C 272.3 283.8 269.7 280.2 266 279 C 264.2 280.8 262.3 282.8 260 284 C 258.5 287 257.3 292 254 292 C 252.1 293.9 247.9 291.9 246 290 L 241 290 L 235 284 C 235 281.9 236.9 279 239 279 C 242 281.3 243.3 285.3 246 288 C 247.2 288 248.2 286.8 249 286 L 248 278 C 247.2 277.2 248.8 275 250 275 C 251.8 276.8 253.7 278.8 256 280 C 259.6 276.4 249.4 268.6 253 265 C 256.2 265 259 267 262 268 C 264.7 270.1 267.7 272.2 271 273 C 273.6 275.6 282 277.7 282 274 L 280 271 L 271 267 C 270.2 265.9 269 264 270 263 L 278 263 C 281.6 259.4 291 260.1 291 255 C 288.9 252.9 284.1 253.9 282 256 L 276 256 C 275.5 255.5 275 254.7 275 254 L 282 248 L 283 248 C 284.8 246.2 286.8 244.3 288 242 C 288 240.1 284.9 239 283 239 C 282 240 280.2 240.6 279 240 L 285 233" stroke-linecap="round"/>
</g>
<g transform="matrix(0.9524 0 0 0.9524 476.2859 251.4288)">
<path style="stroke: rgb(0,0,0); stroke-width: 1.9; stroke-dasharray: none; stroke-linecap: round; stroke-dashoffset: 0; stroke-linejoin: round; stroke-miterlimit: 4; fill: none; fill-rule: nonzero; opacity: 1;" transform=" translate(-266, -243)" d="M 270 235 C 273 236.5 273.6 240.6 276 243 C 276 244.7 274.2 245.8 273 247 L 266 244 L 260 251 C 258.6 251 257 251 256 250 L 258 246 L 268 236 L 269 236" stroke-linecap="round"/>
</g>
<g transform="matrix(0.9524 0 0 0.9524 433.4831 275.2386)">
<path style="stroke: rgb(0,0,0); stroke-width: 1.9; stroke-dasharray: none; stroke-linecap: round; stroke-dashoffset: 0; stroke-linejoin: round; stroke-miterlimit: 4; fill: none; fill-rule: nonzero; opacity: 1;" transform=" translate(-221.0571, -268)" d="M 216 244 C 216.8 244.8 218 245.8 218 247 L 226 255 C 229.7 256.8 223 262.9 223 267 L 222 268 L 222 284 C 223.9 285.9 224.4 290.8 222 292 C 219.4 289.4 219.6 284.6 217 282 L 217 251 C 215.8 249.2 215 247.1 215 245" stroke-linecap="round"/>
</g>
<g transform="matrix(0.9524 0 0 0.9524 356.8372 261.0549)">
<path style="stroke: rgb(0,0,0); stroke-width: 1.9; stroke-dasharray: none; stroke-linecap: round; stroke-dashoffset: 0; stroke-linejoin: round; stroke-miterlimit: 4; fill: none; fill-rule: nonzero; opacity: 1;" transform=" translate(-140.579, -253.1075)" d="M 144 246 C 144.9 246 146.7 247.3 146 248 L 146 257 C 143.4 259.6 137.6 261.6 135 259 L 136 255 L 143 248 L 143 247" stroke-linecap="round"/>
</g>
<g transform="matrix(0.9524 0 0 0.9524 369.3827 266.3693)">
<path style="stroke: rgb(0,0,0); stroke-width: 1.9; stroke-dasharray: none; stroke-linecap: round; stroke-dashoffset: 0; stroke-linejoin: round; stroke-miterlimit: 4; fill: none; fill-rule: nonzero; opacity: 1;" transform=" translate(-153.7517, -258.6875)" d="M 154 248 C 156.6 248 158.8 250.7 160 253 C 160 257.9 161.6 262.8 164 267 L 163 268 L 153 269 C 152.5 269.5 151.5 269.5 151 269 L 144 269 C 143 268 143.6 265 145 265 C 147.7 262.9 150 259.4 150 256 C 151.8 254.2 151.2 250.8 153 249" stroke-linecap="round"/>
</g>
<g transform="matrix(0.9524 0 0 0.9524 527.8472 263.3335)">
<path style="stroke: rgb(0,0,0); stroke-width: 1.9; stroke-dasharray: none; stroke-linecap: round; stroke-dashoffset: 0; stroke-linejoin: round; stroke-miterlimit: 4; fill: none; fill-rule: nonzero; opacity: 1;" transform=" translate(-320.1395, -255.5)" d="M 319 250 C 320.7 250 321.8 251.8 323 253 C 322.5 255.8 322 259 320 261 C 318.5 261 317.3 258.3 318 257 C 317.6 255 316.6 252.4 318 251" stroke-linecap="round"/>
</g>
<g transform="matrix(0.9524 0 0 0.9524 456.2858 267.6192)">
<path style="stroke: rgb(0,0,0); stroke-width: 1.9; stroke-dasharray: none; stroke-linecap: round; stroke-dashoffset: 0; stroke-linejoin: round; stroke-miterlimit: 4; fill: none; fill-rule: nonzero; opacity: 1;" transform=" translate(-245, -260)" d="M 246 255 C 247.7 255 249 257.3 249 259 C 247.7 261.5 245.8 265 243 265 C 242 263.5 241 261.8 241 260 L 245 256" stroke-linecap="round"/>
</g>
<g transform="matrix(0.9524 0 0 0.9524 239.5184 286.6611)">
<path style="stroke: rgb(0,0,0); stroke-width: 1.9; stroke-dasharray: none; stroke-linecap: round; stroke-dashoffset: 0; stroke-linejoin: round; stroke-miterlimit: 4; fill: none; fill-rule: nonzero; opacity: 1;" transform=" translate(-17.3941, -279.9937)" d="M 19 258 C 20.7 258 22.8 257.8 24 259 L 24 268 C 21.9 271.2 21 275.2 21 279 C 19.7 280.3 20.3 282.7 19 284 C 19 290.2 18.4 297.6 14 302 C 9.6 302 11 293.4 11 289 C 12.4 287.6 12 285 12 283 C 14.7 277.5 16 271.1 16 265 C 17.5 263.5 16.5 260.5 18 259" stroke-linecap="round"/>
</g>
<g transform="matrix(0.9524 0 0 0.9524 255.6738 288.0957)">
<path style="stroke: rgb(0,0,0); stroke-width: 1.9; stroke-dasharray: none; stroke-linecap: round; stroke-dashoffset: 0; stroke-linejoin: round; stroke-miterlimit: 4; fill: none; fill-rule: nonzero; opacity: 1;" transform=" translate(-34.3573, -281.5)" d="M 35 260 C 37.4 260 39.9 261.9 41 264 C 41 266 41.4 268.6 40 270 L 39 282 C 37.6 284.1 37.8 287.2 36 289 C 36 294.1 34.9 301.8 30 303 C 27.3 301.7 26.9 296.1 29 294 C 29 290.3 29.3 286.3 31 283 C 31 278.6 30.9 273.1 34 270 L 34 261" stroke-linecap="round"/>
</g>
<g transform="matrix(0.9524 0 0 0.9524 274.0906 287.1432)">
<path style="stroke: rgb(0,0,0); stroke-width: 1.9; stroke-dasharray: none; stroke-linecap: round; stroke-dashoffset: 0; stroke-linejoin: round; stroke-miterlimit: 4; fill: none; fill-rule: nonzero; opacity: 1;" transform=" translate(-53.695, -280.5)" d="M 54 262 C 55.6 262.4 58 263.3 58 265 L 59 266 L 59 280 C 55.9 283.1 56 288.6 56 293 C 54.7 295.5 52.8 299 50 299 C 48.9 297.3 47.6 294.4 49 293 C 49 289.9 49.6 286.7 51 284 L 51 264 L 53 263" stroke-linecap="round"/>
</g>
<g transform="matrix(0.9524 0 0 0.9524 479.6192 299.1869)">
<path style="stroke: rgb(0,0,0); stroke-width: 1.9; stroke-dasharray: none; stroke-linecap: round; stroke-dashoffset: 0; stroke-linejoin: round; stroke-miterlimit: 4; fill: none; fill-rule: nonzero; opacity: 1;" transform=" translate(-269.5, -293.1461)" d="M 267 288 L 268 288 C 269.7 289.7 272 291.6 272 294 C 272.8 294.8 274 295.8 274 297 C 271.3 298.3 267.1 299.1 265 297 C 266.2 294.6 266 291.7 266 289" stroke-linecap="round"/>
</g>
<g transform="matrix(0.9524 0 0 0.9524 577.7147 349.048)">
<path style="stroke: rgb(0,0,0); stroke-width: 1.9; stroke-dasharray: none; stroke-linecap: round; stroke-dashoffset: 0; stroke-linejoin: round; stroke-miterlimit: 4; fill: none; fill-rule: nonzero; opacity: 1;" transform=" translate(-372.5, -345.5)" d="M 387 327 L 391 327 C 391 329.7 390.9 333.1 389 335 C 388.3 337.1 386 338.8 386 341 C 384 343.5 382 346 381 349 C 376.6 353.4 375.5 361.2 370 364 C 366.9 364 364.2 361.2 362 359 C 361.4 357.2 360.4 355.4 359 354 C 357.9 347.5 357.6 340.4 354 335 C 354 332.5 359.2 330.2 361 332 C 361 333.8 362 335.5 363 337 L 364 347 C 366.2 349.2 368.8 355.2 371 353 C 371 350.2 373.1 347.7 374 345 C 376 342.5 378 340 379 337 C 381.7 334.3 383.3 330.7 386 328" stroke-linecap="round"/>
</g>
<g transform="matrix(0.9524 0 0 0.9524 545.3335 350.4766)">
<path style="stroke: rgb(0,0,0); stroke-width: 1.9; stroke-dasharray: none; stroke-linecap: round; stroke-dashoffset: 0; stroke-linejoin: round; stroke-miterlimit: 4; fill: none; fill-rule: nonzero; opacity: 1;" transform=" translate(-338.5, -347)" d="M 342 328 C 343.4 328 344.2 329.8 345 331 L 345 338 C 343.3 339.7 344.7 343.3 343 345 C 343 349.5 341.5 354.2 339 358 C 339 360.7 339.2 363.6 338 366 C 335.9 366 333.5 365.5 332 364 C 332 360.6 332.1 356.8 334 354 C 334 348.8 335.1 343.3 338 339 L 339 329 L 341 329" stroke-linecap="round"/>
</g>
<g transform="matrix(1 0 0 1 491.9713 357.7156)">
<line style="stroke: rgb(0,0,0); stroke-width: 8; stroke-dasharray: none; stroke-linecap: butt; stroke-dashoffset: 0; stroke-linejoin: miter; stroke-miterlimit: 4; fill: rgb(0,0,0); fill-rule: nonzero; opacity: 1;" x1="35.42349136694497" y1="2.1877873429415047" x2="-35.42349136694497" y2="-2.1877873429415047"/>
</g>
<g transform="matrix(1 0 0 1 348.0907 279.3928)">
<line style="stroke: rgb(0,0,0); stroke-width: 8; stroke-dasharray: none; stroke-linecap: butt; stroke-dashoffset: 0; stroke-linejoin: miter; stroke-miterlimit: 4; fill: rgb(0,0,0); fill-rule: nonzero; opacity: 1;" x1="-58.60182522432871" y1="2.6253448115298" x2="58.60182522432871" y2="-2.6253448115298"/>
</g>
<g transform="matrix(1 0 0 1 412.6555 79.9328)">
<line style="stroke: rgb(0,0,0); stroke-width: 8; stroke-dasharray: none; stroke-linecap: butt; stroke-dashoffset: 0; stroke-linejoin: miter; stroke-miterlimit: 4; fill: rgb(0,0,0); fill-rule: nonzero; opacity: 1;" x1="35.981042654028414" y1="-20.999999999999993" x2="-35.981042654028414" y2="20.999999999999993"/>
</g>
<g transform="matrix(1 0 0 1 454.1337 139.9328)">
<line style="stroke: rgb(0,0,0); stroke-width: 8; stroke-dasharray: none; stroke-linecap: butt; stroke-dashoffset: 0; stroke-linejoin: miter; stroke-miterlimit: 4; fill: rgb(0,0,0); fill-rule: nonzero; opacity: 1;" x1="104.44497103738806" y1="-40.99999999999998" x2="-104.44497103738806" y2="40.99999999999998"/>
</g>
</svg>