<?xml version="1.0" encoding="UTF-8" standalone="no" ?>
<!DOCTYPE svg PUBLIC "-//W3C//DTD SVG 1.1//EN" "http://www.w3.org/Graphics/SVG/1.1/DTD/svg11.dtd">
<svg xmlns="http://www.w3.org/2000/svg" xmlns:xlink="http://www.w3.org/1999/xlink" version="1.1" width="844" height="400" viewBox="0 0 844 400" xml:space="preserve">
<desc>Created with Fabric.js 6.7.1</desc>
<defs>
</defs>
<rect x="0" y="0" width="100%" height="100%" fill="transparent"></rect>
<g transform="matrix(1 0 0 1 282.0253 209.1961)"  >
<path style="stroke: rgb(0,0,0); stroke-width: 3; stroke-dasharray: none; stroke-linecap: round; stroke-dashoffset: 0; stroke-linejoin: round; stroke-miterlimit: 10; fill: none; fill-rule: nonzero; opacity: 1;"  transform=" translate(-282.0253, -209.1961)" d="M 270.5314 164.5204 Q 270.5344 164.5234 271.034 164.0234 Q 271.5336 163.5234 276.5297 175.0234 Q 281.5257 186.5234 284.0238 196.5234 Q 286.5218 206.5234 287.521 215.0234 Q 288.5202 223.5234 290.019 231.0234 Q 291.5179 238.5234 292.0175 242.5234 Q 292.5171 246.5234 292.5171 249.0234 Q 292.5171 251.5234 293.0167 253.0234 L 293.5193 254.5264" stroke-linecap="round" />
</g>
<g transform="matrix(1 0 0 1 314.4983 204.5234)"  >
<path style="stroke: rgb(0,0,0); stroke-width: 3; stroke-dasharray: none; stroke-linecap: round; stroke-dashoffset: 0; stroke-linejoin: round; stroke-miterlimit: 10; fill: none; fill-rule: nonzero; opacity: 1;"  transform=" translate(-314.4983, -204.5234)" d="M 305.5038 167.5204 Q 305.5068 167.5234 307.5053 172.0234 Q 309.5037 176.5234 313.0009 188.0234 Q 316.4982 199.5234 318.9962 208.0234 Q 321.4942 216.5234 322.4935 225.5234 Q 323.4927 234.5234 323.4927 236.0234 Q 323.4927 237.5234 321.9939 239.5234 L 320.492 241.5264" stroke-linecap="round" />
</g>
<g transform="matrix(1 0 0 1 488.3628 148.6133)"  >
<path style="stroke: rgb(0,0,0); stroke-width: 3; stroke-dasharray: none; stroke-linecap: round; stroke-dashoffset: 0; stroke-linejoin: round; stroke-miterlimit: 10; fill: none; fill-rule: nonzero; opacity: 1;"  transform=" translate(-488.3628, -148.6133)" d="M 286.5188 244.5264 Q 286.5218 244.5234 286.5218 245.0234 Q 286.5218 245.5234 288.5202 243.5234 Q 290.5186 241.5234 293.0167 238.5234 Q 295.5147 235.5234 310.0033 223.0234 Q 324.4919 210.5234 335.4832 202.0234 Q 346.4746 193.5234 356.4667 187.5234 Q 366.4588 181.5234 369.4565 179.5234 Q 372.4541 177.5234 372.4541 177.0234 Q 372.4541 176.5234 371.9545 176.5234 Q 371.4549 176.5234 369.9561 176.5234 Q 368.4573 176.5234 363.9608 180.5234 Q 359.4643 184.5234 356.9663 187.5234 Q 354.4683 190.5234 353.4691 193.5234 Q 352.4699 196.5234 351.9703 199.5234 Q 351.4706 202.5234 351.4706 205.0234 Q 351.4706 207.5234 351.4706 209.0234 Q 351.4706 210.5234 351.4706 211.5234 Q 351.4706 212.5234 351.9703 213.0234 Q 352.4699 213.5234 353.9687 213.0234 Q 355.4675 212.5234 356.9663 210.5234 Q 358.4651 208.5234 359.4643 206.0234 Q 360.4636 203.5234 361.9624 199.0234 Q 363.4612 194.5234 364.4604 189.0234 Q 365.4596 183.5234 365.4596 182.5234 Q 365.4596 181.5234 365.4596 181.0234 Q 365.4596 180.5234 366.4588 180.5234 Q 367.4581 180.5234 367.4581 181.0234 Q 367.4581 181.5234 369.9561 184.0234 Q 372.4541 186.5234 373.9529 188.0234 Q 375.4518 189.5234 377.4502 189.5234 Q 379.4486 189.5234 381.9466 188.0234 Q 384.4447 186.5234 385.4439 179.0234 Q 386.4431 171.5234 386.4431 163.5234 Q 386.4431 155.5234 386.4431 145.5234 Q 386.4431 135.5234 383.4455 125.0234 Q 380.4478 114.5234 376.451 108.5234 Q 372.4541 102.5234 367.9577 99.5234 Q 363.4612 96.5234 361.9624 95.5234 Q 360.4636 94.5234 360.4636 97.0234 Q 360.4636 99.5234 360.4636 103.0234 Q 360.4636 106.5234 360.4636 112.0234 Q 360.4636 117.5234 366.9584 129.5234 Q 373.4533 141.5234 388.4415 159.0234 Q 403.4297 176.5234 415.4203 184.5234 Q 427.4108 192.5234 439.4014 197.0234 Q 451.392 201.5234 454.3896 201.5234 Q 457.3872 201.5234 457.8868 201.0234 Q 458.3865 200.5234 458.3865 195.5234 Q 458.3865 190.5234 457.8868 183.5234 Q 457.3872 176.5234 454.8892 169.0234 Q 452.3912 161.5234 450.8924 158.5234 Q 449.3935 155.5234 448.8939 155.0234 Q 448.3943 154.5234 448.3943 154.0234 Q 448.3943 153.5234 448.3943 153.0234 Q 448.3943 152.5234 450.3927 152.5234 Q 452.3912 152.5234 454.3896 154.0234 Q 456.388 155.5234 457.8868 158.5234 Q 459.3857 161.5234 459.8853 163.5234 Q 460.3849 165.5234 461.3841 168.5234 Q 462.3833 171.5234 462.3833 173.0234 Q 462.3833 174.5234 462.3833 176.0234 Q 462.3833 177.5234 462.3833 178.5234 Q 462.3833 179.5234 460.3849 179.5234 Q 458.3865 179.5234 457.8868 179.0234 Q 457.3872 178.5234 457.3872 176.5234 Q 457.3872 174.5234 460.3849 168.0234 Q 463.3825 161.5234 467.879 156.5234 Q 472.3754 151.5234 477.3715 145.5234 Q 482.3676 139.5234 482.3676 138.0234 Q 482.3676 136.5234 482.3676 135.5234 Q 482.3676 134.5234 482.8672 134.0234 Q 483.3668 133.5234 484.366 133.5234 Q 485.3652 133.5234 488.8625 137.5234 Q 492.3597 141.5234 492.8593 141.5234 Q 493.3589 141.5234 493.8585 141.5234 Q 494.3581 141.5234 494.3581 139.0234 Q 494.3581 136.5234 493.8585 132.0234 Q 493.3589 127.5234 492.8593 123.5234 Q 492.3597 119.5234 491.8601 119.0234 Q 491.3605 118.5234 490.8609 118.5234 Q 490.3613 118.5234 490.3613 118.0234 Q 490.3613 117.5234 490.8609 117.0234 Q 491.3605 116.5234 492.3597 116.0234 Q 493.3589 115.5234 494.8577 112.0234 Q 496.3566 108.5234 496.3566 102.5234 Q 496.3566 96.5234 496.3566 87.0234 Q 496.3566 77.5234 495.3573 69.5234 Q 494.3581 61.5234 493.3589 57.5234 Q 492.3597 53.5234 492.3597 52.5234 Q 492.3597 51.5234 493.3589 54.5234 Q 494.3581 57.5234 495.8569 59.5234 Q 497.3558 61.5234 501.8522 65.5234 Q 506.3487 69.5234 510.8451 72.5234 Q 515.3416 75.5234 515.8412 75.5234 Q 516.3408 75.5234 518.3392 80.0234 Q 520.3377 84.5234 525.8333 103.0234 Q 531.329 121.5234 538.3235 149.0234 Q 545.318 176.5234 548.3156 194.0234 Q 551.3133 211.5234 551.8129 214.0234 Q 552.3125 216.5234 553.8113 211.5234 Q 555.3101 206.5234 557.3086 198.0234 Q 559.307 189.5234 563.3038 179.5234 Q 567.3007 169.5234 581.2897 145.0234 Q 595.2787 120.5234 601.7735 117.0234 Q 608.2684 113.5234 612.7649 114.0234 Q 617.2613 114.5234 623.7562 123.5234 Q 630.2511 132.5234 632.7492 142.0234 Q 635.2472 151.5234 635.2472 157.0234 Q 635.2472 162.5234 635.2472 163.5234 Q 635.2472 164.5234 635.2472 165.0234 Q 635.2472 165.5234 633.2488 165.5234 Q 631.2503 165.5234 629.2519 162.5234 Q 627.2535 159.5234 627.2535 155.5234 Q 627.2535 151.5234 628.2527 144.5234 Q 629.2519 137.5234 659.7279 105.0234 L 690.2069 72.5204" stroke-linecap="round" />
</g>
</svg>