<?xml version="1.0" encoding="UTF-8" standalone="no" ?>
<!DOCTYPE svg PUBLIC "-//W3C//DTD SVG 1.1//EN" "http://www.w3.org/Graphics/SVG/1.1/DTD/svg11.dtd">
<svg xmlns="http://www.w3.org/2000/svg" xmlns:xlink="http://www.w3.org/1999/xlink" version="1.1" width="312.7748216327044" height="224.050597536702" viewBox="0 0 312.7748 224.0506" xml:space="preserve">
<desc>Created with Fabric.js 6.7.1</desc>
<defs>
</defs>
<rect x="0" y="0" width="100%" height="100%" fill="transparent"></rect>
<g transform="matrix(1 0 0 1 156.3874 112.0253)"  >
<path style="stroke: rgb(0,0,0); stroke-width: 3; stroke-dasharray: none; stroke-linecap: round; stroke-dashoffset: 0; stroke-linejoin: round; stroke-miterlimit: 10; fill: none; fill-rule: nonzero; opacity: 1;"  transform=" translate(-307.5038, -227.0457)" d="M 162.6164 126.5204 Q 162.6194 126.5234 164.6178 131.0234 Q 166.6162 135.5234 169.1142 138.5234 Q 171.6123 141.5234 174.1103 147.0234 Q 176.6083 152.5234 185.1016 158.5234 Q 193.595 164.5234 199.0906 165.5234 Q 204.5863 166.5234 208.5832 166.5234 Q 212.58 166.5234 215.078 164.5234 Q 217.5761 162.5234 218.0757 162.0234 Q 218.5753 161.5234 219.0749 161.5234 Q 219.5745 161.5234 223.5714 164.0234 Q 227.5682 166.5234 241.5572 193.0234 Q 255.5462 219.5234 277.5289 252.0234 Q 299.5116 284.5234 322.9931 304.0234 Q 346.4746 323.5234 363.9608 326.0234 Q 381.447 328.5234 392.4384 322.0234 Q 403.4297 315.5234 410.4242 297.5234 Q 417.4187 279.5234 417.4187 268.5234 Q 417.4187 257.5234 416.4195 253.0234 Q 415.4203 248.5234 414.4211 247.5234 Q 413.4219 246.5234 413.4219 248.5234 Q 413.4219 250.5234 417.9183 256.5234 Q 422.4148 262.5234 428.9097 264.0234 Q 435.4046 265.5234 441.8994 265.5234 Q 448.3943 265.5234 450.3927 263.5234 Q 452.3912 261.5234 452.3912 261.0234 Q 452.3912 260.5234 451.8916 259.5234 Q 451.392 258.5234 450.3927 256.5234 Q 449.3935 254.5234 443.3983 246.5234 L 437.4 238.5204" stroke-linecap="round" />
</g>
</svg>