<?xml version="1.0" encoding="UTF-8" standalone="no" ?>
<!DOCTYPE svg PUBLIC "-//W3C//DTD SVG 1.1//EN" "http://www.w3.org/Graphics/SVG/1.1/DTD/svg11.dtd">
<svg xmlns="http://www.w3.org/2000/svg" xmlns:xlink="http://www.w3.org/1999/xlink" version="1.1" width="844" height="400" viewBox="0 0 844 400" xml:space="preserve">
<desc>Created with Fabric.js 6.7.1</desc>
<defs>
</defs>
<rect x="0" y="0" width="100%" height="100%" fill="transparent"></rect>
<g transform="matrix(0.692 0 0 0.692 422 200)"  >
	<image style="stroke: none; stroke-width: 0; stroke-dasharray: none; stroke-linecap: butt; stroke-dashoffset: 0; stroke-linejoin: miter; stroke-miterlimit: 4; fill: rgb(0,0,0); fill-rule: nonzero; opacity: 1;"  xlink:href="https://images.weserv.nl/?url=https%3A%2F%2Fcdn.storymd.com%2Foptimized%2FVdK2aDswoK%2Foriginal.jpg&w=800&output=webp" x="-400" y="-289" width="800" height="578"></image>
</g>
<g transform="matrix(1 0 0 1 97.6152 173.5)"  >
<path style="stroke: rgb(0,0,0); stroke-width: 3; stroke-dasharray: none; stroke-linecap: round; stroke-dashoffset: 0; stroke-linejoin: round; stroke-miterlimit: 10; fill: none; fill-rule: nonzero; opacity: 1;"  transform=" translate(-97.6152, -173.5)" d="M 86.618 94.997 Q 86.621 95 86.621 98.5 Q 86.621 102 87.6205 107 Q 88.62 112 90.6189 126 Q 92.6179 140 96.116 162.5 Q 99.6142 185 101.1134 197.5 Q 102.6126 210 103.6121 220 Q 104.6115 230 105.1113 236 Q 105.611 242 106.6105 245.5 Q 107.61 249 107.61 250 Q 107.61 251 108.1097 251.5 L 108.6124 252.003" stroke-linecap="round" />
</g>
<g transform="matrix(1 0 0 1 85.1218 190.4985)"  >
<path style="stroke: rgb(0,0,0); stroke-width: 3; stroke-dasharray: none; stroke-linecap: round; stroke-dashoffset: 0; stroke-linejoin: round; stroke-miterlimit: 10; fill: none; fill-rule: nonzero; opacity: 1;"  transform=" translate(-85.1218, -190.4985)" d="M 65.6291 266 Q 65.6321 266 66.1318 266 Q 66.6316 266 67.1313 266 Q 67.631 266 68.6305 266 Q 69.63 266 71.1292 265 Q 72.6284 264 75.6268 254.5 Q 78.6252 245 80.6242 229 Q 82.6231 213 85.1218 200 Q 87.6205 187 91.6184 173 Q 95.6163 159 97.1155 148.5 Q 98.6147 138 100.6136 130.5 Q 102.6126 123 102.6126 120.5 Q 102.6126 118 103.6121 116.5 L 104.6145 114.997" stroke-linecap="round" />
</g>
</svg>