<?xml version="1.0" encoding="UTF-8" standalone="no" ?>
<!DOCTYPE svg PUBLIC "-//W3C//DTD SVG 1.1//EN" "http://www.w3.org/Graphics/SVG/1.1/DTD/svg11.dtd">
<svg xmlns="http://www.w3.org/2000/svg" xmlns:xlink="http://www.w3.org/1999/xlink" version="1.1" width="231.58875091664504" height="127.00299586741143" viewBox="0 0 231.5888 127.003" xml:space="preserve">
<desc>Created with Fabric.js 6.7.1</desc>
<defs>
</defs>
<rect x="0" y="0" width="100%" height="100%" fill="transparent"></rect>
<g transform="matrix(1 0 0 1 115.7944 63.5015)"  >
<path style="stroke: rgb(0,0,0); stroke-width: 3; stroke-dasharray: none; stroke-linecap: round; stroke-dashoffset: 0; stroke-linejoin: round; stroke-miterlimit: 10; fill: none; fill-rule: nonzero; opacity: 1;"  transform=" translate(-379.8218, -184.5219)" d="M 275.5274 132.5204 Q 275.5304 132.5234 279.0277 139.5234 Q 282.5249 146.5234 287.521 159.0234 Q 292.5171 171.5234 299.012 182.5234 Q 305.5068 193.5234 314.0001 202.0234 Q 322.4935 210.5234 332.4856 213.0234 Q 342.4777 215.5234 352.4699 215.5234 Q 362.462 215.5234 370.9553 212.0234 Q 379.4486 208.5234 385.4439 200.0234 Q 391.4392 191.5234 391.9388 189.5234 Q 392.4384 187.5234 392.4384 187.0234 Q 392.4384 186.5234 392.4384 186.0234 Q 392.4384 185.5234 391.4392 186.0234 Q 390.44 186.5234 389.9404 189.0234 Q 389.4407 191.5234 389.4407 196.5234 Q 389.4407 201.5234 389.4407 209.0234 Q 389.4407 216.5234 391.4392 223.0234 Q 393.4376 229.5234 398.4337 233.0234 Q 403.4297 236.5234 411.923 236.5234 Q 420.4164 236.5234 438.9018 227.5234 Q 457.3872 218.5234 467.3794 209.0234 Q 477.3715 199.5234 479.8695 190.5234 Q 482.3676 181.5234 483.3668 176.5234 Q 484.366 171.5234 483.3668 168.0234 Q 482.3676 164.5234 480.3691 162.5234 L 478.3677 160.5204" stroke-linecap="round" />
</g>
</svg>