<?xml version="1.0" encoding="UTF-8" standalone="no" ?>
<!DOCTYPE svg PUBLIC "-//W3C//DTD SVG 1.1//EN" "http://www.w3.org/Graphics/SVG/1.1/DTD/svg11.dtd">
<svg xmlns="http://www.w3.org/2000/svg" xmlns:xlink="http://www.w3.org/1999/xlink" version="1.1" width="657.3754664105629" height="169.00299419848147" viewBox="0 0 657.3755 169.003" xml:space="preserve">
<desc>Created with Fabric.js 6.7.1</desc>
<defs>
</defs>
<rect x="0" y="0" width="100%" height="100%" fill="transparent"></rect>
<g transform="matrix(1 0 0 1 328.6877 84.5015)"  >
<path style="stroke: rgb(0,0,0); stroke-width: 3; stroke-dasharray: none; stroke-linecap: round; stroke-dashoffset: 0; stroke-linejoin: round; stroke-miterlimit: 10; fill: none; fill-rule: nonzero; opacity: 1;"  transform=" translate(-424.9753, -208.5219)" d="M 274.5342 135.5204 Q 274.5312 135.5234 273.532 136.0234 Q 272.5328 136.5234 272.0332 137.0234 Q 271.5336 137.5234 271.034 138.0234 Q 270.5344 138.5234 270.5344 140.5234 Q 270.5344 142.5234 278.5281 150.0234 Q 286.5218 157.5234 300.0112 166.0234 Q 313.5005 174.5234 332.9852 181.0234 Q 352.4699 187.5234 372.4541 189.5234 Q 392.4384 191.5234 413.4219 190.0234 Q 434.4053 188.5234 450.8924 182.5234 Q 467.3794 176.5234 473.3747 172.0234 Q 479.3699 167.5234 480.3691 166.5234 Q 481.3684 165.5234 475.3731 163.5234 Q 469.3778 161.5234 459.3857 161.5234 Q 449.3935 161.5234 439.4014 168.0234 Q 429.4093 174.5234 420.916 185.5234 Q 412.4226 196.5234 409.9246 209.0234 Q 407.4266 221.5234 407.4266 236.5234 Q 407.4266 251.5234 409.9246 262.0234 Q 412.4226 272.5234 418.9175 277.0234 Q 425.4124 281.5234 434.4053 281.5234 Q 443.3983 281.5234 465.3809 271.5234 Q 487.3636 261.5234 495.8569 249.0234 Q 504.3503 236.5234 506.8483 224.0234 Q 509.3463 211.5234 509.3463 200.5234 Q 509.3463 189.5234 503.351 178.0234 Q 497.3558 166.5234 484.8656 159.5234 Q 472.3754 152.5234 457.3872 150.5234 Q 442.399 148.5234 426.4116 149.5234 Q 410.4242 150.5234 389.4407 163.0234 Q 368.4573 175.5234 358.9647 186.5234 Q 349.4722 197.5234 345.4754 211.0234 Q 341.4785 224.5234 341.4785 233.0234 Q 341.4785 241.5234 343.9765 246.5234 Q 346.4746 251.5234 348.473 251.0234 Q 350.4714 250.5234 355.4675 246.0234 Q 360.4636 241.5234 361.4628 237.5234 Q 362.462 233.5234 361.9624 225.5234 Q 361.4628 217.5234 354.4683 205.5234 Q 347.4738 193.5234 337.4817 180.5234 Q 327.4895 167.5234 314.9994 160.0234 Q 302.5092 152.5234 291.5179 150.0234 Q 280.5265 147.5234 272.5328 147.5234 Q 264.5391 147.5234 262.0411 148.0234 Q 259.543 148.5234 259.0434 150.0234 Q 258.5438 151.5234 258.0442 159.5234 Q 257.5446 167.5234 257.5446 172.5234 Q 257.5446 177.5234 258.5438 181.0234 Q 259.543 184.5234 260.5422 185.5234 Q 261.5415 186.5234 262.0411 187.0234 Q 262.5407 187.5234 260.0426 188.5234 Q 257.5446 189.5234 249.0513 193.0234 Q 240.558 196.5234 227.5682 201.0234 Q 214.5784 205.5234 201.5887 212.5234 Q 188.5989 219.5234 172.6115 229.0234 Q 156.6241 238.5234 143.1347 251.0234 Q 129.6453 263.5234 128.6461 267.5234 Q 127.6469 271.5234 127.6469 272.5234 Q 127.6469 273.5234 126.6477 273.0234 Q 125.6485 272.5234 125.1489 270.0234 Q 124.6493 267.5234 121.152 259.5234 Q 117.6548 251.5234 115.1567 242.5234 Q 112.6587 233.5234 110.6603 225.5234 Q 108.6618 217.5234 108.1622 215.5234 Q 107.6626 213.5234 108.1622 211.5234 Q 108.6618 209.5234 118.1544 204.0234 Q 127.6469 198.5234 144.1339 194.5234 Q 160.6209 190.5234 182.104 190.5234 Q 203.5871 190.5234 229.5666 189.5234 Q 255.5462 188.5234 289.5194 188.5234 Q 323.4927 188.5234 362.9616 188.5234 Q 402.4305 188.5234 441.3998 188.5234 Q 480.3691 188.5234 502.3518 188.5234 Q 524.3345 188.5234 536.3251 186.0234 Q 548.3156 183.5234 555.3101 180.0234 Q 562.3046 176.5234 566.8011 171.5234 Q 571.2975 166.5234 574.2952 160.5234 Q 577.2928 154.5234 578.7916 150.5234 Q 580.2905 146.5234 580.7901 146.5234 Q 581.2897 146.5234 581.7893 146.0234 Q 582.2889 145.5234 585.7861 145.5234 Q 589.2834 145.5234 595.2787 146.0234 Q 601.2739 146.5234 609.7672 149.0234 Q 618.2606 151.5234 621.2582 151.5234 Q 624.2558 151.5234 624.7554 151.5234 Q 625.2551 151.5234 625.7547 151.5234 Q 626.2543 151.5234 626.7539 149.0234 Q 627.2535 146.5234 627.2535 144.0234 Q 627.2535 141.5234 627.2535 140.5234 Q 627.2535 139.5234 627.2535 139.0234 Q 627.2535 138.5234 624.7554 138.5234 Q 622.2574 138.5234 616.7617 139.0234 Q 611.2661 139.5234 606.27 143.5234 Q 601.2739 147.5234 600.2747 157.0234 Q 599.2755 166.5234 600.7743 181.5234 Q 602.2732 196.5234 610.7665 210.0234 Q 619.2598 223.5234 631.7499 232.5234 Q 644.2401 241.5234 658.2291 245.5234 Q 672.2181 249.5234 696.1992 248.5234 Q 720.1803 247.5234 728.6736 242.0234 Q 737.1669 236.5234 739.665 230.5234 Q 742.163 224.5234 742.163 219.5234 Q 742.163 214.5234 742.163 211.0234 Q 742.163 207.5234 742.163 204.0234 L 742.163 200.5204" stroke-linecap="round" />
</g>
</svg>