<svg xmlns="http://www.w3.org/2000/svg" xmlns:xlink="http://www.w3.org/1999/xlink" version="1.1" width="173.4108485234579" height="253.41613899847036" viewBox="229.65750713330777 52.53906041228528 173.4108485234579 253.41613899847036" xml:space="preserve">
<desc>Created with Fabric.js 6.7.1</desc>
<defs>
</defs>
<g transform="matrix(1 0 0 1 315.6239 177.5404)">
<line style="stroke: rgb(0,0,0); stroke-width: 3; stroke-dasharray: none; stroke-linecap: butt; stroke-dashoffset: 0; stroke-linejoin: miter; stroke-miterlimit: 4; fill: rgb(0,0,0); fill-rule: nonzero; opacity: 1;" x1="-56.97769621940668" y1="0" x2="56.97769621940668" y2="0"/>
</g>
<g transform="matrix(1 0 0 1 371.6019 70.5404)">
<path style="stroke: rgb(0,0,0); stroke-width: 3; stroke-dasharray: none; stroke-linecap: round; stroke-dashoffset: 0; stroke-linejoin: round; stroke-miterlimit: 4; fill: rgb(255,255,255); fill-opacity: 0; fill-rule: nonzero; opacity: 1;" transform=" translate(-371.6019, -70.5404)" d="M 371.6019 70.5404 L 371.6019 70.5404" stroke-linecap="round"/>
</g>
<g transform="matrix(1 0 0 1 314.6243 178.5404)">
<path style="stroke: rgb(0,0,0); stroke-width: 3; stroke-dasharray: none; stroke-linecap: round; stroke-dashoffset: 0; stroke-linejoin: round; stroke-miterlimit: 4; fill: rgb(255,255,255); fill-opacity: 0; fill-rule: nonzero; opacity: 1;" transform=" translate(-314.6242, -178.5404)" d="M 371.6019 70.5404 L 371.6019 286.5404 L 257.6466 286.5404 L 257.6466 71.5404" stroke-linecap="round"/>
</g>
<g transform="matrix(1 0 0 1 316.1237 86.0404)">
<line style="stroke: rgb(0,0,0); stroke-width: 2; stroke-dasharray: 6 4; stroke-linecap: butt; stroke-dashoffset: 0; stroke-linejoin: miter; stroke-miterlimit: 4; fill: rgb(0,0,0); fill-rule: nonzero; opacity: 1;" x1="56.477891866604864" y1="-0.4999999801317827" x2="-56.477891866604864" y2="0.4999999801317827"/>
</g>
<g transform="matrix(1 0 0 1 314.6243 92.5404)">
<line style="stroke: rgb(0,0,0); stroke-width: 2; stroke-dasharray: 6 4; stroke-linecap: butt; stroke-dashoffset: 0; stroke-linejoin: miter; stroke-miterlimit: 4; fill: rgb(0,0,0); fill-rule: nonzero; opacity: 1;" x1="56.97769621940665" y1="0" x2="-56.97769621940665" y2="0"/>
</g>
<g transform="matrix(1 0 0 1 312.625 101.0404)">
<line style="stroke: rgb(0,0,0); stroke-width: 2; stroke-dasharray: 6 4; stroke-linecap: butt; stroke-dashoffset: 0; stroke-linejoin: miter; stroke-miterlimit: 4; fill: rgb(0,0,0); fill-rule: nonzero; opacity: 1;" x1="56.97769621940664" y1="-0.4999999801317898" x2="-56.97769621940664" y2="0.4999999801317898"/>
</g>
<g transform="matrix(1 0 0 1 316.6235 108.0404)">
<line style="stroke: rgb(0,0,0); stroke-width: 2; stroke-dasharray: 6 4; stroke-linecap: butt; stroke-dashoffset: 0; stroke-linejoin: miter; stroke-miterlimit: 4; fill: rgb(0,0,0); fill-rule: nonzero; opacity: 1;" x1="54.97847880819941" y1="-0.4999999801317827" x2="-54.97847880819941" y2="0.4999999801317827"/>
</g>
<g transform="matrix(1 0 0 1 314.1245 117.0404)">
<line style="stroke: rgb(0,0,0); stroke-width: 2; stroke-dasharray: 6 4; stroke-linecap: butt; stroke-dashoffset: 0; stroke-linejoin: miter; stroke-miterlimit: 4; fill: rgb(0,0,0); fill-rule: nonzero; opacity: 1;" x1="56.47789186660481" y1="-1.4999999403953623" x2="-56.47789186660481" y2="1.4999999403953623"/>
</g>
<g transform="matrix(1 0 0 1 675.483 155.5404)">
<line style="stroke: rgb(0,0,0); stroke-width: 2; stroke-dasharray: 6 4; stroke-linecap: butt; stroke-dashoffset: 0; stroke-linejoin: miter; stroke-miterlimit: 4; fill: rgb(0,0,0); fill-rule: nonzero; opacity: 1;" x1="0" y1="0" x2="0" y2="0"/>
</g>
<g transform="matrix(1 0 0 1 313.1248 125.5404)">
<line style="stroke: rgb(0,0,0); stroke-width: 2; stroke-dasharray: 6 4; stroke-linecap: butt; stroke-dashoffset: 0; stroke-linejoin: miter; stroke-miterlimit: 4; fill: rgb(0,0,0); fill-rule: nonzero; opacity: 1;" x1="-57.477500572208456" y1="0" x2="57.477500572208456" y2="0"/>
</g>
<g transform="matrix(1 0 0 1 314.6243 132.0404)">
<line style="stroke: rgb(0,0,0); stroke-width: 2; stroke-dasharray: 6 4; stroke-linecap: butt; stroke-dashoffset: 0; stroke-linejoin: miter; stroke-miterlimit: 4; fill: rgb(0,0,0); fill-rule: nonzero; opacity: 1;" x1="-56.97769621940665" y1="0.4999999801317756" x2="56.97769621940665" y2="-0.4999999801317756"/>
</g>
<g transform="matrix(1 0 0 1 313.6247 138.5404)">
<line style="stroke: rgb(0,0,0); stroke-width: 2; stroke-dasharray: 6 4; stroke-linecap: butt; stroke-dashoffset: 0; stroke-linejoin: miter; stroke-miterlimit: 4; fill: rgb(0,0,0); fill-rule: nonzero; opacity: 1;" x1="-55.97808751380299" y1="-0.9999999602635796" x2="55.97808751380299" y2="0.9999999602635796"/>
</g>
<g transform="matrix(1 0 0 1 313.6247 143.5404)">
<line style="stroke: rgb(0,0,0); stroke-width: 2; stroke-dasharray: 6 4; stroke-linecap: butt; stroke-dashoffset: 0; stroke-linejoin: miter; stroke-miterlimit: 4; fill: rgb(0,0,0); fill-rule: nonzero; opacity: 1;" x1="-55.97808751380299" y1="0.9999999602635654" x2="55.97808751380299" y2="-0.9999999602635654"/>
</g>
<g transform="matrix(1 0 0 1 313.6247 152.0404)">
<line style="stroke: rgb(0,0,0); stroke-width: 2; stroke-dasharray: 6 4; stroke-linecap: butt; stroke-dashoffset: 0; stroke-linejoin: miter; stroke-miterlimit: 4; fill: rgb(0,0,0); fill-rule: nonzero; opacity: 1;" x1="-55.97808751380299" y1="1.499999940395341" x2="55.97808751380299" y2="-1.499999940395341"/>
</g>
<g transform="matrix(1 0 0 1 313.6247 157.0404)">
<line style="stroke: rgb(0,0,0); stroke-width: 2; stroke-dasharray: 6 4; stroke-linecap: butt; stroke-dashoffset: 0; stroke-linejoin: miter; stroke-miterlimit: 4; fill: rgb(0,0,0); fill-rule: nonzero; opacity: 1;" x1="-55.97808751380299" y1="0.4999999801317756" x2="55.97808751380299" y2="-0.4999999801317756"/>
</g>
<g transform="matrix(1 0 0 1 315.1241 167.0404)">
<line style="stroke: rgb(0,0,0); stroke-width: 2; stroke-dasharray: 6 4; stroke-linecap: butt; stroke-dashoffset: 0; stroke-linejoin: miter; stroke-miterlimit: 4; fill: rgb(0,0,0); fill-rule: nonzero; opacity: 1;" x1="-56.477891866604864" y1="0.4999999801317898" x2="56.477891866604864" y2="-0.4999999801317898"/>
</g>
<g transform="matrix(1 0 0 1 314.6242 188.0404)">
<line style="stroke: rgb(0,0,0); stroke-width: 5; stroke-dasharray: 15 10; stroke-linecap: butt; stroke-dashoffset: 0; stroke-linejoin: miter; stroke-miterlimit: 4; fill: rgb(0,0,0); fill-rule: nonzero; opacity: 1;" x1="-57.977304925010316" y1="-0.4999999801317898" x2="57.977304925010316" y2="0.4999999801317898"/>
</g>
<g transform="matrix(1 0 0 1 315.1241 204.5404)">
<line style="stroke: rgb(0,0,0); stroke-width: 5; stroke-dasharray: 15 10; stroke-linecap: butt; stroke-dashoffset: 0; stroke-linejoin: miter; stroke-miterlimit: 4; fill: rgb(0,0,0); fill-rule: nonzero; opacity: 1;" x1="-56.477891866604864" y1="-0.9999999602635654" x2="56.477891866604864" y2="0.9999999602635654"/>
</g>
<g transform="matrix(1 0 0 1 316.1237 215.5404)">
<line style="stroke: rgb(0,0,0); stroke-width: 5; stroke-dasharray: 15 10; stroke-linecap: butt; stroke-dashoffset: 0; stroke-linejoin: miter; stroke-miterlimit: 4; fill: rgb(0,0,0); fill-rule: nonzero; opacity: 1;" x1="-56.477891866604864" y1="1.9999999205271308" x2="56.477891866604864" y2="-1.9999999205271308"/>
</g>
<g transform="matrix(1 0 0 1 314.6243 229.5404)">
<line style="stroke: rgb(0,0,0); stroke-width: 5; stroke-dasharray: 15 10; stroke-linecap: butt; stroke-dashoffset: 0; stroke-linejoin: miter; stroke-miterlimit: 4; fill: rgb(0,0,0); fill-rule: nonzero; opacity: 1;" x1="-56.97769621940665" y1="0.9999999602635796" x2="56.97769621940665" y2="-0.9999999602635796"/>
</g>
<g transform="matrix(1 0 0 1 314.6243 242.5404)">
<line style="stroke: rgb(0,0,0); stroke-width: 5; stroke-dasharray: 15 10; stroke-linecap: butt; stroke-dashoffset: 0; stroke-linejoin: miter; stroke-miterlimit: 4; fill: rgb(0,0,0); fill-rule: nonzero; opacity: 1;" x1="-56.97769621940665" y1="0.9999999602635654" x2="56.97769621940665" y2="-0.9999999602635654"/>
</g>
<g transform="matrix(1 0 0 1 316.1237 257.0404)">
<line style="stroke: rgb(0,0,0); stroke-width: 5; stroke-dasharray: 15 10; stroke-linecap: butt; stroke-dashoffset: 0; stroke-linejoin: miter; stroke-miterlimit: 4; fill: rgb(0,0,0); fill-rule: nonzero; opacity: 1;" x1="-56.477891866604864" y1="-1.4999999403953268" x2="56.477891866604864" y2="1.4999999403953268"/>
</g>
<g transform="matrix(1 0 0 1 313.6246 269.0404)">
<line style="stroke: rgb(0,0,0); stroke-width: 5; stroke-dasharray: 15 10; stroke-linecap: butt; stroke-dashoffset: 0; stroke-linejoin: miter; stroke-miterlimit: 4; fill: rgb(0,0,0); fill-rule: nonzero; opacity: 1;" x1="-56.97769621940665" y1="-0.4999999801317756" x2="56.97769621940665" y2="0.4999999801317756"/>
</g>
<g transform="matrix(1 0 0 1 378.5992 68.5404)">
<line style="stroke: rgb(0,0,255); stroke-width: 2; stroke-dasharray: none; stroke-linecap: butt; stroke-dashoffset: 0; stroke-linejoin: miter; stroke-miterlimit: 4; fill: rgb(0,0,0); fill-rule: nonzero; opacity: 1;" x1="0" y1="0" x2="0" y2="0"/>
</g>
<g transform="matrix(1 0 0 1 384.4305 76.3404)" style="">
		<text xml:space="preserve" font-family="Arial, sans-serif" font-size="20" font-style="normal" font-weight="normal" style="stroke: none; stroke-width: 1; stroke-dasharray: none; stroke-linecap: butt; stroke-dashoffset: 0; stroke-linejoin: miter; stroke-miterlimit: 4; fill: rgb(0,0,255); fill-rule: nonzero; opacity: 1; text-decoration-thickness: 6.6667%; white-space: pre;"><tspan x="-8.3301" y="6.2828">M</tspan></text>
</g>
<g transform="matrix(1 0 0 1 385.3213 179.3404)" style="">
		<text xml:space="preserve" font-family="Arial, sans-serif" font-size="20" font-style="normal" font-weight="normal" style="stroke: none; stroke-width: 1; stroke-dasharray: none; stroke-linecap: butt; stroke-dashoffset: 0; stroke-linejoin: miter; stroke-miterlimit: 4; fill: rgb(0,0,255); fill-rule: nonzero; opacity: 1; text-decoration-thickness: 6.6667%; white-space: pre;"><tspan x="-7.2217" y="6.2828">N</tspan></text>
</g>
<g transform="matrix(1 0 0 1 382.8791 289.3404)" style="">
		<text xml:space="preserve" font-family="Arial, sans-serif" font-size="20" font-style="normal" font-weight="normal" style="stroke: none; stroke-width: 1; stroke-dasharray: none; stroke-linecap: butt; stroke-dashoffset: 0; stroke-linejoin: miter; stroke-miterlimit: 4; fill: rgb(0,0,255); fill-rule: nonzero; opacity: 1; text-decoration-thickness: 6.6667%; white-space: pre;"><tspan x="-7.7783" y="6.2828">O</tspan></text>
</g>
</svg>