<?xml version="1.0" encoding="UTF-8" standalone="no" ?>
<!DOCTYPE svg PUBLIC "-//W3C//DTD SVG 1.1//EN" "http://www.w3.org/Graphics/SVG/1.1/DTD/svg11.dtd">
<svg xmlns="http://www.w3.org/2000/svg" xmlns:xlink="http://www.w3.org/1999/xlink" version="1.1" width="844" height="400" viewBox="0 0 844 400" xml:space="preserve">
<desc>Created with Fabric.js 6.7.1</desc>
<defs>
</defs>
<g transform="matrix(0.692 0 0 0.692 421.9834 199.988)"  >
	<image style="stroke: none; stroke-width: 0; stroke-dasharray: none; stroke-linecap: butt; stroke-dashoffset: 0; stroke-linejoin: miter; stroke-miterlimit: 4; fill: rgb(0,0,0); fill-rule: nonzero; opacity: 1;"  xlink:href="https://images.weserv.nl/?url=https%3A%2F%2Fcdn.storymd.com%2Foptimized%2FVdK2aDswoK%2Foriginal.jpg&w=800&output=webp" x="-400" y="-289" width="800" height="578"></image>
</g>
<g transform="matrix(1 0 0 1 203.7183 43.7653)"  >
<path style="stroke: rgb(0,255,0); stroke-width: 3; stroke-dasharray: none; stroke-linecap: round; stroke-dashoffset: 0; stroke-linejoin: round; stroke-miterlimit: 10; fill: none; fill-rule: nonzero; opacity: 1;"  transform=" translate(-203.7183, -43.7653)" d="M 150.5618 44.3295 Q 150.5648 44.3325 150.4288 44.5134 Q 150.2929 44.6944 151.9903 44.8981 Q 153.6877 45.1019 159.6165 44.9434 Q 165.5453 44.7849 176.5431 44.3775 Q 187.5408 43.9701 201.0506 43.5854 Q 214.5604 43.2007 235.8093 42.8385 L 257.0612 42.4734" stroke-linecap="round" />
</g>
<g transform="matrix(1 0 0 1 258.1471 266.9251)"  >
<path style="stroke: rgb(0,255,0); stroke-width: 3; stroke-dasharray: none; stroke-linecap: round; stroke-dashoffset: 0; stroke-linejoin: round; stroke-miterlimit: 10; fill: none; fill-rule: nonzero; opacity: 1;"  transform=" translate(-258.1471, -266.9251)" d="M 223.5699 265.8925 Q 223.5669 265.8895 222.6391 265.8442 Q 221.7113 265.799 221.2586 265.7085 Q 220.8058 265.618 220.5569 265.5727 Q 220.308 265.5275 229.5634 266.5235 Q 238.8188 267.5196 249.6357 267.6326 Q 260.4525 267.7456 278.126 268.0173 L 295.8024 268.292" stroke-linecap="round" />
</g>
</svg>