<?xml version="1.0" encoding="UTF-8"?>
<svg xmlns="http://www.w3.org/2000/svg" viewBox="0 0 647 495" width="647" height="495">
  <path d="M 38.0 66.0 L 42.0 68.0 L 54.0 89.0 L 54.0 94.0 C 49.6 94.6, 44.8 96.5, 42.0 100.0 L 42.0 347.0 C 44.5 349.5, 48.5 350.0, 52.0 350.0 L 73.0 355.0 L 87.0 361.0 L 96.0 367.0 L 101.0 365.0 L 265.0 156.0 C 262.6 152.4, 257.1 152.1, 254.0 149.0 L 260.0 144.0 L 273.0 112.0 C 275.7 111.5, 279.1 112.1, 281.0 114.0 L 290.0 140.0 L 298.0 149.0 L 296.0 152.0 L 284.0 152.0 L 282.0 150.0 C 283.0 146.4, 282.6 141.6, 280.0 139.0 L 269.0 139.0 C 266.9 140.6, 264.8 142.5, 264.0 145.0 C 266.4 149.0, 270.2 152.3, 274.0 155.0 L 271.0 163.0 L 67.0 422.0 C 67.0 424.1, 64.1 426.1, 65.0 428.0 L 68.0 428.0 L 87.0 418.0 L 329.0 281.0 L 368.0 261.0 C 369.6 262.6, 371.0 264.8, 371.0 267.0 L 367.0 271.0 L 132.0 402.0 L 130.0 407.0 L 136.0 420.0 L 140.0 443.0 L 144.0 446.0 L 453.0 446.0 L 456.0 444.0 L 457.0 436.0 L 461.0 435.0 L 486.0 449.0 L 485.0 454.0 L 460.0 467.0 L 456.0 464.0 L 456.0 456.0 L 454.0 454.0 L 38.0 455.0 C 35.6 452.6, 34.9 448.2, 36.0 445.0 L 36.0 98.0 L 34.0 96.0 L 25.0 95.0 C 23.7 93.7, 23.0 91.8, 23.0 90.0 L 37.0 67.0 M 45.0 359.0 L 53.0 359.0 C 64.0 361.6, 74.8 365.2, 85.0 370.0 L 91.0 375.0 L 89.0 380.0 L 50.0 430.0 L 45.0 435.0 L 42.0 431.0 L 42.0 362.0 L 44.0 360.0 M 120.0 410.0 C 123.8 415.1, 127.0 420.9, 129.0 427.0 L 131.0 443.0 L 127.0 446.0 L 65.0 446.0 L 60.0 444.0 L 62.0 441.0 L 108.0 415.0 L 119.0 411.0 M 274.0 124.0 C 276.5 126.5, 279.5 131.5, 277.0 134.0 L 270.0 132.0 L 273.0 125.0" fill="#000000" stroke="none" stroke-width="0" stroke-linecap="round" stroke-linejoin="round" fill-rule="evenodd"/>
  <path d="M 572.0 428.0 L 582.0 428.0 L 586.0 430.0 L 583.0 438.0 L 590.0 454.0 C 591.3 455.3, 593.4 456.8, 595.0 456.0 L 602.0 440.0 C 602.0 436.5, 600.8 433.0, 599.0 430.0 L 604.0 428.0 L 613.0 430.0 L 604.0 441.0 L 596.0 467.0 C 594.1 468.9, 589.9 469.9, 588.0 468.0 L 574.0 435.0 L 567.0 430.0 L 571.0 429.0" fill="#000000" stroke="none" stroke-width="0" stroke-linecap="round" stroke-linejoin="round" fill-rule="evenodd"/>
  <path d="M 79.0 11.0 L 84.0 17.0 L 93.0 43.0 L 100.0 50.0 L 99.0 52.0 L 85.0 52.0 L 84.0 50.0 C 85.1 46.8, 85.0 42.7, 83.0 40.0 C 80.1 39.3, 77.0 39.0, 74.0 39.0 L 67.0 43.0 C 66.0 45.9, 69.3 49.3, 68.0 52.0 L 59.0 53.0 L 56.0 51.0 L 64.0 41.0 L 74.0 15.0 C 74.9 13.6, 76.3 12.0, 78.0 12.0 M 76.0 25.0 L 81.0 30.0 C 81.0 32.4, 78.4 35.0, 76.0 35.0 L 72.0 32.0 L 75.0 26.0" fill="#000000" stroke="none" stroke-width="0" stroke-linecap="round" stroke-linejoin="round" fill-rule="evenodd"/>
  <path d="M 505.0 428.0 L 517.0 429.0 L 515.0 438.0 L 520.0 451.0 L 525.0 457.0 C 526.6 455.4, 528.0 453.2, 528.0 451.0 L 534.0 440.0 C 534.0 436.5, 532.8 433.0, 531.0 430.0 L 535.0 428.0 L 544.0 429.0 L 543.0 433.0 L 535.0 443.0 L 527.0 468.0 C 525.4 469.6, 521.6 469.6, 520.0 468.0 L 507.0 437.0 L 501.0 431.0 C 501.5 429.9, 502.8 429.0, 504.0 429.0" fill="#000000" stroke="none" stroke-width="0" stroke-linecap="round" stroke-linejoin="round" fill-rule="evenodd"/>
  <path d="M 379.0 233.0 L 399.0 233.0 L 408.0 238.0 C 410.8 242.2, 409.6 248.7, 407.0 253.0 C 409.9 257.0, 412.0 262.0, 412.0 267.0 L 410.0 271.0 L 402.0 276.0 L 379.0 276.0 L 375.0 273.0 L 380.0 269.0 L 380.0 241.0 L 375.0 235.0 L 378.0 234.0 M 391.0 255.0 C 396.4 255.0, 404.7 260.9, 403.0 266.0 L 398.0 271.0 L 388.0 270.0 L 387.0 259.0 L 390.0 256.0 M 391.0 238.0 C 394.6 238.5, 398.5 239.5, 401.0 242.0 C 401.9 244.7, 400.0 248.0, 398.0 250.0 L 389.0 250.0 L 387.0 248.0 L 387.0 241.0 L 390.0 239.0" fill="#000000" stroke="none" stroke-width="0" stroke-linecap="round" stroke-linejoin="round" fill-rule="evenodd"/>
  <path d="M 95.0 288.0 C 101.6 288.8, 108.0 294.0, 111.0 300.0 L 112.0 314.0 L 108.0 324.0 C 104.0 328.0, 97.2 331.1, 92.0 329.0 L 85.0 319.0 L 85.0 300.0 C 87.4 295.9, 90.3 292.0, 94.0 289.0 M 100.0 293.0 C 104.5 302.0, 104.6 313.3, 102.0 323.0 C 100.5 324.5, 98.1 325.0, 96.0 325.0 L 91.0 315.0 L 92.0 300.0 L 96.0 294.0 L 99.0 294.0" fill="#000000" stroke="none" stroke-width="0" stroke-linecap="round" stroke-linejoin="round" fill-rule="evenodd"/>
  <path d="M 209.0 398.0 L 217.0 398.0 C 221.8 404.1, 225.6 411.4, 227.0 419.0 L 223.0 434.0 L 215.0 440.0 C 211.5 440.0, 208.0 438.8, 205.0 437.0 L 200.0 429.0 L 199.0 413.0 C 200.5 407.7, 204.1 402.9, 208.0 399.0 M 213.0 402.0 L 219.0 409.0 L 218.0 431.0 C 216.3 432.7, 214.4 435.0, 212.0 435.0 L 209.0 433.0 L 206.0 426.0 L 207.0 409.0 C 207.8 406.5, 209.9 404.6, 212.0 403.0" fill="#000000" stroke="none" stroke-width="0" stroke-linecap="round" stroke-linejoin="round" fill-rule="evenodd"/>
  <path d="M 63.0 288.0 C 67.3 288.0, 71.7 290.2, 75.0 293.0 L 76.0 296.0 L 73.0 307.0 C 75.9 311.6, 77.3 317.7, 76.0 323.0 C 71.6 327.4, 65.3 331.0, 59.0 331.0 L 53.0 327.0 C 54.2 324.6, 57.3 323.0, 60.0 323.0 L 66.0 326.0 C 68.8 323.2, 70.6 318.8, 70.0 315.0 L 61.0 307.0 L 68.0 301.0 C 68.0 298.3, 67.9 294.9, 66.0 293.0 C 62.5 293.0, 59.1 294.4, 56.0 296.0 L 60.0 289.0 L 62.0 289.0" fill="#000000" stroke="none" stroke-width="0" stroke-linecap="round" stroke-linejoin="round" fill-rule="evenodd"/>
  <path d="M 52.0 8.0 L 54.0 10.0 C 49.9 15.9, 46.3 22.2, 44.0 29.0 L 44.0 44.0 L 46.0 53.0 L 55.0 64.0 L 52.0 65.0 L 44.0 59.0 L 37.0 44.0 L 38.0 26.0 C 41.4 19.7, 45.6 13.6, 51.0 9.0" fill="#000000" stroke="none" stroke-width="0" stroke-linecap="round" stroke-linejoin="round" fill-rule="evenodd"/>
  <path d="M 175.0 398.0 L 185.0 398.0 L 190.0 403.0 L 188.0 416.0 C 190.5 419.8, 192.0 424.5, 192.0 429.0 L 185.0 438.0 C 179.8 440.6, 168.0 439.8, 168.0 434.0 C 171.3 430.7, 177.3 435.0, 182.0 435.0 C 184.4 431.8, 184.5 427.0, 184.0 423.0 L 177.0 419.0 C 176.2 417.9, 176.7 415.4, 178.0 415.0 L 184.0 408.0 C 183.2 405.5, 181.1 403.6, 179.0 402.0 L 172.0 406.0 L 171.0 404.0 L 175.0 399.0" fill="#000000" stroke="none" stroke-width="0" stroke-linecap="round" stroke-linejoin="round" fill-rule="evenodd"/>
  <path d="M 617.0 427.0 L 622.0 428.0 L 628.0 435.0 L 634.0 449.0 C 634.0 456.1, 633.2 463.3, 631.0 470.0 L 621.0 482.0 C 619.4 482.5, 617.2 482.2, 616.0 481.0 C 621.2 475.8, 624.7 468.9, 627.0 462.0 L 626.0 443.0 C 623.8 438.0, 620.2 433.6, 616.0 430.0 L 617.0 428.0" fill="#000000" stroke="none" stroke-width="0" stroke-linecap="round" stroke-linejoin="round" fill-rule="evenodd"/>
  <path d="M 107.0 9.0 L 115.0 15.0 C 119.6 24.2, 122.0 34.7, 122.0 45.0 L 114.0 61.0 C 111.8 63.2, 108.2 64.0, 105.0 64.0 C 110.2 58.1, 113.7 50.6, 116.0 43.0 L 115.0 27.0 C 113.2 21.7, 110.3 16.6, 106.0 13.0 L 106.0 10.0" fill="#000000" stroke="none" stroke-width="0" stroke-linecap="round" stroke-linejoin="round" fill-rule="evenodd"/>
  <path d="M 565.0 426.0 L 565.0 430.0 C 561.0 434.6, 557.9 440.2, 556.0 446.0 L 556.0 464.0 C 557.9 470.6, 563.5 475.6, 566.0 482.0 L 562.0 482.0 C 556.2 476.2, 551.0 469.0, 549.0 461.0 L 549.0 448.0 L 551.0 441.0 L 559.0 429.0 L 564.0 427.0" fill="#000000" stroke="none" stroke-width="0" stroke-linecap="round" stroke-linejoin="round" fill-rule="evenodd"/>
  <path d="M 17.0 11.0 L 32.0 12.0 L 27.0 19.0 L 27.0 46.0 L 32.0 51.0 L 29.0 53.0 L 18.0 53.0 L 15.0 50.0 L 20.0 47.0 L 20.0 18.0 C 18.3 16.3, 16.0 14.4, 16.0 12.0" fill="#000000" stroke="none" stroke-width="0" stroke-linecap="round" stroke-linejoin="round" fill-rule="evenodd"/>
  <path d="M 122.0 288.0 C 127.7 288.0, 134.1 293.4, 135.0 299.0 C 133.0 303.1, 128.5 307.0, 124.0 307.0 L 116.0 301.0 C 116.0 296.7, 117.6 291.7, 121.0 289.0 M 123.0 293.0 C 125.4 293.0, 128.3 293.3, 130.0 295.0 L 129.0 301.0 C 126.3 301.4, 122.9 301.9, 121.0 300.0 L 122.0 294.0" fill="#000000" stroke="none" stroke-width="0" stroke-linecap="round" stroke-linejoin="round" fill-rule="evenodd"/>
  <path d="M 236.0 398.0 L 245.0 398.0 C 248.8 401.8, 249.8 409.4, 247.0 414.0 C 242.1 415.1, 236.2 414.8, 232.0 412.0 C 230.8 407.7, 232.2 402.4, 235.0 399.0 M 240.0 402.0 C 242.7 403.4, 246.0 405.9, 246.0 409.0 C 242.9 411.0, 237.6 411.6, 235.0 409.0 C 235.0 406.6, 236.9 404.1, 239.0 403.0" fill="#000000" stroke="none" stroke-width="0" stroke-linecap="round" stroke-linejoin="round" fill-rule="evenodd"/>
</svg>