<?xml version="1.0" encoding="UTF-8"?>
<svg xmlns="http://www.w3.org/2000/svg" viewBox="0 0 746 271" width="746" height="271">
  <path d="M 318.0 3.0 C 323.5 3.0, 327.5 10.0, 333.0 10.0 C 338.0 15.0, 346.0 16.0, 351.0 21.0 C 353.4 21.0, 356.3 24.7, 358.0 23.0 L 358.0 10.0 C 359.2 8.8, 362.0 11.3, 362.0 13.0 C 361.5 13.5, 361.5 14.5, 362.0 15.0 L 362.0 25.0 L 363.0 26.0 L 507.0 26.0 C 510.7 22.3, 512.0 16.3, 512.0 11.0 C 514.1 11.0, 515.5 13.5, 517.0 15.0 C 517.0 22.5, 519.7 30.7, 525.0 36.0 C 529.8 31.2, 527.2 21.8, 532.0 17.0 C 532.0 14.4, 534.4 11.0, 537.0 11.0 C 537.0 17.6, 543.0 23.4, 543.0 30.0 C 544.3 31.3, 547.0 35.9, 547.0 34.0 C 551.8 29.2, 549.2 19.8, 554.0 15.0 C 554.0 13.1, 557.6 10.6, 559.0 12.0 C 559.0 19.0, 565.0 25.0, 565.0 32.0 C 566.1 33.1, 565.9 34.9, 567.0 36.0 C 569.6 33.4, 569.4 28.6, 572.0 26.0 L 648.0 26.0 C 649.3 24.7, 650.0 22.8, 650.0 21.0 L 655.0 16.0 C 655.7 16.0, 656.5 15.5, 657.0 15.0 L 666.0 15.0 C 666.5 15.5, 667.3 16.0, 668.0 16.0 L 673.0 21.0 C 673.0 21.7, 673.5 22.5, 674.0 23.0 L 674.0 32.0 C 673.5 32.5, 673.0 33.3, 673.0 34.0 L 668.0 39.0 C 666.9 39.0, 665.7 39.3, 665.0 40.0 L 658.0 40.0 C 657.3 39.3, 656.1 39.0, 655.0 39.0 L 650.0 34.0 C 650.0 32.2, 649.3 30.3, 648.0 29.0 L 575.0 29.0 C 570.9 33.1, 571.8 44.0, 566.0 44.0 C 566.0 38.4, 561.0 33.6, 561.0 28.0 C 558.8 25.8, 557.2 18.8, 555.0 21.0 C 555.0 26.9, 550.0 32.1, 550.0 38.0 C 548.2 39.8, 545.8 44.8, 544.0 43.0 C 544.0 36.4, 538.0 30.6, 538.0 24.0 C 536.8 22.8, 535.2 19.8, 534.0 21.0 C 534.0 26.3, 529.0 30.7, 529.0 36.0 C 526.8 38.2, 525.2 45.2, 523.0 43.0 C 523.0 35.6, 516.0 29.4, 516.0 22.0 C 515.0 21.0, 513.0 20.0, 512.0 21.0 C 512.0 23.8, 511.0 27.0, 509.0 29.0 L 462.0 29.0 L 461.0 30.0 L 461.0 242.0 C 460.3 242.0, 459.5 242.5, 459.0 243.0 L 363.0 243.0 C 361.3 244.7, 360.3 248.3, 362.0 250.0 C 362.0 252.0, 362.4 254.6, 361.0 256.0 C 362.1 257.1, 359.0 261.5, 359.0 260.0 L 358.0 259.0 L 358.0 246.0 C 354.4 242.4, 349.1 252.0, 344.0 252.0 C 339.4 256.6, 331.6 257.4, 327.0 262.0 C 323.8 262.0, 321.2 265.0, 318.0 265.0 L 318.0 243.0 L 317.0 242.0 L 118.0 242.0 C 116.7 243.3, 116.0 245.2, 116.0 247.0 L 110.0 253.0 C 108.0 253.0, 105.4 252.6, 104.0 254.0 C 101.9 254.0, 100.1 252.0, 98.0 252.0 L 93.0 247.0 C 93.0 245.9, 92.7 244.7, 92.0 244.0 L 92.0 237.0 C 92.5 236.5, 93.0 235.7, 93.0 235.0 C 94.2 233.8, 96.0 232.7, 96.0 231.0 C 98.2 231.0, 100.4 229.6, 102.0 228.0 C 104.0 228.0, 106.6 227.6, 108.0 229.0 C 112.7 229.0, 114.7 235.7, 118.0 239.0 L 316.0 239.0 C 316.5 239.5, 317.5 239.5, 318.0 239.0 L 318.0 217.0 C 324.3 217.0, 328.7 225.0, 335.0 225.0 C 340.0 230.0, 348.0 231.0, 353.0 236.0 C 354.7 236.0, 356.8 238.2, 358.0 237.0 L 358.0 224.0 C 358.7 223.3, 361.0 223.0, 361.0 224.0 L 362.0 225.0 L 362.0 239.0 L 363.0 240.0 L 457.0 240.0 L 458.0 239.0 L 458.0 31.0 L 456.0 29.0 L 363.0 29.0 L 362.0 30.0 L 362.0 40.0 C 360.4 41.6, 359.0 48.2, 359.0 46.0 L 358.0 45.0 L 358.0 32.0 C 354.4 28.4, 349.1 38.0, 344.0 38.0 C 339.6 42.4, 332.4 43.6, 328.0 48.0 C 324.5 48.0, 320.5 53.5, 318.0 51.0 L 318.0 29.0 L 317.0 28.0 L 119.0 28.0 C 115.7 31.3, 113.3 35.7, 110.0 39.0 C 106.3 39.0, 101.6 40.6, 99.0 38.0 L 98.0 38.0 L 93.0 33.0 C 93.0 31.9, 92.7 30.7, 92.0 30.0 L 92.0 23.0 C 92.5 22.5, 93.0 21.7, 93.0 21.0 L 98.0 16.0 C 99.5 16.0, 100.9 15.1, 102.0 14.0 C 106.8 14.0, 115.0 15.2, 115.0 20.0 C 116.4 21.4, 116.6 23.6, 118.0 25.0 L 166.0 25.0 C 167.0 26.0, 169.0 25.0, 170.0 26.0 L 200.0 26.0 C 201.4 24.6, 204.6 26.4, 206.0 25.0 L 316.0 25.0 C 316.5 25.5, 317.5 25.5, 318.0 25.0 L 318.0 4.0 M 322.0 8.0 C 328.4 8.0, 332.6 17.0, 339.0 17.0 C 343.4 21.4, 350.6 22.6, 355.0 27.0 C 353.8 28.2, 352.7 30.0, 351.0 30.0 C 347.1 33.9, 340.9 35.1, 337.0 39.0 C 331.2 39.0, 325.1 50.1, 321.0 46.0 L 321.0 9.0 M 322.0 222.0 C 328.9 222.0, 333.1 232.0, 340.0 232.0 C 344.1 236.1, 350.9 236.9, 355.0 241.0 C 353.8 242.2, 352.7 244.0, 351.0 244.0 C 347.2 247.8, 342.4 252.0, 337.0 252.0 C 333.0 256.0, 327.7 260.0, 322.0 260.0 L 321.0 259.0 L 321.0 223.0 M 103.0 17.0 C 104.7 17.0, 106.8 16.8, 108.0 18.0 L 109.0 18.0 C 112.1 21.1, 114.0 25.7, 114.0 30.0 C 113.5 30.5, 113.0 31.3, 113.0 32.0 C 111.3 33.7, 109.4 36.0, 107.0 36.0 C 105.1 37.9, 101.7 35.0, 99.0 35.0 C 97.8 33.8, 96.0 32.7, 96.0 31.0 L 95.0 30.0 L 95.0 24.0 C 95.5 23.5, 96.0 22.7, 96.0 22.0 C 97.7 20.3, 99.6 18.0, 102.0 18.0 M 103.0 231.0 C 106.9 231.0, 113.0 233.1, 113.0 237.0 L 114.0 238.0 L 114.0 244.0 C 113.5 244.5, 113.0 245.3, 113.0 246.0 C 111.8 247.2, 110.7 249.0, 109.0 249.0 C 106.6 251.4, 102.3 249.0, 99.0 249.0 C 97.8 247.8, 96.0 246.7, 96.0 245.0 L 95.0 244.0 L 95.0 238.0 C 95.5 237.5, 96.0 236.7, 96.0 236.0 C 97.7 234.3, 99.6 232.0, 102.0 232.0 M 658.0 18.0 L 665.0 18.0 C 667.2 20.2, 668.8 22.8, 671.0 25.0 C 671.0 27.0, 671.4 29.6, 670.0 31.0 L 670.0 32.0 L 666.0 36.0 C 665.3 36.0, 664.5 36.5, 664.0 37.0 C 661.6 37.0, 659.4 36.0, 657.0 36.0 L 653.0 32.0 C 653.0 31.3, 652.5 30.5, 652.0 30.0 C 652.0 27.3, 652.1 23.9, 654.0 22.0 C 654.0 20.6, 655.6 19.0, 657.0 19.0" fill="#000000" stroke="none" stroke-width="0" stroke-linecap="round" stroke-linejoin="round" fill-rule="evenodd"/>
  <path d="M 571.0 66.0 L 580.0 66.0 C 581.1 67.1, 582.5 68.0, 584.0 68.0 L 588.0 72.0 C 588.0 76.0, 590.8 81.2, 588.0 84.0 C 588.0 86.6, 584.6 89.0, 582.0 89.0 C 581.3 89.7, 581.3 91.3, 582.0 92.0 L 589.0 92.0 C 589.7 91.3, 590.0 93.9, 590.0 95.0 L 579.0 95.0 C 579.0 93.3, 578.8 91.2, 580.0 90.0 C 580.0 89.5, 580.5 89.0, 581.0 89.0 C 582.2 87.8, 584.0 86.7, 584.0 85.0 L 585.0 84.0 L 585.0 74.0 C 582.8 71.8, 581.2 69.2, 579.0 67.0 L 572.0 67.0 C 571.5 67.5, 570.7 68.0, 570.0 68.0 C 568.3 69.7, 566.0 71.6, 566.0 74.0 L 565.0 75.0 L 565.0 83.0 C 567.2 85.2, 568.8 87.8, 571.0 90.0 L 571.0 95.0 L 560.0 95.0 L 560.0 90.0 L 562.0 92.0 L 569.0 92.0 C 571.2 89.8, 563.0 88.1, 563.0 85.0 C 562.2 84.2, 561.8 82.8, 561.0 82.0 L 561.0 74.0 C 561.5 73.5, 562.0 72.7, 562.0 72.0 L 567.0 67.0 L 570.0 67.0" fill="#000000" stroke="none" stroke-width="0" stroke-linecap="round" stroke-linejoin="round" fill-rule="evenodd"/>
  <path d="M 35.0 225.0 L 45.0 225.0 C 42.3 226.3, 42.9 231.9, 45.0 234.0 C 45.0 238.5, 53.0 249.5, 53.0 245.0 C 57.6 240.4, 60.0 233.4, 60.0 227.0 C 59.2 226.2, 58.2 225.0, 57.0 225.0 L 64.0 225.0 C 62.8 226.2, 61.0 227.3, 61.0 229.0 C 59.7 230.3, 59.0 232.2, 59.0 234.0 C 58.2 235.6, 57.0 237.2, 57.0 239.0 C 56.5 239.5, 56.0 240.3, 56.0 241.0 C 55.2 242.6, 54.0 244.2, 54.0 246.0 C 52.3 247.7, 50.0 254.4, 50.0 252.0 C 45.0 247.0, 46.0 238.0, 41.0 233.0 C 41.0 230.3, 38.9 227.9, 37.0 226.0" fill="#000000" stroke="none" stroke-width="0" stroke-linecap="round" stroke-linejoin="round" fill-rule="evenodd"/>
  <path d="M 704.0 16.0 L 714.0 16.0 C 712.3 17.7, 713.0 20.6, 713.0 23.0 C 716.9 26.9, 718.1 40.9, 722.0 37.0 C 722.0 31.0, 728.0 26.0, 728.0 20.0 C 729.1 18.9, 727.1 17.1, 726.0 16.0 L 733.0 16.0 C 731.8 17.2, 730.0 18.3, 730.0 20.0 C 725.4 24.6, 726.6 33.4, 722.0 38.0 C 722.0 40.1, 719.5 44.5, 718.0 43.0 C 718.0 35.8, 710.0 30.2, 710.0 23.0 C 708.3 21.3, 707.7 18.7, 706.0 17.0" fill="#000000" stroke="none" stroke-width="0" stroke-linecap="round" stroke-linejoin="round" fill-rule="evenodd"/>
  <path d="M 60.0 15.0 L 66.0 15.0 C 66.0 17.0, 65.6 19.6, 67.0 21.0 C 67.0 26.8, 69.9 32.9, 74.0 37.0 C 79.2 31.8, 83.0 24.3, 83.0 17.0 L 81.0 15.0 L 86.0 15.0 C 82.6 18.4, 80.0 23.2, 80.0 28.0 L 77.0 34.0 C 77.0 37.2, 74.0 39.8, 74.0 43.0 C 69.8 43.0, 71.0 35.0, 68.0 32.0 C 68.0 26.2, 65.1 20.1, 61.0 16.0" fill="#000000" stroke="none" stroke-width="0" stroke-linecap="round" stroke-linejoin="round" fill-rule="evenodd"/>
  <path d="M 691.0 15.0 C 693.0 17.0, 698.0 17.1, 698.0 20.0 C 698.8 20.8, 699.2 22.2, 700.0 23.0 C 700.0 28.3, 702.8 35.2, 699.0 39.0 L 699.0 40.0 L 695.0 44.0 C 692.7 44.0, 690.3 44.0, 688.0 44.0 C 685.9 41.9, 684.0 39.0, 684.0 36.0 L 683.0 35.0 L 683.0 26.0 C 684.5 24.5, 685.0 22.1, 685.0 20.0 L 689.0 16.0 L 690.0 16.0 M 694.0 17.0 L 688.0 19.0 C 688.0 19.7, 687.5 20.5, 687.0 21.0 C 687.0 22.7, 687.2 24.8, 686.0 26.0 L 686.0 35.0 C 687.5 36.5, 688.0 38.9, 688.0 41.0 C 689.9 42.9, 694.1 42.9, 696.0 41.0 C 696.0 39.9, 696.3 38.7, 697.0 38.0 L 697.0 22.0 C 695.9 20.9, 696.1 19.1, 695.0 18.0" fill="#000000" stroke="none" stroke-width="0" stroke-linecap="round" stroke-linejoin="round" fill-rule="evenodd"/>
  <path d="M 45.0 14.0 C 46.4 14.0, 47.6 15.0, 49.0 15.0 C 50.2 16.2, 52.0 17.3, 52.0 19.0 C 52.8 19.8, 53.2 21.2, 54.0 22.0 C 54.0 27.0, 56.5 33.5, 53.0 37.0 C 53.0 39.6, 49.8 41.2, 48.0 43.0 C 45.0 43.0, 40.0 42.0, 40.0 39.0 C 38.6 37.6, 38.4 35.4, 37.0 34.0 L 37.0 24.0 C 39.7 21.3, 40.2 15.0, 44.0 15.0 M 47.0 15.0 C 45.1 15.5, 42.0 16.1, 42.0 18.0 C 40.3 19.7, 41.7 23.3, 40.0 25.0 L 40.0 33.0 C 42.3 35.3, 41.7 39.7, 44.0 42.0 C 46.2 42.0, 50.0 41.2, 50.0 39.0 L 51.0 38.0 L 51.0 31.0 C 52.4 29.6, 52.4 26.4, 51.0 25.0 L 51.0 19.0 C 50.2 18.2, 49.8 16.8, 49.0 16.0" fill="#000000" stroke="none" stroke-width="0" stroke-linecap="round" stroke-linejoin="round" fill-rule="evenodd"/>
  <path d="M 545.0 66.0 C 546.7 66.0, 548.8 65.8, 550.0 67.0 C 553.3 67.0, 553.6 72.6, 556.0 75.0 L 556.0 86.0 C 554.7 87.3, 554.0 89.2, 554.0 91.0 C 550.9 94.1, 544.1 95.1, 541.0 92.0 C 541.0 89.2, 540.0 86.0, 538.0 84.0 L 538.0 77.0 C 539.5 75.5, 540.0 73.1, 540.0 71.0 L 544.0 67.0 M 550.0 68.0 L 544.0 69.0 C 542.9 70.1, 543.1 71.9, 542.0 73.0 L 542.0 89.0 C 543.4 90.4, 543.6 92.6, 545.0 94.0 C 547.2 94.0, 551.0 93.2, 551.0 91.0 C 552.7 89.3, 551.3 85.7, 553.0 84.0 L 553.0 75.0 C 551.5 73.5, 551.0 71.1, 551.0 69.0" fill="#000000" stroke="none" stroke-width="0" stroke-linecap="round" stroke-linejoin="round" fill-rule="evenodd"/>
  <path d="M 22.0 14.0 C 25.0 14.0, 27.9 15.9, 30.0 18.0 L 30.0 25.0 C 28.9 26.1, 28.0 27.5, 28.0 29.0 L 24.0 33.0 L 24.0 34.0 L 19.0 39.0 C 19.0 39.7, 19.5 40.5, 20.0 41.0 L 29.0 41.0 C 29.7 40.3, 32.0 38.9, 32.0 40.0 C 30.6 41.4, 28.4 41.6, 27.0 43.0 L 16.0 43.0 L 15.0 42.0 L 23.0 34.0 C 24.9 31.1, 25.6 27.4, 28.0 25.0 C 28.0 23.3, 28.2 21.2, 27.0 20.0 C 27.0 16.3, 16.0 16.3, 16.0 20.0 C 16.0 17.6, 18.6 15.0, 21.0 15.0" fill="#000000" stroke="none" stroke-width="0" stroke-linecap="round" stroke-linejoin="round" fill-rule="evenodd"/>
  <path d="M 20.0 225.0 L 26.0 225.0 C 28.2 227.2, 29.0 230.8, 29.0 234.0 C 27.7 235.3, 25.0 236.1, 25.0 238.0 L 29.0 242.0 C 29.0 245.0, 30.0 248.0, 30.0 251.0 C 29.3 251.7, 27.0 253.1, 27.0 252.0 C 29.2 249.8, 28.1 243.0, 25.0 243.0 C 23.8 241.8, 22.7 240.0, 21.0 240.0 L 18.0 243.0 L 18.0 251.0 C 19.8 252.8, 22.5 254.0, 25.0 254.0 C 22.6 254.0, 19.7 253.7, 18.0 252.0 C 15.3 252.0, 16.0 246.7, 16.0 244.0 C 17.7 242.3, 20.0 240.4, 20.0 238.0 C 17.7 235.7, 16.0 232.3, 16.0 229.0 C 17.0 228.0, 17.6 226.0, 19.0 226.0 M 26.0 226.0 L 18.0 227.0 C 18.0 230.7, 20.4 234.4, 23.0 237.0 C 25.1 237.0, 26.5 234.5, 28.0 233.0 C 28.0 231.0, 28.4 228.4, 27.0 227.0" fill="#000000" stroke="none" stroke-width="0" stroke-linecap="round" stroke-linejoin="round" fill-rule="evenodd"/>
  <path d="M 525.0 66.0 L 527.0 66.0 L 527.0 94.0 C 527.7 94.7, 528.9 95.0, 530.0 95.0 L 520.0 95.0 C 521.4 94.5, 522.9 94.1, 524.0 93.0 L 524.0 71.0 C 523.2 70.2, 520.8 68.0, 522.0 68.0 C 522.5 67.5, 523.3 67.0, 524.0 67.0" fill="#000000" stroke="none" stroke-width="0" stroke-linecap="round" stroke-linejoin="round" fill-rule="evenodd"/>
</svg>