<?xml version="1.0" encoding="UTF-8"?>
<svg xmlns="http://www.w3.org/2000/svg" viewBox="0 0 541 502" width="541" height="502">
  <path d="M 347.0 31.0 L 349.0 32.0 L 350.0 246.0 L 352.0 248.0 L 517.0 248.0 L 519.0 246.0 L 518.0 243.0 L 508.0 237.0 L 506.0 235.0 L 508.0 234.0 L 530.0 248.0 L 509.0 263.0 L 506.0 262.0 L 519.0 253.0 L 516.0 249.0 L 352.0 249.0 L 350.0 251.0 L 349.0 466.0 L 347.0 466.0 L 347.0 293.0 L 345.0 291.0 L 343.0 292.0 L 339.0 307.0 L 329.0 330.0 L 311.0 356.0 L 288.0 379.0 L 265.0 395.0 L 231.0 410.0 L 204.0 416.0 L 157.0 416.0 L 132.0 411.0 L 95.0 395.0 L 73.0 379.0 L 56.0 363.0 L 38.0 340.0 L 21.0 305.0 L 15.0 285.0 L 12.0 256.0 L 15.0 212.0 L 17.0 210.0 L 21.0 192.0 L 32.0 167.0 L 48.0 143.0 L 64.0 126.0 L 93.0 104.0 L 127.0 88.0 L 146.0 83.0 L 180.0 80.0 L 215.0 83.0 L 234.0 88.0 L 268.0 104.0 L 290.0 120.0 L 317.0 149.0 L 333.0 176.0 L 341.0 200.0 L 345.0 206.0 L 347.0 204.0 L 347.0 32.0 Z M 199.0 83.0 L 151.0 84.0 L 148.0 86.0 L 133.0 88.0 L 104.0 100.0 L 74.0 120.0 L 50.0 144.0 L 34.0 168.0 L 20.0 200.0 L 20.0 207.0 L 16.0 216.0 L 14.0 229.0 L 14.0 268.0 L 20.0 297.0 L 32.0 326.0 L 50.0 353.0 L 76.0 379.0 L 98.0 394.0 L 133.0 409.0 L 150.0 413.0 L 159.0 413.0 L 162.0 415.0 L 199.0 415.0 L 201.0 413.0 L 221.0 411.0 L 249.0 401.0 L 271.0 389.0 L 297.0 368.0 L 318.0 343.0 L 333.0 317.0 L 345.0 280.0 L 346.0 251.0 L 343.0 249.0 L 327.0 249.0 L 344.0 248.0 L 347.0 245.0 L 345.0 218.0 L 339.0 196.0 L 335.0 190.0 L 335.0 185.0 L 315.0 150.0 L 289.0 122.0 L 267.0 106.0 L 233.0 90.0 L 200.0 83.0 Z M 185.0 281.0 L 193.0 281.0 L 197.0 283.0 L 201.0 287.0 L 201.0 290.0 L 194.0 283.0 L 183.0 283.0 L 180.0 285.0 L 171.0 297.0 L 172.0 313.0 L 180.0 319.0 L 190.0 318.0 L 199.0 309.0 L 197.0 314.0 L 189.0 320.0 L 178.0 320.0 L 170.0 313.0 L 168.0 307.0 L 170.0 295.0 L 174.0 287.0 L 179.0 283.0 L 184.0 282.0 Z M 176.0 240.0 L 185.0 240.0 L 191.0 248.0 L 209.0 249.0 L 192.0 249.0 L 185.0 257.0 L 180.0 258.0 L 172.0 254.0 L 172.0 244.0 L 175.0 241.0 Z M 278.0 248.0 L 304.0 248.0 L 278.0 249.0 Z M 231.0 248.0 L 256.0 248.0 L 231.0 249.0 Z M 160.0 83.0 L 154.0 84.0 L 159.0 84.0 Z" fill="#000000" stroke="#000000" stroke-width="2.3" stroke-linecap="round" stroke-linejoin="round" fill-rule="evenodd"/>
  <path d="M 396.0 17.0 L 396.0 21.0 L 378.0 53.0 L 369.0 56.0 L 375.0 54.0 L 380.0 47.0 L 376.0 18.0 L 378.0 20.0 L 381.0 39.0 L 386.0 36.0 L 396.0 18.0 Z" fill="#000000" stroke="#000000" stroke-width="2.3" stroke-linecap="round" stroke-linejoin="round" fill-rule="evenodd"/>
  <path d="M 373.0 450.0 L 376.0 458.0 L 376.0 467.0 L 379.0 472.0 L 382.0 471.0 L 388.0 457.0 L 394.0 450.0 L 394.0 454.0 L 390.0 457.0 L 388.0 464.0 L 384.0 468.0 L 378.0 481.0 L 374.0 487.0 L 370.0 489.0 L 367.0 488.0 L 373.0 486.0 L 377.0 480.0 L 373.0 451.0 Z" fill="#000000" stroke="#000000" stroke-width="2.3" stroke-linecap="round" stroke-linejoin="round" fill-rule="evenodd"/>
  <path d="M 450.0 270.0 L 453.0 272.0 L 456.0 280.0 L 460.0 279.0 L 465.0 274.0 L 465.0 271.0 L 468.0 270.0 L 458.0 283.0 L 464.0 297.0 L 458.0 287.0 L 454.0 287.0 L 445.0 297.0 L 456.0 283.0 L 451.0 271.0 Z" fill="#000000" stroke="#000000" stroke-width="2.3" stroke-linecap="round" stroke-linejoin="round" fill-rule="evenodd"/>
  <path d="M 405.0 9.0 L 404.0 14.0 L 404.0 10.0 Z" fill="#000000" stroke="#000000" stroke-width="2.3" stroke-linecap="round" stroke-linejoin="round" fill-rule="evenodd"/>
</svg>