<?xml version="1.0" encoding="UTF-8"?>
<svg xmlns="http://www.w3.org/2000/svg" viewBox="0 0 436 254" width="436" height="254">
  <path d="M 202.0 59.0 L 203.0 59.0 L 205.0 62.0 L 199.0 67.0 L 185.0 77.0 L 161.0 97.0 L 157.0 99.0 L 142.0 112.0 L 128.0 122.0 L 123.0 127.0 L 119.0 129.0 L 114.0 134.0 L 110.0 136.0 L 109.0 133.0 L 201.0 60.0 Z" fill="#000000" stroke="none" stroke-width="0" stroke-linecap="round" stroke-linejoin="round" fill-rule="evenodd"/>
  <path d="M 278.0 48.0 L 280.0 48.0 L 296.0 63.0 L 313.0 77.0 L 357.0 117.0 L 366.0 124.0 L 366.0 126.0 L 364.0 128.0 L 287.0 59.0 L 278.0 52.0 L 277.0 49.0 Z" fill="#000000" stroke="none" stroke-width="0" stroke-linecap="round" stroke-linejoin="round" fill-rule="evenodd"/>
  <path d="M 185.0 43.0 L 187.0 44.0 L 187.0 46.0 L 160.0 71.0 L 141.0 87.0 L 104.0 121.0 L 101.0 121.0 L 100.0 119.0 L 184.0 44.0 Z" fill="#000000" stroke="none" stroke-width="0" stroke-linecap="round" stroke-linejoin="round" fill-rule="evenodd"/>
  <path d="M 235.0 54.0 L 246.0 54.0 L 247.0 55.0 L 250.0 55.0 L 258.0 60.0 L 262.0 64.0 L 265.0 69.0 L 267.0 74.0 L 268.0 82.0 L 267.0 83.0 L 266.0 90.0 L 261.0 99.0 L 251.0 106.0 L 248.0 106.0 L 243.0 108.0 L 238.0 108.0 L 237.0 107.0 L 230.0 106.0 L 223.0 102.0 L 216.0 93.0 L 214.0 88.0 L 214.0 83.0 L 213.0 82.0 L 215.0 70.0 L 218.0 65.0 L 225.0 58.0 L 231.0 55.0 L 234.0 55.0 Z M 234.0 58.0 L 247.0 58.0 L 250.0 59.0 L 258.0 65.0 L 262.0 71.0 L 264.0 77.0 L 264.0 85.0 L 260.0 94.0 L 253.0 101.0 L 245.0 104.0 L 232.0 103.0 L 228.0 101.0 L 221.0 94.0 L 218.0 89.0 L 218.0 86.0 L 217.0 85.0 L 217.0 76.0 L 218.0 73.0 L 225.0 63.0 L 229.0 60.0 L 233.0 59.0 Z M 245.0 70.0 L 247.0 70.0 L 247.0 95.0 L 244.0 95.0 L 244.0 78.0 L 243.0 77.0 L 237.0 78.0 L 237.0 77.0 L 244.0 71.0 Z" fill="#000000" stroke="none" stroke-width="0" stroke-linecap="round" stroke-linejoin="round" fill-rule="evenodd"/>
  <path d="M 402.0 184.0 L 410.0 184.0 L 422.0 189.0 L 429.0 196.0 L 431.0 200.0 L 432.0 207.0 L 433.0 208.0 L 432.0 220.0 L 425.0 231.0 L 421.0 234.0 L 412.0 238.0 L 400.0 238.0 L 391.0 234.0 L 383.0 226.0 L 379.0 215.0 L 379.0 207.0 L 381.0 203.0 L 381.0 200.0 L 384.0 195.0 L 390.0 189.0 L 398.0 185.0 L 401.0 185.0 Z M 401.0 188.0 L 412.0 188.0 L 418.0 191.0 L 424.0 196.0 L 429.0 205.0 L 429.0 217.0 L 426.0 224.0 L 419.0 231.0 L 410.0 235.0 L 402.0 235.0 L 399.0 234.0 L 392.0 230.0 L 386.0 224.0 L 383.0 217.0 L 383.0 206.0 L 384.0 203.0 L 388.0 196.0 L 391.0 193.0 L 398.0 189.0 L 400.0 189.0 Z M 407.0 200.0 L 411.0 200.0 L 416.0 204.0 L 416.0 209.0 L 414.0 211.0 L 417.0 214.0 L 417.0 221.0 L 412.0 225.0 L 406.0 225.0 L 402.0 222.0 L 401.0 219.0 L 403.0 218.0 L 408.0 222.0 L 411.0 222.0 L 414.0 219.0 L 414.0 216.0 L 411.0 213.0 L 407.0 213.0 L 407.0 211.0 L 408.0 210.0 L 411.0 210.0 L 413.0 208.0 L 413.0 206.0 L 409.0 203.0 L 404.0 207.0 L 402.0 207.0 L 402.0 204.0 L 406.0 201.0 Z" fill="#000000" stroke="none" stroke-width="0" stroke-linecap="round" stroke-linejoin="round" fill-rule="evenodd"/>
  <path d="M 25.0 195.0 L 36.0 195.0 L 42.0 197.0 L 47.0 200.0 L 48.0 202.0 L 52.0 205.0 L 57.0 217.0 L 57.0 227.0 L 53.0 237.0 L 45.0 245.0 L 38.0 248.0 L 23.0 248.0 L 14.0 244.0 L 8.0 238.0 L 4.0 230.0 L 4.0 224.0 L 3.0 223.0 L 5.0 211.0 L 7.0 207.0 L 15.0 199.0 L 21.0 196.0 L 24.0 196.0 Z M 29.0 198.0 L 42.0 201.0 L 50.0 209.0 L 53.0 216.0 L 54.0 222.0 L 53.0 223.0 L 52.0 231.0 L 49.0 236.0 L 42.0 242.0 L 38.0 244.0 L 35.0 245.0 L 26.0 245.0 L 18.0 242.0 L 10.0 234.0 L 7.0 227.0 L 7.0 217.0 L 9.0 211.0 L 17.0 202.0 L 24.0 199.0 L 28.0 199.0 Z M 29.0 211.0 L 37.0 211.0 L 39.0 212.0 L 41.0 216.0 L 41.0 220.0 L 38.0 225.0 L 30.0 231.0 L 31.0 232.0 L 40.0 232.0 L 41.0 233.0 L 41.0 236.0 L 25.0 236.0 L 26.0 231.0 L 33.0 225.0 L 38.0 219.0 L 38.0 217.0 L 35.0 214.0 L 31.0 214.0 L 28.0 218.0 L 25.0 217.0 L 28.0 212.0 Z" fill="#000000" stroke="none" stroke-width="0" stroke-linecap="round" stroke-linejoin="round" fill-rule="evenodd"/>
  <path d="M 384.0 140.0 L 393.0 140.0 L 399.0 145.0 L 401.0 151.0 L 399.0 160.0 L 392.0 165.0 L 385.0 165.0 L 379.0 161.0 L 376.0 154.0 L 376.0 151.0 L 378.0 145.0 L 383.0 141.0 Z M 387.0 143.0 L 393.0 144.0 L 397.0 148.0 L 397.0 156.0 L 396.0 158.0 L 390.0 162.0 L 387.0 162.0 L 380.0 156.0 L 380.0 149.0 L 384.0 144.0 L 386.0 144.0 Z" fill="#000000" stroke="none" stroke-width="0" stroke-linecap="round" stroke-linejoin="round" fill-rule="evenodd"/>
  <path d="M 233.0 20.0 L 237.0 20.0 L 245.0 24.0 L 247.0 28.0 L 247.0 38.0 L 246.0 40.0 L 240.0 45.0 L 231.0 45.0 L 227.0 43.0 L 224.0 38.0 L 223.0 31.0 L 225.0 25.0 L 228.0 22.0 L 232.0 21.0 Z M 232.0 24.0 L 239.0 24.0 L 243.0 28.0 L 244.0 30.0 L 243.0 38.0 L 238.0 42.0 L 233.0 42.0 L 227.0 37.0 L 227.0 29.0 L 231.0 25.0 Z" fill="#000000" stroke="none" stroke-width="0" stroke-linecap="round" stroke-linejoin="round" fill-rule="evenodd"/>
  <path d="M 63.0 162.0 L 70.0 163.0 L 76.0 168.0 L 77.0 170.0 L 77.0 179.0 L 76.0 182.0 L 69.0 187.0 L 61.0 187.0 L 55.0 183.0 L 53.0 178.0 L 54.0 168.0 L 58.0 164.0 L 62.0 163.0 Z M 62.0 166.0 L 68.0 166.0 L 73.0 170.0 L 74.0 173.0 L 73.0 180.0 L 68.0 184.0 L 62.0 184.0 L 57.0 179.0 L 56.0 176.0 L 57.0 170.0 L 61.0 167.0 Z" fill="#000000" stroke="none" stroke-width="0" stroke-linecap="round" stroke-linejoin="round" fill-rule="evenodd"/>
  <path d="M 412.0 134.0 L 415.0 135.0 L 416.0 139.0 L 413.0 141.0 L 411.0 141.0 L 409.0 138.0 L 410.0 135.0 L 411.0 135.0 Z" fill="#000000" stroke="none" stroke-width="0" stroke-linecap="round" stroke-linejoin="round" fill-rule="evenodd"/>
  <path d="M 381.0 173.0 L 384.0 174.0 L 385.0 178.0 L 382.0 180.0 L 379.0 179.0 L 378.0 176.0 L 379.0 174.0 L 380.0 174.0 Z" fill="#000000" stroke="none" stroke-width="0" stroke-linecap="round" stroke-linejoin="round" fill-rule="evenodd"/>
  <path d="M 226.0 7.0 L 230.0 9.0 L 230.0 13.0 L 226.0 14.0 L 224.0 12.0 L 224.0 9.0 L 225.0 8.0 Z" fill="#000000" stroke="none" stroke-width="0" stroke-linecap="round" stroke-linejoin="round" fill-rule="evenodd"/>
  <path d="M 46.0 150.0 L 50.0 150.0 L 52.0 153.0 L 51.0 155.0 L 50.0 156.0 L 47.0 156.0 L 45.0 154.0 L 45.0 151.0 Z" fill="#000000" stroke="none" stroke-width="0" stroke-linecap="round" stroke-linejoin="round" fill-rule="evenodd"/>
  <path d="M 413.0 153.0 L 415.0 153.0 L 417.0 155.0 L 417.0 158.0 L 415.0 160.0 L 413.0 160.0 L 411.0 158.0 L 411.0 155.0 L 412.0 154.0 Z" fill="#000000" stroke="none" stroke-width="0" stroke-linecap="round" stroke-linejoin="round" fill-rule="evenodd"/>
  <path d="M 362.0 162.0 L 365.0 162.0 L 366.0 163.0 L 367.0 165.0 L 366.0 167.0 L 365.0 168.0 L 362.0 168.0 L 360.0 166.0 L 361.0 163.0 Z" fill="#000000" stroke="none" stroke-width="0" stroke-linecap="round" stroke-linejoin="round" fill-rule="evenodd"/>
  <path d="M 94.0 174.0 L 97.0 176.0 L 97.0 179.0 L 95.0 181.0 L 91.0 180.0 L 91.0 176.0 L 93.0 175.0 Z" fill="#000000" stroke="none" stroke-width="0" stroke-linecap="round" stroke-linejoin="round" fill-rule="evenodd"/>
  <path d="M 82.0 189.0 L 85.0 190.0 L 85.0 194.0 L 83.0 196.0 L 81.0 196.0 L 79.0 194.0 L 79.0 191.0 L 81.0 190.0 Z" fill="#000000" stroke="none" stroke-width="0" stroke-linecap="round" stroke-linejoin="round" fill-rule="evenodd"/>
  <path d="M 244.0 6.0 L 247.0 6.0 L 249.0 8.0 L 249.0 11.0 L 248.0 12.0 L 244.0 12.0 L 243.0 11.0 L 243.0 7.0 Z" fill="#000000" stroke="none" stroke-width="0" stroke-linecap="round" stroke-linejoin="round" fill-rule="evenodd"/>
  <path d="M 360.0 143.0 L 363.0 143.0 L 365.0 145.0 L 364.0 149.0 L 360.0 149.0 L 359.0 148.0 L 359.0 144.0 Z" fill="#000000" stroke="none" stroke-width="0" stroke-linecap="round" stroke-linejoin="round" fill-rule="evenodd"/>
  <path d="M 34.0 165.0 L 39.0 165.0 L 39.0 170.0 L 37.0 171.0 L 33.0 169.0 L 34.0 166.0 Z" fill="#000000" stroke="none" stroke-width="0" stroke-linecap="round" stroke-linejoin="round" fill-rule="evenodd"/>
  <path d="M 404.0 168.0 L 408.0 168.0 L 409.0 169.0 L 408.0 174.0 L 404.0 174.0 L 403.0 173.0 L 403.0 169.0 Z" fill="#000000" stroke="none" stroke-width="0" stroke-linecap="round" stroke-linejoin="round" fill-rule="evenodd"/>
</svg>