<svg xmlns="http://www.w3.org/2000/svg" xmlns:xlink="http://www.w3.org/1999/xlink" version="1.1" width="379" height="157" viewBox="220 80 379 157" xml:space="preserve"><defs></defs><g transform="matrix(1 0 0 1 446.0038 166.497)"  ><path style="stroke: rgb(0,0,0); stroke-width: 3; stroke-dasharray: none; stroke-linecap: butt; stroke-dashoffset: 0; stroke-linejoin: miter; stroke-miterlimit: 4; fill: rgb(255,255,255); fill-opacity: 0; fill-rule: nonzero; opacity: 1;" vector-effect="non-scaling-stroke"  transform=" translate(-446.0038, -166.497)" d="M 455.0488 201.3129 L 584.9931 201.3129 L 307.0146 131.681" stroke-linecap="round" /></g><g transform="matrix(1 0 0 1 244.6047 157.3664)"  ><path style="stroke: rgb(0,0,0); stroke-width: 3; stroke-dasharray: none; stroke-linecap: butt; stroke-dashoffset: 0; stroke-linejoin: miter; stroke-miterlimit: 4; fill: rgb(255,255,255); fill-opacity: 0; fill-rule: nonzero; opacity: 1;" vector-effect="non-scaling-stroke"  transform=" translate(-244.6047, -157.3664)" d="M 244.9327 116.1299 L 234.1139 113.4199 L 234.1139 201.3129 L 255.0956 201.3129" stroke-linecap="round" /></g><g transform="matrix(-0.97 -0.243 0.243 -0.97 275.9736 123.9055)"  ><g style=""   ><g transform="matrix(1 0 0 1 0 0)"  ><rect style="stroke: none; stroke-width: 0; stroke-dasharray: none; stroke-linecap: butt; stroke-dashoffset: 0; stroke-linejoin: miter; stroke-miterlimit: 4; fill: rgb(0,0,0); fill-opacity: 0; fill-rule: nonzero; opacity: 1;"  x="-37" y="-23" rx="0" ry="0" width="74" height="46" /></g><g transform="matrix(1 0 0 1 -23 0)"  ><line style="stroke: rgb(0,0,0); stroke-width: 3; stroke-dasharray: none; stroke-linecap: round; stroke-dashoffset: 0; stroke-linejoin: round; stroke-miterlimit: 4; fill: rgb(255,255,255); fill-opacity: 0; fill-rule: nonzero; opacity: 1;" vector-effect="non-scaling-stroke"  x1="-9" y1="0" x2="9" y2="0" /></g><g transform="matrix(1 0 0 1 23 0)"  ><line style="stroke: rgb(0,0,0); stroke-width: 3; stroke-dasharray: none; stroke-linecap: round; stroke-dashoffset: 0; stroke-linejoin: round; stroke-miterlimit: 4; fill: rgb(255,255,255); fill-opacity: 0; fill-rule: nonzero; opacity: 1;" vector-effect="non-scaling-stroke"  x1="-9" y1="0" x2="9" y2="0" /></g><g transform="matrix(1 0 0 1 0 0)"  ><circle style="stroke: rgb(0,0,0); stroke-width: 3; stroke-dasharray: none; stroke-linecap: round; stroke-dashoffset: 0; stroke-linejoin: round; stroke-miterlimit: 4; fill: rgb(255,255,255); fill-opacity: 0; fill-rule: nonzero; opacity: 1;" vector-effect="non-scaling-stroke"  cx="0" cy="0" r="14" /></g><g transform="matrix(1 0 0 1 0 1)"  ><path style="stroke: rgb(0,0,0); stroke-width: 3; stroke-dasharray: none; stroke-linecap: round; stroke-dashoffset: 0; stroke-linejoin: round; stroke-miterlimit: 4; fill: rgb(255,255,255); fill-opacity: 0; fill-rule: nonzero; opacity: 1;" vector-effect="non-scaling-stroke"  transform=" translate(0, -1)" d="M -9 1 C -6 -7 -3 -7 0 1 C 3 9 6 9 9 1" stroke-linecap="round" /></g></g></g><g transform="matrix(1 0 0 1 355.0722 201.3129)"  ><path style="stroke: rgb(0,0,0); stroke-width: 3; stroke-dasharray: none; stroke-linecap: butt; stroke-dashoffset: 0; stroke-linejoin: miter; stroke-miterlimit: 4; fill: rgb(255,255,255); fill-opacity: 0; fill-rule: nonzero; opacity: 1;" vector-effect="non-scaling-stroke"  transform=" translate(-355.0722, -201.3129)" d="M 319.0956 201.3129 L 391.0488 201.3129" stroke-linecap="round" /></g><g transform="matrix(1 0 0 1 287.0956 201.3129)"  ><g style=""   ><g transform="matrix(1 0 0 1 0 0)"  ><rect style="stroke: none; stroke-width: 0; stroke-dasharray: none; stroke-linecap: butt; stroke-dashoffset: 0; stroke-linejoin: miter; stroke-miterlimit: 4; fill: rgb(0,0,0); fill-opacity: 0; fill-rule: nonzero; opacity: 1;"  x="-37" y="-23" rx="0" ry="0" width="74" height="46" /></g><g transform="matrix(1 0 0 1 -23 0)"  ><line style="stroke: rgb(0,0,0); stroke-width: 3; stroke-dasharray: none; stroke-linecap: round; stroke-dashoffset: 0; stroke-linejoin: round; stroke-miterlimit: 4; fill: rgb(255,255,255); fill-opacity: 0; fill-rule: nonzero; opacity: 1;" vector-effect="non-scaling-stroke"  x1="-9" y1="0" x2="9" y2="0" /></g><g transform="matrix(1 0 0 1 23 0)"  ><line style="stroke: rgb(0,0,0); stroke-width: 3; stroke-dasharray: none; stroke-linecap: round; stroke-dashoffset: 0; stroke-linejoin: round; stroke-miterlimit: 4; fill: rgb(255,255,255); fill-opacity: 0; fill-rule: nonzero; opacity: 1;" vector-effect="non-scaling-stroke"  x1="-9" y1="0" x2="9" y2="0" /></g><g transform="matrix(1 0 0 1 0 0)"  ><circle style="stroke: rgb(0,0,0); stroke-width: 3; stroke-dasharray: none; stroke-linecap: round; stroke-dashoffset: 0; stroke-linejoin: round; stroke-miterlimit: 4; fill: rgb(255,255,255); fill-opacity: 0; fill-rule: nonzero; opacity: 1;" vector-effect="non-scaling-stroke"  cx="0" cy="0" r="14" /></g><g transform="matrix(1 0 0 1 0 1)"  ><path style="stroke: rgb(0,0,0); stroke-width: 3; stroke-dasharray: none; stroke-linecap: round; stroke-dashoffset: 0; stroke-linejoin: round; stroke-miterlimit: 4; fill: rgb(255,255,255); fill-opacity: 0; fill-rule: nonzero; opacity: 1;" vector-effect="non-scaling-stroke"  transform=" translate(0, -1)" d="M -9 1 C -6 -7 -3 -7 0 1 C 3 9 6 9 9 1" stroke-linecap="round" /></g></g></g><g transform="matrix(1 0 0 1 423.0488 201.3129)"  ><g style=""   ><g transform="matrix(1 0 0 1 0 0)"  ><rect style="stroke: none; stroke-width: 0; stroke-dasharray: none; stroke-linecap: butt; stroke-dashoffset: 0; stroke-linejoin: miter; stroke-miterlimit: 4; fill: rgb(0,0,0); fill-opacity: 0; fill-rule: nonzero; opacity: 1;"  x="-37" y="-23" rx="0" ry="0" width="74" height="46" /></g><g transform="matrix(1 0 0 1 -23 0)"  ><line style="stroke: rgb(0,0,0); stroke-width: 3; stroke-dasharray: none; stroke-linecap: round; stroke-dashoffset: 0; stroke-linejoin: round; stroke-miterlimit: 4; fill: rgb(255,255,255); fill-opacity: 0; fill-rule: nonzero; opacity: 1;" vector-effect="non-scaling-stroke"  x1="-9" y1="0" x2="9" y2="0" /></g><g transform="matrix(1 0 0 1 23 0)"  ><line style="stroke: rgb(0,0,0); stroke-width: 3; stroke-dasharray: none; stroke-linecap: round; stroke-dashoffset: 0; stroke-linejoin: round; stroke-miterlimit: 4; fill: rgb(255,255,255); fill-opacity: 0; fill-rule: nonzero; opacity: 1;" vector-effect="non-scaling-stroke"  x1="-9" y1="0" x2="9" y2="0" /></g><g transform="matrix(1 0 0 1 0 0)"  ><circle style="stroke: rgb(0,0,0); stroke-width: 3; stroke-dasharray: none; stroke-linecap: round; stroke-dashoffset: 0; stroke-linejoin: round; stroke-miterlimit: 4; fill: rgb(255,255,255); fill-opacity: 0; fill-rule: nonzero; opacity: 1;" vector-effect="non-scaling-stroke"  cx="0" cy="0" r="14" /></g><g transform="matrix(1 0 0 1 0 1)"  ><path style="stroke: rgb(0,0,0); stroke-width: 3; stroke-dasharray: none; stroke-linecap: round; stroke-dashoffset: 0; stroke-linejoin: round; stroke-miterlimit: 4; fill: rgb(255,255,255); fill-opacity: 0; fill-rule: nonzero; opacity: 1;" vector-effect="non-scaling-stroke"  transform=" translate(0, -1)" d="M -9 1 C -6 -7 -3 -7 0 1 C 3 9 6 9 9 1" stroke-linecap="round" /></g></g></g></svg>