<svg xmlns="http://www.w3.org/2000/svg" xmlns:xlink="http://www.w3.org/1999/xlink" version="1.1" width="774" height="376" viewBox="104 156 774 376" xml:space="preserve"><defs></defs><g transform="matrix(1 0 0 1 418.2889 390)"  ><polygon style="stroke: rgb(17,24,39); stroke-width: 3; stroke-dasharray: none; stroke-linecap: butt; stroke-dashoffset: 0; stroke-linejoin: miter; stroke-miterlimit: 4; fill: rgb(232,237,243); fill-rule: nonzero; opacity: 1;" vector-effect="non-scaling-stroke"  points="-300,90 300,90 300,-90 " /></g><g transform="matrix(1 0 0 1 229.1332 466.8507)" style=""  ><text xml:space="preserve" font-family="Arial" font-size="20" font-style="normal" font-weight="normal" style="stroke: none; stroke-width: 1; stroke-dasharray: none; stroke-linecap: butt; stroke-dashoffset: 0; stroke-linejoin: miter; stroke-miterlimit: 4; fill: rgb(17,24,39); fill-rule: nonzero; opacity: 1; text-decoration-thickness: 6.6667%; white-space: pre;" ><tspan x="-15.1221" y="6.2828" >30°</tspan></text></g><g transform="matrix(1 0 0 1 444 368)"  ><polygon style="stroke: rgb(17,24,39); stroke-width: 3; stroke-dasharray: none; stroke-linecap: butt; stroke-dashoffset: 0; stroke-linejoin: miter; stroke-miterlimit: 4; fill: rgb(157,178,206); fill-rule: nonzero; opacity: 1;" vector-effect="non-scaling-stroke"  points="-44,28 34,5 44,-28 -34,-5 " /></g><g transform="matrix(0.9619 -0.2734 0.2734 0.9619 441.8573 367.7233)" style=""  ><text xml:space="preserve" font-family="Arial" font-size="18" font-style="normal" font-weight="normal" style="stroke: none; stroke-width: 1; stroke-dasharray: none; stroke-linecap: butt; stroke-dashoffset: 0; stroke-linejoin: miter; stroke-miterlimit: 4; fill: rgb(17,24,39); fill-rule: nonzero; opacity: 1; text-decoration-thickness: 6.6667%; white-space: pre;" ><tspan x="-22.0166" y="5.6545" >10 kg</tspan></text></g><g transform="matrix(1 0 0 1 598.5 316)"  ><path style="stroke: rgb(17,24,39); stroke-width: 2; stroke-dasharray: none; stroke-linecap: round; stroke-dashoffset: 0; stroke-linejoin: round; stroke-miterlimit: 4; fill: rgb(255,255,255); fill-opacity: 0; fill-rule: nonzero; opacity: 1;" vector-effect="non-scaling-stroke"  transform=" translate(-598.5, -316)" d="M 484 348 L 713 284" stroke-linecap="round" /></g><g transform="matrix(1 0 0 1 714.5 256.5)"  ><rect style="stroke: rgb(17,24,39); stroke-width: 3; stroke-dasharray: none; stroke-linecap: butt; stroke-dashoffset: 0; stroke-linejoin: miter; stroke-miterlimit: 4; fill: rgb(255,255,255); fill-rule: nonzero; opacity: 1;" vector-effect="non-scaling-stroke"  x="-13" y="-30" rx="3" ry="3" width="26" height="60" /></g><g transform="matrix(1 0 0 1 713 240)"  ><path style="stroke: rgb(17,24,39); stroke-width: 1; stroke-dasharray: none; stroke-linecap: round; stroke-dashoffset: 0; stroke-linejoin: round; stroke-miterlimit: 4; fill: rgb(255,255,255); fill-opacity: 0; fill-rule: nonzero; opacity: 1;" vector-effect="non-scaling-stroke"  transform=" translate(-713, -240)" d="M 700 240 L 726 240" stroke-linecap="round" /></g><g transform="matrix(1 0 0 1 713 252)"  ><path style="stroke: rgb(17,24,39); stroke-width: 1; stroke-dasharray: none; stroke-linecap: round; stroke-dashoffset: 0; stroke-linejoin: round; stroke-miterlimit: 4; fill: rgb(255,255,255); fill-opacity: 0; fill-rule: nonzero; opacity: 1;" vector-effect="non-scaling-stroke"  transform=" translate(-713, -252)" d="M 700 252 L 726 252" stroke-linecap="round" /></g><g transform="matrix(1 0 0 1 713 264)"  ><path style="stroke: rgb(17,24,39); stroke-width: 1; stroke-dasharray: none; stroke-linecap: round; stroke-dashoffset: 0; stroke-linejoin: round; stroke-miterlimit: 4; fill: rgb(255,255,255); fill-opacity: 0; fill-rule: nonzero; opacity: 1;" vector-effect="non-scaling-stroke"  transform=" translate(-713, -264)" d="M 700 264 L 726 264" stroke-linecap="round" /></g><g transform="matrix(1 0 0 1 713 276)"  ><path style="stroke: rgb(17,24,39); stroke-width: 1; stroke-dasharray: none; stroke-linecap: round; stroke-dashoffset: 0; stroke-linejoin: round; stroke-miterlimit: 4; fill: rgb(255,255,255); fill-opacity: 0; fill-rule: nonzero; opacity: 1;" vector-effect="non-scaling-stroke"  transform=" translate(-713, -276)" d="M 700 276 L 726 276" stroke-linecap="round" /></g><g transform="matrix(1 0 0 1 713 197.5)"  ><path style="stroke: rgb(17,24,39); stroke-width: 3; stroke-dasharray: none; stroke-linecap: round; stroke-dashoffset: 0; stroke-linejoin: round; stroke-miterlimit: 4; fill: rgb(255,255,255); fill-opacity: 0; fill-rule: nonzero; opacity: 1;" vector-effect="non-scaling-stroke"  transform=" translate(-713, -197.5)" d="M 713 225 L 713 170" stroke-linecap="round" /></g><g transform="matrix(1 0 0 1 713 170)"  ><path style="stroke: rgb(17,24,39); stroke-width: 4; stroke-dasharray: none; stroke-linecap: round; stroke-dashoffset: 0; stroke-linejoin: round; stroke-miterlimit: 4; fill: rgb(255,255,255); fill-opacity: 0; fill-rule: nonzero; opacity: 1;" vector-effect="non-scaling-stroke"  transform=" translate(-713, -170)" d="M 690 170 L 736 170" stroke-linecap="round" /></g><g transform="matrix(1 0 0 1 805.5 258)" style=""  ><text xml:space="preserve" font-family="Arial" font-size="16" font-style="normal" font-weight="normal" style="stroke: none; stroke-width: 1; stroke-dasharray: none; stroke-linecap: butt; stroke-dashoffset: 0; stroke-linejoin: miter; stroke-miterlimit: 4; fill: rgb(17,24,39); fill-rule: nonzero; opacity: 1; text-decoration-thickness: 6.6667%; white-space: pre;" ><tspan x="-60" y="5.0262" >Spring balance</tspan></text></g><g transform="matrix(0.9615 -0.2748 0.2748 0.9615 540 320)" style=""  ><text xml:space="preserve" font-family="Arial" font-size="14" font-style="normal" font-weight="normal" style="stroke: none; stroke-width: 1; stroke-dasharray: none; stroke-linecap: butt; stroke-dashoffset: 0; stroke-linejoin: miter; stroke-miterlimit: 4; fill: rgb(17,24,39); fill-rule: nonzero; opacity: 1; text-decoration-thickness: 6.6667%; white-space: pre;" ><tspan x="-17.1172" y="4.398" >string</tspan></text></g><g transform="matrix(1 0 0 1 444 403)"  ><path style="stroke: rgb(185,28,28); stroke-width: 3; stroke-dasharray: none; stroke-linecap: round; stroke-dashoffset: 0; stroke-linejoin: round; stroke-miterlimit: 4; fill: rgb(255,255,255); fill-opacity: 0; fill-rule: nonzero; opacity: 1;" vector-effect="non-scaling-stroke"  transform=" translate(-444, -403)" d="M 443.835 379.0152 L 444 438 M 444 438 L 437.971 427.6245 M 444 438 L 449.9709 427.591" stroke-linecap="round" /></g><g transform="matrix(1 0 0 1 475.5 415)" style=""  ><text xml:space="preserve" font-family="Arial" font-size="18" font-style="normal" font-weight="normal" style="stroke: none; stroke-width: 1; stroke-dasharray: none; stroke-linecap: butt; stroke-dashoffset: 0; stroke-linejoin: miter; stroke-miterlimit: 4; fill: rgb(185,28,28); fill-rule: nonzero; opacity: 1; text-decoration-thickness: 6.6667%; white-space: pre;" ><tspan x="-20" y="5.6545" >mg</tspan></text></g><g transform="matrix(1 0 0 1 420 510)" style=""  ><text xml:space="preserve" font-family="Arial" font-size="16" font-style="normal" font-weight="normal" style="stroke: none; stroke-width: 1; stroke-dasharray: none; stroke-linecap: butt; stroke-dashoffset: 0; stroke-linejoin: miter; stroke-miterlimit: 4; fill: rgb(17,24,39); fill-rule: nonzero; opacity: 1; text-decoration-thickness: 6.6667%; white-space: pre;" ><tspan x="-122.3789" y="5.0262" >Inclined plane (30° with horizontal)</tspan></text></g></svg>