<svg xmlns="http://www.w3.org/2000/svg" xmlns:xlink="http://www.w3.org/1999/xlink" version="1.1" width="387" height="186" viewBox="207 183 387 186" xml:space="preserve"><defs></defs><g transform="matrix(1 0 0 1 226.6978 282.9643)"  ><path style="stroke: rgb(0,0,0); stroke-width: 1; stroke-dasharray: none; stroke-linecap: round; stroke-dashoffset: 0; stroke-linejoin: round; stroke-miterlimit: 4; fill: rgb(255,255,255); fill-opacity: 0; fill-rule: nonzero; opacity: 1;" vector-effect="non-scaling-stroke"  transform=" translate(-226.6978, -282.9643)" d="M 225.1351 341.9902 L 226.8215 223.9385 M 226.8215 223.9385 L 231.6973 232.6693 M 226.8215 223.9385 L 221.6983 232.5264" stroke-linecap="round" /></g><g transform="matrix(1 0 0 1 356.2568 341.9902)"  ><path style="stroke: rgb(0,0,0); stroke-width: 1; stroke-dasharray: none; stroke-linecap: round; stroke-dashoffset: 0; stroke-linejoin: round; stroke-miterlimit: 4; fill: rgb(255,255,255); fill-opacity: 0; fill-rule: nonzero; opacity: 1;" vector-effect="non-scaling-stroke"  transform=" translate(-356.2568, -341.9902)" d="M 225.1351 341.9902 L 487.3785 341.9902 M 487.3785 341.9902 L 478.7182 346.9902 M 487.3785 341.9902 L 478.7182 336.9902" stroke-linecap="round" /></g><g transform="matrix(1 0 0 1 259.8272 207.358)" style=""  ><text xml:space="preserve" font-family="Arial" font-size="20" font-style="normal" font-weight="normal" style="stroke: none; stroke-width: 1; stroke-dasharray: none; stroke-linecap: butt; stroke-dashoffset: 0; stroke-linejoin: miter; stroke-miterlimit: 4; fill: rgb(0,0,0); fill-rule: nonzero; opacity: 1; text-decoration-thickness: 6.6667%; white-space: pre;" ><tspan x="-39.5061" y="6.2828" >e</tspan></text></g><g transform="matrix(1 0 0 1 541.685 344.9768)" style=""  ><text xml:space="preserve" font-family="Arial" font-size="20" font-style="normal" font-weight="normal" style="stroke: none; stroke-width: 1; stroke-dasharray: none; stroke-linecap: butt; stroke-dashoffset: 0; stroke-linejoin: miter; stroke-miterlimit: 4; fill: rgb(0,0,0); fill-rule: nonzero; opacity: 1; text-decoration-thickness: 6.6667%; white-space: pre;" ><tspan x="-39.5061" y="6.2828" >t</tspan></text></g><g transform="matrix(1 0 0 1 268.9828 304.8877)"  ><path style="stroke: rgb(0,0,0); stroke-width: 3; stroke-dasharray: none; stroke-linecap: butt; stroke-dashoffset: 0; stroke-linejoin: miter; stroke-miterlimit: 4; fill: rgb(255,255,255); fill-opacity: 0; fill-rule: nonzero; opacity: 1;"  transform=" translate(-268.9828, -304.8877)" d="M 225.1351 340.3037 C 232.7241 328.2175 256.0534 267.5052 270.6693 267.7863 C 285.2852 268.0673 305.8037 329.6229 312.8306 341.9902" stroke-linecap="round" /></g><g transform="matrix(1 0 0 1 397.9965 291.3965)"  ><path style="stroke: rgb(0,0,0); stroke-width: 3; stroke-dasharray: none; stroke-linecap: butt; stroke-dashoffset: 0; stroke-linejoin: miter; stroke-miterlimit: 4; fill: rgb(255,255,255); fill-opacity: 0; fill-rule: nonzero; opacity: 1;"  transform=" translate(-397.9965, -291.3965)" d="M 356.6784 341.147 C 363.5647 324.423 384.2238 240.6625 397.9965 240.803 C 411.7692 240.9435 432.4282 325.1257 439.3146 341.9902" stroke-linecap="round" /></g></svg>