<svg xmlns="http://www.w3.org/2000/svg" xmlns:xlink="http://www.w3.org/1999/xlink" version="1.1" width="307" height="235" viewBox="347 228 307 235" xml:space="preserve"><defs></defs><rect x="0" y="0" width="100%" height="100%" fill="transparent"></rect><g transform="matrix(1 0 0 1 500.75 243.75)"  ><rect style="stroke: rgb(17,24,39); stroke-width: 1.5; stroke-dasharray: none; stroke-linecap: butt; stroke-dashoffset: 0; stroke-linejoin: miter; stroke-miterlimit: 4; fill: rgb(17,24,39); fill-rule: nonzero; opacity: 1;" vector-effect="non-scaling-stroke"  x="-140" y="-3" rx="0" ry="0" width="280" height="6" /></g><g transform="matrix(1 0 0 1 500.75 383.75)"  ><rect style="stroke: rgb(17,24,39); stroke-width: 1.5; stroke-dasharray: none; stroke-linecap: butt; stroke-dashoffset: 0; stroke-linejoin: miter; stroke-miterlimit: 4; fill: rgb(17,24,39); fill-rule: nonzero; opacity: 1;" vector-effect="non-scaling-stroke"  x="-140" y="-3" rx="0" ry="0" width="280" height="6" /></g><g transform="matrix(1 0 0 1 440.75 313.75)"  ><rect style="stroke: rgb(17,24,39); stroke-width: 1.5; stroke-dasharray: none; stroke-linecap: butt; stroke-dashoffset: 0; stroke-linejoin: miter; stroke-miterlimit: 4; fill: rgb(255,255,255); fill-opacity: 0; fill-rule: nonzero; opacity: 1;" vector-effect="non-scaling-stroke"  x="-80" y="-67" rx="0" ry="0" width="160" height="134" /></g><g transform="matrix(1 0 0 1 580.75 313.75)"  ><rect style="stroke: rgb(17,24,39); stroke-width: 1.5; stroke-dasharray: none; stroke-linecap: butt; stroke-dashoffset: 0; stroke-linejoin: miter; stroke-miterlimit: 4; fill: rgb(255,255,255); fill-opacity: 0; fill-rule: nonzero; opacity: 1;" vector-effect="non-scaling-stroke"  x="-60" y="-67" rx="0" ry="0" width="120" height="134" /></g><g transform="matrix(1 0 0 1 440 300)" style=""  ><text xml:space="preserve" font-family="Arial" font-size="24" font-style="normal" font-weight="normal" style="stroke: none; stroke-width: 1; stroke-dasharray: none; stroke-linecap: butt; stroke-dashoffset: 0; stroke-linejoin: miter; stroke-miterlimit: 4; fill: rgb(17,24,39); fill-rule: nonzero; opacity: 1; text-decoration-thickness: 6.6667%; white-space: pre;" ><tspan x="-14.6777" y="7.5394" >K1</tspan></text></g><g transform="matrix(1 0 0 1 580 300)" style=""  ><text xml:space="preserve" font-family="Arial" font-size="24" font-style="normal" font-weight="normal" style="stroke: none; stroke-width: 1; stroke-dasharray: none; stroke-linecap: butt; stroke-dashoffset: 0; stroke-linejoin: miter; stroke-miterlimit: 4; fill: rgb(17,24,39); fill-rule: nonzero; opacity: 1; text-decoration-thickness: 6.6667%; white-space: pre;" ><tspan x="-14.6777" y="7.5394" >K2</tspan></text></g><g transform="matrix(1 0 0 1 440 420)"  ><path style="stroke: rgb(17,24,39); stroke-width: 1.5; stroke-dasharray: none; stroke-linecap: round; stroke-dashoffset: 0; stroke-linejoin: round; stroke-miterlimit: 4; fill: rgb(255,255,255); fill-opacity: 0; fill-rule: nonzero; opacity: 1;" vector-effect="non-scaling-stroke"  transform=" translate(-440, -420)" d="M 360 420 L 520 420" stroke-linecap="round" /></g><g transform="matrix(1 0 0 1 580 420)"  ><path style="stroke: rgb(17,24,39); stroke-width: 1.5; stroke-dasharray: none; stroke-linecap: round; stroke-dashoffset: 0; stroke-linejoin: round; stroke-miterlimit: 4; fill: rgb(255,255,255); fill-opacity: 0; fill-rule: nonzero; opacity: 1;" vector-effect="non-scaling-stroke"  transform=" translate(-580, -420)" d="M 520 420 L 640 420" stroke-linecap="round" /></g><g transform="matrix(1 0 0 1 360 420)"  ><path style="stroke: rgb(17,24,39); stroke-width: 1.5; stroke-dasharray: none; stroke-linecap: round; stroke-dashoffset: 0; stroke-linejoin: round; stroke-miterlimit: 4; fill: rgb(255,255,255); fill-opacity: 0; fill-rule: nonzero; opacity: 1;" vector-effect="non-scaling-stroke"  transform=" translate(-360, -420)" d="M 360 414 L 360 426" stroke-linecap="round" /></g><g transform="matrix(1 0 0 1 520 420)"  ><path style="stroke: rgb(17,24,39); stroke-width: 1.5; stroke-dasharray: none; stroke-linecap: round; stroke-dashoffset: 0; stroke-linejoin: round; stroke-miterlimit: 4; fill: rgb(255,255,255); fill-opacity: 0; fill-rule: nonzero; opacity: 1;" vector-effect="non-scaling-stroke"  transform=" translate(-520, -420)" d="M 520 414 L 520 426" stroke-linecap="round" /></g><g transform="matrix(1 0 0 1 640 420)"  ><path style="stroke: rgb(17,24,39); stroke-width: 1.5; stroke-dasharray: none; stroke-linecap: round; stroke-dashoffset: 0; stroke-linejoin: round; stroke-miterlimit: 4; fill: rgb(255,255,255); fill-opacity: 0; fill-rule: nonzero; opacity: 1;" vector-effect="non-scaling-stroke"  transform=" translate(-640, -420)" d="M 640 414 L 640 426" stroke-linecap="round" /></g><g transform="matrix(1 0 0 1 440 438)" style=""  ><text xml:space="preserve" font-family="Arial" font-size="22" font-style="normal" font-weight="normal" style="stroke: none; stroke-width: 1; stroke-dasharray: none; stroke-linecap: butt; stroke-dashoffset: 0; stroke-linejoin: miter; stroke-miterlimit: 4; fill: rgb(17,24,39); fill-rule: nonzero; opacity: 1; text-decoration-thickness: 6.6667%; white-space: pre;" ><tspan x="-6.1177" y="6.9111" >a</tspan></text></g><g transform="matrix(1 0 0 1 580 438)" style=""  ><text xml:space="preserve" font-family="Arial" font-size="22" font-style="normal" font-weight="normal" style="stroke: none; stroke-width: 1; stroke-dasharray: none; stroke-linecap: butt; stroke-dashoffset: 0; stroke-linejoin: miter; stroke-miterlimit: 4; fill: rgb(17,24,39); fill-rule: nonzero; opacity: 1; text-decoration-thickness: 6.6667%; white-space: pre;" ><tspan x="-6.1177" y="6.9111" >b</tspan></text></g></svg>