<svg xmlns="http://www.w3.org/2000/svg" xmlns:xlink="http://www.w3.org/1999/xlink" version="1.1" width="386" height="427" viewBox="307 137 386 427" xml:space="preserve"><defs></defs><g transform="matrix(1 0 0 1 352.71 272.745)"  ><path style="stroke: rgb(17,24,39); stroke-width: 1.5; stroke-dasharray: none; stroke-linecap: round; stroke-dashoffset: 0; stroke-linejoin: round; stroke-miterlimit: 4; fill: rgb(255,255,255); fill-opacity: 0; fill-rule: nonzero; opacity: 1;" vector-effect="non-scaling-stroke"  transform=" translate(-352.71, -272.745)" d="M 320 300 L 385.42 245.49" stroke-linecap="round" /></g><g transform="matrix(1 0 0 1 467.29 177.255)"  ><path style="stroke: rgb(17,24,39); stroke-width: 1.5; stroke-dasharray: none; stroke-linecap: round; stroke-dashoffset: 0; stroke-linejoin: round; stroke-miterlimit: 4; fill: rgb(255,255,255); fill-opacity: 0; fill-rule: nonzero; opacity: 1;" vector-effect="non-scaling-stroke"  transform=" translate(-467.29, -177.255)" d="M 434.58 204.51 L 500 150" stroke-linecap="round" /></g><g transform="matrix(1 0 0 1 532.71 177.255)"  ><path style="stroke: rgb(17,24,39); stroke-width: 1.5; stroke-dasharray: none; stroke-linecap: round; stroke-dashoffset: 0; stroke-linejoin: round; stroke-miterlimit: 4; fill: rgb(255,255,255); fill-opacity: 0; fill-rule: nonzero; opacity: 1;" vector-effect="non-scaling-stroke"  transform=" translate(-532.71, -177.255)" d="M 500 150 L 565.42 204.51" stroke-linecap="round" /></g><g transform="matrix(1 0 0 1 647.29 272.745)"  ><path style="stroke: rgb(17,24,39); stroke-width: 1.5; stroke-dasharray: none; stroke-linecap: round; stroke-dashoffset: 0; stroke-linejoin: round; stroke-miterlimit: 4; fill: rgb(255,255,255); fill-opacity: 0; fill-rule: nonzero; opacity: 1;" vector-effect="non-scaling-stroke"  transform=" translate(-647.29, -272.745)" d="M 614.58 245.49 L 680 300" stroke-linecap="round" /></g><g transform="matrix(1 0 0 1 647.29 327.255)"  ><path style="stroke: rgb(17,24,39); stroke-width: 1.5; stroke-dasharray: none; stroke-linecap: round; stroke-dashoffset: 0; stroke-linejoin: round; stroke-miterlimit: 4; fill: rgb(255,255,255); fill-opacity: 0; fill-rule: nonzero; opacity: 1;" vector-effect="non-scaling-stroke"  transform=" translate(-647.29, -327.255)" d="M 680 300 L 614.58 354.51" stroke-linecap="round" /></g><g transform="matrix(1 0 0 1 532.71 422.745)"  ><path style="stroke: rgb(17,24,39); stroke-width: 1.5; stroke-dasharray: none; stroke-linecap: round; stroke-dashoffset: 0; stroke-linejoin: round; stroke-miterlimit: 4; fill: rgb(255,255,255); fill-opacity: 0; fill-rule: nonzero; opacity: 1;" vector-effect="non-scaling-stroke"  transform=" translate(-532.71, -422.745)" d="M 565.42 395.49 L 500 450" stroke-linecap="round" /></g><g transform="matrix(1 0 0 1 467.29 422.745)"  ><path style="stroke: rgb(17,24,39); stroke-width: 1.5; stroke-dasharray: none; stroke-linecap: round; stroke-dashoffset: 0; stroke-linejoin: round; stroke-miterlimit: 4; fill: rgb(255,255,255); fill-opacity: 0; fill-rule: nonzero; opacity: 1;" vector-effect="non-scaling-stroke"  transform=" translate(-467.29, -422.745)" d="M 500 450 L 434.58 395.49" stroke-linecap="round" /></g><g transform="matrix(1 0 0 1 352.71 327.255)"  ><path style="stroke: rgb(17,24,39); stroke-width: 1.5; stroke-dasharray: none; stroke-linecap: round; stroke-dashoffset: 0; stroke-linejoin: round; stroke-miterlimit: 4; fill: rgb(255,255,255); fill-opacity: 0; fill-rule: nonzero; opacity: 1;" vector-effect="non-scaling-stroke"  transform=" translate(-352.71, -327.255)" d="M 385.42 354.51 L 320 300" stroke-linecap="round" /></g><g transform="matrix(1 0 0 1 500 209)"  ><path style="stroke: rgb(17,24,39); stroke-width: 1.5; stroke-dasharray: none; stroke-linecap: round; stroke-dashoffset: 0; stroke-linejoin: round; stroke-miterlimit: 4; fill: rgb(255,255,255); fill-opacity: 0; fill-rule: nonzero; opacity: 1;" vector-effect="non-scaling-stroke"  transform=" translate(-500, -209)" d="M 500 150 L 500 268" stroke-linecap="round" /></g><g transform="matrix(1 0 0 1 500 391)"  ><path style="stroke: rgb(17,24,39); stroke-width: 1.5; stroke-dasharray: none; stroke-linecap: round; stroke-dashoffset: 0; stroke-linejoin: round; stroke-miterlimit: 4; fill: rgb(255,255,255); fill-opacity: 0; fill-rule: nonzero; opacity: 1;" vector-effect="non-scaling-stroke"  transform=" translate(-500, -391)" d="M 500 332 L 500 450" stroke-linecap="round" /></g><g transform="matrix(1 0 0 1 394 400)"  ><polyline style="stroke: rgb(17,24,39); stroke-width: 1.5; stroke-dasharray: none; stroke-linecap: round; stroke-dashoffset: 0; stroke-linejoin: round; stroke-miterlimit: 4; fill: rgb(255,255,255); fill-opacity: 0; fill-rule: nonzero; opacity: 1;" vector-effect="non-scaling-stroke"  points="-74,-100 -74,100 74,100 " /></g><g transform="matrix(1 0 0 1 606 400)"  ><polyline style="stroke: rgb(17,24,39); stroke-width: 1.5; stroke-dasharray: none; stroke-linecap: round; stroke-dashoffset: 0; stroke-linejoin: round; stroke-miterlimit: 4; fill: rgb(255,255,255); fill-opacity: 0; fill-rule: nonzero; opacity: 1;" vector-effect="non-scaling-stroke"  points="-74,100 74,100 74,-100 " /></g><g transform="matrix(0.7683 -0.6401 0.6401 0.7683 410 225)"  ><g style=""   ><g transform="matrix(1 0 0 1 0 0)"  ><rect style="stroke: none; stroke-width: 0; stroke-dasharray: none; stroke-linecap: butt; stroke-dashoffset: 0; stroke-linejoin: miter; stroke-miterlimit: 4; fill: rgb(0,0,0); fill-opacity: 0; fill-rule: nonzero; opacity: 1;"  x="-35.5" y="-21.5" rx="0" ry="0" width="71" height="43" /></g><g transform="matrix(1 0 0 1 0 0)"  ><path style="stroke: rgb(17,24,39); stroke-width: 1.5; stroke-dasharray: none; stroke-linecap: round; stroke-dashoffset: 0; stroke-linejoin: round; stroke-miterlimit: 4; fill: rgb(255,255,255); fill-opacity: 0; fill-rule: nonzero; opacity: 1;" vector-effect="non-scaling-stroke"  transform=" translate(0, 0)" d="M -32 0 L -22 0 L -18 -10 L -10 10 L -2 -10 L 6 10 L 14 -10 L 18 0 L 32 0" stroke-linecap="round" /></g></g></g><g transform="matrix(0.7683 0.6401 -0.6401 0.7683 590 225)"  ><g style=""   ><g transform="matrix(1 0 0 1 0 0)"  ><rect style="stroke: none; stroke-width: 0; stroke-dasharray: none; stroke-linecap: butt; stroke-dashoffset: 0; stroke-linejoin: miter; stroke-miterlimit: 4; fill: rgb(0,0,0); fill-opacity: 0; fill-rule: nonzero; opacity: 1;"  x="-35.5" y="-21.5" rx="0" ry="0" width="71" height="43" /></g><g transform="matrix(1 0 0 1 0 0)"  ><path style="stroke: rgb(17,24,39); stroke-width: 1.5; stroke-dasharray: none; stroke-linecap: round; stroke-dashoffset: 0; stroke-linejoin: round; stroke-miterlimit: 4; fill: rgb(255,255,255); fill-opacity: 0; fill-rule: nonzero; opacity: 1;" vector-effect="non-scaling-stroke"  transform=" translate(0, 0)" d="M -32 0 L -22 0 L -18 -10 L -10 10 L -2 -10 L 6 10 L 14 -10 L 18 0 L 32 0" stroke-linecap="round" /></g></g></g><g transform="matrix(-0.7683 0.6401 -0.6401 -0.7683 590 375)"  ><g style=""   ><g transform="matrix(1 0 0 1 0 0)"  ><rect style="stroke: none; stroke-width: 0; stroke-dasharray: none; stroke-linecap: butt; stroke-dashoffset: 0; stroke-linejoin: miter; stroke-miterlimit: 4; fill: rgb(0,0,0); fill-opacity: 0; fill-rule: nonzero; opacity: 1;"  x="-35.5" y="-21.5" rx="0" ry="0" width="71" height="43" /></g><g transform="matrix(1 0 0 1 0 0)"  ><path style="stroke: rgb(17,24,39); stroke-width: 1.5; stroke-dasharray: none; stroke-linecap: round; stroke-dashoffset: 0; stroke-linejoin: round; stroke-miterlimit: 4; fill: rgb(255,255,255); fill-opacity: 0; fill-rule: nonzero; opacity: 1;" vector-effect="non-scaling-stroke"  transform=" translate(0, 0)" d="M -32 0 L -22 0 L -18 -10 L -10 10 L -2 -10 L 6 10 L 14 -10 L 18 0 L 32 0" stroke-linecap="round" /></g></g></g><g transform="matrix(-0.7683 -0.6401 0.6401 -0.7683 410 375)"  ><g style=""   ><g transform="matrix(1 0 0 1 0 0)"  ><rect style="stroke: none; stroke-width: 0; stroke-dasharray: none; stroke-linecap: butt; stroke-dashoffset: 0; stroke-linejoin: miter; stroke-miterlimit: 4; fill: rgb(0,0,0); fill-opacity: 0; fill-rule: nonzero; opacity: 1;"  x="-35.5" y="-21.5" rx="0" ry="0" width="71" height="43" /></g><g transform="matrix(1 0 0 1 0 0)"  ><path style="stroke: rgb(17,24,39); stroke-width: 1.5; stroke-dasharray: none; stroke-linecap: round; stroke-dashoffset: 0; stroke-linejoin: round; stroke-miterlimit: 4; fill: rgb(255,255,255); fill-opacity: 0; fill-rule: nonzero; opacity: 1;" vector-effect="non-scaling-stroke"  transform=" translate(0, 0)" d="M -32 0 L -22 0 L -18 -10 L -10 10 L -2 -10 L 6 10 L 14 -10 L 18 0 L 32 0" stroke-linecap="round" /></g></g></g><g transform="matrix(0 1 -1 0 500 300)"  ><g style=""   ><g transform="matrix(1 0 0 1 0 0)"  ><rect style="stroke: none; stroke-width: 0; stroke-dasharray: none; stroke-linecap: butt; stroke-dashoffset: 0; stroke-linejoin: miter; stroke-miterlimit: 4; fill: rgb(0,0,0); fill-opacity: 0; fill-rule: nonzero; opacity: 1;"  x="-35.5" y="-21.5" rx="0" ry="0" width="71" height="43" /></g><g transform="matrix(1 0 0 1 -23 0)"  ><line style="stroke: rgb(17,24,39); stroke-width: 1.5; stroke-dasharray: none; stroke-linecap: round; stroke-dashoffset: 0; stroke-linejoin: round; stroke-miterlimit: 4; fill: rgb(255,255,255); fill-opacity: 0; fill-rule: nonzero; opacity: 1;" vector-effect="non-scaling-stroke"  x1="-9" y1="0" x2="9" y2="0" /></g><g transform="matrix(1 0 0 1 23 0)"  ><line style="stroke: rgb(17,24,39); stroke-width: 1.5; stroke-dasharray: none; stroke-linecap: round; stroke-dashoffset: 0; stroke-linejoin: round; stroke-miterlimit: 4; fill: rgb(255,255,255); fill-opacity: 0; fill-rule: nonzero; opacity: 1;" vector-effect="non-scaling-stroke"  x1="-9" y1="0" x2="9" y2="0" /></g><g transform="matrix(1 0 0 1 0 0)"  ><circle style="stroke: rgb(17,24,39); stroke-width: 1.5; stroke-dasharray: none; stroke-linecap: round; stroke-dashoffset: 0; stroke-linejoin: round; stroke-miterlimit: 4; fill: rgb(255,255,255); fill-opacity: 0; fill-rule: nonzero; opacity: 1;" vector-effect="non-scaling-stroke"  cx="0" cy="0" r="14" /></g><g transform="matrix(1 0 0 1 0 0.5)" style=""  ><text xml:space="preserve" font-family="Arial" font-size="17" font-style="normal" font-weight="600" style="stroke: none; stroke-width: 1; stroke-dasharray: none; stroke-linecap: butt; stroke-dashoffset: 0; stroke-linejoin: miter; stroke-miterlimit: 4; fill: rgb(17,24,39); fill-rule: nonzero; opacity: 1; text-decoration-thickness: 6.6667%; white-space: pre;" ><tspan x="-6.6116" y="5.3404" >G</tspan></text></g></g></g><g transform="matrix(1 0 0 1 500 500)"  ><g style=""   ><g transform="matrix(1 0 0 1 0 0)"  ><rect style="stroke: none; stroke-width: 0; stroke-dasharray: none; stroke-linecap: butt; stroke-dashoffset: 0; stroke-linejoin: miter; stroke-miterlimit: 4; fill: rgb(0,0,0); fill-opacity: 0; fill-rule: nonzero; opacity: 1;"  x="-35.5" y="-21.5" rx="0" ry="0" width="71" height="43" /></g><g transform="matrix(1 0 0 1 -18.5 0)"  ><line style="stroke: rgb(17,24,39); stroke-width: 1.5; stroke-dasharray: none; stroke-linecap: round; stroke-dashoffset: 0; stroke-linejoin: round; stroke-miterlimit: 4; fill: rgb(255,255,255); fill-opacity: 0; fill-rule: nonzero; opacity: 1;" vector-effect="non-scaling-stroke"  x1="-13.5" y1="0" x2="13.5" y2="0" /></g><g transform="matrix(1 0 0 1 18.5 0)"  ><line style="stroke: rgb(17,24,39); stroke-width: 1.5; stroke-dasharray: none; stroke-linecap: round; stroke-dashoffset: 0; stroke-linejoin: round; stroke-miterlimit: 4; fill: rgb(255,255,255); fill-opacity: 0; fill-rule: nonzero; opacity: 1;" vector-effect="non-scaling-stroke"  x1="-13.5" y1="0" x2="13.5" y2="0" /></g><g transform="matrix(1 0 0 1 -5 0)"  ><line style="stroke: rgb(17,24,39); stroke-width: 1.5; stroke-dasharray: none; stroke-linecap: round; stroke-dashoffset: 0; stroke-linejoin: round; stroke-miterlimit: 4; fill: rgb(255,255,255); fill-opacity: 0; fill-rule: nonzero; opacity: 1;" vector-effect="non-scaling-stroke"  x1="0" y1="-15" x2="0" y2="15" /></g><g transform="matrix(1 0 0 1 5 0)"  ><line style="stroke: rgb(17,24,39); stroke-width: 1.5; stroke-dasharray: none; stroke-linecap: round; stroke-dashoffset: 0; stroke-linejoin: round; stroke-miterlimit: 4; fill: rgb(255,255,255); fill-opacity: 0; fill-rule: nonzero; opacity: 1;" vector-effect="non-scaling-stroke"  x1="0" y1="-9" x2="0" y2="9" /></g></g></g><g transform="matrix(1 0 0 1 371.4268 175.9893)" style=""  ><text xml:space="preserve" font-family="Arial" font-size="22" font-style="normal" font-weight="normal" style="stroke: none; stroke-width: 1; stroke-dasharray: none; stroke-linecap: butt; stroke-dashoffset: 0; stroke-linejoin: miter; stroke-miterlimit: 4; fill: rgb(17,24,39); fill-rule: nonzero; opacity: 1; text-decoration-thickness: 6.6667%; white-space: pre;" ><tspan x="-7.3369" y="6.9111" >P</tspan></text></g><g transform="matrix(1 0 0 1 628 180)" style=""  ><text xml:space="preserve" font-family="Arial" font-size="22" font-style="normal" font-weight="normal" style="stroke: none; stroke-width: 1; stroke-dasharray: none; stroke-linecap: butt; stroke-dashoffset: 0; stroke-linejoin: miter; stroke-miterlimit: 4; fill: rgb(17,24,39); fill-rule: nonzero; opacity: 1; text-decoration-thickness: 6.6667%; white-space: pre;" ><tspan x="-8.5562" y="6.9111" >Q</tspan></text></g><g transform="matrix(1 0 0 1 636 414)" style=""  ><text xml:space="preserve" font-family="Arial" font-size="22" font-style="normal" font-weight="normal" style="stroke: none; stroke-width: 1; stroke-dasharray: none; stroke-linecap: butt; stroke-dashoffset: 0; stroke-linejoin: miter; stroke-miterlimit: 4; fill: rgb(17,24,39); fill-rule: nonzero; opacity: 1; text-decoration-thickness: 6.6667%; white-space: pre;" ><tspan x="-7.3369" y="6.9111" >X</tspan></text></g><g transform="matrix(1 0 0 1 364 414)" style=""  ><text xml:space="preserve" font-family="Arial" font-size="22" font-style="normal" font-weight="normal" style="stroke: none; stroke-width: 1; stroke-dasharray: none; stroke-linecap: butt; stroke-dashoffset: 0; stroke-linejoin: miter; stroke-miterlimit: 4; fill: rgb(17,24,39); fill-rule: nonzero; opacity: 1; text-decoration-thickness: 6.6667%; white-space: pre;" ><tspan x="-7.3369" y="6.9111" >Y</tspan></text></g><g transform="matrix(1 0 0 1 500 540)" style=""  ><text xml:space="preserve" font-family="Arial" font-size="20" font-style="normal" font-weight="normal" style="stroke: none; stroke-width: 1; stroke-dasharray: none; stroke-linecap: butt; stroke-dashoffset: 0; stroke-linejoin: miter; stroke-miterlimit: 4; fill: rgb(17,24,39); fill-rule: nonzero; opacity: 1; text-decoration-thickness: 6.6667%; white-space: pre;" ><tspan x="-31.6797" y="6.2828" >Battery</tspan></text></g></svg>