<svg xmlns="http://www.w3.org/2000/svg" xmlns:xlink="http://www.w3.org/1999/xlink" version="1.1" width="769" height="436" viewBox="54 93 769 436" xml:space="preserve"><defs></defs><g transform="matrix(1 0 0 1 149.4204 117.1631)" style=""  ><text xml:space="preserve" font-family="Arial" font-size="20" font-style="normal" font-weight="normal" style="stroke: none; stroke-width: 1; stroke-dasharray: none; stroke-linecap: butt; stroke-dashoffset: 0; stroke-linejoin: miter; stroke-miterlimit: 4; fill: rgb(17,24,39); fill-rule: nonzero; opacity: 1; text-decoration-thickness: 6.6667%; white-space: pre;" ><tspan x="-12.2217" y="6.2828" >(1)</tspan></text></g><g transform="matrix(1 0 0 1 267.5 250)"  ><path style="stroke: rgb(17,24,39); stroke-width: 1.5; stroke-dasharray: none; stroke-linecap: round; stroke-dashoffset: 0; stroke-linejoin: round; stroke-miterlimit: 4; fill: rgb(255,255,255); fill-opacity: 0; fill-rule: nonzero; opacity: 1;" vector-effect="non-scaling-stroke"  transform=" translate(-267.5, -250)" d="M 200 250 L 335 250 M 335 250 L 326.3397 255 M 335 250 L 326.3397 245" stroke-linecap="round" /></g><g transform="matrix(1 0 0 1 200 187.5)"  ><path style="stroke: rgb(17,24,39); stroke-width: 1.5; stroke-dasharray: none; stroke-linecap: round; stroke-dashoffset: 0; stroke-linejoin: round; stroke-miterlimit: 4; fill: rgb(255,255,255); fill-opacity: 0; fill-rule: nonzero; opacity: 1;" vector-effect="non-scaling-stroke"  transform=" translate(-200, -187.5)" d="M 200 250 L 200 125 M 200 125 L 205 133.6603 M 200 125 L 195 133.6603" stroke-linecap="round" /></g><g transform="matrix(1 0 0 1 188 120)" style=""  ><text xml:space="preserve" font-family="Arial" font-size="20" font-style="normal" font-weight="normal" style="stroke: none; stroke-width: 1; stroke-dasharray: none; stroke-linecap: butt; stroke-dashoffset: 0; stroke-linejoin: miter; stroke-miterlimit: 4; fill: rgb(17,24,39); fill-rule: nonzero; opacity: 1; text-decoration-thickness: 6.6667%; white-space: pre;" ><tspan x="-6.6699" y="6.2828" >P</tspan></text></g><g transform="matrix(1 0 0 1 360.5 255)" style=""  ><text xml:space="preserve" font-family="Arial" font-size="20" font-style="normal" font-weight="normal" style="stroke: none; stroke-width: 1; stroke-dasharray: none; stroke-linecap: butt; stroke-dashoffset: 0; stroke-linejoin: miter; stroke-miterlimit: 4; fill: rgb(17,24,39); fill-rule: nonzero; opacity: 1; text-decoration-thickness: 6.6667%; white-space: pre;" ><tspan x="-15" y="6.2828" >T</tspan></text></g><g transform="matrix(1 0 0 1 265 215)"  ><path style="stroke: rgb(17,24,39); stroke-width: 1.5; stroke-dasharray: none; stroke-linecap: round; stroke-dashoffset: 0; stroke-linejoin: round; stroke-miterlimit: 4; fill: rgb(255,255,255); fill-opacity: 0; fill-rule: nonzero; opacity: 1;" vector-effect="non-scaling-stroke"  transform=" translate(-265, -215)" d="M 210 215 L 320 215" stroke-linecap="round" /></g><g transform="matrix(1 0 0 1 265 185)"  ><path style="stroke: rgb(17,24,39); stroke-width: 1.5; stroke-dasharray: none; stroke-linecap: round; stroke-dashoffset: 0; stroke-linejoin: round; stroke-miterlimit: 4; fill: rgb(255,255,255); fill-opacity: 0; fill-rule: nonzero; opacity: 1;" vector-effect="non-scaling-stroke"  transform=" translate(-265, -185)" d="M 210 185 L 320 185" stroke-linecap="round" /></g><g transform="matrix(1 0 0 1 265 155)"  ><path style="stroke: rgb(17,24,39); stroke-width: 1.5; stroke-dasharray: none; stroke-linecap: round; stroke-dashoffset: 0; stroke-linejoin: round; stroke-miterlimit: 4; fill: rgb(255,255,255); fill-opacity: 0; fill-rule: nonzero; opacity: 1;" vector-effect="non-scaling-stroke"  transform=" translate(-265, -155)" d="M 210 155 L 320 155" stroke-linecap="round" /></g><g transform="matrix(1 0 0 1 340.5 220)" style=""  ><text xml:space="preserve" font-family="Arial" font-size="18" font-style="normal" font-weight="normal" style="stroke: none; stroke-width: 1; stroke-dasharray: none; stroke-linecap: butt; stroke-dashoffset: 0; stroke-linejoin: miter; stroke-miterlimit: 4; fill: rgb(17,24,39); fill-rule: nonzero; opacity: 1; text-decoration-thickness: 6.6667%; white-space: pre;" ><tspan x="-15" y="5.6545" >V1</tspan></text></g><g transform="matrix(1 0 0 1 340.5 190)" style=""  ><text xml:space="preserve" font-family="Arial" font-size="18" font-style="normal" font-weight="normal" style="stroke: none; stroke-width: 1; stroke-dasharray: none; stroke-linecap: butt; stroke-dashoffset: 0; stroke-linejoin: miter; stroke-miterlimit: 4; fill: rgb(17,24,39); fill-rule: nonzero; opacity: 1; text-decoration-thickness: 6.6667%; white-space: pre;" ><tspan x="-15" y="5.6545" >V2</tspan></text></g><g transform="matrix(1 0 0 1 340.5 160)" style=""  ><text xml:space="preserve" font-family="Arial" font-size="18" font-style="normal" font-weight="normal" style="stroke: none; stroke-width: 1; stroke-dasharray: none; stroke-linecap: butt; stroke-dashoffset: 0; stroke-linejoin: miter; stroke-miterlimit: 4; fill: rgb(17,24,39); fill-rule: nonzero; opacity: 1; text-decoration-thickness: 6.6667%; white-space: pre;" ><tspan x="-15" y="5.6545" >V3</tspan></text></g><g transform="matrix(1 0 0 1 568.2732 121.586)" style=""  ><text xml:space="preserve" font-family="Arial" font-size="20" font-style="normal" font-weight="normal" style="stroke: none; stroke-width: 1; stroke-dasharray: none; stroke-linecap: butt; stroke-dashoffset: 0; stroke-linejoin: miter; stroke-miterlimit: 4; fill: rgb(17,24,39); fill-rule: nonzero; opacity: 1; text-decoration-thickness: 6.6667%; white-space: pre;" ><tspan x="-12.2217" y="6.2828" >(2)</tspan></text></g><g transform="matrix(1 0 0 1 687.5 250)"  ><path style="stroke: rgb(17,24,39); stroke-width: 1.5; stroke-dasharray: none; stroke-linecap: round; stroke-dashoffset: 0; stroke-linejoin: round; stroke-miterlimit: 4; fill: rgb(255,255,255); fill-opacity: 0; fill-rule: nonzero; opacity: 1;" vector-effect="non-scaling-stroke"  transform=" translate(-687.5, -250)" d="M 620 250 L 755 250 M 755 250 L 746.3397 255 M 755 250 L 746.3397 245" stroke-linecap="round" /></g><g transform="matrix(1 0 0 1 620 187.5)"  ><path style="stroke: rgb(17,24,39); stroke-width: 1.5; stroke-dasharray: none; stroke-linecap: round; stroke-dashoffset: 0; stroke-linejoin: round; stroke-miterlimit: 4; fill: rgb(255,255,255); fill-opacity: 0; fill-rule: nonzero; opacity: 1;" vector-effect="non-scaling-stroke"  transform=" translate(-620, -187.5)" d="M 620 250 L 620 125 M 620 125 L 625 133.6603 M 620 125 L 615 133.6603" stroke-linecap="round" /></g><g transform="matrix(1 0 0 1 608 120)" style=""  ><text xml:space="preserve" font-family="Arial" font-size="20" font-style="normal" font-weight="normal" style="stroke: none; stroke-width: 1; stroke-dasharray: none; stroke-linecap: butt; stroke-dashoffset: 0; stroke-linejoin: miter; stroke-miterlimit: 4; fill: rgb(17,24,39); fill-rule: nonzero; opacity: 1; text-decoration-thickness: 6.6667%; white-space: pre;" ><tspan x="-6.6699" y="6.2828" >P</tspan></text></g><g transform="matrix(1 0 0 1 780.5 255)" style=""  ><text xml:space="preserve" font-family="Arial" font-size="20" font-style="normal" font-weight="normal" style="stroke: none; stroke-width: 1; stroke-dasharray: none; stroke-linecap: butt; stroke-dashoffset: 0; stroke-linejoin: miter; stroke-miterlimit: 4; fill: rgb(17,24,39); fill-rule: nonzero; opacity: 1; text-decoration-thickness: 6.6667%; white-space: pre;" ><tspan x="-15" y="6.2828" >V</tspan></text></g><g transform="matrix(1 0 0 1 681.5 193)"  ><path style="stroke: rgb(17,24,39); stroke-width: 1.5; stroke-dasharray: none; stroke-linecap: round; stroke-dashoffset: 0; stroke-linejoin: round; stroke-miterlimit: 4; fill: rgb(255,255,255); fill-opacity: 0; fill-rule: nonzero; opacity: 1;" vector-effect="non-scaling-stroke"  transform=" translate(-681.5, -193)" d="M 628 148 Q 655 148 735 238" stroke-linecap="round" /></g><g transform="matrix(1 0 0 1 681.5 206)"  ><path style="stroke: rgb(17,24,39); stroke-width: 1.5; stroke-dasharray: none; stroke-linecap: round; stroke-dashoffset: 0; stroke-linejoin: round; stroke-miterlimit: 4; fill: rgb(255,255,255); fill-opacity: 0; fill-rule: nonzero; opacity: 1;" vector-effect="non-scaling-stroke"  transform=" translate(-681.5, -206)" d="M 628 168 Q 660 168 735 244" stroke-linecap="round" /></g><g transform="matrix(1 0 0 1 681.5 218)"  ><path style="stroke: rgb(17,24,39); stroke-width: 1.5; stroke-dasharray: none; stroke-linecap: round; stroke-dashoffset: 0; stroke-linejoin: round; stroke-miterlimit: 4; fill: rgb(255,255,255); fill-opacity: 0; fill-rule: nonzero; opacity: 1;" vector-effect="non-scaling-stroke"  transform=" translate(-681.5, -218)" d="M 628 188 Q 665 188 735 248" stroke-linecap="round" /></g><g transform="matrix(0.7217 0 0 0.9116 604.2651 151.2685)" style=""  ><text xml:space="preserve" font-family="Arial" font-size="18" font-style="normal" font-weight="normal" style="stroke: none; stroke-width: 1; stroke-dasharray: none; stroke-linecap: butt; stroke-dashoffset: 0; stroke-linejoin: miter; stroke-miterlimit: 4; fill: rgb(17,24,39); fill-rule: nonzero; opacity: 1; text-decoration-thickness: 6.0776%; white-space: pre;" ><tspan x="-6.0059" y="5.6545" >T1</tspan></text></g><g transform="matrix(0.7217 0 0 0.9116 603.4664 168.4931)" style=""  ><text xml:space="preserve" font-family="Arial" font-size="18" font-style="normal" font-weight="normal" style="stroke: none; stroke-width: 1; stroke-dasharray: none; stroke-linecap: butt; stroke-dashoffset: 0; stroke-linejoin: miter; stroke-miterlimit: 4; fill: rgb(17,24,39); fill-rule: nonzero; opacity: 1; text-decoration-thickness: 6.0776%; white-space: pre;" ><tspan x="-6.0059" y="5.6545" >T2</tspan></text></g><g transform="matrix(0.7217 0 0 0.9116 604.2651 187.7337)" style=""  ><text xml:space="preserve" font-family="Arial" font-size="18" font-style="normal" font-weight="normal" style="stroke: none; stroke-width: 1; stroke-dasharray: none; stroke-linecap: butt; stroke-dashoffset: 0; stroke-linejoin: miter; stroke-miterlimit: 4; fill: rgb(17,24,39); fill-rule: nonzero; opacity: 1; text-decoration-thickness: 6.0776%; white-space: pre;" ><tspan x="-6.0059" y="5.6545" >T3</tspan></text></g><g transform="matrix(1 0 0 1 147.2072 366.0573)" style=""  ><text xml:space="preserve" font-family="Arial" font-size="20" font-style="normal" font-weight="normal" style="stroke: none; stroke-width: 1; stroke-dasharray: none; stroke-linecap: butt; stroke-dashoffset: 0; stroke-linejoin: miter; stroke-miterlimit: 4; fill: rgb(17,24,39); fill-rule: nonzero; opacity: 1; text-decoration-thickness: 6.6667%; white-space: pre;" ><tspan x="-12.2217" y="6.2828" >(3)</tspan></text></g><g transform="matrix(1 0 0 1 267.5 500)"  ><path style="stroke: rgb(17,24,39); stroke-width: 1.5; stroke-dasharray: none; stroke-linecap: round; stroke-dashoffset: 0; stroke-linejoin: round; stroke-miterlimit: 4; fill: rgb(255,255,255); fill-opacity: 0; fill-rule: nonzero; opacity: 1;" vector-effect="non-scaling-stroke"  transform=" translate(-267.5, -500)" d="M 200 500 L 335 500 M 335 500 L 326.3397 505 M 335 500 L 326.3397 495" stroke-linecap="round" /></g><g transform="matrix(1 0 0 1 200 437.5)"  ><path style="stroke: rgb(17,24,39); stroke-width: 1.5; stroke-dasharray: none; stroke-linecap: round; stroke-dashoffset: 0; stroke-linejoin: round; stroke-miterlimit: 4; fill: rgb(255,255,255); fill-opacity: 0; fill-rule: nonzero; opacity: 1;" vector-effect="non-scaling-stroke"  transform=" translate(-200, -437.5)" d="M 200 500 L 200 375 M 200 375 L 205 383.6603 M 200 375 L 195 383.6603" stroke-linecap="round" /></g><g transform="matrix(1 0 0 1 188 370)" style=""  ><text xml:space="preserve" font-family="Arial" font-size="20" font-style="normal" font-weight="normal" style="stroke: none; stroke-width: 1; stroke-dasharray: none; stroke-linecap: butt; stroke-dashoffset: 0; stroke-linejoin: miter; stroke-miterlimit: 4; fill: rgb(17,24,39); fill-rule: nonzero; opacity: 1; text-decoration-thickness: 6.6667%; white-space: pre;" ><tspan x="-6.6699" y="6.2828" >P</tspan></text></g><g transform="matrix(1 0 0 1 368 505)" style=""  ><text xml:space="preserve" font-family="Arial" font-size="20" font-style="normal" font-weight="normal" style="stroke: none; stroke-width: 1; stroke-dasharray: none; stroke-linecap: butt; stroke-dashoffset: 0; stroke-linejoin: miter; stroke-miterlimit: 4; fill: rgb(17,24,39); fill-rule: nonzero; opacity: 1; text-decoration-thickness: 6.6667%; white-space: pre;" ><tspan x="-22.5" y="6.2828" >1/V</tspan></text></g><g transform="matrix(1 0 0 1 260 465)"  ><path style="stroke: rgb(17,24,39); stroke-width: 1.5; stroke-dasharray: none; stroke-linecap: round; stroke-dashoffset: 0; stroke-linejoin: round; stroke-miterlimit: 4; fill: rgb(255,255,255); fill-opacity: 0; fill-rule: nonzero; opacity: 1;" vector-effect="non-scaling-stroke"  transform=" translate(-260, -465)" d="M 200 500 L 320 430" stroke-linecap="round" /></g><g transform="matrix(1 0 0 1 260 455)"  ><path style="stroke: rgb(17,24,39); stroke-width: 1.5; stroke-dasharray: none; stroke-linecap: round; stroke-dashoffset: 0; stroke-linejoin: round; stroke-miterlimit: 4; fill: rgb(255,255,255); fill-opacity: 0; fill-rule: nonzero; opacity: 1;" vector-effect="non-scaling-stroke"  transform=" translate(-260, -455)" d="M 200 500 L 320 410" stroke-linecap="round" /></g><g transform="matrix(1 0 0 1 260 445)"  ><path style="stroke: rgb(17,24,39); stroke-width: 1.5; stroke-dasharray: none; stroke-linecap: round; stroke-dashoffset: 0; stroke-linejoin: round; stroke-miterlimit: 4; fill: rgb(255,255,255); fill-opacity: 0; fill-rule: nonzero; opacity: 1;" vector-effect="non-scaling-stroke"  transform=" translate(-260, -445)" d="M 200 500 L 320 390" stroke-linecap="round" /></g><g transform="matrix(1 0 0 1 340.5 435)" style=""  ><text xml:space="preserve" font-family="Arial" font-size="18" font-style="normal" font-weight="normal" style="stroke: none; stroke-width: 1; stroke-dasharray: none; stroke-linecap: butt; stroke-dashoffset: 0; stroke-linejoin: miter; stroke-miterlimit: 4; fill: rgb(17,24,39); fill-rule: nonzero; opacity: 1; text-decoration-thickness: 6.6667%; white-space: pre;" ><tspan x="-15" y="5.6545" >T1</tspan></text></g><g transform="matrix(1 0 0 1 340.5 415)" style=""  ><text xml:space="preserve" font-family="Arial" font-size="18" font-style="normal" font-weight="normal" style="stroke: none; stroke-width: 1; stroke-dasharray: none; stroke-linecap: butt; stroke-dashoffset: 0; stroke-linejoin: miter; stroke-miterlimit: 4; fill: rgb(17,24,39); fill-rule: nonzero; opacity: 1; text-decoration-thickness: 6.6667%; white-space: pre;" ><tspan x="-15" y="5.6545" >T2</tspan></text></g><g transform="matrix(1 0 0 1 340.5 395)" style=""  ><text xml:space="preserve" font-family="Arial" font-size="18" font-style="normal" font-weight="normal" style="stroke: none; stroke-width: 1; stroke-dasharray: none; stroke-linecap: butt; stroke-dashoffset: 0; stroke-linejoin: miter; stroke-miterlimit: 4; fill: rgb(17,24,39); fill-rule: nonzero; opacity: 1; text-decoration-thickness: 6.6667%; white-space: pre;" ><tspan x="-15" y="5.6545" >T3</tspan></text></g><g transform="matrix(1 0 0 1 574.9129 363.8459)" style=""  ><text xml:space="preserve" font-family="Arial" font-size="20" font-style="normal" font-weight="normal" style="stroke: none; stroke-width: 1; stroke-dasharray: none; stroke-linecap: butt; stroke-dashoffset: 0; stroke-linejoin: miter; stroke-miterlimit: 4; fill: rgb(17,24,39); fill-rule: nonzero; opacity: 1; text-decoration-thickness: 6.6667%; white-space: pre;" ><tspan x="-12.2217" y="6.2828" >(4)</tspan></text></g><g transform="matrix(1 0 0 1 687.5 500)"  ><path style="stroke: rgb(17,24,39); stroke-width: 1.5; stroke-dasharray: none; stroke-linecap: round; stroke-dashoffset: 0; stroke-linejoin: round; stroke-miterlimit: 4; fill: rgb(255,255,255); fill-opacity: 0; fill-rule: nonzero; opacity: 1;" vector-effect="non-scaling-stroke"  transform=" translate(-687.5, -500)" d="M 620 500 L 755 500 M 755 500 L 746.3397 505 M 755 500 L 746.3397 495" stroke-linecap="round" /></g><g transform="matrix(1 0 0 1 620 437.5)"  ><path style="stroke: rgb(17,24,39); stroke-width: 1.5; stroke-dasharray: none; stroke-linecap: round; stroke-dashoffset: 0; stroke-linejoin: round; stroke-miterlimit: 4; fill: rgb(255,255,255); fill-opacity: 0; fill-rule: nonzero; opacity: 1;" vector-effect="non-scaling-stroke"  transform=" translate(-620, -437.5)" d="M 620 500 L 620 375 M 620 375 L 625 383.6603 M 620 375 L 615 383.6603" stroke-linecap="round" /></g><g transform="matrix(1 0 0 1 608 370)" style=""  ><text xml:space="preserve" font-family="Arial" font-size="20" font-style="normal" font-weight="normal" style="stroke: none; stroke-width: 1; stroke-dasharray: none; stroke-linecap: butt; stroke-dashoffset: 0; stroke-linejoin: miter; stroke-miterlimit: 4; fill: rgb(17,24,39); fill-rule: nonzero; opacity: 1; text-decoration-thickness: 6.6667%; white-space: pre;" ><tspan x="-6.6699" y="6.2828" >P</tspan></text></g><g transform="matrix(1 0 0 1 788 505)" style=""  ><text xml:space="preserve" font-family="Arial" font-size="20" font-style="normal" font-weight="normal" style="stroke: none; stroke-width: 1; stroke-dasharray: none; stroke-linecap: butt; stroke-dashoffset: 0; stroke-linejoin: miter; stroke-miterlimit: 4; fill: rgb(17,24,39); fill-rule: nonzero; opacity: 1; text-decoration-thickness: 6.6667%; white-space: pre;" ><tspan x="-22.5" y="6.2828" >1/V</tspan></text></g><g transform="matrix(1 0 0 1 685 447.5)"  ><path style="stroke: rgb(17,24,39); stroke-width: 1.5; stroke-dasharray: none; stroke-linecap: round; stroke-dashoffset: 0; stroke-linejoin: round; stroke-miterlimit: 4; fill: rgb(255,255,255); fill-opacity: 0; fill-rule: nonzero; opacity: 1;" vector-effect="non-scaling-stroke"  transform=" translate(-685, -447.5)" d="M 625 495 Q 700 470 745 400" stroke-linecap="round" /></g><g transform="matrix(1 0 0 1 685 440)"  ><path style="stroke: rgb(17,24,39); stroke-width: 1.5; stroke-dasharray: none; stroke-linecap: round; stroke-dashoffset: 0; stroke-linejoin: round; stroke-miterlimit: 4; fill: rgb(255,255,255); fill-opacity: 0; fill-rule: nonzero; opacity: 1;" vector-effect="non-scaling-stroke"  transform=" translate(-685, -440)" d="M 625 495 Q 700 455 745 385" stroke-linecap="round" /></g><g transform="matrix(1 0 0 1 685 432.5)"  ><path style="stroke: rgb(17,24,39); stroke-width: 1.5; stroke-dasharray: none; stroke-linecap: round; stroke-dashoffset: 0; stroke-linejoin: round; stroke-miterlimit: 4; fill: rgb(255,255,255); fill-opacity: 0; fill-rule: nonzero; opacity: 1;" vector-effect="non-scaling-stroke"  transform=" translate(-685, -432.5)" d="M 625 495 Q 700 440 745 370" stroke-linecap="round" /></g><g transform="matrix(1 0 0 1 765.5 405)" style=""  ><text xml:space="preserve" font-family="Arial" font-size="18" font-style="normal" font-weight="normal" style="stroke: none; stroke-width: 1; stroke-dasharray: none; stroke-linecap: butt; stroke-dashoffset: 0; stroke-linejoin: miter; stroke-miterlimit: 4; fill: rgb(17,24,39); fill-rule: nonzero; opacity: 1; text-decoration-thickness: 6.6667%; white-space: pre;" ><tspan x="-15" y="5.6545" >T1</tspan></text></g><g transform="matrix(1 0 0 1 765.5 390)" style=""  ><text xml:space="preserve" font-family="Arial" font-size="18" font-style="normal" font-weight="normal" style="stroke: none; stroke-width: 1; stroke-dasharray: none; stroke-linecap: butt; stroke-dashoffset: 0; stroke-linejoin: miter; stroke-miterlimit: 4; fill: rgb(17,24,39); fill-rule: nonzero; opacity: 1; text-decoration-thickness: 6.6667%; white-space: pre;" ><tspan x="-15" y="5.6545" >T2</tspan></text></g><g transform="matrix(1 0 0 1 765.5 375)" style=""  ><text xml:space="preserve" font-family="Arial" font-size="18" font-style="normal" font-weight="normal" style="stroke: none; stroke-width: 1; stroke-dasharray: none; stroke-linecap: butt; stroke-dashoffset: 0; stroke-linejoin: miter; stroke-miterlimit: 4; fill: rgb(17,24,39); fill-rule: nonzero; opacity: 1; text-decoration-thickness: 6.6667%; white-space: pre;" ><tspan x="-15" y="5.6545" >T3</tspan></text></g></svg>