<svg xmlns="http://www.w3.org/2000/svg" xmlns:xlink="http://www.w3.org/1999/xlink" version="1.1" width="576" height="419" viewBox="212 126 576 419" xml:space="preserve"><defs></defs><g transform="matrix(1 0 0 1 340 180)"  ><path style="stroke: rgb(17,24,39); stroke-width: 1.5; stroke-dasharray: none; stroke-linecap: round; stroke-dashoffset: 0; stroke-linejoin: round; stroke-miterlimit: 4; fill: rgb(255,255,255); fill-opacity: 0; fill-rule: nonzero; opacity: 1;" vector-effect="non-scaling-stroke"  transform=" translate(-340, -180)" d="M 260 180 L 420 180" stroke-linecap="round" /></g><g transform="matrix(1 0 0 1 452 180)"  ><g style=""   ><g transform="matrix(1 0 0 1 0 0)"  ><rect style="stroke: none; stroke-width: 0; stroke-dasharray: none; stroke-linecap: butt; stroke-dashoffset: 0; stroke-linejoin: miter; stroke-miterlimit: 4; fill: rgb(0,0,0); fill-opacity: 0; fill-rule: nonzero; opacity: 1;"  x="-35.5" y="-21.5" rx="0" ry="0" width="71" height="43" /></g><g transform="matrix(1 0 0 1 0 0)"  ><path style="stroke: rgb(17,24,39); stroke-width: 1.5; stroke-dasharray: none; stroke-linecap: round; stroke-dashoffset: 0; stroke-linejoin: round; stroke-miterlimit: 4; fill: rgb(255,255,255); fill-opacity: 0; fill-rule: nonzero; opacity: 1;" vector-effect="non-scaling-stroke"  transform=" translate(0, 0)" d="M -32 0 L -22 0 L -18 -10 L -10 10 L -2 -10 L 6 10 L 14 -10 L 18 0 L 32 0" stroke-linecap="round" /></g></g></g><g transform="matrix(1 0 0 1 564 180)"  ><path style="stroke: rgb(17,24,39); stroke-width: 1.5; stroke-dasharray: none; stroke-linecap: round; stroke-dashoffset: 0; stroke-linejoin: round; stroke-miterlimit: 4; fill: rgb(255,255,255); fill-opacity: 0; fill-rule: nonzero; opacity: 1;" vector-effect="non-scaling-stroke"  transform=" translate(-564, -180)" d="M 484 180 L 644 180" stroke-linecap="round" /></g><g transform="matrix(1 0 0 1 676 180)"  ><g style=""   ><g transform="matrix(1 0 0 1 0 0)"  ><rect style="stroke: none; stroke-width: 0; stroke-dasharray: none; stroke-linecap: butt; stroke-dashoffset: 0; stroke-linejoin: miter; stroke-miterlimit: 4; fill: rgb(0,0,0); fill-opacity: 0; fill-rule: nonzero; opacity: 1;"  x="-35.5" y="-21.5" rx="0" ry="0" width="71" height="43" /></g><g transform="matrix(1 0 0 1 0 0)"  ><path style="stroke: rgb(17,24,39); stroke-width: 1.5; stroke-dasharray: none; stroke-linecap: round; stroke-dashoffset: 0; stroke-linejoin: round; stroke-miterlimit: 4; fill: rgb(255,255,255); fill-opacity: 0; fill-rule: nonzero; opacity: 1;" vector-effect="non-scaling-stroke"  transform=" translate(0, 0)" d="M -32 0 L -22 0 L -18 -10 L -10 10 L -2 -10 L 6 10 L 14 -10 L 18 0 L 32 0" stroke-linecap="round" /></g></g></g><g transform="matrix(1 0 0 1 724 180)"  ><path style="stroke: rgb(17,24,39); stroke-width: 1.5; stroke-dasharray: none; stroke-linecap: round; stroke-dashoffset: 0; stroke-linejoin: round; stroke-miterlimit: 4; fill: rgb(255,255,255); fill-opacity: 0; fill-rule: nonzero; opacity: 1;" vector-effect="non-scaling-stroke"  transform=" translate(-724, -180)" d="M 708 180 L 740 180" stroke-linecap="round" /></g><g transform="matrix(1 0 0 1 340 299.6389)"  ><path style="stroke: rgb(17,24,39); stroke-width: 1.5; stroke-dasharray: none; stroke-linecap: round; stroke-dashoffset: 0; stroke-linejoin: round; stroke-miterlimit: 4; fill: rgb(255,255,255); fill-opacity: 0; fill-rule: nonzero; opacity: 1;" vector-effect="non-scaling-stroke"  transform=" translate(-340, -420)" d="M 260 420 L 420 420" stroke-linecap="round" /></g><g transform="matrix(1 0 0 1 452 299.6389)"  ><g style=""   ><g transform="matrix(1 0 0 1 0 0)"  ><rect style="stroke: none; stroke-width: 0; stroke-dasharray: none; stroke-linecap: butt; stroke-dashoffset: 0; stroke-linejoin: miter; stroke-miterlimit: 4; fill: rgb(0,0,0); fill-opacity: 0; fill-rule: nonzero; opacity: 1;"  x="-35.5" y="-21.5" rx="0" ry="0" width="71" height="43" /></g><g transform="matrix(1 0 0 1 0 0)"  ><path style="stroke: rgb(17,24,39); stroke-width: 1.5; stroke-dasharray: none; stroke-linecap: round; stroke-dashoffset: 0; stroke-linejoin: round; stroke-miterlimit: 4; fill: rgb(255,255,255); fill-opacity: 0; fill-rule: nonzero; opacity: 1;" vector-effect="non-scaling-stroke"  transform=" translate(0, 0)" d="M -32 0 L -22 0 L -18 -10 L -10 10 L -2 -10 L 6 10 L 14 -10 L 18 0 L 32 0" stroke-linecap="round" /></g></g></g><g transform="matrix(1 0 0 1 564 299.6389)"  ><path style="stroke: rgb(17,24,39); stroke-width: 1.5; stroke-dasharray: none; stroke-linecap: round; stroke-dashoffset: 0; stroke-linejoin: round; stroke-miterlimit: 4; fill: rgb(255,255,255); fill-opacity: 0; fill-rule: nonzero; opacity: 1;" vector-effect="non-scaling-stroke"  transform=" translate(-564, -420)" d="M 484 420 L 644 420" stroke-linecap="round" /></g><g transform="matrix(1.4568 0 0 1 692.2167 299.6389)"  ><g style=""   ><g transform="matrix(1 0 0 1 0 0)"  ><rect style="stroke: none; stroke-width: 0; stroke-dasharray: none; stroke-linecap: butt; stroke-dashoffset: 0; stroke-linejoin: miter; stroke-miterlimit: 4; fill: rgb(0,0,0); fill-opacity: 0; fill-rule: nonzero; opacity: 1;"  x="-35.5" y="-21.5" rx="0" ry="0" width="71" height="43" /></g><g transform="matrix(1 0 0 1 0 0)"  ><path style="stroke: rgb(17,24,39); stroke-width: 1.5; stroke-dasharray: none; stroke-linecap: round; stroke-dashoffset: 0; stroke-linejoin: round; stroke-miterlimit: 4; fill: rgb(255,255,255); fill-opacity: 0; fill-rule: nonzero; opacity: 1;" vector-effect="non-scaling-stroke"  transform=" translate(0, 0)" d="M -32 0 L -22 0 L -18 -10 L -10 10 L -2 -10 L 6 10 L 14 -10 L 18 0 L 32 0" stroke-linecap="round" /></g></g></g><g transform="matrix(1 0 0 1 260 240)"  ><path style="stroke: rgb(17,24,39); stroke-width: 1.5; stroke-dasharray: none; stroke-linecap: round; stroke-dashoffset: 0; stroke-linejoin: round; stroke-miterlimit: 4; fill: rgb(255,255,255); fill-opacity: 0; fill-rule: nonzero; opacity: 1;" vector-effect="non-scaling-stroke"  transform=" translate(-260, -240)" d="M 260 180 L 260 300" stroke-linecap="round" /></g><g transform="matrix(1 0 0 1 260 360)"  ><path style="stroke: rgb(17,24,39); stroke-width: 1.5; stroke-dasharray: none; stroke-linecap: round; stroke-dashoffset: 0; stroke-linejoin: round; stroke-miterlimit: 4; fill: rgb(255,255,255); fill-opacity: 0; fill-rule: nonzero; opacity: 1;" vector-effect="non-scaling-stroke"  transform=" translate(-260, -360)" d="M 260 300 L 260 420" stroke-linecap="round" /></g><g transform="matrix(1 0 0 1 740 240)"  ><path style="stroke: rgb(17,24,39); stroke-width: 1.5; stroke-dasharray: none; stroke-linecap: round; stroke-dashoffset: 0; stroke-linejoin: round; stroke-miterlimit: 4; fill: rgb(255,255,255); fill-opacity: 0; fill-rule: nonzero; opacity: 1;" vector-effect="non-scaling-stroke"  transform=" translate(-740, -240)" d="M 740 180 L 740 300" stroke-linecap="round" /></g><g transform="matrix(1 0 0 1 740 360)"  ><path style="stroke: rgb(17,24,39); stroke-width: 1.5; stroke-dasharray: none; stroke-linecap: round; stroke-dashoffset: 0; stroke-linejoin: round; stroke-miterlimit: 4; fill: rgb(255,255,255); fill-opacity: 0; fill-rule: nonzero; opacity: 1;" vector-effect="non-scaling-stroke"  transform=" translate(-740, -360)" d="M 740 300 L 740 420" stroke-linecap="round" /></g><g transform="matrix(1 0 0 1 500 240)"  ><path style="stroke: rgb(17,24,39); stroke-width: 1.5; stroke-dasharray: none; stroke-linecap: round; stroke-dashoffset: 0; stroke-linejoin: round; stroke-miterlimit: 4; fill: rgb(255,255,255); fill-opacity: 0; fill-rule: nonzero; opacity: 1;" vector-effect="non-scaling-stroke"  transform=" translate(-500, -240)" d="M 500 180 L 500 300" stroke-linecap="round" /></g><g transform="matrix(1 0 0 1 500 480)"  ><g style=""   ><g transform="matrix(1 0 0 1 0 0)"  ><rect style="stroke: none; stroke-width: 0; stroke-dasharray: none; stroke-linecap: butt; stroke-dashoffset: 0; stroke-linejoin: miter; stroke-miterlimit: 4; fill: rgb(0,0,0); fill-opacity: 0; fill-rule: nonzero; opacity: 1;"  x="-35.5" y="-21.5" rx="0" ry="0" width="71" height="43" /></g><g transform="matrix(1 0 0 1 -18.5 0)"  ><line style="stroke: rgb(17,24,39); stroke-width: 1.5; stroke-dasharray: none; stroke-linecap: round; stroke-dashoffset: 0; stroke-linejoin: round; stroke-miterlimit: 4; fill: rgb(255,255,255); fill-opacity: 0; fill-rule: nonzero; opacity: 1;" vector-effect="non-scaling-stroke"  x1="-13.5" y1="0" x2="13.5" y2="0" /></g><g transform="matrix(1 0 0 1 18.5 0)"  ><line style="stroke: rgb(17,24,39); stroke-width: 1.5; stroke-dasharray: none; stroke-linecap: round; stroke-dashoffset: 0; stroke-linejoin: round; stroke-miterlimit: 4; fill: rgb(255,255,255); fill-opacity: 0; fill-rule: nonzero; opacity: 1;" vector-effect="non-scaling-stroke"  x1="-13.5" y1="0" x2="13.5" y2="0" /></g><g transform="matrix(1 0 0 1 -5 0)"  ><line style="stroke: rgb(17,24,39); stroke-width: 1.5; stroke-dasharray: none; stroke-linecap: round; stroke-dashoffset: 0; stroke-linejoin: round; stroke-miterlimit: 4; fill: rgb(255,255,255); fill-opacity: 0; fill-rule: nonzero; opacity: 1;" vector-effect="non-scaling-stroke"  x1="0" y1="-15" x2="0" y2="15" /></g><g transform="matrix(1 0 0 1 5 0)"  ><line style="stroke: rgb(17,24,39); stroke-width: 1.5; stroke-dasharray: none; stroke-linecap: round; stroke-dashoffset: 0; stroke-linejoin: round; stroke-miterlimit: 4; fill: rgb(255,255,255); fill-opacity: 0; fill-rule: nonzero; opacity: 1;" vector-effect="non-scaling-stroke"  x1="0" y1="-9" x2="0" y2="9" /></g></g></g><g transform="matrix(1 0 0 1 260 450)"  ><path style="stroke: rgb(17,24,39); stroke-width: 1.5; stroke-dasharray: none; stroke-linecap: round; stroke-dashoffset: 0; stroke-linejoin: round; stroke-miterlimit: 4; fill: rgb(255,255,255); fill-opacity: 0; fill-rule: nonzero; opacity: 1;" vector-effect="non-scaling-stroke"  transform=" translate(-260, -450)" d="M 260 420 L 260 480" stroke-linecap="round" /></g><g transform="matrix(1 0 0 1 364 480)"  ><path style="stroke: rgb(17,24,39); stroke-width: 1.5; stroke-dasharray: none; stroke-linecap: round; stroke-dashoffset: 0; stroke-linejoin: round; stroke-miterlimit: 4; fill: rgb(255,255,255); fill-opacity: 0; fill-rule: nonzero; opacity: 1;" vector-effect="non-scaling-stroke"  transform=" translate(-364, -480)" d="M 260 480 L 468 480" stroke-linecap="round" /></g><g transform="matrix(1 0 0 1 636 480)"  ><path style="stroke: rgb(17,24,39); stroke-width: 1.5; stroke-dasharray: none; stroke-linecap: round; stroke-dashoffset: 0; stroke-linejoin: round; stroke-miterlimit: 4; fill: rgb(255,255,255); fill-opacity: 0; fill-rule: nonzero; opacity: 1;" vector-effect="non-scaling-stroke"  transform=" translate(-636, -480)" d="M 532 480 L 740 480" stroke-linecap="round" /></g><g transform="matrix(1 0 0 1 740 450)"  ><path style="stroke: rgb(17,24,39); stroke-width: 1.5; stroke-dasharray: none; stroke-linecap: round; stroke-dashoffset: 0; stroke-linejoin: round; stroke-miterlimit: 4; fill: rgb(255,255,255); fill-opacity: 0; fill-rule: nonzero; opacity: 1;" vector-effect="non-scaling-stroke"  transform=" translate(-740, -450)" d="M 740 420 L 740 480" stroke-linecap="round" /></g><g transform="matrix(1 0 0 1 240 170)" style=""  ><text xml:space="preserve" font-family="Arial" font-size="22" font-style="normal" font-weight="normal" style="stroke: none; stroke-width: 1; stroke-dasharray: none; stroke-linecap: butt; stroke-dashoffset: 0; stroke-linejoin: miter; stroke-miterlimit: 4; fill: rgb(17,24,39); fill-rule: nonzero; opacity: 1; text-decoration-thickness: 6.6667%; white-space: pre;" ><tspan x="-7.3369" y="6.9111" >A</tspan></text></g><g transform="matrix(1 0 0 1 760 170)" style=""  ><text xml:space="preserve" font-family="Arial" font-size="22" font-style="normal" font-weight="normal" style="stroke: none; stroke-width: 1; stroke-dasharray: none; stroke-linecap: butt; stroke-dashoffset: 0; stroke-linejoin: miter; stroke-miterlimit: 4; fill: rgb(17,24,39); fill-rule: nonzero; opacity: 1; text-decoration-thickness: 6.6667%; white-space: pre;" ><tspan x="-7.3369" y="6.9111" >B</tspan></text></g><g transform="matrix(1 0 0 1 510.5077 166.6867)" style=""  ><text xml:space="preserve" font-family="Arial" font-size="22" font-style="normal" font-weight="normal" style="stroke: none; stroke-width: 1; stroke-dasharray: none; stroke-linecap: butt; stroke-dashoffset: 0; stroke-linejoin: miter; stroke-miterlimit: 4; fill: rgb(17,24,39); fill-rule: nonzero; opacity: 1; text-decoration-thickness: 6.6667%; white-space: pre;" ><tspan x="-7.9438" y="6.9111" >C</tspan></text></g><g transform="matrix(1 0 0 1 507.642 319.6389)" style=""  ><text xml:space="preserve" font-family="Arial" font-size="22" font-style="normal" font-weight="normal" style="stroke: none; stroke-width: 1; stroke-dasharray: none; stroke-linecap: butt; stroke-dashoffset: 0; stroke-linejoin: miter; stroke-miterlimit: 4; fill: rgb(17,24,39); fill-rule: nonzero; opacity: 1; text-decoration-thickness: 6.6667%; white-space: pre;" ><tspan x="-7.9438" y="6.9111" >D</tspan></text></g><g transform="matrix(1 0 0 1 452 150)" style=""  ><text xml:space="preserve" font-family="Arial" font-size="20" font-style="normal" font-weight="normal" style="stroke: none; stroke-width: 1; stroke-dasharray: none; stroke-linecap: butt; stroke-dashoffset: 0; stroke-linejoin: miter; stroke-miterlimit: 4; fill: rgb(17,24,39); fill-rule: nonzero; opacity: 1; text-decoration-thickness: 6.6667%; white-space: pre;" ><tspan x="-13.0371" y="6.2828" >1Ω</tspan></text></g><g transform="matrix(1 0 0 1 676 150)" style=""  ><text xml:space="preserve" font-family="Arial" font-size="20" font-style="normal" font-weight="normal" style="stroke: none; stroke-width: 1; stroke-dasharray: none; stroke-linecap: butt; stroke-dashoffset: 0; stroke-linejoin: miter; stroke-miterlimit: 4; fill: rgb(17,24,39); fill-rule: nonzero; opacity: 1; text-decoration-thickness: 6.6667%; white-space: pre;" ><tspan x="-13.0371" y="6.2828" >2Ω</tspan></text></g><g transform="matrix(1 0 0 1 441.4923 328.6837)" style=""  ><text xml:space="preserve" font-family="Arial" font-size="20" font-style="normal" font-weight="normal" style="stroke: none; stroke-width: 1; stroke-dasharray: none; stroke-linecap: butt; stroke-dashoffset: 0; stroke-linejoin: miter; stroke-miterlimit: 4; fill: rgb(17,24,39); fill-rule: nonzero; opacity: 1; text-decoration-thickness: 6.6667%; white-space: pre;" ><tspan x="-13.0371" y="6.2828" >3Ω</tspan></text></g><g transform="matrix(1 0 0 1 696.0602 330.5942)" style=""  ><text xml:space="preserve" font-family="Arial" font-size="20" font-style="normal" font-weight="normal" style="stroke: none; stroke-width: 1; stroke-dasharray: none; stroke-linecap: butt; stroke-dashoffset: 0; stroke-linejoin: miter; stroke-miterlimit: 4; fill: rgb(17,24,39); fill-rule: nonzero; opacity: 1; text-decoration-thickness: 6.6667%; white-space: pre;" ><tspan x="-13.0371" y="6.2828" >4Ω</tspan></text></g><g transform="matrix(1 0 0 1 500 520)" style=""  ><text xml:space="preserve" font-family="Arial" font-size="22" font-style="normal" font-weight="normal" style="stroke: none; stroke-width: 1; stroke-dasharray: none; stroke-linecap: butt; stroke-dashoffset: 0; stroke-linejoin: miter; stroke-miterlimit: 4; fill: rgb(17,24,39); fill-rule: nonzero; opacity: 1; text-decoration-thickness: 6.6667%; white-space: pre;" ><tspan x="-22.6284" y="6.9111" >50 V</tspan></text></g></svg>