<svg xmlns="http://www.w3.org/2000/svg" xmlns:xlink="http://www.w3.org/1999/xlink" version="1.1" width="708" height="340" viewBox="97 135 708 340" xml:space="preserve"><defs></defs><g transform="matrix(0 1 -1 0 180 300)"  ><g style=""   ><g transform="matrix(1 0 0 1 0 0)"  ><rect style="stroke: none; stroke-width: 0; stroke-dasharray: none; stroke-linecap: butt; stroke-dashoffset: 0; stroke-linejoin: miter; stroke-miterlimit: 4; fill: rgb(0,0,0); fill-opacity: 0; fill-rule: nonzero; opacity: 1;"  x="-35.5" y="-21.5" rx="0" ry="0" width="71" height="43" /></g><g transform="matrix(1 0 0 1 -18.5 0)"  ><line style="stroke: rgb(17,24,39); stroke-width: 1.5; stroke-dasharray: none; stroke-linecap: round; stroke-dashoffset: 0; stroke-linejoin: round; stroke-miterlimit: 4; fill: rgb(255,255,255); fill-opacity: 0; fill-rule: nonzero; opacity: 1;" vector-effect="non-scaling-stroke"  x1="-13.5" y1="0" x2="13.5" y2="0" /></g><g transform="matrix(1 0 0 1 18.5 0)"  ><line style="stroke: rgb(17,24,39); stroke-width: 1.5; stroke-dasharray: none; stroke-linecap: round; stroke-dashoffset: 0; stroke-linejoin: round; stroke-miterlimit: 4; fill: rgb(255,255,255); fill-opacity: 0; fill-rule: nonzero; opacity: 1;" vector-effect="non-scaling-stroke"  x1="-13.5" y1="0" x2="13.5" y2="0" /></g><g transform="matrix(1 0 0 1 -5 0)"  ><line style="stroke: rgb(17,24,39); stroke-width: 1.5; stroke-dasharray: none; stroke-linecap: round; stroke-dashoffset: 0; stroke-linejoin: round; stroke-miterlimit: 4; fill: rgb(255,255,255); fill-opacity: 0; fill-rule: nonzero; opacity: 1;" vector-effect="non-scaling-stroke"  x1="0" y1="-15" x2="0" y2="15" /></g><g transform="matrix(1 0 0 1 5 0)"  ><line style="stroke: rgb(17,24,39); stroke-width: 1.5; stroke-dasharray: none; stroke-linecap: round; stroke-dashoffset: 0; stroke-linejoin: round; stroke-miterlimit: 4; fill: rgb(255,255,255); fill-opacity: 0; fill-rule: nonzero; opacity: 1;" vector-effect="non-scaling-stroke"  x1="0" y1="-9" x2="0" y2="9" /></g></g></g><g transform="matrix(1 0 0 1 140 300)" style=""  ><text xml:space="preserve" font-family="Arial" font-size="22" font-style="normal" font-weight="normal" style="stroke: none; stroke-width: 1; stroke-dasharray: none; stroke-linecap: butt; stroke-dashoffset: 0; stroke-linejoin: miter; stroke-miterlimit: 4; fill: rgb(17,24,39); fill-rule: nonzero; opacity: 1; text-decoration-thickness: 6.6667%; white-space: pre;" ><tspan x="-19.5723" y="6.9111" >20V</tspan></text></g><g transform="matrix(1 0 0 1 180 234)"  ><path style="stroke: rgb(17,24,39); stroke-width: 1.5; stroke-dasharray: none; stroke-linecap: round; stroke-dashoffset: 0; stroke-linejoin: round; stroke-miterlimit: 4; fill: rgb(255,255,255); fill-opacity: 0; fill-rule: nonzero; opacity: 1;" vector-effect="non-scaling-stroke"  transform=" translate(-180, -234)" d="M 180 268 L 180 200" stroke-linecap="round" /></g><g transform="matrix(1 0 0 1 250 200)"  ><path style="stroke: rgb(17,24,39); stroke-width: 1.5; stroke-dasharray: none; stroke-linecap: round; stroke-dashoffset: 0; stroke-linejoin: round; stroke-miterlimit: 4; fill: rgb(255,255,255); fill-opacity: 0; fill-rule: nonzero; opacity: 1;" vector-effect="non-scaling-stroke"  transform=" translate(-250, -200)" d="M 180 200 L 320 200" stroke-linecap="round" /></g><g transform="matrix(1 0 0 1 352 200)"  ><g style=""   ><g transform="matrix(1 0 0 1 0 0)"  ><rect style="stroke: none; stroke-width: 0; stroke-dasharray: none; stroke-linecap: butt; stroke-dashoffset: 0; stroke-linejoin: miter; stroke-miterlimit: 4; fill: rgb(0,0,0); fill-opacity: 0; fill-rule: nonzero; opacity: 1;"  x="-35.5" y="-21.5" rx="0" ry="0" width="71" height="43" /></g><g transform="matrix(1 0 0 1 0 0)"  ><path style="stroke: rgb(17,24,39); stroke-width: 1.5; stroke-dasharray: none; stroke-linecap: round; stroke-dashoffset: 0; stroke-linejoin: round; stroke-miterlimit: 4; fill: rgb(255,255,255); fill-opacity: 0; fill-rule: nonzero; opacity: 1;" vector-effect="non-scaling-stroke"  transform=" translate(0, 0)" d="M -32 0 L -22 0 L -18 -10 L -10 10 L -2 -10 L 6 10 L 14 -10 L 18 0 L 32 0" stroke-linecap="round" /></g></g></g><g transform="matrix(1 0 0 1 352 160)" style=""  ><text xml:space="preserve" font-family="Arial" font-size="22" font-style="normal" font-weight="normal" style="stroke: none; stroke-width: 1; stroke-dasharray: none; stroke-linecap: butt; stroke-dashoffset: 0; stroke-linejoin: miter; stroke-miterlimit: 4; fill: rgb(17,24,39); fill-rule: nonzero; opacity: 1; text-decoration-thickness: 6.6667%; white-space: pre;" ><tspan x="-29.0146" y="6.9111" >2.5kΩ</tspan></text></g><g transform="matrix(1 0 0 1 442 200)"  ><path style="stroke: rgb(17,24,39); stroke-width: 1.5; stroke-dasharray: none; stroke-linecap: round; stroke-dashoffset: 0; stroke-linejoin: round; stroke-miterlimit: 4; fill: rgb(255,255,255); fill-opacity: 0; fill-rule: nonzero; opacity: 1;" vector-effect="non-scaling-stroke"  transform=" translate(-442, -200)" d="M 384 200 L 500 200" stroke-linecap="round" /></g><g transform="matrix(1 0 0 1 532 200)"  ><g style=""   ><g transform="matrix(1 0 0 1 0 0)"  ><rect style="stroke: none; stroke-width: 0; stroke-dasharray: none; stroke-linecap: butt; stroke-dashoffset: 0; stroke-linejoin: miter; stroke-miterlimit: 4; fill: rgb(0,0,0); fill-opacity: 0; fill-rule: nonzero; opacity: 1;"  x="-35.5" y="-21.5" rx="0" ry="0" width="71" height="43" /></g><g transform="matrix(1 0 0 1 -22.5 0)"  ><line style="stroke: rgb(17,24,39); stroke-width: 1.5; stroke-dasharray: none; stroke-linecap: round; stroke-dashoffset: 0; stroke-linejoin: round; stroke-miterlimit: 4; fill: rgb(255,255,255); fill-opacity: 0; fill-rule: nonzero; opacity: 1;" vector-effect="non-scaling-stroke"  x1="-9.5" y1="0" x2="9.5" y2="0" /></g><g transform="matrix(1 0 0 1 0 0)"  ><path style="stroke: rgb(17,24,39); stroke-width: 1.5; stroke-dasharray: none; stroke-linecap: round; stroke-dashoffset: 0; stroke-linejoin: round; stroke-miterlimit: 4; fill: rgb(255,255,255); fill-opacity: 0; fill-rule: nonzero; opacity: 1;" vector-effect="non-scaling-stroke"  transform=" translate(0, 0)" d="M -13 -14 L 13 0 L -13 14 Z" stroke-linecap="round" /></g><g transform="matrix(1 0 0 1 13 0)"  ><line style="stroke: rgb(17,24,39); stroke-width: 1.5; stroke-dasharray: none; stroke-linecap: round; stroke-dashoffset: 0; stroke-linejoin: round; stroke-miterlimit: 4; fill: rgb(255,255,255); fill-opacity: 0; fill-rule: nonzero; opacity: 1;" vector-effect="non-scaling-stroke"  x1="0" y1="-16" x2="0" y2="16" /></g><g transform="matrix(1 0 0 1 22.5 0)"  ><line style="stroke: rgb(17,24,39); stroke-width: 1.5; stroke-dasharray: none; stroke-linecap: round; stroke-dashoffset: 0; stroke-linejoin: round; stroke-miterlimit: 4; fill: rgb(255,255,255); fill-opacity: 0; fill-rule: nonzero; opacity: 1;" vector-effect="non-scaling-stroke"  x1="-9.5" y1="0" x2="9.5" y2="0" /></g></g></g><g transform="matrix(1 0 0 1 632 200)"  ><path style="stroke: rgb(17,24,39); stroke-width: 1.5; stroke-dasharray: none; stroke-linecap: round; stroke-dashoffset: 0; stroke-linejoin: round; stroke-miterlimit: 4; fill: rgb(255,255,255); fill-opacity: 0; fill-rule: nonzero; opacity: 1;" vector-effect="non-scaling-stroke"  transform=" translate(-632, -200)" d="M 564 200 L 700 200" stroke-linecap="round" /></g><g transform="matrix(1 0 0 1 700 200)"  ><ellipse style="stroke: rgb(17,24,39); stroke-width: 1.5; stroke-dasharray: none; stroke-linecap: butt; stroke-dashoffset: 0; stroke-linejoin: miter; stroke-miterlimit: 4; fill: rgb(17,24,39); fill-rule: nonzero; opacity: 1;" vector-effect="non-scaling-stroke"  cx="0" cy="0" rx="5" ry="5" /></g><g transform="matrix(1 0 0 1 735.5 190)" style=""  ><text xml:space="preserve" font-family="Arial" font-size="22" font-style="normal" font-weight="normal" style="stroke: none; stroke-width: 1; stroke-dasharray: none; stroke-linecap: butt; stroke-dashoffset: 0; stroke-linejoin: miter; stroke-miterlimit: 4; fill: rgb(17,24,39); fill-rule: nonzero; opacity: 1; text-decoration-thickness: 6.6667%; white-space: pre;" ><tspan x="-15" y="6.9111" >C</tspan></text></g><g transform="matrix(1 0 0 1 700 250)"  ><path style="stroke: rgb(17,24,39); stroke-width: 1.5; stroke-dasharray: none; stroke-linecap: round; stroke-dashoffset: 0; stroke-linejoin: round; stroke-miterlimit: 4; fill: rgb(255,255,255); fill-opacity: 0; fill-rule: nonzero; opacity: 1;" vector-effect="non-scaling-stroke"  transform=" translate(-700, -250)" d="M 700 200 L 700 300" stroke-linecap="round" /></g><g transform="matrix(0 1 -1 0 700 332)"  ><g style=""   ><g transform="matrix(1 0 0 1 0 0)"  ><rect style="stroke: none; stroke-width: 0; stroke-dasharray: none; stroke-linecap: butt; stroke-dashoffset: 0; stroke-linejoin: miter; stroke-miterlimit: 4; fill: rgb(0,0,0); fill-opacity: 0; fill-rule: nonzero; opacity: 1;"  x="-35.5" y="-21.5" rx="0" ry="0" width="71" height="43" /></g><g transform="matrix(1 0 0 1 0 0)"  ><path style="stroke: rgb(17,24,39); stroke-width: 1.5; stroke-dasharray: none; stroke-linecap: round; stroke-dashoffset: 0; stroke-linejoin: round; stroke-miterlimit: 4; fill: rgb(255,255,255); fill-opacity: 0; fill-rule: nonzero; opacity: 1;" vector-effect="non-scaling-stroke"  transform=" translate(0, 0)" d="M -32 0 L -22 0 L -18 -10 L -10 10 L -2 -10 L 6 10 L 14 -10 L 18 0 L 32 0" stroke-linecap="round" /></g></g></g><g transform="matrix(1 0 0 1 761.9051 331.2186)" style=""  ><text xml:space="preserve" font-family="Arial" font-size="22" font-style="normal" font-weight="normal" style="stroke: none; stroke-width: 1; stroke-dasharray: none; stroke-linecap: butt; stroke-dashoffset: 0; stroke-linejoin: miter; stroke-miterlimit: 4; fill: rgb(17,24,39); fill-rule: nonzero; opacity: 1; text-decoration-thickness: 6.6667%; white-space: pre;" ><tspan x="-30" y="6.9111" >5kΩ</tspan></text></g><g transform="matrix(1 0 0 1 700 402)"  ><path style="stroke: rgb(17,24,39); stroke-width: 1.5; stroke-dasharray: none; stroke-linecap: round; stroke-dashoffset: 0; stroke-linejoin: round; stroke-miterlimit: 4; fill: rgb(255,255,255); fill-opacity: 0; fill-rule: nonzero; opacity: 1;" vector-effect="non-scaling-stroke"  transform=" translate(-700, -402)" d="M 700 364 L 700 440" stroke-linecap="round" /></g><g transform="matrix(1 0 0 1 600 440)"  ><path style="stroke: rgb(17,24,39); stroke-width: 1.5; stroke-dasharray: none; stroke-linecap: round; stroke-dashoffset: 0; stroke-linejoin: round; stroke-miterlimit: 4; fill: rgb(255,255,255); fill-opacity: 0; fill-rule: nonzero; opacity: 1;" vector-effect="non-scaling-stroke"  transform=" translate(-600, -440)" d="M 700 440 L 500 440" stroke-linecap="round" /></g><g transform="matrix(1 0 0 1 500 370)"  ><path style="stroke: rgb(17,24,39); stroke-width: 1.5; stroke-dasharray: none; stroke-linecap: round; stroke-dashoffset: 0; stroke-linejoin: round; stroke-miterlimit: 4; fill: rgb(255,255,255); fill-opacity: 0; fill-rule: nonzero; opacity: 1;" vector-effect="non-scaling-stroke"  transform=" translate(-500, -370)" d="M 500 440 L 500 300" stroke-linecap="round" /></g><g transform="matrix(0 1 -1 0 500 268)"  ><g style=""   ><g transform="matrix(1 0 0 1 0 0)"  ><rect style="stroke: none; stroke-width: 0; stroke-dasharray: none; stroke-linecap: butt; stroke-dashoffset: 0; stroke-linejoin: miter; stroke-miterlimit: 4; fill: rgb(0,0,0); fill-opacity: 0; fill-rule: nonzero; opacity: 1;"  x="-35.5" y="-21.5" rx="0" ry="0" width="71" height="43" /></g><g transform="matrix(1 0 0 1 0 0)"  ><path style="stroke: rgb(17,24,39); stroke-width: 1.5; stroke-dasharray: none; stroke-linecap: round; stroke-dashoffset: 0; stroke-linejoin: round; stroke-miterlimit: 4; fill: rgb(255,255,255); fill-opacity: 0; fill-rule: nonzero; opacity: 1;" vector-effect="non-scaling-stroke"  transform=" translate(0, 0)" d="M -32 0 L -22 0 L -18 -10 L -10 10 L -2 -10 L 6 10 L 14 -10 L 18 0 L 32 0" stroke-linecap="round" /></g></g></g><g transform="matrix(1 0 0 1 565.8119 274.2508)" style=""  ><text xml:space="preserve" font-family="Arial" font-size="22" font-style="normal" font-weight="normal" style="stroke: none; stroke-width: 1; stroke-dasharray: none; stroke-linecap: butt; stroke-dashoffset: 0; stroke-linejoin: miter; stroke-miterlimit: 4; fill: rgb(17,24,39); fill-rule: nonzero; opacity: 1; text-decoration-thickness: 6.6667%; white-space: pre;" ><tspan x="-30" y="6.9111" >5kΩ</tspan></text></g><g transform="matrix(1 0 0 1 500 218)"  ><path style="stroke: rgb(17,24,39); stroke-width: 1.5; stroke-dasharray: none; stroke-linecap: round; stroke-dashoffset: 0; stroke-linejoin: round; stroke-miterlimit: 4; fill: rgb(255,255,255); fill-opacity: 0; fill-rule: nonzero; opacity: 1;" vector-effect="non-scaling-stroke"  transform=" translate(-500, -218)" d="M 500 236 L 500 200" stroke-linecap="round" /></g><g transform="matrix(1 0 0 1 500 200)"  ><ellipse style="stroke: rgb(17,24,39); stroke-width: 1.5; stroke-dasharray: none; stroke-linecap: butt; stroke-dashoffset: 0; stroke-linejoin: miter; stroke-miterlimit: 4; fill: rgb(17,24,39); fill-rule: nonzero; opacity: 1;" vector-effect="non-scaling-stroke"  cx="0" cy="0" rx="5" ry="5" /></g><g transform="matrix(1 0 0 1 709.0644 449.4102)" style=""  ><text xml:space="preserve" font-family="Arial" font-size="22" font-style="normal" font-weight="normal" style="stroke: none; stroke-width: 1; stroke-dasharray: none; stroke-linecap: butt; stroke-dashoffset: 0; stroke-linejoin: miter; stroke-miterlimit: 4; fill: rgb(17,24,39); fill-rule: nonzero; opacity: 1; text-decoration-thickness: 6.6667%; white-space: pre;" ><tspan x="-0.8877" y="6.9111" >D</tspan></text></g><g transform="matrix(1 0 0 1 180 386)"  ><path style="stroke: rgb(17,24,39); stroke-width: 1.5; stroke-dasharray: none; stroke-linecap: round; stroke-dashoffset: 0; stroke-linejoin: round; stroke-miterlimit: 4; fill: rgb(255,255,255); fill-opacity: 0; fill-rule: nonzero; opacity: 1;" vector-effect="non-scaling-stroke"  transform=" translate(-180, -386)" d="M 180 332 L 180 440" stroke-linecap="round" /></g><g transform="matrix(1 0 0 1 260 440)"  ><path style="stroke: rgb(17,24,39); stroke-width: 1.5; stroke-dasharray: none; stroke-linecap: round; stroke-dashoffset: 0; stroke-linejoin: round; stroke-miterlimit: 4; fill: rgb(255,255,255); fill-opacity: 0; fill-rule: nonzero; opacity: 1;" vector-effect="non-scaling-stroke"  transform=" translate(-260, -440)" d="M 180 440 L 340 440" stroke-linecap="round" /></g><g transform="matrix(1 0 0 1 420 440)"  ><path style="stroke: rgb(17,24,39); stroke-width: 1.5; stroke-dasharray: none; stroke-linecap: round; stroke-dashoffset: 0; stroke-linejoin: round; stroke-miterlimit: 4; fill: rgb(255,255,255); fill-opacity: 0; fill-rule: nonzero; opacity: 1;" vector-effect="non-scaling-stroke"  transform=" translate(-420, -440)" d="M 340 440 L 500 440" stroke-linecap="round" /></g></svg>