<svg xmlns="http://www.w3.org/2000/svg" xmlns:xlink="http://www.w3.org/1999/xlink" version="1.1" width="887" height="534" viewBox="39 107 887 534" xml:space="preserve"><defs></defs><g transform="matrix(1 0 0 1 82.4628 168.3223)" style=""  ><text xml:space="preserve" font-family="Arial" font-size="22" font-style="normal" font-weight="normal" style="stroke: none; stroke-width: 1; stroke-dasharray: none; stroke-linecap: butt; stroke-dashoffset: 0; stroke-linejoin: miter; stroke-miterlimit: 4; fill: rgb(17,24,39); fill-rule: nonzero; opacity: 1; text-decoration-thickness: 6.6667%; white-space: pre;" ><tspan x="-12.8369" y="6.9111" >F0</tspan></text></g><g transform="matrix(1 0 0 1 82.4628 288.3223)" style=""  ><text xml:space="preserve" font-family="Arial" font-size="22" font-style="normal" font-weight="normal" style="stroke: none; stroke-width: 1; stroke-dasharray: none; stroke-linecap: butt; stroke-dashoffset: 0; stroke-linejoin: miter; stroke-miterlimit: 4; fill: rgb(17,24,39); fill-rule: nonzero; opacity: 1; text-decoration-thickness: 6.6667%; white-space: pre;" ><tspan x="-12.8369" y="6.9111" >F1</tspan></text></g><g transform="matrix(1 0 0 1 82.4628 408.3223)" style=""  ><text xml:space="preserve" font-family="Arial" font-size="22" font-style="normal" font-weight="normal" style="stroke: none; stroke-width: 1; stroke-dasharray: none; stroke-linecap: butt; stroke-dashoffset: 0; stroke-linejoin: miter; stroke-miterlimit: 4; fill: rgb(17,24,39); fill-rule: nonzero; opacity: 1; text-decoration-thickness: 6.6667%; white-space: pre;" ><tspan x="-12.8369" y="6.9111" >F2</tspan></text></g><g transform="matrix(1 0 0 1 82.4628 528.3223)" style=""  ><text xml:space="preserve" font-family="Arial" font-size="22" font-style="normal" font-weight="normal" style="stroke: none; stroke-width: 1; stroke-dasharray: none; stroke-linecap: butt; stroke-dashoffset: 0; stroke-linejoin: miter; stroke-miterlimit: 4; fill: rgb(17,24,39); fill-rule: nonzero; opacity: 1; text-decoration-thickness: 6.6667%; white-space: pre;" ><tspan x="-12.8369" y="6.9111" >F3</tspan></text></g><g transform="matrix(1 0 0 1 325.75 145.75)"  ><rect style="stroke: rgb(17,24,39); stroke-width: 1.5; stroke-dasharray: none; stroke-linecap: butt; stroke-dashoffset: 0; stroke-linejoin: miter; stroke-miterlimit: 4; fill: rgb(255,255,255); fill-opacity: 0; fill-rule: nonzero; opacity: 1;" vector-effect="non-scaling-stroke"  x="-25" y="-25" rx="0" ry="0" width="50" height="50" /></g><g transform="matrix(1 0 0 1 325 185)" style=""  ><text xml:space="preserve" font-family="Arial" font-size="18" font-style="normal" font-weight="normal" style="stroke: none; stroke-width: 1; stroke-dasharray: none; stroke-linecap: butt; stroke-dashoffset: 0; stroke-linejoin: miter; stroke-miterlimit: 4; fill: rgb(17,24,39); fill-rule: nonzero; opacity: 1; text-decoration-thickness: 6.6667%; white-space: pre;" ><tspan x="-65.373" y="5.6545" >Unaffected male</tspan></text></g><g transform="matrix(1 0 0 1 500 145)"  ><ellipse style="stroke: rgb(17,24,39); stroke-width: 1.5; stroke-dasharray: none; stroke-linecap: butt; stroke-dashoffset: 0; stroke-linejoin: miter; stroke-miterlimit: 4; fill: rgb(17,24,39); fill-rule: nonzero; opacity: 1;" vector-effect="non-scaling-stroke"  cx="0" cy="0" rx="25" ry="25" /></g><g transform="matrix(1 0 0 1 500 185)" style=""  ><text xml:space="preserve" font-family="Arial" font-size="18" font-style="normal" font-weight="normal" style="stroke: none; stroke-width: 1; stroke-dasharray: none; stroke-linecap: butt; stroke-dashoffset: 0; stroke-linejoin: miter; stroke-miterlimit: 4; fill: rgb(17,24,39); fill-rule: nonzero; opacity: 1; text-decoration-thickness: 6.6667%; white-space: pre;" ><tspan x="-62.3716" y="5.6545" >Affected female</tspan></text></g><g transform="matrix(1 0 0 1 412.5 145)"  ><path style="stroke: rgb(17,24,39); stroke-width: 1.5; stroke-dasharray: none; stroke-linecap: round; stroke-dashoffset: 0; stroke-linejoin: round; stroke-miterlimit: 4; fill: rgb(255,255,255); fill-opacity: 0; fill-rule: nonzero; opacity: 1;" vector-effect="non-scaling-stroke"  transform=" translate(-412.5, -145)" d="M 350 145 L 475 145" stroke-linecap="round" /></g><g transform="matrix(1 0 0 1 425 182.5)"  ><path style="stroke: rgb(17,24,39); stroke-width: 1.5; stroke-dasharray: none; stroke-linecap: round; stroke-dashoffset: 0; stroke-linejoin: round; stroke-miterlimit: 4; fill: rgb(255,255,255); fill-opacity: 0; fill-rule: nonzero; opacity: 1;" vector-effect="non-scaling-stroke"  transform=" translate(-425, -182.5)" d="M 425 145 L 425 220" stroke-linecap="round" /></g><g transform="matrix(1 0 0 1 337.5 220)"  ><path style="stroke: rgb(17,24,39); stroke-width: 1.5; stroke-dasharray: none; stroke-linecap: round; stroke-dashoffset: 0; stroke-linejoin: round; stroke-miterlimit: 4; fill: rgb(255,255,255); fill-opacity: 0; fill-rule: nonzero; opacity: 1;" vector-effect="non-scaling-stroke"  transform=" translate(-337.5, -220)" d="M 425 220 L 394.808 219.6465" stroke-linecap="round" /></g><g transform="matrix(1 0 0 1 512.5 220)"  ><path style="stroke: rgb(17,24,39); stroke-width: 1.5; stroke-dasharray: none; stroke-linecap: round; stroke-dashoffset: 0; stroke-linejoin: round; stroke-miterlimit: 4; fill: rgb(255,255,255); fill-opacity: 0; fill-rule: nonzero; opacity: 1;" vector-effect="non-scaling-stroke"  transform=" translate(-512.5, -220)" d="M 425 220 L 600 220" stroke-linecap="round" /></g><g transform="matrix(1 0 0 1 600 235)"  ><path style="stroke: rgb(17,24,39); stroke-width: 1.5; stroke-dasharray: none; stroke-linecap: round; stroke-dashoffset: 0; stroke-linejoin: round; stroke-miterlimit: 4; fill: rgb(255,255,255); fill-opacity: 0; fill-rule: nonzero; opacity: 1;" vector-effect="non-scaling-stroke"  transform=" translate(-600, -235)" d="M 600 220 L 600 250" stroke-linecap="round" /></g><g transform="matrix(1 0 0 1 250.75 275.75)"  ><rect style="stroke: rgb(17,24,39); stroke-width: 1.5; stroke-dasharray: none; stroke-linecap: butt; stroke-dashoffset: 0; stroke-linejoin: miter; stroke-miterlimit: 4; fill: rgb(255,255,255); fill-opacity: 0; fill-rule: nonzero; opacity: 1;" vector-effect="non-scaling-stroke"  x="-25" y="-25" rx="0" ry="0" width="50" height="50" /></g><g transform="matrix(1 0 0 1 250 315)" style=""  ><text xml:space="preserve" font-family="Arial" font-size="18" font-style="normal" font-weight="normal" style="stroke: none; stroke-width: 1; stroke-dasharray: none; stroke-linecap: butt; stroke-dashoffset: 0; stroke-linejoin: miter; stroke-miterlimit: 4; fill: rgb(17,24,39); fill-rule: nonzero; opacity: 1; text-decoration-thickness: 6.6667%; white-space: pre;" ><tspan x="-65.373" y="5.6545" >Unaffected male</tspan></text></g><g transform="matrix(1 0 0 1 400 275)"  ><ellipse style="stroke: rgb(17,24,39); stroke-width: 1.5; stroke-dasharray: none; stroke-linecap: butt; stroke-dashoffset: 0; stroke-linejoin: miter; stroke-miterlimit: 4; fill: rgb(255,255,255); fill-opacity: 0; fill-rule: nonzero; opacity: 1;" vector-effect="non-scaling-stroke"  cx="0" cy="0" rx="25" ry="25" /></g><g transform="matrix(1 0 0 1 400 275)"  ><ellipse style="stroke: rgb(17,24,39); stroke-width: 1.5; stroke-dasharray: none; stroke-linecap: butt; stroke-dashoffset: 0; stroke-linejoin: miter; stroke-miterlimit: 4; fill: rgb(17,24,39); fill-rule: nonzero; opacity: 1;" vector-effect="non-scaling-stroke"  cx="0" cy="0" rx="6" ry="6" /></g><g transform="matrix(1 0 0 1 400 315)" style=""  ><text xml:space="preserve" font-family="Arial" font-size="18" font-style="normal" font-weight="normal" style="stroke: none; stroke-width: 1; stroke-dasharray: none; stroke-linecap: butt; stroke-dashoffset: 0; stroke-linejoin: miter; stroke-miterlimit: 4; fill: rgb(17,24,39); fill-rule: nonzero; opacity: 1; text-decoration-thickness: 6.6667%; white-space: pre;" ><tspan x="-57.0146" y="5.6545" >Carrier female</tspan></text></g><g transform="matrix(1 0 0 1 325 275)"  ><path style="stroke: rgb(17,24,39); stroke-width: 1.5; stroke-dasharray: none; stroke-linecap: round; stroke-dashoffset: 0; stroke-linejoin: round; stroke-miterlimit: 4; fill: rgb(255,255,255); fill-opacity: 0; fill-rule: nonzero; opacity: 1;" vector-effect="non-scaling-stroke"  transform=" translate(-325, -275)" d="M 275 275 L 375 275" stroke-linecap="round" /></g><g transform="matrix(1 0 0 1 600 275)"  ><ellipse style="stroke: rgb(17,24,39); stroke-width: 1.5; stroke-dasharray: none; stroke-linecap: butt; stroke-dashoffset: 0; stroke-linejoin: miter; stroke-miterlimit: 4; fill: rgb(255,255,255); fill-opacity: 0; fill-rule: nonzero; opacity: 1;" vector-effect="non-scaling-stroke"  cx="0" cy="0" rx="25" ry="25" /></g><g transform="matrix(1 0 0 1 600 275)"  ><ellipse style="stroke: rgb(17,24,39); stroke-width: 1.5; stroke-dasharray: none; stroke-linecap: butt; stroke-dashoffset: 0; stroke-linejoin: miter; stroke-miterlimit: 4; fill: rgb(17,24,39); fill-rule: nonzero; opacity: 1;" vector-effect="non-scaling-stroke"  cx="0" cy="0" rx="6" ry="6" /></g><g transform="matrix(1 0 0 1 600 315)" style=""  ><text xml:space="preserve" font-family="Arial" font-size="18" font-style="normal" font-weight="normal" style="stroke: none; stroke-width: 1; stroke-dasharray: none; stroke-linecap: butt; stroke-dashoffset: 0; stroke-linejoin: miter; stroke-miterlimit: 4; fill: rgb(17,24,39); fill-rule: nonzero; opacity: 1; text-decoration-thickness: 6.6667%; white-space: pre;" ><tspan x="-57.0146" y="5.6545" >Carrier female</tspan></text></g><g transform="matrix(1 0 0 1 750.75 275.75)"  ><rect style="stroke: rgb(17,24,39); stroke-width: 1.5; stroke-dasharray: none; stroke-linecap: butt; stroke-dashoffset: 0; stroke-linejoin: miter; stroke-miterlimit: 4; fill: rgb(255,255,255); fill-opacity: 0; fill-rule: nonzero; opacity: 1;" vector-effect="non-scaling-stroke"  x="-25" y="-25" rx="0" ry="0" width="50" height="50" /></g><g transform="matrix(1 0 0 1 750 315)" style=""  ><text xml:space="preserve" font-family="Arial" font-size="18" font-style="normal" font-weight="normal" style="stroke: none; stroke-width: 1; stroke-dasharray: none; stroke-linecap: butt; stroke-dashoffset: 0; stroke-linejoin: miter; stroke-miterlimit: 4; fill: rgb(17,24,39); fill-rule: nonzero; opacity: 1; text-decoration-thickness: 6.6667%; white-space: pre;" ><tspan x="-65.373" y="5.6545" >Unaffected male</tspan></text></g><g transform="matrix(1 0 0 1 675 275)"  ><path style="stroke: rgb(17,24,39); stroke-width: 1.5; stroke-dasharray: none; stroke-linecap: round; stroke-dashoffset: 0; stroke-linejoin: round; stroke-miterlimit: 4; fill: rgb(255,255,255); fill-opacity: 0; fill-rule: nonzero; opacity: 1;" vector-effect="non-scaling-stroke"  transform=" translate(-675, -275)" d="M 625 275 L 725 275" stroke-linecap="round" /></g><g transform="matrix(1 0 0 1 400 415)"  ><ellipse style="stroke: rgb(17,24,39); stroke-width: 1.5; stroke-dasharray: none; stroke-linecap: butt; stroke-dashoffset: 0; stroke-linejoin: miter; stroke-miterlimit: 4; fill: rgb(255,255,255); fill-opacity: 0; fill-rule: nonzero; opacity: 1;" vector-effect="non-scaling-stroke"  cx="0" cy="0" rx="25" ry="25" /></g><g transform="matrix(1 0 0 1 400 415)"  ><ellipse style="stroke: rgb(17,24,39); stroke-width: 1.5; stroke-dasharray: none; stroke-linecap: butt; stroke-dashoffset: 0; stroke-linejoin: miter; stroke-miterlimit: 4; fill: rgb(17,24,39); fill-rule: nonzero; opacity: 1;" vector-effect="non-scaling-stroke"  cx="0" cy="0" rx="6" ry="6" /></g><g transform="matrix(1 0 0 1 500.75 415.75)"  ><rect style="stroke: rgb(17,24,39); stroke-width: 1.5; stroke-dasharray: none; stroke-linecap: butt; stroke-dashoffset: 0; stroke-linejoin: miter; stroke-miterlimit: 4; fill: rgb(17,24,39); fill-rule: nonzero; opacity: 1;" vector-effect="non-scaling-stroke"  x="-25" y="-25" rx="0" ry="0" width="50" height="50" /></g><g transform="matrix(1 0 0 1 571.1976 427.6852)" style=""  ><text xml:space="preserve" font-family="Arial" font-size="18" font-style="normal" font-weight="normal" style="stroke: none; stroke-width: 1; stroke-dasharray: none; stroke-linecap: butt; stroke-dashoffset: 0; stroke-linejoin: miter; stroke-miterlimit: 4; fill: rgb(17,24,39); fill-rule: nonzero; opacity: 1; text-decoration-thickness: 6.6667%; white-space: pre;" ><tspan x="-32.8579" y="-6.1427" >Affected</tspan><tspan x="-19.5073" y="17.4517" >male</tspan></text></g><g transform="matrix(1 0 0 1 761.3142 421.157)"  ><ellipse style="stroke: rgb(17,24,39); stroke-width: 1.5; stroke-dasharray: none; stroke-linecap: butt; stroke-dashoffset: 0; stroke-linejoin: miter; stroke-miterlimit: 4; fill: rgb(255,255,255); fill-opacity: 0; fill-rule: nonzero; opacity: 1;" vector-effect="non-scaling-stroke"  cx="0" cy="0" rx="25" ry="25" /></g><g transform="matrix(1 0 0 1 842.587 426.6777)" style=""  ><text xml:space="preserve" font-family="Arial" font-size="18" font-style="normal" font-weight="normal" style="stroke: none; stroke-width: 1; stroke-dasharray: none; stroke-linecap: butt; stroke-dashoffset: 0; stroke-linejoin: miter; stroke-miterlimit: 4; fill: rgb(17,24,39); fill-rule: nonzero; opacity: 1; text-decoration-thickness: 6.6667%; white-space: pre;" ><tspan x="-43.3652" y="-6.1427" >Unaffected</tspan><tspan x="-27.0132" y="17.4517" >female</tspan></text></g><g transform="matrix(1 0 0 1 450 415)"  ><path style="stroke: rgb(17,24,39); stroke-width: 1.5; stroke-dasharray: none; stroke-linecap: round; stroke-dashoffset: 0; stroke-linejoin: round; stroke-miterlimit: 4; fill: rgb(255,255,255); fill-opacity: 0; fill-rule: nonzero; opacity: 1;" vector-effect="non-scaling-stroke"  transform=" translate(-450, -415)" d="M 425 415 L 475 415" stroke-linecap="round" /></g><g transform="matrix(1 0 0 1 450 420)"  ><path style="stroke: rgb(17,24,39); stroke-width: 1.5; stroke-dasharray: none; stroke-linecap: round; stroke-dashoffset: 0; stroke-linejoin: round; stroke-miterlimit: 4; fill: rgb(255,255,255); fill-opacity: 0; fill-rule: nonzero; opacity: 1;" vector-effect="non-scaling-stroke"  transform=" translate(-450, -420)" d="M 425 420 L 475 420" stroke-linecap="round" /></g><g transform="matrix(1 0 0 1 401.2314 529.405)"  ><path style="stroke: rgb(17,24,39); stroke-width: 1.5; stroke-dasharray: none; stroke-linecap: round; stroke-dashoffset: 0; stroke-linejoin: round; stroke-miterlimit: 4; fill: rgb(255,255,255); fill-opacity: 0; fill-rule: nonzero; opacity: 1;" vector-effect="non-scaling-stroke"  transform=" translate(-400, -490)" d="M 500 490 L 300 490" stroke-linecap="round" /></g><g transform="matrix(1 0 0 1 601.2314 529.405)"  ><path style="stroke: rgb(17,24,39); stroke-width: 1.5; stroke-dasharray: none; stroke-linecap: round; stroke-dashoffset: 0; stroke-linejoin: round; stroke-miterlimit: 4; fill: rgb(255,255,255); fill-opacity: 0; fill-rule: nonzero; opacity: 1;" vector-effect="non-scaling-stroke"  transform=" translate(-600, -490)" d="M 500 490 L 700 490" stroke-linecap="round" /></g><g transform="matrix(1 0 0 1 301.2314 539.405)"  ><path style="stroke: rgb(17,24,39); stroke-width: 1.5; stroke-dasharray: none; stroke-linecap: round; stroke-dashoffset: 0; stroke-linejoin: round; stroke-miterlimit: 4; fill: rgb(255,255,255); fill-opacity: 0; fill-rule: nonzero; opacity: 1;" vector-effect="non-scaling-stroke"  transform=" translate(-300, -500)" d="M 300 490 L 300 510" stroke-linecap="round" /></g><g transform="matrix(1 0 0 1 434.2314 539.405)"  ><path style="stroke: rgb(17,24,39); stroke-width: 1.5; stroke-dasharray: none; stroke-linecap: round; stroke-dashoffset: 0; stroke-linejoin: round; stroke-miterlimit: 4; fill: rgb(255,255,255); fill-opacity: 0; fill-rule: nonzero; opacity: 1;" vector-effect="non-scaling-stroke"  transform=" translate(-433, -500)" d="M 433 490 L 433 510" stroke-linecap="round" /></g><g transform="matrix(1 0 0 1 567.2314 539.405)"  ><path style="stroke: rgb(17,24,39); stroke-width: 1.5; stroke-dasharray: none; stroke-linecap: round; stroke-dashoffset: 0; stroke-linejoin: round; stroke-miterlimit: 4; fill: rgb(255,255,255); fill-opacity: 0; fill-rule: nonzero; opacity: 1;" vector-effect="non-scaling-stroke"  transform=" translate(-566, -500)" d="M 566 490 L 566 510" stroke-linecap="round" /></g><g transform="matrix(1 0 0 1 701.2314 539.405)"  ><path style="stroke: rgb(17,24,39); stroke-width: 1.5; stroke-dasharray: none; stroke-linecap: round; stroke-dashoffset: 0; stroke-linejoin: round; stroke-miterlimit: 4; fill: rgb(255,255,255); fill-opacity: 0; fill-rule: nonzero; opacity: 1;" vector-effect="non-scaling-stroke"  transform=" translate(-700, -500)" d="M 700 490 L 700 510" stroke-linecap="round" /></g><g transform="matrix(1 0 0 1 301.9814 575.155)"  ><rect style="stroke: rgb(17,24,39); stroke-width: 1.5; stroke-dasharray: none; stroke-linecap: butt; stroke-dashoffset: 0; stroke-linejoin: miter; stroke-miterlimit: 4; fill: rgb(255,255,255); fill-opacity: 0; fill-rule: nonzero; opacity: 1;" vector-effect="non-scaling-stroke"  x="-25" y="-25" rx="0" ry="0" width="50" height="50" /></g><g transform="matrix(1 0 0 1 301.2314 614.405)" style=""  ><text xml:space="preserve" font-family="Arial" font-size="24" font-style="normal" font-weight="normal" style="stroke: none; stroke-width: 1; stroke-dasharray: none; stroke-linecap: butt; stroke-dashoffset: 0; stroke-linejoin: miter; stroke-miterlimit: 4; fill: rgb(17,24,39); fill-rule: nonzero; opacity: 1; text-decoration-thickness: 6.6667%; white-space: pre;" ><tspan x="-6.6738" y="7.5394" >?</tspan></text></g><g transform="matrix(1 0 0 1 434.2314 574.405)"  ><ellipse style="stroke: rgb(17,24,39); stroke-width: 1.5; stroke-dasharray: none; stroke-linecap: butt; stroke-dashoffset: 0; stroke-linejoin: miter; stroke-miterlimit: 4; fill: rgb(255,255,255); fill-opacity: 0; fill-rule: nonzero; opacity: 1;" vector-effect="non-scaling-stroke"  cx="0" cy="0" rx="25" ry="25" /></g><g transform="matrix(1 0 0 1 434.2314 614.405)" style=""  ><text xml:space="preserve" font-family="Arial" font-size="24" font-style="normal" font-weight="normal" style="stroke: none; stroke-width: 1; stroke-dasharray: none; stroke-linecap: butt; stroke-dashoffset: 0; stroke-linejoin: miter; stroke-miterlimit: 4; fill: rgb(17,24,39); fill-rule: nonzero; opacity: 1; text-decoration-thickness: 6.6667%; white-space: pre;" ><tspan x="-6.6738" y="7.5394" >?</tspan></text></g><g transform="matrix(1 0 0 1 567.2314 574.405)"  ><ellipse style="stroke: rgb(17,24,39); stroke-width: 1.5; stroke-dasharray: none; stroke-linecap: butt; stroke-dashoffset: 0; stroke-linejoin: miter; stroke-miterlimit: 4; fill: rgb(255,255,255); fill-opacity: 0; fill-rule: nonzero; opacity: 1;" vector-effect="non-scaling-stroke"  cx="0" cy="0" rx="25" ry="25" /></g><g transform="matrix(1 0 0 1 567.2314 614.405)" style=""  ><text xml:space="preserve" font-family="Arial" font-size="24" font-style="normal" font-weight="normal" style="stroke: none; stroke-width: 1; stroke-dasharray: none; stroke-linecap: butt; stroke-dashoffset: 0; stroke-linejoin: miter; stroke-miterlimit: 4; fill: rgb(17,24,39); fill-rule: nonzero; opacity: 1; text-decoration-thickness: 6.6667%; white-space: pre;" ><tspan x="-6.6738" y="7.5394" >?</tspan></text></g><g transform="matrix(1 0 0 1 701.9814 575.155)"  ><rect style="stroke: rgb(17,24,39); stroke-width: 1.5; stroke-dasharray: none; stroke-linecap: butt; stroke-dashoffset: 0; stroke-linejoin: miter; stroke-miterlimit: 4; fill: rgb(255,255,255); fill-opacity: 0; fill-rule: nonzero; opacity: 1;" vector-effect="non-scaling-stroke"  x="-25" y="-25" rx="0" ry="0" width="50" height="50" /></g><g transform="matrix(1 0 0 1 701.2314 614.405)" style=""  ><text xml:space="preserve" font-family="Arial" font-size="24" font-style="normal" font-weight="normal" style="stroke: none; stroke-width: 1; stroke-dasharray: none; stroke-linecap: butt; stroke-dashoffset: 0; stroke-linejoin: miter; stroke-miterlimit: 4; fill: rgb(17,24,39); fill-rule: nonzero; opacity: 1; text-decoration-thickness: 6.6667%; white-space: pre;" ><tspan x="-6.6738" y="7.5394" >?</tspan></text></g><g transform="matrix(1 0 0 1 500.0932 483.7831)"  ><path style="stroke: rgb(0,0,0); stroke-width: 3; stroke-dasharray: none; stroke-linecap: round; stroke-dashoffset: 0; stroke-linejoin: round; stroke-miterlimit: 4; fill: rgb(255,255,255); fill-opacity: 0; fill-rule: nonzero; opacity: 1;" vector-effect="non-scaling-stroke"  transform=" translate(-500.0932, -483.7831)" d="M 500.7089 437.6054 L 499.4775 529.9608" stroke-linecap="round" /></g><g transform="matrix(1 0 0 1 394.808 233.8077)"  ><path style="stroke: rgb(0,0,0); stroke-width: 3; stroke-dasharray: none; stroke-linecap: round; stroke-dashoffset: 0; stroke-linejoin: round; stroke-miterlimit: 4; fill: rgb(255,255,255); fill-opacity: 0; fill-rule: nonzero; opacity: 1;" vector-effect="non-scaling-stroke"  transform=" translate(-394.808, -233.8077)" d="M 394.808 219.6465 L 394.808 247.9688" stroke-linecap="round" /></g><g transform="matrix(1 0 0 1 297.7933 419.9256)"  ><ellipse style="stroke: rgb(17,24,39); stroke-width: 1.5; stroke-dasharray: none; stroke-linecap: butt; stroke-dashoffset: 0; stroke-linejoin: miter; stroke-miterlimit: 4; fill: rgb(255,255,255); fill-opacity: 0; fill-rule: nonzero; opacity: 1;" vector-effect="non-scaling-stroke"  cx="0" cy="0" rx="25" ry="25" /></g><g transform="matrix(1 0 0 1 297.7933 419.9256)"  ><ellipse style="stroke: rgb(17,24,39); stroke-width: 1.5; stroke-dasharray: none; stroke-linecap: butt; stroke-dashoffset: 0; stroke-linejoin: miter; stroke-miterlimit: 4; fill: rgb(17,24,39); fill-rule: nonzero; opacity: 1;" vector-effect="non-scaling-stroke"  cx="0" cy="0" rx="6" ry="6" /></g><g transform="matrix(1 0 0 1 348.6302 384.0392)"  ><path style="stroke: rgb(0,0,0); stroke-width: 1; stroke-dasharray: none; stroke-linecap: round; stroke-dashoffset: 0; stroke-linejoin: round; stroke-miterlimit: 4; fill: rgb(255,255,255); fill-opacity: 0; fill-rule: nonzero; opacity: 1;" vector-effect="non-scaling-stroke"  transform=" translate(-348.6302, -384.0392)" d="M 298.7583 393.2747 L 297.5269 374.8037 L 399.7336 376.0351 L 399.7336 389.5805" stroke-linecap="round" /></g><g transform="matrix(1 0 0 1 328.9277 324.9317)"  ><path style="stroke: rgb(0,0,0); stroke-width: 1; stroke-dasharray: none; stroke-linecap: round; stroke-dashoffset: 0; stroke-linejoin: round; stroke-miterlimit: 4; fill: rgb(255,255,255); fill-opacity: 0; fill-rule: nonzero; opacity: 1;" vector-effect="non-scaling-stroke"  transform=" translate(-328.9277, -324.9317)" d="M 328.312 273.8284 L 329.5434 376.0351" stroke-linecap="round" /></g><g transform="matrix(275379.3373 0 0 0.8591 666.9487 323.7242)"  ><path style="stroke: rgb(0,0,0); stroke-width: 1; stroke-dasharray: none; stroke-linecap: round; stroke-dashoffset: 0; stroke-linejoin: round; stroke-miterlimit: 4; fill: rgb(255,255,255); fill-opacity: 0; fill-rule: nonzero; opacity: 1;" vector-effect="non-scaling-stroke"  transform=" translate(-666.9487, -331.7044)" d="M 666.9487 275.0598 L 666.9487 388.3491" stroke-linecap="round" /></g><g transform="matrix(1 0 0 1 628.1594 382.1921)"  ><path style="stroke: rgb(0,0,0); stroke-width: 1; stroke-dasharray: none; stroke-linecap: round; stroke-dashoffset: 0; stroke-linejoin: round; stroke-miterlimit: 4; fill: rgb(255,255,255); fill-opacity: 0; fill-rule: nonzero; opacity: 1;" vector-effect="non-scaling-stroke"  transform=" translate(-628.1594, -382.1921)" d="M 495.7833 392.0433 L 495.7833 369.878 L 760.5355 372.3408 L 760.5355 394.5062" stroke-linecap="round" /></g></svg>