<svg xmlns="http://www.w3.org/2000/svg" xmlns:xlink="http://www.w3.org/1999/xlink" xmlns:inkscape="http://www.inkscape.org/namespaces/inkscape" version="1.1" width="576" height="784.8" viewBox="0 0 576 784.8">
<defs>
<clipPath id="clip_11">
<path transform="matrix(1,0,0,-1,-18,802.8)" d="M18 18H594V802.8H18Z" clip-rule="evenodd"/>
</clipPath>
<clipPath id="clip_12">
<path transform="matrix(1,0,0,-1,259.314,763.99978)" d="M0-8H57.372V.800049H0Z"/>
</clipPath>
</defs>
<g clip-path="url(#clip_11)">
<path transform="matrix(.24,0,0,-.24,-18,802.8)" d="M2 2H2548V214.67H2Z" fill="#cbdf7f" fill-rule="evenodd"/>
<path transform="matrix(.24,0,0,-.24,-18,802.8)" stroke-width="4" stroke-linecap="butt" stroke-miterlimit="1000" stroke-linejoin="miter" fill="none" stroke="#cbdf7f" d="M2 2H2548V214.67H2Z"/>
<path transform="matrix(.24,0,0,-.24,-18,802.8)" d="M0 3035.83H2550V3372.7003H0Z" fill="#d1d3d4" fill-rule="evenodd"/>
<path transform="matrix(.24,0,0,-.24,-18,802.8)" d="M0 3078.33H2550V3420H0Z" fill="#e1ecb6" fill-rule="evenodd"/>
<path transform="matrix(.24,0,0,-.24,62.6362,53.63501)" d="M0 0C7.32 7.32 16.16 10.98 26.52 10.98H97.35C107.7 10.98 116.54 7.32 123.87 0 131.19-7.32 134.85-16.16 134.85-26.52V-101.52C134.85-111.88 131.19-120.72 123.87-128.04 116.54-135.36 107.7-139.02 97.35-139.02H26.52C16.16-139.02 7.32-135.36 0-128.04-7.32-120.72-10.98-111.88-10.98-101.52V-26.52C-10.98-16.16-7.32-7.32 0 0" fill="#ffffff" fill-rule="evenodd"/>
<text fill="#231f20" xml:space="preserve" transform="matrix(1 0 -0 1 -18 802.8)" font-size="11" font-family="Bookman,Bold" font-weight="bold"><tspan y="-729.361" x="87.12 94.26001">26</tspan></text>
<text fill="#231f20" xml:space="preserve" transform="matrix(1 0 -0 1 -18 802.8)" font-size="11" font-family="Bookman"><tspan y="-729.361" x="513.12">B</tspan></text>
<text fill="#231f20" xml:space="preserve" transform="matrix(1 0 -0 1 -18 802.8)" font-size="7.69999" font-family="Bookman"><tspan y="-729.361" x="521.04 523.3687 529.3087 533.6779 539.6179 545.5579">IOLOGY</tspan></text>
<path transform="matrix(.24,0,0,-.24,-18,.35998536)" stroke-width="1" stroke-linecap="butt" stroke-miterlimit="10" stroke-linejoin="miter" fill="none" stroke="#000000" d="M0 0H60"/>
<path transform="matrix(.24,0,0,-.24,.12000084,-18)" stroke-width="1" stroke-linecap="butt" stroke-miterlimit="10" stroke-linejoin="miter" fill="none" stroke="#000000" d="M0 0V-60"/>
<path transform="matrix(.24,0,0,-.24,-18,784.68)" stroke-width="1" stroke-linecap="butt" stroke-miterlimit="10" stroke-linejoin="miter" fill="none" stroke="#000000" d="M0 0H60"/>
<path transform="matrix(.24,0,0,-.24,.12000084,788.16)" stroke-width="1" stroke-linecap="butt" stroke-miterlimit="10" stroke-linejoin="miter" fill="none" stroke="#000000" d="M0 0V-60"/>
<path transform="matrix(.24,0,0,-.24,593.64,784.56)" stroke-width="1" stroke-linecap="butt" stroke-miterlimit="10" stroke-linejoin="miter" fill="none" stroke="#000000" d="M0 0V-75"/>
<text fill="#231f20" xml:space="preserve" transform="matrix(1 0 -0 1 -18 802.8)" font-size="10.5" font-family="Bookman"><tspan y="-689.521" x="210.96 219.12001 222.3146 228.0712 234.25829 239.80487 243.34944 249.53653 254.22212 259.7687 263.3133 270.57139 276.11799 281.66459 285.06919 292.32728 295.52186 299.06645 303.11155 309.08863 312.6332 322.6738 328.8609 335.909 339.45359 342.64817 349.69627 353.24085 359.42796 362.97254 368.51914 374.70625 379.3918 382.5864 388.133 392.1781 397.9347 401.47929 407.45637 410.86097 414.40556 422.73466 428.92176 434.67835 440.22496 443.62956 447.17414 454.43223 458.47734 462.0219 465.2165 470.7631 476.9502 482.4968 486.5419 490.0865 496.2736 499.81819 506.86628 513.05337 516.2479 519.6525 523.19717 529.17428 532.57888 536.1235 540.1686 547.2167">Algae are useful to man in a variety of ways. At least a half of the</tspan><tspan y="-675.361" x="192.96 197.003 202.97801 207.02101 213.20601 216.39852 220.05101 225.5955 231.7805 236.464 243.0795 249.0545 256.1005 259.753 266.3685 269.561 275.536 281.51103 284.70353 291.31904 296.86354 300.51603 303.91853 307.11103 313.08604 319.27104 323.31404 326.50654 332.48155 339.52754 343.18003 349.15504 356.20103 359.85353 365.398 371.583 376.2665 380.3095 387.3555 391.008 394.2005 399.745 403.3975 408.942 415.12699 419.8105 424.494 427.6865 433.231 439.8465 443.499 449.474 456.73 460.773 464.4255 471.04103 476.7955 480.448 486.633 489.8255 495.58 501.76499 507.30949 510.96199 515.005 522.051 526.7345 532.7095 539.96548 545.72">total carbon dioxide fixation on earth is carried out by algae through</tspan><tspan y="-661.44107" x="192.96 199.36112 206.19272 211.95333 215.78194 221.54254 226.87265 232.41277 239.24437 243.07299 249.90459 255.2347 260.56483 263.54295 268.87306 272.06117 274.39927 282.08137 287.41148 290.3896 297.2212 302.7613 305.0994 311.50053 318.33213 324.09275 327.92137 333.68199 339.0121 344.5522 351.3838 355.2124 362.044 367.3741 371.20274 374.18086 379.51097 382.69908 385.03718 388.86579 395.6974 401.0275 406.5676 408.9057 411.88383 418.71543 424.04554 428.51466 433.84477 439.81538 445.14549 450.4756 452.8137 456.6423 463.4739 468.80403 471.14213 474.12025 479.45036 484.78047 490.11058 493.08869 495.4268 501.1874 504.37553 506.71363 513.11477 516.09286 521.423 526.7531 532.51376 535.4918 540.82199 546.1521">photosynthesis. Being photosynthetic, they increase the level of dissolved</tspan><tspan y="-647.52108" x="192.96 199.20452 205.44902 211.47303 217.49703 223.31102 230.62653 235.99852 239.46053 246.77603 252.14803 256.4605 263.776 269.59 273.052 278.005 283.37699 286.839 297.147 307.45503 313.269 320.15403 323.61604 330.07054 334.38304 340.19703 345.569 351.383 358.6985 364.51249 367.9745 372.9275 379.172 386.4875 396.7955 402.6095 409.925 414.2375 417.9095 423.28147 430.16648 437.48197 443.29597 449.31996 454.69194 461.14643 466.09944 471.91343 477.2854 483.5299 487.2019 492.57389 499.4589 505.9134 510.8664 517.3209 527.6289 533.8734 541.3989 548.7144">oxygen in their immediate environment. They are of paramount</tspan><tspan y="-633.3611" x="192.96 196.01412 205.91423 212.39134 218.22795 222.77306 226.67768 232.72429 239.6319 245.03801 250.44412 252.85823 258.90486 264.31095 266.72505 273.20216 277.74726 280.80137 290.70149 296.74809 301.29319 306.9093 309.3234 315.8005 320.3456 326.18223 332.65934 339.77696 345.18305 350.58915 355.13426 360.54035 362.95445 368.79106 372.05516 374.46925 379.87535 386.78297 392.18907 396.73417 402.35029 407.9664 412.09153 416.63664 419.69075 425.09684 432.00447 434.41856 439.82466 445.66127 455.56138 462.03849 467.8751 474.9927 481.90034 488.37745 493.78355 496.19764 504.38624 511.29386 514.34799 519.7541 526.6617 529.0758 532.3399 538.1765 542.7216">importance as primary producers of energy-rich compounds which form</tspan><tspan y="-619.4411" x="192.96 196.64962 203.34221 208.53331 210.7324 216.9945 222.82611 228.01721 230.85631 236.04741 238.2465 243.8681 246.9172 249.1163 252.80591 259.4985 264.6896 266.8887 269.9378 275.55943 281.18104 287.44316 289.64225 294.83335 300.23445 305.42555 308.26466 313.45576 318.64686 320.84596 326.46757 329.51667 331.71577 337.54737 340.38648 343.2256 345.42469 351.2563 357.0879 363.99049 369.82209 373.5117 376.3508 381.5419 383.741 389.5726 396.2652 399.1043 408.7894 414.621 417.4601 422.6512 425.70033 427.8994 437.364 443.19563 449.8882 455.2893 457.4884 462.6795 468.94163 474.13273 479.32383 482.16294 487.35404 492.54515 494.74424 500.36585 503.41496">the basis of the food cycles of all aquatic animals. Many species of </tspan></text>
<text fill="#231f20" xml:space="preserve" transform="matrix(1 0 -0 1 -18 802.8)" font-size="10.5" font-family="Bookman,Italic" font-style="italic"><tspan y="-619.4411" x="505.44 511.5867 517.1034 521.3601 527.50686 534.07357 539.38027 543.63699 549.36367">Porphyra,</tspan><tspan y="-605.5211" x="192.95999 199.2643 205.3586 215.2329 218.38719 225.32149 231.41579 236.04009 239.19438">Laminaria</tspan></text>
<text fill="#231f20" xml:space="preserve" transform="matrix(1 0 -0 1 -18 802.8)" font-size="10.5" font-family="Bookman"><tspan y="-605.5211" x="245.28 248.7906 254.9837 262.0378 268.6614"> and </tspan></text>
<text fill="#231f20" xml:space="preserve" transform="matrix(1 0 -0 1 -18 802.8)" font-size="10.5" font-family="Bookman,Italic" font-style="italic"><tspan y="-605.5211" x="272.16 279.0945 285.18904 289.81355 295.48805 301.58256 307.04707 312.51158 319.65608">Sargassum</tspan></text>
<text fill="#231f20" xml:space="preserve" transform="matrix(1 0 -0 1 -18 802.8)" font-size="10.5" font-family="Bookman"><tspan y="-605.5211" x="329.52003 333.02763 336.53523 342.7253 347.4139 352.9635 356.4711 362.6612 372.70478 378.68489 385.73597 391.49555 395.00315 399.05125 406.10234 411.65193 415.15953 421.78013 428.40074 431.90834 437.45793 444.07853 449.6281 455.1777 458.3753 463.9249 469.4745 472.9821 478.9622 482.36979 485.87739 495.92097 502.11106 506.79966 509.99726 517.04837 522.5979 526.10549 532.29556 535.4931 541.2527 547.44277">  are among the 70 species of marine algae</tspan><tspan y="-591.36117" x="192.96002 199.99143 205.31133 210.63123 217.02213 219.35002 225.31043 230.63033 232.95822 236.13613 241.88652 247.63692 254.02782 257.20573 259.5336 267.2055 272.5254 276.98429 280.80268 286.76307 289.73097 296.55238 298.88026 308.69416 314.65455 319.11344 322.08134 328.90275 334.22264 336.5505 342.9414 347.4003 353.1507 361.25309 368.0745 370.40238 376.36277 383.18418 389.57508 391.90296 396.36186 401.68174 408.07264 410.4005 416.3609 419.3288 424.8587 430.8191 436.13899 438.46687 444.85777 449.31666 455.06706 461.45796 468.48936 473.80924 479.12913 481.457 484.4249 490.38529 494.84419 500.37409 505.69398 508.02186 513.98226 523.79617 529.5466 536.57797 543.39938 547.2178">used as food. Certain marine brown and red algae produce large amounts</tspan><tspan y="-577.44119" x="192.96002 198.76273 201.99294 204.37314 211.24684 216.82906 223.27227 227.78348 233.58618 238.95839 244.7611 247.78131 250.80152 256.60423 259.62443 266.06764 271.43986 273.82008 276.84028 284.995 291.0077 294.8784 300.2506 304.7618 307.14204 314.01576 319.81846 322.83866 329.28187 332.30207 339.17579 344.758 347.1382 352.51045 359.59416 366.03736 371.40959 375.28028 381.29298 388.1667 393.5389 398.91114 404.28337 407.30357 410.53379 412.914 418.28623 421.51646 427.09867 430.3289 433.5591">of hydrocolloids (water holding substances), e.g., </tspan></text>
<text fill="#231f20" xml:space="preserve" transform="matrix(1 0 -0 1 -18 802.8)" font-size="10.5" font-family="Bookman,Bold" font-weight="bold"><tspan y="-577.44119" x="435.84004 442.17445 445.56886 451.48326 454.87767 462.05207">algin </tspan></text>
<text fill="#231f20" xml:space="preserve" transform="matrix(1 0 -0 1 -18 802.8)" font-size="10.5" font-family="Bookman"><tspan y="-577.44119" x="464.64 467.6604 474.1038 478.6152 484.4181 492.573 499.4469 501.8273 507.8402 510.8606 516.443 522.4559 527.82827 530.84866 533.22909 539.24197 546.11587">(brown algae) and</tspan></text>
<text fill="#231f20" xml:space="preserve" transform="matrix(1 0 -0 1 -18 802.8)" font-size="10.5" font-family="Bookman,Bold" font-weight="bold"><tspan y="-563.5212" x="192.96002 198.85042 205.37082 210.42122 215.47162 221.99202 228.09243 233.98282 239.87322 247.23361">carrageen </tspan></text>
<text fill="#231f20" xml:space="preserve" transform="matrix(1 0 -0 1 -18 802.8)" font-size="10.5" font-family="Bookman"><tspan y="-563.5212" x="251.76003 254.95833 259.6476 265.1979 271.8192 275.9164 282.1072 285.3055 291.06584 297.25663 302.80693 306.00523 310.10243 318.4352 325.487 328.6853 334.2356 341.28739 345.38459 351.57539 356.26469 361.81498 365.91218 373.17399 378.72428 384.27458 390.89588 394.99308 400.54338 406.52418 416.56849 426.6128 432.1631 436.8524 442.40269 445.60099 451.79179 454.99009 458.1884 462.00004 465.34877 469.38639 477.36003 483.084 489.23854 492.72 496.122 500.21293 506.1874 513.2329 518.7769 522.8678 528.8423 532.24429 536.33517 540.3776 547.4231">(red algae) which are used commercially. Agar, one of the</tspan><tspan y="-549.3612" x="192.95999 198.3893 204.2491 214.1724 224.09569 229.525 234.09329 239.5226 242.5999 248.6697 251.747 254.18428 260.68458 265.25288 271.11268 277.61299 284.75379 290.18309 294.11088 299.54017 301.97746 307.83726 314.33757 318.26536 324.33515 327.41246 334.34324 339.77253 346.27284 348.7101 351.9974 356.5657 362.4255 372.34883">commercial products obtained from </tspan></text>
<text fill="#231f20" xml:space="preserve" transform="matrix(1 0 -0 1 -18 802.8)" font-size="10.5" font-family="Bookman,Italic" font-style="italic"><tspan y="-549.3612" x="374.88 383.1731 388.52619 391.56929 394.61238 401.01548 404.05857 411.09169">Gelidium</tspan></text>
<text fill="#231f20" xml:space="preserve" transform="matrix(1 0 -0 1 -18 802.8)" font-size="10.5" font-family="Bookman,Bold" font-weight="bold"><tspan y="-549.3612" x="420.72"> </tspan></text>
<text fill="#231f20" xml:space="preserve" transform="matrix(1 0 -0 1 -18 802.8)" font-size="10.5" font-family="Bookman"><tspan y="-549.3612" x="423.36003 429.43974 436.38044 442.89067">and </tspan></text>
<text fill="#231f20" xml:space="preserve" transform="matrix(1 0 -0 1 -18 802.8)" font-size="10.5" font-family="Bookman,Italic" font-style="italic"><tspan y="-549.3612" x="445.44 453.714 458.20799 464.17198 469.50599 472.52998 475.55397 481.51795 486.01194 489.03593">Gracilaria</tspan></text>
<text fill="#231f20" xml:space="preserve" transform="matrix(1 0 -0 1 -18 802.8)" font-size="10.5" font-family="Bookman"><tspan y="-549.3612" x="495.12 497.5633 503.6391 508.2134 513.6487 516.092 523.2388 528.6741 534.1094 540.61569 543.05899 546.99276"> are used to</tspan><tspan y="-535.4412" x="192.95999 198.71849 203.40599 209.385 217.716 220.3559 230.39839 233.5949 239.1434 243.8309 249.8099 256.4294 261.9779 267.5264 270.1663 276.3553 283.40528 290.02479 292.66468 295.86119 302.91117 305.55107 312.17057 316.85807 322.40657 329.02607 335.21507 339.90257 346.09156 350.13856 353.33506 359.31407 366.36405 371.91255 374.55244 380.53144 383.93794 386.57783 389.77433 395.3228 400.8713 405.1388 410.6873 415.3748 420.92329 427.11228 437.1548 442.70329 445.34318 451.53218 458.58216 465.20167 467.84156 471.03807 476.58656 479.78306 482.97956 486.17607 491.72456 497.27305 500.67955">grow microbes and in preparations of ice-creams and jellies. </tspan></text>
<text fill="#231f20" xml:space="preserve" transform="matrix(1 0 -0 1 -18 802.8)" font-size="10.5" font-family="Bookman,Italic" font-style="italic"><tspan y="-535.4412" x="503.28 511.0371 517.9542 521.0913 526.95846 531.56558 537.01266 540.1497 543.2868 549.3639">Chlorella,</tspan></text>
<text fill="#231f20" xml:space="preserve" transform="matrix(1 0 -0 1 -18 802.8)" font-size="10.5" font-family="Bookman"><tspan y="-521.52127" x="192.95999 199.1464 202.00449 209.26189 216.30928 219.50318 225.04907 230.59497 233.78887 236.98276 244.24016 247.43405 253.62046 258.30537 261.16346 267.34986 270.54377 276.29966 282.48606 285.34416 290.02906 293.22297 298.76887 305.81626 308.67436 311.86827 318.91566 321.77375 328.39067 333.07557 339.05198 343.09638 348.64228 351.83619 358.88359 364.42948 367.83338 370.69148 373.88539 379.43128 382.28938 389.54676 395.09266 400.63856 407.25547 410.11357 416.29997 421.84587 424.70396 428.10786 434.08427 440.06068 446.67759 449.53569 455.08158 462.339 468.9559 475.5728 478.76673 484.31263 494.3525 499.8984 506.9458 510.9902 513.8483 519.3942 524.9401 530.486 537.53347 540.39157 547.0084">a unicellular alga rich in proteins, is used as food supplement even by</tspan><tspan y="-507.36125" x="192.95999 198.80608 205.72316 212.20975 218.05583 223.90192 229.306 233.65059 238.63568 245.12227 250.96836 256.81446 260.30854 263.8026 269.6487 274.6338 280.4799 284.184 289.58808 296.50517 303.85276 309.69886 315.10295 321.58955 325.08363 331.1397 337.6263 343.4724 348.8765 355.3631 360.34819 366.19429 371.59837 378.51545 382.00953 387.85563 391.3497 398.26679 404.11289 411.02998 416.43406 419.92814 427.27574 431.62034 437.8969 443.301 447.6456 454.9932 459.97828 465.82438 471.67048 477.07456 487.41465 493.90126 497.39533 504.74293 510.147 515.9931 519.4872 525.97378 531.8198 537.6659 543.51199 549.35806">space travellers. The algae are divided into three main classes:</tspan></text>
<text fill="#231f20" xml:space="preserve" transform="matrix(1 0 -0 1 -18 802.8)" font-size="10.5" font-family="Bookman,Bold" font-weight="bold"><tspan y="-493.44123" x="192.95999 201.15868 208.51737 212.09606 218.40474 223.45343 229.76212 236.7008 244.0595 250.15819 256.04689 261.93559 268.45426 274.34297 278.13166 282.42036 289.35905 296.71775 303.23643 309.12513 315.4338 322.3725 329.7312 335.8299 341.7186 347.6073 354.12599">Chlorophyceae, Phaeophyceae</tspan></text>
<text fill="#231f20" xml:space="preserve" transform="matrix(1 0 -0 1 -18 802.8)" font-size="10.5" font-family="Bookman"><tspan y="-493.44123" x="360 363.86558 370.06367 377.12275 383.75135"> and </tspan></text>
<text fill="#231f20" xml:space="preserve" transform="matrix(1 0 -0 1 -18 802.8)" font-size="10.5" font-family="Bookman,Bold" font-weight="bold"><tspan y="-493.44123" x="387.6 395.5858 402.9416 409.24739 416.18318 422.48896 429.42475 436.78056 442.87635 448.76216 454.64796 461.16374">Rhodophyceae</tspan></text>
<text fill="#231f20" xml:space="preserve" transform="matrix(1 0 -0 1 -18 802.8)" font-size="10.5" font-family="Bookman"><tspan y="-493.44123" x="467.04">.</tspan></text>
<text fill="#00aeef" xml:space="preserve" transform="matrix(1 0 -0 1 -18 802.8)" font-size="12" font-family="Bookman,Bold" font-weight="bold"><tspan y="-467.5212" x="192.96002 200.94002 205.32 213.3 217.68 237.84003 247.28041 255.7608 259.9212 267.2016 273.042 280.3224 288.32279 296.80317 303.84358 310.64396 317.44435 324.96473">3.1.1Chlorophyceae</tspan></text>
<text fill="#231f20" xml:space="preserve" transform="matrix(1 0 -0 1 -18 802.8)" font-size="10.5" font-family="Bookman"><tspan y="-447.3612" x="192.96002 199.57712 206.62473 212.17082 215.11782 225.15792 230.70401 240.74411 247.3612 252.9073 257.5924 263.13853 266.08555 272.06214 275.46626 278.41328 283.95939 291.007 294.20109 300.17768 304.86277 310.83937 317.45646 324.50407 330.26017 335.80628 341.3524 347.539 353.0851 356.03215 362.21876 366.90385 372.44996 375.39698 380.94309 386.91969 396.95979 406.99989 412.97648 420.02409 423.21818 428.97428 431.9213 437.4674 443.65403 446.8481 450.0422 455.58833 462.2054">The members of chlorophyceae are commonly called </tspan></text>
<text fill="#231f20" xml:space="preserve" transform="matrix(1 0 -0 1 -18 802.8)" font-size="10.5" font-family="Bookman,Bold" font-weight="bold"><tspan y="-447.3612" x="465.12004 471.2184 476.2668 482.1552 488.0436 495.402 498.6904 505.2088 508.7872 514.8856 521.404">green algae</tspan></text>
<text fill="#231f20" xml:space="preserve" transform="matrix(1 0 -0 1 -18 802.8)" font-size="10.5" font-family="Bookman"><tspan y="-447.3612" x="527.28 530.6657 533.5514 540.1501 547.1793">. The</tspan><tspan y="-433.4412" x="192.96002 199.48923 202.59543 208.69412 215.65383 219.61052 222.0767 228.60591 234.49462 241.02382 246.69202 249.1582 259.1104 265.2091 270.87733 273.3435 279.8727 285.3309 287.7971 294.9668 301.92649 305.03269 310.49089 315.94908 319.05528 322.16148 329.33119 332.43739 338.53608 342 345.3189 347.7878 353.24873 359.14015 362.24906 368.14048 375.10289 378.2118 384.3132 387.42213 389.89103 395.78245 400.38236 402.85127 406.17018 409.27909 412.388 418.4894 428.44435 433.90525 440.86766 444.82707 450.71849 457.8909 463.3518 466.67073 469.13963 475.67155 482.63395 488.09486 493.76576 496.23466 502.33607 506.93598 512.3969 514.86587 522.03829 527.4992 534.67166 540.7731 543.88198 546.99087">plant body may be unicellular, colonial or filamentous. They are usually</tspan><tspan y="-419.52119" x="192.96 198.7057 203.3804 209.55661 215.09232 220.62802 223.17173 228.91742 233.59212 239.12783 244.66353 251.70073 254.24443 260.85115 268.09834 273.63404 276.17774 280.21195 286.17814 288.72184 292.75605 299.79325 305.32896 307.87266 314.47935 320.44554 330.47523 333.6589 340.6961 346.8723 353.90953 359.44523 364.98094 367.52464 373.4908 376.88453 379.42823 386.0349 389.2186 394.9643 404.994 410.5297 417.5669 421.6011 427.1368 429.6805 435.21623 442.25343 445.4371 451.4033 456.078 462.0442 468.65089 475.68809 481.43379 484.61747 487.80116">grass green due to the dominance of pigments chlorophyll </tspan></text>
<text fill="#231f20" xml:space="preserve" transform="matrix(1 0 -0 1 -18 802.8)" font-size="10.5" font-family="Bookman,Italic" font-style="italic"><tspan y="-419.52119" x="490.32 496.40193">a </tspan></text>
<text fill="#231f20" xml:space="preserve" transform="matrix(1 0 -0 1 -18 802.8)" font-size="10.5" font-family="Bookman"><tspan y="-419.52119" x="498.96003 505.11973 512.14047 518.73068">and </tspan></text>
<text fill="#231f20" xml:space="preserve" transform="matrix(1 0 -0 1 -18 802.8)" font-size="10.5" font-family="Bookman,Italic" font-style="italic"><tspan y="-419.52119" x="521.28">b</tspan></text>
<text fill="#231f20" xml:space="preserve" transform="matrix(1 0 -0 1 -18 802.8)" font-size="10.5" font-family="Bookman"><tspan y="-419.52119" x="527.76 531.12576 533.5915 540.17019 547.1794">. The</tspan><tspan y="-405.36119" x="192.96002 199.50524 202.62744 208.31165 218.27986 223.75408 230.72978 234.7025 240.17671 242.65892 248.77364 253.38684 258.86106 261.34327 264.46549 270.3702 275.84443 281.95915 285.08137 288.20359 293.6778 299.152 305.6972 308.1794 311.30165 318.27735 320.75956 327.30476 332.77897 336.11119 339.2334 346.2091 349.33134 353.30406 358.77827 361.26048 366.73469 373.7104 376.8326 382.73735 387.35057 393.25529 399.80049 402.9227 409.0374 414.51164 418.48435 423.95857 427.29078 429.77299 436.31819 443.29389 448.7681 451.2503 456.72453 463.70024 466.82246 472.72718 477.3404 483.24513 489.7903 492.91255 499.02726 504.50148 508.47419 513.94839 516.4306 526.3988 532.5135 538.1977 540.67996 547.22518">pigments are localised in definite chloroplasts. The chloroplasts may be</tspan><tspan y="-391.44117" x="192.96002 199.57552 202.76802 208.31252 213.85701 219.83202 223.02452 229.64002 233.04251 236.5307 243.1462 246.3387 252.5237 256.5667 262.1112 266.3747 269.5672 272.7597 279.3752 284.9197 288.3222 291.8104 296.4939 302.0384 306.0814 309.2739 314.8184 322.0744 325.2669 331.4519 335.4949 341.0394 344.4419 347.93009 353.47459 360.7306 367.3461 371.6096 377.15409 384.20008 390.38508 397.00059 402.54508 409.16059 412.56309 416.05128 421.59577 428.21128 431.40379 436.08729 442.27229 445.46479 448.95298 454.92799 459.61149 463.09968 467.78318 470.97569 477.5912 484.2067 490.1817 497.2277 501.49119 507.03569 514.08169 520.26669 526.88217 532.42666 539.0421 542.53036 545.72286">discoid, plate-like, reticulate, cup-shaped, spiral or ribbon-shaped in</tspan><tspan y="-377.52116" x="192.96002 199.53083 202.67862 206.03643 209.39423 214.89403 219.53282 225.03263 232.03392 236.03223 238.54003 244.03983 250.61063 256.1104 261.6102 264.758 270.25779 275.75758 279.11537 281.62315 291.39646 297.32676 302.82655 306.82484 309.3326 315.2629 318.6207 321.12849 325.12678 332.12809 337.62788 340.13566 350.12947 355.62925 365.62306 372.19386 377.69364 382.33244 387.8322 390.34 397.3413 403.4816 408.98139 414.48118 416.98896 422.91926 429.92057 435.42036 437.92814 443.85844 448.49723 451.005 460.9988 466.9291 471.5679 477.0677 479.57548 485.07527 489.07356 495.00386 499.64265 505.78294 511.49275 516.99258 519.50039 526.07119 532.00149 538.57229 541.7201 547.2199">different species. Most of the members have one or more storage bodies</tspan><tspan y="-363.36116" x="192.96002 198.5048 204.6901 207.88289 211.07569 216.62047 223.23625 225.80155 232.41733 238.17212 242.85591 248.4007 255.44699 261.42228 264.61506 271.23085 276.77565 279.34095 282.53373 288.509 294.0538 300.2391 304.2824 309.8272 316.443 319.0083 322.20109 329.24739 331.81269 335.856 342.90229 348.44709 351.0124 356.5572 363.6035 366.79627 372.77156 377.45533 383.4306 390.0464 393.23918 399.42448 404.96928 409.01258 414.55738 417.96018 420.52549 427.14128 432.89607 437.57984 443.12464 450.17094 456.1462 459.339 465.95478 471.49958 474.06489 479.60969 485.58497 492.63127 496.67457 502.85987 506.05265 513.09896 515.66427 522.28 526.9638 532.9391 536.98239 542.52719 545.72">called pyrenoids located in the chloroplasts. Pyrenoids contain protein</tspan><tspan y="-349.44114" x="192.96002 199.57552 205.12001 210.6645 213.85701 220.4725 226.017 231.5615 234.99729 240.54178 244.58478 250.76978 255.45328 260.99778 268.04377 271.44627 274.88206 281.92805 287.90306 297.94157 303.48606 306.92185 313.10685 316.29936 322.05384 328.23884 333.78334 337.21913 347.25764 353.44264 359.1971 362.6329 368.1774 372.2204 378.1954 382.8789 388.4234 391.8592 395.2617 401.2367 407.2117 413.8272 417.263 420.4555 427.5015 430.9373 434.9803 442.02629 447.57078 451.00657 454.40907 460.38407 465.06758 475.10609 478.54188 484.51689 487.91938 491.35517 497.33018 500.52268 503.71519 507.15098 513.7665 518.44998 524.4249 531.0404 534.2329 539.7774 543.82046 549.3649">besides starch. Some algae may store food in the form of oil droplets.</tspan><tspan y="-335.52113" x="192.96002 201.19742 205.58132 210.82622 216.07112 222.81752 225.07042 230.95583 233.84873 239.30362 245.18903 250.43393 252.68683 259.64323 264.88813 271.8445 277.72993 280.62284 283.51576 288.97065 291.22355 297.96995 303.85536 309.10026 314.34516 316.59806 322.48347 324.73637 329.12028 332.01319 337.46809 340.361 346.67689 348.92979 354.17469 359.4196 362.3125 365.2054 367.4583 375.48573 381.37113 384.26405 387.15696 389.40986 399.14875 405.03416 411.35005 416.59495 418.84785 424.52326 427.62617 429.87907 435.76448 442.51087 444.76377 447.65669 454.40309 461.14949 466.39439 470.7783 473.0312 475.9241 481.8095 487.2644 492.5093 496.89323 499.14613 504.82154 507.92445 510.17735 515.42227 520.6671 523.56 526.4529 533.4093 536.3022 541.9776 547.2225">Green algae usually have a rigid cell wall made of an inner layer of cellulose</tspan><tspan y="-321.3611" x="192.96002 199.08594 206.07285 212.62926 215.12267 221.24858 228.23549 230.7289 236.6448 243.84172 247.82564 253.31105 257.93547 260.42887 263.5623 269.6882 275.3836 280.86903 285.49345 287.98686 293.90278 297.2462 299.7396 306.296 311.7814 317.2668 321.25074 327.16667 332.65208 338.13749">and an outer layer of pectose.</tspan><tspan y="-307.4411" x="210.96002 217.20003 222.91512 228.84021 234.5553 238.76889 245.12448 249.33808 252.70116 258.41627 264.13136 269.40443 274.2585 279.9736 286.7597 291.6138 297.7594 304.5455 311.9721 317.6872 321.9008 325.2639 331.4095 338.62608 343.89915 351.32575 357.04084 364.46745 370.82304 374.18614 377.54924 383.4743 388.74739 392.96098 399.31657 406.10267 411.81776 417.53285 422.8059 429.592 432.9551 439.3107 445.0258 450.74089 456.01396 462.80006 468.72514 473.9982 477.5713 482.42539 488.78099 494.70606 504.91514 510.63023 517.8468 522.06039 528.41598 532.6295 535.9926 542.1382 549.3548">Vegetative reproduction usually takes place by fragmentation.</tspan><tspan y="-293.5211" x="192.96002 201.36002 207.42852 213.49701 219.996 227.776 234.485 238.2015 243.828 249.0355 255.104 262.2435 267.451 273.94999 281.08949 288.86949 294.938 299.50498 303.22148 309.72047 317.29048 322.91697 326.63346 332.70198 338.32847 345.46797 351.74647 357.37297 361.29948 365.01597 371.72499 378.00349 384.072 387.78849 391.50498 398.214 402.78099 408.8495 415.98899 421.61549 427.25349 434.16004 440.65705 446.72355 453.86106 460.35807 465.56358 471.63008 477.69657 483.32106 490.45857 495.66407 502.16108 509.29859 517.0766 523.1431 529.20968 536.34719 541.9717 545.68618">Asexual reproduction is by flagellated zoospores produced in</tspan><tspan y="-279.36109" x="192.96004 198.01235 203.92565 209.83895 215.32175 221.87555 227.78885 232.41065 238.53395 245.51825 251.21105 254.34185 260.46516 263.80595 266.29673 272.85054 279.83485 285.31764 287.8084 293.2912 298.774 304.6873 311.8816 318.00489 321.13569 323.62648 328.24827 333.73106 340.28486 344.90666 350.81996 357.37376 364.56806 370.05085 374.03215 377.16294 383.07624 390.06056 392.55134 398.03413 405.01844 410.93174 419.19703 424.6798 427.1706 432.65339 438.56669 445.551 451.03379 454.16459 460.71839 466.20118 470.82298 476.94627 483.50007 486.63087 492.11366 494.60444 500.08723 506.2105 510.8323 513.96316 520.0864 524.06777 527.19857 533.1119 540.0962 542.58706 545.71786">zoosporangia. The sexual reproduction shows considerable variation in</tspan><tspan y="-265.44108" x="192.96004 197.42923 204.90142 210.8721 216.40079 220.86998 227.05068 234.09236 240.06305 245.59174 252.20293 259.6751 266.7168 272.24549 276.0742 282.47538 287.58506 298.04975 304.66096 309.13014 312.7488 319.15 326.6222 332.15089 338.55207 342.38078 347.90946 353.88017 359.85087 366.25205 371.78074 377.75144 383.72215 387.34083 390.9595 396.9302 402.4589 409.07008 416.54228 423.58396 429.11265 432.73133 437.2005 442.7292 453.19389 459.80506 465.98576 471.51445 478.55613 484.52684 490.0555 493.6742 499.6449 506.04609 512.22677 518.83798 529.3026 535.7038 543.386 549.3567">the type and formation of sex cells and it may be isogamous,</tspan><tspan y="-251.52108" x="192.96004 199.14424 206.18944 209.38114 214.92484 220.89904 226.65274 232.83695 242.87465 248.84885 256.10404 261.64775 266.23063 272.20484 276.88755 281.47044 287.44465 293.41886 299.17256 305.35676 315.39445 321.36866 328.62385 334.16755 337.56925 342.15214 349.19734 355.17155 365.20924 370.75294 375.33583 380.87953 386.85374 396.89143 406.9291 412.90333 419.94853 423.14024 428.89393 433.4768 436.8785 442.85273 450.1079 457.1531 463.76783 468.3507 474.1044 478.7871 484.3308 489.8745 496.9197 501.5026 507.6868 510.8785 516.6322 522.8164 528.3601 532.943 539.1272 543.8099 549.3536">anisogamous or oogamous. Some commonly found green algae are:</tspan></text>
<text fill="#231f20" xml:space="preserve" transform="matrix(1 0 -0 1 -18 802.8)" font-size="10.5" font-family="Bookman,Italic" font-style="italic"><tspan y="-237.36107" x="192.96004 200.73513 207.67021 210.8253 216.9204 226.79549 232.47058 238.98567 244.87076 254.74585 260.63096 267.56605 273.66114 279.12623">Chlamydomonas,</tspan></text>
<text fill="#231f20" xml:space="preserve" transform="matrix(1 0 -0 1 -18 802.8)" font-size="10.5" font-family="Bookman"><tspan y="-237.36107" x="282.48005"> </tspan></text>
<text fill="#231f20" xml:space="preserve" transform="matrix(1 0 -0 1 -18 802.8)" font-size="10.5" font-family="Bookman,Italic" font-style="italic"><tspan y="-237.36107" x="285.60005 292.08006 297.99046 301.17085 306.66123 312.57164 318.48204">Volvox,</tspan></text>
<text fill="#231f20" xml:space="preserve" transform="matrix(1 0 -0 1 -18 802.8)" font-size="10.5" font-family="Bookman"><tspan y="-237.36107" x="321.84007"> </tspan></text>
<text fill="#231f20" xml:space="preserve" transform="matrix(1 0 -0 1 -18 802.8)" font-size="10.5" font-family="Bookman,Italic" font-style="italic"><tspan y="-237.36107" x="324.96006 333.14588 336.2917 342.1675 346.15333 353.07914 357.69496 360.84077 366.71659 370.0724 373.1282 380.05403 386.5598 389.70564 394.56007 400.41807 406.06608 411.71409 416.31208">Ulothrix, Spirogyra</tspan></text>
<text fill="#231f20" xml:space="preserve" transform="matrix(1 0 -0 1 -18 802.8)" font-size="10.5" font-family="Bookman"><tspan y="-237.36107" x="422.40007 425.53068 431.74378 438.81788 445.46147"> and </tspan></text>
<text fill="#231f20" xml:space="preserve" transform="matrix(1 0 -0 1 -18 802.8)" font-size="10.5" font-family="Bookman,Italic" font-style="italic"><tspan y="-237.36107" x="448.32008 456.0857 463.0113 469.0969 473.7125 479.7981 482.85374">Chara (</tspan></text>
<text fill="#231f20" xml:space="preserve" transform="matrix(1 0 -0 1 -18 802.8)" font-size="10.5" font-family="Bookman"><tspan y="-237.36107" x="486.00007 492.72007 495.90788 501.65769 508.909 513.5878 519.1276 522.1755 528.7863 532.18417 538.795 544.9753">Figure 3.1a)</tspan></text>
<text fill="#231f20" xml:space="preserve" transform="matrix(1 0 -0 1 -18 802.8)" font-size="10.5" font-family="Bookman,Italic" font-style="italic"><tspan y="-237.36107" x="548.1631">.</tspan></text>
<text fill="#00aeef" xml:space="preserve" transform="matrix(1 0 -0 1 -18 802.8)" font-size="12" font-family="Bookman,Bold" font-weight="bold"><tspan y="-211.44107" x="192.96009 201.00008 205.44007 213.48006 217.92005 238.08008 246.13127 254.66246 262.23365 269.08485 276.41603 284.4672 292.99839 300.08958 306.94078 313.79197 321.36317">3.1.2Phaeophyceae</tspan></text>
<text fill="#231f20" xml:space="preserve" transform="matrix(1 0 -0 1 -18 802.8)" font-size="10.5" font-family="Bookman"><tspan y="-191.52108" x="192.96009 199.57239 206.61519 212.1565 215.2858 225.32109 230.8624 240.89769 247.51 253.0513 257.7316 263.2729 266.4022 272.374 275.7733 278.9026 285.5149 292.55769 298.73948 304.28077 310.25257 316.86488 323.90766 329.65898 335.20027 340.74156 346.92335 352.46464 355.59394 361.56575 366.24604">The members of phaeophyceae or </tspan></text>
<text fill="#231f20" xml:space="preserve" transform="matrix(1 0 -0 1 -18 802.8)" font-size="10.5" font-family="Bookman,Bold" font-weight="bold"><tspan y="-191.52108" x="369.6001 376.5275 381.5649 387.86235 396.46977 403.81718 407.2946 413.802 417.36943 423.45683 429.96424">brown algae</tspan></text>
<text fill="#231f20" xml:space="preserve" transform="matrix(1 0 -0 1 -18 802.8)" font-size="10.5" font-family="Bookman"><tspan y="-191.52069" x="435.8413 438.954 445.13673 449.81794 455.36015 458.47285 461.87306 467.84574 475.09944 482.14314 488.75633 491.86903 498.4822 503.16343 506.3536 516.38986 522.5725 527.2537 530.4439 533.6341 539.3863 542.499 545.6892"> are found primarily in</tspan><tspan y="-177.36069" x="192.96031 202.90613 208.99845 213.58925 216.68906 223.64237 229.09418 231.55399 238.5073 244.59961 251.12242 254.22223 258.17256 264.26487 268.21519 273.667 276.9768 279.4366 285.9594 292.91273 298.36454 304.02635 306.48616 311.93797 318.89128 324.7736 333.0079 335.4677 341.12953 345.72035 351.17216 357.26448 361.21479 363.6746 369.1264 375.21873 379.80955 382.90937 389.00169 392.952 396.05183 401.93415 408.88746 411.34727 414.44709 421.4004 423.8602 429.312 432.41184 437.43315 442.88496 445.34477 451.43708 458.39039 464.91319 467.373 470.6828 476.56513 481.15596 491.10176 494.41157 496.87138 503.39418 510.34748 515.79928 521.46109 523.9209 528.5117 534.604 541.5573 547.2191">marine habitats. They show great variation in size and form. They range</tspan><tspan y="-163.44069" x="192.96031 196.3652 201.05109 207.02848 217.06937 222.10427 227.65116 230.84604 240.88694 247.50482 250.6997 256.24659 261.28147 267.89936 272.58525 278.7726 285.821 291.36793 298.41633 303.9632 310.5811 313.98597 319.02085 322.42573 325.6206 328.8155 335.00288 345.04377 350.59065 357.63905 361.68443 367.6618 374.9202 380.4671 385.50199 388.90687 394.88426 399.57014 409.61103 415.1579 420.19279">from simple branched, filamentous forms (</tspan></text>
<text fill="#231f20" xml:space="preserve" transform="matrix(1 0 -0 1 -18 802.8)" font-size="10.5" font-family="Bookman,Italic" font-style="italic"><tspan y="-163.44069" x="423.3603 430.9109 436.3615 440.34214 446.21275 451.66337 457.74397 462.35456 468.85517 475.98579">Ectocarpus</tspan></text>
<text fill="#231f20" xml:space="preserve" transform="matrix(1 0 -0 1 -18 802.8)" font-size="10.5" font-family="Bookman"><tspan y="-163.44069" x="481.4353 484.6282 489.6811 493.7245 499.6999 504.75279 511.36869 516.0526 522.028 525.4309 532.6873 538.23226 543.77719 546.97006">) to profusely</tspan><tspan y="-149.52069" x="192.9603 199.578 204.2637 210.4509 217.4991 223.0458 230.09401 235.64072 242.25843 245.34954 248.75423 254.73143 259.41716 269.45787 275.00456 278.09565 284.28285 289.82954 292.92063 297.60633 303.153 309.77073 314.45643 320.0031 325.5498 331.0965 338.14469 342.18989 347.73658 354.35429 357.44538 364.06309 369.8198 372.9109 379.5286 385.0753 388.27 394.8877 400.4344 403.83909 406.93019 415.25938 422.30757 425.50227 431.04896 438.09715 441.18824 451.22895 457.41615 463.17286 466.26396 470.94966 476.49635 482.68354 488.23023 495.2784 498.3695 504.5567 507.6478 514.696 520.2427 523.4374 529.1941 536.2423 540.28756 543.37869 549.35586">branched forms as represented by kelps, which may reach a height of</tspan><tspan y="-135.36069" x="192.9603 199.3692 205.7781 212.18701 214.5329 224.36479 229.7027 233.5391 238.01599 243.3539 248.6918 251.8877 254.23358 260.6425 267.48188 272.81977 278.36769 280.71357 287.12248 292.89088 298.22877 303.56666 308.90455 314.24244 319.58033 321.9262 327.2641 334.1035 337.0894 342.8578 347.3347 353.1031 359.512 366.35139 371.8993 374.8852 377.8711">100 metres. They possess chlorophyll </tspan></text>
<text fill="#231f20" xml:space="preserve" transform="matrix(1 0 -0 1 -18 802.8)" font-size="10.5" font-family="Bookman,Italic" font-style="italic"><tspan y="-135.36069" x="380.16029">a</tspan></text>
<text fill="#231f20" xml:space="preserve" transform="matrix(1 0 -0 1 -18 802.8)" font-size="10.5" font-family="Bookman"><tspan y="-135.36069" x="386.16029 389.36979">, </tspan></text>
<text fill="#231f20" xml:space="preserve" transform="matrix(1 0 -0 1 -18 802.8)" font-size="10.5" font-family="Bookman,Italic" font-style="italic"><tspan y="-135.36069" x="391.68028">c</tspan></text>
<text fill="#231f20" xml:space="preserve" transform="matrix(1 0 -0 1 -18 802.8)" font-size="10.5" font-family="Bookman"><tspan y="-135.36069" x="396.96028 400.15437 402.49845 407.83454 413.81114 418.28623 424.05284 427.88743 433.2235 440.0611 445.8277 448.8118 455.2189 460.555 462.89909 468.87568 475.71327 482.12037 484.46446 490.23106 496.20765 503.04524 506.87983 513.7174 519.484 525.8911 532.7287 538.2748 541.25888 544.2429 549.57907">, carotenoids and xanthophylls.</tspan><tspan y="-121.44069" x="192.96027 199.32828 206.12679 211.4238 216.9308 219.23581 224.53282 230.47034 234.90634 240.41335 242.71836 245.66336 252.46187 254.76688 260.06388 265.79139 268.7364 274.4639 281.4724 285.90843 288.2134 291.3684 295.8044 301.53193 311.32295 313.62794 319.35545 322.30046 325.24546 330.54246 335.83946 338.14445 343.65147 348.08747 353.38447 358.68147 365.47999 367.78498 371.58049 377.30799 379.61299 384.90998 390.84748 395.28349 398.2285 403.956 410.9645 416.2615 418.5665 423.8635 430.66203 436.59953 442.96754 448.26454 453.56153 455.86653 461.59403 464.74903 467.05403 473.42204 477.85804 483.58555 491.66505 498.46357 500.76856 507.13658 512.4336 518.8016 524.0986 530.8971 537.2651 540.2101 547.0086">They vary in colour from olive green to various shades of brown depending</tspan><tspan y="-107.52069" x="192.96027 200.21576 206.83077 212.80527 219.85077 223.19167 227.23416 234.27967 239.82367 243.16457 249.34906 259.38706 265.36155 272.61705 279.66255 283.70506 287.04597 293.02046 296.42247 299.76338 303.80589 310.85139 316.3954 319.7363 325.7108 331.8953 338.9408 342.9833 350.0288 356.0033 362.6183 369.6638 375.4178 378.60978 381.80177 385.14268 391.75767 394.94966 400.70365 410.74165 416.28565 423.33116 427.37367 430.77568 434.11659 437.5186 444.77409 450.31809 456.29258 462.26707 468.45158 475.49708 479.53959 486.58509 489.77708 496.82258 500.16349 506.77848 511.4615 517.0055 522.5495 528.0935 535.139 539.18148 542.52236 545.71438">upon the amount of the xanthophyll pigment, fucoxanthin present in</tspan></text>
<g clip-path="url(#clip_12)">
<text xml:space="preserve" transform="matrix(1 0 -0 1 259.314 763.99978)" font-size="8" font-family="Arial"><tspan y="6.316" x="0"> </tspan></text>
</g>
</g>
</svg>
