<svg xmlns="http://www.w3.org/2000/svg" xmlns:xlink="http://www.w3.org/1999/xlink" xmlns:inkscape="http://www.inkscape.org/namespaces/inkscape" version="1.1" width="576" height="784.8" viewBox="0 0 576 784.8">
<defs>
<clipPath id="clip_6443">
<path transform="matrix(1,0,0,-1,-18,802.8)" d="M18 18H594V802.8H18Z" clip-rule="evenodd"/>
</clipPath>
<clipPath id="clip_6444">
<path transform="matrix(1,0,0,-1,259.314,763.99978)" d="M0-8H57.372V.800049H0Z"/>
</clipPath>
</defs>
<g clip-path="url(#clip_6443)">
<path transform="matrix(.24,0,0,-.24,-18,802.8)" d="M2 2H2548V214.67H2Z" fill="#cbdf7f" fill-rule="evenodd"/>
<path transform="matrix(.24,0,0,-.24,-18,802.8)" stroke-width="4" stroke-linecap="butt" stroke-miterlimit="1000" stroke-linejoin="miter" fill="none" stroke="#cbdf7f" d="M2 2H2548V214.67H2Z"/>
<path transform="matrix(.24,0,0,-.24,-18,802.8)" d="M0 3035.83H2550V3372.7003H0Z" fill="#d1d3d4" fill-rule="evenodd"/>
<path transform="matrix(.24,0,0,-.24,-18,802.8)" d="M0 3078.33H2550V3420H0Z" fill="#e1ecb6" fill-rule="evenodd"/>
<path transform="matrix(.24,0,0,-.24,62.6362,53.63501)" d="M0 0C7.32 7.32 16.16 10.98 26.52 10.98H97.35C107.71 10.98 116.55 7.32 123.87 0 131.19-7.33 134.85-16.17 134.85-26.52V-101.52C134.85-111.88 131.19-120.72 123.87-128.04 116.55-135.36 107.71-139.02 97.35-139.02H26.52C16.16-139.02 7.32-135.36 0-128.04-7.32-120.72-10.98-111.88-10.98-101.52V-26.52C-10.98-16.17-7.32-7.33 0 0" fill="#ffffff" fill-rule="evenodd"/>
<text fill="#231f20" xml:space="preserve" transform="matrix(1 0 -0 1 -18 802.8)" font-size="11" font-family="Bookman"><tspan y="-729.361" x="87.12 94.26001">30</tspan></text>
<text fill="#231f20" xml:space="preserve" transform="matrix(1 0 -0 1 -18 802.8)" font-size="11" font-family="Bookman"><tspan y="-729.361" x="513.12">B</tspan></text>
<text fill="#231f20" xml:space="preserve" transform="matrix(1 0 -0 1 -18 802.8)" font-size="7.69999" font-family="Bookman"><tspan y="-729.361" x="521.04 523.4336 529.3692 533.76486 539.70046 545.63607">IOLOGY</tspan></text>
<path transform="matrix(.24,0,0,-.24,-18,.35998536)" stroke-width="1" stroke-linecap="butt" stroke-miterlimit="10" stroke-linejoin="miter" fill="none" stroke="#000000" d="M0 0H60"/>
<path transform="matrix(.24,0,0,-.24,.12000084,-18)" stroke-width="1" stroke-linecap="butt" stroke-miterlimit="10" stroke-linejoin="miter" fill="none" stroke="#000000" d="M0 0V-60"/>
<path transform="matrix(.24,0,0,-.24,-18,784.68)" stroke-width="1" stroke-linecap="butt" stroke-miterlimit="10" stroke-linejoin="miter" fill="none" stroke="#000000" d="M0 0H60"/>
<path transform="matrix(.24,0,0,-.24,.12000084,788.16)" stroke-width="1" stroke-linecap="butt" stroke-miterlimit="10" stroke-linejoin="miter" fill="none" stroke="#000000" d="M0 0V-60"/>
<path transform="matrix(.24,0,0,-.24,593.64,784.56)" stroke-width="1" stroke-linecap="butt" stroke-miterlimit="10" stroke-linejoin="miter" fill="none" stroke="#000000" d="M0 0V-75"/>
<text fill="#231f20" xml:space="preserve" transform="matrix(1 0 -0 1 -18 802.8)" font-size="10.5" font-family="Bookman"><tspan y="-688.561" x="192 197.95519 202.65038 208.39557 214.56076 221.56595 227.10114 232.21353 238.37873 243.07392 248.6091 253.7215 260.3067 265.0019 270.9571 277.5423 284.75749 290.29267 295.82786 302.41307 307.52543 313.0606 316.2858 320.35099 327.35618 332.89137 337.58656 342.6989 348.6541 355.6593 360.77168 364.83686 371.84205 377.37724 382.4896 388.02479 394.18998 404.13517 409.67036 414.7827 420.7379 425.4331 430.54548 436.50068 443.50587 448.61824 455.20344 458.42863 461.8638 465.29899 470.83418 475.52937 481.06455 488.06974 492.13493 497.24729 501.31248 508.31767 514.48287 517.70809 520.9333 524.1585 527.5937 532.70608 539.29129 546.29647">organs are produced either on the same or on different thalli. The</tspan><tspan y="-674.39999" x="192 197.4575 203.96501 209.84252 214.46002 220.33753 226.84503 233.77254 239.44004 243.42754 248.88504 251.71755 254.86505 260.32255 263.15507 269.66258 272.81007 276.16758 279.5251 284.98258 289.60008 295.05757 301.98506 305.97254 309.12004 315.20753 319.195 324.6525 331.16 333.99253 337.14 344.0675 348.055 353.9325 356.765 362.8525 365.68504 369.04255 374.92005 380.79756 384.78504 388.14256 390.97508 396.43257 401.89006 405.87754 411.96504 414.79756 420.88505 427.81254 434.32005 437.15257 442.61006 448.69755 455.20506 460.66255 467.80006 470.94755 476.40504 479.76255 482.59507 489.73258 493.0901 497.07759 502.53507 507.15257 509.98509 519.8526 525.3101 528.45767 534.33517 539.79269 542.9402 548.3977">sporophyte is differentiated into a foot, seta and capsule. After meiosis,</tspan><tspan y="-660.48098" x="192 197.4232 203.89641 209.73961 214.32282 219.74602 225.16922 227.65741 233.71062 238.29383 243.71703 246.20522 252.67842 257.26164 263.10484 269.57804 276.68125 282.10444 287.52763 294.00083 296.48905 304.64225 307.75544 311.70863 318.6018 321.715 328.6082 331.0964 335.0496 341.94279 347.36598 349.8542 355.27738 361.33058 367.80378 373.22697 380.33018 383.44337 388.86656 392.18977 394.67799 401.15119 408.04438 413.46757 418.89076 424.31394 426.80216 432.22535 438.69856 444.54176 449.12495 454.54814 459.9713 462.45954 468.09275 473.51594 478.09913 487.9323 491.0455 497.9387 503.99189 507.94508 513.3683 515.85647 519.80966 525.65286 528.141 531.4642 537.3074 541.89059">spores are produced within the capsule. These spores germinate to form</tspan><tspan y="-646.561" x="192 195.2992 199.8584 205.2576 210.6568 214.796 217.88521 220.97441 226.37361 229.46282 236.33202 241.94123 244.39041 249.99962 256.0288 265.838 271.2372 275.1664 280.98564 287.4348 294.30403 299.9132 303.8424 309.2416 314.6408">free-living gametophytes.</tspan></text>
<text fill="#00aeef" xml:space="preserve" transform="matrix(1 0 -0 1 -18 802.8)" font-size="12" font-family="Bookman"><tspan y="-620.39999" x="192 199.8 203.76001 211.56002 215.52002 235.2 246.48 253.92 260.16 266.4 273.36">3.2.2Mosses</tspan></text>
<text fill="#231f20" xml:space="preserve" transform="matrix(1 0 -0 1 -18 802.8)" font-size="10.5" font-family="Bookman"><tspan y="-600.48098" x="192 198.3231 205.06621 210.33931 212.67401 218.99712 223.43022 228.70333 235.02643 240.71953 250.40264 253.36574 260.10884 266.01194 272.75505 276.55815 278.89286 284.16596 287.96907 293.87217 299.35527 304.62837 306.96308 312.6562 315.82929 318.164 321.9671 328.7102 333.9833 336.31803 339.28114 342.24424 345.41734 350.69044 353.02516 358.29826 363.78135 369.05445 372.01756 377.29066 379.62538 385.31849 388.49159 390.8263 396.7294 399.06413 408.74723 414.4403 419.7134 424.9865 427.32124 430.28434 435.55744 437.89216 441.69526 448.43836 453.71147 456.04618 461.52928 467.43238 477.11549 482.38859 486.19169 491.88478 498.20787 504.95097 510.43406 514.2371 519.5102 521.8449 529.848 536.5911 539.5542 544.8273">The predominant stage of the life cycle of a moss is the gametophyte which</tspan><tspan y="-586.561" x="192 197.4552 203.3304 210.2556 215.7108 218.856 224.3112 228.2964 233.7516 237.78459 243.65979 247.01499 251.04798 255.03318 263.21839 269.0936 273.1266 278.5818 282.567 288.6522 294.31739 299.77259 305.22779 308.58299 312.61598 319.12117 326.04637 331.50157 335.53456 338.88975 342.03495 346.65016 352.10536 356.09056 360.12355 365.57875 369.56394 375.64915 381.31434 386.76954 390.80253 393.94773 399.40293 403.4359 407.4211 414.3463 419.8015">consists of two stages. The first stage is the </tspan></text>
<text fill="#231f20" xml:space="preserve" transform="matrix(1 0 -0 1 -18 802.8)" font-size="10.5" font-family="Bookman"><tspan y="-586.561" x="423.83399 430.5315 435.339 441.82649 446.63398 453.12147 460.23896 466.30647 476.78398">protonema</tspan></text>
<text fill="#231f20" xml:space="preserve" transform="matrix(1 0 -0 1 -18 802.8)" font-size="10.5" font-family="Bookman"><tspan y="-586.561" x="483.12 487.18577 492.65156 496.64735 502.74314 508.4189 513.8847 517.2505 521.3163 529.5121 536.4479 539.60366 545.06948"> stage, which</tspan><tspan y="-572.39999" x="192 198.5037 203.9574 209.4111 214.8648 218.00852 223.88222 230.38593 235.83963 240.26602 246.76972 249.91342 254.52712 259.9808 265.4345 269.4182 272.56193 278.22563 282.652 286.0057 290.61943 296.4931 306.3568 310.7832 316.8669 321.2933 326.747 333.2507 339.1244 343.7381 349.1918 352.5455 356.9719 360.53559 364.5193 368.94569 372.0894 377.5431 381.96949 388.0532 392.47959 397.9333 402.547 408.0007 413.4544 419.9581 423.1018 430.0255 435.6892 439.0429 443.4693 449.133 453.7467 459.2004 464.6541 471.57783 474.93153 479.3579 485.8616 490.4753 496.55903 503.48274 508.93644 515.8601 521.3138 527.8175 532.2439 538.3276 545.2513">develops directly from a spore. It is a creeping, green, branched and</tspan><tspan y="-558.48098" x="192 195.3189 199.8978 205.3167 211.3656 218.46451 223.8834 230.77231 234.7212 237.83011 243.45902 245.94042 249.25931 252.36821 255.47711 261.526 271.3549 276.7738 283.6627 287.6116 293.4505 300.5494 305.96833 308.44975 313.86866 317.81758 323.86647 329.49537 334.91429 338.2332 340.7146 347.1835 354.0724 359.4913 361.97273 367.39164 372.81056 378.22947 384.06837 390.95726 397.42616 399.90757 405.32649 409.2754 415.32429 420.9532 426.3721 428.85353 431.9624 437.38133 439.86274 443.81166 450.70054 456.11946">frequently filamentous stage. The second stage is the </tspan></text>
<text fill="#231f20" xml:space="preserve" transform="matrix(1 0 -0 1 -18 802.8)" font-size="10.5" font-family="Bookman"><tspan y="-558.48098" x="458.64 462.15504 468.19004 474.22505 478.16004 484.61506 487.18009 492.58509 497.3601 503.3951 509.4301">leafy stage</tspan></text>
<text fill="#231f20" xml:space="preserve" transform="matrix(1 0 -0 1 -18 802.8)" font-size="10.5" font-family="Bookman"><tspan y="-558.48098" x="515.52 518.8317 521.29348 529.4352 536.3169 539.4186 544.83029">, which</tspan><tspan y="-544.561" x="192.00003 198.46485 203.87966 209.29447 214.70928 217.81409 223.6489 230.11371 235.52852 238.00702 241.32183 245.89664 251.73145 261.55625 264.03477 267.97959 274.86439 280.2792 282.75773 288.17256 293.58738 299.0022 304.837 311.7218 318.1866 324.2314 328.8062 334.43104 336.90956 343.37437 347.94917 353.78398 357.7288 363.5636 370.4484 375.86323 385.68803 391.73283 394.21134 400.25614 405.67097 408.14949 414.19429 416.6728 419.7776 425.8224 429.7672 435.18205 439.75685 445.80165 448.90644 451.38496 457.84977 464.94459 471.4094 474.7242 477.20274 483.66755 490.55235 495.96717 501.59199 504.0705 509.48533 515.3201 522.20498 527.61978 530.72457 536.13937 540.08419 542.5627 548.3975">develops from the secondary protonema as a lateral bud. They consist of</tspan><tspan y="-530.39999" x="192.00003 199.04694 205.46385 209.99077 213.04769 218.62459 225.4615 229.35842 232.62532 235.05335 240.42026 243.47718 248.84409 255.681 262.0979 267.4648 271.99174 274.41975 280.41667 286.20356 291.57048 296.93739 299.3654 305.7823 311.1492 317.14613 321.67304 324.72996 331.56687 337.14378 339.57179 344.9387 351.3556 354.4125 358.93943 364.93635 367.99327 371.05018 376.62709 379.05509 385.052 389.57893 394.10585 400.10276 406.93968 412.51658 417.88349 424.30039 426.7284 429.7853 435.15223 441.14915 446.51606 451.88298 457.24989 460.51679 462.9448 469.3617 476.1986 481.56553 487.14244 489.57044 495.56736 500.09428 505.46119 507.8892 513.8861 517.783 521.67996 527.6768 533.0437 539.8806 545.2475">upright, slender axes bearing spirally arranged leaves. They are attached</tspan><tspan y="-516.48098" x="192.00003 195.91974 201.72945 204.18415 208.10385 214.96356 220.35327 222.80797 228.19768 234.00739 237.0871 240.16681 242.6215 246.54122 253.40093 257.95063 263.76036 270.83006 276.42976 283.28947 285.74418 295.54389 302.6136 305.6933 309.613 312.69273 318.08244 323.47215 326.55186 329.63157 336.70127 339.78099 345.8007 350.3504 352.8051 358.82484 365.68455 372.12425 374.57896 381.01866 385.56837 391.58808 398.44779 403.8375 410.6972 416.0869 422.5266 424.98133 429.53105 436.39076 439.47047 444.44017 450.24989 453.3296 459.7693 465.159 468.4487 470.9034 477.3431 484.20283 487.28254 492.67225 495.12696 500.51667 504.43638 510.4561 516.0558 521.4455 523.9002 530.3399 535.7296 541.7493 546.299">to the soil through multicellular and branched rhizoids. This stage bears</tspan><tspan y="-502.56095" x="192.00003 195.96004 202.86005 208.29006 210.79508 216.22509 221.65509 227.5051 230.01012 235.86013 240.45014 246.09015 252.15016 259.05018 264.4802">the sex organs.</tspan><tspan y="-488.39994" x="210.00003 216.72003 222.17954 227.84903 233.30854 237.29804 243.38755 247.37705 250.52655 255.98606 261.44557 264.18006 268.56004 274.00505 280.50007 285.36003 291.23753 297.74504 304.88255 310.34004 314.3275 317.475 323.3525 330.28 333.0125 336.16 343.0875 345.82 355.6875 361.565 367.0225 372.47999 377.93748 383.39497 386.12748 389.27497 394.73246 397.46498 403.97248 409.63999 412.3725 415.73 420.3475 426.435 432.1025 441.97 447.4275 454.35499 458.34248 464.42997 468.41746 471.56495 477.44245 484.36994 487.10246 493.18995 500.11744 506.62495 509.35746 515.8649 523.00247 529.50997 536.01748 539.165 546.09249">Vegetative reproduction in mosses is by fragmentation and budding</tspan><tspan y="-474.48094" x="192.00002 195.14882 202.07762 206.70862 210.69742 217.62622 223.08502 227.71602 233.17482 238.63362 244.09243 249.97122 256.90003 263.4088 269.49763 274.11643 279.78523 284.4162 290.925 295.5438 301.4226 305.4114 311.29023 318.21903 323.67784 333.54664 339.63545 342.99424 347.6252 351.194 358.1228 362.75379 368.2126 373.6714 379.5502 386.689 392.7778 395.9266 400.5576 405.1764 410.6352 417.14399 421.7628 427.6416 434.1504 441.28919 446.748 450.7368 453.8856 459.7644 466.6932 470.052 474.68299 478.67179 485.6006 491.0594 495.69038 501.14918 506.60798 512.48678 517.1178 522.9966 527.61538 533.2842 539.373 546.30178">in the secondary protonema. In sexual reproduction, the sex organs</tspan><tspan y="-460.5609" x="192.00002 198.08931 205.01862 209.00792 215.93723 221.39653 226.01583 229.16513 235.67444 238.82375 244.91304 247.64965 253.73894 260.66825 267.17756 269.91419 276.00349 280.62278 286.08207 293.01136 298.47065 304.13996 310.01927 316.94856 320.09785 326.18714 328.92378 335.01307 339.63236 345.09165 347.82829 354.3376 358.95689 364.83619 371.3455 378.4848 383.9441 389.40339 395.9127 398.64933 404.73863 408.7279 411.46455 415.45384 422.38313 427.8424 430.57905 436.66835 443.17765 448.63694 454.51625 457.25288 463.13218 466.4915 469.22813 473.2174 480.1467 485.606 488.34263 491.4919 496.9512 503.0405 506.3998 512.0691 514.8057 520.265 527.19436 533.0736 538.9529 542.9422 548.4015">antheridia and archegonia are produced at the apex of the leafy shoots.</tspan><tspan y="-446.3999" x="192.00002 199.13861 202.49721 206.48581 211.94441 216.56302 219.34662 222.70522 228.16382 232.78243 236.77103 239.91963 243.06824 246.21685 251.67545 257.76405 261.75263 264.9012 270.77983 277.7084 281.06703 283.85066 287.83924 294.76783 300.2264 303.01005 308.04866 313.71726 319.38587 325.26448 329.25306 334.71165 337.49528 344.00389 349.46247 354.92106 360.37965 363.52824 369.40684 375.91545 381.37403 384.15766 387.30625 394.23484 398.22343 404.10203 406.88566 412.97425 415.75788 421.21647 427.72508 433.60368 438.22227 444.10087 450.60948 457.53807 463.20668 467.19526 472.65385 476.01246 478.79609 484.25468 490.13328 497.06187 502.52046 505.66905 511.12763 515.1162 518.26486 525.1934 530.862 533.64559 539.5242 542.88278 545.6663">After fertilisation, the zygote develops into a sporophyte, consisting of a</tspan><tspan y="-432.4809" x="192.00002 195.32093 201.16184 207.00275 210.95366 214.27457 216.75917 222.18009 227.601 231.55191 237.60282 240.08742 246.13832 253.02924 259.50016 261.98478 267.40568 273.45658 279.9275 285.3484 292.4493 295.5602 300.9811 304.30204 306.78666 313.25758 320.14848 325.56938 328.054 333.47489 339.9458 345.7867 350.3676 356.20854 362.67945 369.57035 375.20127 379.15217 384.57307 387.05769 390.16859 397.05949 399.5441 409.375 415.2159 420.6368 426.0577 431.4786 436.8995 439.38414 442.49504 447.91593 450.40055 460.23146 466.07237 470.65327 476.07417 478.55879 483.97969 487.09059 493.14149 499.6124 505.4533 510.0342 516.08517 520.0361 525.457 527.9416 531.8925 538.78347 544.83438">foot, seta and capsule. The sporophyte in mosses is more elaborate than</tspan><tspan y="-418.56089" x="192.00002 195.98693 202.91384 209.00075 212.98766 215.63455 218.78147 225.70838 228.35527 231.50218 234.6491 240.106 245.56291 250.17983 258.36674 264.24366 268.86058 272.84748 278.30439 281.6613 284.3082 290.8151 297.742 303.1989 305.84584 311.30274 317.38966 323.89656 329.35346 336.49037 339.63728 345.09419 347.7411 353.198 359.07493 366.00184 369.98875 376.07566 379.22257 386.14949 391.60639 394.2533 399.7102 406.2171 412.09403 416.71095 422.16786 427.62477 430.98167 433.62858 440.55549 447.06239 452.9393 457.5562 463.01313 468.47004 471.11695 477.20387 481.82078 487.27769 489.9246 493.2815 499.15843 503.77534 513.6422 519.0991 525.606 528.2529 534.33987 537.6968 541.6837 547.1406">that in liverworts. The capsule contains spores. Spores are formed after</tspan><tspan y="-404.39988" x="192.00002 201.86583 207.32164 210.46746 216.34326 221.79907 224.94489 230.4007 233.7565 237.24011 243.74593 250.67174 256.12757 259.61119 269.477 275.3528 280.80863 286.26445 291.72026 297.17607 300.65968 307.58549 313.6713 319.1271 324.58293 328.06654 334.15235 341.07817 344.56178 350.01759 353.1634 359.2492 365.755 371.63084 376.24665 382.33247 386.31828 391.77409 395.2577 405.1235 410.5793 416.03514 422.96095 429.04676 435.97257 439.11839 444.5742 454.44 457.9236 463.79945 467.15525 470.63887 476.09468 482.60047 488.4763 493.0921 498.5479 502.03153 508.53733 511.68315 517.1389 523.6447 529.1005 533.7163 539.1721 545.25796 548.40377">meiosis. The mosses have an elaborate mechanism of spore dispersal.</tspan><tspan y="-390.48088" x="192.00002 199.76453 205.63904 215.50356 225.36808 231.24259 238.1671 240.76161 246.21613 252.09064 258.17515 268.03965 274.54417 277.68867 283.14317 288.59767 291.1922 297.0667 300.42124 303.01579 312.88029 318.7548 324.2093 329.6638 335.1183 340.57279 343.16734 349.25184 353.86634 359.32084">Common examples of mosses are </tspan></text>
<text fill="#231f20" xml:space="preserve" transform="matrix(1 0 -0 1 -18 802.8)" font-size="10.5" font-family="Bookman" font-style="italic"><tspan y="-390.48048" x="361.915 368.662 375.40898 382.15596 388.90293 393.3399 396.5169 403.2639 406.65089 409.28788 415.82487 421.73185 424.90885 431.44584 435.2528 439.6898 442.8668 448.14378 454.89076 461.63774 471.11473">Funaria, Polytrichum </tspan></text>
<text fill="#231f20" xml:space="preserve" transform="matrix(1 0 -0 1 -18 802.8)" font-size="10.5" font-family="Bookman"><tspan y="-390.48048" x="473.52003 479.60673 486.53343 493.04014">and </tspan></text>
<text fill="#231f20" xml:space="preserve" transform="matrix(1 0 -0 1 -18 802.8)" font-size="10.5" font-family="Bookman" font-style="italic"><tspan y="-390.48048" x="495.59703 502.5999 509.1828 515.9757 522.7686 528.9315 535.7244 542.51736">Sphagnum</tspan></text>
<text fill="#231f20" xml:space="preserve" transform="matrix(1 0 -0 1 -18 802.8)" font-size="10.5" font-family="Bookman"><tspan y="-376.56047" x="192.00003 195.13454 201.83904 204.97354 210.62804 217.75254 222.35704 227.80155 230.59604 237.09055 240.43505 246.92955">(Figure 3.2)</tspan></text>
<text fill="#231f20" xml:space="preserve" transform="matrix(1 0 -0 1 -18 802.8)" font-size="10.5" font-family="Bookman" font-style="italic"><tspan y="-376.56047" x="250.08003">.</tspan></text>
<text fill="#00aeef" xml:space="preserve" transform="matrix(1 0 -0 1 -18 802.8)" font-size="13" font-family="Bookman"><tspan y="-344.40046" x="192.00003 200.47034 204.78064 226.08003">3.3P</tspan></text>
<text fill="#00aeef" xml:space="preserve" transform="matrix(1 0 -0 1 -18 802.8)" font-size="9.1" font-family="Bookman"><tspan y="-344.40046" x="234.48003 240.71933 247.14063 254.10793 257.61723 264.58454 271.73384 277.60914 284.94044 291.17973 297.419 303.8403">TERIDOPHYTES</tspan></text>
<text fill="#231f20" xml:space="preserve" transform="matrix(1 0 -0 1 -18 802.8)" font-size="10.5" font-family="Bookman"><tspan y="-318.48045" x="192.00003 198.50643 205.43283 210.88924 213.80814 220.31453 224.30094 229.75734 234.37374 237.52013 244.02652 249.90293 256.40934 263.33573 269.00215 272.98854 278.44493 283.9013 286.82023 289.9666 296.893 302.3494 305.4958 312.6322 319.1386 324.595 327.51393 334.4403 340.3167 344.9331 350.3895 355.8459 359.83229 365.91868 369.06507 372.21147 377.66786 380.58677 386.67317 393.59956 400.10597 403.02488 406.3813 411.83769 416.45408 423.38047 428.83686 432.19328 435.11219 441.6186 445.60499 451.06138 455.67778 458.82417 465.33058 471.20698 477.71339 484.63978 490.30619 494.29258 499.74897 505.20536 508.12428 514.2107 518.8271 524.2835 527.2024 534.3388 539.7952 545.25167">The Pteridophytes include horsetails and ferns. Pteridophytes are used</tspan><tspan y="-304.56044" x="192.00003 195.14684 200.81365 205.22046 207.53226 217.18907 222.43589 228.7327 231.66951 236.91632 239.85314 246.56995 252.44676 255.38358 257.6954 263.99223 270.91905 275.32585 281.62266 287.28947 292.53627 297.78306 303.02986 305.34169 311.21849 317.93528 324.2321 326.5439 332.42073 337.6675 339.97935 345.22615 350.89295 353.82975 356.76655 360.75337 367.05018 369.98698 376.70378 383.00059 388.24739 392.65419 397.90098 401.0478 403.35963 409.65644 416.37324 421.62004 427.07685 429.38868 435.26548 439.67228 444.91908 447.2309 453.1077 456.0445 461.2913 466.9581 469.26994 472.41676 476.82356 482.07035 487.94715 494.87397 500.12077 506.83757 510.61439 513.5512 519.008 521.31979 526.77658 531.18338 536.85018 544.82699">for medicinal purposes and as soil-binders. They are also frequently grown</tspan><tspan y="-290.40043" x="192.00003 198.08823 203.54644 207.71573 213.59394 218.21213 225.14034 231.22853 241.09673 246.55493 253.48314 257.47135 263.55955 266.70774 272.16593 275.5241 279.69343 287.25163 292.7098 298.588 301.7362 308.87443 312.8626 316.0108 321.889 328.8172 334.9054 339.5236 342.67179 345.81999 351.4882 354.84638 359.0157 363.00389 369.93208 375.39027 381.05848 385.22779 391.31599 395.93418 401.39237 405.56166 409.54985 416.47804 421.93623 426.10554 429.46376 432.61195 437.23014 442.68833 446.6765 450.84584 454.834 460.2922 464.9104 469.5286 474.9868 480.44499 484.43318 489.05137 492.19956 498.28776 501.43595 505.60523 512.1134 515.2616 521.3498 528.278 532.26626 537.7244 541.89376 545.88198">as ornamentals. Evolutionarily, they are the first terrestrial plants to</tspan><tspan y="-276.4804" x="192.00003 198.34745 204.06485 209.36226 214.65967 219.95708 225.25449 230.5519 232.913 238.2104 244.13782 249.43523 254.73264 261.71006 264.69746 270.62486 275.08226 277.44337 281.27079 284.25819 289.5556 294.85304 301.83045 307.12788 312.4253 314.7864 319.8738 322.23493 327.95234 333.45976 336.44715 341.74458 351.45198 353.81309 359.74049 366.50788 372.8553 375.2164 381.5638 388.33125 391.31864 397.03605 402.33348 412.04087 415.23829 417.5994 423.60005 429.31355 436.28706 438.64427 443.93775 450.70124 456.62474 459.60823 462.5917 464.9489 470.2424 474.0659 481.0394 487.3829 492.8864 495.24363 504.9471 510.6606 515.04006 520.35446 522.73257 528.67697 535.0414 540.7758 547.7702">possess vascular tissues &#x2013; xylem and phloem. You shall study more about</tspan><tspan y="-262.5604" x="192.00003 195.98683 202.91364 208.37044 213.82724 219.28404 222.37725 226.36405 229.51085 234.96765 240.42446 247.56125 253.01805 258.47486 261.56809 264.71488 271.64167 274.7349 282.5017 289.4285 295.5153 302.0221 306.00889 311.46568 316.08247 319.1757 325.6825 329.0393 332.13255 338.63935 345.56614 351.02293 354.11616 360.62297 364.60975 370.06654 374.68333 377.8301 384.3369 390.2137 396.72053 403.6473 409.31413 413.3009 418.7577 424.21449 427.3077 433.3945 438.0113 443.46809 446.5613 449.91813 455.79493 462.93174 469.85853 476.36534 479.45857 482.60536 489.53215 492.62538 498.08216 503.95896 509.83576 512.98257 516.33938 519.43258 525.93936 532.0261 541.89297 548.3997">these tissues in Chapter 6. The pteridophytes are found in cool, damp,</tspan><tspan y="-248.40039" x="192.00003 197.45813 204.38623 210.47434 216.98244 222.65055 225.28646 231.79456 234.94266 241.03076 246.48886 251.94696 257.40507 260.04096 264.02906 270.95716 276.83528 283.97337 289.64146 296.56956 299.20545 304.66355 310.54167 320.40977 325.86787 328.50376 338.37187 344.45997 350.12806 352.76396 356.12205 359.27015 365.14826 372.28636 376.90446 380.05256 385.51066 392.43876 395.07466 403.26277 408.72087 411.86897 415.01707 417.65296 420.80107 427.72917 430.36506 435.82316 441.91127 448.83937 455.34745 461.01554 465.21363 470.67173 476.54985 479.69795 482.84605 485.48194 490.94004 496.81816 503.74626 510.25434 513.4024 517.3905 520.5386 526.4167 533.3448 538.8029">shady places though some may flourish well in sandy-soil conditions.</tspan><tspan y="-234.4804" x="210.00003 216.24004 222.23474 229.48944 233.32775 243.31244 249.51714 255.30184 259.1401 263.76005 269.32444 274.88883 281.08323 284.33763 287.592 291.41999 295.51438 302.54878 308.74317 312.83757 316.66554 319.91993 326.9543 330.7823 337.3967 342.1211 347.8955 353.8799 360.49433 367.52873 373.30314 377.39753 382.9619 388.5263 392.35429 396.44868 403.48307 409.04747 412.87544 419.48985 425.47425 435.44865 438.70304 445.73744 451.93183 458.96623 463.0606 466.88859 473.503 480.53739 486.73179 492.29618 497.86058 501.68855 504.94294 511.97734 515.8053 519.8997 526.93417 532.49856 536.32656 539.58096 542.8353 546.29977">You may recall that in bryophytes the dominant phase in the life</tspan><tspan y="-220.5604" x="192.00003 197.56172 203.3334 208.8951 212.14679 217.70848 221.50905 224.76074 230.32244 234.123 238.21469 245.24639 250.80808 254.60865 260.38035 266.57203 276.5437 282.10539 286.19709 292.17878 298.79048 305.82215 311.59385 315.68556 318.93724 324.4989 328.2995 334.9112 338.16288 344.35456 351.38624 355.4779 359.2785 365.8902 371.8719 378.48359 384.25529 387.71699 391.51759 400.01927 406.00096 414.29264 419.8543 425.416 430.97767 435.12004 438.58113 442.3811 445.6322 452.6633 456.4633 463.0744 467.1655 472.7266 477.4477 480.6988 487.3099 493.29103 499.90214 506.93324 512.70437 516.7955 522.35659 527.91769 531.3788 535.1788 539.2699 546.301">cycle is the gametophytic plant body. However, in pteridophytes, the</tspan><tspan y="-206.40039" x="192.00003 201.97373 208.16742 211.42111 218.4548 221.41399 228.02768 231.28137 237.47507 244.50876 248.60245 251.56163 258.17533 264.15904 270.7727 276.5464 279.50559 282.75929 288.32298 291.28218 297.47587 300.43507 305.99876 312.61244 318.59614 323.31983 329.30354 335.9172 342.9509 348.72459 352.81828 358.38197 361.34117 369.63487 376.66856 379.92225 385.48594 392.51963 395.47883 398.7325 404.2962 407.2554 413.86909 417.12278 420.58647 424.05015 429.61384 434.33753 439.9012 446.9349 451.0286 454.2823 460.47599 464.56968 470.13337 476.74705 479.70625 482.95994 489.99363 494.0873 500.071 503.0302 507.1239 511.8476 519.0913 524.655 527.6142 532.3379 538.3216 544.3053 548.399">main plant body is a sporophyte which is differentiated into true root,</tspan><tspan y="-192.4804" x="192.00003 197.55992 201.64981 207.2097 217.1796 220.07079 226.26068 233.29058 239.90047 242.79166 246.04155 251.60144 257.79133 263.3512 268.91108 274.47096 277.36216 280.61204 287.43193 290.6818 296.4517 303.6916 308.41148 313.97138 316.86259 323.47248 326.93238 333.54228 336.79216 340.25205 343.14326 349.75315 356.78303 362.3429 367.90278 373.46266 376.35386 382.33375 387.05363 392.82353 399.0134 406.04328 411.60316 414.49436 421.10426 427.08415 432.64405 438.20393 443.7638 449.32368 454.88356 457.77476 466.06465 471.6245 474.8744 478.12428 482.42417 489.03407 492.28395 495.74385 499.20375 504.7636 509.4835 515.0434 522.0733 526.1632 529.4131 535.60299 539.6929 545.25277">stem and leaves (Figure 3.3). These organs possess well-differentiated</tspan><tspan y="-178.5604" x="192.00003 197.56093 203.75183 209.31273 214.87363 222.11454 225.36544 231.55634 236.27724 238.91034 243.00124 246.25214 251.81304 257.37394 264.61485 270.17576 275.73667 279.19758 281.8307 288.4416 295.4725 301.03343 303.66654 306.91743 312.47834 318.66923 324.23014 329.79106 335.35197 337.98509 341.23597 348.26689 350.9 357.5109 361.6018 367.16273 371.8836 375.1345 381.7454 387.7263 394.3372 401.3681 407.139 411.22993 417.4208 420.05393 426.2448 430.9657 436.5266 439.15974 444.72065 454.69154 460.88243 464.1333 467.3842 470.0173 473.2682 483.23908 486.48997 492.05088 496.77177 502.75267 509.36357 516.3945 522.16537 525.41629 528.6672 534.2281 537.479 540.11209 546.303">vascular tissues. The leaves in pteridophyta are small (microphylls) as</tspan><tspan y="-164.40039" x="192.00003 195.28003 202.34003">in </tspan></text>
<text fill="#231f20" xml:space="preserve" transform="matrix(1 0 -0 1 -18 802.8)" font-size="10.5" font-family="Bookman" font-style="italic"><tspan y="-164.40039" x="205.20003 212.05184 217.85364 220.92543 227.56723 233.57903 236.65082 243.29262 249.09442 252.16622 255.238 261.87983">Selaginella </tspan></text>
<text fill="#231f20" xml:space="preserve" transform="matrix(1 0 -0 1 -18 802.8)" font-size="10.5" font-family="Bookman"><tspan y="-164.40039" x="264.48005 270.46125 275.18244 278.09364 281.34483 287.536 292.2572 298.02839 303.58958 306.50077 309.75196 319.72315 325.91435 331.47554 336.19673 342.17793 348.7891 355.82029 361.59147 364.84266 368.09385 373.65504 376.90623 379.8174 386.0086 391.5698 394.481 397.73219 404.76338 407.67457 411.13575 416.69694 421.41813 428.4493 434.0105 437.47169 440.38288 446.99406 454.02525 459.58644 462.49763 468.0588 474.66999 480.65119 485.37239 491.35359 497.96476 504.99595 510.76713 514.85836 520.56008 525.8401 528.75759 535.37509 540.94259 547.1401">or large (macrophylls) as in ferns. The sporophytes bear</tspan><tspan y="-150.4804" x="192.00009 198.14508 205.34008 211.90506 217.21006 223.98505 231.60004 237.95503 241.79003 248.56502 254.2885 258.9635 266.5785 273.3535 278.02848 283.75196 290.52696 295.83195 301.97694 307.7004 313.8454 321.67039 328.86537 333.54035 339.68534 347.30033 354.4953 360.6403 367.83528 373.55876 380.75373 387.1087 392.83219 396.66719 402.81217 409.58717 413.63215 418.51713 422.3521 426.1871 433.38209 439.52708 445.25056 452.02555 459.22053 466.4155 472.5605 480.17549 487.37046 494.14546 500.50044 506.64543 512.7904 518.51388 524.6589 531.43386 535.2688 539.10379 545.2488">sporangia that are subtended by leaf-like appendages called</tspan></text>
<text fill="#231f20" xml:space="preserve" transform="matrix(1 0 -0 1 -18 802.8)" font-size="10.5" font-family="Bookman"><tspan y="-136.5604" x="192.00009 197.66408 204.58808 211.30207 216.33606 223.05005 229.97405 237.31804 244.03203 247.80602 251.58">sporophylls</tspan></text>
<text fill="#231f20" xml:space="preserve" transform="matrix(1 0 -0 1 -18 802.8)" font-size="10.5" font-family="Bookman"><tspan y="-136.5604" x="257.0401 260.5001 264.92259 268.5926 275.6226 280.04508 285.60508 291.58509 301.55509 307.11509 311.53758 317.09757 323.28758 328.84757 334.40757 339.96757 344.39006 349.95005 356.56004 362.54005 367.26005 373.24006 379.85005 386.88005 392.65003 395.90003 399.15003 404.71003 409.1325 419.1025 425.2925 431.0625 435.485 438.94499 444.925 449.645 459.615 464.03749 470.64747 473.89747 479.45747 483.54747 486.79747 493.82746 499.38746 503.47746 507.89994 513.45999 519.43997 529.4099 536.0199 542.2099 547.7699">. In some cases sporophylls may form distinct compact</tspan><tspan y="-122.40039" x="192.00009 197.81589 202.16168 207.13748 214.63329 220.44908 224.79488 232.29068 237.26648 243.08228 248.89807 254.29387 260.10969 266.55549 270.06129 273.56709 279.38288 286.2487 291.64448 297.46028 301.80607 306.78187 313.01768 319.88349 323.38929 326.89509 330.40089 335.79667 342.03248 347.00828 352.40406 358.21986 364.45567 371.74147 377.55726 383.37306 388.76884">structures called strobili or cones (</tspan></text>
<text fill="#231f20" xml:space="preserve" transform="matrix(1 0 -0 1 -18 802.8)" font-size="10.5" font-family="Bookman" font-style="italic"><tspan y="-122.40039" x="392.1601 399.3849 405.5597 409.0045 416.0193 422.40409 425.84889 432.86369 439.03849 442.48329 445.92808 452.94288 456.59767 461.95243 469.59724 475.98204 482.99684 486.44163 492.61643 498.79124 502.86604 509.88084">Selaginella, Equisetum</tspan></text>
<text fill="#231f20" xml:space="preserve" transform="matrix(1 0 -0 1 -18 802.8)" font-size="10.5" font-family="Bookman"><tspan y="-122.40039" x="519.6001 523.1361 526.8821 532.32809 539.22409 546.54006">). The</tspan><tspan y="-108.48039" x="192.00009 197.54009 204.13008 210.09009 214.79009 220.96009 227.97008 233.72008 236.95008 243.12007 245.72507 252.31507 257.01509 262.97508 269.56507 276.78507 282.32508 287.86509 290.4701 296.0101 302.6001 308.5601 313.2601 318.8001 324.34013 326.94514 333.53514 339.28514 341.89015 351.84016 357.38017 360.61018 366.57017 372.11018 375.34019 380.8802 383.4852 386.7152 393.72523 396.33024 401.87025 408.46025 414.42024 419.12025 424.66026 427.26527 437.21528 443.17527 447.24528 454.25529 459.7953 464.4953 467.1003 472.64033 478.18034 481.41035 484.64036 490.18037 493.62037 496.22538 502.81538 509.82539 515.36538 517.97036 523.5103 530.10037 536.06039 540.7604 546.30038">sporangia produce spores by meiosis in spore mother cells. The spores</tspan><tspan y="-94.560398" x="192.00009 197.9551 203.70009 208.8001 218.95529 222.39049 229.60569 235.98088 240.25609 246.00128 251.32149 255.5967 261.7619 267.0821 273.0373 276.4725 282.2177 287.96293 293.2831 298.18833 301.62355 307.36875 313.11396 318.43415 322.70936 328.87455 334.19474 337.62995 344.84516 350.59037 356.75556 363.97077 369.71598 376.51118 379.94639 385.6916 393.1168 399.28199 406.70719 412.4524 416.0976 421.4178 427.163 437.3182 443.69343 447.12864 450.56385 455.88404 462.67924 470.10444 474.37965 479.69984 489.85505 497.28025 500.71546 504.99067 508.42588 514.1711 519.91629 523.35147 526.7866 534.2118 537.647 544.02218 548.4001">germinate to give rise to inconspicuous, small but multicellular,</tspan></text>
<g clip-path="url(#clip_6444)">
<text xml:space="preserve" transform="matrix(1 0 -0 1 259.314 763.99978)" font-size="8" font-family="Arial"><tspan y="6.316" x="0"> </tspan></text>
</g>
</g>
</svg>
