<svg xmlns="http://www.w3.org/2000/svg" xmlns:xlink="http://www.w3.org/1999/xlink" xmlns:inkscape="http://www.inkscape.org/namespaces/inkscape" version="1.1" width="576" height="784.8" viewBox="0 0 576 784.8">
<defs>
<clipPath id="clip_14555">
<path transform="matrix(1,0,0,-1,-18,802.8)" d="M18 18H594V802.8H18Z" clip-rule="evenodd"/>
</clipPath>
<clipPath id="clip_14556">
<path transform="matrix(1,0,0,-1,259.314,763.99978)" d="M0-8H57.372V.800049H0Z"/>
</clipPath>
</defs>
<g clip-path="url(#clip_14555)">
<path transform="matrix(.24,0,0,-.24,-18,802.8)" d="M2 2H2548V214.67H2Z" fill="#cbdf7f" fill-rule="evenodd"/>
<path transform="matrix(.24,0,0,-.24,-18,802.8)" stroke-width="4" stroke-linecap="butt" stroke-miterlimit="1000" stroke-linejoin="miter" fill="none" stroke="#cbdf7f" d="M2 2H2548V214.67H2Z"/>
<path transform="matrix(.24,0,0,-.24,-18,802.8)" d="M0 3035.83H2550V3372.7003H0Z" fill="#d1d3d4" fill-rule="evenodd"/>
<path transform="matrix(.24,0,0,-.24,-18,802.8)" d="M0 3078.33H2550V3420H0Z" fill="#e1ecb6" fill-rule="evenodd"/>
<path transform="matrix(.24,0,0,-.24,62.6362,53.63501)" d="M0 0C7.32 7.32 16.16 10.98 26.52 10.98H97.35C107.71 10.98 116.55 7.32 123.87 0 131.19-7.33 134.85-16.17 134.85-26.52V-101.52C134.85-111.88 131.19-120.72 123.87-128.04 116.55-135.36 107.71-139.02 97.35-139.02H26.52C16.16-139.02 7.32-135.36 0-128.04-7.32-120.72-10.98-111.88-10.98-101.52V-26.52C-10.98-16.17-7.32-7.33 0 0" fill="#ffffff" fill-rule="evenodd"/>
<text fill="#231f20" xml:space="preserve" transform="matrix(1 0 -0 1 -18 802.8)" font-size="11" font-family="Bookman"><tspan y="-729.361" x="87.12 94.26001">32</tspan></text>
<text fill="#231f20" xml:space="preserve" transform="matrix(1 0 -0 1 -18 802.8)" font-size="11" font-family="Bookman"><tspan y="-729.361" x="513.12">B</tspan></text>
<text fill="#231f20" xml:space="preserve" transform="matrix(1 0 -0 1 -18 802.8)" font-size="7.69999" font-family="Bookman"><tspan y="-729.361" x="521.04 523.4336 529.3692 533.76486 539.70046 545.63607">IOLOGY</tspan></text>
<path transform="matrix(.24,0,0,-.24,-18,.35998536)" stroke-width="1" stroke-linecap="butt" stroke-miterlimit="10" stroke-linejoin="miter" fill="none" stroke="#000000" d="M0 0H60"/>
<path transform="matrix(.24,0,0,-.24,.12000084,-18)" stroke-width="1" stroke-linecap="butt" stroke-miterlimit="10" stroke-linejoin="miter" fill="none" stroke="#000000" d="M0 0V-60"/>
<path transform="matrix(.24,0,0,-.24,-18,784.68)" stroke-width="1" stroke-linecap="butt" stroke-miterlimit="10" stroke-linejoin="miter" fill="none" stroke="#000000" d="M0 0H60"/>
<path transform="matrix(.24,0,0,-.24,.12000084,788.16)" stroke-width="1" stroke-linecap="butt" stroke-miterlimit="10" stroke-linejoin="miter" fill="none" stroke="#000000" d="M0 0V-60"/>
<path transform="matrix(.24,0,0,-.24,593.64,784.56)" stroke-width="1" stroke-linecap="butt" stroke-miterlimit="10" stroke-linejoin="miter" fill="none" stroke="#000000" d="M0 0V-75"/>
<text fill="#231f20" xml:space="preserve" transform="matrix(1 0 -0 1 -18 802.8)" font-size="10.5" font-family="Bookman"><tspan y="-688.561" x="192 195.8589 200.9778 206.9367 212.8956 217.5945 221.2434 224.89229 230.8512 234.50009 241.92899 248.09789 251.95679 257.49568 267.86457 274.24348 280.20237 284.69126 288.34016 294.50907 300.04795 307.05686 314.48576 320.86466 325.35356 331.73246 337.69136 343.86027 351.28916 355.77806 363.20695 369.16584 373.65473 377.30363 383.2625 388.8014 393.29029 400.71919 407.30809 410.95698 414.60588 420.98478 424.63368 431.64259 437.18147 443.35038 449.93928 460.30818 466.26707 470.75596 477.13487 484.14378 491.57267 497.74159 502.23048 508.18937 514.14828 519.68716 525.64608 532.235 535.8839 539.53286 545.49179">free-living, mostly photosynthetic thalloid gametophytes called</tspan></text>
<text fill="#231f20" xml:space="preserve" transform="matrix(1 0 -0 1 -18 802.8)" font-size="10.5" font-family="Bookman"><tspan y="-674.39999" x="192 198.99 204.09001 210.87001 215.97002 223.38002 229.74002 233.58002 237.42002 244.62001">prothallus</tspan></text>
<text fill="#231f20" xml:space="preserve" transform="matrix(1 0 -0 1 -18 802.8)" font-size="10.5" font-family="Bookman"><tspan y="-674.39999" x="250.08 253.54291 256.9996 263.61253 270.64543 276.2083 281.7712 287.3341 290.7908 296.5637 302.7566 312.7295 318.2924 322.38529 328.3682 334.9811 342.014 347.7869 351.8798 357.4427 363.00559 366.46229 371.18519 376.74809 382.94099 390.18388 393.43678 398.15968 403.72257 407.17927 412.74217 418.72508 424.70799 427.96089 431.42378 434.88047 441.49339 447.68629 457.65919 464.2721 467.735 471.19169 476.75459 483.78749 489.98039 496.5933 502.36619 505.82289 512.4358 515.6887 521.8816 527.4445 533.00747 538.5704 542.0271 546.12">. These gametophytes require cool, damp, shady places to</tspan><tspan y="-660.48098" x="192 197.771 202.49199 208.47298 216.76396 220.22495 223.33094 231.20192 236.76291 242.3239 248.5149 255.75589 261.3169 266.8779 269.98393 275.9649 279.4259 282.53193 286.62294 293.6539 296.90489 302.46589 305.5719 311.1329 317.7439 323.3049 328.8659 332.11689 335.57789 338.82887 344.38987 347.49589 352.21687 357.77787 363.33888 367.42988 372.15086 375.40184 380.96284 385.05384 390.61485 397.22584 400.33186 405.05284 410.61384 416.8048 424.0458 427.29679 432.01777 437.57878 447.54975 453.11076 460.14173 464.23274 467.33876 473.52973 480.5607 487.1717 490.2777 494.3687 501.3997 506.9607 510.0667 517.0977 522.6587 528.21969 534.8306 537.93667 541.39767 547.37869">grow. Because of this specific restricted requirement and the need for</tspan><tspan y="-646.561" x="192 200.2922 206.4844 210.5766 216.1388 220.861 223.6882 227.1504 233.1326 237.8548 240.682 244.14421 249.7064 254.4286 258.5208 261.773 265.0252 268.2774 273.8396 280.0318 284.124 287.3762 293.3584 300.3906 303.85279 306.68 310.7722 317.80439 323.36659 326.1938 331.75599 338.3682 343.0904 348.6526 354.8448 361.457 364.2842 370.26643 373.7286 376.55583 379.808 383.0602 388.6224 391.8746 398.9068 404.679 407.5062 414.1184 418.2106 423.7728 428.495 431.7472 438.3594 444.3416 450.95384 457.98603 463.7582 467.8504 473.4126 478.9748 481.802 485.0542 490.6164 493.4436 496.6958 499.948 509.9202 513.1724 517.26467 522.82687 529.439 532.26626 538.45846 545.49069">water for fertilisation, the spread of living pteridophytes is limited and</tspan><tspan y="-632.39999" x="192 196.6576 202.15518 207.65277 211.68036 216.33795 219.52555 225.02313 229.05072 234.54831 241.0959 243.65599 247.68358 253.60117 256.16127 263.12886 269.25645 273.91404 278.57164 284.48924 292.71684 295.27693 300.9845 306.4821 312.3997 318.10728 322.76487 328.89247 335.44004 342.40763 345.5952 351.0928 357.2204 360.408 362.96809 367.62568 373.12327 378.83085 382.01844 387.93605 394.90364 400.4012 403.7988 406.3589 412.90647 419.87406 425.37165 427.93174 433.6393 439.7669 449.6745 455.1721 459.19969 465.11729 471.66487 478.63246 484.34004 488.3676 493.8652 499.3628 501.92289 508.47047 513.9681 520.09567 524.75326 527.31338 537.22097 543.3485 546.5361">restricted to narrow geographical regions. The gametophytes bear male</tspan><tspan y="-618.48098" x="192 198.196 205.232 211.84799 214.8712 218.3372 223.9032 233.8792 240.0752 243.33119 248.89719 251.9204 257.4864 263.0524 269.0384 272.0616 278.0476 282.77363 288.54963 294.74565 301.78166 307.34767 310.37089 315.9369 322.1329 325.38893 328.64494 334.21095 340.82695 343.85017 350.04618 357.08219 361.1782 368.2142 373.7802 378.50624 381.76225 388.37825 391.63426 397.83027 400.8535 407.0495 414.0855 420.7015 423.72474 429.92076 434.64677 440.21278 447.24879 452.8148 458.5908 464.57679 471.6128 474.8688 480.96">and female sex organs called antheridia and archegonia,</tspan></text>
<text fill="#231f20" xml:space="preserve" transform="matrix(1 0 -0 1 -18 802.8)" font-size="10.5" font-family="Bookman"><tspan y="-618.48098" x="484.31999"> </tspan></text>
<text fill="#231f20" xml:space="preserve" transform="matrix(1 0 -0 1 -18 802.8)" font-size="10.5" font-family="Bookman"><tspan y="-618.48098" x="487.67997 492.39247 497.94496 503.49745 510.0999 515.6524 521.2049 525.2874 528.5299 534.0824 539.6349 542.8774 548.6399">respectively.</tspan><tspan y="-604.561" x="191.99997 201.35997 207.32529 211.1906 216.52591 221.02123 223.42023 226.44554 231.78086 234.17986 238.55997 243.88498 249.84 256.845 259.86003 264.47999 269.8119 276.1938 278.5894 281.8213 287.5732 292.06513 294.46073 298.32264 302.81455 308.77647 315.57838 320.91029 324.14219 329.4741 333.966 336.3616 342.11354 345.34544 347.74104 353.70295 360.50486 364.36677 371.16868 376.50059 381.12 386.87699 391.79399 397.55097 400.57798 406.96498 412.30198 414.70268 419.82969 422.23039 426.09739 432.9044 438.2414 440.6421 450.3891 456.3561 459.38313 464.72013 467.12083 472.66783 478.63484 488.38185 493.71885 497.58586 502.92286 508.25987 510.66056 515.28 520.59506 523.60006 528.91506 534.86007 540.17507 545.49008">Water is required for transfer of antherozoids &#x2013; the male gametes released</tspan><tspan y="-590.39999" x="192.00003 195.22234 199.70465 205.44696 215.17928 217.56528 221.41759 228.2099 233.53221 235.91822 241.87053 248.66284 252.51515 259.30747 264.62977 269.11207 272.12437 278.49668 281.50898 287.46128 290.6836 293.0696 296.92195 302.66426 305.05027 308.9026 315.6949 321.01719 323.4032 333.1355 338.8778 345.88014 349.73243 356.52473 358.91075 364.65306 367.87538 370.26139 376.21369 380.69599 386.01829 392.81059 398.13288 403.6652 409.4075 416.1998 419.2121 426.21443 435.94673 439.16905 441.55506 448.13737 455.13969 460.46199 463.47428 469.21659 476.00889 478.3949 484.1372 487.35954 489.74555 499.47785 505.43016 508.44245 513.7648 516.15078 521.68307 527.6354 537.3677 542.69 546.5423">from the antheridia, to the mouth of archegonium. Fusion of male gamete</tspan><tspan y="-576.48098" x="192.00003 200.07823 203.11643 206.99463 213.81284 216.22354 220.10175 226.91996 232.26816 234.67887 240.02707 245.58527 251.14347 253.55417 259.95237 264.46058 269.80879 275.15699 280.5052 287.3234 291.2016 293.6123 296.6505 303.46873 305.87944 309.75764 316.57585 321.92405 324.33476 330.31297 334.82118 340.16938 346.98759 352.3358 357.89399 363.66218 370.48039 373.5186 380.54679 390.305 392.7157 397.2239 402.5721 407.92033 414.94853 417.98674 421.86494 424.27565 427.31385 434.13206 436.54277 440.42097 447.23918 452.58738 454.99809 458.24629 464.01448 468.52268 478.28089 484.2591 488.1373 491.1755 496.9437 503.7619 506.1726 511.9408 515.189 517.5998 522.528 528.08627 533.6445 539.41268 543.29086 548.63906">with the egg present in the archegonium result in the formation of zygote.</tspan><tspan y="-562.561" x="192.00003 198.63283 204.21562 209.79842 215.59122 219.49402 224.86682 227.30634 231.20914 238.05194 243.42475 247.95755 253.33036 259.33317 262.60597 266.50877 271.88157 276.41438 278.85389 285.27668 289.80949 295.60227 302.02507 309.07786 314.45066 319.82347 325.19627 327.63578 333.63859 336.0781 345.8609 352.9137 355.9765 359.8793 362.9421 368.3149 373.6877 376.75053 379.81333 386.86613 389.92893 395.93174 400.46455 402.90406 411.00688 416.37968 419.44248 422.50529 426.61808 433.04087 436.10368 439.37648 442.64927 448.02207 452.55488 457.92768 464.77049 468.67329 471.73609 477.7389 481.6417 487.0145 493.4373 495.8768 501.2496 507.6724 513.4652 517.998 523.7908 530.21359 537.05636 542.63919 546.54196">Zygote thereafter produces a multicellular well-differentiated sporophyte</tspan><tspan y="-548.39999" x="192.00003 200.29494 207.32984 210.58473 216.14963 223.18453 226.91303 230.16793 235.73282 239.46132 243.55622 250.59111 256.156 259.8845 266.4994 272.48429 282.4592 285.7141 292.74903 298.9439 305.97883 310.07374 313.80223 320.4171 327.45204 333.6469 339.21183 344.77674 348.50523 354.4901 357.95503 361.6835 365.7784 372.81333 378.37825 382.10673 388.72163 392.81654 398.38145 403.10636 406.36128 412.97618 418.96107 425.57597 432.61088 438.38578 442.48069 448.0456 453.6105 457.0754 460.8039 464.4788 471.5137 475.2422 485.2171 491.412 494.6669 500.6518 505.3767 508.63163 512.7265 518.5014 522.2299 528.21487 531.67977 535.40829 539.5032 546.5381">which is the dominant phase of the pteridophytes. In majority of the</tspan><tspan y="-534.48098" x="192.00003 198.56572 202.6114 208.12709 212.80278 216.00847 222.57416 228.50984 235.07553 242.06122 247.78691 251.8326 257.3483 262.86399 265.44337 271.58906 274.79475 278.00044 280.5798 284.6255 291.61119 297.12687 299.70625 305.22193 311.78764 317.72334 322.39903 327.9147 333.4304 336.00978 342.15547 346.83116 352.34684 354.9262 360.8619 364.2776 366.85697 372.37266 375.57835 385.50404 388.70973 391.9154 398.0611 402.7368 405.31617 411.88188 415.08757 422.07325 428.63896 434.15464 437.5703 440.1497 445.66539 452.86106 458.37675 465.36244 467.9418 474.5075 477.7132 483.8589 490.84458 494.89027 500.40596 502.98533 509.131 513.8067 519.3224 521.9018 527.4175 533.5632 536.76889 539.97457 545.49026">pteridophytes all the spores are of similar kinds; such plants are called</tspan></text>
<text fill="#231f20" xml:space="preserve" transform="matrix(1 0 -0 1 -18 802.8)" font-size="10.5" font-family="Bookman"><tspan y="-520.561" x="192.00003 199.36803 206.10602 216.83402 223.572 229.26 236.20798 242.94597 248.00395 254.74195 261.89994">homosporous</tspan></text>
<text fill="#231f20" xml:space="preserve" transform="matrix(1 0 -0 1 -18 802.8)" font-size="10.5" font-family="Bookman"><tspan y="-520.561" x="267.36006 270.82005 275.59663 284.09663 289.65663 296.6866 302.2466 306.9666 313.15663 317.9332 321.1832 324.4332 331.04319 336.60319">. Genera like </tspan></text>
<text fill="#231f20" xml:space="preserve" transform="matrix(1 0 -0 1 -18 802.8)" font-size="10.5" font-family="Bookman" font-style="italic"><tspan y="-520.561" x="341.28004 348.13365 353.93724 357.01084 363.65443 369.66804 372.74165 379.38526 385.18885 388.26246 391.33607 397.97969">Selaginella </tspan></text>
<text fill="#231f20" xml:space="preserve" transform="matrix(1 0 -0 1 -18 802.8)" font-size="10.5" font-family="Bookman"><tspan y="-520.561" x="402.48005 408.66673 415.69343 422.3001">and </tspan></text>
<text fill="#231f20" xml:space="preserve" transform="matrix(1 0 -0 1 -18 802.8)" font-size="10.5" font-family="Bookman" font-style="italic"><tspan y="-520.561" x="427.20005 434.08503 440.76 443.865 449.69999 452.80497 459.47996 462.58494 469.25993">Salvinia </tspan></text>
<text fill="#231f20" xml:space="preserve" transform="matrix(1 0 -0 1 -18 802.8)" font-size="10.5" font-family="Bookman"><tspan y="-520.561" x="473.76005 482.05754 489.095 492.35249 497.91999 504.95747 509.77497 516.39248 521.11996 527.1074 533.7249 540.9724 546.5399">which produce</tspan><tspan y="-506.39997" x="192.00003 196.08463 204.36923 210.34383 212.96213 219.56673 222.81133 229.83592 236.44052 241.99512 244.61342 250.58802 254.04262 256.66093 262.2155 268.82014 274.79475 279.50935 285.06394 290.61854 294.07313 296.6914 306.656 312.8406 318.3952 323.1098 329.0844 331.7027 334.9473 338.1919 344.3765 349.0911 354.85569 360.41029 363.65489 366.27317 372.45777 379.48237 386.08699 388.70527 398.66987 401.91447 407.46907 412.18367 418.15827 420.77656 424.02116 429.57575 439.54035 445.72496 448.96955 452.21415 455.45875 458.07704 463.63163 470.23625 476.21086 480.92546 486.48005 492.03465 495.48924 498.1075 504.2921 509.0067 514.56137 517.1796 523.78427 530.80886 536.78347 545.06808">two kinds of spores, macro (large) and micro (small) spores, are known</tspan><tspan y="-492.48097" x="192.00003 197.99503 203.36003">as </tspan></text>
<text fill="#231f20" xml:space="preserve" transform="matrix(1 0 -0 1 -18 802.8)" font-size="10.5" font-family="Bookman"><tspan y="-492.48097" x="205.92003 213.02753 219.08502 223.88253 229.94002 234.73752 241.21501 246.64252 253.33002 259.80754 264.605 271.08253 277.98">heterosporous</tspan></text>
<text fill="#231f20" xml:space="preserve" transform="matrix(1 0 -0 1 -18 802.8)" font-size="10.5" font-family="Bookman"><tspan y="-492.48097" x="283.44004 286.71586 289.14888 295.57469 302.4205 307.79634 310.22935 320.01515 325.39097 330.97679 336.98258 342.3584 348.7842 354.58003 359.1158 364.49165 369.86747 372.30049 378.30628 385.1521 391.5779 394.01094 403.79673 406.86253 412.23835 416.77415 422.56996 427.94578 434.37159 440.1674 444.7032 450.079 455.45484 457.88786 463.47367 468.8495 473.38529 483.17109 486.23689 493.0827 499.0885 502.99433 508.37016 510.80317 516.80899 523.6548 530.08059 532.5136 538.0994 541.1652 546.541">. The megaspores and microspores germinate and give</tspan><tspan y="-478.56095" x="192.00003 197.01073 200.55142 206.40213 212.25284 217.67855 222.05925 228.32996 233.75566 237.50637 243.35706 253.61775 260.09846 263.63917 269.48988 274.91557 281.39628 288.71699 295.61769 301.04338 311.30409 317.7848 321.3255 327.1762 332.6019 338.6626 345.1433 355.40403 361.25474 365.63545 371.90614 378.80683 386.12754 392.18824 396.56895 402.41966 408.27037 412.02107 417.44676 422.45747 428.30818 434.15888 441.05958 446.91029 452.761 457.1417 460.6824 466.5331 472.38383 475.92454 481.98524 485.73594 491.16163 498.06233 505.38304 511.23374 516.6594 520.4101 526.2608 536.5215 543.0022 546.5429">rise to female and male gametophytes, respectively. The female</tspan><tspan y="-464.39994" x="192.00003 197.77494 203.96984 213.94474 219.50963 223.60453 229.58942 236.20432 243.23921 249.01412 253.10901 258.67393 264.23884 267.57594 270.83085 277.86576 281.20286 285.29777 292.33268 297.89759 303.4625 309.0274 312.3645 318.9794 322.2343 328.4292 335.4641 339.55903 345.12394 348.46104 354.65596 359.38087 364.94578 368.28288 373.00779 378.5727 382.6676 388.8625 392.1174 399.1523 404.71723 411.33213 414.66923 420.6541 427.68904 431.02613 435.12104 442.15596 447.72087 451.05796 457.67286 463.86775 468.59266 474.15757 481.19248 485.28739 488.62449 494.1894 500.8043 506.78919 511.5141 517.499 524.11398 531.14889 536.92379 541.0187 546.48007">gametophytes in these plants are retained on the parent sporophytes</tspan><tspan y="-450.48094" x="192.00003 195.33614 201.19225 205.78836 208.28946 213.72557 219.79169 224.3878 227.51392 233.58003 240.06615 243.19226 248.62837 251.12947 257.61558 263.05168 267.64778 270.77388 276.62998 283.1161 288.5522 291.8883 294.38945 300.87556 307.78166 313.21775 315.71888 322.205 327.64109 333.07719 338.51329 341.63938 347.49549 353.9816 363.8277 369.2638 376.1699 380.136 382.63713 388.49324 391.82936 394.33049 398.29658 405.20268 410.63877 413.1399 418.156 423.80213 429.44825 435.30436 439.27046 444.70655 450.14265 452.64378 455.76988 462.67597 466.6421 472.4982 474.99934 480.64546 486.50157 493.61769 500.52378 506.1699 508.67103 514.1071 523.95327 530.43936 535.03549 540.6816 546.5377">for variable periods. The development of the zygotes into young embryos</tspan><tspan y="-436.5609" x="192.00003 196.05802 202.216 208.79399 214.32198 216.91669 223.49468 226.71266 232.87065 238.39864 243.92662 246.52133 254.77933 257.9973 262.0553 269.05329 272.27128 279.26927 281.86396 285.92195 292.91993 298.4479 301.0426 304.47059 309.99858 319.93656 326.09455 329.31254 334.8405 337.4352 343.1732 349.33119 359.26918 364.79716 368.85514 374.80314 381.38114 388.37913 394.1171 398.17509 403.70307 409.23106 412.65904 415.25373 421.83174 428.8297 432.0477 437.57569 440.17039 445.69837 451.22636 456.75434 463.75233 467.8103 470.405 473.623 479.15098 481.92005 487.95857 490.41706 496.87556 501.44407 506.85258 512.2611 519.3496 523.9181 529.3266 535.1551 539.7236 542.1821 546.12069">take place within the female gametophytes. This event is a precursor to</tspan><tspan y="-422.3999" x="192.00003 195.99672 202.93341 208.4001">the </tspan></text>
<text fill="#231f20" xml:space="preserve" transform="matrix(1 0 -0 1 -18 802.8)" font-size="10.5" font-family="Bookman"><tspan y="-422.3999" x="210.96002 216.64601 222.962 229.278 236.22399 239.06998 246.43598 252.75197 259.27796 263.28395 268.33995">seed habit </tspan></text>
<text fill="#231f20" xml:space="preserve" transform="matrix(1 0 -0 1 -18 802.8)" font-size="10.5" font-family="Bookman"><tspan y="-422.3999" x="271.2 276.7571 282.73423 289.76133 295.31843 298.56553 305.1726 310.7297 315.4468 321.0039 327.611 330.21809 336.40519 343.43229 346.03938 349.28648 359.25358 365.86067 371.83778 376.55488 380.64198 386.82908 393.85618 397.94328 400.55036 406.10746 410.19456 415.75166 422.35874 424.96583 428.21293 435.24003 437.8471 443.4042 448.9613 454.93843 458.18553 465.4226 469.5097 472.7568 478.73393 485.76103">considered an important step in evolution.</tspan><tspan y="-408.4809" x="210.00002 216.50673 223.43344 228.89015 231.50318 238.00989 241.9966 247.45331 252.07003 255.21674 261.72346 267.60017 274.10688 281.03358 286.7003 290.687 296.1437 301.6004 304.21345 310.30015 314.91685 320.37355 322.98658 326.3433 333.48 338.0967 342.08345 349.01014 354.46684 359.08354 361.69657 367.15327 370.29997 376.38667 381.84336 387.30006 390.44676 393.80348 396.95018 402.40687 408.91358 411.5266 414.6733 421.6 425.58674 431.46345 434.07649 437.4332 443.3099 450.44664 455.06333 457.67637 463.13307 466.27976 472.36647 477.82316 483.27986 488.73655 494.19325 497.54997 500.163 506.6697 512.1264 515.27316 518.41989 524.2966 530.8033 536.26 539.40676 545.91348">The pteridophytes are further classified into four classes: Psilopsida</tspan></text>
<text fill="#231f20" xml:space="preserve" transform="matrix(1 0 -0 1 -18 802.8)" font-size="10.5" font-family="Bookman" font-style="italic"><tspan y="-394.56089" x="192.00002 194.96363 201.28722 206.98082 209.94443 212.90802 218.60163 222.19522 228.72882 237.99242 240.95603 244.12963">(Psilotum); </tspan></text>
<text fill="#231f20" xml:space="preserve" transform="matrix(1 0 -0 1 -18 802.8)" font-size="10.5" font-family="Bookman"><tspan y="-394.56089" x="246.24002 252.96002 258.36503 263.56004 269.17506 275.42005 280.61506 283.50007 289.74507 295.57008">Lycopsida </tspan></text>
<text fill="#231f20" xml:space="preserve" transform="matrix(1 0 -0 1 -18 802.8)" font-size="10.5" font-family="Bookman" font-style="italic"><tspan y="-394.56089" x="297.84004 300.56645 307.07286 312.52928 315.25569 321.5521 327.2185 329.94493 336.24134 341.69776 344.42417 347.15058 353.447 356.3834 358.4698 365.04005 371.26335 376.22663 381.81993 388.0432 393.6365 400.27983 403.14314 409.57643 418.73973">(Selaginella, Lycopodium)</tspan></text>
<text fill="#231f20" xml:space="preserve" transform="matrix(1 0 -0 1 -18 802.8)" font-size="10.5" font-family="Bookman"><tspan y="-394.56089" x="421.68006 424.77388 427.01768 433.68147 439.92527 446.58906 451.78285 458.44664 464.06044 470.30424 475.49803 478.3818 484.6256 490.4494">, Sphenopsida </tspan></text>
<text fill="#231f20" xml:space="preserve" transform="matrix(1 0 -0 1 -18 802.8)" font-size="10.5" font-family="Bookman" font-style="italic"><tspan y="-394.56089" x="492.72007 495.68705 502.85404 508.76103 515.29806 518.265 523.962 529.65896 533.2559 539.7929 549.0599">(Equisetum)</tspan></text>
<text fill="#231f20" xml:space="preserve" transform="matrix(1 0 -0 1 -18 802.8)" font-size="10.5" font-family="Bookman"><tspan y="-380.39988" x="192.00006 198.06867 204.97728 211.4659 213.9795 220.46813 224.43674 229.87535 234.47397 240.33258 246.8212 252.25981 255.38843 261.87705 267.94566">and Pteropsida </tspan></text>
<text fill="#231f20" xml:space="preserve" transform="matrix(1 0 -0 1 -18 802.8)" font-size="10.5" font-family="Bookman" font-style="italic"><tspan y="-380.39988" x="270.48008 273.57939 281.50868 285.86799 292.32728 298.15657 304.61585 308.34516 314.17445 318.53376 321.63307 327.46235 330.77165 333.25596 339.71525 343.44456 349.27388 353.63319 356.73249 362.56178 365.87107 368.35539 375.8647 382.744 385.8433 392.5126 399.18193 402.91123 409.58055 418.97984">(Dryopteris, Pteris, Adiantum)</tspan></text>
<text fill="#231f20" xml:space="preserve" transform="matrix(1 0 -0 1 -18 802.8)" font-size="10.5" font-family="Bookman"><tspan y="-380.39988" x="421.92008">.</tspan></text>
<text fill="#00aeef" xml:space="preserve" transform="matrix(1 0 -0 1 -18 802.8)" font-size="13" font-family="Bookman"><tspan y="-348.48088" x="192.00008 200.23038 204.30068 225.60007">3.4G</tspan></text>
<text fill="#00aeef" xml:space="preserve" transform="matrix(1 0 -0 1 -18 802.8)" font-size="9.1" font-family="Bookman"><tspan y="-348.48088" x="236.16007 242.36606 250.75606 257.32606 264.44206 270.28407 276.12608 282.51408 289.44807 297.83808">YMNOSPERMS</tspan></text>
<text fill="#231f20" xml:space="preserve" transform="matrix(1 0 -0 1 -18 802.8)" font-size="10.5" font-family="Bookman"><tspan y="-322.56086" x="192.00006 198.49127 205.40248 210.84369 213.35991 219.01113 224.66234 234.51355 241.42476 247.28597 252.72718 259.21839 264.6596 269.52006 279.34507 284.76008 287.2501">The gymnosperms (</tspan></text>
<text fill="#231f20" xml:space="preserve" transform="matrix(1 0 -0 1 -18 802.8)" font-size="10.5" font-family="Bookman" font-style="italic"><tspan y="-322.56086" x="290.40007 296.35176 302.72346 312.03517 318.61686 324.35856 330.10026">gymnos </tspan></text>
<text fill="#231f20" xml:space="preserve" transform="matrix(1 0 -0 1 -18 802.8)" font-size="10.5" font-family="Bookman"><tspan y="-322.56086" x="332.40007 335.74876 338.27247 345.19117 351.26988 357.76856 363.21726 369.71595 373.06465">: naked, </tspan></text>
<text fill="#231f20" xml:space="preserve" transform="matrix(1 0 -0 1 -18 802.8)" font-size="10.5" font-family="Bookman" font-style="italic"><tspan y="-322.56086" x="375.36006 381.03007 387.33006 393.00007 397.68006 407.13505 413.86003">sperma </tspan></text>
<text fill="#231f20" xml:space="preserve" transform="matrix(1 0 -0 1 -18 802.8)" font-size="10.5" font-family="Bookman"><tspan y="-322.56086" x="416.16007 419.49909 421.9981 427.43714 432.87617 438.3152 444.8042 450.24324 453.37223 455.87126 461.94026 466.32008 471.76698 474.27388 480.77076 483.90766 489.98457 496.90147 500.87837 506.32527 508.83216 511.96907 518.8859 521.3929 529.56979 536.48666 539.62356 545.07046">: seeds) are plants in which</tspan><tspan y="-308.39985" x="192.00006 195.98886 202.91767 208.37647 210.97696 216.85576 222.31456 229.45336 232.60216 238.06096 243.51976 246.12026 252.20906 256.82786 262.28666 264.88716 271.81596 277.69477 281.68357 284.28407 289.74287 296.67167 302.13047 305.27928 311.15809 316.61689 322.07569 328.58448 331.18498 337.69377 343.36256 345.96305 352.05186 358.98066 364.64945 367.24995 373.12876 378.58757 384.67637 389.29518 394.96397 397.56446 405.75328 411.84208 414.99089 418.13969 420.74018 426.82899 433.75779 440.26658 442.86708 447.48588 452.94468 462.81349 468.90229 472.0511 478.9799 481.58039 487.03919 492.918 499.4268 505.3056 510.7644 516.2232 522.732 526.0908 528.69137 535.20016 541.0789 545.06777">the ovules are not enclosed by any ovary wall and remain exposed, both</tspan><tspan y="-294.48085" x="192.00006 198.38796 203.72586 206.96376 212.72167 217.21956 222.55747 224.95648 230.92438 237.73229 244.12018 246.5192 252.48709 255.72499 259.5929 264.9308 269.42869 271.8277 275.0656 280.4035 284.9014 288.7693 291.79719 294.82508 297.85298 303.19087 309.15876 313.02665 316.05455 321.81245 328.62034 331.85826 334.25727 340.64518 347.45307 352.79096 355.18998 360.52787 365.86576 371.20365 377.59156 382.92945 385.32847 389.19636 396.00425 401.97215 405.84004 408.23905 414.62696 419.96485 425.30274 430.64064 433.66853 439.42643 445.81434 448.21336 454.60127 460.35917 465.69706 469.56495 473.64286 476.88078 482.21867 486.71656 490.58445 493.61235 496.64024 499.66813 505.006 510.9739 514.8418 517.8697 523.62759 530.4355 533.6734 536.07247 542.04037 546.53829">before and after fertilisation. The seeds that develop post-fertilisation, are</tspan><tspan y="-280.56083" x="192.00006 198.92487 204.79967 208.78447 211.63927 217.09407 222.96887 228.42368 233.87848 238.49329 243.94809 250.4529 253.8077 256.6625 259.8073 263.1621 268.6169 271.9717 275.3265 278.1813 284.2661 288.88093 294.33573 297.19053 304.11534 310.20014 316.70494 322.15974 328.66453 332.01933 334.8741 343.26893 348.93373 358.79853 365.72334 371.5981 377.05293 383.5577 389.0125 393.62733 403.49214 408.94694 411.80174 414.94654 421.87135 427.32615 430.47096 437.60575 444.11054 449.56535 452.42015 462.28495 467.73976 474.24455 477.38935 484.52415 494.38896 498.58375 504.03855 507.18336 512.21817 517.6729 524.17776 527.03256 531.01736 535.63217 541.0869 546.5417">not covered, i.e., are naked. Gymnosperms include medium-sized trees</tspan><tspan y="-266.3998" x="192.00006 197.87627 202.49248 205.0362 209.0224 215.10861 218.25482 221.40103 223.94475 227.93096 232.54717 238.00337 243.45958 248.91579 251.4595 257.54573 264.47193 270.97816 273.52186 278.97807 285.90428 290.52049 297.65669 304.1629 309.6191 312.1628 315.30903 322.02525 325.17146 330.83766 337.97386 342.59007 348.04627 350.58998 357.0962 360.4524 366.95863 370.10484 373.46104 376.00474 384.40095 391.32716 396.78337 399.32707 405.20329 408.55949 411.10319 415.0894 422.0156 427.4718 430.0155 435.6817 441.3479 451.2141 458.14033 464.01655 469.47276 475.97895 481.43516 486.05137 495.91758 501.37379 504.72999 507.27369 511.2599 518.1861 523.64236 526.18606 531.85226 534.9985 541.08468 548.01089">or tall trees and shrubs (Figure 3.4). One of the gymnosperms, the giant</tspan><tspan y="-252.4808" x="192.00006 196.62256 202.08506 208.59755 216.79006 222.67256 228.55507 235.06757 239.40508 243.39759 248.02008 253.48258 258.94508">redwood tree </tspan></text>
<text fill="#231f20" xml:space="preserve" transform="matrix(1 0 -0 1 -18 802.8)" font-size="10.5" font-family="Bookman" font-style="italic"><tspan y="-252.48041" x="263.28327 270.15617 275.97904 282.01194 288.67485 294.4977 297.5906 304.2535">Sequoia </tspan></text>
<text fill="#231f20" xml:space="preserve" transform="matrix(1 0 -0 1 -18 802.8)" font-size="10.5" font-family="Bookman"><tspan y="-252.48041" x="308.40028 311.54658 317.00288 321.3592 327.2355 334.1618 339.6181 343.97444 349.85075 353.20707 357.5634 361.54969 368.47599 373.93229 378.2886 382.2749 388.3612 391.5075 394.6538 400.1101 405.5664 409.5527 413.90904 417.89533 422.51164 427.96794 433.42424 437.78056 443.23686 449.74317 455.19947 460.65577 463.80207 469.25837 474.71467 478.07099 482.4273 488.93363 495.85993 501.31623 505.67256 510.28886 516.16519 522.04147 526.0278 531.4841 535.8404 541.9267 546.543">is one of the tallest tree species. The roots are</tspan><tspan y="-238.56041" x="192.00028 197.66997 203.12967 210.05937 215.51908 220.13878 226.22849 229.37819 232.5279 238.19759 240.7437 244.7334 250.8231 257.3328 259.8789 264.4986 270.3783 276.258 280.24769 285.70738 289.06709 291.6132 299.17289 305.05259 310.93229 314.922 320.38169 322.9278 326.07749 333.00718 335.55329 341.01298 346.89268 356.76237 362.22206 364.76817 370.43788 375.89756 382.82725 388.28694 392.90663 398.9963 401.54243 408.4721 414.5618 420.02149 425.48118 428.02729 431.387 438.5267 445.4564 451.1261 457.2158 460.36549 462.9116 469.00129 474.46098 479.92066 485.80036 491.26005 494.40974 500.49943 504.48915 507.63883 513.51858 520.44827 522.9943 526.14407 533.0737 535.6198 539.6095 546.5392">generally tap roots. Roots in some genera have fungal association in the</tspan><tspan y="-224.4004" x="192.00028 195.13738 200.79448 205.19158 214.83867 217.15077 222.80788 225.94498">form of </tspan></text>
<text fill="#231f20" xml:space="preserve" transform="matrix(1 0 -0 1 -18 802.8)" font-size="10.5" font-family="Bookman"><tspan y="-224.4004" x="228.48027 238.71828 244.9663 250.79431 257.04234 261.61036 266.17839 273.0564 276.5744 282.1924 288.02043">mycorrhiza </tspan></text>
<text fill="#231f20" xml:space="preserve" transform="matrix(1 0 -0 1 -18 802.8)" font-size="10.5" font-family="Bookman" font-style="italic"><tspan y="-224.4004" x="290.40028 293.42527 299.81028 302.83528 309.43028 316.02528 321.78028">(Pinus)</tspan></text>
<text fill="#231f20" xml:space="preserve" transform="matrix(1 0 -0 1 -18 802.8)" font-size="10.5" font-family="Bookman"><tspan y="-224.4004" x="324.24028 327.39759 329.7249 337.71223 344.4395 347.3868 350.3341 355.59144 357.91877 360.86607 367.59339 369.92073 375.17805 380.85536 390.52265 395.77998 398.1073 403.7846 407.57194 414.29927 419.55659 423.97389 429.2312">, while in some others </tspan></text>
<text fill="#231f20" xml:space="preserve" transform="matrix(1 0 -0 1 -18 802.8)" font-size="10.5" font-family="Bookman" font-style="italic"><tspan y="-224.4004" x="431.76026 434.46028 441.78028 447.84028 452.64027 458.91026 464.34025">(Cycas)</tspan></text>
<text fill="#231f20" xml:space="preserve" transform="matrix(1 0 -0 1 -18 802.8)" font-size="10.5" font-family="Bookman"><tspan y="-224.4004" x="467.04026 469.33616 474.58207 484.23799 490.1139 493.0498 495.98573 498.28163 503.52754 509.82344 515.06936 520.31527 523.25119 529.1271 532.063 534.9989 540.2448 545.4907"> small specialised</tspan><tspan y="-210.48041" x="192.00025 196.62024 202.50025 208.38025 212.37026 217.83026 220.50458 225.96459 232.05458 235.20458 238.35457 243.81458 250.32457 252.99889 258.4589 264.3389 268.9589 275.0489 278.19889 281.34889 287.22889 290.37889 296.8889 299.56318 304.18318 310.06318 315.94319 319.93318 325.39317 328.06745 334.15745 338.77745 344.23744 346.9117 353.0017 358.4617 363.9217 369.8017 375.2617 378.41169 384.50169 388.49168 393.95167 400.46168 403.13597 411.32597 414.47596 418.46595 425.39595 428.07023">roots called coralloid roots are associated with N</tspan></text>
<text fill="#231f20" xml:space="preserve" transform="matrix(1 0 -0 1 -18 802.8)" font-size="6.1" font-family="Bookman"><tspan y="-206.8804" x="435.84025">2</tspan></text>
<text fill="#231f20" xml:space="preserve" transform="matrix(1 0 -0 1 -18 802.8)" font-size="10.5" font-family="Bookman"><tspan y="-210.48041" x="439.68025 443.87574 446.53126 449.88676 453.03227 458.90776 462.05326 468.97877 474.64427 477.29978 482.75529 488.42079 494.5063 501.4318 507.30729 513.8128 519.8983 525.3538 529.3393 534.7948 539.4103 542.5558 548.6413">- fixing cyanobacteria.</tspan><tspan y="-196.56041" x="192.00025 198.25826 204.93627 210.14427 212.42729 217.6353 221.3733 226.58132 236.19933 241.40734 243.69036 249.52837 253.89638 259.1044 261.38743 268.27543 274.95344 281.21144 285.57945 291.41746 298.09547 303.30348 309.98149 315.18949 321.44749 323.7305">The stems are unbranched (</tspan></text>
<text fill="#231f20" xml:space="preserve" transform="matrix(1 0 -0 1 -18 802.8)" font-size="10.5" font-family="Bookman" font-style="italic"><tspan y="-196.56041" x="326.64027 333.75028 339.60029 344.19029 350.25028">Cycas</tspan></text>
<text fill="#231f20" xml:space="preserve" transform="matrix(1 0 -0 1 -18 802.8)" font-size="10.5" font-family="Bookman"><tspan y="-196.56041" x="355.68028 358.57807 360.8526 366.4804 370.8482 373.12275 379.38056 383.74836 389.58616 396.26396 401.47178 408.14958 413.3574 419.6152 421.88975">) or branched (</tspan></text>
<text fill="#231f20" xml:space="preserve" transform="matrix(1 0 -0 1 -18 802.8)" font-size="10.5" font-family="Bookman" font-style="italic"><tspan y="-196.56041" x="424.80027 431.03108 433.9019 440.34269 446.78349 452.38429 455.4651 457.6959 465.1867 470.7875 477.43833 481.56913 488.00993">Pinus, Cedrus</tspan></text>
<text fill="#231f20" xml:space="preserve" transform="matrix(1 0 -0 1 -18 802.8)" font-size="10.5" font-family="Bookman"><tspan y="-196.56041" x="493.44026 496.34446 499.45866 501.72285 507.98704 514.6712 519.8854 522.1496 525.0538 530.26797 536.1121 541.3263 546.54049">). The leaves</tspan><tspan y="-182.4004" x="192.00025 201.76746 207.75467 213.32189 215.74582 222.15303 227.51024 229.93418 235.29138 238.3386 248.1058 254.51302 257.5602 262.91743 265.34135 271.11857 275.63578 278.0597 283.4169 289.19413 298.96134 305.36854 311.14576 318.18296 325.01017 331.41737 334.67457 337.09849 340.5657 347.3929">may be simple or compound. In </tspan></text>
<text fill="#231f20" xml:space="preserve" transform="matrix(1 0 -0 1 -18 802.8)" font-size="10.5" font-family="Bookman" font-style="italic"><tspan y="-182.4004" x="349.92024 357.27424 363.36827 368.20228 374.5063 379.9703">Cycas </tspan></text>
<text fill="#231f20" xml:space="preserve" transform="matrix(1 0 -0 1 -18 802.8)" font-size="10.5" font-family="Bookman"><tspan y="-182.4004" x="382.32023 386.20854 393.03684 398.39515 400.81187 407.22019 410.2685 417.0968 423.9251 429.91343 433.80174 439.16004 441.57676 444.62507 449.98338 455.97169 461.33 466.6883 472.0466 474.46333 480.87165 486.22996 490.74827 496.10658 499.15489 504.51319 508.4015 510.8182 514.07656 519.85488 524.37319 526.78988 532.77816 535.1948 538.4531 543.81149">the pinnate leaves persist for a few</tspan><tspan y="-168.48041" x="192.00022 197.4759 202.74161 208.63732 213.06302 218.32872 221.49442 223.82123 230.13694 236.87264 242.13834 244.46515 247.42086 252.68656 258.58226 263.84794 269.11363 274.3793 276.70613 279.6618 286.3975 288.7243 294.2 299.67573 309.3514 316.0871 321.7728 327.03849 333.3542 338.61988 343.04557 352.72126 357.98695 360.31376 366.20945 370.63514 375.90083 378.22764 386.22334 391.489 394.4447 397.4004 401.4061 407.3018 413.6175 419.51319 425.8289 429.6246 434.8903 441.206 443.5328 447.32853 453.01423 455.34104 463.33674 466.29243 470.08815 476.82383 482.0895 485.88523 491.7809 498.5166 504.8323 507.15913 512.4248 518.11056 521.90628 526.332 531.59768 541.2734 546.53909">years. The leaves in gymnosperms are well-adapted to withstand extremes</tspan><tspan y="-154.56041" x="192.00022 197.87722 201.2342 204.92449 208.91149 214.36849 224.23549 230.7425 236.1995 240.8165 246.9035 250.8905 258.0275 262.6445 268.1015 271.4585 275.14878 282.07579 289.21278 299.07978 302.22679 308.73377 311.88078 315.86778 321.53477 325.22505 331.31205 338.23905 344.74604 348.4363 356.62333 359.77033 366.69734 373.2043 376.5613 380.2516 383.81858 390.74559 394.43586 399.89286 405.76988 412.69688 415.84388 419.20088 424.65788 429.27488 434.73188 438.08888 441.77915 445.76615 452.69316 458.15016 461.84043 468.76744 474.22444 479.68144 486.18843 489.33543 494.79243 498.9894 502.1364 505.28343 511.7904 517.24746 520.93777 524.0847 529.54177 535.6287 541.0857 546.5427">of temperature, humidity and wind. In conifers, the needle-like leaves</tspan><tspan y="-140.4004" x="192.00022 196.61841 202.07662 208.58481 215.723 221.18122 226.63942 230.58263 234.57083 241.49904 246.95725 250.90045 256.35865 263.49687 268.11506 271.47328 277.56147 283.01966 288.47785 292.42106 298.50926 303.12745 308.58564 314.67384 318.03205 321.97526 328.48347 335.41166 340.86985 344.01805 348.63624 352.57945 356.56764 363.49583 366.644 372.1022 378.6104 382.55363 388.0118 395.15003 399.1382 402.2864 407.7446 410.8928 416.35099 420.29417 426.38236 433.31056 439.81877 443.76194 449.22013 456.35835 463.28654 469.79475 475.25294 482.18113 486.1243 491.5825 495.57069 501.44889 511.31709 517.4053 521.3935 527.4817 531.4249 537.5131 540.6613 546.1195">reduce the surface area. Their thick cuticle and sunken stomata also</tspan><tspan y="-126.48041" x="192.00022 198.92383 204.37744 207.52106 214.02468 216.54079 220.5244 226.39801 228.91413 233.52774 238.98136 245.48497 252.61858 258.07218 263.5258 266.0419 274.22554 280.30915 284.29277 289.74638 294.36 296.8761 300.0197 305.8933 311.34693 316.80055">help to reduce water loss.</tspan></text>
<g clip-path="url(#clip_14556)">
<text xml:space="preserve" transform="matrix(1 0 -0 1 259.314 763.99978)" font-size="8" font-family="Arial"><tspan y="6.316" x="0"> </tspan></text>
</g>
</g>
</svg>
