<svg xmlns="http://www.w3.org/2000/svg" xmlns:xlink="http://www.w3.org/1999/xlink" xmlns:inkscape="http://www.inkscape.org/namespaces/inkscape" version="1.1" width="576" height="784.8" viewBox="0 0 576 784.8">
<defs>
<clipPath id="clip_13">
<path transform="matrix(1,0,0,-1,-18,802.8)" d="M18 18H594V802.8H18Z" clip-rule="evenodd"/>
</clipPath>
<clipPath id="clip_14">
<path transform="matrix(1,0,0,-1,259.314,763.99978)" d="M0-8H57.372V.800049H0Z"/>
</clipPath>
</defs>
<g clip-path="url(#clip_13)">
<path transform="matrix(.24,0,0,-.24,483.636,39.43701)" d="M0 0C7.32 7.32 16.16 10.99 26.52 10.99H97.35C107.71 10.99 116.55 7.32 123.87 0 131.19-7.32 134.85-16.16 134.85-26.51V-126.51C134.85-136.87 131.19-145.71 123.87-153.03 116.55-160.35 107.71-164.01 97.35-164.01H26.52C16.16-164.01 7.32-160.35 0-153.03-7.32-145.71-10.98-136.87-10.98-126.51V-26.51C-10.98-16.16-7.32-7.32 0 0" fill="#ffffff" fill-rule="evenodd"/>
<path transform="matrix(.24,0,0,-.24,-18,802.8)" d="M0 3035.83H2550V3372.7003H0Z" fill="#d1d3d4" fill-rule="evenodd"/>
<path transform="matrix(.24,0,0,-.24,-18,802.8)" d="M0 3078.33H2550V3420H0Z" fill="#e1ecb6" fill-rule="evenodd"/>
<path transform="matrix(.24,0,0,-.24,482.635,53.63501)" d="M0 0C7.32 7.32 16.16 10.98 26.52 10.98H97.35C107.71 10.98 116.55 7.32 123.87 0 131.19-7.32 134.85-16.16 134.85-26.52V-101.52C134.85-111.88 131.19-120.72 123.87-128.04 116.55-135.36 107.71-139.02 97.35-139.02H26.52C16.16-139.02 7.32-135.36 0-128.04-7.32-120.72-10.98-111.88-10.98-101.52V-26.52C-10.98-16.16-7.32-7.32 0 0" fill="#ffffff" fill-rule="evenodd"/>
<text fill="#231f20" xml:space="preserve" transform="matrix(1 0 -0 1 -18 802.8)" font-size="11" font-family="Bookman"><tspan y="-730.081" x="84">P</tspan></text>
<text fill="#231f20" xml:space="preserve" transform="matrix(1 0 -0 1 -18 802.8)" font-size="7.69999" font-family="Bookman"><tspan y="-730.081" x="90.72 95.24619 100.403789 106.03108">LANT</tspan></text>
<text fill="#231f20" xml:space="preserve" transform="matrix(1 0 -0 1 -18 802.8)" font-size="11" font-family="Bookman"><tspan y="-730.081" x="110.64 113.14932"> K</tspan></text>
<text fill="#231f20" xml:space="preserve" transform="matrix(1 0 -0 1 -18 802.8)" font-size="7.69999" font-family="Bookman"><tspan y="-730.081" x="120.96 123.4455 129.0726 135.1694 141.2662 147.363">INGDOM</tspan></text>
<text fill="#231f20" xml:space="preserve" transform="matrix(1 0 -0 1 -18 802.8)" font-size="11" font-family="Bookman,Bold" font-weight="bold"><tspan y="-729.361" x="505.91999 513.06">27</tspan></text>
<path transform="matrix(.24,0,0,-.24,-18,802.8)" d="M2 2H2548V214.67H2Z" fill="#cbdf7f" fill-rule="evenodd"/>
<path transform="matrix(.24,0,0,-.24,-18,802.8)" stroke-width="4" stroke-linecap="butt" stroke-miterlimit="1000" stroke-linejoin="miter" fill="none" stroke="#cbdf7f" d="M2 2H2548V214.67H2Z"/>
<path transform="matrix(.24,0,0,-.24,579.6,.11999512)" stroke-width="1" stroke-linecap="butt" stroke-miterlimit="10" stroke-linejoin="miter" fill="none" stroke="#000000" d="M0 0H60"/>
<path transform="matrix(.24,0,0,-.24,576.12,-18)" stroke-width="1" stroke-linecap="butt" stroke-miterlimit="10" stroke-linejoin="miter" fill="none" stroke="#000000" d="M0 0V-60"/>
<path transform="matrix(.24,0,0,-.24,579.6,784.44)" stroke-width="1" stroke-linecap="butt" stroke-miterlimit="10" stroke-linejoin="miter" fill="none" stroke="#000000" d="M0 0H60"/>
<path transform="matrix(.24,0,0,-.24,576.12,788.16)" stroke-width="1" stroke-linecap="butt" stroke-miterlimit="10" stroke-linejoin="miter" fill="none" stroke="#000000" d="M0 0V-59"/>
<path transform="matrix(.24,0,0,-.24,-17.88,-18.23999)" stroke-width="1" stroke-linecap="butt" stroke-miterlimit="10" stroke-linejoin="miter" fill="none" stroke="#000000" d="M0 0V-75"/>
<text fill="#231f20" xml:space="preserve" transform="matrix(1 0 -0 1 -18 802.8)" font-size="10.5" font-family="Bookman"><tspan y="-688.561" x="60 64.05339 71.10978 76.66467 86.71356 90.12645 93.73933 99.36 105.6 111.5763 118.1931 121.79689 124.99069 130.5365 134.14029 139.6861 143.7304 149.7067 154.3915 159.9373 166.55411 170.1579 176.3442 181.89 185.49379 191.0396 197.0159 207.0557 213.6725 216.8663 222.41211 228.38842 231.9922 237.53801 243.7243 248.4091 255.02591 261.0022 268.0495 273.8053 280.4221 285.1069 291.2932 295.33753 300.88334 306.42915 309.83296 313.43675 321.76506 328.81236 332.00614 337.55195 344.59925 348.20304 358.24284 364.42915 370.18495 373.78874 380.40553 385.95133 389.5551 392.7489 399.7962 403.4 407.4443 414.4916">them. Food is stored as complex carbohydrates, which may be in the</tspan><tspan y="-674.39999" x="60 63.3231 69.218708 73.82281 83.781909 86.255008 92.150608 95.4737 97.9468 101.0599 107.1655 117.124599 120.23769 127.20429 133.30989 137.91399 141.02709 147.99369 150.46678 156.36238 160.96648 163.43958 173.39868 179.50429 186.47089 193.43749 196.55059 200.51418 206.40978 209.52288 212.84598 215.31908 221.85518 228.82178 234.28688 236.75998 242.22509 247.69019 253.36528 258.83039 262.79399 268.89958 272.86317 275.97627 281.44136 286.90644 289.37953 294.8446 300.3097 303.4228 306.5359 312.00099 314.47407 321.44068 327.54627 333.01136 338.47645 340.94953 347.0551 349.5282 354.9933 360.45838 363.57148 366.68458 373.86119 376.97428 382.86988 388.33497 391.44807 396.91316 399.38624 407.63383 413.7394 416.8525">form of laminarin or mannitol. The vegetative cells have a cellulosic wall</tspan><tspan y="-660.48098" x="60 67.2567 72.801898 80.05859 86.24429 89.43749 92.63069 98.385898 102.50408 108.049289 114.02499 119.57019 125.11539 129.79959 135.34479 141.96099 146.07918 152.05487 159.10158 163.21977 167.26348 174.31018 179.85538 183.97357 189.94928 197.20598 201.24968 206.79488 209.98809 216.60428 222.14948 226.26767 232.88387 238.63907 242.75727 248.94297 253.06116 258.81636 264.36155 267.55476 273.74046 277.78416 280.97737 288.02406 293.99977 301.25648 306.80168 310.91987 316.46507 322.44078 328.62648 332.67018 335.86338 342.91007 348.66526 352.78346 358.75917 362.16236">usually covered on the outside by a gelatinous coating of </tspan></text>
<text fill="#231f20" xml:space="preserve" transform="matrix(1 0 -0 1 -18 802.8)" font-size="10.5" font-family="Bookman,Bold" font-weight="bold"><tspan y="-660.48098" x="366.24 372.758 376.336 382.434 386.012">algin</tspan></text>
<text fill="#231f20" xml:space="preserve" transform="matrix(1 0 -0 1 -18 802.8)" font-size="10.5" font-family="Bookman"><tspan y="-660.48098" x="393.36 396.7332 400.85639 407.4426 414.45933">. The</tspan><tspan y="-646.561" x="60 66.61699 71.30198 77.27847 81.32296 87.29945 93.91644 97.110439 103.29693 108.84292 112.887409 115.547 121.09299 127.06947 134.11696 138.16146 144.34795 147.54193 154.58942 160.1354 163.5394 166.19899 169.39298 176.44046 179.10005 185.28655 191.90354 198.52053 201.71451 205.759 208.95299 214.92948 221.97696 224.63655 228.68105 234.65753 237.31713 243.93412 247.1281 253.31459 258.8606 262.9051 266.0991 272.7161 278.2621 281.66609 284.32569 290.51219 293.17176 298.71775 304.26374 311.31123 315.3557 320.0407 326.2272 329.4212 332.6152 338.3712 341.03077 344.22477 350.20127 355.74726 361.93376 365.97825 371.52424 378.14125 380.80085 386.34684 392.53334 398.0793 405.3368 411.3133 414.5073">protoplast contains, in addition to plastids, a centrally located vacuole</tspan><tspan y="-632.39999" x="60 66.10951 73.080028 79.62003 82.097049 89.06756 96.24807 101.71708 104.83409 110.3031 117.48361 122.95262 126.27963 128.75664 135.29665 142.26715 147.73616 150.21317 156.75318 159.87018 165.97969 172.9502 176.91771 179.39472 185.93473 191.83423 198.37424 204.05326 206.53026 209.64727 215.11627 217.59328 224.77379 230.2428 237.42331 243.53282 246.64983 249.76683 255.44585 257.92286 264.03236 267.99986 271.96736 278.07685 283.54588 290.5164 295.9854 302.52543 305.0024 308.9699 314.86943 317.3464 321.3139 328.28443 333.75346 336.23045 341.69947 348.87998 355.41999 360.889 364.8565 369.4645 375.574 379.5415 386.72203 396.68504 399.16203 405.70204 411.38105 413.85804">and nucleus. The plant body is usually attached to the substratum by a</tspan></text>
<text fill="#231f20" xml:space="preserve" transform="matrix(1 0 -0 1 -18 802.8)" font-size="10.5" font-family="Bookman,Bold" font-weight="bold"><tspan y="-618.48098" x="60 67.2688 73.4876 76.9764 83.8252 87.524 93.952808 99.7516">holdfast</tspan></text>
<text fill="#231f20" xml:space="preserve" transform="matrix(1 0 -0 1 -18 802.8)" font-size="10.5" font-family="Bookman"><tspan y="-618.48098" x="104.16 107.4896 109.9692 116.0813 123.0544 129.597 132.0766 139.0497 145.1618 150.6334 153.113 159.22512 161.70471 167.17632 171.14641 177.25852 180.37812 186.92072 190.25032 192.72992 196.70001 203.67311 209.14472">, and has a stalk, the </tspan></text>
<text fill="#231f20" xml:space="preserve" transform="matrix(1 0 -0 1 -18 802.8)" font-size="10.5" font-family="Bookman,Bold" font-weight="bold"><tspan y="-618.48098" x="211.68 217.4682 221.7864 225.26462 232.10283 237.89104">stipe </tspan></text>
<text fill="#231f20" xml:space="preserve" transform="matrix(1 0 -0 1 -18 802.8)" font-size="10.5" font-family="Bookman"><tspan y="-618.48098" x="240.72 246.83202 253.80503 260.34754 262.82704 265.94654 271.41804 277.53004 280.85954 283.33903 286.45854 289.57804 296.12055 301.59205 304.07154 310.61405 317.58708 323.48908 327.45909 333.36109 338.83259 344.5141 351.48713 355.45713 362.43016 367.90165 371.87165 374.99116 380.46266 382.94215 388.84416 393.45466 399.13618 405.24818 412.2212 414.70069">and leaf like photosynthetic organ &#x2013;</tspan><tspan y="-604.561" x="60 63.8086 70.6202 75.9303">the </tspan></text>
<text fill="#231f20" xml:space="preserve" transform="matrix(1 0 -0 1 -18 802.8)" font-size="10.5" font-family="Bookman,Bold" font-weight="bold"><tspan y="-604.561" x="78.479999 82.0505 86.881 92.9715 100.112">frond</tspan></text>
<text fill="#231f20" xml:space="preserve" transform="matrix(1 0 -0 1 -18 802.8)" font-size="10.5" font-family="Bookman"><tspan y="-604.561" x="106.799999 109.97311 112.29622 118.31999 123.6669 129.22382 134.57073 138.41614 144.40355 148.24897 151.24387 156.59078 161.93769 164.29259 168.7785 174.12541 180.54332 185.02924 190.80664 197.22455 204.28296 209.62987 213.47528 216.47019 222.24759 229.096 231.4509 235.29631 241.28372 247.70163 253.04854 258.39546 260.75035 267.16825 270.16316 276.15055 281.49748 286.8444 289.19929 295.6172 301.1741 303.529 306.7339 311.2198 317.20719 322.7641 332.605 337.95195 344.80036 348.64576 354.63316 358.47856 361.47346 367.25086 374.09928 377.30418 379.65907 387.36 392.6938 398.0276 403.7919 410.8372 416.8115">. Vegetative reproduction takes place by fragmentation. Asexual</tspan><tspan y="-590.39999" x="60 64.6839 70.2288 76.844699 81.528598 87.504 94.119899 101.3763 106.921199 110.9646 114.1575 120.132907 127.179309 130.3009 133.4938 140.5402 143.6618 153.7007 159.6761 165.22101 169.2644 172.386 179.0019 183.6858 189.66121 197.98862 205.03502 208.15662 214.34201 217.53491 223.28981 229.4752 235.02011 238.14171 241.33461 246.87952 250.00112 256.617 262.37193 265.49354 272.10945 275.30235 278.70524 281.89814 288.08354 293.83845 299.38334 302.57624 305.76914 311.95454 315.99794 321.54283 324.66444 329.77885 335.75425 341.72966 347.27455 353.89045 359.86585 364.54975 370.09465">reproduction in most brown algae is by biflagellate zoospores</tspan></text>
<text fill="#231f20" xml:space="preserve" transform="matrix(1 0 -0 1 -18 802.8)" font-size="10.5" font-family="Bookman,Bold" font-weight="bold"><tspan y="-590.39999" x="375.6"> </tspan></text>
<text fill="#231f20" xml:space="preserve" transform="matrix(1 0 -0 1 -18 802.8)" font-size="10.5" font-family="Bookman"><tspan y="-590.39999" x="379.2 383.23924 390.28144 396.46266 400.50187 403.6006 409.7818 414.46153">that are</tspan><tspan y="-576.48098" x="60 66.5403 72.0096 78.1194 81.12 85.336917 90.83482 97.834239 103.97265 110.54156 116.03947 122.608379 125.11429 131.2527 138.2521 144.82102 147.32692 154.32633 160.46474 165.96265 171.46056 173.96646 177.96288 186.24329 192.17169 194.6776 201.88701 208.88642 214.38433 220.52274 227.73215 233.87056 237.01647 239.52237 242.66828 248.80669 252.8031 258.30104 262.93794 269.07633 272.22224 275.36814 281.07606 283.58195 289.72035 293.71675 297.71315 303.85154 309.34947 316.34889 321.8468 328.4157 330.9216 334.2775 337.4234 343.5618 349.2697 354.76765 357.91355 361.05946 367.19786">pear-shaped and have two unequal laterally attached flagella.</tspan><tspan y="-562.561" x="78 84.9366 90.3717 96.2373 103.383899 109.459499 112.542598 114.985698 119.55979 124.99489 131.50099 136.07509 141.94069 148.4468 155.5934 161.0285 164.9621 168.0452 173.9108 180.8474 183.2905 193.2196 199.29521 204.9403 207.3834 213.88951 219.32462 221.76772 224.85082 230.28592 236.15152 241.79662 247.87223 257.80134 263.66694 270.81355 276.24864 279.54173 281.9848 288.0604 294.997 298.0801 303.5152 309.3808 315.0259 321.1015 331.0306 336.8962 344.04283 349.4779 351.921 357.7866 362.3607 364.80378 370.66938 376.53498 382.18009 388.25569 398.18479 404.05039 411.197 416.63209">Sexual reproduction may be isogamous, anisogamous or oogamous.</tspan><tspan y="-548.39999" x="60 68.32979 75.37858 78.57387 84.55166 91.60045 96.551128 102.528919 105.934207 110.88488 116.64217 122.82996 132.87125 138.41854 142.46433 148.01161 153.5589 158.50959 168.55088 174.73867 180.49596 185.44664 189.49243 195.68022 202.29851 207.8458 212.79648 219.41477 222.61006 228.79785 234.34514 239.89243 244.84311 248.0384 255.08719 260.03788 268.36769 274.55549 278.60127 284.14857 288.83485 293.78553 299.7633 304.4496 309.40028 317.73008 320.92536 324.97114 332.01994 335.2152 342.264 347.2147 351.26048 358.30928 363.85658 368.80726 374.78504 380.76283 386.5201 392.4979 399.5467 402.74198 410.00077">Union of gametes may take place in water or within the oogonium</tspan><tspan y="-534.48098" x="60 63.14701 69.6 75.5781 81.3357 87.5238 97.56541 103.54351 110.80261 116.35021 119.424617 124.97221 131.59082 137.13843 142.68604 145.88164 151.42925 156.97686 160.17246 163.57805 166.65244 173.27104 180.32015 185.86775 188.94214 194.69974 200.88784 210.92943 216.47704 220.52313 226.07074 231.61835 234.69274 240.88083 245.56743 251.11504 254.18943 260.808 266.5656 271.25224 274.4478 277.85343 283.8315 288.51814 298.55973 301.63414 304.8297 311.4483 316.9959 323.18403 325.92 330.1877 335.7364 342.7866 348.97578 355.59547 361.14414 367.76383 370.9605 374.03599 380.22517 387.27537 393.89506 396.97053 403.5902 409.1389 415.32807">(oogamous species). The gametes are pyriform (pear-shaped) and bear</tspan><tspan y="-520.561" x="60 63.6928 71.6696 77.2944 79.496707 82.339008 88.173809 91.86661 97.060909 101.3942 107.229007 110.071308 112.913608 118.3179 120.5202 126.355 130.0478 133.7406 139.57541 144.76972 151.46552 156.65982 162.92513 165.12743 168.17974 171.02204 176.85684 182.26114 187.45545 190.29775 193.14005 198.97486 202.02716 204.22946 210.49477 217.19057 222.38488 224.58718 229.78148 235.40628 245.09458 254.78287 260.40766 267.10346 269.30577 272.35807 277.98286 282.31617 292.00447 297.19877 299.40107 305.23588 309.56919 314.7635">two laterally attached flagella. The common forms are </tspan></text>
<text fill="#231f20" xml:space="preserve" transform="matrix(1 0 -0 1 -18 802.8)" font-size="10.5" font-family="Bookman,Italic" font-style="italic"><tspan y="-520.561" x="317.04 324.2471 329.3542 332.99128 338.51838 343.62547 349.36256 353.62965 359.78675 366.57386 371.68095 374.68806 376.84516 384.89225 387.68934 392.79643 396.43354 401.75065 407.27775 410.91487 416.65196">Ectocarpus, Dictyota,</tspan><tspan y="-506.39997" x="60 66.29221 72.37442 82.23663 85.378849 92.301059 98.38327 102.99548 106.137699 112.21991 115.57212 118.42433 125.34654 131.42876 136.04097 141.70319 147.7854 153.23761 158.68982 165.82202">Laminaria, Sargassum</tspan></text>
<text fill="#231f20" xml:space="preserve" transform="matrix(1 0 -0 1 -18 802.8)" font-size="10.5" font-family="Bookman"><tspan y="-506.39997" x="175.683 178.5811 184.7867 191.8533 198.48941"> and </tspan></text>
<text fill="#231f20" xml:space="preserve" transform="matrix(1 0 -0 1 -18 802.8)" font-size="10.5" font-family="Bookman,Italic" font-style="italic"><tspan y="-506.39997" x="201.36 208.08469 215.22937 220.69406 227.83875 233.30344">Fucus </tspan></text>
<text fill="#231f20" xml:space="preserve" transform="matrix(1 0 -0 1 -18 802.8)" font-size="10.5" font-family="Bookman"><tspan y="-506.39997" x="236.16 239.3547 246.1824 249.3771 255.1338 262.392 267.0777 272.6244 275.4791 282.0968 285.5015 292.1192 298.7369">(Figure 3.1b)</tspan></text>
<text fill="#231f20" xml:space="preserve" transform="matrix(1 0 -0 1 -18 802.8)" font-size="10.5" font-family="Bookman,Italic" font-style="italic"><tspan y="-506.39997" x="301.92">.</tspan></text>
<text fill="#00aeef" xml:space="preserve" transform="matrix(1 0 -0 1 -18 802.8)" font-size="12" font-family="Bookman,Bold" font-weight="bold"><tspan y="-480.48097" x="60.000017 67.86002 72.12003 79.98004 84.24005 102.000019 111.054927 119.38983 126.52474 134.37966 141.51456 149.36946 157.70438 164.59929 171.2542 177.9091 185.28401">3.1.3Rhodophyceae</tspan></text>
<text fill="#231f20" xml:space="preserve" transform="matrix(1 0 -0 1 -18 802.8)" font-size="10.5" font-family="Bookman"><tspan y="-460.56095" x="60.000017 66.40582 73.242137 78.57694 80.97695 90.80576 96.14057 105.96938 112.37519 117.71 122.18381 127.518619 129.91863 135.68393 138.87674 141.27675 145.75057 152.58687 158.35218 164.75798 170.52329 176.9291 183.7654 189.31021 194.64502 199.97983 205.95514 211.28995 213.68996 219.66527 224.13909 229.47389 231.8739 237.20871 242.97402 252.80283 262.63163 268.39695 275.23326 278.21607 283.76087 286.1609 291.4957 297.471 300.45384 303.43666 308.77146 315.17729">The members of rhodophyceae are commonly called </tspan></text>
<text fill="#231f20" xml:space="preserve" transform="matrix(1 0 -0 1 -18 802.8)" font-size="10.5" font-family="Bookman,Bold" font-weight="bold"><tspan y="-460.56095" x="317.52003 322.36354 328.04704 334.78053 337.46403 343.77754 347.15104 353.04454 359.35804 365.04154">red algae </tspan></text>
<text fill="#231f20" xml:space="preserve" transform="matrix(1 0 -0 1 -18 802.8)" font-size="10.5" font-family="Bookman"><tspan y="-460.56095" x="367.68003 374.08586 379.42066 384.75547 390.73078 397.7771 403.1119 408.44673 410.83955 416.60487">because of</tspan><tspan y="-446.39994" x="60.00003 63.662134 70.32723 75.49083 77.66243 83.89703 88.19963 93.36323 99.59783 105.19193 114.84953 117.66113 124.32623 130.13034 136.79544 141.95905 147.12265 149.29425 154.88835 157.90996 160.08156 163.74365 170.40876 175.57236 177.74396 182.04656 187.21016 193.44477 195.61637 201.85097 204.66257 210.03617 219.69376 224.85736 231.52246 235.18456 238.20616 240.37776 242.88004 246.75904 252.99004 259.65156 265.02156 270.18156 275.77207 280.93208 285.23109 290.60108 294.25959 300.92109 305.2201 308.0281 314.6896 316.8576 319.66563 326.32713 328.49513 332.15364 338.81513 343.97514 346.78315 351.08216 353.25016 359.48115 365.07167 371.30265 374.64 377.6611 379.83219 389.2688 395.0724 397.88349 403.47709 407.77919 410.59028 414.25187">the predominance of the red pigment, r-phycoerythrin in their body. Majority</tspan><tspan y="-432.48094" x="60 65.61701 68.66152 70.85603 74.541049 81.22906 86.415569 88.61008 92.935588 98.12209 104.3796 106.57411 112.40112 115.235637 120.63214 126.45915 131.64566 133.84017 139.66718 143.99269 149.1792 151.3737 161.05422 166.88123 171.20674 174.04125 180.72925 185.91576 188.11026 196.07927 198.91378 202.59879 209.28679 211.4813 216.8778 221.20333 226.38983 232.21685 235.90186 241.08837 245.41388 247.60839 252.79489 258.4119 265.0999 270.28645 275.47297 282.16099 285.84599 290.17149 295.99848 299.68348 302.51799 308.13499 314.823 320.00953 322.204 325.24855 330.86555 337.76356 344.45158 350.70909 352.9036 355.7381 362.42613 364.62065 368.30564 374.99366 380.18019 382.37467 390.3437 396.1707 400.4962 410.1767 415.36323">of the red algae are marine with greater concentrations found in the warmer</tspan><tspan y="-418.5609" x="60 65.96591 70.43032 75.75573 81.72164 87.04705 90.23046 92.56387 98.96028 105.78719 111.1126 116.64801 118.98142 124.737339 130.06275 135.38816 142.42507 146.88948 149.22289 152.19629 159.0232 161.3566 167.753 173.50891 177.33283 184.15973 186.49314 194.60105 199.92646 202.89986 205.87326 209.91767 212.89107 215.86447 221.39989 228.22679 232.0507 237.37612 243.77252 246.10593 250.57035 255.89575 261.43116 264.40458 270.1605 276.9874 282.3128 284.6462 289.97163 292.94505 298.70097 304.02638 309.35179 311.68519 315.5091 321.265 323.59843 327.42234 334.24925 339.57466 341.90806 347.23347 354.27037 358.73478 361.91819 367.8841 373.2095 378.5349 380.86833 386.62425 389.80766 392.14106 400.24897 406.21488 410.0388 415.3642">areas. They occur in both well-lighted regions close to the surface of water</tspan><tspan y="-404.3999" x="60 65.8715 72.604 78.906 81.145 87.016498 89.89549 95.126499 100.787998 103.02699 108.89849 112.62799 114.86699 120.30799 124.67799 129.909 135.7805 139.51001 141.74901 148.05101 153.28202 159.58402 163.31352 170.04602 175.27703 177.51602 180.39502 187.12752 189.36652 195.02802 200.25902 205.49002 211.36153 218.09403 223.32503 225.56403 233.57753 240.31003 245.54103 249.91103 255.14203 257.381 261.751 266.982 269.861 275.73249 279.46199 282.34098 287.57197 292.80296 295.68196 301.12297 303.36195 306.24095 309.11994 312.84944 316.57893 319.45793 324.6889 326.9279 329.8069 332.68589 338.1269 344.8594 348.5889 350.82789 357.12989 362.36088 369.09339 374.32438 378.05387 382.42387 388.29536 392.02485 397.25584 402.48683">and also at great depths in oceans where relatively little light penetrates.</tspan><tspan y="-390.4809" x="78 84.4653 91.3611 96.7554 99.1577 103.691 109.085308 115.550609 117.9529 121.8457 128.7415 134.7763 137.8186 140.8609 143.9032 146.3055 152.1303 155.3826 157.7849 167.6732 173.498 178.8923 182.78511 185.18741 191.0122 194.26451 196.66681 200.55962 207.45542 212.84972 215.25202 219.78531 225.17961 231.64492 234.04721 240.08202 243.12432 248.7286 254.76342 260.1577 262.56 268.5948 273.12809 278.52238 280.92466 283.32695 293.21525 300.32106 303.36335 307.25614 310.29844 315.69273 321.087 324.1293 327.1716 334.2774 337.3197 343.3545 346.32 349.5667 351.9634 358.8536 364.67283 374.5555 379.9442 382.3409 388.16014 391.40684 393.80354 397.69075 404.58094 409.96965">The red thalli of most of the red algae are  multicellular. Some of them</tspan><tspan y="-376.56089" x="60 67.0454 73.229808 78.773708 84.317607 86.969509 92.513408 98.48781 108.52571 115.14061 118.33251 123.87641 129.85082 132.50272 139.11762 145.09201 151.70691 157.46082 160.11272 166.08712 170.77002 176.52393 182.70833 189.75373 192.94562 198.48952 204.67392 208.71633 211.90822 217.88262 224.92801 228.32991 230.98181 237.59671 244.6421 250.186 252.8379 256.2398 262.2142 268.1886 274.8035 277.45539 280.64729 286.1912 288.84309 294.387 298.42939 304.40379 309.08668 314.63059 321.24549 323.89738 330.08177 335.62568 338.27757 341.67945 344.87135 350.84574 355.52864 358.72053 365.33543 370.87934 377.06373 384.10914 386.76103 392.30494 396.34733 402.5317 407.2146 412.7585">have complex body organisation. The food is stored as floridean starch</tspan><tspan y="-362.39988" x="60 68.25691 75.23282 78.35523 83.82964 90.80555 93.287967 96.41038 101.88479 104.3672 109.84161 115.316028 119.929439 125.613849 128.09626 133.57067 136.69307 146.66149 149.78389 152.9063 159.02121 163.63462 166.11702 170.08994 175.99485 178.47725 184.59217 194.56058 200.245 203.3674 209.27231 215.81772 221.29213 226.76654 230.73946 233.86186 240.83777 243.32018 249.43509 256.411 262.95643 265.4388 271.12324 274.24565 279.93006 285.40446 291.30937 296.99378 302.46818 309.4441 311.92649 315.0489 322.0248 324.5072 329.9816 333.9545 338.5679 345.7538 351.2282 355.2011 362.38703 367.00044 372.47483">which is very similar to amylopectin and glycogen in structure.</tspan><tspan y="-348.48088" x="78 84.5262 91.4829 96.9381 99.401309 103.99551 109.45071 115.976909 118.44011 124.53581 127.639019 133.30422 139.39992 144.85512 147.31832 154.48502 159.94022 167.10692 173.20262 176.30582 179.40901 185.07422 187.53742 192.13162 197.58683 204.11302 208.70722 214.59291 221.11911 228.28582 233.74102 239.19622 241.65941 247.11461 252.56981 258.23503 263.69023 267.64393 273.73963 277.69334 280.79655 286.25175 291.70695 294.81016 300.47535 302.93855 309.46476 315.12995 317.59315 320.90635 325.50056 331.59626 337.26145 347.21064 352.66584 359.62254 363.57624 369.67195 373.62565 376.72886 382.61457 389.57127 392.88447 395.34767 401.87388 408.83058 414.28578">The red algae usually reproduce vegetatively by fragmentation. They</tspan><tspan y="-334.56086" x="60 64.68281 70.226619 76.84143 81.52424 87.49855 94.11336 101.36867 106.912479 112.45628 115.58311 121.76742 127.311229 132.85504 138.82935 146.08466 152.26897 155.46077 158.65258 164.40639 167.5332 174.14801 179.90183 183.02864 190.07395 196.04825 203.09355 207.35637 217.39418 223.36849 227.4108 230.6026 233.7944 239.33821 242.46503 248.00884 254.62364 260.59797 265.28077 270.8246 276.3684 279.49525 285.67958 292.72489 299.3397 302.46653 308.01036 313.55418 319.52848 326.78379 332.96809 336.15989 339.35169 345.1055 348.23234 354.84715 360.60096 363.72779 370.7731 376.7474 383.79273 388.05555 398.09336 404.06767 408.10997 411.30177 414.49357">reproduce asexually by non-motile spores and sexually by non-motile</tspan></text>
<path transform="matrix(.24,0,0,-.24,-18,802.8)" d="M252 389.71H2225.5V1225.3H252Z" fill="#fedbb4" fill-rule="evenodd"/>
<path transform="matrix(.24,0,0,-.24,-18,802.8)" stroke-width="4" stroke-linecap="butt" stroke-miterlimit="1000" stroke-linejoin="miter" fill="none" stroke="#fcbb76" d="M252 389.71H2225.5V1225.3H252Z"/>
<text fill="#231f20" xml:space="preserve" transform="matrix(1 0 -0 1 -18 802.8)" font-size="11" font-family="Bookman,Bold" font-weight="bold"><tspan y="-307.2" x="143.04">T</tspan></text>
<text fill="#231f20" xml:space="preserve" transform="matrix(1 0 -0 1 -18 802.8)" font-size="7.69999" font-family="Bookman,Bold" font-weight="bold"><tspan y="-307.2" x="150.23999 155.78119 161.78438 166.70957">ABLE</tspan></text>
<text fill="#231f20" xml:space="preserve" transform="matrix(1 0 -0 1 -18 802.8)" font-size="11" font-family="Bookman,Bold" font-weight="bold"><tspan y="-307.2" x="172.55899 177.39899 184.63899 188.579"> 3.1</tspan></text>
<text fill="#231f20" xml:space="preserve" transform="matrix(1 0 -0 1 -18 802.8)" font-size="9.5" font-family="Bookman,Bold" font-weight="bold"><tspan y="-307.2" x="195.84 200.0433 208.02092 211.24854 216.56615 219.79376 225.11138 228.33899 234.0366 240.68422 246.00183 250.20514 255.90276 259.32038 263.52369 270.3613 273.5889 279.0965 284.9841 290.3017 294.505 300.3926 307.04023 313.30784 317.51115 321.49876 328.14637 333.46397 336.69157 341.24919 345.45249 354.5701 360.4577 363.6853 370.33293 374.53623 381.94386 388.59147 394.47908 399.03669 404.9243 410.24189 414.2295 419.5471 424.1047 427.3323 432.6499 436.6375 439.8651 445.1827"> Divisions of Algae and their Main Characteristics</tspan></text>
<path transform="matrix(.24,0,0,-.24,42.72,558.24)" stroke-width="4" stroke-linecap="butt" stroke-miterlimit="10" stroke-linejoin="miter" fill="none" stroke="#ffffff" d="M0 0H1971"/>
<path transform="matrix(.24,0,0,-.24,42.72,596.64)" stroke-width="4" stroke-linecap="butt" stroke-miterlimit="10" stroke-linejoin="miter" fill="none" stroke="#ffffff" d="M0 0H1971"/>
<path transform="matrix(.24,0,0,-.24,42.72,647.27999)" stroke-width="4" stroke-linecap="butt" stroke-miterlimit="10" stroke-linejoin="miter" fill="none" stroke="#ffffff" d="M0 0H1971"/>
<text fill="#231f20" xml:space="preserve" transform="matrix(1 0 -0 1 -18 802.8)" font-size="9.5" font-family="Bookman,Bold" font-weight="bold"><tspan y="-283.44" x="61.92 69.38909 72.678188 78.62727 84.00636 89.38545 94.76454 140.88 148.6425 154.69499 164.35749 174.01998 180.07247 197.04001 206.1757 212.0814 215.3271 221.0428 274.08003 281.0006 285.2612 291.23179 296.06239 301.65296 332.16004 339.45927 344.66847 347.78767 350.90687 353.36607 362.75529 368.5345 371.6537 391.68003 398.24565 401.58125 407.57685 413.19245 418.61805 421.95365 425.28926 431.28486 458.88 467.1341 473.2982 479.8423 483.34638 487.61048 493.77458">ClassesCommonMajorStoredCell WallFlagellarHabitat</tspan><tspan y="-272.16" x="140.88 148.74089 155.08179 164.84268 197.04001 203.7562 207.43239 213.38858 223.14478 228.91097 236.00716 240.44335 274.08003 280.7369 286.6338 292.53068 391.68003 399.07054 405.89103 415.18153 421.432 426.7325 431.273 435.07353 440.94404 447.57453">NamePigmentsFoodNumber and</tspan><tspan y="-260.64" x="391.68003 398.0613 403.8726 409.3039 412.64518 416.74647 420.08775 425.89903 432.6603 437.89158 443.70286">Position of</tspan><tspan y="-249.36002" x="391.68003 395.5361 402.4322 407.9983 413.5644 418.37049 422.60658 426.08268 432.02876 438.92485">Insertions</tspan></text>
<text fill="#231f20" xml:space="preserve" transform="matrix(1 0 -0 1 -18 802.8)" font-size="9.5" font-family="Bookman"><tspan y="-233.76001" x="61.920015 68.88001 75.4187 78.470897 84.04058 88.44177 94.01146 100.16065 106.69934 112.069538 117.249729 122.42992 128.1896 140.88 148.56 153.14479 158.64 164.0263 197.04001 203.76001 210.2538 213.2611 218.78589 223.14218 228.66698 234.77127 241.26506 246.59035 249.59764 274.08003 280.78004 284.76304 290.68403 295.24653 300.588 332.16004 339.47123 344.65443 347.70964 350.76484 357.49653 360.55174 366.12443 371.30763 391.68003 397.6824 401.5568 407.55918 410.65458 414.69996 419.73335 425.34623 431.9281 437.541 440.44639 458.88 463.92 468.1651 473.1892 478.21333 484.59593 488.732 496.2736 501.8772 505.5428 510.5669 513.60006">ChlorophyceaeGreenChlorophyllStarchCellulose2-8, equal,Fresh water,</tspan><tspan y="-222.48001" x="140.88004 146.76074 149.93395 155.42514 161.30585">algae</tspan></text>
<text fill="#231f20" xml:space="preserve" transform="matrix(1 0 -0 1 -18 802.8)" font-size="9.5" font-family="Bookman,Italic" font-style="italic"><tspan y="-222.48001" x="197.04004 202.55744 205.60483 209.15222">a, b</tspan></text>
<text fill="#231f20" xml:space="preserve" transform="matrix(1 0 -0 1 -18 802.8)" font-size="9.5" font-family="Bookman"><tspan y="-222.48001" x="391.68006 397.53868 403.78678 406.93788 412.21699 418.0756 458.88008 464.86219 469.09629 474.6889 479.70204 485.68415 488.56925 493.58238 499.95399 504.3791 511.9097 517.5023 521.1569 526.17007 529.44009">apicalbrackish water,</tspan><tspan y="-210.96" x="458.88008 463.91609 469.5316 472.43959 476.11708 480.76506 488.31855 493.93406 497.61155 502.64756">salt water</tspan><tspan y="-193.92002" x="61.920076 68.114269 74.69795 80.50264 85.72783 91.34252 97.53671 104.1204 109.53559 114.76078 119.98597 125.79066 140.88007 148.21106 152.63506 158.22754 165.94803 197.04007 204.32106 210.83255 213.85755 219.40004 223.77404 229.31653 235.43852 241.95001 247.293 250.318 274.08009 283.14009 288.9131 295.4651 302.0171 305.08259 308.91758 314.50059 317.56608 332.1601 339.47129 344.65449 347.7097 350.7649 357.49659 360.5518 366.12449 371.30769 391.68009 397.6728 400.75849 405.39418 411.96638 418.34858 423.37229 428.9755 435.5477 441.1509 444.0466 458.88008 465.09098 469.36387 474.41578 479.46769 485.87809 490.54197 498.11137 503.74278 507.43617 512.48806">PhaeophyceaeBrownChlorophyllMannitol,Cellulose2, unequal,Fresh water</tspan><tspan y="-182.64002" x="140.88007 146.76078 149.93398 155.42517 161.30588">algae</tspan></text>
<text fill="#231f20" xml:space="preserve" transform="matrix(1 0 -0 1 -18 802.8)" font-size="9.5" font-family="Bookman,Italic" font-style="italic"><tspan y="-182.64002" x="197.04007 202.53568 205.56128 209.23688 214.16248">a, c,</tspan></text>
<text fill="#231f20" xml:space="preserve" transform="matrix(1 0 -0 1 -18 802.8)" font-size="9.5" font-family="Bookman"><tspan y="-182.64002" x="274.08009 277.22828 283.08396 292.42616 295.57435 302.20906 308.06474 312.56193 315.7101 332.1601 337.7942 344.20729 350.23088 354.89747 360.53157 363.45817 368.70277 371.62937 391.68009 394.82899 400.68537 404.60377 409.88066 414.37855 420.23493 458.88008 461.77027 466.00947 471.60716 475.84635 480.86454 483.75474 486.83494 491.21513 497.2023 501.4415 507.03919 512.0574 518.04458 520.93478 525.95297">laminarinand alginlateral(rare), brackish</tspan><tspan y="-171.12001" x="197.04007 200.30117 207.04877 212.24787 217.83646 223.42505 229.20365 235.76125 239.60186 246.15946 249.23056 458.88008 466.44429 472.07048 475.75868 480.80537 484.08009 487.22587 491.92164 497.00544 502.66874 505.6245">fucoxanthinwater, salt</tspan><tspan y="-159.84001" x="458.88008 466.62428 472.43046 476.29866 481.52534">water</tspan><tspan y="-142.80002" x="61.920076 69.01167 75.52377 81.06687 87.18947 92.73257 98.85516 105.36726 110.71086 115.86446 121.01807 126.75117 140.88007 147.85747 152.89687 197.04007 204.32106 210.83255 213.85755 219.40004 223.77404 229.31653 235.43852 241.95001 247.293 250.318 274.08009 280.41517 283.46327 289.02885 293.42594 296.47404 302.6191 307.7952 313.55079 332.1601 339.4574 344.6267 347.668 350.7093 357.4271 360.46839 366.0272 371.1965 376.3658 391.68009 398.4904 404.7212 409.983 415.2448 421.8651 458.88008 465.09098 469.36387 474.41578 479.46769 485.87809 490.54197 498.11137 503.74278 507.43617 512.48806">RhodophyceaeRedChlorophyllFlorideanCellulose,AbsentFresh water</tspan><tspan y="-131.28002" x="140.88007 146.76078 149.93398 155.42517 161.30588">algae</tspan></text>
<text fill="#231f20" xml:space="preserve" transform="matrix(1 0 -0 1 -18 802.8)" font-size="9.5" font-family="Bookman,Italic" font-style="italic"><tspan y="-131.28002" x="197.04007 202.52828 205.54648 209.01468 214.88288">a, d,</tspan></text>
<text fill="#231f20" xml:space="preserve" transform="matrix(1 0 -0 1 -18 802.8)" font-size="9.5" font-family="Bookman"><tspan y="-131.28002" x="274.08009 279.40528 283.37199 289.27668 293.82289 299.14808 332.1601 338.18119 343.23329 348.28538 351.97898 354.90309 361.3137 365.97779 371.60939 378.02 458.8801 461.84638 466.94068 472.42448 481.58476 486.67906 489.64533">starchpectin and(some),</tspan><tspan y="-120.000019" x="197.0401 203.2074 209.76419 215.15248 220.35077 225.93856 231.13684 235.55614 240.94443 244.78421 251.341 255.7603 258.8306 332.1601 338.131 343.52244 346.39634 458.8801 465.0976 469.56709 475.39509 480.6436 486.86109 489.98158 495.23008">phycoerythrinpolybrackish</tspan><tspan y="-108.48001" x="332.1601 337.4085 344.2054 347.3258 353.5432 360.15013 365.97804 369.86793 458.8801 466.4443 472.0705 475.7587 480.8054 484.0801 487.2259 491.92167 497.00547 502.66877 505.62455">sulphatewater, salt</tspan><tspan y="-97.20001" x="332.1601 337.4409 342.72169 346.64399 351.92478 356.42658 458.8801 466.421 472.0239 475.68879 480.7122 484.9566 489.192 492.08738 501.17677 506.58967 511.61308 515.27798">esterswater (most)</tspan></text>
<path transform="matrix(.24,0,0,-.24,118.8,509.28)" stroke-width="4" stroke-linecap="butt" stroke-miterlimit="10" stroke-linejoin="miter" fill="none" stroke="#ffffff" d="M0 0V-830"/>
<path transform="matrix(.24,0,0,-.24,173.04,509.28)" stroke-width="4" stroke-linecap="butt" stroke-miterlimit="10" stroke-linejoin="miter" fill="none" stroke="#ffffff" d="M0 0V-831"/>
<path transform="matrix(.24,0,0,-.24,250.56,509.28)" stroke-width="4" stroke-linecap="butt" stroke-miterlimit="10" stroke-linejoin="miter" fill="none" stroke="#ffffff" d="M0 0V-831"/>
<path transform="matrix(.24,0,0,-.24,311.04,509.28)" stroke-width="4" stroke-linecap="butt" stroke-miterlimit="10" stroke-linejoin="miter" fill="none" stroke="#ffffff" d="M0 0V-831"/>
<path transform="matrix(.24,0,0,-.24,368.4,509.28)" stroke-width="4" stroke-linecap="butt" stroke-miterlimit="10" stroke-linejoin="miter" fill="none" stroke="#ffffff" d="M0 0V-830"/>
<path transform="matrix(.24,0,0,-.24,437.76,509.28)" stroke-width="4" stroke-linecap="butt" stroke-miterlimit="10" stroke-linejoin="miter" fill="none" stroke="#ffffff" d="M0 0V-830"/>
<g clip-path="url(#clip_14)">
<text xml:space="preserve" transform="matrix(1 0 -0 1 259.314 763.99978)" font-size="8" font-family="Arial"><tspan y="6.316" x="0"> </tspan></text>
</g>
</g>
</svg>
