<svg xmlns="http://www.w3.org/2000/svg" xmlns:xlink="http://www.w3.org/1999/xlink" xmlns:inkscape="http://www.inkscape.org/namespaces/inkscape" version="1.1" width="576" height="784.8" viewBox="0 0 576 784.8">
<defs>
<clipPath id="clip_1763">
<path transform="matrix(1,0,0,-1,-18,802.8)" d="M18 18H594V802.8H18Z" clip-rule="evenodd"/>
</clipPath>
<clipPath id="clip_1764">
<path transform="matrix(1,0,0,-1,259.314,763.99978)" d="M0-8H57.372V.800049H0Z"/>
</clipPath>
</defs>
<g clip-path="url(#clip_1763)">
<path transform="matrix(.24,0,0,-.24,-18,802.8)" d="M2 2H2548V214.67H2Z" fill="#cbdf7f" fill-rule="evenodd"/>
<path transform="matrix(.24,0,0,-.24,-18,802.8)" stroke-width="4" stroke-linecap="butt" stroke-miterlimit="1000" stroke-linejoin="miter" fill="none" stroke="#cbdf7f" d="M2 2H2548V214.67H2Z"/>
<path transform="matrix(.24,0,0,-.24,-18,802.8)" d="M0 3035.83H2550V3372.7003H0Z" fill="#d1d3d4" fill-rule="evenodd"/>
<path transform="matrix(.24,0,0,-.24,-18,802.8)" d="M0 3078.33H2550V3420H0Z" fill="#e1ecb6" fill-rule="evenodd"/>
<path transform="matrix(.24,0,0,-.24,62.6362,53.63501)" d="M0 0C7.32 7.32 16.16 10.98 26.52 10.98H97.35C107.71 10.98 116.55 7.32 123.87 0 131.19-7.33 134.85-16.17 134.85-26.52V-101.52C134.85-111.88 131.19-120.72 123.87-128.04 116.55-135.36 107.71-139.02 97.35-139.02H26.52C16.16-139.02 7.32-135.36 0-128.04-7.32-120.72-10.98-111.88-10.98-101.52V-26.52C-10.98-16.17-7.32-7.33 0 0" fill="#ffffff" fill-rule="evenodd"/>
<text fill="#231f20" xml:space="preserve" transform="matrix(1 0 -0 1 -18 802.8)" font-size="11" font-family="Bookman"><tspan y="-729.361" x="87.12 94.26001">16</tspan></text>
<text fill="#231f20" xml:space="preserve" transform="matrix(1 0 -0 1 -18 802.8)" font-size="11" font-family="Bookman"><tspan y="-729.361" x="513.12">B</tspan></text>
<text fill="#231f20" xml:space="preserve" transform="matrix(1 0 -0 1 -18 802.8)" font-size="7.69999" font-family="Bookman"><tspan y="-729.361" x="521.04 523.4336 529.3692 533.76486 539.70046 545.63607">IOLOGY</tspan></text>
<path transform="matrix(.24,0,0,-.24,-18,.35998536)" stroke-width="1" stroke-linecap="butt" stroke-miterlimit="10" stroke-linejoin="miter" fill="none" stroke="#000000" d="M0 0H60"/>
<path transform="matrix(.24,0,0,-.24,.12000084,-18)" stroke-width="1" stroke-linecap="butt" stroke-miterlimit="10" stroke-linejoin="miter" fill="none" stroke="#000000" d="M0 0V-60"/>
<path transform="matrix(.24,0,0,-.24,-18,784.68)" stroke-width="1" stroke-linecap="butt" stroke-miterlimit="10" stroke-linejoin="miter" fill="none" stroke="#000000" d="M0 0H60"/>
<path transform="matrix(.24,0,0,-.24,.12000084,788.16)" stroke-width="1" stroke-linecap="butt" stroke-miterlimit="10" stroke-linejoin="miter" fill="none" stroke="#000000" d="M0 0V-60"/>
<path transform="matrix(.24,0,0,-.24,593.64,784.56)" stroke-width="1" stroke-linecap="butt" stroke-miterlimit="10" stroke-linejoin="miter" fill="none" stroke="#000000" d="M0 0V-75"/>
<text fill="#231f20" xml:space="preserve" transform="matrix(1 0 -0 1 -18 802.8)" font-size="10.5" font-family="Bookman"><tspan y="-689.041" x="193.2 197.1868 204.1136 209.5704 212.71721 217.33402 220.24082 226.74762 231.36443 236.82123 242.48802 245.39482 251.90163 257.56843 260.47526 266.98207 274.11888 278.10566 282.09245 285.23924 292.16603 297.83283 300.73966 306.61647 313.75328 317.74006 320.64689 327.1537 332.61048 338.06727 345.20408 351.71089 357.58769 364.09449 369.97129 376.4781 379.62489 385.71168 388.6185 391.7653 395.1221 401.2089 404.35569 409.81248 415.26927 418.1761 421.5329 426.9897 432.44648 436.43327 439.58006 442.48689 448.57368 454.03047 456.9373 460.08409 467.01087">their prey by putting out pseudopodia (false feet) as in </tspan></text>
<text fill="#231f20" xml:space="preserve" transform="matrix(1 0 -0 1 -18 802.8)" font-size="10.5" font-family="Bookman" font-style="italic"><tspan y="-689.041" x="469.917 477.327 486.62699 492.35697 498.08695 504.44694">Amoeba</tspan></text>
<text fill="#231f20" xml:space="preserve" transform="matrix(1 0 -0 1 -18 802.8)" font-size="10.5" font-family="Bookman"><tspan y="-689.041" x="510.96 514.3014 517.1428 526.78427 532.85568 537.45706 540.58847 547.4998">. Marine</tspan><tspan y="-675.361" x="193.19998 196.33478 201.98958 206.38439 216.02919 221.26399 223.5613 230.2661 236.1309 241.3657 246.60051 248.89781 254.13262 257.0574 259.9822 262.907 268.1418 274.00663 276.30393 281.53874 288.24354 293.47834 296.40315 299.32795 304.56275 306.86006 312.51484 319.21965 321.51695 325.28175 331.98655 337.22135 340.14616 344.54096 346.83827 352.07307 358.98786 363.38267 366.51747 372.38227 377.61708 382.85188 385.98667 388.28398 394.98878 400.64356 410.28837 415.52317 417.82048 423.47526 426.61006 428.90736 432.67216 439.37696 444.61177 454.25657 456.55387 461.78868 468.70347 473.93827 480.64308 482.94038 488.80519 494.03999">forms have silica shells on their surface. Some of them such as </tspan></text>
<text fill="#231f20" xml:space="preserve" transform="matrix(1 0 -0 1 -18 802.8)" font-size="10.5" font-family="Bookman" font-style="italic"><tspan y="-675.361" x="496.31999 503.4 509.85 513.36007 519.81008 528.99008 534.60006 540.21 546.45">Entamoeba</tspan></text>
<text fill="#231f20" xml:space="preserve" transform="matrix(1 0 -0 1 -18 802.8)" font-size="10.5" font-family="Bookman"><tspan y="-661.681" x="193.19998 199.17998 203.68997 209.03998 211.43997 217.83997 223.81996 228.32996 234.30995 239.65996 242.69995 246.57996 251.92996 257.27998">are parasites.</tspan></text>
<text fill="#231f20" xml:space="preserve" transform="matrix(1 0 -0 1 -18 802.8)" font-size="10.5" font-family="Bookman" font-style="italic"><tspan y="-642.241" x="193.19998 199.76229 202.75458 209.31688 215.24918 220.97148 223.96378 226.95607 233.51837 237.14067 242.86298 249.63527 252.13758 258.48988 262.74217 268.46446 272.08677 277.80906 283.32136 289.04365 295.60594 302.1682 307.8905">Flagellated protozoans:</tspan></text>
<text fill="#231f20" xml:space="preserve" transform="matrix(1 0 -0 1 -18 802.8)" font-size="10.5" font-family="Bookman"><tspan y="-642.241" x="311.03999 313.6844 320.19129 327.1182 332.5751 335.2195 345.08644 350.54335 360.41026 366.91716 372.37406 376.99098 382.44789 385.0923 390.9692 394.3261 396.97053 400.95744 407.88435 411.03126 416.48817 419.13258 424.79948 429.41639 435.2933 442.4302 448.9371 451.5815 457.66844 462.28535 467.74226 470.38667 475.84358 478.99049 482.9774 489.9043 495.3612 499.97813 502.62254 505.97944 510.59635 516.0533 521.5102 525.7071 528.854 532.0009 537.4578 540.60476 547.5316"> The members of this group are either free-living</tspan><tspan y="-628.56106" x="193.19998 198.96749 203.47499 205.88748 212.28499 218.26248 222.76999 228.74748 234.09499 237.13249 241.01 244.0475 249.395 252.6425 255.055 261.45249 268.27 273.6175 279.175 281.5875 288.405 294.3825 299.73 305.0775 307.49003 310.73753 313.77503 319.75254 325.31004 330.65754 333.69505 336.73255 342.71006 345.95756 348.37007 354.76756 361.58506 366.93257 369.34507 375.74256 381.72007 386.22758 392.20509 397.55259 400.5901 404.4676 407.5051 412.8526 415.2651 418.5126 424.2801 428.7876 438.5451 443.8926 446.3051 451.65263 457.63014 464.65763 470.00514 475.35264 477.76515 484.16264 487.20014 493.17765 498.52516 503.87266 509.85017 515.19766 520.5451 525.8926 528.30508 533.6525 540.68008 546.0275">or parasitic. They have flagella. The parasitic forms cause diaseases such</tspan><tspan y="-614.88107" x="193.19998 199.26868 204.70738 207.20859 212.6473 215.77599 221.21469 226.6534 233.14209 236.27079 243.17949 248.82819 251.32939 256.7681 259.8968 265.33549 271.8242 278.73289 284.17158 289.61027 295.04896 298.38768 300.8889 308.42759 314.2863 320.35499 330.20368 336.69239 339.82109 345.25978 348.59849">as sleeping sickness. Example: </tspan></text>
<text fill="#231f20" xml:space="preserve" transform="matrix(1 0 -0 1 -18 802.8)" font-size="10.5" font-family="Bookman" font-style="italic"><tspan y="-614.88107" x="351.12 358.08 362.31327 368.64656 374.97984 381.52314 388.06645 393.7697 399.473 405.17628 414.44956">Trypanosoma</tspan></text>
<text fill="#231f20" xml:space="preserve" transform="matrix(1 0 -0 1 -18 802.8)" font-size="10.5" font-family="Bookman"><tspan y="-614.88107" x="420.96">.</tspan></text>
<text fill="#231f20" xml:space="preserve" transform="matrix(1 0 -0 1 -18 802.8)" font-size="10.5" font-family="Bookman" font-style="italic"><tspan y="-595.44107" x="193.2 200.6347 203.4494 206.2641 209.0788 215.4635 218.9082 224.4529 231.04759 233.2723 239.44699 243.5217 249.06639 252.5111 258.0558 263.39048 268.93519 275.3199 281.7046 287.2493">Ciliated protozoans:</tspan></text>
<text fill="#231f20" xml:space="preserve" transform="matrix(1 0 -0 1 -18 802.8)" font-size="10.5" font-family="Bookman"><tspan y="-595.44107" x="290.16 292.441 298.7148 305.4086 310.6324 315.8562 321.08003 323.36103 329.2148 333.5986 338.8224 341.1034 346.95719 352.81098 359.71479 365.56858 369.3224 372.23619 377.45997 380.58378 382.86479 388.71858 393.94239 397.6962 400.61 405.8338 411.05763 413.9714 419.4052 421.68623 431.32 436.9638 442.18763 445.1014 451.7952 457.229 459.51 465.1538 469.5376 474.9714 480.8252 487.51899 490.43278 495.65657 505.29035 510.51417 512.79519 519.069 524.2928 529.5166 535.3704 542.27426 547.49807"> These are aquatic, actively moving organisms because</tspan><tspan y="-581.76107" x="193.20001 198.92542 202.13082 204.49782 208.33322 215.10863 220.41403 222.78104 229.13645 233.60184 238.90724 244.21265 249.51805 256.29347 261.59886 266.90425 269.27128 274.99668 278.2021 280.56913 284.4045 291.1799 296.9053 303.89073 309.1961 315.1315 321.9069 328.2623 333.5677 335.93473 341.66014 344.86555 347.23258 352.53797 355.53337 358.52876 361.52415 367.45954 370.66496 373.03199 379.3874 386.16279 391.46818 396.98359 399.35063 406.126 412.0614 417.3668 422.67219 425.0392 430.9746 433.34165 438.64704 444.58244 449.88783 452.8832 456.7186 462.234 464.60105 467.59645 473.11186 480.09727 483.09266 486.08805 491.39344 495.22883 498.2242 500.59126 504.42665 511.20204 517.13748 520.97286 523.33987 529.06527 535.42068 540.7261 547.50149">of the presence of thousands of cilia. They have a cavity (gullet) that opens</tspan><tspan y="-568.08108" x="193.20001 197.18833 203.06664 206.17494 210.16326 217.09157 222.54988 225.65819 231.5365 238.6748 242.66312 248.12143 251.26975 257.77806 263.23637 266.34468 272.22297 275.58128 278.68959 282.6779 289.6062 295.0645 298.17283 303.63114 309.08946 312.23777 315.38609 318.4944 323.9527 331.091 335.70933 339.06764 345.15596 350.61427 356.07258 359.43089 362.53919 369.0475 375.9758 381.4341 384.54243 390.00074 395.87904 401.75733 406.37565 412.88395 416.03227 422.96058 429.0489 433.0372 438.4955 445.0038 448.11213 457.98045 463.85874 469.31706 474.77537 484.64369 490.102 497.0303 501.01863 504.12693 510.00523 513.3635 516.47189 521.09017 526.96847 535.15676 540.61508 543.7234 549.6017">to the outside of the cell surface. The coordinated movement of rows of</tspan><tspan y="-554.64108" x="193.20001 198.39012 201.27024 204.15035 207.03046 212.85057 215.10228 220.29239 226.1125 232.98262 238.17273 243.36284 248.55295 250.80466 254.52477 261.18489 266.375 268.62675 276.54685 282.36695 286.08708 291.2772 295.6273 297.87904 300.75914 306.57923 312.81935 318.00947 324.66957 326.9213 334.8414 337.7215 341.44163 348.10176 350.3535 353.4436 359.0537 364.66383 370.90394 373.15568 376.8758 382.4859 384.73765 390.97776 396.16789 398.41963 403.60975 407.32987 412.52 417.7101 422.0602 427.25035 433.49046 435.7422 438.62229 445.2824 449.00254 454.61265 456.86439 460.5845 467.24464 472.43476 474.6865 480.0866 486.95674 489.83683 492.71693 497.90705 501.62718 504.7173 506.96903 514.25918 519.86929 525.6894 535.2895 541.5296 544.4097 549.59988">cilia causes the water laden with food to be steered into the gullet. Example:</tspan></text>
<text fill="#231f20" xml:space="preserve" transform="matrix(1 0 -0 1 -18 802.8)" font-size="10.5" font-family="Bookman" font-style="italic"><tspan y="-540.96109" x="193.20001 199.71361 206.4372 210.85079 217.57437 227.02796 232.91155 238.79514 244.04872 247.20232 253.9259 263.3795">Paramoecium </tspan></text>
<text fill="#231f20" xml:space="preserve" transform="matrix(1 0 -0 1 -18 802.8)" font-size="10.5" font-family="Bookman"><tspan y="-540.96109" x="265.92 269.05833 275.76664 278.90495 284.56324 291.69154 296.29985 301.74815 304.24644 310.74473 314.09303 320.5913 327.0896">(Figure 2.4d)</tspan></text>
<text fill="#231f20" xml:space="preserve" transform="matrix(1 0 -0 1 -18 802.8)" font-size="10.5" font-family="Bookman" font-style="italic"><tspan y="-540.96109" x="330">.</tspan><tspan y="-521.28109" x="193.2 200.0409 206.46178 212.25267 216.57357 222.36446 227.94535 233.73624 240.36713 246.99802 252.78891 256.0598">Sporozoans: </tspan></text>
<text fill="#231f20" xml:space="preserve" transform="matrix(1 0 -0 1 -18 802.8)" font-size="10.5" font-family="Bookman"><tspan y="-521.28109" x="260.16 266.66783 273.5956 276.7434 282.20124 286.54475 289.69255 296.62034 302.07817 305.22596 312.36378 318.87159 324.3294 329.78724 334.13075 340.63856 343.78636 349.24418 354.702 359.3198 364.77763 370.23545 374.57896 380.45677 385.07456 390.74238 396.83018 403.75798 406.90577 412.3636 422.23139 427.6892 432.0327 436.02055 442.94834 449.03614 453.02397 457.36747 464.29527 470.38307 475.84089 481.2987 485.6422 491.73 498.6578 503.0013 506.1491 513.0769 516.4347 521.8925 527.35037 531.33816 534.48599 540.3638 547.5016">This includes diverse organisms that have an infectious</tspan><tspan y="-507.84107" x="193.20001 198.65642 205.16281 211.03922 215.65561 221.11202 225.30841 228.4548 231.6012 238.10759 243.564 247.5354 252.9918 256.9782 263.0646 268.73103 274.1874 278.1588 281.3052 288.2316 292.203 296.1894 303.11579 308.57218 311.71858 316.33497 320.30638 323.45277 326.59916 329.95558 335.41197 339.38337 344.83976 350.50617 355.96257 359.10896 364.56535 367.92176 371.89317 378.39958 385.32597 390.78236 394.75376 404.62016 410.49656 415.95295 419.93934 423.91075 430.83714 436.71354 440.69993 446.57633 451.19273 454.3391 460.2155 467.35194 472.80833 476.77973 479.92613 485.3825">spore-like stage in their life cycle. The most notorious is </tspan></text>
<text fill="#231f20" xml:space="preserve" transform="matrix(1 0 -0 1 -18 802.8)" font-size="10.5" font-family="Bookman" font-style="italic"><tspan y="-507.84107" x="489.354 495.8607 499.0074 505.72407 511.60075 521.0474 526.92416 533.8508 536.9975 543.7142">Plasmodium</tspan></text>
<text fill="#231f20" xml:space="preserve" transform="matrix(1 0 -0 1 -18 802.8)" font-size="10.5" font-family="Bookman"><tspan y="-494.16108" x="193.20001 196.14263 205.80524 211.68785 214.63047 220.51308 224.92569 227.8683 233.75092 236.69353 239.01113 245.31374 251.19635 255.60897 261.49159 266.7442 269.6868 273.46943 278.72206 281.66465 283.98228 291.96488 298.6875 301.6301 306.88273 313.60536 315.92298 321.1756 327.0582 333.9908 339.24345 344.49607 349.7487 352.0663 361.7289 367.6115 370.5541 376.4367 380.8493 383.7919 389.6745 392.82713 395.14476 401.02735 403.34498 409.64759 412.59019 417.8428 423.09544 428.97804 434.23066 439.48329 441.8009 449.7835 456.5061 459.4487 464.70133 471.42396 473.74159 480.46418 486.34678 491.5994 493.91703 499.79963 502.11726 507.36988 511.1525 517.0351 522.4977 527.96029 533.2129 537.6255 540.5681 547.2907">(malarial parasite) which causes malaria, a disease which has a staggering</tspan><tspan y="-480.24107" x="193.20001 198.64192 201.98383 205.32573 210.76764 216.20955 220.18146 222.69008 228.55199 235.4639 237.97252 244.88443 252.00635 261.85826 267.93016 274.84205 277.35069 283.8426 289.7045 296.1964 303.31834 306.45024 312.52214 316.49406 319.62596 325.48786 332.39976">effect on human population.</tspan></text>
<text fill="#00aeef" xml:space="preserve" transform="matrix(1 0 -0 1 -18 802.8)" font-size="13" font-family="Bookman"><tspan y="-448.32106" x="193.20001 201.43032 205.50061 229.20001">2.3K</tspan></text>
<text fill="#00aeef" xml:space="preserve" transform="matrix(1 0 -0 1 -18 802.8)" font-size="9.1" font-family="Bookman"><tspan y="-448.32106" x="238.80002 242.61573 249.52542 256.79914 264.07286 271.52854">INGDOM</tspan></text>
<text fill="#00aeef" xml:space="preserve" transform="matrix(1 0 -0 1 -18 802.8)" font-size="13" font-family="Bookman"><tspan y="-448.32106" x="279.84004 283.00096"> F</tspan></text>
<text fill="#00aeef" xml:space="preserve" transform="matrix(1 0 -0 1 -18 802.8)" font-size="9.1" font-family="Bookman"><tspan y="-448.32106" x="291.84004 298.90623 305.9724 313.4026">UNGI</tspan></text>
<text fill="#231f20" xml:space="preserve" transform="matrix(1 0 -0 1 -18 802.8)" font-size="10.5" font-family="Bookman"><tspan y="-422.16105" x="193.20003 199.60382 206.42763 211.78144 214.42975 217.68355 224.71735 231.54116 237.10495 240.14875 242.79706 248.15087 253.92467 260.74848 266.10227 269.98606 273.02986 276.91365 283.94746 287.83125 293.18504 295.83335 301.81715 304.46546 311.49928 318.32307 321.36686 327.35066 334.38447 339.73826 342.38658 348.79039 351.83418 358.65797 364.22178 370.62559 376.39939 386.16319 388.8115 394.5853 397.8391 400.48744 407.31123 412.665 416.5488 421.9026 426.41639 432.1902 436.07398 440.58778 446.36158 452.76539 459.58918 462.63298 467.98677 470.63508 476.40888 480.92268 486.48649 492.47029 499.29408 502.33787 507.69166 517.45547 522.80929 526.06307 528.71139 535.1152 541.93899 547.2928">The fungi constitute a unique kingdom of heterotrophic organisms. They</tspan><tspan y="-408.00004" x="193.20003 198.55313 205.37624 211.14934 219.23244 222.61334 228.59644 231.97734 237.54044 242.16004 247.51575 253.50147 257.38719 260.7707 267.1764 270.2221 275.57783 280.93354 285.44926 290.80497 293.85069 297.7364 303.3021 306.6856 309.73133 316.55705 319.94056 329.70628 335.48197 339.99769 346.40339 353.2291 359.0048 362.0505 367.8262 373.3919 378.9576 382.34114 388.32685 395.15257 401.55827 404.94178 411.7675 417.7532 424.1589 427.20463 431.09034 437.07606 440.96177 444.21748 447.60099 453.36006 459.14616 466.19227 469.68006 473.15107 483.00706 490.13307 495.57908 499.55509 503.04005 509.86506 515.85006 521.205 526.56 529.96499 535.31997 540.6749 546.0299">show a great diversity in morphology and habitat. You  must have seen</tspan><tspan y="-393.84104" x="193.20005 196.45334 203.48664 210.30994 215.87323 218.91654 221.33655 227.10985 233.93315 236.35317 242.33647 244.75649 254.51979 260.16004 263.52003 268.85633 272.72264 275.13395 281.52024 286.01655 291.35285 297.31916 303.70545 306.00004 312.10334 319.04664 325.56996 328.08003 332.5805 338.341 342.21153 346.08204 351.42256 358.23304 360.64027 363.88078 368.38127 375.40177 378.43226 382.30278 387.64329 390.8838 393.29103 399.68153 406.492 411.83253 414.23976 419.58027 425.34077 435.09126 444.84175 450.60224 457.41273 459.81996 469.57044 476.59095 481.93147 488.74195 493.24244 499.00294 504.76344 514.5139 516.9211 522.47158 528.23208 535.25259 537.6597 543.00027 548.97079">fungi on a moist bread and rotten fruits. The common mushroom you eat</tspan><tspan y="-379.44105" x="193.20001 199.12673 205.89344 212.24015 214.59937 218.42607 224.14278 230.06949 236.4162 241.7129 245.53961 251.25632 256.97303 259.95976 265.25648 267.6157 273.5424 277.99909 283.2958 285.65504 291.58174 294.56846 299.86518 305.58189 307.9411 311.13783 318.11454 324.88127 330.38798 333.3747 336.5714 338.93064 348.84736 355.61408 358.6008 362.42753 367.72425 370.08348 375.3802 381.7269 387.4436 391.27033 396.56706 398.92628 404.223 409.5197 414.81645 421.58317 423.94239 429.6591 436.4258 438.78504 448.49177 455.46849 460.7652 464.59193 470.51863 474.9753 481.32203 483.68125 486.66798 491.9647 497.8914 503.1881 508.48484 513.78158 516.1408 522.0675 526.52426 531.8209 534.1802 540.52688 547.50357">and toadstools are also fungi. White spots seen on mustard leaves are due</tspan><tspan y="-365.28105" x="193.20001 197.05953 202.80904 205.20105 211.16056 213.55257 219.93209 225.8916 230.38112 236.34064 241.67015 244.68967 248.54918 251.5687 256.8982 259.29023 262.51976 269.52928 276.32878 281.8683 288.8778 294.2073 297.43684 299.82887 306.62837 312.37788 322.11738 327.44688 329.8389 336.84843 343.64793 346.66743 351.99693 357.32643 360.34593 363.36543 370.37495 373.39445 379.35395 383.84346 386.23548 389.465 396.47453 403.27403 408.81355 411.83305 415.06257 417.4546 422.7841 426.0136 431.55314 434.78266 438.01219 440.4042 445.94374 451.27323 457.23274 462.56224 466.42173 468.81376 474.77326 479.26277 484.59226 486.98429 493.9938 499.3233 504.6528 511.03233 513.4244 517.2839 523.0334 525.4254 535.1649 541.12448 547.50399">to a parasitic fungus. Some unicellular fungi, e.g., yeast are used to make</tspan><tspan y="-351.12104" x="193.20001 199.62003 204.24 209.58132 215.55263 221.94394 224.45804 230.42935 237.24066 243.63198 246.14609 252.5374 257.87873 263.22004 267.12 270.3724 272.8976 281.19 285.0724 291.89479 297.24717 301.75956 304.28477 307.53718 314.56959 321.39198 326.95439 329.99678 332.52198 337.87437 343.85676 350.88917 356.24156 361.59394 364.11915 370.52156 373.56394 378.91633 384.2687 390.2511 395.6035 400.95588 406.30827 408.83348 411.87586 418.69825 421.22346 427.62586 430.66825 436.65065 443.47303 447.3554 452.7078 455.233 461.2154 468.03779 474.4402 476.9654 482.94779 489.77018 492.81257 502.57496 508.55735 511.59974 516.95217 520.2045 522.72976 530.81216 537.6345 542.98696 548.96939">bread and beer. Other fungi cause diseases in plants and animals; wheat</tspan><tspan y="-336.96104" x="193.2 197.705 204.73 210.075 213.95 218.035 223.38 229.35501 236.38 241.725 244.76001 251.57501 257.13">rust-causing </tspan></text>
<text fill="#231f20" xml:space="preserve" transform="matrix(1 0 -0 1 -18 802.8)" font-size="10.5" font-family="Bookman" font-style="italic"><tspan y="-336.96104" x="260.64 267.14143 273.8528 279.0942 284.3356 287.477 294.1884 297.32978">Puccinia</tspan></text>
<text fill="#231f20" xml:space="preserve" transform="matrix(1 0 -0 1 -18 802.8)" font-size="10.5" font-family="Bookman"><tspan y="-336.96104" x="303.6 307.0432 310.08753 315.44184 318.88505 324.86936 331.69367 335.13688 338.18119 347.9455 354.3498 360.1241 364.63844 368.52275 374.50706 381.33137 385.21568 388.65888 394.01319 399.7875 405.77183 415.53614 421.94044 424.98475 430.33906 433.59336 437.03657 443.86088 449.6352 459.3995 464.7538 468.19703 474.18135 478.69566 484.04997 487.49317 491.37748 498.20179 503.5561 506.9993 512.35366 518.1279 525.16226 529.6765 535.0308 540.38516 543.82839 549.60269"> is an important example. Some are the source of</tspan><tspan y="-322.80003" x="193.20001 198.97672 205.59343 209.27014 212.10686 218.30358 221.14029 226.707 230.38372 233.22043 238.36714 243.51386 246.56056 248.78227 253.92899 256.9757 262.33244 265.37916 268.42588">antibiotics, e.g., </tspan></text>
<text fill="#231f20" xml:space="preserve" transform="matrix(1 0 -0 1 -18 802.8)" font-size="10.5" font-family="Bookman" font-style="italic"><tspan y="-322.80003" x="270.72 277.023 282.696 289.209 292.152 297.195 300.138 303.081 306.024 308.96699 315.47999">Penicillium</tspan></text>
<text fill="#231f20" xml:space="preserve" transform="matrix(1 0 -0 1 -18 802.8)" font-size="10.5" font-family="Bookman"><tspan y="-322.80003" x="324.48 327.5194 329.7213 336.12074 342.94013 349.54954 354.89894 357.72834 359.93025 365.69966 370.08003 375.2296 377.44175 382.59135 388.16096 393.31056 402.87016 408.43977 414.63938 420.20899 423.04859 425.88819 429.56779 435.34739 441.96699 444.1791 449.9587 456.5783 462.77793 464.99006 470.55967 475.70927 480.85887 487.68849 491.99809 494.2102 497.0498 503.6694 505.88154 511.66114 514.50076 518.16006 521.21469 523.4318 531.3164 537.101 540.7856 545.9402 549.60006">. Fungi are cosmopolitan and occur in air, water,</tspan><tspan y="-308.64103" x="193.20005 198.55306 204.32607 207.36908 210.4121 213.2044 219.18743 226.01044 232.41345 235.20577 240.97878 247.80179 250.5941 256.57713 263.40013 266.4431 276.20613 282.18913 285.23213 290.5851 293.37745 299.36045 306.18345 312.58647 315.37879 321.7818 324.8248 330.8078 337.6308 341.5138 346.8668 350.1198 352.91215 355.70448 362.10749 368.93049 374.28349 379.8465 382.63883 389.04185 393.55485 398.90785 402.16087 407.51387 412.02687 414.81919 418.70219 424.4752 427.26753 432.83055 437.34355 443.11656 451.19956 453.99189 457.03489 463.85789 466.6502 474.73323 480.71623 485.22923 494.99223 497.78456 503.76756 510.59056 516.9935 519.7858 526.6088 533.64187 543.40487 546.4479">soil and on animals and plants.  They prefer to grow in warm and humid</tspan><tspan y="-294.24104" x="193.20005 199.52536 202.49068 208.39598 213.6713 218.94661 224.22193 227.39723 229.73415 237.94947 243.85477 249.13008 254.4054 256.74235 262.22767 267.92298 274.8783 277.21525 282.49055 287.76585 293.04115 297.47645 299.8134 307.8187 313.514 320.2593 326.58464 331.85993 336.48005 341.75965 348.08924 350.43046 358.44007 365.18968 370.67927 373.02049 381.0301 386.3097 388.6509 394.9805 400.2601 405.5397 411.8693 414.2105 417.3901 423.08973 428.7893 435.1189 437.4601 440.42973 447.17933 449.52055 453.33015 460.07975 465.35935 467.70057 472.08006 477.34916 480.51826 484.94737 487.90647 493.38557 498.65467 503.08378 508.98289 512.782 518.47109 522.90017 525.2309 530.71 533.0408 539.04006 544.32009 549.6001">places. Have you ever wondered why we keep food in the refrigerator ? Yes,</tspan><tspan y="-280.08103" x="193.20005 196.24456 200.12906 202.72209 205.7666 211.12111 213.71414 217.59865 223.37316 225.96619 232.3707 236.88521 242.23972 247.59423 252.94873 259.77326 263.65779 266.2508 269.5053 275.27983 281.05433 287.45884 290.05186 293.30638 297.82087 303.59538 313.35987 315.95289 321.5174 327.2919 330.33644 337.16096 342.72547 345.31849 351.723 357.7075 364.112 366.70503 373.10954 380.14405 385.49858 388.09159 391.9761 397.7506 400.34364 406.74815 412.73265 418.08717 421.97169 427.3262 431.8407 434.88523 440.86973 443.91426 446.50727 452.28178 456.79627 459.38929 462.6438 469.6783 476.50285 482.06736 488.05186 491.09638 493.6894 496.73393 503.55845 506.81297 512.1675 517.522 521.4065 524.451 530.2255 537.05007 542.40457">it is to prevent food from going bad due to bacterial or fungal infections.</tspan><tspan y="-265.92103" x="211.20005 221.52005 224.98154 229.28302 236.5245 241.8737 246.17519 253.41667 259.18818 264.53736 270.30885 276.50035 282.27183 288.0433 294.8648 299.1663 302.62779 308.81929 316.06077 321.40995 327.60145 331.27293 336.6221 342.60359 348.37507 354.77656 360.54804 364.84953 370.621 375.97019 384.47169 391.71318 395.17466 400.94615 408.18763 413.5368 419.9383 424.80006 430.56526 435.90815 443.35334 450.58854 454.04374 459.80894 465.57414 469.02934 472.48454 479.92973 483.38493 489.78013 494.16004 497.8138 503.1453 506.79908 514.23287 521.45669 527.4205 530.86428 536.19577 542.5795 547.44009">With the exception of yeasts which are unicellular, fungi are</tspan><tspan y="-251.76102" x="193.20008 196.53978 199.6695 202.79921 208.86893 218.71865 224.15836 231.06807 235.03778 240.89749 248.0172 253.45691 256.79664 259.29887 265.78858 272.69828 278.13798 281.26768 285.86738 288.3696 294.8593 300.71903 307.20875 310.33845 315.77815 321.21784 323.72007 329.15977 335.01948 341.92918 347.36888 350.49858 355.93827 359.90797 362.4102 368.2699 371.60963 374.11186 377.24156 383.10127 390.01097 395.66069 399.0004 401.50263 406.94233 410.07203 415.51173 422.42143 428.91114 434.35084 438.95054 441.45277 445.42247 452.33216 456.93186 462.37156 468.44126 474.93098 479.1107 482.2404 485.3701 491.8598 497.2995 499.80174 505.24143 509.21113 513.81088 520.93057 526.37026 530.33999 537.45968 542.0594 547.4991">filamentous. Their bodies consist of long, slender thread-like structures</tspan><tspan y="-237.60002" x="193.20008 198.37688 204.18369 207.05049 209.9173 215.0941 221.3209 223.5614 230.2082 235.595 241.82181 248.46862 254.27542 259.4522 262.52903 264.76954 270.99635 277.64314 282.81993 285.06044 291.7072 296.884 300.5908 308.4976 314.0944 318.43119 324.658 326.8985 332.4953 335.5721 337.81263 344.4594 349.84623 356.07304 362.71983 368.5266 373.7034 375.9439 378.8107 383.9875 386.228 392.4548 399.1016 404.6984 412.6052 419.25199 421.4925 427.2993 432.47608 434.71659 444.30339 449.6902 454.86698 460.04377 462.91056 465.77735 472.63417 482.22096 485.29777 487.53828 494.18507 499.78187 509.36866 514.5455 516.78598 523.43276 528.8195 535.0463 541.6931 547.49996">called hyphae. The network of hyphae is known as mycelium. Some hyphae</tspan><tspan y="-223.44103" x="193.20008 199.28859 203.9071 209.36562 212.90192 218.36043 224.23894 231.16745 235.15596 238.30448 245.23299 252.37149 258.25 265.38853 270.84703 274.38334 278.37184 285.51036 292.01887 297.47737 302.93586 306.47218 309.8307 312.9792 316.1277 319.27619 324.73469 331.2432 334.7795 342.96803 346.11653 350.10505 357.03355 360.56986 370.43836 377.57688 380.72538 384.71388 387.86238 394.79087 401.92939 407.38789 410.53639 415.99488 422.08338 426.0719 431.5304 438.0389 441.57524 447.03373 452.70225 456.69075 462.56925 469.07777 472.22627 478.31477 483.77326 493.64176 497.17808 502.42658 505.9629 509.95143 516.87997 522.33847 527.79696 533.25546 536.79177 542.88027 547.4988">are continuous tubes filled with multinucleated cytoplasm &#x2013; these are</tspan><tspan y="-209.04103" x="193.20008 198.65758 204.74507 207.89258 211.04009 216.49759 223.0051 227.64258 233.10009 238.97759 244.43509 251.3626 257.24009 262.69758 268.36509 272.35258 275.50007 280.95756 285.59507 292.52256 298.19007 304.69758 311.62507 317.71257 323.17005 326.52757 331.16508 339.56257 343.55006 350.47755 355.93504 360.55253 366.01 370.64753 377.575 383.6625 389.12 394.57749 399.215 404.6725 410.12998 416.63749 420.62498 426.71247 432.16996 436.80747 442.68498 447.30247 451.93998 457.39747 462.01496 467.89247 473.34996 478.80744 483.44496 491.63246 497.71995 500.86744 504.01493 509.4724 514.10989 517.2574 524.1849 528.8223 532.8098 539.7373 545.1948 548.34237">called coenocytic hyphae. Others have septae or cross walls in their</tspan><tspan y="-194.88103" x="193.20008 199.89438 205.32868 211.60298 218.29729 224.15158 229.37589 232.50019 234.78818 241.06249 247.75679 252.9811 255.2691 260.4934 265.7177 268.63203 271.54634 273.83433 281.78865 287.64295 290.55726 293.47157 298.69587 300.98387 306.62815 309.75245 312.04045 315.16474 322.06904 328.76335 334.19764 337.11195 339.39994 345.25425 349.63856 354.86286 357.15086 362.37516 368.01945 377.65376 383.92805 389.57234 394.79664 400.02095 406.29524 408.58323 414.2275 417.3518 419.6398 424.8641 431.5584 434.47273 438.22703 441.14134 447.83564 450.12364 455.97795 462.67225 468.94654 471.23454 477.50883 483.1531 486.0674 491.5017 496.726 502.58033 507.80464 513.02896 519.7232 525.5775 529.9618 532.8761 539.1504 544.3747 549.599">hyphae. The cell walls of fungi are composed of chitin and polysaccharides.</tspan><tspan y="-180.72103" x="211.20008 220.79769 226.6153 232.01291 235.94052 238.39925 241.69686 248.77446 255.64208 261.2497 264.3373 266.79603 272.82365 277.38127 282.77888 285.23759 292.1052 297.5028 301.43043 306.82804 311.38566 317.20326 321.13087 325.68849 331.50608 337.95368 344.8213 347.9089 353.30653 355.76524 361.79286 368.66047 375.10807 377.56678 383.5944 390.042 395.4396 401.2572 405.81483 412.26243 414.72114 420.11875 425.93635 429.02397 436.10157 442.54917 445.63679 451.0344 453.4931 459.3107 463.86833 469.47593 475.50355 482.37117 485.45878 490.85639 493.3151 503.1227 509.15034 513.07797 517.00558 522.40316 526.96078 529.4195 532.7171 537.2747 543.09237">Most fungi are heterotrophic and absorb soluble organic matter from</tspan><tspan y="-166.56102" x="193.20008 199.70708 205.16408 211.25109 217.75809 220.3723 225.8293 232.9663 239.4733 244.9303 248.9173 253.5343 259.6213 263.6083 269.0653 274.5223 277.1365 283.2235 290.1505 296.6575 299.2717 306.1987 311.6557 318.5827 324.0397 329.4967 332.1109 338.1979 342.8149 348.2719 350.8861 353.5003 358.9573 365.0443 368.1913 371.33833 376.79533 383.3023">dead substrates and hence are  called </tspan></text>
<text fill="#231f20" xml:space="preserve" transform="matrix(1 0 -0 1 -18 802.8)" font-size="10.5" font-family="Bookman"><tspan y="-166.5606" x="385.91609 391.46006 397.63404 404.43803 409.35203 415.946 422.75 429.974 436.568 441.482 447.65599">saprophytes</tspan></text>
<text fill="#231f20" xml:space="preserve" transform="matrix(1 0 -0 1 -18 802.8)" font-size="10.5" font-family="Bookman"><tspan y="-166.5606" x="453.1201 456.48179 459.09349 465.60517 472.53688 478.41856 483.88026 489.34196 491.95365 495.94535 502.87705 508.96876 512.96047 515.57217 522.08389 527.54556 534.05728 539.5189 546.4506">. Those that depend</tspan><tspan y="-152.40059" x="193.20008 199.07828 206.00649 208.90758 212.05577 215.20397 220.66217 223.81037 230.73857 236.40677 239.30786 245.81606 248.96425 255.05245 261.98066 265.96885 271.42704 274.32814 280.41633 287.3445 293.85273 296.75386 302.84205 309.77024 312.91844 322.78663 328.87483 332.023 337.4812 340.38233 346.47053 351.0887 356.5469 359.448 364.9062 370.9944 374.14259 377.29078 382.74897 389.25718">on living plants and animals are called </tspan></text>
<text fill="#231f20" xml:space="preserve" transform="matrix(1 0 -0 1 -18 802.8)" font-size="10.5" font-family="Bookman"><tspan y="-152.40059" x="392.1601 399.04139 405.2927 410.284 416.5353 422.15663 426.09794 431.08924 437.34056">parasites</tspan></text>
<text fill="#231f20" xml:space="preserve" transform="matrix(1 0 -0 1 -18 802.8)" font-size="10.5" font-family="Bookman"><tspan y="-152.40059" x="442.8001 446.1578 449.0455 455.5532 462.4809 467.9386 473.6063 476.494 481.9517 488.0394 494.9671 497.8548 503.9425 507.0902 512.5479 518.4256 521.31338 524.46109 527.60879 533.06649 538.5242 541.4119 547.49966">. They can also live as</tspan></text>
<text fill="#231f20" xml:space="preserve" transform="matrix(1 0 -0 1 -18 802.8)" font-size="10.5" font-family="Bookman"><tspan y="-138.24059" x="193.2001 198.5668 204.9835 215.3902 221.5969 225.2836 231.7003 238.74701 243.4837 248.8504">symbionts </tspan></text>
<text fill="#231f20" xml:space="preserve" transform="matrix(1 0 -0 1 -18 802.8)" font-size="10.5" font-family="Bookman"><tspan y="-138.24059" x="251.2801 256.3934 258.7667 261.78 268.5733 270.9466 276.8999 282.2232 287.5465 293.2898 298.6131 301.6264 307.5797 311.433 314.44633 320.1896">&#x2013; in association</tspan></text>
<text fill="#231f20" xml:space="preserve" transform="matrix(1 0 -0 1 -18 802.8)" font-size="10.5" font-family="Bookman"><tspan y="-138.24059" x="327.12013"> </tspan></text>
<text fill="#231f20" xml:space="preserve" transform="matrix(1 0 -0 1 -18 802.8)" font-size="10.5" font-family="Bookman"><tspan y="-138.24059" x="329.76014 337.80784 340.81553 344.6632 351.4509 353.83534 359.78303 362.7907 368.31843 374.2661 379.5838 381.96824 387.91593 393.2336">with algae as </tspan></text>
<text fill="#231f20" xml:space="preserve" transform="matrix(1 0 -0 1 -18 802.8)" font-size="10.5" font-family="Bookman"><tspan y="-138.24059" x="395.76014 399.22514 402.90016 408.88517 415.92018 421.90519 428.9402">lichens</tspan></text>
<text fill="#231f20" xml:space="preserve" transform="matrix(1 0 -0 1 -18 802.8)" font-size="10.5" font-family="Bookman" font-style="italic"><tspan y="-138.24059" x="434.16014"> </tspan></text>
<text fill="#231f20" xml:space="preserve" transform="matrix(1 0 -0 1 -18 802.8)" font-size="10.5" font-family="Bookman"><tspan y="-138.24059" x="436.56013 442.51664 449.31315 455.68965 458.07865 466.13517 469.15168 473.00819 479.8047 482.1937 486.6802 492.42674 498.17326 502.02976 507.35627 509.74528 515.49179 518.71829 521.1073 527.9038 530.9203 536.4568 543.2533 548.57986">and with roots of higher</tspan><tspan y="-123.84058" x="193.20012 199.7212 202.8823 208.98339 215.92447 219.92555 225.39664 228.11774 234.21883 239.68991">plants as </tspan></text>
<text fill="#231f20" xml:space="preserve" transform="matrix(1 0 -0 1 -18 802.8)" font-size="10.5" font-family="Bookman"><tspan y="-123.84058" x="242.40012 252.82012 259.25013 265.26014 271.69013 276.44013 281.19013 288.25013 291.95014 297.75013">mycorrhiza</tspan></text>
<text fill="#231f20" xml:space="preserve" transform="matrix(1 0 -0 1 -18 802.8)" font-size="10.5" font-family="Bookman"><tspan y="-123.84058" x="303.84013">.</tspan><tspan y="-109.920589" x="211.20012 219.15262 225.00511 231.90761 236.9201 243.19261 250.09511 257.6276 263.4801 267.8626 271.40513 277.6776 285.00013 290.43034 293.97285 301.29536 306.72557 310.47807 318.01057 325.33308 331.39558 334.93809 340.3683 346.2208 352.7033 360.02583 365.45603 369.83854 376.32106 383.22355 389.07606 394.50627 401.40876 404.95127 411.43379 417.2863 423.1388 428.569 435.4715 441.534 446.9642 452.8167 458.66923 464.73173 470.58424 474.96675 481.44926 485.83177 489.37428 495.22679 501.07929 506.5095 516.772 522.62448 529.10696 536.42947 542.2819 547.7121">Reproduction in fungi can take place by vegetative means &#x2013;</tspan><tspan y="-95.76059" x="193.20012 196.55782 201.17552 207.26323 212.93093 222.79863 228.25634 235.18404 239.17174 245.25945 249.24715 252.39485 258.27256 265.20027 268.55796 271.70317 275.06086 278.20857 283.66627 289.12397 292.27168 298.14936 305.07707 308.22227 314.30998 321.23768 327.74537 330.89057 337.39826 344.53596 351.04365 357.55134 360.69905 367.62675 373.29444 376.65214 379.79734 386.93504 392.39274 397.85044 403.72813 410.8658 416.95353 420.10124 423.24644 427.86415 433.32185 439.82954 444.44725 450.32493 456.8326 463.9703 469.428 473.4157 476.56343 482.4411 489.3688 492.514 495.6617 501.11943 504.26463 510.7723 516.44 519.58529 525.04299 531.55068 537.42837 542.046 547.5037">fragmentation, fission and budding. Asexual reproduction is by spores</tspan></text>
<g clip-path="url(#clip_1764)">
<text xml:space="preserve" transform="matrix(1 0 -0 1 259.314 763.99978)" font-size="8" font-family="Arial"><tspan y="6.316" x="0"> </tspan></text>
</g>
</g>
</svg>
