<svg xmlns="http://www.w3.org/2000/svg" xmlns:xlink="http://www.w3.org/1999/xlink" xmlns:inkscape="http://www.inkscape.org/namespaces/inkscape" version="1.1" width="576" height="784.8" viewBox="0 0 576 784.8">
<defs>
<clipPath id="clip_6">
<path transform="matrix(1,0,0,-1,-18,802.8)" d="M18 18H594V802.8H18Z" clip-rule="evenodd"/>
</clipPath>
<clipPath id="clip_7">
<path transform="matrix(1,0,0,-1,259.314,763.99978)" d="M0-8H57.372V.800049H0Z"/>
</clipPath>
</defs>
<g clip-path="url(#clip_6)">
<path transform="matrix(.24,0,0,-.24,-18,802.8)" d="M0 3035.83H2550V3372.7003H0Z" fill="#d1d3d4" fill-rule="evenodd"/>
<path transform="matrix(.24,0,0,-.24,-18,802.8)" d="M0 3078.33H2550V3420H0Z" fill="#e1ecb6" fill-rule="evenodd"/>
<path transform="matrix(.24,0,0,-.24,-18,802.8)" d="M2 2H2548V214.67H2Z" fill="#cbdf7f" fill-rule="evenodd"/>
<path transform="matrix(.24,0,0,-.24,-18,802.8)" stroke-width="4" stroke-linecap="butt" stroke-miterlimit="1000" stroke-linejoin="miter" fill="none" stroke="#cbdf7f" d="M2 2H2548V214.67H2Z"/>
<text fill="#231f20" xml:space="preserve" transform="matrix(1 0 -0 1 -18 802.8)" font-size="11" font-family="Bookman"><tspan y="-730.081" x="84">B</tspan></text>
<text fill="#231f20" xml:space="preserve" transform="matrix(1 0 -0 1 -18 802.8)" font-size="7.69999" font-family="Bookman"><tspan y="-730.081" x="92.16 94.60841 100.66811 105.15702 111.21672 117.27642 119.72483 125.314838 130.43514">IOLOGICAL</tspan></text>
<text fill="#231f20" xml:space="preserve" transform="matrix(1 0 -0 1 -18 802.8)" font-size="11" font-family="Bookman"><tspan y="-730.081" x="134.64 137.16902"> C</tspan></text>
<text fill="#231f20" xml:space="preserve" transform="matrix(1 0 -0 1 -18 802.8)" font-size="7.69999" font-family="Bookman"><tspan y="-730.081" x="145.2 149.6808 154.793 159.7512 164.70941 167.14972 171.94623 174.38654 179.96845 185.08065 189.72315 192.16345 198.21506">LASSIFICATION</tspan></text>
<path transform="matrix(.24,0,0,-.24,482.635,53.63501)" d="M0 0C7.32 7.32 16.16 10.98 26.52 10.98H97.35C107.71 10.98 116.55 7.32 123.87 0 131.19-7.32 134.85-16.16 134.85-26.52V-101.52C134.85-111.88 131.19-120.72 123.87-128.04 116.55-135.36 107.71-139.02 97.35-139.02H26.52C16.16-139.02 7.32-135.36 0-128.04-7.32-120.72-10.98-111.88-10.98-101.52V-26.52C-10.98-16.16-7.32-7.32 0 0" fill="#ffffff" fill-rule="evenodd"/>
<text fill="#231f20" xml:space="preserve" transform="matrix(1 0 -0 1 -18 802.8)" font-size="11" font-family="Bookman"><tspan y="-729.196" x="506.085 513.5569 505.74983 513.22177">1111</tspan><tspan y="-729.526" x="506.085 513.5569 505.75004 513.2219">1111</tspan><tspan y="-729.361" x="505.91999 513.3919">11</tspan></text>
<path transform="matrix(.24,0,0,-.24,579.6,.11999512)" stroke-width="1" stroke-linecap="butt" stroke-miterlimit="10" stroke-linejoin="miter" fill="none" stroke="#000000" d="M0 0H60"/>
<path transform="matrix(.24,0,0,-.24,576.12,-18)" stroke-width="1" stroke-linecap="butt" stroke-miterlimit="10" stroke-linejoin="miter" fill="none" stroke="#000000" d="M0 0V-60"/>
<path transform="matrix(.24,0,0,-.24,579.6,784.44)" stroke-width="1" stroke-linecap="butt" stroke-miterlimit="10" stroke-linejoin="miter" fill="none" stroke="#000000" d="M0 0H60"/>
<path transform="matrix(.24,0,0,-.24,576.12,788.16)" stroke-width="1" stroke-linecap="butt" stroke-miterlimit="10" stroke-linejoin="miter" fill="none" stroke="#000000" d="M0 0V-59"/>
<path transform="matrix(.24,0,0,-.24,-17.88,-18.23999)" stroke-width="1" stroke-linecap="butt" stroke-miterlimit="10" stroke-linejoin="miter" fill="none" stroke="#000000" d="M0 0V-75"/>
<path transform="matrix(.24,0,0,-.24,-18,802.8)" d="M252.83 1697H2230.08V2825.29H252.83Z" fill="#fedbb4" fill-rule="evenodd"/>
<path transform="matrix(.24,0,0,-.24,-18,802.8)" stroke-width="4" stroke-linecap="butt" stroke-miterlimit="1000" stroke-linejoin="miter" fill="none" stroke="#fcbb76" d="M252.83 1697H2230.08V2825.29H252.83Z"/>
<text fill="#231f20" xml:space="preserve" transform="matrix(1 0 -0 1 -18 802.8)" font-size="10.5" font-family="Bookman"><tspan y="-386.88" x="78.96 86.54121 89.83842 98.27013 101.56734 104.69456 114.83777 121.77848 124.86569 128.8034 132.74112 138.82083 145.33104 150.77025 155.34847 158.4757 161.5629 168.0731 174.58332 181.09352 187.60373 190.69094 193.81816 200.32837 204.90659 210.77629 217.2865 223.1562 228.59542 234.03462 240.54483 243.67206 249.75177">R.H. Whittaker (1969) proposed a </tspan><tspan y="-386.72203" x="253.11801 259.8966 263.0422 268.5398 274.03739 277.2097 284.84928 287.99488 294.99397 300.70158 307.27018 313.19828 323.18989 326.36219 334.2118 337.3574 343.49549 348.99308 354.49067 357.63627 360.99186 364.13746 369.63505 375.77314 379.76924 382.91484 388.84294 395.84205 399.19764 252.80002 259.5786 262.7242 268.2218 273.7194 276.8917 284.53129 287.67689 294.67597 300.38359 306.95219 312.88029 322.8719 326.0442 333.8938 337.0394 343.1775 348.67509 354.17268 357.31828 360.67387 363.81947 369.31706 375.45515 379.45124 382.59684 388.52494 395.52406 398.87965">Five Kingdom Classification. Five Kingdom Classification. </tspan><tspan y="-387.03703" x="253.11801 259.8966 263.0422 268.5398 274.03739 277.2097 284.84928 287.99488 294.99397 300.70158 307.27018 313.19828 323.18989 326.36219 334.2118 337.3574 343.49549 348.99308 354.49067 357.63627 360.99186 364.13746 369.63505 375.77314 379.76924 382.91484 388.84294 395.84205 399.19764 252.80002 259.5786 262.7242 268.2218 273.7194 276.8917 284.53129 287.67689 294.67597 300.38359 306.95219 312.88029 322.8719 326.0442 333.8938 337.0394 343.1775 348.67509 354.17268 357.31828 360.67387 363.81947 369.31706 375.45515 379.45124 382.59684 388.52494 395.52406 398.87965">Five Kingdom Classification. Five Kingdom Classification. </tspan><tspan y="-386.87904" x="252.96102 259.73963 262.88523 268.3828 273.8804 277.0527 284.6923 287.8379 294.83699 300.5446 307.1132 313.0413 323.0329 326.2052 334.0548 337.2004 343.3385 348.8361 354.33369 357.47929 360.83488 363.98048 369.47807 375.61616 379.61225 382.75785 388.68595 395.68507 399.04066 402 408.49363 415.41773">Five Kingdom Classification. The</tspan><tspan y="-373.43904" x="60.961 67.46881 70.55362 77.49193 83.13874 89.64655 95.51386 105.44467 110.881488 113.63459 120.1424 125.579219 128.87403 131.95883 138.89714 144.33396 150.84177 153.59488 160.10269 165.7495 168.50261 175.44092 178.52573 188.45655 191.20966 199.42897 204.86579 209.44159 214.8784 217.63152 224.56983 230.64714 240.57796 246.01477 252.52259">kingdoms defined by him were named </tspan><tspan y="-373.28105" x="255.519 265.2865 271.211 278.2065 283.7005 288.3335 294.468 297.81999 300.62199 307.18699 311.81999 317.74449 321.73698 324.87898 330.37297 334.36546 340.49995 343.85194 346.65394 353.42893 360.63444 367.62995 373.33396 376.47596 379.82795 382.62995 389.19496 392.33695 398.47145 405.46696 409.45945 415.59394 255.2 264.9675 270.892 277.8875 283.3815 288.0145 294.149 297.50099 300.30299 306.86799 311.50099 317.42549 321.41798 324.55998 330.05397 334.04646 340.18095 343.53294 346.33494 353.10993 360.31544 367.31095 373.01496 376.15696 379.50895 382.31095 388.87596 392.01795 398.15245 405.14796 409.14045 415.27494">Monera, Protista, Fungi, PlantaeMonera, Protista, Fungi, Plantae</tspan><tspan y="-373.59605" x="255.519 265.2865 271.211 278.2065 283.7005 288.3335 294.468 297.81999 300.62199 307.18699 311.81999 317.74449 321.73698 324.87898 330.37297 334.36546 340.49995 343.85194 346.65394 353.42893 360.63444 367.62995 373.33396 376.47596 379.82795 382.62995 389.19496 392.33695 398.47145 405.46696 409.45945 415.59394 255.2 264.9675 270.892 277.8875 283.3815 288.0145 294.149 297.50099 300.30299 306.86799 311.50099 317.42549 321.41798 324.55998 330.05397 334.04646 340.18095 343.53294 346.33494 353.10993 360.31544 367.31095 373.01496 376.15696 379.50895 382.31095 388.87596 392.01795 398.15245 405.14796 409.14045 415.27494">Monera, Protista, Fungi, PlantaeMonera, Protista, Fungi, Plantae</tspan><tspan y="-373.43806" x="255.362 265.1295 271.054 278.0495 283.5435 288.17649 294.31098 297.66297 300.46498 307.02998 311.66297 317.58747 321.57997 324.72196 330.21595 334.20845 340.34294 343.69493 346.49693 353.2719 360.47743 367.47294 373.17695 376.31895 379.67094 382.47294 389.03794 392.17994 398.31443 405.30995 409.30244 415.43693">Monera, Protista, Fungi, Plantae</tspan><tspan y="-359.99806" x="60.962007 66.961719 73.822429 80.25264">and </tspan><tspan y="-359.84007" x="82.71901 89.82441 96.71981 99.76171 109.64961 115.68401 118.725917 121.767818 127.802219 82.40804 89.51344 96.408847 99.450748 109.338649 115.37305 118.41495 121.45685 127.49125">Animalia.Animalia.</tspan><tspan y="-360.15507" x="82.71901 89.82441 96.71981 99.76171 109.64961 115.68401 118.725917 121.767818 127.802219 82.40001 89.50541 96.40081 99.44271 109.33061 115.36501 118.40691 121.448818 127.483219">Animalia.Animalia.</tspan><tspan y="-359.99708" x="82.56101 89.66641 96.56181 99.603717 109.491619 115.52602 118.56792 121.60982 127.64422 130.80002 133.13312 139.52922 146.35582 151.68093 154.01403 163.83313 169.79874 172.77184 179.59844 181.93154 187.25664 191.72074 194.69384 198.51743 203.84253 208.30663 211.27973 217.24533 219.57843 222.76154 228.51714 232.98123 235.31433 240.63944 243.61254 249.57814 254.90325 260.22834 263.20146 266.38456 269.35768 274.68278 280.64839 284.472 287.4451 293.20069 300.02729 302.36039 309.39698 314.72209 320.04719 326.44328 328.77638 335.17247 340.70756 343.04066 349.86726 352.84037 362.65946 364.99256 367.96568 374.79228 380.11738 383.09049 390.12709 396.52317 401.84828 404.18138 409.50648 414.83158 417.8047">Animalia. The main criteria for classification used by him include cell</tspan><tspan y="-346.31709" x="60.96102 66.57871 70.6949 75.45159 82.780788 88.398479 92.51466 99.84386 104.60055 110.21824 113.69393 118.86961 125.558307 131.60649 138.29518 144.12287 149.29856 155.34674 160.10343 165.93112 172.18932 179.3085 182.57419 188.19188 194.45008 198.56627 201.83196 207.88014 214.99933 218.47502 223.65071 233.7624 239.8106 246.49929 252.11698 257.29267 263.34086 266.81654 271.9922 279.1114 286.44059 290.55677 295.31346 298.57914 302.6953 305.961 312.0092 319.1284 322.60408 327.77973 332.5364 338.15409 344.84278 349.59947 355.64765 362.33634 369.66554 375.2832 379.39939 382.66508 388.71327 395.83247 401.00813 407.2663 414.3855">structure, body organisation, mode of nutrition, reproduction and</tspan><tspan y="-332.87709" x="60.96102 67.13582 73.74112 79.05492 81.80672 87.34102 92.654819 97.75861 104.363918 109.46771 113.070018 115.821819 120.92561 123.037418 127.28021 132.38402 135.13582 140.88013 144.48242 147.23423 152.76853 159.37383 164.47763 171.08293 173.83473 180.00954 185.11334 188.07515 190.18695 196.36176 202.10605 208.28086 211.03266 216.13646 218.24826 224.42307 227.38488 233.55968 235.67148 240.98528 243.73708 248.84088 253.94469 259.0485 261.16029 266.90458 269.01637 274.12016 279.65446 289.25227 295.42707 301.17137 305.41416 311.15846 314.76075 317.51255 322.61634 327.72013 329.8319 335.5762 340.68 345.78379 351.31809 358.1334 364.73869 368.34098 370.45277 375.98707 378.94886 381.06065 387.23545 389.98725 392.94905 395.91084 401.01463 405.25743 410.3612 416.9665">phylogenetic relationships. Table 2.1 gives a comparative account of different</tspan><tspan y="-319.43708" x="60.96102 66.25142 73.04332 78.97422 83.40362 89.33452 94.624919 98.41382 103.704219 108.13361 111.072017 116.36241 120.15131 123.089717 128.38011 133.67052 135.96892 141.68982 144.83823 147.13663 150.92552 157.71743 163.00783 165.30623 168.45464 171.39304 176.68344 181.97385 184.27225 190.63365 193.57205 200.36396 205.86435 212.22576 217.94666 227.73105 233.02146">characteristics of the five kingdoms.</tspan></text>
<text fill="#231f20" xml:space="preserve" transform="matrix(1 0 -0 1 -18 802.8)" font-size="10" font-family="Bookman"><tspan y="-305.99708" x="78.96002 85.20002 91.57363 96.51724 98.61086 102.12447 108.498088 112.6217 117.56531 122.50892 126.23253 132.19614 137.54975 146.77336 152.32697 155.03058 161.40419 163.4978 168.4414 173.58502 178.52863 182.04224 186.98584 196.20946 198.30307 204.67668 210.23029 215.17389 217.2675 222.8211 225.52472 230.46833 235.82193 237.91555 243.87915 248.82276 253.76636 260.13996 262.23356 268.19718 272.32078 277.67439 283.638 288.9916 293.9352 298.8788 304.84245 306.93605 310.44966 316.82325 322.37687 325.89048 327.98408 333.9477 336.6513 341.5949 344.29853 350.26216 355.20576 360.14936 362.24296 365.75657 372.13017 377.07377 379.16737 386.15098 388.85459 395.22819 400.3718 406.33543 411.68904">The three-domain system has also been proposed that divides the Kingdom</tspan><tspan y="-292.31709" x="60.960023 70.15773 75.69544 82.25315 87.38086 91.68857 97.42628 99.703998 102.591709 109.149417 112.84712 118.384838 120.66255 124.36026 132.13797 137.67568 139.95339 146.10109 151.6388 161.04651 166.78423 169.67194 176.22965 181.35736 184.44507 186.72278 189.61049 194.7382 200.47592 205.60364 208.49135 215.04906 220.37677 222.65448 226.35219 232.9099 238.03762 240.31533 244.62303 249.75075 259.15846 264.89616 267.78385 274.34156 277.22926 283.78697 289.11466 291.39237 296.52009 303.2778 309.4255 315.1632 319.47093 324.7986 330.33634 334.03407 336.92176 342.04948 344.32719 350.47489 353.36259 359.9203 365.248 371.3957 376.9334 386.34114 391.46885 393.74656 396.63426 403.19197 405.46968 409.1674 415.7251">Monera into two domains, leaving the remaining eukaryotic kingdoms in the</tspan><tspan y="-278.87709" x="60.960023 64.717227 71.33443 74.281627 78.64883 84.856029 87.48053 93.68773 99.28493 108.75213 114.54933 117.49653 124.11373 126.738239 132.53543 139.15264 145.35984 147.98433 151.74153 158.35874 163.54593 167.91313 173.10033 179.30753 184.69474 187.31923 193.11643 195.74092 200.92812 203.87532 209.47252 212.09702 218.30422 221.25142 227.86862 233.25583 239.46303 245.06023 254.52742 257.15193 262.3391 265.28633 271.08354 276.27073 281.45793 284.40513 287.5523 290.4995 295.6867 301.48393 305.24113 308.18833 313.78553 320.4027 323.5499 326.17439 330.96003 336.56285 343.38566 346.01576 353.85856 356.81135 359.76414 362.71693 365.34703 368.2998 373.4926 379.2954 383.6682 390.29103 392.9211 398.7239 404.9367 410.53953 417.36235">third domain and thereby a six kingdom classification. You will learn about</tspan><tspan y="-265.43708" x="60.960023 64.724628 71.34923 74.303829 79.49843 82.01554 87.210147 92.604747 97.79935 101.56395 106.75855 116.233158 118.75027 121.704868 128.32947 130.84658 137.06118 142.25577 146.02037 151.82497 154.77957 157.73418 160.08002 163.2109 169.92002 172.42613 179.05225 182.00836 187.40448 194.0306 199.2267 203.60282 206.10894 211.30504 214.26116 220.06726 225.26337 230.45948 235.65558 240.85169">this system in detail in higher classes.</tspan></text>
<text fill="#231f20" xml:space="preserve" transform="matrix(1 0 -0 1 -18 802.8)" font-size="10.5" font-family="Bookman"><tspan y="-251.99707" x="78.960018 85.11292 90.41533 94.21624 96.52665 103.54056 108.84297 111.15338 114.10379 119.8367 125.56961 131.94303 134.25344 140.19635 143.99726 146.30767 150.10857 156.91248 159.86289 165.1653 167.47571 170.63613 173.58654 178.88895 184.19136 186.50177 192.87519 195.82559 202.6295 208.1419 214.51532 220.24823 230.04465 232.35506 237.65747 240.60788 246.5508 251.85321 257.1556 260.10603 263.26643 266.21684 271.51924 277.46214 281.26304 284.21345 289.94636 296.75028 299.06068 302.86158 308.59449 310.90489 317.9188 324.72273 331.09614 336.39854 340.83995 346.14234 349.94325 355.88615 362.69007 369.06349 371.37388 375.17478 381.9787 387.2811 389.5915 392.5419 397.8443 403.1467 410.1606 415.463">Let us look at this five kingdom classification to understand the issues</tspan><tspan y="-238.31708" x="60.960016 67.044818 73.990619 80.50592 85.50821 90.95251 96.82731 103.77311 109.21741 112.30971 118.82501 124.26931 128.85262 134.93741 138.8802 141.9725 147.8473 154.7931 160.23741 165.23972 169.18251 176.12831 182.2131 186.1559 191.1582 194.2505 201.1963 204.49861 207.59091 214.74672 220.19103 227.13683 232.58113 238.02544 244.54074 249.54305 253.48584 260.43165 265.87596 270.87825 276.32255 279.41484 285.49964 290.94395 296.38825 299.48054 302.78285 305.87513 311.31944 317.40425 321.34706 324.43934 330.31413 337.25993 342.2622 347.7065 353.3608 358.8051 362.74794 368.19224 378.13053 381.43284 386.43513 394.02143 400.10624 404.68955 407.78184 410.8741 416.31843">and considerations that influenced the classification system. Earlier</tspan><tspan y="-224.87708" x="60.960016 66.317317 69.32262 75.32042 80.67772 86.03502 89.04032 92.25562 95.260929 100.618228 106.61603 110.471828 113.47713 119.26493 126.12373 128.48903 133.84633 139.41364 144.77094 148.62674 153.98404 163.83535 169.19264 171.55794 174.56324 181.42203 186.77933 189.78462 196.85343 203.28173 208.63903 215.06732 217.43262 223.86092 229.85872 235.21602 239.07183 244.42913 248.92543 251.93073 257.92854 261.14384 263.50914 269.93745 272.94276 280.01155 285.36885 287.73414 293.30143 297.79774 303.15504 308.51234 315.37113 317.73643 323.73423 326.73954 332.30683 338.30464 343.66194 346.87724 349.24253 352.45783 359.5266 366.3854 371.9527 374.958 378.1733 380.5386 390.3899 396.1777 401.535 406.8923 412.2496 417.6069">classification systems included bacteria, blue green algae, fungi, mosses,</tspan><tspan y="-211.43708" x="60.960016 64.261028 69.70403 74.28604 81.23055 86.67356 89.97457 92.56938 98.22239 103.8754 113.81241 120.75692 126.63043 132.07344 138.58745 144.03046 148.61248 158.54949 163.9925 166.5873 172.6708 179.61531 186.12932 188.72412 192.66564 199.61014 205.05315 207.64795 213.73146 220.67597 226.32898 229.41999 235.29349 240.7365 247.2505 252.69351 257.2755 267.21253 272.65556 275.25035 282.40486 289.34938 295.86338 301.3064 305.8884 308.4832 310.7132 317.2272 320.3182 326.4017 333.34623 337.28773 342.73075 344.96076 348.26176 350.85655 357.37055 364.31507 369.7581 372.35289 377.7959 384.74043 390.8239 395.4059 401.4894 406.93244 410.87394 416.31697">ferns, gymnosperms and the angiosperms under &#x2018;Plants&#x2019;. The character</tspan><tspan y="-197.99707" x="60.960016 64.740818 71.52461 77.44741 81.22821 83.51851 90.51231 97.296108 100.2264 103.3667 106.297 111.5793 117.9326 120.2229 124.0037 130.7875 133.7178 139.0001 141.2904 149.35521 156.139 161.8518 164.7821 170.0644 172.3547 178.70801 181.6383 188.4221 193.9144 200.2677 205.9805 215.7568 218.0471 226.11191 232.03472 237.31702 239.60732 243.38813 250.17192 256.09474 259.87553 262.1658 268.0886 271.0189 273.9492 276.23948 280.02027 286.80409 292.08638 294.37666 300.08946 304.51075 310.00306 315.92585 322.70967 325.63996 330.92225 340.69856 345.98085 348.27113 351.20143 357.98524 363.26753 366.1978 373.19163 379.54493 384.8272 391.1805 393.4708 400.2546 406.1774 412.5307 414.82099">that unified this whole kingdom was that all the organisms included had a</tspan><tspan y="-184.31708" x="60.960016 66.24481 71.52961 74.46241 77.39521 79.68801 87.75531 93.68061 96.61341 99.54621 101.83901 104.77181 111.55811 113.850917 117.63422 124.42052 129.70532 132.63813 137.06192 139.35472 144.63953 149.92433 152.85713 155.78993 161.07474 164.21755 166.51035 168.80315 175.15895 181.94525 184.87805 190.16286 192.45566 198.81147 201.74427 207.66956 212.95436 218.23917 224.59497 226.88777 230.67107 236.38637 241.88117 247.16597 250.94927 257.73558 263.02037 267.44416 269.73695 275.23176 279.65556 285.37086 292.36717 298.72297 304.00776 306.30055 314.36784 321.1541 324.0869 329.3717 336.158 338.45079 346.51808 349.45088 355.80668 361.09147 364.02427 369.51908 371.81187 378.16767 381.10047 384.24327 387.38606 392.67085 397.09465 402.37944 408.73524 411.028 413.96083">cell wall in their cells.  This placed together groups which widely differed in</tspan><tspan y="-170.87708" x="60.960016 66.71642 70.54083 77.36824 82.69415 87.159069 89.49297 94.818889 101.64629 107.6127 112.077617 118.04402 123.369937 127.19434 132.52025 136.98516 139.95906 145.28498 149.10939 152.0833 157.40921 162.73513 165.91904 168.25295 171.64685 175.47127 177.80518 184.20209 188.66699 194.4234 201.46082 206.99672 213.82413 217.64855 219.98246 223.80687 229.56328 235.09918 240.4251 244.24951 251.07692 256.40284 260.86775 263.20164 267.02604 273.85346 279.17936 281.51325 287.91017 292.37507 298.13148 304.52839 310.49479 314.9597 320.4956 326.252 330.07643 333.05033 338.37623 340.7101 347.10704 353.07344 358.39933 362.22373 367.54963 372.01454 374.98844 380.95484 383.28874 389.25514 396.08256 402.47947 404.81336 408.63777 415.46519">other characteristics. It brought together the prokaryotic bacteria and the</tspan><tspan y="-157.43708" x="60.960016 67.289928 70.19684 77.16725 82.42616 84.69308 90.16199 94.5599 99.81881 105.07772 111.83813 114.10504 120.004459 122.91137 128.38028 134.2797 139.5386 141.84001 144.72002 144.96002 150.31642 155.88283 161.87973 168.73763 174.52452 180.95192 186.94882 192.30522 196.16013 201.51653 206.01194 209.01633 215.01323 218.01763 220.32003 228.35784 231.26114 235.01496 241.77176 244.03507 249.72087 253.47469 260.2315 265.48683 269.88114 272.14445 277.60975 282.00407 287.68989 294.65669 300.983 306.2383 308.50163 316.53944 323.29624 326.19956 331.45487 338.21168 340.47499 348.5128 353.7681 358.1624 363.41773 365.68104 370.93635 377.90315 384.22947 390.12528 394.5196 399.9849 405.67073 409.42454 412.32786 417.58317">blue green algae ( cyanobacteria) with other groups which were eukaryotic.</tspan><tspan y="-143.99707" x="60.960023 64.470638 68.41174 70.95126 77.03438 80.124988 85.5676 91.440708 93.980228 99.632839 104.21445 110.087558 117.24167 123.75528 129.19789 135.7115 138.25102 142.19214 148.06525 153.71785 159.16046 163.10158 170.04569 175.4883 180.0699 182.60942 186.55054 193.49465 198.93726 201.47678 208.63089 215.575 218.6656 224.10822 229.55083 232.64144 235.73204 242.88616 245.97676 252.05988 256.64149 259.181 265.0541 269.6357 275.28834 281.37144 288.31556 291.40617 296.84877 306.78538 312.22798 314.7675 320.8506 327.7947 334.30833 336.84785 340.78895 347.73307 353.17567 355.71519 365.6518 372.8059 375.8965 379.83763 382.92823 388.37083 393.81343 396.90403 399.99464 407.14875 410.23936 416.32246">It also grouped together the unicellular organisms and the multicellular</tspan><tspan y="-130.31708" x="60.960023 66.523227 73.157428 78.29012 83.42282 86.41352 88.55422 93.68692 99.46012 104.80282 107.79352 109.93422 112.92492 118.48812 122.75982 124.90052 130.03322 135.59642 141.36962 150.9963 157.20001 159.98072 165.11342 168.10413">ones, say, for example, </tspan></text>
<text fill="#231f20" xml:space="preserve" transform="matrix(1 0 -.20997243 1 -18 802.8)" font-size="10.500472" font-family="Bookman"><tspan y="-130.32" x="142.7964 150.28279 156.91864 159.70082 165.47563 175.10411 180.4484 186.65373 192.21854 201.84702 207.41182 214.04767 219.82248">Chlamydomonas</tspan></text>
<text fill="#231f20" xml:space="preserve" transform="matrix(1 0 -0 1 -18 802.8)" font-size="10.5" font-family="Bookman"><tspan y="-130.32" x="252.24 254.37561 260.1437 266.77284 272.97145"> and </tspan></text>
<text fill="#231f20" xml:space="preserve" transform="matrix(1 0 -.20997243 1 -18 802.8)" font-size="10.500472" font-family="Bookman"><tspan y="-130.32" x="247.6764 254.30715 260.50736 263.28443 267.55259 273.11228 278.45149 283.79069 288.05885">Spirogyra</tspan></text>
<text fill="#231f20" xml:space="preserve" transform="matrix(1 0 -0 1 -18 802.8)" font-size="10.5" font-family="Bookman"><tspan y="-130.32" x="321.36 323.5008 331.4161 336.54893 340.82075 345.95356 348.09437 354.29817 357.07899 362.8523 367.9851 373.11793 379.32173 381.46253 385.09385 390.65718 395.99998 401.13279 404.7641 411.3984 416.53123"> were placed together</tspan><tspan y="-116.880008" x="60.95999 67.7483 74.32661 80.47442 85.55123 89.767047 91.85185 97.56916 100.29397 105.58078 111.29809 116.3749 119.30971 121.394519 127.54233 134.12064 139.19745 141.28226 146.35907 149.08388 154.8012 159.878 164.95482 167.67963 170.61444 173.33925 178.41606 184.13338 187.7087 190.4335 195.94081 202.51912 204.60393 210.75174 213.47655 219.62436 221.70917 228.28748 233.79479 237.3701 239.45491 245.60272 248.32753 251.26235 254.19716 259.27397 263.48979 268.5666 275.1449 278.7202 281.44505 287.16236 290.73768 295.81449 297.8993 304.0471 309.1239 312.69923 320.55854 325.63536 330.71217 337.29048 339.37528 342.9506 349.5289 354.6057 356.69053 363.26884 368.34565 371.92097 376.99778 381.2136 386.72093 390.29624 394.51206 400.01939 406.16719 412.74549 415.4703">under algae. The classification did not differentiate between the heterotrophic</tspan><tspan y="-102.96001" x="60.95999 66.50609 70.981189 76.74779 83.79539 90.202487 92.546588 97.662189 100.00629 103.200389 110.247989 117.08559 122.63168 125.61578 128.80989 131.15399 137.13059 143.96819 150.37529 152.71939 156.55399 163.39159 168.72769 171.0718 177.0484 184.09601 187.9306 193.6972 197.5318 202.0069 207.7735 214.1806 221.0182 224.0023 229.33841 231.68251 237.2286 241.7037 247.03981 252.37592 259.2135 261.5576 267.9647 270.9488 276.92539 283.76298 287.59757 292.93367 296.12776 298.47184 302.30644 309.144 314.9106 321.95823 327.50434 334.34193 336.686 340.5206 347.3582 352.69429 358.2404 360.58448 366.56108 369.54518 374.88127 380.64787 382.99195 388.32804 395.16563 400.93223 409.0508 414.3869">group &#x2013; fungi, and the autotrophic green plants, though they also showed</tspan><tspan y="-89.04001" x="60.95999 66.900699 69.2089 74.5091 81.3108 87.251499 91.6907 97.63139 102.931598 106.73029 112.030498 116.469699 119.41789 124.718097 128.5168 131.465 136.7652 139.0734 145.4446 148.39279 151.551 154.7092 160.0094 164.4486 169.7488 176.55049 181.8507 187.1509 189.45909 192.40729 199.20899 201.51718 205.31589 212.11759 217.41779 220.36598 224.80518 227.11338 235.19608 241.13678 244.08498 247.03318 252.33338 254.64157 259.94178 265.6725 275.46669 281.8379 287.5686 292.8688 295.81703 299.61573 302.56394 308.29466 315.09635 317.40455 322.48426 324.79246 328.59117 335.39286 340.69306 343.00126 346.15946 353.17115 359.97285 365.48304 368.43125 370.73945 377.54115 383.48185 389.85304 392.16123 397.46144 404.26313 407.21134 411.01005 413.95826">a characteristic difference in their walls composition &#x2013; the fungi had chitin</tspan></text>
<text fill="#231f20" xml:space="preserve" transform="matrix(1 0 -0 1 -18 802.8)" font-size="9.5" font-family="Bookman"><tspan y="-660.818" x="301.823 308.4882 311.8664 317.3726 322.87879 328.047 335.4912 338.86943 345.73414 351.43034 357.90553 363.8012 373.3734 301.538 308.2032 311.5814 317.0876 322.59379 327.762 335.2062 338.5844 345.4491 351.1453 357.62049 363.51618 373.08839">Five KingdomsFive Kingdoms</tspan><tspan y="-661.10299" x="301.823 308.4882 311.8664 317.3726 322.87879 328.047 335.4912 338.86943 345.73414 351.43034 357.90553 363.8012 373.3734 301.538 308.2032 311.5814 317.0876 322.59379 327.762 335.2062 338.5844 345.4491 351.1453 357.62049 363.51618 373.08839">Five KingdomsFive Kingdoms</tspan><tspan y="-660.96096" x="301.68 308.34519 311.7234 317.22959 322.73579 327.904 335.3482 338.7264 345.59114 351.28733 357.7625 363.6582 373.2304">Five Kingdoms</tspan></text>
<path transform="matrix(.24,0,0,-.24,123.119998,154.79999)" stroke-width="4" stroke-linecap="butt" stroke-miterlimit="10" stroke-linejoin="miter" fill="none" stroke="#ffffff" d="M0 0H1644"/>
<path transform="matrix(.24,0,0,-.24,436.08,154.08002)" stroke-width="4" stroke-linecap="butt" stroke-miterlimit="10" stroke-linejoin="miter" fill="none" stroke="#ffffff" d="M0 0V-1004"/>
<path transform="matrix(.24,0,0,-.24,369.12,155.03998)" stroke-width="4" stroke-linecap="butt" stroke-miterlimit="10" stroke-linejoin="miter" fill="none" stroke="#ffffff" d="M0 0V-1000"/>
<path transform="matrix(.24,0,0,-.24,280.08,155.27997)" stroke-width="4" stroke-linecap="butt" stroke-miterlimit="10" stroke-linejoin="miter" fill="none" stroke="#ffffff" d="M0 0V-999"/>
<path transform="matrix(.24,0,0,-.24,210.72,155.27997)" stroke-width="4" stroke-linecap="butt" stroke-miterlimit="10" stroke-linejoin="miter" fill="none" stroke="#ffffff" d="M0 0V-999"/>
<path transform="matrix(.24,0,0,-.24,123.600009,124.32001)" stroke-width="4" stroke-linecap="butt" stroke-miterlimit="10" stroke-linejoin="miter" fill="none" stroke="#ffffff" d="M0 0V-1128"/>
<path transform="matrix(.24,0,0,-.24,42.72,176.64002)" stroke-width="4" stroke-linecap="butt" stroke-miterlimit="10" stroke-linejoin="miter" fill="none" stroke="#ffffff" d="M0 0H1979"/>
<path transform="matrix(.24,0,0,-.24,42.72,197.27997)" stroke-width="4" stroke-linecap="butt" stroke-miterlimit="10" stroke-linejoin="miter" fill="none" stroke="#ffffff" d="M0 0H1979"/>
<path transform="matrix(.24,0,0,-.24,42,242.64002)" stroke-width="4" stroke-linecap="butt" stroke-miterlimit="10" stroke-linejoin="miter" fill="none" stroke="#ffffff" d="M0 0H1978"/>
<text fill="#231f20" xml:space="preserve" transform="matrix(1 0 -0 1 -18 802.8)" font-size="9.5" font-family="Bookman"><tspan y="-649.298" x="66.863 74.56199 81.49148 87.64197 92.43396 98.58445 104.15544 108.367938 113.93893 118.73092 66.577999 74.276988 81.206478 87.356967 92.14896 98.299449 103.87044 108.08293 113.65392 118.445919">CharactersCharacters</tspan><tspan y="-649.58297" x="66.863 74.56199 81.49148 87.64197 92.43396 98.58445 104.15544 108.367938 113.93893 118.73092 66.577999 74.276988 81.206478 87.356967 92.14896 98.299449 103.87044 108.08293 113.65392 118.445919">CharactersCharacters</tspan><tspan y="-649.4409" x="66.71999 74.41898 81.34847 87.49896 92.290958 98.441448 104.012439 108.22493 113.79592 118.58791">Characters</tspan><tspan y="-614.6409" x="66.71999 73.86708 78.88617 81.77726 84.66835 88.84944 92.51003 97.719127 103.707218">Cell type</tspan><tspan y="-591.84097" x="66.71999 73.878398 78.9088 81.811199 84.71359 89.05599 96.60389 102.21379 105.11619">Cell wall</tspan><tspan y="-544.3209" x="66.71999 74.14758 80.995677 86.295269 89.46686 94.76645 100.64554">Nuclear</tspan><tspan y="-532.7999" x="66.71999 76.00999 81.23398 90.52397 96.716968 101.16196 106.96545 113.547939">membrane</tspan><tspan y="-521.52096" x="66.71999 73.951198 79.44389 85.5161">Body</tspan><tspan y="-509.99995" x="66.71999 72.3148 76.7411 82.1364 87.921199 94.48499 97.562297 102.76759 108.55239 112.39919 115.476497 121.0713">organisation</tspan><tspan y="-464.39994" x="66.71999 75.60639 81.01579 87.00469 92.02459 94.956508 100.365909">Mode of</tspan><tspan y="-453.12095" x="66.71999 73.2691 80.008197 83.840297 88.25189 91.31449 95.14659 98.20919 103.78929">nutrition</tspan><tspan y="-631.29898" x="149.9 159.31288 165.24878 172.15367 177.70006 182.46746">Monera</tspan><tspan y="-631.2999" x="149.618 159.03089 164.96677 171.87166 177.41805 182.18544">Monera</tspan><tspan y="-631.5849" x="149.9 159.31288 165.24878 172.15367 177.70006 182.46746">Monera</tspan><tspan y="-631.5839" x="149.618 159.03089 164.96677 171.87166 177.41805 182.18544">Monera</tspan><tspan y="-631.4419" x="149.761 159.17389 165.10977 172.01467 177.56105 182.32845">Monera</tspan><tspan y="-614.16189" x="149.761 155.8568 160.20459 165.72089 171.81668 177.52297 181.87076 187.18755 192.70384 196.47214 199.47093">Prokaryotic</tspan><tspan y="-591.3619" x="149.761 157.0763 162.65308 169.19887 174.38616 179.57344 182.63274 185.69203 192.42783 195.48712 201.0639 206.25119 209.31049">Noncellulosic</tspan><tspan y="-579.84188" x="149.761 152.82729 158.99057 164.57436 167.64064 173.02494 178.21923 183.99301 189.1873 194.38159 200.93439 206.70818 211.12346 214.18975 220.35303">(Polysaccharide</tspan><tspan y="-568.5618" x="149.761 155.55699 159.39548 165.00147 174.09397 176.99245 183.37744 188.79343 192.63191 198.2379 203.26439 206.16287 212.15836">+ amino acid)</tspan><tspan y="-541.6818" x="149.761 156.5713 162.80211 168.0639 173.3257 179.946">Absent</tspan><tspan y="-518.88186" x="149.761 157.1425 162.396 165.5215 168.647 175.449 178.57451 184.40752">Cellular</tspan><tspan y="-494.39985" x="149.761 156.4385 163.11602 166.8865 172.405 176.1755 180.52552 186.044 192.14202 198.62952 201.63053">Autotrophic</tspan><tspan y="-482.88185" x="149.761 152.7833 157.93358 164.44237 169.59265 178.80895 184.34874 189.49903 194.83931 201.3481">(chemosyn-</tspan><tspan y="-471.59983" x="149.761 153.44649 159.84899 164.89298 168.57846 171.49445 176.53844 181.19443 186.81792 193.22042">thetic and</tspan><tspan y="-460.08183" x="149.761 155.8864 162.40129 167.94718 171.74507 177.29096 182.44734 187.79373 194.30863 198.10652 204.62142 209.7778 213.5757 216.6041 221.76049">photosynthetic)</tspan><tspan y="-448.7998" x="149.761 155.34041 161.69882 167.66774 171.82965 179.53707 184.53697 188.17838 193.17829 197.3992 202.7886">and Hetero-</tspan><tspan y="-437.2818" x="149.761 153.4265 157.6715 163.08498 169.07798 175.46047 178.35646 183.38045 188.01644 190.91243 195.93642 201.5399 207.5329 211.7779 217.19138">trophic (sapro-</tspan><tspan y="-425.9998" x="149.761 155.9263 162.4811 167.86739 171.70517 174.77346 179.96974 185.93553 192.10083 197.87662 202.29392 208.0697">phytic/para-</tspan><tspan y="-414.48179" x="149.761 154.9628 158.0366 161.87992 164.95372 170.15552">sitic)</tspan><tspan y="-631.7798" x="234.864 241.5407 246.46939 252.56658 256.91578 260.49546 266.20317 270.55235">Protista</tspan><tspan y="-631.78036" x="234.5736 241.25029 246.17899 252.27617 256.62538 260.20506 265.91276 270.26194">Protista</tspan><tspan y="-632.0653" x="234.8626 241.53929 246.46799 252.56517 256.91438 260.49406 266.20176 270.55094 234.57263 241.24933 246.17803 252.2752 256.6244 260.20408 265.91178 270.26097">ProtistaProtista</tspan><tspan y="-631.9233" x="234.72159 241.39829 246.32698 252.42417 256.77336 260.35304 266.06074 270.4099">Protista</tspan><tspan y="-614.64328" x="234.72159 241.79288 248.47467 254.57697 260.28977 264.64405 269.96736 275.49015 279.26493 282.2702">Eukaryotic</tspan><tspan y="-591.84329" x="234.72159 241.48239 246.4952 252.28699 258.0788 263.8706 271.0209 275.4542 284.2079 287.87168">Present in</tspan><tspan y="-580.32327" x="234.72159 239.80509 245.27809 254.4276">some</tspan><tspan y="-544.08328" x="234.72159 240.94348 245.41738 250.67026 255.92314 261.17604 267.7874">Present</tspan><tspan y="-521.28329" x="234.72159 242.10309 247.35659 250.48209 253.60759 260.40959 263.53507 269.36808">Cellular</tspan><tspan y="-487.20326" x="234.72159 241.3991 248.0766 251.8471 257.3656 261.1361 265.4861 271.0046 277.1026 283.5901 286.5911">Autotrophic</tspan><tspan y="-475.68327" x="234.72159 237.68907 243.75356 250.20755 255.69254 259.42955 264.91453 270.01 275.2955 281.74949">(Photosyn-</tspan><tspan y="-464.40327" x="234.72159 238.42749 244.85039 249.9148 253.6207 256.5571 261.6215 264.5579 269.23429 274.87818 281.3011">thetic) and</tspan><tspan y="-452.88328" x="234.72159 242.50679 247.58449 251.3037 256.3814 260.6801 266.1473">Hetero-</tspan><tspan y="-441.60328" x="234.72159 238.54579 242.9495 248.5217 254.6734 261.2146 264.2693">trophic</tspan><tspan y="-631.0613" x="304.22459 310.91798 318.00086 324.89378 330.61817 303.93806 310.63145 317.71434 324.60725 330.33164">FungiFungi</tspan><tspan y="-631.34628" x="304.22459 310.91798 318.00086 324.89378 330.61817 303.93806 310.63145 317.71434 324.60725 330.33164">FungiFungi</tspan><tspan y="-631.2042" x="304.08259 310.77598 317.85887 324.75178 330.47618">Fungi</tspan><tspan y="-613.6842" x="304.08259 311.15388 317.83567 323.93797 329.65077 334.00505 339.32835 344.85115 348.62593 351.6312">Eukaryotic</tspan><tspan y="-590.8842" x="304.08259 310.30448 314.77836 320.03126 325.28416 330.53706 337.14845">Present</tspan><tspan y="-579.6042" x="304.08259 311.62879 314.52949 318.19969 324.58686">with </tspan></text>
<text fill="#231f20" xml:space="preserve" transform="matrix(1 0 -0 1 -18 802.8)" font-size="9" font-family="Bookman"><tspan y="-579.6042" x="328.5626 333.2979 339.32023 342.03953 345.48783 348.20713">chitin</tspan></text>
<text fill="#231f20" xml:space="preserve" transform="matrix(1 0 -0 1 -18 802.8)" font-size="9.5" font-family="Bookman"><tspan y="-545.2842" x="304.08259 310.30448 314.77836 320.03126 325.28416 330.53706 337.14845">Present</tspan><tspan y="-523.20419" x="304.08259 314.12629 321.85197 325.90116 330.71986 334.76905 340.94624 347.1234 354.8491 358.8983 362.94749 369.70417 375.10237">Multiceullar/</tspan><tspan y="-511.68418" x="304.08259 306.9568 312.3485 317.74024 322.74244 327.74464 332.15885 335.80256 338.67677 343.67897 348.68116 355.23188">loose tissue</tspan><tspan y="-488.8842" x="304.08259 312.82167 318.85325 323.52635 329.55793 334.81053 341.2316 345.9047 351.1573 357.57838 364.57896 371.96903 375.87263">Heterotrophic</tspan><tspan y="-477.6042" x="304.08259 307.92127 315.24647 321.79267 328.72837 333.91606 340.27226 347.20796 354.53315 360.68983 365.298 369.1367 375.10337">(Saprophytic/</tspan><tspan y="-466.0842" x="304.08259 310.29847 316.12486 320.59275 326.41914 331.66603 334.7849 338.6733 341.7922 347.0391">Parasitic)</tspan><tspan y="-632.0222" x="393.74458 400.35816 403.87477 410.09886 417.10197 421.38807 427.61216 393.46125 400.07484 403.59144 409.81553 416.81864 421.10475 427.32884">PlantaePlantae</tspan><tspan y="-632.3072" x="393.74458 400.35816 403.87477 410.09886 417.10197 421.38807 427.61216 393.46125 400.07484 403.59144 409.81553 416.81864 421.10475 427.32884">PlantaePlantae</tspan><tspan y="-632.16519" x="393.60258 400.21617 403.73277 409.95686 416.95997 421.24607 427.47016">Plantae</tspan><tspan y="-614.64517" x="393.60258 400.67387 407.35566 413.45796 419.17076 423.52503 428.84834 434.37113 438.1459 441.15119">Eukaryotic</tspan><tspan y="-591.84518" x="393.60258 399.82447 404.29835 409.55125 414.80415 420.05705 426.66844">Present</tspan><tspan y="-580.5651" x="393.60258 396.64369 401.81278 406.98188 410.02299 413.0641 419.78169 422.82279 428.38139 433.55049 438.71958">(cellulose)</tspan><tspan y="-544.32516" x="393.60258 399.82447 404.29835 409.55125 414.80415 420.05705 426.66844">Present</tspan><tspan y="-521.52517" x="393.60258 399.90287 403.10618 408.43748 413.76878 420.64857 425.97987">Tissue/</tspan><tspan y="-510.00517" x="393.60258 399.26399 403.75688 409.21879 415.0702">organ</tspan><tspan y="-487.20518" x="393.60258 400.40007 407.19755 411.08805 416.72654 420.61705 425.08705 430.72554 436.9435 443.55104 446.67204">Autotrophic</tspan><tspan y="-475.92518" x="393.60258 397.37007 404.23457 411.48857 417.77357 422.31056 428.59556 434.49107 440.57658 447.83058">(Photosyn-</tspan><tspan y="-464.40519" x="393.60258 397.46427 404.04298 409.26316 413.12486 416.21705 421.43724">thetic)</tspan><tspan y="-632.0232" x="460.94557 468.07685 475.01817 478.47297 488.12178 494.28407 497.73887 501.19367 460.66346 467.79475 474.73606 478.19087 487.83967 494.00196 497.45677 500.91157">AnimaliaAnimalia</tspan><tspan y="-632.30819" x="460.94557 468.07685 475.01817 478.47297 488.12178 494.28407 497.73887 501.19367 460.66346 467.79475 474.73606 478.19087 487.83967 494.00196 497.45677 500.91157">AnimaliaAnimalia</tspan><tspan y="-632.16616" x="460.80357 467.93486 474.87617 478.33097 487.97978 494.14207 497.59687 501.05168">Animalia</tspan><tspan y="-614.8861" x="460.80357 467.87486 474.55665 480.65895 486.37174 490.726 496.04933 501.5721 505.3469 508.35218">Eukaryotic</tspan><tspan y="-580.5661" x="460.80357 467.61387 473.84468 479.10649 484.3683 490.9886">Absent</tspan><tspan y="-544.3261" x="460.80357 467.02546 471.49934 476.75224 482.00514 487.25804 493.86943">Present</tspan><tspan y="-521.5261" x="460.80357 466.92945 469.95835 475.11524 480.27214 486.9775 492.1344 498.0608 503.60719 507.98509 513.332 519.06838 525.58377">Tissue/organ/</tspan><tspan y="-510.24613" x="460.80357 466.22038 470.46867 475.68598 481.2928 487.6786 492.31788 497.34519 502.5625 507.5898 511.2586 516.2859">organ system</tspan><tspan y="-487.44615" x="460.80357 469.02265 474.53425 478.68736 484.19895 488.93156 494.83265 498.98576 503.71836 509.61946 516.10006 522.97018 526.35379">Heterotrophic</tspan><tspan y="-475.92616" x="460.80357 466.16096 476.35386 484.22877 489.58616 497.46107 504.48356 512.64358 518.04739 525.57919">(Holozoic/</tspan><tspan y="-464.64616" x="460.80357 468.56214 475.54173 482.9108 488.5319 495.32148 502.69056 510.44914 517.03927 522.0808 526.3529">Saprophytic</tspan><tspan y="-453.12617" x="460.80357 465.76615 469.37025 474.33283 477.35743">etc.)</tspan></text>
<path transform="matrix(.24,0,0,-.24,42.72,297.12)" stroke-width="4" stroke-linecap="butt" stroke-miterlimit="10" stroke-linejoin="miter" fill="none" stroke="#ffffff" d="M0 0H1976"/>
<text fill="#231f20" xml:space="preserve" transform="matrix(1 0 -0 1 -18 802.8)" font-size="11" font-family="Bookman"><tspan y="-685.995" x="172.725 172.39679">TT</tspan><tspan y="-686.325" x="172.725">T</tspan><tspan y="-686.326" x="172.397">T</tspan><tspan y="-686.161" x="172.56">T</tspan></text>
<text fill="#231f20" xml:space="preserve" transform="matrix(1 0 -0 1 -18 802.8)" font-size="7.69999" font-family="Bookman"><tspan y="-686.046" x="179.875 185.41069 191.41608 196.32036">ABLE</tspan><tspan y="-686.04507" x="179.642 185.17769 191.18308 196.08736">ABLE</tspan><tspan y="-686.27609" x="179.875 185.41069 191.41608 196.32036">ABLE</tspan><tspan y="-686.27658" x="179.64209 185.17778 191.18317 196.08745">ABLE</tspan><tspan y="-686.16159" x="179.76009 185.29578 191.30117 196.20545">ABLE</tspan></text>
<text fill="#231f20" xml:space="preserve" transform="matrix(1 0 -0 1 -18 802.8)" font-size="11" font-family="Bookman"><tspan y="-685.99557" x="202.24509 207.85408 215.02907 218.83806 201.91205 207.52104 214.69603 218.50502"> 2.1 2.1</tspan><tspan y="-686.32656" x="202.24509 207.85408 215.02907 218.83806 201.91205 207.52104 214.69603 218.50502"> 2.1 2.1</tspan><tspan y="-686.16159" x="202.0801 207.68909 214.86408 218.67307"> 2.1</tspan><tspan y="-685.99557" x="226.0051 231.6823 225.67749 231.35469">    </tspan><tspan y="-686.32656" x="226.0051 231.6823 225.67749 231.35469">    </tspan><tspan y="-686.16159" x="225.8401 231.5173">  </tspan></text>
<text fill="#231f20" xml:space="preserve" transform="matrix(1 0 -0 1 -18 802.8)" font-size="9.5" font-family="Bookman"><tspan y="-686.01956" x="237.2631 244.6206 251.2086 257.0176 261.4681 267.2771 272.5066 276.3776 281.6071 286.0576 289.1591 294.38859 298.25959 301.36109 306.59059 311.82008 316.68656 322.30555 325.59706 330.46354 334.33454 340.92256 346.15205 351.01853 357.407 360.5085 365.738 370.9675 375.83399 383.0015 386.103 392.691 398.1105 404.309 409.92799 419.22349 236.9781 244.3356 250.9236 256.7326 261.1831 266.9921 272.2216 276.0926 281.32209 285.77259 288.87409 294.10359 297.97459 301.07609 306.30558 311.53507 316.40156 322.02055 325.31205 330.17854 334.04954 340.63755 345.86705 350.73353 357.122 360.2235 365.453 370.6825 375.54899 382.7165 385.818 392.406 397.8255 404.024 409.64299 418.93849">Characteristics of the Five KingdomsCharacteristics of the Five Kingdoms</tspan><tspan y="-686.29556" x="237.2631 244.6206 251.2086 257.0176 261.4681 267.2771 272.5066 276.3776 281.6071 286.0576 289.1591 294.38859 298.25959 301.36109 306.59059 311.82008 316.68656 322.30555 325.59706 330.46354 334.33454 340.92256 346.15205 351.01853 357.407 360.5085 365.738 370.9675 375.83399 383.0015 386.103 392.691 398.1105 404.309 409.92799 419.22349 236.9781 244.3356 250.9236 256.7326 261.1831 266.9921 272.2216 276.0926 281.32209 285.77259 288.87409 294.10359 297.97459 301.07609 306.30558 311.53507 316.40156 322.02055 325.31205 330.17854 334.04954 340.63755 345.86705 350.73353 357.122 360.2235 365.453 370.6825 375.54899 382.7165 385.818 392.406 397.8255 404.024 409.64299 418.93849">Characteristics of the Five KingdomsCharacteristics of the Five Kingdoms</tspan><tspan y="-686.16256" x="237.1201 244.4776 251.0656 256.8746 261.3251 267.1341 272.3636 276.2346 281.46409 285.91459 289.01609 294.24559 298.11659 301.21809 306.44758 311.67707 316.54356 322.16255 325.45405 330.32054 334.19154 340.77955 346.00904 350.87553 357.264 360.3655 365.595 370.8245 375.69099 382.8585 385.96 392.548 397.9675 404.166 409.78498 419.08049">Characteristics of the Five Kingdoms</tspan></text>
<path transform="matrix(.24,0,0,-.24,42,270.95997)" stroke-width="4" stroke-linecap="butt" stroke-miterlimit="10" stroke-linejoin="miter" fill="none" stroke="#ffffff" d="M0 0H1972"/>
<g clip-path="url(#clip_7)">
<text xml:space="preserve" transform="matrix(1 0 -0 1 259.314 763.99978)" font-size="8" font-family="Arial"><tspan y="6.316" x="0"> </tspan></text>
</g>
</g>
</svg>
