<svg xmlns="http://www.w3.org/2000/svg" xmlns:xlink="http://www.w3.org/1999/xlink" xmlns:inkscape="http://www.inkscape.org/namespaces/inkscape" version="1.1" width="576" height="784.8" viewBox="0 0 576 784.8">
<defs>
<clipPath id="clip_2290">
<path transform="matrix(1,0,0,-1,-18,802.8)" d="M18 18H594V802.8H18Z" clip-rule="evenodd"/>
</clipPath>
<clipPath id="clip_2291">
<path transform="matrix(1,0,0,-1,259.314,763.99978)" d="M0-8H57.372V.800049H0Z"/>
</clipPath>
</defs>
<g clip-path="url(#clip_2290)">
<path transform="matrix(.24,0,0,-.24,-18,802.8)" d="M0 3035.83H2550V3372.7003H0Z" fill="#d1d3d4" fill-rule="evenodd"/>
<path transform="matrix(.24,0,0,-.24,-18,802.8)" d="M0 3078.33H2550V3420H0Z" fill="#e1ecb6" fill-rule="evenodd"/>
<path transform="matrix(.24,0,0,-.24,-18,802.8)" d="M2 2H2548V214.67H2Z" fill="#cbdf7f" fill-rule="evenodd"/>
<path transform="matrix(.24,0,0,-.24,-18,802.8)" stroke-width="4" stroke-linecap="butt" stroke-miterlimit="1000" stroke-linejoin="miter" fill="none" stroke="#cbdf7f" d="M2 2H2548V214.67H2Z"/>
<text fill="#231f20" xml:space="preserve" transform="matrix(1 0 -0 1 -18 802.8)" font-size="11" font-family="Bookman"><tspan y="-730.081" x="84">B</tspan></text>
<text fill="#231f20" xml:space="preserve" transform="matrix(1 0 -0 1 -18 802.8)" font-size="7.69999" font-family="Bookman"><tspan y="-730.081" x="92.16 94.60841 100.66811 105.15702 111.21672 117.27642 119.72483 125.314838 130.43514">IOLOGICAL</tspan></text>
<text fill="#231f20" xml:space="preserve" transform="matrix(1 0 -0 1 -18 802.8)" font-size="11" font-family="Bookman"><tspan y="-730.081" x="134.64 137.16902"> C</tspan></text>
<text fill="#231f20" xml:space="preserve" transform="matrix(1 0 -0 1 -18 802.8)" font-size="7.69999" font-family="Bookman"><tspan y="-730.081" x="145.2 149.6808 154.793 159.7512 164.70941 167.14972 171.94623 174.38654 179.96845 185.08065 189.72315 192.16345 198.21506">LASSIFICATION</tspan></text>
<path transform="matrix(.24,0,0,-.24,482.635,53.63501)" d="M0 0C7.32 7.32 16.16 10.98 26.52 10.98H97.35C107.71 10.98 116.55 7.32 123.87 0 131.19-7.32 134.85-16.16 134.85-26.52V-101.52C134.85-111.88 131.19-120.72 123.87-128.04 116.55-135.36 107.71-139.02 97.35-139.02H26.52C16.16-139.02 7.32-135.36 0-128.04-7.32-120.72-10.98-111.88-10.98-101.52V-26.52C-10.98-16.16-7.32-7.32 0 0" fill="#ffffff" fill-rule="evenodd"/>
<text fill="#231f20" xml:space="preserve" transform="matrix(1 0 -0 1 -18 802.8)" font-size="11" font-family="Bookman,Bold" font-weight="bold"><tspan y="-729.361" x="505.92 513.06">21</tspan></text>
<path transform="matrix(.24,0,0,-.24,579.6,.11999512)" stroke-width="1" stroke-linecap="butt" stroke-miterlimit="10" stroke-linejoin="miter" fill="none" stroke="#000000" d="M0 0H60"/>
<path transform="matrix(.24,0,0,-.24,576.12,-18)" stroke-width="1" stroke-linecap="butt" stroke-miterlimit="10" stroke-linejoin="miter" fill="none" stroke="#000000" d="M0 0V-60"/>
<path transform="matrix(.24,0,0,-.24,579.6,784.44)" stroke-width="1" stroke-linecap="butt" stroke-miterlimit="10" stroke-linejoin="miter" fill="none" stroke="#000000" d="M0 0H60"/>
<path transform="matrix(.24,0,0,-.24,576.12,788.16)" stroke-width="1" stroke-linecap="butt" stroke-miterlimit="10" stroke-linejoin="miter" fill="none" stroke="#000000" d="M0 0V-59"/>
<path transform="matrix(.24,0,0,-.24,-17.88,-18.23999)" stroke-width="1" stroke-linecap="butt" stroke-miterlimit="10" stroke-linejoin="miter" fill="none" stroke="#000000" d="M0 0V-75"/>
<path transform="matrix(.24,0,0,-.24,148,538.001)" d="M0 0C0 151.88 53.7 281.52 161.09 388.91 268.48 496.3 398.12 550 550 550 701.87 550 831.51 496.31 938.9 388.91 1046.3 281.52 1100 151.88 1100 0 1100-151.87 1046.3-281.51 938.9-388.9 831.51-496.3 701.87-550 550-550 398.12-550 268.48-496.3 161.09-388.9 53.7-281.51 0-151.87 0 0" fill="#fffde5" fill-rule="evenodd"/>
<text fill="#231f20" xml:space="preserve" transform="matrix(1 0 -0 1 -18 802.8)" font-size="10.5" font-family="Bookman"><tspan y="-439.2" x="96 102.1846 106.8677 112.4118 115.6597 121.2038 126.747898 131.431 137.1851 140.433 146.1871 152.1617 158.13629 164.75139 167.99929 174.61438 180.58898 183.78107 186.97316 194.22876 198.27136 201.46346 207.43805 214.48365 217.73154 220.92363 227.96923 234.58432 237.77642 243.32051 249.50511 253.54772 259.5223 264.2054 269.7495 272.9974 278.321 281.5689 285.6115 292.6571 298.2012 303.9553 307.2032 313.8183 319.7929 323.0408 330.0864 336.061 340.1036 343.3515 349.1056 353.7887 359.7633 368.0899 371.3378 374.5299 381.5755 384.8234 391.4385 397.41313 400.60523 403.79734 411.05296 415.09556 420.63966 427.25477 430.50267 436.68727 441.37037 446.91447 453.09907 458.64317">are very good pollution indicators &#x2013; they do not grow in polluted areas.</tspan></text>
<text fill="#00aeef" xml:space="preserve" transform="matrix(1 0 -0 1 -18 802.8)" font-size="13" font-family="Bookman,Bold" font-weight="bold"><tspan y="-410.64" x="278.88">S</tspan></text>
<text fill="#00aeef" xml:space="preserve" transform="matrix(1 0 -0 1 -18 802.8)" font-size="9.1" font-family="Bookman,Bold" font-weight="bold"><tspan y="-410.64" x="288 295.5205 304.315 313.1095 319.72 326.6945">UMMARY</tspan></text>
<text fill="#231f20" xml:space="preserve" transform="matrix(1 0 -0 1 -18 802.8)" font-size="10.5" font-family="Bookman"><tspan y="-382.32" x="96 103.7938 106.8836 112.7559 115.845699 121.717998 127.3698 130.4596 135.9014 141.9837 145.0735 147.787 153.2288 156.3186 162.40091 167.84272 173.28452 176.37432 179.67412 182.76392 188.20572 194.28803 198.22834 201.31813 207.19043 214.13373 216.84723 222.71953 226.01934 228.73284 235.24564 238.33544 244.41774 251.36104 255.30133 260.74314 263.45664 269.53895 276.48225 282.99504 285.70854 291.79084 298.73414 301.82395 311.75975 317.84205 320.93186 326.37367 329.08717 337.31147 343.39378 348.83558 351.54908 354.84889 357.9387 362.5195 367.9613 371.9016 374.6151 381.1279 385.7087 391.58103 398.0938 403.96614 409.40794 414.84974 421.36253 424.07603 430.5888 436.2406 438.9541 446.88 451.44673 454.52244 459.95014 463.87635 469.73457 473.66078 476.73649 482.16419 484.8636 490.7218">Biological classification of plants and animals was first proposed by Aristotle on</tspan><tspan y="-368.4" x="96 99.94201 106.88702 112.33053 115.322048 121.836559 127.92056 133.36408 136.45558 141.8991 144.89061 150.76462 154.06613 157.05765 162.50116 165.59267 175.53018 182.0447 185.1362 190.57971 193.57123 203.50875 209.38275 213.96526 220.47977 227.42478 233.29878 236.39029 242.2643 247.9178 251.00931 256.45283 262.53684 265.62837 268.61988 274.0634 281.0084 287.0924 291.67494 297.75895 303.20246 307.14448 312.58799 317.1705 322.614 325.91554 328.90705 335.20106 338.29258 345.23759 352.1826 358.2666 363.7101 370.8651 376.30863 379.30015 382.39167 388.47569 392.4177 397.8612 402.44374 405.43525 410.87876 413.97029 420.0543 425.4978 430.9413 434.03285 437.33436 440.42588 445.8694 452.38389 455.3754 461.4594 464.55094 467.64247 470.63398 473.7255 476.81703 482.26054 485.35206 492.29707">the basis of simple morphological characters. Linnaeus later classified all living</tspan><tspan y="-354.24" x="96 101.87151 106.45152 112.10253 118.184047 125.12656 128.21556 133.65657 143.59159 149.0326 152.8416 155.9306 162.87311 166.81262 172.68413 176.49314 180.43265 188.65616 194.52767 198.33667 204.84868 207.93769 214.88019 220.5312 227.04322 232.91472 242.84973 248.29074 252.09975 257.32026 261.12925 267.64128 270.7303 276.8118 283.7543 287.69383 293.77534 299.21635 303.02534 309.10685 316.04936 322.56138 326.37037 334.32 341.2669 344.36033 354.2997 360.38563 363.47904 366.57246 372.65837 375.96177 379.77516 389.92457 396.87147 399.96488 403.90879 407.8527 413.9386 420.455 425.9004 430.4848 434.2982 440.81459 445.399 451.2749 457.7913 463.66719 469.11259 474.55799 481.07438 484.88777 490.97367">organisms into two kingdoms &#x2013; Plantae and Animalia. Whittaker proposed an</tspan><tspan y="-340.31999" x="96 101.48001 104.608028 110.72854 117.27955 123.190059 127.80907 133.92958 137.9081 143.3881 148.42612 151.76413 154.89214 160.37215 165.85216 170.89017 177.44118 180.56919 187.55069 193.24069 199.7917 205.70221 215.67623 220.71424 226.19425 229.32225 235.44277 240.92278 246.40279 249.53079 252.8688 255.99681 261.4768 267.59733 271.57585 274.70387 280.61439 287.5959 292.63389 297.8934 302.9314 312.24 318.148 325.127 330.60453 335.22105 341.33906 344.67457 349.71006 356.25859 360.8751 366.7831 370.75914 373.88465 379.36216 383.33818 389.45619 392.7917 397.82719 403.44 410.637 417.624 423.3195 426.453 429.7965 434.84 441.39649 444.53 450.656 457.643 461.627 467.75303 473.23854 478.282 484.40803 491.39503">elaborate five kingdom classification &#x2013; Monera, Protista, Fungi, Plantae and</tspan><tspan y="-326.39997" x="96 104.16 111.08691 114.16031 124.07971 130.14562 133.21901 136.2924 142.3583 145.64171 148.0751 154.5715 161.4984 166.9238 169.3572 179.2766 185.3425 188.4159 195.34279 197.77619 203.20159 207.76599 210.83939 214.76329 220.18869 224.7531 227.82649 233.8924 236.32579 242.18169 245.46509 247.89849 251.82239 258.7493 264.1747 266.6081 269.89149 272.96488 278.3903 283.8157 286.24909 292.74549 295.81889 302.7458 308.3812 314.8776 320.7335 330.6529 333.08628 338.5117 341.58509 347.65098 353.0764 358.5018 361.5752 364.85859 367.93199 373.3574 379.42329 383.34718 386.42057 392.27647 399.20338 401.63676 409.84468 415.27009 419.83448 425.2599 427.69328 433.11869 438.5441 441.6175 444.6909 447.12428 452.54969 456.47358 461.03797 468.17488 473.60029 477.52418 484.66108 489.22547 494.65089">Animalia. The main criteria of the five kingdom classification were cell structure,</tspan><tspan y="-312.23997" x="96 102.73679 108.833087 115.56988 121.44567 126.66945 132.76573 137.57053 143.44632 149.75261 156.91989 160.23369 165.89948 172.20577 176.37006 179.68386 185.78014 192.94742 196.4712 201.69499 211.85478 217.95107 224.68785 230.35364 235.57743 241.6737 245.1975 250.42128 257.58857 264.96586 269.13014 273.9349 277.2487 281.41297 284.72676 290.82304 297.99034 303.2141 309.52043 316.6877 323.4245 328.6483 333.45307 339.11888 345.85566 350.66044 356.7567 363.4935 370.8708 376.5366 380.70088 384.01466 390.11094 397.27824 400.80204 406.02583 412.33213 419.49943 426.2362 431.46 438.19679 445.36408 451.23988 454.55366 460.64994 466.52574 472.19154 479.35884 485.02464 489.1889 492.5027">body organisation, mode of nutrition and reproduction, and phylogenetic</tspan><tspan y="-298.31996" x="96 100.3944 105.6498 108.5532 114.4491 118.202999 121.10639 126.79229 133.5492 138.8046 145.5615 148.46489 154.79129 160.04669">relationships.</tspan><tspan y="-284.39994" x="114 117.53931 124.512119 126.991428 130.96123 137.93404 143.40535 145.88466 149.21398 152.33329 157.8046 163.27591 165.75522 172.29753 175.41684 182.38965 188.07096 194.61327 200.51508 210.4804 212.9597 218.43102 221.55033 227.66214 233.13346 238.60477 241.72408 245.05339 248.1727 253.64402 259.75584 263.72566 266.84498 272.7468 279.7196 283.04893 285.52824 292.07054 298.18235 303.65367 307.62348 313.0948 317.7051 320.82444 326.93626 329.41557 335.52738 340.1377 345.609 348.08833 351.20765 358.18046 363.65177 366.7711 373.9539 380.4962 385.9675 392.5098 394.9891 398.10844 405.08125 407.56056 415.17387 418.29319 425.266 430.9473 437.4896 443.39143 453.35673 455.83604 465.58085 471.48268 478.45549 483.9268 488.5371 494.64894">In the five kingdom classification, bacteria are included in Kingdom Monera.</tspan><tspan y="-270.23994" x="96 103.5398 109.3681 114.5559 118.2422 123.43 127.7568 130.59259 136.4209 138.6167 144.445 148.7718 153.95961 156.15541 161.34322 166.96152 172.14933 181.83112 187.44942 193.70822 199.32653 202.16233 204.99813 208.68442 214.51273 221.20203 223.39783 226.23363 232.92293 235.11873 241.37754 244.21334 249.40114 253.08744 257.41426 260.25007 266.50886 273.40815 277.09446 279.93025 285.54853 292.23783 295.28364 297.47944 303.73823 310.42753 315.61534 320.80314 325.99095 328.18675 333.80503 338.13185 343.52964 349.35795 356.04725 358.88307 364.07087 373.75267 378.94047 381.13627 386.32408 393.01338 398.63166 406.60197 408.79777 412.48408 419.17338 424.36119 426.55699 436.23878 441.85707 447.04487 450.73118 452.92698 458.11479 463.73307 467.41938 472.60719 479.29649 484.48429 487.32008 492.50788">Bacteria are cosmopolitan in distribution. These organisms show the most extensive</tspan><tspan y="-256.31993" x="96 105.8565 111.219 115.08 121.083 127.5165 133.30951 136.32 139.3305 144.69301 147.0635 153.49701 156.5075 161.87001 167.23252 171.73401 177.09651 180.10701 183.96802 189.54051 192.76102 195.13152 202.84601 208.84902 214.21152 218.07251 223.43502 227.93651 230.947 236.95001 239.32051 249.17702 255.18003 260.75254 263.12303 269.55653 274.919 277.2895 283.29249 290.3665 294.22749 300.02049 303.88148 308.38298 314.17597 320.60948 327.47349 330.48399 335.84648 338.21696 344.00996 348.51145 350.88194 357.74595 363.10844 366.96943 372.3319 376.8334 382.6264 386.4874 390.9889 396.7819 403.2154 410.0794 413.0899 418.4524 420.82289 423.83338 430.6974 433.06788 436.92887 443.79289 449.15538 452.16587 456.66737 459.03785 468.89436 474.68736 481.12086 486.48335 488.85383 494.64683">metabolic diversity. Bacteria may be autotrophic or heterotrophic in their mode of</tspan><tspan y="-242.39992" x="96 103.1822 110.5744 114.7536 119.5733 122.902 127.0812 130.4099 136.5211 143.70331 147.242 152.4807 160.3034 163.63211 170.81432 176.70502 183.45671 189.56792 199.74262 204.98131 211.733 216.5527 222.66391 226.84311 230.17182 235.85251 240.03171 246.3529 251.5916 254.9203 262.1025 267.7832 271.1119 278.50413 285.25584 290.93653 296.61723 301.8559 308.1771 311.5058 314.8345 320.07319 325.75389 329.08259 336.26478 342.15547 345.48417 351.16487 355.56455 361.24525 366.92594 370.25465 373.58335 379.26405 386.01576 391.25444 396.93513 404.32734 411.07905 417.40025 422.21995 428.11064 434.22184 438.40104 444.08174 449.76243 455.0011 460.6818 468.074 473.7547 480.9369 486.17558 492.49678">nutrition. Kingdom Protista includes all single-celled eukaryotes such as</tspan><tspan y="-228.23992" x="96 103.62811 110.40572 114.82083 120.30694 125.583049 131.28966 137.63677 144.41437 149.90048 153.6751 158.9512 164.22731 167.36142 169.64553 177.91414 180.83824 187.61585 193.32245 196.45656 199.38066 205.29727 210.78339 216.0595 218.9836 221.9077 227.82431 231.59893 236.87503 242.15114 245.28525 247.56935 254.98746 261.97508 267.46119 270.38529 275.6614 282.43904 288.14564 291.06974 297.41685 302.69297 305.8271 308.1112 314.88883 317.81294 320.73704 330.50715 335.78327 339.77839 349.5485 355.2551 362.2427 365.1668 371.51393 376.79005 379.07417 384.99079 391.7684 398.1155 400.39964 406.74674 411.16184 416.86845 420.64305 426.34965 431.19526 436.90187 442.81849 449.5961 454.87223 458.00636 460.29048 466.63758 471.05268 476.75929 480.53388 483.45799 488.7341 492.5087">Chrysophytes, Dinoflagellates, Euglenoids, Slime-moulds and Protozoans. Protists</tspan><tspan y="-214.31992" x="96 103.04699 109.23298 114.77847 120.32396 123.48855 130.10504 135.65053 139.05402 142.24752 149.29451 154.84 161.45648 164.62107 171.66806 178.92505 184.47054 187.66403 193.20952 200.4665 206.012 209.17658 215.36257 222.40956 229.02605 232.19063 238.16663 242.21062 249.25762 254.8031 259.48759 262.6522 272.69169 278.23719 288.27668 294.89317 299.57765 305.76365 312.81065 318.35615 321.52076 328.13725 334.11323 341.3702 348.4172 355.0337 358.1983 364.1743 368.85877 374.61427 380.80027 387.84727 393.39277 396.58625 399.77973 405.32524 410.87074 414.27424 417.43885 424.05534 431.10234 436.64784 442.40333 445.56794 450.2524 455.7979 462.4144 467.09889 473.07487 479.69136 486.94834 492.49385">have defined nucleus and other membrane bound organelles. They reproduce</tspan><tspan y="-200.39992" x="96 102.597 108.5535 112.577999 119.60549 122.139499 128.306 133.832 139.358 145.3145 152.552 158.7185 161.8925 165.0665 170.80249 173.33649 179.50299 186.53049 193.12749 195.66149 201.18749 206.71349 212.66999 219.90749 226.07399 229.24799 232.42198 238.15799 241.54199 244.07599 253.87549 259.4015 269.42149 276.0185 281.5445 286.2095 291.7355 294.2695 300.226 303.61003 306.144 313.812 316.98603 324.01353 329.7495 336.34654 342.30305 352.32304 354.85704 361.66404 368.90153 375.92903 381.665 384.83903 387.37303 392.89903 399.9265 405.88304 414.19154 416.72554 422.89204 425.42604 431.16203 435.82704 441.35304 447.51954 451.54405 454.07804 460.67506 463.84907 469.37507 474.90107 479.56608 485.09208 488.26609 492.2906">both asexually and sexually. Members of Kingdom Fungi show a great diversity</tspan><tspan y="-186.23992" x="96 99.12571 106.10492 108.59063 114.06834 118.04455 122.661258 129.85047 135.32817 139.30438 146.49359 151.1103 156.58802 162.06572 164.55142 170.66963 177.64884 184.19754 186.68325 193.66245 199.78066 206.32936 209.45508 213.43129 219.5495 223.52571 226.86142 229.34712 239.09833 245.00653 250.48424 254.46045 256.94618 260.2819 267.4711 274.45033 280.13804 283.26374 285.74946 291.86769 296.48439 301.9621 304.4478 309.92555 316.04377 322.59248 327.20918 333.11738 339.66609 346.6453 352.333 356.3092 359.4349 364.91264 367.39836 370.52406 377.50328 379.98899 383.96519 390.9444 396.42213 399.54783 404.16453 406.65025 416.62196 422.53016 429.07887 434.55659 437.0423 442.9505 446.28623 448.77195 455.75117 462.94038 466.91658 471.53327 474.65898 478.63517 481.76087 487.66908 494.6483">in structures and habitat. Most fungi are saprophytic in their mode of nutrition.</tspan><tspan y="-172.31992" x="96 102.67989 109.79028 115.39917 121.21806 126.38494 131.99384 139.10422 145.1436 153.53499 158.70188 164.95127 170.56015 176.16904 182.20842 189.52881 195.7782 199.0351 204.20198 210.45137 217.56177 224.24166 229.40854 235.01743 240.62631 246.6657 253.98609 260.23548 263.49238 268.65925 273.40715 279.01603 285.69593 290.44383 296.48323 303.16313 310.48353 316.0924 320.1998 323.4567 329.4961 336.60649 340.07337 345.24024 351.92015 359.03053 364.8494 370.45829 376.49769 386.6006 392.41947 398.02836 403.63725 407.74464 413.35353 418.9624 422.4293 427.59617 434.91658 440.52546 446.13435 452.17375 462.2766 468.0955 473.70439 479.31327 483.42066 489.02955 494.63844">They show asexual and sexual reproduction. Phycomycetes, Ascomycetes,</tspan><tspan y="-158.39992" x="96 103.89909 110.086688 115.63377 118.828868 125.44695 128.64205 134.61963 144.66072 150.41782 155.9649 161.512 165.55759 171.10468 176.65177 179.62355 185.81114 192.85973 199.47782 202.4496 210.9892 216.53629 223.79488 227.84047 233.38756 238.07366 244.05124 254.09233 259.84944 265.3965 270.9436 274.9892 280.5363 286.08338 289.05519 295.24278 299.92887 305.47596 308.44776 312.49336 319.54194 325.08903 328.06083 331.4659 337.4435 344.7021 349.38819 352.36 357.90708 361.10218 367.28977 372.83686 378.38395 383.93104 389.47813 392.44993 399.7085 406.75709 413.37519 418.92228 423.60838 426.58018 430.62577 437.67436 440.86946 446.41654 449.38835 456.00645 459.20155 466.25013 472.0072 478.6253 484.6029 494.64399">Basidiomycetes and Deuteromycetes are the four classes under this kingdom.</tspan><tspan y="-144.23992" x="96 102.6175 109.6655 115.212 118.980808 125.598308 128.7928 134.9798 142.0278 146.0728 152.2598 157.80629 161.57509 164.76959 171.8176 177.36409 180.5586 187.81659 194.4341 199.98059 205.52709 209.29589 215.48288 218.67739 221.87189 225.64069 231.18718 238.44518 245.06269 251.24968 255.93518 261.69169 267.66868 271.71369 274.90818 280.45469 284.22349 289.77 296.818 300.01249 305.98948 310.67497 316.65196 323.26945 330.31745 336.07395 339.26844 342.46293 346.72843 352.27494 358.25193 365.29994 369.34495 375.53196 378.72645 385.77445 388.96894 396.01695 401.77345 405.54225 411.51924 416.2047 421.9612 428.14823 435.19624 438.39073 443.93724 453.97773 459.52424 462.92875 466.69755 473.95555 477.15003 482.90653 489.09355 494.64006">The plantae includes all eukaryotic chlorophyll-containing organisms. Algae,</tspan><tspan y="-130.31992" x="96 102.5619 107.191799 112.89269 118.814098 125.37599 132.3684 138.06929 142.05869 147.54959 153.0405 156.3894 158.8883 165.45021 169.4396 174.93051 179.56041 182.69931 189.26122 195.18262 201.74452 208.73693 214.43782 218.42722 223.91812 229.40903 232.75794 235.25684 240.95774 246.65863 256.64353 263.63594 269.5573 275.04823 281.6101 287.101 291.73094 301.71583 307.20674 309.70564 315.83705 322.82945 329.39134 331.89024 338.02165 345.01405 350.71495 353.85383 359.7752 365.2661 371.828 377.3189 381.94883 391.93373 397.42463 399.92353 406.05494 410.68486 416.17576 418.67466 421.81355 428.80595 434.29685 437.43574 444.63813 451.2 456.69093 463.2528 465.7517 468.8906 475.883 478.3819 482.3713 489.3637 492.5026">bryophytes, pteridophytes, gymnosperms and angiosperms are included in this</tspan><tspan y="-116.39992" x="96 101.7554 106.439807 112.4157 119.6726 126.289 129.6924 132.27759 138.89398 145.94089 151.48628 154.07147 157.26488 160.45829 163.86168 169.40708 171.99227 177.53766 183.29306 188.83846 192.03186 197.57726 200.16245 206.13835 209.54175 212.12694 218.74333 221.93674 228.12264 235.16954 239.21344 244.75884 247.34403 252.88942 258.86534 265.91224 269.10563 275.72203 278.9154 282.95933 285.54454 291.73045 294.92384 298.96775 304.51316 309.19755 316.24446 322.43037 326.47428 329.66767 335.64356 342.69047 345.27568 351.25157 354.65498 357.24018 362.99559 368.541 375.5879 381.1333 385.8177 392.0036 396.04753 399.2409 405.2168 412.2637 417.8091 420.39433 425.7192 428.3044 434.0598 440.24574 450.28514 455.83055 459.87446 465.85035 472.46675 479.51365 485.26905 489.31297 492.50636">group. The life cycle of plants exhibit alternation of generations &#x2013; gametophytic</tspan><tspan y="-102.239917" x="96 102.36499 109.59098 116.386478 121.66895 127.39344 134.18894 140.34392 145.20742 151.3624 158.15789 165.38387 171.31836 175.54135 178.91385 184.63834 189.92082 195.85532 201.5798 208.80579 214.53028 219.39377 225.75876 229.98175 233.35425 239.50923 246.73522 252.4597 256.0422 261.32469 268.12019 275.34617 281.07066 286.35313 293.5791 299.3036 303.52659 309.25108 314.11457 320.26957 324.49256 329.35606 335.51106 342.30656 349.53254 352.90504 358.62953 363.912 369.63648 377.07249 383.86799 390.23298 395.09648 401.03096 407.18595 411.40895 414.78144 420.50593 424.0884 429.37089 439.58937 447.02537 450.39787 454.62086 457.99336 463.71784 469.44233 472.81483 476.18733 483.62333 486.99583 493.3608">and sporophytic generations. The heterotrophic eukaryotic, multicellular</tspan><tspan y="-88.319919" x="96 101.86951 106.44752 112.09653 118.17604 125.11655 128.20355 133.64257 143.57558 149.01459 151.4616 154.5486 160.62812 166.06713 172.57714 175.66414 182.60465 188.25366 190.70067 196.78018 199.22719 204.6662 210.10521 213.19222 216.27922 218.72623 226.94774 233.02725 236.11426 239.20127 241.64827 247.72779 252.30579 257.74479 260.19178 263.27879 270.2193 275.6583 278.7453 285.8958 292.40583 297.84483 304.35484 306.80183 309.88883 316.82936 319.27635 323.21385 330.15437 335.59336 338.04035 345.62138 348.70838 355.6489 361.2979 367.80793 373.67744 383.61045 386.05744 393.20796 400.14848 403.23548 413.1685 419.248 422.335 425.422 431.5015 434.7985 437.24549 443.7555 450.696 456.135 458.582 468.515 474.38453 480.89454 486.33354 488.78053 494.65003">organisms lacking a cell wall are included in the Kingdom Animalia. The mode of</tspan><tspan y="-689.9999" x="60 66.1132 73.087398 79.631099 82.11179 87.584499 93.0572 96.177898 103.15209 105.63279 111.10549 114.22619 119.69889 125.81209 130.42378 133.54448 140.51868 146.20137 149.53208 152.01277 158.55648 166.81168 172.92488 177.53658 180.86728 183.98798 190.96218 196.64487 199.12557 201.60626 207.71947 214.69367 221.23737 223.71807 229.19077 233.16197 240.34618 247.32038 251.29158 256.76429 263.30799 265.78868 271.47138 276.08308 281.98628 290.24147 294.21266 301.18687">and vein clearing, dwarfing  and stunted growth.</tspan></text>
<text fill="#231f20" xml:space="preserve" transform="matrix(1 0 -0 1 -18 802.8)" font-size="10.5" font-family="Bookman,Bold" font-weight="bold"><tspan y="-676.5599" x="60 67.76891 71.33782 76.37673 82.675647 86.24455 93.17346 99.05237 102.78127">Viroids :</tspan></text>
<text fill="#231f20" xml:space="preserve" transform="matrix(1 0 -0 1 -18 802.8)" font-size="10.5" font-family="Bookman"><tspan y="-676.5599" x="106.56 109.9192 113.53339 120.58108 123.94028 130.55747 137.17465 143.79184 150.40903 153.81322 157.17243 163.78961 167.1938 175.7325 179.13669 182.4959 191.03459 194.22878 199.77497 206.82265 212.36884 217.05403 220.41324 227.03043 230.22461 235.7708 241.31699 247.29367 252.83986 258.38606 263.07124 268.61744 275.23463 278.5938 284.7805 288.1397 295.1874 300.7336 309.06233 312.4215 315.6157 322.6634 326.06758 331.61378 337.15998 341.20466 344.39884 350.37553 357.6332 363.1794 366.53865 372.7253 378.4815 384.0277 391.0754 395.1201 398.4793 402.524 409.5717 415.75837"> In 1971, T.O. Diener discovered a new infectious agent that</tspan><tspan y="-663.35989" x="59.999998 68.1454 74.1488 79.5117 81.88261 87.24551 97.10241 103.10581 106.116718 109.12762 114.49052 118.99242 121.36332 125.22472 132.08911 138.09252 144.95691 147.3278 152.6907 155.7016 160.2035 167.27791 172.64081 178.00371 183.36661 185.7375 191.7409 198.6053 205.0392 207.4101 212.773 218.7764 225.8508 231.2137 236.5766 243.0105 245.3814 251.81529 257.6087 261.4701 267.47349 271.33488 277.12828 279.49916 284.86207 291.29597 294.30686 301.17127 307.60517 310.61607 315.97898 318.34986 322.21125 329.28565 335.71955 341.08247 345.58436 347.95524 354.38914 357.40003 362.76295 368.12586 374.12925 379.49217 384.85508 388.07597 390.44685 393.87776 397.73915 400.11003 408.25544 414.25883">was smaller than viruses and caused potato spindle tuber disease. It was</tspan><tspan y="-650.15988" x="59.999998 63.265607 69.103717 76.222827 83.131938 89.61054 92.02615 95.93227 101.77038 104.18599 110.6646 116.072208 118.487819 124.53593 126.95154 130.21715 134.76377 140.17137 145.57898 147.99459 155.54419 163.3038 170.42292 173.68852 176.10413 179.15973 183.06584 185.48145 188.53705 194.58516 199.99277 206.47138 211.87899 218.35759 220.7732 224.6793 231.58841 236.99602 239.41162 245.89023 250.43685 256.27497 260.18107 265.58869 268.6443 275.5534 277.96903 283.37666 289.21476 295.26286 299.16896 301.58457 305.49067 312.39979 318.44789 322.35398 324.7696 327.8252 333.23283 335.64845 338.91407 344.75218 351.87129 358.7804 365.259 367.67463 370.73023 377.63935 380.05497 385.4626 388.5182 393.0648 400.1839 405.59153 410.99916 416.40678">found to be a free RNA; it lacked the protein coat that is found in viruses,</tspan><tspan y="-636.71987" x="59.999998 66.834 72.1665 79.000499 84.33299 89.66549 92.00599 95.83699 102.67099 108.00349 110.34399 117.177989 123.150989 132.97748 138.30998 140.65048 145.98299 148.96349 153.43498 159.19799 162.17848 168.58199 171.77249 174.11299 180.5165 187.3505 192.683 195.0235 202.498 210.1825 217.2265 219.567 225.33 228.52051 230.86101 234.692 241.526 246.8585 249.199 254.53151 257.51203 261.98353 267.74653 270.72703 277.13053 279.471 287.586 293.559 298.89149 301.23197 306.99497 310.18547 312.52595 315.50645 321.26945 329.38444 331.7249 341.55143 347.31443 350.29493 355.6274 360.9599 368.0039 370.9844 376.9574 381.4289 383.76939 391.88438 397.21687 400.19737 405.73988 412.57386 416.40486">hence the name viroid. The RNA of the viroid was of low molecular weight.</tspan></text>
<text fill="#231f20" xml:space="preserve" transform="matrix(1 0 -0 1 -18 802.8)" font-size="10.5" font-family="Bookman,Bold" font-weight="bold"><tspan y="-623.51986" x="59.999998 66.9231 71.956218 75.519329 81.81244 89.15555 95.028659 98.70177">Prions :</tspan></text>
<text fill="#231f20" xml:space="preserve" transform="matrix(1 0 -0 1 -18 802.8)" font-size="10.5" font-family="Bookman"><tspan y="-623.51986" x="102.47499 105.83999 109.49769 116.58889 119.93659 130.0203 136.0405 142.7012 148.29091 153.0196 160.11081 163.4585 173.54219 179.1319 185.7926 189.0303 194.62001 197.85771 204.94892 210.53862 213.8863 219.47602 225.06572 229.79442 233.88262 240.11281 243.35051 250.44171 253.7894 257.0271 264.1183 267.56599 273.15568 278.74537 282.83357 286.07127 292.09147 299.39268 304.98237 308.33006 315.42124 321.01094 328.31214 333.04084 339.06105 342.29875 348.31895 354.11866 357.35636 362.94606 369.17625 372.41395 375.76164 382.42234 385.66004 391.24974 396.83943 403.0696 408.6593 414.249"> In modern medicine certain infectious neurological diseases</tspan><tspan y="-610.07986" x="59.99999 68.1514 73.52031 78.02822 83.39713 85.77405 89.00096 94.80037 101.88078 108.75119 115.1911 117.568019 121.435428 127.23483 129.61174 136.05165 141.42057 143.79747 147.66489 152.17279 158.1822 165.05261 170.42153 180.28444 183.30135 187.16876 191.03618 196.40509 202.845 205.22191 211.66182 217.24073 219.61763 225.62705 232.49745 234.87436 240.88378 246.46268 251.83159 258.702 262.5694 264.9463 270.3152 276.1146 282.98503 288.3539 291.37083 296.73973 300.60713 303.62403 310.49446 316.07337 318.45027 324.24967 327.47657 329.85346 335.86286 342.30278 349.1732 354.9726 359.4805 369.3434 375.3528 378.36973 381.38664 386.96556 389.34245 392.56935 398.36875 401.38566 407.82557 413.19447">were found to be transmitted by an agent consisting of abnormally folded</tspan><tspan y="-596.8798" x="59.99999 66.4217 70.91141 76.69262 80.54183 85.89254 88.89125 95.74346 98.95217 101.31088 107.73259 114.5848 119.93551 122.29422 128.28543 133.84615 139.19686 146.04906 149.89827 152.25698 160.39019 166.3814 171.7321 174.0908 179.44152 182.44022 192.28493 195.28363 198.28234 204.27355 208.76326 211.12197 214.12067 220.97287 223.33158 228.68228 231.68099 236.6012 241.9519 244.31061 248.15982 253.94103 256.29975 261.65046 264.64918 269.1389 276.2011 281.55183 286.90254 292.25325 295.46195 297.82066 304.24238 311.09458 316.44529 321.796 327.1467 329.5054 335.4966 341.0573 346.40803 353.26023 357.10945 362.46015 364.81886 372.95207 378.30278 382.79249 388.1432 390.5019 395.8526 401.8438 404.84254 407.84126 413.19197">protein. The agent was similar in size to viruses. These agents were called</tspan><tspan y="-583.4398" x="59.99999 66.3341 70.736209 73.647319 79.34093 86.10554 91.368648 94.48975 96.760868 103.09498 109.85959 115.122699 117.39381 127.15092 132.84453 138.10764 141.86925 144.14035 150.90496 156.59856 160.36017 166.26378 172.59789 175.509 180.77211 183.04322 189.37732 192.28844 197.55155 202.81465 208.71826 213.98137 219.24448 224.50759 226.77869 232.0418 237.9454 244.92002 250.18312 255.44623 261.78034 264.05146 270.38557 275.85868 278.1298 284.4639 288.866 291.7771 297.4707 304.23533 309.49845 311.76957 317.6732 322.0753 327.3384 329.60954 335.94364 341.63725 346.90037 349.81147 356.57609 361.8392 364.11033 369.37345 375.70756 381.40116 388.16578 393.6389 396.55 399.6711 405.36473 409.7668">prions. The most notable diseases caused by prions are bovine spongiform</tspan><tspan y="-570.2398" x="59.99999 65.50029 72.50209 78.00239 83.502689 90.07399 97.07579 103.21659 106.36489 112.29569 118.86699 125.00779 129.00659 136.00839 141.71869 144.22699 147.37529 155.22759 162.22939 169.87169 173.01999 175.52829 181.0286 186.9594 196.95369 206.94799 212.87879 219.88059 223.02889 228.73918 231.24748 236.74779 242.88858 246.03688 249.18518 254.68549 261.25679 263.76509 266.27339 268.78169 278.77598 284.91679 291.48808 293.99638 299.49668 305.42747 313.71028 316.21858 322.78987 325.93818 331.43849 336.93879 343.0796 348.5799 354.0802 356.5885 359.73683 366.73863 369.24693 374.74723 380.88804 384.88685 388.88566 392.03395 397.53425 400.04255 406.18336 413.18516">encephalopathy (BSE) commonly called   mad cow disease in cattle and</tspan><tspan y="-557.0398" x="59.99999 63.23628 67.32307 72.911357 75.82914 82.05793 89.14772 95.37651 98.6128 104.63159 110.429889 116.44868 123.74847 129.33676 132.25455 137.84284 144.07163 148.79892 152.03522 158.264 165.35379 169.44058 172.35837 179.99999 184.73169 190.32439 197.62859 201.71979 206.88199 210.33269 215.92539 219.16609 225.82979 229.92099 235.29319 241.19998 247.43088 253.02127 259.04219 265.70359 268.62348 275.28489 278.5233 284.11369 289.70408 295.93498 301.52537 307.11576 310.03565 313.27406 321.21647 327.83998 335.75999 339.00239 341.92628 345.16868 352.26457 355.18846 362.28434 369.5902 379.6786 385.91349 393.00938 398.60377">its analogous variant Creutzfeldt&#x2013;Jacob disease (CJD) in humans.</tspan></text>
<text fill="#231f20" xml:space="preserve" transform="matrix(1 0 -0 1 -18 802.8)" font-size="10.5" font-family="Bookman,Bold" font-weight="bold"><tspan y="-543.5998" x="59.99997 66.83906 70.528148 76.52724 83.99633 89.99542 97.464519 103.46361 109.2626">Lichens :</tspan></text>
<text fill="#231f20" xml:space="preserve" transform="matrix(1 0 -0 1 -18 802.8)" font-size="10.5" font-family="Bookman"><tspan y="-543.5998" x="113.03997 118.24765 124.74784 128.04553 133.69522 140.8464 146.4961 153.64728 159.29697 164.50466 170.79485 175.58354 181.23323 186.44092 192.0906 197.9503 208.094 214.81468 218.11237 224.19255 228.34075 231.63843 237.28812 242.4958 248.786 254.43569 260.0854 266.1656 271.81529 275.11299 281.40318 285.55137 288.84907 294.92927 302.08045 307.73014 312.9378 316.2355 319.7432 325.39289 328.90058 334.10826 344.25193 351.6131 355.7613 363.12248 369.41267 372.71037 376.00807 381.86775 387.0754 394.43659 400.08628 405.73597 409.24366 416.60484"> Lichens are symbiotic associations i.e. mutually useful</tspan><tspan y="-530.3998" x="59.99997 66.04667 71.452869 76.85906 82.69576 88.10196 91.15616 97.20286 101.10756 104.16176 109.99846 116.90616 122.312358 125.57655 127.99076 134.46796 139.87416 143.77886 151.96756 157.37377 162.77997 169.68767 172.10187 178.14858 181.20278 186.81897 192.86568 198.27188 200.68608 206.73279 213.64049 220.11769 222.53189 225.7961 232.9138 239.8215 245.4377 248.4919 251.7561 254.1703 260.6475 267.55519 272.96138 275.37556 281.42225 284.47645 290.09266 296.13935 299.19355 301.60774 307.01393 312.85063 322.75083 329.22804 335.06474 341.9724 347.3786 354.28633 358.191 360.6052 363.6594 369.06559 371.47978 377.95698 384.8647 390.7014 398.89009 405.7978 408.21199 414.25868">associations, between algae and fungi. The algal component is known as</tspan></text>
<text fill="#231f20" xml:space="preserve" transform="matrix(1 0 -0 1 -18 802.8)" font-size="10.5" font-family="Bookman,Bold" font-weight="bold"><tspan y="-516.9598" x="59.99997 66.72708 73.87419 79.7613 85.43841 91.535518 98.26263 101.62974 107.726848 114.873958">phycobiont</tspan></text>
<text fill="#231f20" xml:space="preserve" transform="matrix(1 0 -0 1 -18 802.8)" font-size="10.5" font-family="Bookman"><tspan y="-516.9598" x="119.03997 121.39797 127.38847 134.23998 140.66098 143.01897 146.22696 153.28845 160.13996 165.69995 171.69045 174.68845 177.04644 182.39644 188.17694 198.02094 204.44194 210.22245 217.07395 222.42395 229.27545 233.12395 235.48194 241.47243 246.82244"> and fungal component as </tspan></text>
<text fill="#231f20" xml:space="preserve" transform="matrix(1 0 -0 1 -18 802.8)" font-size="10.5" font-family="Bookman,Bold" font-weight="bold"><tspan y="-516.9598" x="249.11997 259.20356 265.08717 270.76078 276.85438 283.57798 286.94157 293.03517 300.17878 304.3824">mycobiont,</tspan></text>
<text fill="#231f20" xml:space="preserve" transform="matrix(1 0 -0 1 -18 802.8)" font-size="10.5" font-family="Bookman"><tspan y="-516.9598" x="307.91996 310.28526 318.42506 325.28385 328.28916 333.64646 340.50526 342.87055 348.86836 353.36466 358.72196 361.08726 367.08506 374.15385 378.00965 383.79747 387.65327 392.14958 397.93739 404.3657 411.2245 414.2298"> which are autotrophic</tspan><tspan y="-503.75978" x="59.999956 66.18516 73.23135 79.84705 82.67756 89.723758 95.268459 99.31165 104.85635 109.540058 115.51525 119.55845 124.24215 130.21735 136.83306 143.87926 147.07196 152.61666 156.01935 158.84984 163.53354 169.07823 174.62293 181.23863 186.78333 192.32802 196.37122 199.56392 205.10861 210.6533 213.84601 219.60071 223.0034 225.8339 233.09009 236.28279 242.03749 248.22269 253.76738 256.59788 263.21357 267.89726 273.44197 280.05766 286.24287 290.92655 296.47126 299.30177 302.70448 308.67967 314.65486 321.27055 324.10105 327.50376 333.47895 338.16264 340.99314 344.39585 351.65205 358.69825 364.45295 367.64564 370.47615 376.66136 383.70756 390.32325 393.15376 396.55647 403.81266 410.85887 416.61357">and heterotrophic, respectively. Algae prepare food for fungi and fungi</tspan><tspan y="-490.55976" x="59.999956 66.62005 71.308139 77.28773 82.836818 86.033908 92.654 98.20309 100.78519 106.334278 113.384868 118.93395 122.13104 126.178638 131.72772 136.41582 138.99791 145.1875 152.23809 158.85817 161.44026 167.62985 174.24994 179.79903 185.77861 190.4667 197.08679 199.66889 209.71198 212.90906 219.95964 225.50873 230.19683 236.38642 239.5835 242.16559 249.21617 256.47679 260.52436 265.21244 268.40953 273.95863 281.00923 285.0568 290.6059 293.18803 299.37763 306.42823 313.0483 315.63044 323.96205 330.15165 334.19923 339.74833 344.4364 347.01853 350.42564 356.4052 361.0933 363.6754 366.8725 370.92008 376.46919 379.0513 385.6714 391.861 396.54908 400.59666 407.64726 413.19636 416.39997">provide shelter and absorb mineral nutrients and water for its partner.</tspan><tspan y="-477.11976" x="59.99997 66.968769 72.86656 75.341869 80.809169 83.92447 89.822269 95.289569 100.75687 103.23217 106.34747 111.81477 114.29008 118.255878 125.22467 130.69197 133.80727 138.41356 140.88886 146.99666 152.46396 157.93126 163.82906 169.29636 172.41165 178.51946 182.48526 185.60056 191.49835 198.46715 200.94245 204.90825 211.87705 217.98485 221.95066 224.42595 227.54125 230.86655 233.34185 239.23964 246.20844 251.67574 254.15103 259.61833 265.7261 273.9759 276.45118 282.55897 285.03425 288.14955 291.26484 296.73213 303.70094 309.1682 316.13703 318.6123 321.7276 328.6964 331.1717 338.1405 344.2483 348.21409 355.39289 359.99919 365.46647 367.94175 373.83955 380.80836 386.27565 388.75093 397.0007 402.8985 410.0773 413.1926">So close is their association that if one saw a lichen in nature one would</tspan><tspan y="-463.91975" x="59.99997 66.765979 72.03049 77.295 82.55951 86.96302 89.235538 92.14805 101.906558 107.81157 113.28608 116.19859 122.9646 128.22911 130.50162 134.26464 141.03064 146.93566 150.69867 152.97118 156.73419 163.5002 168.76471 174.23923 176.51174 183.27774 189.18276 195.51827 197.79077 201.55379 209.6008 215.2958 217.56832 223.90383 226.81633 229.93885 233.06136 238.32587 242.72937 247.99388 254.75989 258.5229 260.79539 266.4904 270.8939 276.3684 282.2734 289.03944 291.95195 297.21644 306.97496 312.23945 314.51194 322.55894 325.47145 329.23445 336.00047 338.91297 345.679 347.95149 351.71449 358.4805 363.745 373.5035 376.626 378.8985 381.171 387.286 390.19853 395.463 402.22904 407.49354 414.25956">never imagine that they had two different organisms within them.  Lichens</tspan></text>
<g clip-path="url(#clip_2291)">
<text xml:space="preserve" transform="matrix(1 0 -0 1 259.314 763.99978)" font-size="8" font-family="Arial"><tspan y="6.316" x="0"> </tspan></text>
</g>
</g>
</svg>
