<svg xmlns="http://www.w3.org/2000/svg" xmlns:xlink="http://www.w3.org/1999/xlink" xmlns:inkscape="http://www.inkscape.org/namespaces/inkscape" version="1.1" width="576" height="784.8" viewBox="0 0 576 784.8">
<defs>
<clipPath id="clip_2104">
<path transform="matrix(1,0,0,-1,-18,802.8)" d="M18 18H594V802.8H18Z" clip-rule="evenodd"/>
</clipPath>
<clipPath id="clip_2105">
<path transform="matrix(.24,0,0,-.24,-18,802.8)" d="M612 1924H1387V2003H612Z"/>
</clipPath>
<clipPath id="clip_2106">
<path transform="matrix(1,0,0,-1,259.314,763.9998)" d="M0-8H57.372V.800049H0Z"/>
</clipPath>
</defs>
<g>
<g clip-path="url(#clip_2104)">
<path transform="matrix(.24,0,0,-.24,-18,802.8)" d="M0 3035.83H2550V3372.705H0Z" fill="#d1d3d4" fill-rule="evenodd"/>
<path transform="matrix(.24,0,0,-.24,-18,802.8)" d="M0 3078.33H2550V3419.998H0Z" fill="#e1ecb6" fill-rule="evenodd"/>
<text fill="#231f20" xml:space="preserve" transform="matrix(1 0 -0 1 -18 802.8)" font-size="11" font-family="Bookman"><tspan y="-730.081" x="84">P</tspan></text>
<text fill="#231f20" xml:space="preserve" transform="matrix(1 0 -0 1 -18 802.8)" font-size="7.7" font-family="Bookman"><tspan y="-730.081" x="90.72 96.8435 102.966999 107.6814 113.80489 118.83499 123.70339 129.3572 134.0716 140.1951 145.6949 150.725 153.23722">HOTOSYNTHESIS</tspan></text>
<text fill="#231f20" xml:space="preserve" transform="matrix(1 0 -0 1 -18 802.8)" font-size="11" font-family="Bookman"><tspan y="-730.081" x="158.4"> </tspan></text>
<text fill="#231f20" xml:space="preserve" transform="matrix(1 0 -0 1 -18 802.8)" font-size="7.7" font-family="Bookman"><tspan y="-730.081" x="160.79999 163.41039">IN</tspan></text>
<text fill="#231f20" xml:space="preserve" transform="matrix(1 0 -0 1 -18 802.8)" font-size="11" font-family="Bookman"><tspan y="-730.081" x="168.95999 171.5378"> H</tspan></text>
<text fill="#231f20" xml:space="preserve" transform="matrix(1 0 -0 1 -18 802.8)" font-size="7.7" font-family="Bookman"><tspan y="-730.081" x="180.48 182.9987 189.12871 195.25872 200.76502">IGHER</tspan></text>
<text fill="#231f20" xml:space="preserve" transform="matrix(1 0 -0 1 -18 802.8)" font-size="11" font-family="Bookman"><tspan y="-730.081" x="206.16 208.5915"> P</tspan></text>
<text fill="#231f20" xml:space="preserve" transform="matrix(1 0 -0 1 -18 802.8)" font-size="7.7" font-family="Bookman"><tspan y="-730.081" x="215.52 220.0553 225.222 230.8584 235.5554">LANTS</tspan></text>
<path transform="matrix(.24,0,0,-.24,482.6352,53.635194)" d="M0 0C7.32 7.32 16.16 10.98 26.52 10.98H97.35C107.71 10.98 116.55 7.32 123.87 0 131.19-7.32 134.85-16.16 134.85-26.52V-101.52C134.85-111.88 131.19-120.72 123.87-128.04 116.55-135.36 107.71-139.02 97.35-139.02H26.52C16.16-139.02 7.32-135.36 0-128.04-7.32-120.72-10.98-111.88-10.98-101.52V-26.52C-10.98-16.16-7.32-7.32 0 0" fill="#ffffff" fill-rule="evenodd"/>
<text fill="#231f20" xml:space="preserve" transform="matrix(1 0 -0 1 -18 802.8)" font-size="11" font-family="Bookman,Bold" font-weight="bold"><tspan y="-729.361" x="505.92 513.21 520.5">147</tspan></text>
<path transform="matrix(.24,0,0,-.24,-18,802.8)" d="M2 2H2548V214.668H2Z" fill="#cbdf7f" fill-rule="evenodd"/>
<path transform="matrix(.24,0,0,-.24,-18,802.8)" stroke-width="4" stroke-linecap="butt" stroke-miterlimit="1000" stroke-linejoin="miter" fill="none" stroke="#cbdf7f" d="M2 2H2548V214.668H2Z"/>
<path transform="matrix(.24,0,0,-.24,579.6,.11999512)" stroke-width="1" stroke-linecap="butt" stroke-miterlimit="10" stroke-linejoin="miter" fill="none" stroke="#000000" d="M0 0H60"/>
<path transform="matrix(.24,0,0,-.24,576.12,-18)" stroke-width="1" stroke-linecap="butt" stroke-miterlimit="10" stroke-linejoin="miter" fill="none" stroke="#000000" d="M0 0V-60"/>
<path transform="matrix(.24,0,0,-.24,579.6,784.44)" stroke-width="1" stroke-linecap="butt" stroke-miterlimit="10" stroke-linejoin="miter" fill="none" stroke="#000000" d="M0 0H60"/>
<path transform="matrix(.24,0,0,-.24,576.12,788.16)" stroke-width="1" stroke-linecap="butt" stroke-miterlimit="10" stroke-linejoin="miter" fill="none" stroke="#000000" d="M0 0V-59"/>
<path transform="matrix(.24,0,0,-.24,-17.88,-18.23999)" stroke-width="1" stroke-linecap="butt" stroke-miterlimit="10" stroke-linejoin="miter" fill="none" stroke="#000000" d="M0 0V-75"/>
<path transform="matrix(.24,0,0,-.24,-18,802.8)" d="M250 1924.17H1749.17V2020.0021H250Z" fill="#fffac2" fill-rule="evenodd"/>
<text fill="#231f20" xml:space="preserve" transform="matrix(1 0 -0 1 -18 802.8)" font-size="10.5" font-family="Bookman"><tspan y="-689.521" x="60 64.8283 68.1656 73.854907 81.0457 86.293 89.6303 96.821109 102.068408 108.39821 115.589008 120.8363 126.525608 133.7164 138.9752 144.87451 155.05782 160.74712 165.84 173.76419 177.1944 184.04759 191.54129 194.9715 201.1842 206.9664 212.7486 218.08879 224.94199 228.3722 234.15439 241.00759 248.29129 254.504 260.2862 267.1394 274.4231 280.8458 285.1265 290.9087 296.2489 302.0311 308.4538 313.375 320.2282 326.44093 332.65364 338.6458 342.07603 348.49873 354.2809 360.0631 364.5643 370.777 376.98973 382.9819 388.9741 394.7563 402.03999 408.46269 414.24488">rich in an enzyme Ribulose bisphosphate carboxylase-oxygenase</tspan></text>
<text fill="#231f20" xml:space="preserve" transform="matrix(1 0 -0 1 -18 802.8)" font-size="10.5" font-family="Bookman,Bold" font-weight="bold"><tspan y="-675.361" x="60 63.6 71.5805 79.141 87.3315 90.902 96.7825 104.973 113.7935">(RuBisCO)</tspan></text>
<text fill="#231f20" xml:space="preserve" transform="matrix(1 0 -0 1 -18 802.8)" font-size="10.5" font-family="Bookman"><tspan y="-675.361" x="117.119998 120.5142 123.0584 129.6656 136.9133 140.948 143.49219 146.67639 152.85309 158.38928 164.99649 167.54068 174.14789 181.8261 188.43329 193.96949 200.14618 205.68238 211.21857 214.61277 217.15695 219.70114 226.30835 233.34606 240.59375 246.12995 249.52414 252.06833 256.10304 263.14073 268.6769 271.2211 277.8283 284.005 289.5412 292.7254 298.2616 300.8058 307.413 313.5897 317.6244 324.66209 332.98078 339.15748 344.90367 347.44786 351.48255 358.52024 364.69694 368.73164 371.27583 375.95103 381.4872 387.0234 394.27113 397.45533 401.49003 407.0262 409.5704 412.7546">, but lack PEPcase.  Thus, the basic pathway that results in</tspan><tspan y="-661.681" x="59.999998 63.849996 70.702999 76.0545 78.414 81.623508 87.4055 91.896 101.7415 107.733509 111.5835 114.58301 120.365009 127.218 129.5775 135.3595 138.569 140.9285 144.7785 151.6315 156.983 159.3425 164.694 171.757 177.3185 183.3105 187.801 193.1525 196.362 198.7215 202.5715 209.4245 214.776 217.1355 224.839 230.83101 233.8305 239.182 242.1815 249.0345 251.394 257.8165 263.8085 267.6585 274.5115 282.6455 288.6375 294.199 297.4085 299.768 302.76753 308.11903 310.47853 315.83003 321.61204 331.45753 341.303 347.08503 353.93803 356.29753 360.14753 365.92955 368.28904 372.13905 378.99205 384.34355 386.70304">the formation of the sugars, the Calvin pathway, is common to the C</tspan></text>
<text fill="#231f20" xml:space="preserve" transform="matrix(1 0 -0 1 -18 802.8)" font-size="6.1" font-family="Bookman"><tspan y="-658.32107" x="394.32">3</tspan></text>
<text fill="#231f20" xml:space="preserve" transform="matrix(1 0 -0 1 -18 802.8)" font-size="10.5" font-family="Bookman"><tspan y="-661.681" x="397.92 400.2872 406.2869 413.14759"> and</tspan><tspan y="-648.241" x="60">C</tspan></text>
<text fill="#231f20" xml:space="preserve" transform="matrix(1 0 -0 1 -18 802.8)" font-size="6.1" font-family="Bookman"><tspan y="-644.88107" x="67.68">4</tspan></text>
<text fill="#231f20" xml:space="preserve" transform="matrix(1 0 -0 1 -18 802.8)" font-size="10.5" font-family="Bookman"><tspan y="-648.241" x="71.52 73.876 80.295 83.291 89.2795 96.129009 99.9755 105.3235"> plants.</tspan><tspan y="-634.801" x="78 86.539 89.733509 96.351009 99.96001 105.71651 111.693508 118.95151 122.56051 129.6085 135.58551 139.63051 145.177 148.786 152.831 159.879 166.066 170.111 173.71999 177.76499 184.81299 190.35948 193.96848 201.86698 208.05397 211.24848 216.79497 219.98947 227.03748 230.64647 237.26398 243.45098 247.49597 254.54398 262.873 269.06 274.8165 278.4255 284.4025 289.949 295.4955 302.7535 307.439 312.9855 316.5945 319.789 326.837 330.446 336.63304 339.8275 343.022 346.631 350.67604 357.72404 363.27055 366.87956 376.92005 382.46656 388.01307 393.99006 400.60755 407.65556 413.41206 416.60655">Did you note that the Calvin pathway occurs in all the mesophyll</tspan><tspan y="-621.361" x="60 65.5457 71.0914 74.2851 77.478809 83.024509 87.32821 93.30441 96.708118 101.01182 105.056018 112.10322 117.64892 121.95262">cells of the C</tspan></text>
<text fill="#231f20" xml:space="preserve" transform="matrix(1 0 -0 1 -18 802.8)" font-size="6.1" font-family="Bookman"><tspan y="-617.76107" x="129.84">3</tspan></text>
<text fill="#231f20" xml:space="preserve" transform="matrix(1 0 -0 1 -18 802.8)" font-size="10.5" font-family="Bookman"><tspan y="-621.361" x="133.68 137.97949 144.592 147.7815 153.9635 161.0065 165.0465 170.588 176.3395 180.63899 184.24849 191.29149 195.59099 199.63098 206.67398 212.21549 216.51499"> plants? In the C</tspan></text>
<text fill="#231f20" xml:space="preserve" transform="matrix(1 0 -0 1 -18 802.8)" font-size="6.1" font-family="Bookman"><tspan y="-617.76107" x="224.4">4</tspan></text>
<text fill="#231f20" xml:space="preserve" transform="matrix(1 0 -0 1 -18 802.8)" font-size="10.5" font-family="Bookman"><tspan y="-621.361" x="228.23999 232.55229 239.17139 242.3675 248.55609 255.6057 259.65229 265.20039 269.51268 272.70878 276.75538 281.06767 287.68678 293.66539 299.21348 304.76158 309.07386 316.12345 322.10206 326.14866 330.46095 334.50755 340.69615 347.31526 352.86335 357.17564 363.79475 366.99085 373.17945 378.72755 384.27565 388.58793 391.78404 398.83363 403.1459 407.1925 414.2421"> plants it does not take place in the</tspan><tspan y="-607.681" x="59.999986 69.97708 75.46018 80.94328 86.85688 93.41098 100.39558 106.08868 109.21978 112.35088 114.84199 120.32509 125.80819 128.93929 132.07039 137.55348 140.04457 146.59868 153.79328 157.77487 160.26596 166.82007 172.73368 178.21677 183.69986 186.19095 191.67404 197.58765 200.07874 205.99234 212.97695 216.10805 221.80115 224.29224 227.42334 234.40795 236.89904 240.88063 247.86524 253.34833 255.83942 262.39353 269.58815 276.57273 283.12684 286.25794 291.74104 294.23213 299.7152 306.6998 312.1829 318.3065 322.2881 329.27268 331.76377 337.24687 342.72996 345.86106 348.99217 354.47526">mesophyll cells but does so only in the bundle sheath cells.</tspan></text>
<text fill="#00aeef" xml:space="preserve" transform="matrix(1 0 -0 1 -18 802.8)" font-size="13" font-family="Bookman,Bold" font-weight="bold"><tspan y="-577.921" x="59.999986 68.20119 76.40239 80.70359 101.999988">11.9P</tspan></text>
<text fill="#00aeef" xml:space="preserve" transform="matrix(1 0 -0 1 -18 802.8)" font-size="9.1" font-family="Bookman,Bold" font-weight="bold"><tspan y="-577.921" x="110.39999 117.955989 125.511989 131.43 138.986 145.814 152.642 158.924 164.842 168.21199 175.04 181.504 187.422 190.79199 198.34799">HOTORESPIRATION</tspan></text>
<text fill="#231f20" xml:space="preserve" transform="matrix(1 0 -0 1 -18 802.8)" font-size="10.5" font-family="Bookman"><tspan y="-555.841" x="59.999986 66.39969 71.94889 75.99659 78.553798 85.8145 91.3637 93.920909 97.968608 102.65681 108.41601 110.97321 117.16291 124.21361 130.8338 133.39099 140.65169 147.7024 154.32259 159.87178 164.55998 170.10918 174.15688 180.34658 187.39728 194.01747 196.57466 202.55437 209.60507 215.15427 217.71146 227.75466 233.73436 238.42256 243.97176 246.52895 253.14914 257.83735 263.81706 269.36625 274.91545 280.46464 286.01383 288.571 292.6187 299.6694 305.8591 309.9068 312.464 318.01319 322.7014 328.25059 334.44029 338.48799 344.03718 349.58638 352.14356 358.33326 365.38395 367.94114 371.13835 381.18156 387.80177 393.78147 398.46968 402.51737 408.70707 415.75776">Let us try and understand one more process that creates an important</tspan><tspan y="-542.641" x="59.999986 66.53468 69.646389 72.96809 76.28979 81.75349 86.356189 91.819889 98.78509 104.24879 109.71249 112.18419 118.71889 124.18259 128.14479 136.39099 141.85469 147.31839 154.28359 156.75528">difference between C</tspan></text>
<text fill="#231f20" xml:space="preserve" transform="matrix(1 0 -0 1 -18 802.8)" font-size="6.1" font-family="Bookman"><tspan y="-539.041" x="164.63999">3</tspan></text>
<text fill="#231f20" xml:space="preserve" transform="matrix(1 0 -0 1 -18 802.8)" font-size="10.5" font-family="Bookman"><tspan y="-542.641" x="168.23999 170.70369 176.7999 183.7571 190.2838 192.7475"> and C</tspan></text>
<text fill="#231f20" xml:space="preserve" transform="matrix(1 0 -0 1 -18 802.8)" font-size="6.1" font-family="Bookman"><tspan y="-539.041" x="200.63999">4</tspan></text>
<text fill="#231f20" xml:space="preserve" transform="matrix(1 0 -0 1 -18 802.8)" font-size="10.5" font-family="Bookman"><tspan y="-542.641" x="204.47998 206.95238 213.48778 216.60018 222.70508 229.67098 233.63388 239.09828 241.57068 246.81458"> plants &#x2013; </tspan></text>
<text fill="#231f20" xml:space="preserve" transform="matrix(1 0 -0 1 -18 802.8)" font-size="10.5" font-family="Bookman,Bold" font-weight="bold"><tspan y="-542.641" x="249.35999 256.1884 263.4368 269.6352 273.9436 280.142 285.08039 290.8588 296.6372 303.4656 306.93403 311.8724 318.2808 322.5892 326.05763 332.256">Photorespiration</tspan></text>
<text fill="#231f20" xml:space="preserve" transform="matrix(1 0 -0 1 -18 802.8)" font-size="10.5" font-family="Bookman"><tspan y="-542.641" x="339.36 342.672 345.134 351.659 357.5435 360.0055 367.171 374.1265 380.6515 386.1055 390.6985 396.1525 400.105 406.19953 413.15504">. To understand</tspan><tspan y="-529.201" x="60 66.5595 73.5495 79.4685 83.4555 89.3745 94.002 99.4905 104.979007 111.538509 114.675 119.302509 125.4315 129.4185 132.55501 138.47402 145.46402 147.96051 156.2315 161.72 164.21649 171.2065 177.3355 182.82399 188.31249 190.80898 194.79598 200.71498 203.21147 209.77097 216.76097 222.67998 230.95098 233.44747 239.57646 242.07295 245.20946 248.34597 252.33296 256.31999 259.45649 264.94499 267.44148 274.00099 277.13749 281.12449 283.62098 293.6035 299.5225 304.15 309.6385 312.13499 318.26399 324.8235 330.7425 337.9425 341.9295 344.426 348.413 355.40299 360.89149 363.38798 366.73448 369.87098 374.49848 379.98698 383.97398 386.47047 391.95896 395.94596 401.43446 407.99397 410.49046 416.40946">photorespiration we have to know a little bit more about the first step of</tspan><tspan y="-516.001" x="60 64.1534 71.3098 76.9647 80.2526 88.25951 94.55491 97.85781 103.51271 106.81561 113.972019 117.25992 123.98582 130.28122 134.43462 141.59102 150.02841 156.3238 162.1887 165.4766 170.911 174.19889 178.35228 185.50868 191.16359 194.45148 197.96437 201.26728 206.06118 211.71608 215.86948 219.15737 227.16426">the Calvin pathway &#x2013; the first CO</tspan></text>
<text fill="#231f20" xml:space="preserve" transform="matrix(1 0 -0 1 -18 802.8)" font-size="6.1" font-family="Bookman"><tspan y="-512.401" x="235.68">2</tspan></text>
<text fill="#231f20" xml:space="preserve" transform="matrix(1 0 -0 1 -18 802.8)" font-size="10.5" font-family="Bookman"><tspan y="-516.001" x="239.76 243.03659 246.54889 249.8512 255.93599 262.2308 266.3836 269.6859 275.77073 282.9265 286.20314 291.85743 296.01023 301.66453 308.38984 311.90214 315.17875 321.90406 329.05986 332.36216 338.01646 341.29307 344.59538 350.24967 353.52629 357.67909 364.83488 370.48918 373.76579 377.0424 381.8357 387.49 393.7848 399.4391 403.5919 406.8942 412.979"> fixation step. This is the  reaction</tspan><tspan y="-502.56098" x="60 68.4379 75.594799 81.2502 86.0446 91.700008 94.7884 102.5858 109.9527 117.9601 124.6865 127.7749 133.4303 139.5162 149.6656 156.392 159.6954 166.85231 172.5077 178.1631 181.2515 189.68939 192.9928 197.1467 204.3036 207.392 215.3994">where RuBP combines with CO</tspan></text>
<text fill="#231f20" xml:space="preserve" transform="matrix(1 0 -0 1 -18 802.8)" font-size="6.1" font-family="Bookman"><tspan y="-499.201" x="223.92">2</tspan></text>
<text fill="#231f20" xml:space="preserve" transform="matrix(1 0 -0 1 -18 802.8)" font-size="10.5" font-family="Bookman"><tspan y="-502.56098" x="228 231.0728 235.2236 241.3064 244.3792 247.8895 253.97229 258.76359 268.90989 271.9827 278.706 281.7788 291.9251 298.0079 301.3082 306.9605 312.61283 319.97663 323.27693 328.92924 334.58155 337.65437 343.73716 347.24748 350.32029 357.04359 363.76689 372.41169 379.77549 383.2858 386.3586 390.5094 397.6632 403.956 408.10679 411.1796 414.4799"> to form 2 molecules of 3PGA, that is</tspan><tspan y="-489.12098" x="60 65.558307 71.7571 75.8139 82.0127 85.219 90.987308 96.54561 102.10391 108.733219 111.299518 117.92882 123.69712 126.24 133.8455 141.02051 148.83602 151.94751 157.41101 165.22652 173.51999">catalysed by RuBisCO.</tspan></text>
<g clip-path="url(#clip_2105)">
<text xml:space="preserve" transform="matrix(1.0010494 0 -0 .9989516 -18 802.8)" font-size="10.488996" font-family="Bookman"><tspan y="-467.29029" x="148.40435 155.841 163.03649 170.94519 186.77304 194.4405 307.356 313.8277 322.21888">RuBPCOPGA</tspan></text>
<text xml:space="preserve" transform="matrix(1.0010493 0 -0 .9989516 -18 802.8)" font-size="10.0515379" font-family="Bookman"><tspan y="-472.0953" x="225.36305 232.55995 239.51561 246.9437 249.81845 255.0955 262.52357">RuBisCo</tspan></text>
<text xml:space="preserve" transform="matrix(1.0010494 0 -0 .9989516 -18 802.8)" font-size="10.488996" font-family="Symbol"><tspan y="-467.29029" x="179.33177 212.89655 271.15245 223.44503 234.47368 245.73848 256.76206 267.78559 291.03977">+&#xf8e7;&#x2192;&#xf8e7;&#xf8e7;&#xf8e7;&#xf8e7;&#xf8e7;&#x00d7;</tspan></text>
<text xml:space="preserve" transform="matrix(1.0010493 0 -0 .9989516 -18 802.8)" font-size="6.0563495" font-family="Bookman"><tspan y="-464.6475" x="203.06678">2</tspan></text>
<text xml:space="preserve" transform="matrix(1.0010494 0 -0 .9989516 -18 802.8)" font-size="10.488996" font-family="Bookman"><tspan y="-467.29029" x="282.90245 300.6393">23</tspan></text>
</g>
<text fill="#231f20" xml:space="preserve" transform="matrix(1 0 -0 1 -18 802.8)" font-size="10.5" font-family="Bookman"><tspan y="-448.8" x="78 85.6879 92.9453 100.8432 104.0371 109.583 117.4809 126.0193 129.5686 133.613 140.6604 146.8468 150.8912 154.4405 157.6344 163.1803 166.7296 170.774 177.8214 183.3673 186.9166 196.9565 202.93289 208.47879 212.5232 216.0725 222.2589 228.8758 236.1332 243.18059 249.79749 255.98389 263.03129 267.07569 270.62498 276.17088 283.21827 288.33366 294.08955 304.12944 309.67533 313.2246 316.41853 323.4659 327.0152 331.0596 338.107 343.6529 347.20219 355.53059 361.507 366.1919 369.3858 376.00273 379.552 382.7459 391.2843 397.2607 400.81 406.5659 412.5423">RuBisCO that is the most abundant enzyme in the world (Do you</tspan><tspan y="-435.36" x="60 68.277 74.202 81.198009 87.763507 93.258 97.8915 100.394008 108.671009 115.66701 121.371509 127.076007 130.2185 132.721 135.8635 141.358 143.86049 149.355 156.351 162.486 167.11949 173.25449 178.749 182.74199 188.2365 192.87 196.0125 201.507 207.00151 213.56702 216.0695 222.63501 228.33951 230.842 234.83499 241.831 247.3255 249.82799 253.18048 259.3155 264.81 268.803 271.3055 275.29853 282.29454 288.42955 292.42256 294.92506 298.06755 302.06056 307.55506 310.05757 316.19258 321.68708 325.68009 328.82258 334.31709 339.81159 342.3141 347.8086 350.95109 354.9441 360.4386 362.9411 368.4356 374.57063 381.56663 384.06913 390.6346 393.7771 400.7731 407.3386 409.8411 413.8341">wonder why?) is characterised by the fact that its active site can bind to</tspan><tspan y="-421.91999" x="60 66.602108 72.563709 76.59331 83.62591 87.26501 95.14811">both CO</tspan></text>
<text fill="#231f20" xml:space="preserve" transform="matrix(1 0 -0 1 -18 802.8)" font-size="6.1" font-family="Bookman"><tspan y="-418.31999" x="103.68">2</tspan></text>
<text fill="#231f20" xml:space="preserve" transform="matrix(1 0 -0 1 -18 802.8)" font-size="10.5" font-family="Bookman"><tspan y="-421.91999" x="107.52 111.1877 117.3879 124.449108 131.0798 134.7475"> and O</tspan></text>
<text fill="#231f20" xml:space="preserve" transform="matrix(1 0 -0 1 -18 802.8)" font-size="6.1" font-family="Bookman"><tspan y="-418.31999" x="143.28">2</tspan></text>
<text fill="#231f20" xml:space="preserve" transform="matrix(1 0 -0 1 -18 802.8)" font-size="10.5" font-family="Bookman"><tspan y="-421.91999" x="147.12 150.7824 156.1063 159.76869 166.81459 172.359 179.40489 184.9493 190.4937 194.1561 198.199 205.2449 210.7893 214.4517 221.4976 227.68251 237.72092 243.26532 246.66773"> &#x2013; hence the name. </tspan></text>
<text fill="#231f20" xml:space="preserve" transform="matrix(1 0 -0 1 -18 802.8)" font-size="10.5" font-family="Bookman,Italic" font-style="italic"><tspan y="-421.91999" x="250.31999 258.0937 264.18739 271.12107 274.74308 280.41679 286.30049 293.44419 297.0662 301.0599 307.9936 311.14729 318.08097 324.59468 328.21669 335.15037 341.03407 349.22776 352.84977 356.84349 363.77717 366.93086 372.39457 376.01658 381.4803 387.36399 394.5077 397.66139 404.17509 407.7971 414.3108">Can you think how this could be</tspan><tspan y="-408.47999" x="59.999986 66.36408 72.09818 77.412288 82.72639 85.730487 92.09458 95.09868 100.41278">possible?</tspan></text>
<text fill="#231f20" xml:space="preserve" transform="matrix(1 0 -0 1 -18 802.8)" font-size="10.5" font-family="Bookman"><tspan y="-408.47999" x="106.07999 108.50479 116.06359 123.191898 130.9607 134.0255 139.44229 147.21109 155.62039 158.04518 164.96349 171.02079 176.43758 178.86237 184.91967 187.34445 197.25525 204.38355 209.80034 216.71865 219.14344 224.77024 229.32604 234.74283 240.80013 244.71543 250.13222 254.68802 257.11283 263.17015 266.44496 269.71977 272.78456 279.70286 282.76765 286.68296 292.30976 294.73457 298.00938 303.85667 308.41246 310.83726 318.60606"> RuBisCO has a much greater affinity for CO</tspan></text>
<text fill="#231f20" xml:space="preserve" transform="matrix(1 0 -0 1 -18 802.8)" font-size="6.1" font-family="Bookman"><tspan y="-404.87998" x="327.12">2</tspan></text>
<text fill="#231f20" xml:space="preserve" transform="matrix(1 0 -0 1 -18 802.8)" font-size="10.5" font-family="Bookman"><tspan y="-408.47999" x="330.96 333.3997 341.6139 348.5471 353.9788 360.912 363.35169 367.2819 374.2151 379.6468 382.0865 389.87019"> when the CO</tspan></text>
<text fill="#231f20" xml:space="preserve" transform="matrix(1 0 -0 1 -18 802.8)" font-size="6.1" font-family="Bookman"><tspan y="-404.87998" x="398.15998">2</tspan></text>
<text fill="#231f20" xml:space="preserve" transform="matrix(1 0 -0 1 -18 802.8)" font-size="10.5" font-family="Bookman"><tspan y="-408.47999" x="401.75999 404.99778 407.38557">: O</tspan></text>
<text fill="#231f20" xml:space="preserve" transform="matrix(1 0 -0 1 -18 802.8)" font-size="6.1" font-family="Bookman"><tspan y="-404.87998" x="415.91999">2</tspan></text>
<text fill="#231f20" xml:space="preserve" transform="matrix(1 0 -0 1 -18 802.8)" font-size="10.5" font-family="Bookman"><tspan y="-394.8" x="59.99997 63.19507 68.74217 72.463977 79.51257 85.05968 91.24728 95.93338 99.12848 104.88558 108.60738 114.15448 120.34208 127.60068 133.78829 136.98339 140.38849 144.11029 147.72539 157.7665 163.9541 169.7112 172.9063 179.9549 185.502 189.2238 197.5534 204.602 210.78961 214.8352 218.557 226.88661 232.86421 240.12282 243.31792 249.93602 253.65782 260.70643 266.894 273.51213 280.13023 285.6773 292.72593 296.44773 299.64283 303.0479 306.7697 310.8153 317.86393 321.05903 326.6061 330.3279 338.6575 344.2046 348.8907 354.43778 358.15959 365.2082 371.1858 375.23139 378.9532 384.50028 390.47789 393.67298 397.39479 404.01289 411.0615 414.2566">is nearly equal. Imagine what would happen if this were not so! This</tspan><tspan y="-381.36" x="59.99997 66.51027 69.59757 76.538379 83.048679 86.13598 93.07678 98.72608 101.173389 104.26069 109.69999 112.14729 117.58659 123.45639 133.3897 139.9 145.3393 149.2771 152.3644 156.3022 159.3895 164.8288 170.2681 173.5654 176.0127 179.51999 183.4578 185.90509 188.99239 194.43169 196.87899 200.81679 207.75759 213.19689 215.64418 220.22248 225.66178 228.74907 234.82888 238.76668 241.85398 247.29328 252.73258 255.17987 260.61918 266.48899 273.42979 278.86909 284.30839 291.24919 295.18699 299.7653 305.8451 309.7829 312.8702 318.74003 325.68083 328.1281 333.99794 337.29524 339.74253">binding is competitive. It is the relative concentration of O</tspan></text>
<text fill="#231f20" xml:space="preserve" transform="matrix(1 0 -0 1 -18 802.8)" font-size="6.1" font-family="Bookman"><tspan y="-378" x="348.23997">2</tspan></text>
<text fill="#231f20" xml:space="preserve" transform="matrix(1 0 -0 1 -18 802.8)" font-size="10.5" font-family="Bookman"><tspan y="-381.36" x="351.83998 354.29576 360.38404 367.33335 373.85215 376.30793 384.10774"> and CO</tspan></text>
<text fill="#231f20" xml:space="preserve" transform="matrix(1 0 -0 1 -18 802.8)" font-size="6.1" font-family="Bookman"><tspan y="-378" x="392.63996">2</tspan></text>
<text fill="#231f20" xml:space="preserve" transform="matrix(1 0 -0 1 -18 802.8)" font-size="10.5" font-family="Bookman"><tspan y="-381.36" x="396.23997 398.70606 402.66267 409.62226 415.72087"> that</tspan><tspan y="-367.91999" x="59.99997 66.53387 71.996768 75.95817 81.42107 86.022968 95.979869 99.09077 106.05517 111.51807 116.980968 119.451869 127.697269 134.66167 137.77257 143.23548 150.19988 152.67078 158.56418 161.88507 164.35596 168.31735 175.28176 180.74466 183.21555 187.17694 195.42235 201.31575 203.78665 212.03206 215.14296 218.25386 221.36476 223.83567 230.36957 233.48047 240.44487 246.97878 249.44968 253.41107 259.30448 261.77537 265.73677 272.70115 278.16404 280.63493 286.0978 293.0622 298.0946 303.76753 313.72444 319.18733">determines which of the two will bind to the enzyme.</tspan><tspan y="-354.47999" x="77.99997 81.457469 88.348468 90.745967">In C</tspan></text>
<text fill="#231f20" xml:space="preserve" transform="matrix(1 0 -0 1 -18 802.8)" font-size="6.1" font-family="Bookman"><tspan y="-350.87998" x="98.39997">3</tspan></text>
<text fill="#231f20" xml:space="preserve" transform="matrix(1 0 -0 1 -18 802.8)" font-size="10.5" font-family="Bookman"><tspan y="-354.47999" x="101.99997 104.36217 110.78737 113.789569 119.78426 126.63996 130.49266 135.84687 138.20906 143.56327 149.34796 159.19617 164.55037 166.91257"> plants some O</tspan></text>
<text fill="#231f20" xml:space="preserve" transform="matrix(1 0 -0 1 -18 802.8)" font-size="6.1" font-family="Bookman"><tspan y="-350.87998" x="175.19997">2</tspan></text>
<text fill="#231f20" xml:space="preserve" transform="matrix(1 0 -0 1 -18 802.8)" font-size="10.5" font-family="Bookman"><tspan y="-354.47999" x="179.03997 181.39505 187.81316 193.59076 198.93787 204.28498 206.64006 213.05817 216.05327 222.90187 229.31998 231.67507 235.52066 241.29827 243.65335 251.14246 258.20106 265.90016 268.89524 274.24235 281.94145 290.28105 293.48616 295.84126 301.82887 308.67747 315.09556 317.45066 324.29927 329.64637 336.49497 341.84208 347.18919 349.54429 357.24339"> does bind to RuBisCO, and hence CO</tspan></text>
<text fill="#231f20" xml:space="preserve" transform="matrix(1 0 -0 1 -18 802.8)" font-size="6.1" font-family="Bookman"><tspan y="-350.87998" x="365.51997">2</tspan></text>
<text fill="#231f20" xml:space="preserve" transform="matrix(1 0 -0 1 -18 802.8)" font-size="10.5" font-family="Bookman"><tspan y="-354.47999" x="369.11997 371.47206 374.67414 377.66624 383.44084 389.4254 393.268 396.2601 402.0347 408.8803 411.2324 414.2245"> fixation is</tspan><tspan y="-340.8" x="59.99997 66.60777 72.14458 77.68138 82.35718 87.89398 94.07128 99.60808 105.14488 111.752689 115.147487 117.69228 126.22158 131.75838 136.43418 141.97098 144.51578 148.55107 155.58937 161.12618 163.67098 171.34978 178.59809 186.48688 193.09468 195.63948 198.82428 205.86258 211.39939 215.43468 220.97148 227.14879 233.75659 236.30139 242.26869 245.6635 248.2083 254.8161 260.3529 263.53773 270.57603 276.3228 278.8676 284.40443 290.3717 297.41 302.9468 308.4836 313.15943 317.19474 322.73155 329.33934 331.88414 335.91944 341.88673 344.43153 346.97633 353.5841 356.1289 366.1597 372.127 375.31184 380.84864 386.38545 393.63374 396.81855 402.35536 407.89216 410.43696 416.40425">decreased. Here the RuBP instead of being converted to  2 molecules of</tspan><tspan y="-327.36" x="59.99997 66.66717 75.25587 82.56357 87.717769 94.384967 97.629169 104.72687 111.394069 116.990268 122.14446 130.52317 133.76737 137.86206 144.95977 150.11396">PGA binds with O</tspan></text>
<text fill="#231f20" xml:space="preserve" transform="matrix(1 0 -0 1 -18 802.8)" font-size="6.1" font-family="Bookman"><tspan y="-324" x="158.63997">2</tspan></text>
<text fill="#231f20" xml:space="preserve" transform="matrix(1 0 -0 1 -18 802.8)" font-size="10.5" font-family="Bookman"><tspan y="-327.36" x="162.47997 167.63547 171.73146 177.75946 182.91497 186.37047 192.39847 197.13497 207.22647 212.38198 218.40998 225.50897 231.10648 236.26198 246.35349 252.38149 255.62699 261.2245 266.822 274.13099 277.3765 282.974 288.12953 294.15754 297.61305 302.76856 309.43705 316.53605 322.56407 328.16157 334.83006 341.92906 347.95707 353.76457 357.01008 362.81758 368.41508 374.01258 378.74909 384.9871 389.0831 394.6806 399.83613 406.07414 413.17314"> to form one molecule of phosphoglycerate and</tspan><tspan y="-313.91999" x="59.99996 66.61556 73.66166 79.63676 85.18136 91.79696 98.843059 104.81815 110.572757 113.76535 119.51995 125.06455 131.03966 134.23226 140.41736 144.46047 150.00507 153.39517 156.58777 163.20337 166.59348 174.49008 180.67519 185.35878 191.97438 197.94948 204.99558 208.18817 211.57828 214.77088 221.81697 225.20708 231.39218 234.78229 241.39789 247.583 251.6261 258.6722 266.9993 273.1844 278.939 282.32908 287.87367 294.05876 297.25135 300.44395 305.98854 312.60414 315.9942 322.6098 329.6559 335.631 339.6741 345.6492 350.3328 355.87739 361.42198 368.03758 371.23017 375.91377 382.09886 386.14195 389.33454 395.30964 402.35575 405.75834 409.1484 412.76103">phosphoglycolate (2 Carbon) in a pathway called photorespiration. In</tspan><tspan y="-300.47999" x="59.99996 63.861265 70.72556 76.08836 78.45917 84.89297 91.75726 97.55056 101.41186 107.205158 111.706958 117.069759 122.432559 128.86637 131.87717 136.37897 142.38227 146.24356 152.03687 156.53867 162.11147 164.48226 170.91606 176.91936 180.78066 187.64496 195.79026 201.79355 207.36635 210.58715 212.95793 216.81923 223.68354 229.04633 233.54813 238.91092 241.28171 244.29251 249.6553 252.0261 258.89039 264.25318 267.26399 271.12528 277.98957 283.35237 287.85417 290.22496 295.58775 301.16056 308.02485 311.88615 318.75044 324.11323 329.476 332.48683 337.8496 340.2204 346.0137 349.2345 351.6053 356.96809 364.0424 369.6152 375.6185 380.1203 385.4831 388.7039 391.07469 397.93898 403.73228 408.23408 410.60487 416.39817">the photorespiratory pathway, there is neither synthesis of sugars, nor of</tspan><tspan y="-286.8" x="59.99996 66.95996 73.54686 77.03996 80.448368 83.00677 90.699169 96.89007 100.938968 107.99087 113.54127 118.23067 120.78907 123.98747 128.03638 130.59477 135.28418 140.83458 146.38498 153.64688 156.84528 160.89418 166.44458 169.00298 172.20137 179.25327 181.81166 185.86057 192.91246 198.46286 201.02126 205.71067 211.26107 214.45946 220.00986 226.20076 231.75116 237.30156 239.85996 245.84085 249.24925 251.80765 259.19996">ATP. Rather it results in the release of CO</tspan></text>
<text fill="#231f20" xml:space="preserve" transform="matrix(1 0 -0 1 -18 802.8)" font-size="6.1" font-family="Bookman"><tspan y="-283.44" x="267.59996">2</tspan></text>
<text fill="#231f20" xml:space="preserve" transform="matrix(1 0 -0 1 -18 802.8)" font-size="10.5" font-family="Bookman"><tspan y="-286.8" x="271.43995 273.99073 282.316 285.5068 289.5481 296.5924 299.1432 303.18449 310.2288 315.77159 318.32237 325.57667 329.61796 332.80876 335.99955 339.19035 344.73313 350.9164 354.9577 358.1485 364.1218 371.1661 373.7169 379.6902 383.09098 385.64176 392.63996 399.22688 402.95997 406.38008 408.95018 412.79997"> with the utilisation of ATP. In</tspan><tspan y="-273.36" x="59.99997 64.04347 71.08997 76.63497 79.81297 86.42897 93.47547 99.45097 103.49448 109.46998 114.15398 119.698978 125.24397 131.85997 135.05297 139.73697 145.92247 149.96598 155.94147 160.62548 166.38048 169.55847 176.17447 182.35997 186.40348 193.44997 201.77747 207.96297 213.71797 216.89597 220.93947 227.98596 233.53096 238.21497 243.75997 246.93796 250.13095 255.67595 258.85395 265.90046 271.87596 275.05393 280.59895 286.35395 293.40046 297.44395 304.49046 310.03547 315.58049 318.77348 324.31849 327.4965 333.472 336.875 340.053 347.3095 353.9255 360.5415 363.7195 369.695 374.379 377.55699 385.45399 392.71049 401.248 407.86399 416.4015">the photorespiratory pathway there is no synthesis of ATP or NADPH.</tspan><tspan y="-259.91999" x="59.99997 66.54337 73.51727 78.98967 81.47007 88.01347 91.13387 97.03677 100.15717 106.060077 111.74248 114.86288 120.33527 126.44817 129.56858 132.04897 135.37937 142.56327 149.53717 155.00957 158.98047 162.10088 168.00377 174.97766 177.45806 183.36095 186.69135 189.17174 195.71514 202.68903 208.59192 212.56282 218.46572 223.07712 228.54952 234.02191 240.5653 243.68572 248.29712 254.41002 258.38093 261.5013 267.4042 274.3781 276.85853 279.9789 285.45133 287.93174 294.90565 300.80854 304.77943 307.25984 313.80323 320.77714 326.68003 334.93495 341.90885 344.38926 350.07167 355.54408 359.51496">The biological function of photorespiration is not known yet.</tspan><tspan y="-246.47998" x="77.99997 81.839969 88.88437 92.18527">In C</tspan></text>
<text fill="#231f20" xml:space="preserve" transform="matrix(1 0 -0 1 -18 802.8)" font-size="6.1" font-family="Bookman"><tspan y="-242.87998" x="100.07996">4</tspan></text>
<text fill="#231f20" xml:space="preserve" transform="matrix(1 0 -0 1 -18 802.8)" font-size="10.5" font-family="Bookman"><tspan y="-246.47998" x="104.159969 107.41216 114.02737 117.21957 123.40427 130.44997 134.49266 140.03687 143.28908 149.90428 156.94998 162.92469 166.96738 172.94208 177.62528 183.16948 188.71369 195.32889 198.52109 203.20429 209.38899 213.43169 216.62389 222.59859 229.64429 232.8965 239.5117 245.4864 251.03061 256.5748 259.827 266.87269 272.84739 276.89009 280.14228 286.11698 291.66117 297.20536 304.46107 307.67997 311.07887 314.32777 320.93968 327.98207 331.17097 336.71186 339.96076 343.14967 348.69056 351.93946 358.55137 364.09226 369.63316 375.81455 383.06697 388.60786 394.14875 397.39765 401.43705 408.47944 414.02033"> plants photorespiration does not occur. This is because they</tspan><tspan y="-232.79999" x="59.99997 66.85757 72.854167 78.210269 83.56637 85.93047 91.92707 94.291179 104.14127 109.497379 114.85348 121.711078 127.70767 134.56528 137.56938 142.92548 152.77558 155.13967 158.99427 165.85187 171.84847 175.70307 178.06716 181.07126 187.92887 193.28496 197.78006 203.13616 209.13275 214.48885 219.84494 225.20104 227.56513 231.41973 238.27733 243.63343 245.99752 251.3536 257.1402 263.9978 269.3539 274.71003 281.56764 285.42225 289.91734 295.91395 299.76856 302.77265 308.55924 315.41685 317.78096 323.56755 326.78166 329.14576 336.85386">have a mechanism that increases the concentration of CO</tspan></text>
<text fill="#231f20" xml:space="preserve" transform="matrix(1 0 -0 1 -18 802.8)" font-size="6.1" font-family="Bookman"><tspan y="-229.43999" x="345.11997">2</tspan></text>
<text fill="#231f20" xml:space="preserve" transform="matrix(1 0 -0 1 -18 802.8)" font-size="10.5" font-family="Bookman"><tspan y="-232.79999" x="348.71998 351.07917 357.07087 360.92057 363.27976 367.12947 373.98216 379.33335 381.69255 387.04374 393.89643 398.81715 404.37834 414.22355"> at the enzyme</tspan><tspan y="-219.35999" x="59.99997 65.55087 68.74977 72.79917 78.350078 81.75897 85.13927 88.51956 95.141468 102.19386 105.39276 110.943668 114.32396 118.37336 124.56476 131.18666 136.73757 142.28847 145.66878 152.29068 155.48958 161.68099 167.23189 172.78279 176.1631 184.4965 191.5489 197.09981 204.1522 207.53252 211.58191 218.63431 224.18521 227.56552">site.  This takes place when the C</tspan></text>
<text fill="#231f20" xml:space="preserve" transform="matrix(1 0 -0 1 -18 802.8)" font-size="6.1" font-family="Bookman"><tspan y="-215.99999" x="235.43997">4</tspan></text>
<text fill="#231f20" xml:space="preserve" transform="matrix(1 0 -0 1 -18 802.8)" font-size="10.5" font-family="Bookman"><tspan y="-219.35999" x="239.27997 242.64598 248.82779 254.3691 257.55839 264.1707 267.53669 270.93598 275.61628 281.58808 291.62339 294.98939 299.02919 306.07197 311.61326 314.97926 325.01457 330.55586 336.09715 342.06895 348.68125 355.72404 361.47535 364.66465 367.85395 371.21995 374.40925 379.95054 383.31654 389.92884 394.60914 400.58094 407.19325 412.73454"> acid from the mesophyll is broken</tspan><tspan y="-205.91999" x="59.99997 66.42327 72.20607 80.34087 87.19467 89.55497 92.55527 99.409069 101.76936 105.62016 112.47396 117.82626 120.18656 126.60986 133.67366 140.52747 146.95076 149.95107 155.30336 157.66365 163.01595 169.86975 175.22205 181.21485 185.06565 191.91945 194.27974 199.63204 204.98433 207.98464 210.98494 216.33724 218.69753 222.54833 228.33113 230.69142 235.18273 240.53502 243.53533 248.88762 254.88042 260.23274 265.58503 267.9453 275.64964">down in the bundle sheath cells to release CO</tspan></text>
<text fill="#231f20" xml:space="preserve" transform="matrix(1 0 -0 1 -18 802.8)" font-size="6.1" font-family="Bookman"><tspan y="-202.31998" x="283.91999">2</tspan></text>
<text fill="#231f20" xml:space="preserve" transform="matrix(1 0 -0 1 -18 802.8)" font-size="10.5" font-family="Bookman"><tspan y="-205.91999" x="287.52 289.8784 295.0083 297.3667 301.2156 308.0675 311.06593 316.41633 318.77473 323.26414 328.61454 333.96495 341.02684 344.02525 347.87416 353.22456 355.58296 358.58137 365.43327 367.79167 370.79008 377.64198 382.99238 387.48179 392.83219 398.8231 404.1735 407.1719 414.0238"> &#x2013; this results in increasing</tspan><tspan y="-192.47998" x="59.999986 64.04958 71.10218 76.65328 80.46239 83.66148 90.71408 94.76368 99.45378 105.645389 111.19649 116.74759 119.946689 123.14578 130.40839 133.60749 139.79909 144.48918 148.29828 153.84938 159.83098 166.88358 172.43468 177.98578 185.03838 189.08798 193.77808 199.96968 204.01929 207.21839 213.19998 220.25258 224.06168 230.04328 233.45238 237.26148 245.16458">the intracellular concentration of CO</tspan></text>
<text fill="#231f20" xml:space="preserve" transform="matrix(1 0 -0 1 -18 802.8)" font-size="6.1" font-family="Bookman"><tspan y="-188.87998" x="253.67998">2</tspan></text>
<text fill="#231f20" xml:space="preserve" transform="matrix(1 0 -0 1 -18 802.8)" font-size="10.5" font-family="Bookman"><tspan y="-192.47998" x="257.52 260.92289 264.72578 268.33869 275.38508 279.18797 283.23136 290.48777 295.17167 302.21806 305.62095 309.42384 313.46723 320.5136 323.7065 329.2514 333.0543 338.59919 345.64558 351.19047 358.44688 363.13078 368.67567 374.22056 378.02345 382.06684 389.11323 395.2986 399.342 403.1449 407.1883 414.23469">. In turn, this ensures that the</tspan><tspan y="-178.79999" x="59.999986 67.58228 74.734088 82.52638 85.614688 91.054988 98.84728 107.28008 109.728389 113.02669 120.17849 127.12029 132.5606 136.49939 139.58769 145.4585 152.4003 157.8406 160.2889 166.36969 171.81 174.25829 180.33908 182.78737 188.22766 194.30846 198.88776 205.39907 211.26987 217.14067 222.79097 225.87928 231.96007 237.40036 242.84067 245.28896 255.22325 258.31156 265.25337 268.34165 278.27595 281.36424 286.80455 289.89283 296.83464 302.48493 304.93324 308.87205 315.81385 321.25416 323.70246 329.57325 335.44404 341.09434 346.74464 352.18495 359.12675 365.20756 370.64787 376.08818 378.53648 384.61729 390.0576 393.9964 397.0847 402.525 405.61329 409.5521 415.2024">RuBisCO functions as a carboxylase minimising the oxygenase activity.</tspan><tspan y="-165.35999" x="77.999988 85.89989 91.87829 100.20869 104.08128 108.127689 115.177089 121.365489 125.41189 129.2845 135.0424 141.0208 148.2802 152.1528 158.7717 165.82109 171.79949 180.12989 184.00249 188.04889 195.09828 201.28668 205.33309 209.20569 213.25209 220.30149 225.84938 229.72199">Now that you know that the C</tspan></text>
<text fill="#231f20" xml:space="preserve" transform="matrix(1 0 -0 1 -18 802.8)" font-size="6.1" font-family="Bookman"><tspan y="-161.99999" x="237.59999">4</tspan></text>
<text fill="#231f20" xml:space="preserve" transform="matrix(1 0 -0 1 -18 802.8)" font-size="10.5" font-family="Bookman"><tspan y="-165.35999" x="241.43999 245.3151 251.92819 255.11829 261.30088 268.34449 272.38508 277.9272 281.80229 284.99238 291.17497 296.71708 303.33018 307.20527 313.81837 320.86198 326.83457 330.87516 336.84776 341.52885 347.07096 352.61308 359.22618 362.41627 367.09736 373.27995 377.32054 380.51063 386.48323 393.52684 396.9269 400.802 406.5541 412.5267"> plants lack photorespiration, you</tspan><tspan y="-151.91999" x="59.999986 66.48929 71.046588 76.895389 83.38469 89.44349 95.93279 98.99909 104.627399 107.053699 112.47199 118.53079 125.45059 127.8769 135.0067 141.9265 148.4158 153.8341 158.3914 163.80971 167.7265 173.78531 180.70511 187.19441 189.62071 197.82152 204.74132 210.36962 212.79592 219.28522 223.84252 229.69132 236.18062 243.31043 248.72873 252.64553 255.71183 261.13014 264.19645 268.11326 273.74156 276.16786 282.22666 289.14646 295.63575 298.06205 303.69035 306.75666 312.17497 315.24128 321.73057 327.14888 329.57518 335.63398 340.19129 345.6096 348.0359 354.52519 359.94349 363.8603 367.7771 373.1954 377.75273 380.17903 383.24534 390.16514 392.59144 396.50825 403.42805 408.84635 414.26466">probably can understand why productivity and yields are better in these</tspan><tspan y="-138.47998" x="59.999986 66.509387 69.59579 75.67469 82.61459 86.55149 91.98989 95.28629 97.7327 101.2391 108.179 110.625408 116.70431 123.21371 129.72312 132.80951 136.74642 139.83281 145.7017 152.6416 155.938 158.3844 162.3213 169.2612 174.6996 180.138 185.5764 188.0228 194.5322 197.61859 203.6975 210.63739 214.5743 220.0127 222.45909 227.89749 234.83739 240.70629 248.92719 251.37358 255.31049 261.17939 264.26579 269.70417 274.28157 280.36045 287.30036 292.73878 298.1772 300.62358 304.56047 310.42936 312.87574 319.81565 322.90205 328.55046 335.49037 340.92878 345.50617 347.95256 351.88945 357.32783 367.26023 373.76963 379.208 383.7854 389.8643 393.80119 400.95109 405.52848 410.96687 416.40528">plants. In addition, these plants show tolerance to higher temperatures.</tspan></text>
<text fill="#231f20" xml:space="preserve" transform="matrix(1 0 -0 1 -18 802.8)" font-size="10.5" font-family="Bookman,Italic" font-style="italic"><tspan y="-124.79998" x="77.999988 85.769687 91.85938 97.319087 102.778789 109.28848 111.843189 117.722888 124.65259 127.20728 131.19699 138.1267 143.5864 146.1411 152.2308 158.74051 164.62021 170.07991 175.53961 178.09432 184.60402 187.75373 193.21343 198.67313 205.81282 211.27252 216.73223 219.88193 225.76163 232.69133 235.24604 240.70574 246.79544 253.72515 256.27986 261.94956 267.82926 274.96897 277.52369 282.98338 288.86308 298.73277 305.24247 311.33216 315.95185 321.41154 323.96626 330.47596 333.62565 339.71534 346.64503 350.6347 356.0944 358.6491 364.1088 371.03849 376.91819 385.10789 388.25758 395.18727 400.85697 403.41169 407.40138 414.33106">Based on the above discussion can you compare plants showing the</tspan><tspan y="-111.35998" x="59.999986">C</tspan></text>
<text fill="#231f20" xml:space="preserve" transform="matrix(1 0 -0 1 -18 802.8)" font-size="6.1" font-family="Bookman,Italic" font-style="italic"><tspan y="-107.99998" x="67.679988">3</tspan></text>
<text fill="#231f20" xml:space="preserve" transform="matrix(1 0 -0 1 -18 802.8)" font-size="10.5" font-family="Bookman,Italic" font-style="italic"><tspan y="-111.35998" x="71.51998 74.185077 80.26347 87.18188 93.680278 96.34537 100.32377 107.24217 112.690578 115.35567"> and the C</tspan></text>
<text fill="#231f20" xml:space="preserve" transform="matrix(1 0 -0 1 -18 802.8)" font-size="6.1" font-family="Bookman,Italic" font-style="italic"><tspan y="-107.99998" x="123.359989">4</tspan></text>
<text fill="#231f20" xml:space="preserve" transform="matrix(1 0 -0 1 -18 802.8)" font-size="10.5" font-family="Bookman,Italic" font-style="italic"><tspan y="-111.35998" x="126.959987 129.63158 136.14067 142.22977 146.21887 153.14798 161.33708 167.42618 173.09528 178.76438 181.43598 184.10758 192.29668 197.75579 203.21489 205.88649 209.8756 216.8047 222.26381 224.93541 228.92452 235.01361 241.5227 244.6718 250.1309 252.8025 256.1616 262.04069 266.6598 276.5289 282.618 286.60713 289.27873 294.9478 298.09693 303.55604 309.01515 315.94425 318.61585 321.76496 328.69407 331.36567 335.35478 341.44389 347.95298 351.10209 356.5612 359.2328 365.74189 372.25099 375.61009 382.11918 384.79078 390.87989 397.809 404.31809 406.9897 410.3488 413.4979 416.647"> pathway?  Use the table format given in table 11.1 and fill</tspan><tspan y="-97.919979" x="59.999986 63.047185 69.87438 72.30659 76.19379 83.02099 88.37819 90.810398 93.8576 100.6848 103.942 109.7192 114.236408 124.0036 129.9908 133.878 136.9252 142.70241 149.5296">in the information.</tspan></text>
<g clip-path="url(#clip_2106)">
<text xml:space="preserve" transform="matrix(1 0 -0 1 259.314 763.9998)" font-size="8" font-family="Arial"><tspan y="6.316" x="0"> </tspan></text>
</g>
</g>
</g>
</svg>
