<svg xmlns="http://www.w3.org/2000/svg" xmlns:xlink="http://www.w3.org/1999/xlink" xmlns:inkscape="http://www.inkscape.org/namespaces/inkscape" version="1.1" width="576" height="784.8" viewBox="0 0 576 784.8">
<defs>
<clipPath id="clip_629">
<path transform="matrix(1,0,0,-1,-18,802.8)" d="M18 18H594V802.8H18Z" clip-rule="evenodd"/>
</clipPath>
<clipPath id="clip_630">
<path transform="matrix(.23999998,0,0,-.23999998,-18,802.8)" d="M340 2885H1173V1860H340Z"/>
</clipPath>
<clipPath id="clip_631">
<path transform="matrix(.23999998,0,0,-.23999998,-18,802.8)" d="M368 1389H1168.99V619H368Z"/>
</clipPath>
<clipPath id="clip_632">
<path transform="matrix(1,0,0,-1,259.314,763.9998)" d="M0-8H57.372V.800049H0Z"/>
</clipPath>
</defs>
<g clip-path="url(#clip_629)">
<path transform="matrix(.23999998,0,0,-.23999998,-18,802.8)" d="M2 2H2548V214.67H2Z" fill="#cbdf7f" fill-rule="evenodd"/>
<path transform="matrix(.23999998,0,0,-.23999998,-18,802.8)" stroke-width="4" stroke-linecap="butt" stroke-miterlimit="1000" stroke-linejoin="miter" fill="none" stroke="#cbdf7f" d="M2 2H2548V214.67H2Z"/>
<path transform="matrix(.23999998,0,0,-.23999998,-18,802.8)" d="M0 3035.83H2550V3372.7003H0Z" fill="#d1d3d4" fill-rule="evenodd"/>
<path transform="matrix(.23999998,0,0,-.23999998,-18,802.8)" d="M0 3078.33H2550V3420H0Z" fill="#e1ecb6" fill-rule="evenodd"/>
<path transform="matrix(.23999998,0,0,-.23999998,62.63616,53.635194)" d="M0 0C7.32 7.32 16.16 10.98 26.52 10.98H97.35C107.71 10.98 116.55 7.32 123.87 0 131.19-7.33 134.85-16.17 134.85-26.52V-101.52C134.85-111.88 131.19-120.72 123.87-128.04 116.55-135.36 107.71-139.02 97.35-139.02H26.52C16.16-139.02 7.32-135.36 0-128.04-7.32-120.72-10.98-111.88-10.98-101.52V-26.52C-10.98-16.17-7.32-7.33 0 0" fill="#ffffff" fill-rule="evenodd"/>
<text fill="#231f20" xml:space="preserve" transform="matrix(1 0 -0 1 -18 802.8)" font-size="11" font-family="Bookman"><tspan y="-729.361" x="87.12 94.409999 101.69999">170</tspan></text>
<text fill="#231f20" xml:space="preserve" transform="matrix(1 0 -0 1 -18 802.8)" font-size="11" font-family="Bookman"><tspan y="-729.361" x="513.12">B</tspan></text>
<text fill="#231f20" xml:space="preserve" transform="matrix(1 0 -0 1 -18 802.8)" font-size="7.69999" font-family="Bookman"><tspan y="-729.361" x="521.04 523.4336 529.3692 533.76486 539.70046 545.63607">IOLOGY</tspan></text>
<path transform="matrix(.23999998,0,0,-.23999998,-18,.35998536)" stroke-width="1" stroke-linecap="butt" stroke-miterlimit="10" stroke-linejoin="miter" fill="none" stroke="#000000" d="M0 0H60"/>
<path transform="matrix(.23999998,0,0,-.23999998,.12000084,-18)" stroke-width="1" stroke-linecap="butt" stroke-miterlimit="10" stroke-linejoin="miter" fill="none" stroke="#000000" d="M0 0V-60"/>
<path transform="matrix(.23999998,0,0,-.23999998,-18,784.68)" stroke-width="1" stroke-linecap="butt" stroke-miterlimit="10" stroke-linejoin="miter" fill="none" stroke="#000000" d="M0 0H60"/>
<path transform="matrix(.23999998,0,0,-.23999998,.12000084,788.16)" stroke-width="1" stroke-linecap="butt" stroke-miterlimit="10" stroke-linejoin="miter" fill="none" stroke="#000000" d="M0 0V-60"/>
<path transform="matrix(.23999998,0,0,-.23999998,593.64,784.56)" stroke-width="1" stroke-linecap="butt" stroke-miterlimit="10" stroke-linejoin="miter" fill="none" stroke="#000000" d="M0 0V-75"/>
<text fill="#231f20" xml:space="preserve" transform="matrix(1 0 -0 1 -18 802.8)" font-size="10.5" font-family="Bookman"><tspan y="-687.6" x="319.44 325.88893 332.7578 338.15675 340.61817 346.22709 350.78599 356.6049 364.7338 368.66273 375.53163 377.99305 382.55195 388.58085 392.50978 397.9087 400.37013 405.76905 412.63795 418.45686 426.58576 431.98469 434.4461 440.475 447.3439 449.80534 452.89424 459.76313 465.16206 469.72096 475.11988 481.14878 486.54768 491.9466 494.40803 498.33695 505.20585 511.23475 515.16366 517.62509 527.43399 533.4629 539.0718 541.5332 547.9821">The growth rate shows an increase that may be</tspan><tspan y="-673.681" x="301.44 307.5082 312.1064 315.23463 319.20283 326.11103 335.95924 341.39744 345.36564 348.49385 353.93205 356.43275 362.29096 366.88917 369.38987 375.03807 380.47627 386.33448 396.18269 401.62089 405.58909 410.1873 413.3155 418.7537 424.8219 427.9501 430.4508 433.579 440.27723 443.40544 449.05363 456.1718 460.77003 466.20823 468.70893 475.1971 481.6853 485.0235 491.5117 494.6399">arithmetic or geometrical (Figure 13.4).</tspan><tspan y="-659.761" x="319.44 323.2165 330.353 335.5995 341.89598 346.72245 350.07893 354.27543 361.41194 371.4884 377.1549 381.3514 384.7079 390.3744 395.62089 401.49739 406.32386 412.41035 420.80683 425.00334 432.13984 435.70634 440.95283 444.51933 450.6058 453.96229 457.31877 463.40525 471.80174 475.1582 482.2947 488.1712 493.4177 503.49418 506.85066 511.04716 517.13369 521.33016 524.68667 530.35317 535.5996 541.2661 546.9326 550.2891">In arithmetic growth, following mitotic cell</tspan><tspan y="-645.6" x="301.44 307.8959 310.99183 316.39775 319.49366 324.89958 327.99549 333.82139 340.6973 344.0032 346.47343 352.29933 359.17524 362.27116 367.88706 370.35728 376.18318 383.05909 388.465 390.9352 397.3911 403.42704 410.51295 416.12886 423.00477 426.94068 432.3466 436.9125 439.38273 444.78865 450.19456 453.29048 456.38639 458.8566 464.2625 470.0884 476.96434 480.90025 483.99617 490.87208 497.95799 503.3639 508.7698 511.24006 515.17599 521.0019 523.4721 529.92807 533.0239 538.4298 541.5257 547.9816">division, only one daughter cell continues to divide</tspan><tspan y="-631.681" x="301.44 309.6352 316.5704 319.72563 322.88084 328.34605 333.38624 337.38145 344.31666 349.78187 354.82206 360.70726 364.70246 371.63768 377.10289 381.7281 386.76829 393.28349 396.4387 399.8039 403.1691 408.6343 413.25953 418.72474 425.65995 429.65516 432.81037 438.90559 442.9008 448.366 453.8312 458.8714 464.9666 471.90184 478.41703 483.4572 493.33244 499.42765 503.42286 510.56806 515.19326 520.65847 526.12368 529.48886 534.529 541.0442 547.9794">while the other differentiates and matures. The</tspan><tspan y="-617.761" x="301.44 307.45 311.15003 321.57005 328.63005 332.33006 338.34007 344.35008 348.89009 354.48008 360.49009 366.92008 373.98008 379.1501 385.1601 391.1701 397.1801 400.88014 407.31013 414.79014 420.38014 426.81013 430.72013 436.31013 442.95014 448.12016 451.82017 456.36018 463.84019 474.2602 480.2702 484.8102 488.51023 494.52024 500.11024 506.33024 511.50025 517.93026 526.6702 531.2102 538.6902 544.28018 547.98019">simplest expression of arithmetic growth is</tspan><tspan y="-603.6" x="301.44 306.8584 312.6968 318.1152 327.9436 334.41203 337.52043 340.6288 343.94725 347.05564 352.47404 358.94245 361.42338 367.89179 373.5202 376.00114 382.04954 384.53047 389.10887 394.94728 400.78569 404.7341 407.21504 412.63343 415.74183 421.58024 428.46864 434.09706 440.14546 444.09388 447.20228 454.09068 459.7191 462.2 468.2484 472.19685 474.67778 480.72618 483.2071 488.6255 494.4639 501.3523 506.7707 510.71913 516.7675 523.65597 527.6044 530.0853 534.66378 540.71218 544.6606 550.079">exemplified by a root elongating at a constant rate.</tspan><tspan y="-589.681" x="301.44 307.7394 313.61885 319.49827 326.00767 329.30039 335.3898 339.3792 342.67195 349.39137 352.54078 358.21018 365.34959 369.969 375.4284 378.72114 385.23054 391.73994 395.09934 401.60874 404.96815 408.26087 416.66029 423.5897 426.88243 433.3918 436.54124 442.42066 446.41007 450.39949 453.5489 460.4783 466.1477 469.44044 473.42985 480.35926 485.81867 489.1114 492.2608 497.7202 504.64964 510.31904 514.3084 521.2378 524.5305 530.4099 533.76937 537.0621 541.05148 547.98086">Look at Figure 13.5. On plotting the length of the</tspan><tspan y="-575.761" x="301.44 307.4115 312.123 317.8845 324.06599 331.0875 336.2175 342.399 348.1605 354.34199 357.58348 364.60499 370.1565 374.238 379.368 383.44953 386.691 396.6525 402.204 405.65553 410.78553 416.967 422.09703 425.3385 428.58 435.6015 441.153 447.3345 452.046 457.176 462.7275 469.959 474.6705 480.22203 485.77354 490.90354 494.14503 499.69654 504.82655 510.79804 517.39956 521.481 527.66256 530.90408 537.92556 543.47708 550.07858">organ against time, a linear curve is obtained.</tspan><tspan y="-561.6" x="301.44 311.0515 317.09303 321.03453 327.91603 333.3275 343.14903 349.19053 353.13203 356.23353 361.64503 367.68653 370.78804 373.88954 379.51106 382.82258 385.2966 388.3981 392.3396 394.81364 397.91514 403.32664 405.80067 411.21217 417.04368 423.5052 428.0767 433.4882 438.8997 444.3112 449.7227 456.1842 458.65824 464.69975">Mathematically, it is expressed as</tspan><tspan y="-543.6" x="301.44">L</tspan></text>
<text fill="#231f20" xml:space="preserve" transform="matrix(1 0 -0 1 -18 802.8)" font-size="6.1" font-family="Bookman"><tspan y="-540.241" x="307.92">t</tspan></text>
<text fill="#231f20" xml:space="preserve" transform="matrix(1 0 -0 1 -18 802.8)" font-size="10.5" font-family="Bookman"><tspan y="-543.6" x="310.08 312.66999 318.94999 321.53999"> = L</tspan></text>
<text fill="#231f20" xml:space="preserve" transform="matrix(1 0 -0 1 -18 802.8)" font-size="6.1" font-family="Bookman"><tspan y="-540.241" x="327.84">0</tspan></text>
<text fill="#231f20" xml:space="preserve" transform="matrix(1 0 -0 1 -18 802.8)" font-size="10.5" font-family="Bookman"><tspan y="-543.6" x="331.68 334.285 340.605 343.21003 347.85005"> + rt</tspan><tspan y="-525.6" x="301.44">L</tspan></text>
<text fill="#231f20" xml:space="preserve" transform="matrix(1 0 -0 1 -18 802.8)" font-size="6.1" font-family="Bookman"><tspan y="-522.241" x="307.92">t</tspan></text>
<text fill="#231f20" xml:space="preserve" transform="matrix(1 0 -0 1 -18 802.8)" font-size="10.5" font-family="Bookman"><tspan y="-525.6" x="310.08 312.5865 318.873 321.3795 324.516 329.9625 336.879 342.5355 346.512 353.4285 355.935 362.0115 365.988 368.4945 372.471 375.6075 385.46403 390.91053 393.41703 395.71354 399.69004"> = length at time &#x2018;t&#x2019;</tspan><tspan y="-507.6" x="301.44">L</tspan></text>
<text fill="#231f20" xml:space="preserve" transform="matrix(1 0 -0 1 -18 802.8)" font-size="6.1" font-family="Bookman"><tspan y="-504.241" x="307.92">0</tspan></text>
<text fill="#231f20" xml:space="preserve" transform="matrix(1 0 -0 1 -18 802.8)" font-size="10.5" font-family="Bookman"><tspan y="-507.6" x="311.52 314.03999 320.33998 322.85997 326.00996 331.46995 338.39994 344.06996 348.05995 354.98994 357.50993 363.5999 367.5899 370.1099 374.09989 377.24989 387.11988 392.57987 395.09986 397.40986 402.44987 407.90986 412.52986 418.40986"> = length at time &#x2018;zero&#x2019;</tspan><tspan y="-489.6" x="301.44 306.0555 308.7474 311.4393 314.1312 316.8231 323.1186 325.8105 331.47599 336.0915 341.96699 350.15248 354.13798 361.06349 363.75538 368.37089 374.4564 378.4419 383.8974 386.5893 392.8848 395.5767 401.0322 404.1777 410.0532 416.9787 422.6442 428.7297 432.7152 435.86073 441.7362 448.6617 451.3536 457.8591 463.3146 467.9301 470.622 477.7575 484.683 487.82853 491.81404 494.50593 498.49143 501.63694 511.50245 516.95797">r    = growth rate / elongation per unit time.</tspan><tspan y="-471.6" x="319.44 325.7395 331.199 335.1885 339.5194 346.6589 352.1184 356.4493 363.3788 369.2583 377.4478 381.77873 387.23823 392.69773 398.15724 402.48814 410.67765 417.60716 423.69667 427.68617 432.01707 438.94657 445.03608 451.54557 458.05506 463.51457 470.44407 475.90357 480.23448 483.38398 490.31349 494.64439 500.31388 505.77339 511.65287 521.52236 526.9818 530.9713 535.5908 538.7403 544.19979 550.28927">Let us now see what happens in geometrical</tspan><tspan y="-457.681" x="301.44 307.1088 311.7276 317.6064 325.79524 329.78404 336.71284 340.07164 342.62425 346.19303 353.12184 355.67445 365.54325 371.42207 376.88087 380.86967 383.42228 388.88108 394.54988 400.00868 403.99748 409.45628 419.32508 424.78388 428.14268 430.69529 434.68409 441.61289 447.0717 449.6243 452.7731 459.7019 462.8507 466.8395 469.9883 476.07713 479.22593 481.77854 487.44734 492.06614 497.94496 506.13377 510.12257 517.05136 519.60397 522.75277 528.21157 530.76419 536.22299 539.37179 545.25057">growth. In most systems, the initial growth is slow</tspan><tspan y="-443.761" x="301.44 304.5867 307.7334 313.8201 319.48683 322.15605 328.66276 335.58946 341.67616 347.13285 352.58955 355.73625 359.09297 361.76219 367.84889 374.77558 381.2823 383.9515 387.0982 391.08494 393.75416 396.90086 403.82756 409.28425 413.90095 419.35765 425.44435 430.90104 436.35774 441.81443 444.48365 449.10035 455.18705 461.69377 464.84046 471.34718 474.49388 480.16059 482.8298 486.81654 493.74324 499.19993 503.81663 509.27333 515.36007 518.71676 522.7034 528.16018 532.77688 535.44607 540.69277 543.36196 549.44869">(lag phase), and it increases rapidly thereafter &#x2013; at</tspan><tspan y="-429.6" x="301.44 307.3315 314.06303 316.38883 321.65034 327.33183 333.6433 339.3248 346.0563 351.3178 358.04933 361.84083 364.79234 370.68385 373.63536 375.96116 380.38267 386.27418 390.06568 395.32719 397.65299 400.6045 403.556 409.2375 414.70899 417.0348 422.71629 427.1378 429.4636 434.7251 440.4066 446.71809 452.39958 459.13108 464.39259 471.12409 474.9156 477.8671 483.7586 486.7101 489.03593 495.3474 502.07893 507.97044 513.23196 518.4934 521.4449 524.6064 526.9322 535.13369 540.39517 544.81668 550.0781">an exponential rate (log or exponential phase). Here,</tspan><tspan y="-415.681" x="301.44 307.8266 313.58323 317.44984 324.25645 326.65736 330.52397 337.33058 342.66719 345.06809 351.45469 355.9513 361.70793 367.25453 372.59114 379.39775 384.94435 387.34526 392.68186 398.01847 401.04508 404.0717 409.4083 411.8092 415.0458 420.80244 423.82905 426.85566 432.61228 440.6789 443.7055 450.51213 456.05873 458.45964 468.20625 471.23286 475.09947 480.85609 484.7227 487.7493 493.0859 495.48683 500.82344 506.16004 509.18666 512.21328 514.6142 521.0008 524.0274 529.364 532.3906 537.72726 540.75387 546.51046">both the progeny cells following mitotic cell division</tspan><tspan y="-401.761" x="301.44 306.0608 311.52159 315.51237 321.60316 324.75395 331.68473 335.2511 339.24189 346.17268 351.63346 355.19984 361.29063 367.80143 370.9522 374.103 377.25379 381.24458 386.91535 390.48173 394.4725 400.3533 403.91969 410.43049 413.58128 419.04206 422.19285 428.70365 434.16444 437.7308 443.8216 450.75239 457.26319 460.82957 466.29035 472.17115 479.10194 483.0927 486.2435 493.1743 500.31507 505.77586 509.34223 513.333 519.2138 522.78018 529.29098 535.17178 538.7381 544.1989 550.0797">retain the ability to divide and continue to do so.</tspan><tspan y="-387.6" x="301.44 309.835 315.71 323.895 329.34999 334.80497 340.25996 344.4 347.7597 350.5111 358.7008 361.8505 365.8402 372.7699 375.5213 378.671 381.82069 391.69038 394.84007 398.82978 404.28947 410.79917 413.55058 420.48027 427.61997 431.60969 436.22938 439.37907 444.83876 451.76844 455.75813 458.50953 463.9692 471.10893 477.61863 484.12834 487.278 492.94773 496.30744 499.05885 503.04853 509.9782 515.4379 518.18936 523.859 528.479 534.349 542.529 546.509">However, with limited nutrient supply, the growth</tspan><tspan y="-373.681" x="301.44 306.80104 309.85206 315.63307 323.72407 329.08509 331.5072 337.9182 343.69923 351.79023 358.62126 361.04338 364.09437 369.45539 375.44639 381.8574 384.9084 391.7394 397.31044 399.73255 403.62358 409.40458 411.8267 417.8177 420.2398 425.60084 429.49186 435.48286 439.37388 442.42488 448.20588 455.0369 461.0279 465.5489 471.1199 473.54203 479.95304 486.78407 492.77507 498.13609 503.4971 506.75813 509.18025 512.65127 515.91226 518.33438 526.42538 531.7864 534.2085 540.6195 543.67056 549.45156">slows down leading to a stationary phase. If we plot</tspan><tspan y="-359.761" x="301.44 305.1208 311.74159 316.89237 319.10429 325.30509 331.08589 335.39668 341.17747 350.73826 355.88905 359.56983 364.7206 369.0314 371.24333 376.81413 379.86494 382.07685 387.43766 391.74845 397.31925 405.20005 408.88084 415.50163 417.71354 423.49433 428.85514 434.63594 437.4767 444.0975 449.2483 452.92909 455.141 458.82179 461.66258 471.22337 476.37416 479.42497 481.63688 489.51768 494.66847 496.88038 502.24119 507.39198 511.07276 513.28469 519.0655 521.2774 524.9582 530.319 536.5198 539.3606 544.5114 550.29226">the parameter of growth against time, we get a typical</tspan><tspan y="-345.6" x="301.44 306.8935 310.037 315.7005 325.564 331.4375 334.581 341.0845 344.3023 350.1758 354.7893 358.0071 364.9306 369.1241 374.5776 381.71113 386.32463 391.7781 397.2316 400.4494 403.5929 410.3064 413.4499 419.1134 426.24693 430.8604 436.3139 439.5317 446.03523 452.53874 455.8922 462.39573 465.5392 468.8927 472.1105 479.24403 482.46183 487.9153 491.0588 496.72233 506.58583 512.4593 515.6028 522.10629 525.3241 530.7776 537.9111 542.5246 547.9781">sigmoid or S-curve (Figure 13.6). A sigmoid curve</tspan><tspan y="-331.681" x="301.44 304.5878 310.04563 313.39097 319.47877 322.8241 328.28193 335.20973 341.29753 345.9153 352.0031 357.46095 361.44877 366.9066 371.52439 374.67219 380.13 384.11784 387.26564 392.72346 396.0688 401.9466 405.3044 408.64976 411.79756 414.94535 420.40318 423.55097 430.47877 436.14659 439.4919 445.36973 449.98753 455.65534 461.74314 468.67094 471.81874 477.27656 487.14436 490.4897 496.1575 500.7753 506.6531 514.84097 517.9888 524.91659 530.58438 533.9296 537.07748 544.00527 547.3505">is a characteristic of living organism growing in a</tspan><tspan y="-317.761" x="301.44 308.1409 314.0018 317.76274 324.67366 329.06455 334.92546 337.84635 340.13978 345.37068 352.07157 357.30247 360.22337 364.61427 370.26518 376.96607 386.60697 391.83787 398.53877 402.29969 405.4306 407.72404 411.06495 414.82588 417.1193 420.0402 425.2711 427.5645 431.32545 436.76637 443.04728 445.96818 451.19908 457.05998 459.98088 462.2743 465.4052 471.05613 475.44703 477.74046 483.60136 486.52226 489.44316 491.73658 496.96748 502.19837 505.11927 508.04017 513.27108 516.402 518.69546 522.45639 525.37728 530.60818 535.83908 542.74996 547.98086">natural environment. It is typical for all cells, tissues</tspan><tspan y="-303.6" x="301.44 307.3309 314.0618 320.3727 322.69364 328.37455 332.79545 338.26637 344.15727 350.88816 356.14909 358.47 364.1509 367.31184 369.63276 375.52366 377.84458 384.1555 387.10639 392.99729 399.72819 403.5191 406.68003">and organs of a plant. </tspan></text>
<text fill="#231f20" xml:space="preserve" transform="matrix(1 0 -0 1 -18 802.8)" font-size="10.5" font-family="Bookman" font-style="italic"><tspan y="-303.6" x="408.96 416.505 423 429.495 431.79 438.075 443.73 450.22505 452.52006 456.07508 462.57008 465.4951 471.9901 478.27513 480.57014 486.22514 489.78016 492.07518 501.30018 506.95518 511.14018 516.79519 519.0902 524.74526 527.6702 536.89529 539.82028 542.74526 549.24026">Can you think of more similar</tspan><tspan y="-289.681" x="301.44 307.2338 313.0276 319.66139 329.02519 335.44898 338.51277 344.30656 350.10035 355.89414 358.56794 368.77174 375.40553 382.0393 385.7331 388.4069 394.8307 397.89448 404.52827 411.37205 414.04585 419.83964 423.53343 426.2072 432.841 435.5148 440.6786 447.31239 451.63618 457.42997 463.22377 465.89756 471.06135 477.69514 484.32893 487.00273 493.4265 499.2203 505.8541 508.5279 514.32168 520.1154 526.5392 532.33297 537.49679 541.19058 543.8644 546.92819">examples? What kind of a curve can you expect in</tspan><tspan y="-275.761" x="301.44 307.9715 312.50547 316.09696 320.31846 326.00996 331.70146 336.2354 341.9269 348.4584 354.1499 363.4114 366.3729 372.9044 378.80589 383.33985 389.03135 394.72285 401.25434 406.94584 412.63734 419.16883 425.70033 428.6618 433.19578 439.72727 444.78877 448.38026 451.34175 457.03324 459.99473 463.5862 466.5477 472.2392 477.9307">a tree showing seasonal activities?</tspan></text>
<text fill="#231f20" xml:space="preserve" transform="matrix(1 0 -0 1 -18 802.8)" font-size="10.5" font-family="Bookman"><tspan y="-261.6" x="301.44 307.949 314.878 320.337 322.9377 328.39674 334.27574 340.78474 346.66374 353.5927 359.05174 365.9807 369.96974 373.1187 379.2077 382.3567 384.9574 390.6264 395.2454 401.1244 409.3134 413.3024 420.23139 422.8321 428.2911 434.3801 441.30909 443.9098 450.4188 455.8778 458.47853 463.93754 469.81654 476.32554 480.94453 486.40354 491.86256 497.32157 502.78059 509.28959 511.89027 517.97927">The exponential growth can be expressed as</tspan><tspan y="-243.6" x="301.44">W</tspan></text>
<text fill="#231f20" xml:space="preserve" transform="matrix(1 0 -0 1 -18 802.8)" font-size="7.39999" font-family="Bookman"><tspan y="-240.241" x="311.52">1</tspan></text>
<text fill="#231f20" xml:space="preserve" transform="matrix(1 0 -0 1 -18 802.8)" font-size="10.5" font-family="Bookman"><tspan y="-243.6" x="316.32 318.82505 325.09507 327.6001"> = W</tspan></text>
<text fill="#231f20" xml:space="preserve" transform="matrix(1 0 -0 1 -18 802.8)" font-size="7.39999" font-family="Bookman"><tspan y="-240.241" x="337.68">0</tspan></text>
<text fill="#231f20" xml:space="preserve" transform="matrix(1 0 -0 1 -18 802.8)" font-size="10.5" font-family="Bookman"><tspan y="-243.6" x="342.24 344.69999"> e</tspan></text>
<text fill="#231f20" xml:space="preserve" transform="matrix(1 0 -0 1 -18 802.8)" font-size="7.39999" font-family="Bookman"><tspan y="-247.2" x="350.16 353.3485">rt</tspan></text>
<text fill="#231f20" xml:space="preserve" transform="matrix(1 0 -0 1 -18 802.8)" font-size="10.5" font-family="Bookman"><tspan y="-225.6" x="301.44">W</tspan></text>
<text fill="#231f20" xml:space="preserve" transform="matrix(1 0 -0 1 -18 802.8)" font-size="6.1" font-family="Bookman"><tspan y="-222.241" x="311.52">1</tspan></text>
<text fill="#231f20" xml:space="preserve" transform="matrix(1 0 -0 1 -18 802.8)" font-size="10.5" font-family="Bookman"><tspan y="-225.6" x="315.36 317.8429 324.1015 326.5844 329.903 333.01164 339.90025 345.94886 349.05747 351.54039 356.95899 360.0676 365.0662 370.4848 372.9677 376.07633 384.22496 389.64356 392.75218 398.38078 405.26939 409.218 412.5366 415.0195 421.9081 427.32673 430.43534 436.06394 442.95256 446.90116 450.21977 452.70268 459.59129 466.68989 476.5185 482.9871 488.4057 492.9843 495.46723 500.88584 504.83445 510.25306 513.57168"> = final size (weight, height, number etc.)</tspan><tspan y="-207.6" x="301.44">W</tspan></text>
<text fill="#231f20" xml:space="preserve" transform="matrix(1 0 -0 1 -18 802.8)" font-size="6.1" font-family="Bookman"><tspan y="-204.241" x="311.52">0</tspan></text>
<text fill="#231f20" xml:space="preserve" transform="matrix(1 0 -0 1 -18 802.8)" font-size="10.5" font-family="Bookman"><tspan y="-207.6" x="315.36 317.9149 324.21528 326.77018 329.92057 336.85096 340.00135 343.99174 347.14213 353.2325 356.3829 358.9378 364.3982 367.54859 372.589 378.04939 380.60429 386.69468 390.68507 393.23997 397.23036 404.16075 409.62113 412.17604 418.6864 424.1468 429.81718 432.96757 439.89796 446.82835 449.97874 456.90913 462.5795 465.1344 471.0148 474.37519 476.93009 480.92048 487.85087 493.31126 495.86616 502.37654 507.8369 512.4573 515.60769 521.48806"> = initial size at the beginning of the period</tspan><tspan y="-189.6" x="301.44 306.0506 308.89414 311.73768 314.5812 317.42475 320.26829 326.5589 329.40245 335.06306 339.67366 345.54426 353.72486 357.70549 364.6261 367.46965 372.08024 378.16084 382.14146">r     = growth rate</tspan><tspan y="-171.6" x="301.44 305.4314 308.24909 311.06678 313.88447 316.70216 319.51985 325.82124 328.63893 332.6303 335.7817 345.6531 351.1145 353.9322 359.8136 363.175 365.99269 371.66407 376.28547 382.16688 390.35829 394.34968">t     = time of growth</tspan><tspan y="-153.6" x="301.44 306.8941 309.6045 312.31489 315.02528 317.73567 324.02976 326.74015 333.24424 339.32835 344.78245 350.23655 352.94694 358.82106 362.17515 364.88554 371.80964 377.89375 381.87785 389.01194 393.62605 399.71015 402.85426 405.56465 408.70875 414.58287 420.24696 426.33106 430.94517 434.08927 438.07337 444.99748 454.86158">e    = base of natural logarithms</tspan><tspan y="-135.6" x="301.44 309.8374 315.2948 319.9122 325.3696 328.72703 332.45445 337.07185 340.79927 343.94667 349.40406 353.13148 357.11888 364.04627 369.50367 373.23109 377.84849 383.30589 386.45329 392.54069 396.52809 399.67549 405.13288 410.59028 414.3177 419.9851 424.6025 430.47993 438.66734 442.65473 449.58213 453.30955 457.92695 464.01435 468.00175 473.45915 477.18656 483.27397 490.20137 496.70878 500.4362 503.5836 509.041 512.7684 518.8558 522.0032 527.4606 533.33798 537.06539 541.0528 547.9802">Here, r is the relative growth rate and is also the</tspan><tspan y="-121.681" x="301.44 311.3092 316.7684 322.8576 328.3168 335.45603 340.07524 345.53443 348.45475 354.33396 357.69319 360.6135 364.6027 371.5319 376.9911 379.9114 386.0006 392.50984 395.65904 398.80824 401.95744 405.94664 411.61585 414.53617 420.41539 423.7746 426.69493 430.6841 437.6133 443.0725 445.99284 452.50205 455.65126 461.74046 468.66966 472.65885 475.57917 479.56837 485.44758 488.3679 494.8771 499.4963 505.37553 511.88475 519.0239 524.48318 529.9424 532.8627 539.7919 545.2511">measure of the ability of the plant to produce new</tspan><tspan y="-107.761" x="301.44 307.7005 310.601 316.44154 323.12205 326.86256 329.13737 338.75788 344.5984 348.3389 353.5494 357.91993 360.82044 366.66096 369.56147 372.67198 374.94679 379.3173 384.5278 387.6383 392.84883 397.21934 401.58985 406.80036 413.06086 415.33567 419.07618 424.7067 426.9815 432.82203 438.03254 440.30735 445.51786 448.62837 451.73887 454.63938 459.84989 462.7504 467.9609 474.64143 479.85194 485.27244 487.54725 490.44776 497.12828 503.38877 508.59928 514.2298 517.34036 519.6152 527.7657 532.9762 539.6567 544.8672 550.0777">plant material, referred to as efficiency index. Hence,</tspan><tspan y="-93.6" x="301.44 305.415 312.33003 317.77503 320.29505 323.64006 326.77507 333.69007 339.76509 342.9001 345.4201 350.8651 354.00013 359.02516 364.47016 366.99018 372.8552 376.2002 378.7202">the final size of W</tspan></text>
<text fill="#231f20" xml:space="preserve" transform="matrix(1 0 -0 1 -18 802.8)" font-size="6.1" font-family="Bookman"><tspan y="-90.241" x="388.8">1</tspan></text>
<text fill="#231f20" xml:space="preserve" transform="matrix(1 0 -0 1 -18 802.8)" font-size="10.5" font-family="Bookman"><tspan y="-93.6" x="392.64 395.13374 401.61903 407.05433 413.5396 418.9749 425.88023 432.3655 437.8008 440.29454 446.1498 453.0551 455.54884 459.51414 466.41944 471.85475 474.34846 477.47377 484.37907 487.50437 491.46968 494.59498 500.66029 503.78559 506.2793 511.7146 514.8399 519.8552 525.2905 528.62588 531.11959"> depends on the initial size, W</tspan></text>
<text fill="#231f20" xml:space="preserve" transform="matrix(1 0 -0 1 -18 802.8)" font-size="6.1" font-family="Bookman"><tspan y="-90.241" x="541.2">0</tspan></text>
<text fill="#231f20" xml:space="preserve" transform="matrix(1 0 -0 1 -18 802.8)" font-size="10.5" font-family="Bookman"><tspan y="-93.6" x="544.8">.</tspan></text>
<text fill="#231f20" xml:space="preserve" transform="matrix(1 0 -0 1 -18 802.8)" font-size="9.5" font-family="Bookman"><tspan y="-427.921" x="78.48 85.08971 88.65941 94.31911 100.73881 105.25851 110.918209 115.997898 122.417598 128.8373 132.217">Figure 13.5</tspan></text>
<text fill="#231f20" xml:space="preserve" transform="matrix(1 0 -0 1 -18 802.8)" font-size="9.5" font-family="Bookman"><tspan y="-427.921" x="144.48 151.50859 156.8272 163.0958 168.0344 171.64299 177.1516 183.4202 187.0288 189.71739 192.566 195.4146 201.6832 206.6218 212.1304 216.309 218.9976 224.1262 228.30481 233.62342 241.03202 244.64061 250.90921 253.94782 256.6364 262.14503 264.83363 270.72224 273.57084 278.88945">Constant linear growth, a plot</tspan><tspan y="-416.641" x="144.48 149.7999 152.8398 156.8097 159.65959 164.59949 170.86939 175.99929 179.60918 185.87908 189.84897 195.54888 199.51877 205.02867 210.15857 215.66847 218.51837 224.78827 229.72817 233.33806 237.30796 240.91785 243.76775 252.69765 257.63755 261.60743">of length L against time t</tspan></text>
<g clip-path="url(#clip_630)">
<path transform="matrix(.23999998,0,0,-.23999998,-18,802.8)" d="M466.74 1964.88H1168.45V2880.69H466.74Z" fill="#fffcd5" fill-rule="evenodd"/>
<path transform="matrix(.23995199,0,0,-.24004799,94.01823,111.43292)" stroke-width="2.08299" stroke-linecap="butt" stroke-miterlimit="2.613" stroke-linejoin="miter" fill="none" stroke="#231f20" d="M0 0H701.85V-915.63H0V0Z"/>
<path transform="matrix(.23995199,0,0,-.24004799,90.16028,125.33179)" stroke-width="2.08299" stroke-linecap="butt" stroke-miterlimit="2.613" stroke-linejoin="miter" fill="none" stroke="#231f20" d="M0 0H32.83"/>
<path transform="matrix(.23995199,0,0,-.24004799,90.17899,150.3064)" stroke-width="2.08299" stroke-linecap="butt" stroke-miterlimit="2.613" stroke-linejoin="miter" fill="none" stroke="#231f20" d="M0 0H32.83"/>
<path transform="matrix(.23995199,0,0,-.24004799,90.17899,175.29297)" stroke-width="2.08299" stroke-linecap="butt" stroke-miterlimit="2.613" stroke-linejoin="miter" fill="none" stroke="#231f20" d="M0 0H32.83"/>
<path transform="matrix(.23995199,0,0,-.24004799,90.17899,199.61463)" stroke-width="2.08299" stroke-linecap="butt" stroke-miterlimit="2.613" stroke-linejoin="miter" fill="none" stroke="#231f20" d="M0 0H32.83"/>
<path transform="matrix(.23995199,0,0,-.24004799,90.16028,223.93634)" stroke-width="2.08299" stroke-linecap="butt" stroke-miterlimit="2.613" stroke-linejoin="miter" fill="none" stroke="#231f20" d="M0 0H32.83"/>
<path transform="matrix(.23995199,0,0,-.24004799,90.17899,249.58307)" stroke-width="2.08299" stroke-linecap="butt" stroke-miterlimit="2.613" stroke-linejoin="miter" fill="none" stroke="#231f20" d="M0 0H32.83"/>
<path transform="matrix(.23995199,0,0,-.24004799,90.17899,274.56727)" stroke-width="2.08299" stroke-linecap="butt" stroke-miterlimit="2.613" stroke-linejoin="miter" fill="none" stroke="#231f20" d="M0 0H32.83"/>
<path transform="matrix(.23995199,0,0,-.24004799,90.16028,299.0089)" stroke-width="2.08299" stroke-linecap="butt" stroke-miterlimit="2.613" stroke-linejoin="miter" fill="none" stroke="#231f20" d="M0 0H32.83"/>
<path transform="matrix(.23995199,0,0,-.24004799,124.04535,335.9595)" stroke-width="2.08299" stroke-linecap="butt" stroke-miterlimit="2.613" stroke-linejoin="miter" fill="none" stroke="#231f20" d="M0 0-.03 35.18"/>
<path transform="matrix(.23995199,0,0,-.24004799,147.34131,335.91389)" stroke-width="2.08299" stroke-linecap="butt" stroke-miterlimit="2.613" stroke-linejoin="miter" fill="none" stroke="#231f20" d="M0 0-.03 35.18"/>
<path transform="matrix(.23995199,0,0,-.24004799,170.64569,335.88749)" stroke-width="2.08299" stroke-linecap="butt" stroke-miterlimit="2.613" stroke-linejoin="miter" fill="none" stroke="#231f20" d="M0 0-.03 35.18"/>
<path transform="matrix(.23995199,0,0,-.24004799,193.33126,335.86347)" stroke-width="2.08299" stroke-linecap="butt" stroke-miterlimit="2.613" stroke-linejoin="miter" fill="none" stroke="#231f20" d="M0 0-.03 35.18"/>
<path transform="matrix(.23995199,0,0,-.24004799,216.01775,335.85868)" stroke-width="2.08299" stroke-linecap="butt" stroke-miterlimit="2.613" stroke-linejoin="miter" fill="none" stroke="#231f20" d="M0 0-.03 35.18"/>
<path transform="matrix(.23995199,0,0,-.24004799,239.94123,335.81547)" stroke-width="2.08299" stroke-linecap="butt" stroke-miterlimit="2.613" stroke-linejoin="miter" fill="none" stroke="#231f20" d="M0 0-.04 35.19"/>
<path transform="matrix(.23995199,0,0,-.24004799,248.87223,124.748538)" stroke-width="2.08299" stroke-linecap="butt" stroke-miterlimit="2.613" stroke-linejoin="miter" fill="none" stroke="#231f20" d="M0 0-645.35-725.94"/>
<path transform="matrix(.23999998,0,0,-.23999998,112.404499,277.2049)" d="M0 0C2.55 0 4.64-2.09 4.64-4.64 4.64-7.2 2.55-9.28 0-9.28-2.55-9.28-4.64-7.2-4.64-4.64-4.64-2.09-2.55 0 0 0" fill="#a25642" fill-rule="evenodd"/>
<path transform="matrix(.23995199,0,0,-.24004799,112.40433,277.20539)" stroke-width="2.08299" stroke-linecap="butt" stroke-miterlimit="2.613" stroke-linejoin="miter" fill="none" stroke="#231f20" d="M0 0C2.56 0 4.64-2.08 4.64-4.64 4.64-7.2 2.56-9.28 0-9.28-2.55-9.28-4.64-7.2-4.64-4.64-4.64-2.08-2.55 0 0 0Z"/>
<path transform="matrix(.23999998,0,0,-.23999998,138.61322,247.71125)" d="M0 0C2.55 0 4.64-2.08 4.64-4.64 4.64-7.2 2.55-9.28 0-9.28-2.55-9.28-4.64-7.2-4.64-4.64-4.64-2.08-2.55 0 0 0" fill="#a25642" fill-rule="evenodd"/>
<path transform="matrix(.23995199,0,0,-.24004799,138.61309,247.71076)" stroke-width="2.08299" stroke-linecap="butt" stroke-miterlimit="2.613" stroke-linejoin="miter" fill="none" stroke="#231f20" d="M0 0C2.55 0 4.64-2.09 4.64-4.65 4.64-7.2 2.55-9.28 0-9.28-2.55-9.28-4.64-7.2-4.64-4.65-4.64-2.09-2.55 0 0 0Z"/>
<path transform="matrix(.23995199,0,0,-.24004799,151.48963,230.06964)" stroke-width="2.08299" stroke-linecap="butt" stroke-miterlimit="2.613" stroke-linejoin="miter" fill="none" stroke="#231f20" d="M0 0C2.56 0 4.64-2.09 4.64-4.64 4.64-7.2 2.56-9.28 0-9.28-2.56-9.28-4.64-7.2-4.64-4.64-4.64-2.09-2.56 0 0 0Z"/>
<path transform="matrix(.23999998,0,0,-.23999998,172.11194,210.01459)" d="M0 0C2.55 0 4.64-2.08 4.64-4.64 4.64-7.2 2.55-9.28 0-9.28-2.55-9.28-4.64-7.2-4.64-4.64-4.64-2.08-2.55 0 0 0" fill="#a25642" fill-rule="evenodd"/>
<path transform="matrix(.23995199,0,0,-.24004799,172.11182,210.01605)" stroke-width="2.08299" stroke-linecap="butt" stroke-miterlimit="2.613" stroke-linejoin="miter" fill="none" stroke="#231f20" d="M0 0C2.56 0 4.64-2.08 4.64-4.64 4.64-7.19 2.56-9.28 0-9.28-2.55-9.28-4.64-7.19-4.64-4.64-4.64-2.08-2.55 0 0 0Z"/>
<path transform="matrix(.23999998,0,0,-.23999998,185.14032,195.35297)" d="M0 0C2.56 0 4.64-2.09 4.64-4.64 4.64-7.2 2.56-9.28 0-9.28-2.55-9.28-4.64-7.2-4.64-4.64-4.64-2.09-2.55 0 0 0" fill="#a25642" fill-rule="evenodd"/>
<path transform="matrix(.23995199,0,0,-.24004799,185.14026,195.35388)" stroke-width="2.08299" stroke-linecap="butt" stroke-miterlimit="2.613" stroke-linejoin="miter" fill="none" stroke="#231f20" d="M0 0C2.56 0 4.64-2.08 4.64-4.64 4.64-7.2 2.56-9.28 0-9.28-2.55-9.28-4.64-7.2-4.64-4.64-4.64-2.08-2.55 0 0 0Z"/>
<path transform="matrix(.23999998,0,0,-.23999998,228.62401,146.41938)" d="M0 0C2.56 0 4.64-2.09 4.64-4.64 4.64-7.2 2.56-9.28 0-9.28-2.55-9.28-4.64-7.2-4.64-4.64-4.64-2.09-2.55 0 0 0" fill="#a25642" fill-rule="evenodd"/>
<path transform="matrix(.23995199,0,0,-.24004799,228.62509,146.4201)" stroke-width="2.08299" stroke-linecap="butt" stroke-miterlimit="2.613" stroke-linejoin="miter" fill="none" stroke="#231f20" d="M0 0C2.55 0 4.64-2.08 4.64-4.64 4.64-7.2 2.55-9.28 0-9.28-2.56-9.28-4.64-7.2-4.64-4.64-4.64-2.08-2.56 0 0 0Z"/>
<path transform="matrix(.23999998,0,0,-.23999998,244.01999,131.09058)" d="M0 0C2.55 0 4.64-2.08 4.64-4.64 4.64-7.2 2.55-9.28 0-9.28-2.56-9.28-4.64-7.2-4.64-4.64-4.64-2.08-2.56 0 0 0" fill="#a25642" fill-rule="evenodd"/>
<path transform="matrix(.23995199,0,0,-.24004799,244.02036,131.09064)" stroke-width="2.08299" stroke-linecap="butt" stroke-miterlimit="2.613" stroke-linejoin="miter" fill="none" stroke="#231f20" d="M0 0C2.55 0 4.64-2.08 4.64-4.64 4.64-7.19 2.55-9.28 0-9.28-2.56-9.28-4.64-7.19-4.64-4.64-4.64-2.08-2.56 0 0 0Z"/>
<path transform="matrix(.23999998,0,0,-.23999998,124.46158,263.63539)" d="M0 0C2.55 0 4.64-2.09 4.64-4.65 4.64-7.2 2.55-9.29 0-9.29-2.55-9.29-4.64-7.2-4.64-4.65-4.64-2.09-2.55 0 0 0" fill="#a25642" fill-rule="evenodd"/>
<path transform="matrix(.23995199,0,0,-.24004799,124.461658,263.63557)" stroke-width="2.08299" stroke-linecap="butt" stroke-miterlimit="2.613" stroke-linejoin="miter" fill="none" stroke="#231f20" d="M0 0C2.55 0 4.64-2.09 4.64-4.65 4.64-7.2 2.55-9.29 0-9.29-2.56-9.29-4.64-7.2-4.64-4.65-4.64-2.09-2.56 0 0 0Z"/>
<path transform="matrix(.23995199,0,0,-.24004799,124.42229,261.04304)" stroke-width="2.08299" stroke-linecap="butt" stroke-miterlimit="2.613" stroke-linejoin="miter" fill="none" stroke="#231f20" d="M0 0C2.55 0 4.64-2.08 4.64-4.64 4.64-7.2 2.55-9.28 0-9.28-2.56-9.28-4.64-7.2-4.64-4.64-4.64-2.08-2.56 0 0 0Z"/>
<path transform="matrix(.23995199,0,0,-.24004799,82.10916,181.6784)" stroke-width="2.08299" stroke-linecap="butt" stroke-miterlimit="2.613" stroke-linejoin="miter" fill="none" stroke="#231f20" d="M0 0V-281.87"/>
<path transform="matrix(.23999998,0,0,-.23999998,84.74255,182.0954)" d="M0 0-10.97 19.96-21.95 0H0" fill="#231f20" fill-rule="evenodd"/>
<path transform="matrix(.23995199,0,0,-.24004799,143.59133,342.6883)" stroke-width="2.08299" stroke-linecap="butt" stroke-miterlimit="2.613" stroke-linejoin="miter" fill="none" stroke="#231f20" d="M0 0 232.15 .94"/>
<path transform="matrix(.23999998,0,0,-.23999998,198.86997,339.83073)" d="M0 0 19.99-10.9 .09-21.95 0 0" fill="#231f20" fill-rule="evenodd"/>
<path transform="matrix(.23995199,0,0,-.24004799,86.61736,299.1052)" stroke-width="2.08299" stroke-linecap="butt" stroke-miterlimit="2.613" stroke-linejoin="miter" fill="none" stroke="#231f20" d="M0 0-22.07 .37-22.44-133.89-.37-134.26"/>
<path transform="matrix(.23999998,0,0,-.23999998,69.705089,257.14595)" d="M0 0C1.03 0 2.73 .08 3.68-.39 4.75-.95 4.87-2.06 4.98-3.12V-3.52H6.17V7.64H4.98L4.94 6.97C4.71 3.73 2.65 3.96 0 3.96H-7.48V18.17H0C1.03 18.17 2.73 18.21 3.68 17.74 4.75 17.18 4.91 16.07 4.98 15.01V14.61H6.17V25.69H4.98L4.94 25.1C4.71 21.85 2.61 22.13 0 22.13H-14.6C-15.63 22.13-17.33 22.05-18.28 22.57-19.35 23.08-19.47 24.23-19.59 25.3V25.69H-20.77V14.61H-19.59L-19.55 15.2C-19.31 18.45-17.21 18.17-14.56 18.17H-9.14V3.96H-14.56C-15.63 3.96-17.33 3.92-18.28 4.4-19.39 4.95-19.51 6.1-19.59 7.21V7.64H-20.77V-3.52H-19.59L-19.55-2.93C-19.31 .28-17.21 0-14.6 0H0" fill="#231f20" fill-rule="evenodd"/>
<path transform="matrix(.23999998,0,0,-.23999998,68.44221,246.02198)" d="M0 0C-4.95 .08-8.15-3.76-8.11-8.51-8.07-14.36-3.96-17.97 1.78-17.97 4.47-17.97 7.24-16.94 9.18-15 11.04-13.06 11.75-10.72 11.75-8.07 11.75-4.71 10.13-1.42 7 0L6.33-1.3C8.66-2.57 9.97-4.43 9.97-7.12 9.97-9.06 9.14-11.04 7.51-12.15 5.97-13.18 3.84-13.85 2.01-13.85L0-13.77V0ZM-1.62-13.69C-4.16-13.41-6.49-11.55-6.49-8.75-6.49-6.05-4.55-4.19-1.62-4.19V-13.69" fill="#231f20" fill-rule="evenodd"/>
<path transform="matrix(.23999998,0,0,-.23999998,66.58965,243.79712)" d="M0 0V-1.27L.87-7.33H2.06V-6.7C2.22-4.2 3.68-3.8 5.9-3.8H14.12C16.54-3.8 17.8-4.2 17.96-6.81V-7.17H19.15L19.16 3.28H17.97L17.96 2.8C17.77 .35 16.3 0 14.12 0H0ZM-4.27 .51C-5.62 .51-6.73-.48-6.73-1.86-6.73-3.09-5.66-4.24-4.43-4.24-3.09-4.24-1.98-3.29-1.98-1.9-1.98-.64-2.96 .51-4.27 .51" fill="#231f20" fill-rule="evenodd"/>
<path transform="matrix(.23999998,0,0,-.23999998,70.53188,240.93872)" d="M0 0C-.12-.95-.28-3.13-1.66-3.13-2.57-3.13-3.44-2.02-3.76-1.23-3.32-.04-3.12 1.07-3.12 2.34-3.12 4.36-3.48 6.53-4.79 8.11-5.94 9.58-7.91 10.53-9.77 10.53-12.34 10.53-14.25 9.26-15.71 7.24-16.3 7.76-17.21 8.51-17.21 9.34-17.21 10.17-16.5 10.93-16.5 11.84-16.5 12.71-17.21 13.3-18 13.3-19.27 13.3-19.7 12.03-19.7 10.96-19.7 8.83-18 7.01-16.18 6.05-16.58 4.91-16.82 3.68-16.82 2.45-16.82-1.62-14.25-5.34-9.85-5.5-7.48-5.58-5.38-4.39-4.19-2.38-3.84-4.36-2.34-6.25-.16-6.25 1.58-6.25 2.65-4.91 3.05-3.36H3.13C3.72-5.23 5.03-7.48 7.28-7.48 11.55-7.48 12.35-.71 12.35 2.49 12.35 6.73 11.16 13.14 5.74 13.14 1.9 13.14 1.3 9.78 .91 6.77L0 0ZM-15.39 2.61C-15.39 5.98-12.9 6.69-10.01 6.69-8.9 6.69-7.28 6.57-6.29 6.05-5.07 5.42-4.43 3.96-4.43 2.61-4.43-.87-6.93-1.66-9.89-1.66-12.66-1.66-15.39-.67-15.39 2.61ZM4.43 5.9C4.63 7.52 4.87 10.37 7.09 10.37 10.53 10.37 11.08 5.23 11.08 2.73 11.08 .2 10.49-5.11 7-5.11 5.3-5.11 3.96-3.4 3.48-1.9L4.43 5.9" fill="#231f20" fill-rule="evenodd"/>
<path transform="matrix(.23999998,0,0,-.23999998,67.97708,232.43555)" d="M0 0C-1.86 0-3.6 .03-4.83-1.59-5.74-2.77-6.17-4.56-6.17-6.02-6.17-9.11-4.83-11.8-2.85-14.06H-15V-15.64C-14.24-17.5-13.92-19.44-13.69-21.38H-12.5L-12.46-20.82C-12.23-17.58-10.13-17.86-7.51-17.86H8.35C10.88-17.86 12.07-18.33 12.19-20.98V-21.42H13.37V-10.85H12.19V-11.36C12.03-13.78 10.53-14.06 8.35-14.06H-.99C-2.57-12.47-4.11-9.38-4.11-7.09-4.11-6.14-3.76-5.07-3.01-4.44-2.1-3.77-.87-3.81 .2-3.81H8.35C10.88-3.81 12.07-4.24 12.19-6.89V-7.37H13.37V3.24H12.19V2.77C11.99 .31 10.53 0 8.35 0H0" fill="#231f20" fill-rule="evenodd"/>
<path transform="matrix(.23999998,0,0,-.23999998,66.59061,228.24756)" d="M0 0V-5.62H-7.24V-7.32C-3.36-7.32-.16-8.19 0-12.74H1.27V-9.42H14.21C15.94-9.42 17.49-9.26 18.52-7.68 19.19-6.57 19.47-5.06 19.47-3.76 19.47-1.62 18.68 .51 16.89 1.82L16.03 .83C16.98-.12 17.77-1.18 17.77-2.61 17.77-5.62 14.6-5.62 12.39-5.62H1.27V0H0" fill="#231f20" fill-rule="evenodd"/>
<path transform="matrix(.23999998,0,0,-.23999998,66.49676,222.20435)" d="M0 0C0-6.1 4.27-9.54 10.17-9.54 15.98-9.54 19.86-5.74 19.86 .12 19.86 6.09 15.98 9.81 10.01 9.81 7.36 9.81 4.39 8.86 2.49 6.92 .71 5.1 0 2.45 0 0ZM1.58 .27C1.58 2.21 2.85 3.87 4.55 4.71 6.21 5.54 8.51 5.7 10.33 5.7 13.81 5.7 18.28 4.71 18.28 .39 18.28-4.32 13.89-5.43 10.05-5.43 6.41-5.43 1.5-4.32 1.58 .27" fill="#231f20" fill-rule="evenodd"/>
<path transform="matrix(.23999998,0,0,-.23999998,66.59156,216.67713)" d="M0 0V-3.91H-3.68C-4.98-3.91-6.33-4-7.28-3.04-7.75-2.57-8.19-1.78-8.19-1.11-8.19 .84-5.89 .79-5.89 2.66-5.89 3.61-6.64 4.52-7.64 4.52-9.26 4.52-9.89 2.46-9.89 1.15-9.89-1.3-8.94-4.27-7.2-6.01-5.38-7.84-3.2-7.72-.79-7.72H0V-11.08H1.27V-7.72H14.12C16.5-7.72 17.8-8.15 17.96-10.72V-11.08H19.15V-.59H17.96L17.93-1.14C17.76-3.6 16.3-3.91 14.12-3.91H1.27V0H0" fill="#231f20" fill-rule="evenodd"/>
<path transform="matrix(.23999998,0,0,-.23999998,66.59252,210.1972)" d="M0 0V-5.62H-7.24V-7.32C-3.36-7.32-.16-8.2 0-12.75H1.26L1.27-9.42H14.21C15.94-9.42 17.49-9.26 18.52-7.68 19.19-6.57 19.47-5.07 19.47-3.76 19.47-1.63 18.68 .51 16.89 1.82L16.03 .83C16.98-.12 17.76-1.19 17.76-2.61 17.76-5.62 14.6-5.62 12.39-5.62H1.27V0H0" fill="#231f20" fill-rule="evenodd"/>
<path transform="matrix(.23999998,0,0,-.23999998,67.979007,204.50678)" d="M0 0C-1.86 0-3.6 .04-4.83-1.59-5.74-2.77-6.17-4.55-6.17-6.02-6.17-9.1-4.83-11.8-2.85-14.05H-15V-15.64C-14.24-17.5-13.93-19.44-13.69-21.37H-12.5L-12.46-20.82C-12.23-17.58-10.13-17.85-7.52-17.85H8.35C10.88-17.85 12.07-18.33 12.19-20.98V-21.42H13.37V-10.85H12.19V-11.36C12.03-13.78 10.53-14.05 8.35-14.05H-.99C-2.57-12.47-4.11-9.38-4.11-7.09-4.11-6.14-3.76-5.07-3.01-4.44-2.1-3.76-.87-3.8 .2-3.8H8.35C10.88-3.8 12.07-4.24 12.19-6.89V-7.36H13.37V3.24H12.19V2.77C11.99 .31 10.53 0 8.35 0H0" fill="#231f20" fill-rule="evenodd"/>
<path transform="matrix(.23999998,0,0,-.23999998,68.44509,198.90271)" d="M0 0C-4.95 .08-8.15-3.76-8.11-8.51-8.07-14.36-3.96-17.97 1.78-17.97 4.47-17.97 7.24-16.94 9.17-15 11.04-13.06 11.75-10.72 11.75-8.07 11.75-4.71 10.13-1.42 7 0L6.33-1.3C8.66-2.57 9.97-4.43 9.97-7.12 9.97-9.06 9.14-11.04 7.51-12.15 5.97-13.18 3.83-13.85 2.01-13.85L0-13.77V0ZM-1.62-13.69C-4.16-13.42-6.49-11.56-6.49-8.75-6.49-6.05-4.55-4.19-1.62-4.19V-13.69" fill="#231f20" fill-rule="evenodd"/>
<path transform="matrix(.23999998,0,0,-.23999998,70.80093,193.63953)" d="M0 0C1.3 1.7 1.94 3.72 1.94 5.94 1.94 11.76-2.61 14.96-8.07 14.96-13.41 14.96-17.93 11.99-17.93 6.26-17.93 3.72-16.82 1.54-15 0H-17.53V-1.27L-16.66-7.32H-15.47V-6.69C-15.31-4.19-13.85-3.8-11.63-3.8H5.62C7.99-3.8 9.3-4.24 9.46-6.81V-7.16H10.64V3.76H9.46L9.42 2.97C9.3 .4 8.03 0 5.62 0H0ZM-12.98 0C-14.72 1.11-15.99 3.01-15.99 5.19-15.99 9.82-11.59 10.85-7.84 10.85-3.8 10.85 .04 9.38 .04 4.79 .04 2.89-.75 1.27-1.98 0H-12.98" fill="#231f20" fill-rule="evenodd"/>
<path transform="matrix(.23999998,0,0,-.23999998,64.38093,187.74994)" d="M0 0V-1.58C.75-3.44 1.07-5.38 1.31-7.32H2.49L2.53-6.77C2.77-3.52 4.87-3.8 7.48-3.8H23.34C25.72-3.8 26.98-4.23 27.18-6.81V-7.16H28.37V3.21H27.18L27.14 2.73C26.98 .32 25.48 0 23.34 0H0" fill="#231f20" fill-rule="evenodd"/>
<path transform="matrix(.23999998,0,0,-.23999998,70.69677,181.45227)" d="M0 0C.32-.47 .59-1.02 .59-1.62 .59-3.56-1.9-3.79-3.57-3.79H-11.32C-13.53-3.79-15.04-3.99-16.19-6.13-16.98-7.59-17.53-9.77-17.49-11.43-17.45-13.22-17.06-15.35-16.34-17.02-15.75-18.4-14.28-20.22-12.62-20.22-11.64-20.22-10.88-19.31-10.88-18.36-10.88-16.86-11.95-16.34-13.26-16.34H-13.77C-15.28-16.34-15.87-13.77-15.87-12.54-15.87-11.36-15.71-10.01-15.04-8.98-14.28-7.87-13.26-7.68-12.03-7.59H-9.18L-8.87-10.52C-8.63-12.78-8.19-15.07-7.24-17.17-6.25-19.43-4.99-21.09-2.3-21.09 .87-21.09 2.37-17.81 2.37-15.04 2.37-12.07 1.34-9.93-.48-7.59 1.46-7 2.33-5.22 2.37-3.28 2.42-1.97 1.98-.24 1.03 .76L0 0ZM-2.22-7.59C-.84-9.22 .43-11.36 .43-13.49 .43-15.39-.75-17.09-2.77-17.09-6.69-17.09-7.52-10.6-7.8-7.59H-2.22" fill="#231f20" fill-rule="evenodd"/>
<path transform="matrix(.23999998,0,0,-.23999998,67.86741,175.97064)" d="M0 0C-1.66 0-2.97-.2-4.12-1.54-5.14-2.69-5.7-4.27-5.7-5.81-5.7-9.1-4.39-11.87-2.18-14.25H-5.3V-15.51L-4.43-21.57H-3.25V-20.93C-3.09-18.44-1.62-18.05 .59-18.05H8.82C11.32-18.05 12.54-18.52 12.66-21.13V-21.57H13.85V-10.84H12.66V-11.4C12.5-13.89 11.04-14.25 8.82-14.25H-.48C-2.14-12.34-3.64-9.81-3.64-7.2-3.64-6.13-3.17-5.02-2.22-4.43-1.35-3.91-.36-3.8 .67-3.8H8.82C11.04-3.8 12.5-4.15 12.66-6.65V-7.2H13.85V3.33H12.66V2.81C12.5 .36 11 0 8.86 0H0" fill="#231f20" fill-rule="evenodd"/>
<path transform="matrix(.23999998,0,0,-.23999998,66.59446,171.81867)" d="M0 0V-5.62H-7.24V-7.32C-3.36-7.32-.16-8.19 0-12.75H1.27V-9.42H14.21C15.94-9.42 17.49-9.26 18.52-7.68 19.19-6.57 19.47-5.07 19.47-3.76 19.47-1.62 18.67 .52 16.89 1.82L16.03 .83C16.98-.12 17.76-1.19 17.76-2.61 17.76-5.62 14.6-5.62 12.39-5.62H1.27V0H0" fill="#231f20" fill-rule="evenodd"/>
<path transform="matrix(.23999998,0,0,-.23999998,169.80284,349.03236)" d="M0 0H-22.99L-25.21-6.97-23.9-7.44C-22.12-4-19.15-1.54-15.11-1.54-13.49-1.54-13.45-2.22-13.45-3.56V-20.78C-13.45-21.81-13.41-23.51-13.89-24.47-14.44-25.61-15.71-25.65-16.82-25.73L-17.57-25.77V-26.96H-5.3V-25.73H-6.13C-7.28-25.65-8.59-25.61-9.14-24.34-9.53-23.4-9.5-21.81-9.5-20.78V-3.76C-9.5-2.38-9.62-1.5-7.95-1.5-4.07-1.5-.91-4.12 .79-7.44L2.21-6.97 0 0" fill="#231f20" fill-rule="evenodd"/>
<path transform="matrix(.23999998,0,0,-.23999998,172.33773,350.90434)" d="M0 0H-1.26L-7.32-.87V-2.06H-6.68C-4.19-2.22-3.8-3.68-3.8-5.9V-14.13C-3.8-16.54-4.19-17.81-6.8-17.97H-7.16V-19.16H3.28V-17.97H2.81C.36-17.77 0-16.31 0-14.13V0ZM.52 4.28C.52 5.62-.47 6.73-1.86 6.73-3.09 6.73-4.23 5.66-4.23 4.43-4.23 3.09-3.28 1.98-1.9 1.98-.63 1.98 .52 2.97 .52 4.28" fill="#231f20" fill-rule="evenodd"/>
<path transform="matrix(.23999998,0,0,-.23999998,175.15868,351.92918)" d="M0 0C1.54 1.34 3.8 2.61 6.09 2.61 8.9 2.61 9.06 .27 9.06-1.9V-9.86C9.06-12.2 8.66-13.5 6.13-13.7H5.82V-14.89H16.1V-13.7H15.78C13.25-13.5 12.86-12.2 12.86-9.86V0C14.6 1.34 16.69 2.61 18.79 2.61 20.06 2.61 21.13 1.85 21.6 .67 21.92-.2 21.92-1.15 21.92-2.02V-9.86C21.92-12.2 21.52-13.5 18.99-13.7H18.68V-14.89H28.72V-13.7C26.03-13.46 25.71-12 25.71-9.86V-1.15C25.71 .19 25.64 1.54 24.77 2.69 23.7 4.11 21.84 4.71 20.14 4.67 17.64 4.59 14.87 3.28 12.9 1.54 11.75 3.96 9.97 4.67 7.44 4.67 4.43 4.67 1.74 3.4 0 1.54V4.27H-1.26L-7.32 3.4V2.21H-6.69C-4.19 2.05-3.8 .59-3.8-1.63V-9.86C-3.8-12.12-4.16-13.46-6.85-13.7V-14.89H3.24V-13.7H2.81C.36-13.5 0-12.04 0-9.86V0" fill="#231f20" fill-rule="evenodd"/>
<path transform="matrix(.23999998,0,0,-.23999998,186.82868,352.75715)" d="M0 0C.08 4.95-3.76 8.16-8.5 8.12-14.36 8.08-17.96 3.96-17.96-1.78-17.96-4.47-16.93-7.24-15-9.18-13.05-11.04-10.72-11.75-8.07-11.75-4.71-11.75-1.42-10.13 0-7L-1.3-6.33C-2.57-8.67-4.43-9.97-7.12-9.97-9.06-9.97-11.04-9.14-12.14-7.52-13.18-5.97-13.85-3.84-13.85-2.02L-13.77 0H0ZM-13.69 1.62C-13.41 4.16-11.55 6.49-8.74 6.49-6.05 6.49-4.19 4.55-4.19 1.62H-13.69" fill="#231f20" fill-rule="evenodd"/>
</g>
<text fill="#231f20" xml:space="preserve" transform="matrix(1 0 -0 1 -18 802.8)" font-size="9.5" font-family="Bookman"><tspan y="-131.76" x="82.56 89.1697 92.7394 98.3991 104.8188 109.3385 114.9982 120.07789 126.49759 132.9173 136.297">Figure 13.6</tspan></text>
<text fill="#231f20" xml:space="preserve" transform="matrix(1 0 -0 1 -18 802.8)" font-size="9.5" font-family="Bookman"><tspan y="-131.76" x="148.56 155.36919 161.98838 166.91086 170.11005 176.34925 181.63843 187.49762 190.69681 193.896 199.18518 204.47437 210.71356 215.63605 220.92523 224.12442 229.6036 238.8828 244.55199 247.75118 253.99037 258.91285 264.39204 268.9212 274.5904 282.34959 286.30879">An idealised sigmoid growth</tspan><tspan y="-120.48" x="148.56 153.5046 159.96918 164.15377 169.09836 174.04296 176.67754 180.29213 185.42673 191.32132 194.1759 199.1205 204.63509 207.48967 210.12425 215.44884 218.49343 221.128 226.0726 231.0172 233.87178 236.72637 241.67096 244.30554 247.16013 253.43473 256.0693 261.0139 267.4785 270.33308 273.94767 280.41227 284.59687 289.54145">curve typical of cells in culture,</tspan><tspan y="-108.96" x="148.56 154.30469 160.80937 166.93407 171.73375 180.89844 186.64313 193.14781 198.5125 203.31218 209.81687 212.90155 218.26624 224.77092 229.94562 234.3603 239.15999 245.28469 248.36937 254.11406 260.61875 264.46345 269.63813 274.4378 280.1825 286.6872">and many higher plants and</tspan><tspan y="-97.68" x="148.56 154.5753 157.5506 163.1859 169.58119 173.3165 178.0318 183.4771 187.7824 193.03769 198.67299 205.06829">plant organs</tspan></text>
<g clip-path="url(#clip_631)">
<path transform="matrix(.24005276,0,0,-.23994379,88.10583,633.75)" stroke-width="6.56399" stroke-linecap="butt" stroke-miterlimit="2.613" stroke-linejoin="miter" fill="none" stroke="#46a5af" d="M0 0C119.46 3.51 156.74 74.11 219.47 172.87 291.76 300.84 346.75 406.84 404.79 486.5 464.18 585.97 569.46 617.71 666.02 597.85"/>
<text fill="#231f20" xml:space="preserve" transform="matrix(.0010002365 -.9997489 1.0002374 .0010002491 -17.998932 802.8)" font-size="9.977499" font-family="Bookman"><tspan y="96.38075" x="185.83507 192.42021">Si</tspan><tspan y="96.380748" x="195.41344">z</tspan><tspan y="96.38075" x="200.20265 205.39095 211.37744">e/w</tspan><tspan y="96.380748" x="219.1599 224.34819 227.34143">eig</tspan><tspan y="96.38074" x="232.7293 239.31443">ht</tspan><tspan y="96.38073" x="243.10588"> </tspan><tspan y="96.38074" x="246.29869 251.88608">of</tspan><tspan y="96.380748" x="255.07888"> </tspan><tspan y="96.38075" x="258.27168 262.0631">th</tspan><tspan y="96.380748" x="268.6483">e</tspan><tspan y="96.38074" x="273.8366"> </tspan><tspan y="96.380748" x="277.0294">o</tspan><tspan y="96.38075" x="282.61677">r</tspan></text>
<text fill="#231f20" xml:space="preserve" transform="matrix(.0010002374 -.9997489 1.0002374 .0010002491 -17.998932 802.8)" font-size="9.977499" font-family="Bookman"><tspan y="96.38075" x="286.9638 292.35166 298.1386">gan</tspan></text>
<text fill="#231f20" xml:space="preserve" transform="matrix(.49104364 -.8709874 .8713773 .4908493 -17.998932 802.8)" font-size="9.977992" font-family="Bookman"><tspan y="27.635544" x="256.1713 263.35545">Ex</tspan><tspan y="27.635537" x="268.9431">p</tspan><tspan y="27.635529" x="275.12947">o</tspan><tspan y="27.635544" x="280.71714">n</tspan><tspan y="27.635537" x="287.3026">e</tspan><tspan y="27.635529" x="292.49116">n</tspan><tspan y="27.635537" x="299.07667 302.8683 305.8617">tia</tspan><tspan y="27.635544" x="311.6489">l</tspan><tspan y="27.635529" x="317.83509 324.02143 330.6069 336.39418">phas</tspan><tspan y="27.635544" x="341.5827">e</tspan></text>
<text fill="#231f20" xml:space="preserve" transform="matrix(1.0002327 0 -0 .99975457 -17.998932 802.8)" font-size="9.977444" font-family="Bookman"><tspan y="-169.30457" x="138.89209 144.87856 150.66547 156.05329 159.24607 165.43209 172.0172 177.80411 182.99239">Lag phase</tspan><tspan y="-149.08663" x="168.89943 175.50446 178.4977 187.87648">Time</tspan><tspan y="-322.55213" x="197.49944 204.08455 207.87598 213.6629 217.45433 220.44757 226.03495 232.62006 238.40697 242.79705 248.18486 251.37764 257.56367 264.14878 269.9357 275.12397">Stationary phase</tspan></text>
<path transform="matrix(.24005227,0,0,-.23994363,87.62647,474.85459)" stroke-width="4.376" stroke-linecap="butt" stroke-miterlimit="2.613" stroke-linejoin="miter" fill="none" stroke="#231f20" d="M0 0 2.09-691.76H666"/>
<path transform="matrix(.23999705,0,0,-.23999983,90.39622,475.28419)" d="M0 0-11.59 20.92-23.06-.07 0 0" fill="#231f20" fill-rule="evenodd"/>
<path transform="matrix(.23999705,0,0,-.23999983,247.06583,638.07107)" d="M0 0 20.97-11.53 0-23.05V0" fill="#231f20" fill-rule="evenodd"/>
</g>
<g clip-path="url(#clip_632)">
<text xml:space="preserve" transform="matrix(1 0 -0 1 259.314 763.9998)" font-size="8" font-family="Arial"><tspan y="6.316" x="0"> </tspan></text>
</g>
</g>
</svg>
