<svg xmlns="http://www.w3.org/2000/svg" xmlns:xlink="http://www.w3.org/1999/xlink" xmlns:inkscape="http://www.inkscape.org/namespaces/inkscape" version="1.1" width="576" height="784.8" viewBox="0 0 576 784.8">
<defs>
<clipPath id="clip_1778">
<path transform="matrix(1,0,0,-1,-18,802.8)" d="M18 18H594V802.8H18Z" clip-rule="evenodd"/>
</clipPath>
<clipPath id="clip_1779">
<path transform="matrix(1,0,0,-1,259.314,763.99978)" d="M0-8H57.372V.800049H0Z"/>
</clipPath>
</defs>
<g clip-path="url(#clip_1778)">
<path transform="matrix(.24,0,0,-.24,-18,802.8)" d="M2 2H2548V214.67H2Z" fill="#cbdf7f" fill-rule="evenodd"/>
<path transform="matrix(.24,0,0,-.24,-18,802.8)" stroke-width="4" stroke-linecap="butt" stroke-miterlimit="1000" stroke-linejoin="miter" fill="none" stroke="#cbdf7f" d="M2 2H2548V214.67H2Z"/>
<path transform="matrix(.24,0,0,-.24,-18,802.8)" d="M0 3035.83H2550V3372.7003H0Z" fill="#d1d3d4" fill-rule="evenodd"/>
<path transform="matrix(.24,0,0,-.24,-18,802.8)" d="M0 3078.33H2550V3420H0Z" fill="#e1ecb6" fill-rule="evenodd"/>
<path transform="matrix(.24,0,0,-.24,62.6362,53.63501)" d="M0 0C7.32 7.32 16.16 10.98 26.52 10.98H97.35C107.7 10.98 116.54 7.32 123.87 0 131.19-7.32 134.85-16.16 134.85-26.52V-101.52C134.85-111.88 131.19-120.72 123.87-128.04 116.54-135.36 107.7-139.02 97.35-139.02H26.52C16.16-139.02 7.32-135.36 0-128.04-7.32-120.72-10.98-111.88-10.98-101.52V-26.52C-10.98-16.16-7.32-7.32 0 0" fill="#ffffff" fill-rule="evenodd"/>
<text fill="#231f20" xml:space="preserve" transform="matrix(1 0 -0 1 -18 802.8)" font-size="11" font-family="Bookman,Bold" font-weight="bold"><tspan y="-729.361" x="87.12 94.26001">18</tspan></text>
<text fill="#231f20" xml:space="preserve" transform="matrix(1 0 -0 1 -18 802.8)" font-size="11" font-family="Bookman"><tspan y="-729.361" x="513.12">B</tspan></text>
<text fill="#231f20" xml:space="preserve" transform="matrix(1 0 -0 1 -18 802.8)" font-size="7.69999" font-family="Bookman"><tspan y="-729.361" x="521.04 523.3687 529.3087 533.6779 539.6179 545.5579">IOLOGY</tspan></text>
<path transform="matrix(.24,0,0,-.24,-18,.35998536)" stroke-width="1" stroke-linecap="butt" stroke-miterlimit="10" stroke-linejoin="miter" fill="none" stroke="#000000" d="M0 0H60"/>
<path transform="matrix(.24,0,0,-.24,.12000084,-18)" stroke-width="1" stroke-linecap="butt" stroke-miterlimit="10" stroke-linejoin="miter" fill="none" stroke="#000000" d="M0 0V-60"/>
<path transform="matrix(.24,0,0,-.24,-18,784.68)" stroke-width="1" stroke-linecap="butt" stroke-miterlimit="10" stroke-linejoin="miter" fill="none" stroke="#000000" d="M0 0H60"/>
<path transform="matrix(.24,0,0,-.24,.12000084,788.16)" stroke-width="1" stroke-linecap="butt" stroke-miterlimit="10" stroke-linejoin="miter" fill="none" stroke="#000000" d="M0 0V-60"/>
<path transform="matrix(.24,0,0,-.24,593.64,784.56)" stroke-width="1" stroke-linecap="butt" stroke-miterlimit="10" stroke-linejoin="miter" fill="none" stroke="#000000" d="M0 0V-75"/>
<text fill="#231f20" xml:space="preserve" transform="matrix(1 0 -0 1 -18 802.8)" font-size="10.5" font-family="Bookman"><tspan y="-687.841" x="192 195.1893 200.7306 205.72992 212.34223 217.02252 223.20432 230.24712 235.78842 242.83123 248.37253 254.98484 259.98414 266.165 273.2132 279.8309 284.857 290.4037 295.95039 302.56809 306.61329 312.80049 316.84568 322.39237 325.79707 330.82316 337.44087 344.48905 350.03575 355.06184 361.24903 366.79573 372.3424 378.3196 385.57783 391.765 394.95973 399.9858 405.5325 412.1502 418.1274 422.8131 428.3598 433.9065 438.9326 445.11979 449.80549 455.35218 460.37828 465.92497 471.90217 478.95036 482.14506 488.76277 491.95747 498.14466 503.17076 509.78846 514.4742 520.45138 527.06906 534.3272 539.8739 545.4206">is branched and septate. The asexual spores are conidia produced</tspan><tspan y="-672.721" x="192 197.5441 203.51869 209.49329 215.24739 220.79149 227.83708 233.81168 241.06728 246.61138 249.80347 255.55757 258.1472 264.1218 271.1674 273.757 277.7996 284.84519 290.38929 292.97889 298.52299 305.1381 310.6822 316.2263 319.4184 325.603 328.7951 331.3847 341.4228 347.17689 352.72099 358.26509 361.45719 364.6493 371.9049 381.943 384.5326 390.0767 396.2613 399.4534 402.6455 408.1896 414.80473 417.39433 422.93843 428.91304 435.95863 439.15074 445.76585 448.95796 454.93257 461.54768 468.59327 474.56788 479.25099 484.79508 490.33918 493.74128 496.33088 504.22697 510.20158 517.2472 520.4393 527.0544 530.24649 536.431 539.0206 544.99526">exogenously on the special mycelium called conidiophores. Conidia on</tspan><tspan y="-657.841" x="192 197.7564 203.30278 207.98818 218.02857 221.22296 228.27085 234.45774 238.50263 241.69702 247.6739 254.7218 258.73329 265.35069 270.03608 276.01298 282.63038 289.88829 295.43467 300.98106 304.99253 315.0329 320.78929 326.33567 331.88206 335.07646 338.27085 345.52876 355.56916 358.97355 362.98503 370.0329 375.57929 381.55619 388.8141 395.00099 398.19538 402.20686 407.75325 414.37065 420.34754 425.03294 430.5793 436.1257 440.13719 446.32408 451.00947 456.55586 460.56733 466.1137 472.3006 475.495 478.6894 484.23579 490.85319 494.86466 501.05155 506.59794 512.14437 518.1212 523.6676 530.285 536.26187 540.9472 546.4936">germination produce mycelium. Sexual spores are called ascospores</tspan><tspan y="-642.721" x="192 200.1483 207.0156 210.02939 215.39519 222.26248 224.63628 230.64258 235.14739 240.51319 242.88698 249.32378 253.82859 259.62489 266.06169 273.13899 278.5048 283.8706 290.3074 292.68119 298.047 304.9143 311.3511 317.1474 322.7232 328.08903 334.95634 340.75263 347.82994 353.19575 356.20954 361.78535 364.15913 367.1729 374.04023 376.414 381.77983 387.7861 393.15193 395.5257 398.5395 401.55329 407.99009 413.3559 415.72969 421.73597 427.10179 432.4676 435.48139 437.85517 440.86897 446.23478 449.24858 456.11589 461.69169 468.76899 471.78279 477.78907 482.29386 484.66764 490.67393 496.03974 501.40556 508.48286 513.84866 516.8624 520.08627 522.4601 528.8969 535.7642 541.13 546.4958">which are produced endogenously in sac like asci (singular ascus). These</tspan><tspan y="-627.841" x="192 198.1877 203.7349 209.28209 212.4773 215.2925 221.4802 226.1664 231.7136 234.5288 240.71649 245.4027 250.0889 256.2766 263.32533 269.08253 274.62974 281.24794 284.06315 287.25834 294.30705 297.12226 303.74046 306.93565 310.34086 313.74607 319.29328 323.97947 329.52668 336.57539 340.6211 343.4363 347.482 353.2392 359.8574 365.4046 370.9518 373.76704 379.74473 383.14994 385.96516 389.37037 394.05656 401.31526 404.51045 408.55616 411.75135 418.80006 424.55726 427.37248 433.99067 439.96836 446.58656 449.78175 455.32896 460.87617 463.69139 469.2386 475.4263 478.6215 481.81669 487.3639 493.9821 496.7973 502.98503 508.53224 514.0794 520.0571 525.6043 531.792 536.4782 543.09646 548.6436">asci are arranged in different types of fruiting bodies called ascocarps.</tspan><tspan y="-612.721" x="192 198.9317 204.7924 214.7166 220.1468 222.58499 228.0152 233.8759 239.9466 249.87079 256.37199 259.45018 264.88038 270.31059 272.74879 278.8195 283.3887 288.8189">Some examples are </tspan></text>
<text fill="#231f20" xml:space="preserve" transform="matrix(1 0 -0 1 -18 802.8)" font-size="10.5" font-family="Bookman,Italic" font-style="italic"><tspan y="-612.721" x="291.36 298.37409 303.7082 310.0923 315.4264 319.9205 325.4646 328.4887 331.51283 334.53694 341.55104 346.88514">Aspergillus </tspan></text>
<text fill="#231f20" xml:space="preserve" transform="matrix(1 0 -0 1 -18 802.8)" font-size="10.5" font-family="Bookman"><tspan y="-612.721" x="349.19999 352.2797 358.9924 362.0721 367.7138 374.857 379.4277 384.8594 387.2991 393.80183 397.09153 403.59425 410.09693">(Figure 2.5b)</tspan></text>
<text fill="#231f20" xml:space="preserve" transform="matrix(1 0 -0 1 -18 802.8)" font-size="10.5" font-family="Bookman,Italic" font-style="italic"><tspan y="-612.721" x="413.03999 416.2689 418.6478 426.28669 429.30558 435.26448 440.59336 443.61225 448.94114 454.27003 460.64894 465.9778">, Claviceps </tspan></text>
<text fill="#231f20" xml:space="preserve" transform="matrix(1 0 -0 1 -18 802.8)" font-size="10.5" font-family="Bookman"><tspan y="-612.721" x="468.47999 474.5829 481.54679">and</tspan></text>
<text fill="#231f20" xml:space="preserve" transform="matrix(1 0 -0 1 -18 802.8)" font-size="10.5" font-family="Bookman,Italic" font-style="italic"><tspan y="-612.721" x="488.15998 490.53788 498.17579 503.5037 510.5116 514.9995 520.74746 526.0753 532.45327 538.2012 542.6891 548.647"> Neurospora.</tspan><tspan y="-597.841" x="191.99997 199.73238 205.15479 212.2572 216.83962 222.68202 228.10443 234.57685 240.41925 245.00167 251.05408 253.55149">Neurospora  </tspan></text>
<text fill="#231f20" xml:space="preserve" transform="matrix(1 0 -0 1 -18 802.8)" font-size="10.5" font-family="Bookman"><tspan y="-597.841" x="256.07997 259.24177 264.75559 267.27738 274.5027 280.0165 285.53034 292.11515 294.63694 300.15077 306.09507 310.10737 315.6212 322.6365 328.15034 331.31214 336.82597 342.33979 345.5016 351.2254 353.7472 356.909 363.92433 366.4461 373.0309 376.19273 382.13703 387.65086 394.66618 400.18 410.1878 413.3496 418.86344 425.01774 428.17955 430.70133 436.85563 443.87095 450.45576 452.97755 458.70137 464.21519 471.2305 476.74433 480.75663 483.91844 489.43226 491.95405 500.25038 506.19468 510.84748 517.4323 520.80416 523.326 533.1133 539.2676 546.2829">is used extensively in biochemical and genetic work. Many</tspan><tspan y="-582.721" x="191.99996 201.77277 207.05158 216.82439 223.1742 228.453 232.87082 238.14963 240.43643 243.36324 246.29004 252.63985 257.91868 260.20549 269.97828 275.6876 280.1054 285.38423 288.31105 293.58985 295.87666 301.79597 308.57627 314.9261 317.2129 320.9902 325.40803 332.39833 335.53514 338.67195 341.59877 346.87757 352.15638 354.44319 360.3625 364.7803 370.0591 372.34593 377.62474 383.97456 386.90138 393.2512 396.178 401.45683 403.74363 409.66294 416.44325 422.79307 425.07987 430.99919 435.417 440.6958 442.9826 448.2614 453.97074 460.75105 466.02986 468.95668 475.3065 480.5853 485.0031 490.28193 496.63175 498.91856 501.20536 507.55519 512.834 515.7608 518.6876 523.96646 529.88577 535.16458 538.0914 543.3702 548.649">members like morels and truffles are edible and are considered  delicacies.</tspan></text>
<text fill="#00aeef" xml:space="preserve" transform="matrix(1 0 -0 1 -18 802.8)" font-size="12" font-family="Bookman,Bold" font-weight="bold"><tspan y="-555.841" x="191.99996 200.27996 204.95996 213.23996 217.91996 233.99996 243.36014 250.80033 257.5205 261.6007 269.5209 273.6011 280.8013 292.5615 299.5217 306.24189 312.96208 318.00227 324.72245">2.3.3Basidiomycetes</tspan></text>
<text fill="#231f20" xml:space="preserve" transform="matrix(1 0 -0 1 -18 802.8)" font-size="10.5" font-family="Bookman"><tspan y="-534.721" x="191.99996 199.89705 205.87264 215.91173 225.95082 231.9264 238.97299 242.16608 247.92118 252.14566 258.76176 265.80836 271.78395 280.1115 287.1581 291.38258 294.78565 300.76124 305.4453 315.4844 321.0295 325.25398 331.22956 334.63264 338.8571 345.47319 351.65876 357.20387 360.39695 367.01304 370.20613 376.1817 386.2208 391.9759 397.521 403.0661 407.10969 412.6548 418.1999 422.42436 428.60993 433.294 438.8391 443.06358 453.10267 460.35926 465.90437 472.95097 477.63505 483.61064 489.5862 499.6253 505.1704 508.5735 512.798 519.41409 524.09817 530.28378 535.82888 542.44497 547.99008">Commonly known forms of basidiomycetes are mushrooms, bracket</tspan><tspan y="-519.841" x="191.99996 195.39766 202.64887 209.69007 215.43976 218.62746 222.44057 228.41077 233.08946 236.90258 243.51328 250.76448 254.63996 258.04386 264.66078 270.84718 274.04109 277.235 282.78089 286.18479 290.0041 296.621 303.6684 309.2143 314.97019 318.7895 324.54539 329.2303 335.2067 343.5351 347.3544 350.5483 357.5957 361.415 366.9609 372.93733 376.13124 379.32514 382.72904 386.54835 392.52476 399.57215 403.39146 406.58537 412.56178 418.31767 423.86357 427.68287 433.86927 440.91667 447.53358 451.35289 455.39729 460.08219 465.83998 471.38768 475.20878 480.75648 484.80268 492.06187 502.10356 508.72224 514.2699 518.091 524.2792 531.32839 537.9471 541.7682 544.96389">fungi or puffballs. They grow in soil, on logs and tree stumps and in</tspan><tspan y="-504.721" x="191.99997 195.16498 198.32999 203.847 207.01201 214.03052 219.75753 222.28253 228.87055 232.03556 238.19307 245.21158 249.22708 251.75209 258.3401 264.2876 270.8756 274.04063 279.55763 285.07463 287.5996 293.7571 299.2741 301.7991 308.38713 314.54463 319.20063 325.35813 330.87513 334.04014 338.05564 343.57264 349.08964 352.46464 354.98963 360.50663 363.88163 369.60865 372.98365 376.35865 378.88365 383.53965 390.76817 396.28517 400.30067 405.81767 408.34266 414.50016 421.51869 428.1067 430.63169 436.14869 446.1597 453.3882 457.40373 462.92073 466.29573 468.8207 475.40873 482.42726 487.94425 490.46925 500.48027 506.20729 511.72428 517.2413 520.4063 523.57138 530.79989 540.81088 543.3359 546.5009">living plant bodies as parasites, e.g., rusts and smuts. The mycelium is</tspan><tspan y="-489.841" x="191.99997 198.60797 203.28397 209.46147 216.49997 222.03697 229.07547 234.61248 241.22048 243.76548 249.94298 256.98149 263.58949 266.13447 271.67146 277.20845 283.81645 287.85194 294.02943 298.0649 303.6019 306.9969 309.54188 316.14988 323.1884 328.72538 331.27037 337.44786 342.98484 348.52183 354.48933 361.73783 367.9153 371.1003 373.6453 379.18229 385.79029 391.75779 396.43379 401.97077 407.50776 410.05274 416.23023 420.90623 426.4432 428.9882 434.7352 440.2722 447.3107 452.8477 457.52369 463.70118 466.88618 470.07118 475.81819 478.36317 485.40168 491.36918 495.40467 497.94966 501.34465 507.31214 514.5606 521.5991 528.2071 531.6021 534.14718 540.7551 548.0036">branched and septate. The asexual spores are generally not found, but</tspan><tspan y="-474.721" x="191.99997 197.54566 203.09134 208.84703 214.39272 218.4369 224.6231 228.66728 231.86098 237.40666 242.95235 246.46854 251.15323 256.6989 263.3156 268.0003 273.9765 280.5932 287.8504 293.3961 297.44029 300.63398 306.61018 313.65736 317.17353 323.79023 329.5459 333.06208 336.46577 341.15046 347.33665 353.09233 363.13203 368.6777 375.72489 379.76908 385.95527 389.99946 393.19316 399.16935 406.21653 409.7327 412.9264 418.47209 421.98826 427.53395 433.51014 443.54985 453.58955 459.56575 466.6129 470.0166 473.53279 480.14949 487.19667 492.74235 496.2585 501.8042 507.34989 513.32608 516.8422 522.8184 527.5031 533.2588 539.445 546.4922">vegetative reproduction by fragmentation is common. The sex organs</tspan><tspan y="-459.841" x="191.99997 198.04698 202.5925 207.99901 210.41352 216.46053 222.93804 228.34455 233.75106 240.65906 244.56407 247.82859 250.24309 256.7206 263.83863 267.74363 270.1581 276.63563 279.69013 285.73713 291.14366 301.04417 306.88117 312.49769 318.54469 328.4452 334.0617 336.4762 339.5307 344.93724 347.3517 353.82923 358.37474 364.21174 371.32975 376.94627 383.85429 387.75929 390.17378 396.22077 402.69828 408.53529 415.6533 419.5583 421.97279 428.4503 434.0668 436.4813 439.7458 446.8638 452.27033 455.32484 461.16184 468.06986 470.48435 476.32136 479.58586 482.00035 485.90534 494.09437 499.93138 502.34587 507.75239 513.1589 518.7754 524.1819 528.0869 534.1339 538.03897 541.09347 546.49996">are absent, but plasmogamy is brought about by fusion of two vegetative</tspan><tspan y="-444.721" x="191.99997 197.82488 202.35829 204.7607 210.1551 215.98001 225.86843 231.90334 235.79625 238.83866 244.23307 246.63547 252.02988 257.4243 260.4667 263.50914 268.90354 271.30595 277.13087 280.38328 282.78569 289.2511 292.29353 296.15998 299.42179 304.8256 309.3684 314.77223 321.67753 325.57984 327.99165 333.39546 337.29777 341.84059 347.8849 350.9367 357.842 363.24583 365.65763 371.49195 376.03477 378.44657 384.06037 389.46418 396.36949 402.2038 406.1061 411.7199 418.19474 423.59855 429.00236 432.26417 434.67597 441.1508 448.0561 453.4599 455.8717 460.41453 465.81834 471.22215 478.33744 481.38926 485.29158 491.33589 498.24119 502.1435 504.5553 509.9591 513.8614 518.4042 525.5195 530.9233 534.82559 541.94088 546.48367">or somatic cells of different strains or genotypes. The resultant structure</tspan><tspan y="-429.841" x="191.99997 195.19416 200.74034 204.16123 210.77841 213.9726 220.58979 226.77648 231.46167 237.21787 243.19455 247.23925 250.43343 255.97962 259.40049 267.7292 274.7769 277.97108 283.51728 290.56498 293.98588 301.24357 304.43775 308.48243 311.6766 321.7168 327.90348 331.94816 337.49436 340.68855 346.44474 349.86564 355.62184 358.816 364.3622 369.90843 375.45463 378.87553 383.5607 386.75489 392.3011 397.8473 401.26817 405.31285 411.28953 414.71043 421.3276 427.51429 433.0605 436.25468 442.87187 446.06605 453.32374 463.36393 466.76814 470.189 478.31999 484.51329 489.20509 494.96788 500.95118 506.71397 512.9073 522.9541 528.7169 532.1444 538.3377 545.392">is dikaryotic which ultimately gives rise to basidium. Karyogamy and</tspan><tspan y="-414.721" x="191.99997 202.03876 207.58354 210.77634 216.75164 222.29642 225.48921 231.034 234.16458 238.20787 244.39316 251.00894 256.55375 259.68437 266.30015 269.49293 275.67823 281.22303 286.76783 289.89845 293.09123 300.1375 303.26814 307.31144 314.35774 319.90254 323.03315 329.64894 335.83424 341.37904 344.5718 351.1876 354.38038 361.63667 371.67546 374.80607 381.42185 386.10563 392.0809 398.6967 405.95298 411.49778 414.69056 421.73686 427.49165 430.62226 434.02507 440.00035 447.25663 451.9404 455.071 461.6868 467.8721 473.4169 476.60969 483.22547 486.41825 492.39353 497.93833 504.5541 510.5294 515.2132 520.758 526.3028 529.70559 532.8361 539.4519 546.49819">meiosis take place in the basidium producing four basidiospores. The</tspan><tspan y="-399.841" x="191.99997 198.57707 204.72368 210.22978 213.38388 219.96099 223.11508 229.05168 234.55779 241.13489 247.07149 251.71659 257.2227 262.7288 265.2429 271.3895 276.0346 281.5407 284.0548 289.5609 295.49754 301.43415 307.15025 312.65635 319.66395 325.60057 332.81816 338.32426 341.47837 347.19447 349.70857 356.28565 360.93077 366.86738 373.44447 380.66206 386.16816 391.67427 398.25135 400.76545 406.70207 413.70967 416.22377 420.22837 427.23597 432.74208 435.25617 441.83326 447.97987 453.48597 456.64009 463.21717 466.37129 473.58888 483.58897 486.10307 489.25718 495.83427 498.98838 502.35249 505.71659 508.23069 514.8078 520.9544 526.4605 529.6146 536.1917 539.3458 545.49246 548.64657">basidiospores are exogenously produced on the basidium (pl.: basidia).</tspan><tspan y="-384.721" x="191.99997 198.61777 205.66606 211.21286 214.50098 221.11878 227.30608 232.85288 236.04767 242.66547 245.86026 252.04756 255.33568 261.52299 266.20878 271.75559 275.04368 281.23097 285.91676 290.60255 296.78984 303.83815 309.59495 315.14176 321.75956 325.04765 328.24244 335.29075 338.57884 341.9836 346.6694 353.9277 357.1225 361.1678 364.36259 371.4109 377.1677 380.45579 387.07359 393.05088 399.66868 402.86347 408.41029 413.9571 417.24519 422.792 428.97929 432.17408 435.36888 440.91569 447.53349 450.82157 457.43937 463.62666 469.17347 472.36827 478.98606 482.18086 488.15815 493.70497 499.89225 504.57804 511.19584 516.7426 520.1474 523.4355 530.48379 536.46109 546.50186">The basidia are arranged in fruiting bodies called basidiocarps. Some</tspan><tspan y="-369.841" x="191.99997 197.29907 203.02867 212.82178 222.61489 228.34449 235.14508 237.4689 247.26201 252.56111 262.35423 268.7243 274.0234 278.46153 283.76063 286.08445 292.02406 296.46217 301.76127">common members are </tspan></text>
<text fill="#231f20" xml:space="preserve" transform="matrix(1 0 -0 1 -18 802.8)" font-size="10.5" font-family="Bookman,Italic" font-style="italic"><tspan y="-369.841" x="304.08399 310.9596 316.3652 322.1908 326.5464 329.43199 334.62757 341.50318 346.69877">Agaricus </tspan></text>
<text fill="#231f20" xml:space="preserve" transform="matrix(1 0 -0 1 -18 802.8)" font-size="10.5" font-family="Bookman"><tspan y="-369.841" x="348.96 351.9015 361.689 368.694 373.9875 380.7825 385.215 390.939 396.663 406.4505 409.392 411.69349 414.63499 421.20948 424.15098 429.65449 436.6595 441.09199 446.38548 448.68696 455.05146 458.20295 464.56745 469.86094">(mushroom) (Figure 2.5c)</tspan></text>
<text fill="#231f20" xml:space="preserve" transform="matrix(1 0 -0 1 -18 802.8)" font-size="10.5" font-family="Bookman,Italic" font-style="italic"><tspan y="-369.841" x="472.8 475.9167 478.18339 486.13008 491.34678 495.09349 498.00019 500.9069 506.7536 512.1803 517.817">, Ustilago </tspan></text>
<text fill="#231f20" xml:space="preserve" transform="matrix(1 0 -0 1 -18 802.8)" font-size="10.5" font-family="Bookman"><tspan y="-369.84059" x="520.0862 523.0101 528.286 538.0559 545.04336 548.81777">(smut)</tspan><tspan y="-354.72059" x="192.00019 198.1666 205.194 211.79091">and </tspan></text>
<text fill="#231f20" xml:space="preserve" transform="matrix(1 0 -0 1 -18 802.8)" font-size="10.5" font-family="Bookman,Italic" font-style="italic"><tspan y="-354.72059" x="215.04019 221.5432 228.6762 234.1292 239.5822 242.7252 249.64821 252.79122 258.8742">Puccinia </tspan></text>
<text fill="#231f20" xml:space="preserve" transform="matrix(1 0 -0 1 -18 802.8)" font-size="10.5" font-family="Bookman"><tspan y="-354.72059" x="262.3202 265.51509 270.20097 277.45936 283.00624 287.0516 290.2565 293.66139 300.91978 307.96818 313.72508 320.98347 326.53034 329.72523">(rust fungus).</tspan></text>
<text fill="#00aeef" xml:space="preserve" transform="matrix(1 0 -0 1 -18 802.8)" font-size="12" font-family="Bookman,Bold" font-weight="bold"><tspan y="-327.84059" x="192.00019 200.28018 204.96018 213.24018 217.92017 234.00019 244.17287 250.98555 259.71824 264.85093 271.6636 277.5163 284.809 296.66169 303.7144 310.52708 317.33976 322.47245 329.28514">2.3.4Deuteromycetes</tspan></text>
<text fill="#231f20" xml:space="preserve" transform="matrix(1 0 -0 1 -18 802.8)" font-size="10.5" font-family="Bookman"><tspan y="-306.72059" x="192.00019 199.97708 206.03249 216.15139 226.27028 232.32569 239.45209 242.72499 248.55989 253.74279 260.4387 267.5651 273.62049 282.0279 289.1543 294.3372 300.6026 306.2275 311.4104 314.6833 324.8022 331.49809 337.123 341.88688 345.36979 350.9947 356.6196 360.743 365.9259 369.4088 376.7452 383.8716 389.7065 392.9794 398.1623 404.8582 410.4831 416.108 422.3734 429.7098 435.33473 440.95964 446.14253 452.1979 459.3243 462.5972 468.4321 473.615 477.7384 484.8648 490.48973 495.6726 501.93803 507.56294 513.1878 519.2432 526.57968 532.84506 536.1179 541.30087 547.35629">Commonly known as imperfect fungi because only the asexual or</tspan><tspan y="-291.84059" x="192.00019 197.54657 203.09296 208.84935 214.39574 218.44063 224.62752 228.67241 231.8668 237.4132 242.95958 245.85147 252.46886 259.51676 265.70365 271.25004 276.79643 282.3428 285.2347 291.2116 294.616 297.5079 301.5528 308.60069 314.14707 319.69346 325.23985 328.13175 331.53614 338.79405 345.84193 351.5983 354.7927 357.6846 363.8715 368.5569 374.10328 376.99519 383.61259 390.66047 396.63737 404.96626 412.01414 415.41853 418.31044 421.20234 431.45274 438.5006 444.047 451.09489 453.9868 458.03169 465.07957 470.62596 473.51786 479.06425 484.61064 490.58753 497.84544 504.03233 507.2267 510.11863 513.523 519.4999 524.18527 534.22567 539.77206 542.66397 548.6408">vegetative phases of these fungi are known.  When the sexual forms of</tspan><tspan y="-276.72059" x="192.00019 196.04648 203.09577 208.64356 214.19135 219.73914 223.03493 226.44072 233.70001 240.7493 246.5071 249.70288 252.99868 261.32896 266.87675 271.56355 277.11134 280.40715 287.02595 290.22175 295.76954 301.31733 307.29563 312.8434 318.3912 323.078 328.6258 335.2446 338.5404 342.5867 349.636 355.18379 360.94157 364.23738 372.56767 378.11546 382.80226 388.35005 391.64585 401.68763 407.66593 413.2137 418.7615 425.3803 428.67613 431.87193 438.9212 442.9675 448.9458 452.2416 457.7894 460.9852 467.1735 472.72129 478.26908 483.81687 489.36466 492.66047 496.70677 503.75605 509.30384 515.06167 518.3574 523.0442 526.24 531.9978 539.0471 543.0934 546.2892">these fungi were discovered they were moved into classes they rightly</tspan><tspan y="-261.84059" x="192.00019 198.61289 204.15459 207.34429 213.31649 220.35968 226.11138 228.66107 232.70128 238.67348 242.07318 244.62288 247.17258 250.78227 254.82248 257.37217 260.56187 266.10356 268.65324 274.83543 278.02513 283.5668 289.539 292.08869 298.7014 304.67359 310.21528 315.75697 318.94667 325.55937 328.74906 334.29075 336.84043 340.8806 347.92384 354.10603 358.1462 360.6959 364.73609 371.7793 377.32099 379.87068 386.05287 391.59455 397.13624 403.10844 410.36164 416.54383 419.73353 422.2832 428.4654 435.5086 442.1213 444.671 450.21269 455.75437 461.50608 467.04777 471.08796 477.27015 481.31034 484.50004 490.04173 495.5834 498.1331 503.67478 507.71498 513.89718 519.64889 525.19058 527.7403 534.7835 540.9657 546.5074">belong to.  It is also possible that the asexual and vegetative stage have</tspan><tspan y="-246.72058" x="192.00019 198.50189 203.9326 209.36331 216.29552 218.73423 224.37494 227.45365 232.88436 238.31507 245.24727 247.68598 253.54718 260.4794 265.91014 268.34883 275.28105 281.35224 291.27696 296.70768 299.14637 302.22508 308.29627 315.2285 321.7302 324.16889 330.6706 333.7493 339.8205 345.25123 350.68196 357.18367 359.62236 366.76457 373.69679 380.1985 385.6292 390.1989 392.6376 399.1393 404.57005 411.71226 415.64146 421.07218 425.64189 431.50309 441.4278 447.0685 452.49925 457.92997 461.85917 467.2899 472.7206 475.79933 478.238 484.3092 491.24143 497.74314 500.18183 504.11103 511.04325 516.47396 518.91268 524.3434 529.7741 535.6353 542.7775 548.84878">been given one name (and placed under deuteromycetes) and the sexual</tspan><tspan y="-231.84058" x="192.00019 197.3875 201.2733 207.30112 212.89842 218.28574 220.68105 226.70886 233.59767 239.41548 243.30129 250.1901 255.57741 260.10374 262.49903 265.53434 271.56214 278.45097 284.90928 287.30458 293.76289 296.7982 302.826 308.2133 313.6006 320.0589 322.4542 329.553 336.44184 342.90016 348.28746 352.81376 355.20906 361.23686 368.12568 373.94349 377.82929 384.7181 390.1054 394.6317 397.027 402.4143 405.44963 411.47743 416.86473 422.252 425.28733 428.53263 430.92793 433.3232 439.56105 445.58885 449.47465 454.86195 459.38825 461.78355 469.95335 476.84217 482.22947 489.1183 491.51359 495.39939 502.2882 507.6755 510.0708 513.10617 516.1415 523.0303 529.4886 535.5164 541.1137 546.50106">stage another (and placed under another class).  Later when the linkages</tspan><tspan y="-216.72058" x="192.00019 200.32927 205.87586 210.56145 216.10803 219.34763 224.89421 230.4408 234.48589 240.67298 247.29056 250.48516 253.67975 259.22636 266.27445 271.82106 278.43864 281.84324 285.08287 289.12797 296.17607 301.72267 304.96229 308.36689 315.62498 322.67308 328.42967 331.62425 334.86387 343.19297 348.73957 353.42515 358.97175 362.21138 367.75798 373.73506 378.42063 383.1062 388.6528 394.1994 398.2445 401.4391 407.19569 410.4353 413.62989 420.24748 425.79408 432.84217 436.88728 440.08186 443.48646 446.68104 452.22764 458.8452 462.08485 468.27195 475.32005 481.93763 485.17726 495.21784 501.19493 506.74153 512.2881 518.9057 522.1453 528.12246 535.38058 539.42568 542.6653 548.6424">were established, the fungi were correctly identified and moved out of</tspan><tspan y="-201.84058" x="192.00019 199.27758 205.48397 213.40186 218.10675 224.31314 229.65854 236.29543 246.99582 253.41222 259.6186 265.82499 270.52989 276.73628 282.94267 287.00706 292.77143 301.9703 309.6782 315.88459 322.09098 327.85536 335.13276 341.33915 346.68455 350.74894 356.95533 363.1617 367.8666 373.63099 377.48539 383.69178 389.89817 396.53507 404.45295 411.29985 415.15425 419.00865 424.773 430.9794 435.6843 442.5312 448.94758 455.15397 461.36036 467.12474 473.76164 477.82603 483.5904 494.29078 500.49717 511.19755 518.4749 524.6813 530.0267 536.23306 541.99746 548.63436">deuteromycetes. Once perfect (sexual) stages of members of</tspan><tspan y="-186.72058" x="192.00019 198.52829 205.6969 211.154 215.10962 220.56673 225.16284 231.05045 241.00156 246.66867 252.12578 257.5829 261.53849 266.9956 272.45274 274.91786 283.15748 288.6146 293.2107 298.66783 301.13294 307.66105 310.76615 316.22328 321.6804 327.568 333.02513 338.48225 343.07835 348.53547 355.06358 358.3787 360.8438 364.7994 371.75804 377.21516 382.88227 385.34739 393.587 399.04414 403.64024 409.09736 411.56248 417.45008 420.7652 424.7208 430.17793 437.13655 439.60166 449.55278 455.44038 460.8975 466.3546 472.88273 475.34785 479.30345 485.19105 487.65617 493.75379 499.2109 504.66804 510.55564 520.5067 526.1738 531.6309 537.088 541.04367 546.50076">dueteromycetes were discovered, they were often moved to ascomycetes</tspan><tspan y="-171.84058" x="192.00019 197.8362 204.5332 210.79972 213.00322 219.26973 225.10575 230.30126 233.14476 239.41127 242.25478 247.88079 257.57029 262.9758 268.1713 273.3668 277.0608 282.2563 287.45179 290.50529 292.70878 298.97529 305.6723 310.8678 313.0713 319.3378 324.5333 331.4403 335.1343 340.3298 344.6643 350.2903 359.97984 365.38536 370.58085 375.77635 379.47035 384.66584 389.86134 392.06483 396.39933 401.59483 407.86134 412.19584 417.82185 424.08836 430.99537 436.19087 441.38636 443.58985 449.21586 455.91288 458.75639 464.1619 466.3654 472.6319 478.0374 480.2409 486.0769 491.2724 496.4679 502.0939 509.00093 514.8369 517.6804 519.884 525.07949 531.346 536.97207 541.3066 546.5021">and basidiomycetes. The deuteromycetes reproduce only by asexual spores</tspan><tspan y="-156.72058" x="192.00019 198.33889 205.10808 210.80628 218.85648 225.62567 227.90137 233.80957 239.07727 241.35297 246.62067 252.31887 259.08808 262.00379 268.3425 271.2582 277.1664 280.2921 282.5678 288.90653 295.67573 300.94343 303.21913 312.9808 318.4585 323.7262 328.9939 331.9096 334.82533 341.8045 351.5662 353.8419 356.7576 362.0253 364.301 369.5687 374.8364 381.1751 384.9413 390.84953 394.61573 399.88343 402.15913 408.06733 414.83653 421.17524 423.45094 429.78965 434.19636 440.10456 446.87376 452.14146 458.91065 464.17835 470.51707 473.64277 475.91847 482.68766 488.38587 498.14756 503.41526 505.69096 515.45266 520.72036 530.48208 536.82077 542.08847 546.4951">known as conidia. The mycelium is septate and branched. Some members</tspan><tspan y="-141.84058" x="192.00019 198.49118 203.48069 209.33118 214.73967 220.59017 227.08116 234.00266 238.99216 245.27317 252.19466 259.54667 265.60716 269.95616 275.80665 281.65715 287.0656 293.34663 298.33613 303.7446 310.6661 317.1571 322.1466 328.6376 334.4881 337.9866 342.3356 348.1861 354.0366 359.44508 368.07807 375.43006 378.92857 382.42707 388.27757 393.68605 400.17704 405.5855 409.084 415.575 420.5645 426.625 432.4755 437.88398 445.23597 452.79798 463.1425 470.064 475.9145 480.904 486.31248 492.59349 496.30198 501.71046 506.05946 513.41146 519.26199 529.60647 535.01498 541.506 546.4955">are saprophytes or parasites while a large number of them are</tspan><tspan y="-126.72057" x="192.00019 198.61808 204.16497 209.71186 215.68924 225.73014 232.34803 238.32541 243.8723 249.41919 254.10507 259.65199 262.92686 268.90425 272.3091 275.58399 278.77888 281.97377 286.01914 290.0645 295.6114 300.29728 303.57215 309.75953 316.80793 323.4258 326.70069 333.74909 339.29597 342.49085 349.10874 352.3836 355.5785 362.6269 365.90177 375.94267 379.13755 386.18595 391.73286 396.41874 402.6061 405.801 409.07588 414.62275 420.37965 425.9265 429.1214 432.31629 439.3647 445.12159 448.52647 451.80134 458.84974 464.82713 474.868 480.41493 483.6898 489.2367 495.21409 501.40147 511.44236 518.06027 521.2551 526.802 532.3489 535.6238 541.81118 546.4971">decomposers of litter and help in mineral cycling. Some examples are</tspan></text>
<text fill="#231f20" xml:space="preserve" transform="matrix(1 0 -0 1 -18 802.8)" font-size="10.5" font-family="Bookman,Italic" font-style="italic"><tspan y="-111.840579" x="192.00019 199.11089 202.2316 206.1923 211.62302 216.72019 223.65499 229.74979 234.37459 237.52939 243.62419 246.989 249.52881 257.30363 263.18843 266.3432 269.498 274.9628 278.9576 284.8424 288.83723 293.462 296.6168 302.0816 309.01643 316.16123 326.036">Alternaria, Colletotrichum </tspan></text>
<text fill="#231f20" xml:space="preserve" transform="matrix(1 0 -0 1 -18 802.8)" font-size="10.5" font-family="Bookman"><tspan y="-111.840579" x="328.56019 334.78309 341.86698">and</tspan></text>
<text fill="#231f20" xml:space="preserve" transform="matrix(1 0 -0 1 -18 802.8)" font-size="10.5" font-family="Bookman,Italic" font-style="italic"><tspan y="-111.840579" x="348.24018 350.61109 357.60017 362.19926 365.32835 370.76744 377.6765 383.5356 390.02473 395.4638 400.56016 410.31205"> Trichoderma</tspan></text>
<text fill="#231f20" xml:space="preserve" transform="matrix(1 0 -0 1 -18 802.8)" font-size="10.5" font-family="Bookman"><tspan y="-111.840579" x="416.64015">.</tspan></text>
<g clip-path="url(#clip_1779)">
<text xml:space="preserve" transform="matrix(1 0 -0 1 259.314 763.99978)" font-size="8" font-family="Arial"><tspan y="6.316" x="0"> </tspan></text>
</g>
</g>
</svg>
