<svg xmlns="http://www.w3.org/2000/svg" xmlns:xlink="http://www.w3.org/1999/xlink" xmlns:inkscape="http://www.inkscape.org/namespaces/inkscape" version="1.1" width="571.68008" height="780.48007" viewBox="0 0 571.68008 780.48007">
<defs>
<clipPath id="clip_7">
<path transform="matrix(1,0,0,-1,-20.16,800.64)" d="M20.16 20.16H591.84V800.64H20.16Z" clip-rule="evenodd"/>
</clipPath>
<clipPath id="clip_8">
<path transform="matrix(.23999998,0,0,-.23999998,-20.16,800.64)" d="M530 2255H1471V2176H530Z"/>
</clipPath>
<clipPath id="clip_9">
<path transform="matrix(1,0,0,-1,257.15403,766.8803)" d="M0-8H57.372V.800049H0Z"/>
</clipPath>
</defs>
<g clip-path="url(#clip_7)">
<path transform="matrix(.23999998,0,0,-.23999998,-20.16,800.64)" d="M0 3035.83H2550V3372.7003H0Z" fill="#d1d3d4" fill-rule="evenodd"/>
<path transform="matrix(.23999998,0,0,-.23999998,-20.16,800.64)" d="M0 3078.33H2550V3420H0Z" fill="#e1ecb6" fill-rule="evenodd"/>
<text fill="#231f20" xml:space="preserve" transform="matrix(1 0 -0 1 -20.16 800.64)" font-size="11" font-family="Bookman"><tspan y="-730.081" x="84">R</tspan></text>
<text fill="#231f20" xml:space="preserve" transform="matrix(1 0 -0 1 -20.16 800.64)" font-size="7.69999" font-family="Bookman"><tspan y="-730.081" x="91.92 97.40589 102.42979 107.14568 109.70558 115.191478 120.36937 125.085269 127.645168 133.74706">ESPIRATION</tspan></text>
<text fill="#231f20" xml:space="preserve" transform="matrix(1 0 -0 1 -20.16 800.64)" font-size="11" font-family="Bookman"><tspan y="-730.081" x="139.2"> </tspan></text>
<text fill="#231f20" xml:space="preserve" transform="matrix(1 0 -0 1 -20.16 800.64)" font-size="7.69999" font-family="Bookman"><tspan y="-730.081" x="141.84 144.3033">IN</tspan></text>
<text fill="#231f20" xml:space="preserve" transform="matrix(1 0 -0 1 -20.16 800.64)" font-size="11" font-family="Bookman"><tspan y="-730.081" x="150 152.5412"> P</tspan></text>
<text fill="#231f20" xml:space="preserve" transform="matrix(1 0 -0 1 -20.16 800.64)" font-size="7.69999" font-family="Bookman"><tspan y="-730.081" x="159.36 163.92819 169.11238 174.75858 179.48078">LANTS</tspan></text>
<path transform="matrix(.23999998,0,0,-.23999998,480.4752,51.47522)" d="M0 0C7.32 7.32 16.16 10.98 26.52 10.98H97.35C107.71 10.98 116.55 7.32 123.87 0 131.19-7.33 134.85-16.17 134.85-26.52V-101.52C134.85-111.88 131.19-120.72 123.87-128.04 116.55-135.36 107.71-139.02 97.35-139.02H26.52C16.16-139.02 7.32-135.36 0-128.04-7.32-120.72-10.98-111.88-10.98-101.52V-26.52C-10.98-16.17-7.32-7.33 0 0" fill="#ffffff" fill-rule="evenodd"/>
<text fill="#231f20" xml:space="preserve" transform="matrix(1 0 -0 1 -20.16 800.64)" font-size="11" font-family="Bookman"><tspan y="-729.361" x="505.92 513.21 520.5">155</tspan></text>
<path transform="matrix(.23999998,0,0,-.23999998,-20.16,800.64)" d="M2 2H2548V214.67H2Z" fill="#cbdf7f" fill-rule="evenodd"/>
<path transform="matrix(.23999998,0,0,-.23999998,-20.16,800.64)" stroke-width="4" stroke-linecap="butt" stroke-miterlimit="1000" stroke-linejoin="miter" fill="none" stroke="#cbdf7f" d="M2 2H2548V214.67H2Z"/>
<path transform="matrix(.23999998,0,0,-.23999998,577.44,-2.039978)" stroke-width="1" stroke-linecap="butt" stroke-miterlimit="10" stroke-linejoin="miter" fill="none" stroke="#000000" d="M0 0H60"/>
<path transform="matrix(.23999998,0,0,-.23999998,573.96,-20.159974)" stroke-width="1" stroke-linecap="butt" stroke-miterlimit="10" stroke-linejoin="miter" fill="none" stroke="#000000" d="M0 0V-60"/>
<path transform="matrix(.23999998,0,0,-.23999998,577.44,782.28)" stroke-width="1" stroke-linecap="butt" stroke-miterlimit="10" stroke-linejoin="miter" fill="none" stroke="#000000" d="M0 0H60"/>
<path transform="matrix(.23999998,0,0,-.23999998,573.96,786)" stroke-width="1" stroke-linecap="butt" stroke-miterlimit="10" stroke-linejoin="miter" fill="none" stroke="#000000" d="M0 0V-59"/>
<path transform="matrix(.23999998,0,0,-.23999998,-20.039999,-20.399964)" stroke-width="1" stroke-linecap="butt" stroke-miterlimit="10" stroke-linejoin="miter" fill="none" stroke="#000000" d="M0 0V-75"/>
<path transform="matrix(.23999998,0,0,-.23999998,-20.16,800.64)" d="M250 2170.41H1749.16V2266.25H250Z" fill="#fffac2" fill-rule="evenodd"/>
<text fill="#231f20" xml:space="preserve" transform="matrix(1 0 -0 1 -20.16 800.64)" font-size="10.5" font-family="Bookman"><tspan y="-688.561" x="60 66.4956 69.631198 75.0768 79.0524 85.128 92.0436 97.489208 102.93481 105.442928 109.418529 116.33413 122.40973 126.38533 128.89344 134.54903 140.62464 146.07024 151.51584 156.96144 159.46955 169.32515 176.45075 181.89635 185.87195 188.38005 194.87566 198.01126 201.35686 204.70246 211.82805 217.27365 222.71926 225.22736 230.67296 236.11856 241.56417 248.47977 250.98787 254.12348 261.03907 263.54719 266.68278 272.75837 277.36396 283.01957 288.46516 291.81077 294.31889 300.81449 307.9401 311.07569 317.5713 323.2269 325.73503 332.23063 335.3662 341.4418 348.3574 352.33299 357.77857 360.28669 363.42228 368.86787 371.37599 378.29158 384.15718 388.13276 390.64088 396.29649 400.90208 406.34767 412.42326 416.39884">distance that gases must diffuse even in large, bulky plants is not great.</tspan><tspan y="-674.4" x="60 67.462818 73.45563 78.818439 85.651248 88.07746 91.13027 94.18308 99.54589 102.5987 109.43151 115.00432 117.430538 122.79334 128.15616 131.20897 134.26178 136.688 139.74082 146.57363 148.99985 154.99266 157.41889 163.8317 166.8845 172.87732 179.71013 183.60294 186.02916 189.08197 194.44478 196.871 199.92382 205.70662 211.06943 217.06224 220.95505 226.31786 232.73067 235.15689 241.1497 248.19252 251.24533 255.13814 260.50096 262.9272 268.29 271.3428 277.1256 282.48844 287.85127 290.2775 294.17033 299.95314 302.37937 306.2722 313.105 318.46784 320.89408 326.2569 333.2997 337.8225 341.08534 347.07814 352.44096 357.80378 360.23 366.01283 369.27565 371.70188 375.5947 382.42753 387.79035 390.21659 396.6294 399.6822 405.675 412.5078 416.40065">Each living cell in a plant is located quite close to the surface of the plant.</tspan><tspan y="-660.481" x="60 62.22671 68.65342 75.50013 78.56684 83.94355 86.381877 89.448589 94.825298 97.26362 101.17033 105.70704 112.76375 118.14046 120.57878 123.85549 129.6522 134.18892 136.62723 139.69394 145.07065 151.07736 156.45407 161.83078 167.20749 169.4342 172.7109 175.14922 180.73593 186.53264 193.58936 196.02767 205.81438 211.82109 217.4078 219.84612 225.85283 231.22954 237.65625 240.93296 243.37126 245.59798 252.02469 259.0814 262.9881 265.42643 273.53315 280.37986 286.38658 290.29328 292.7316 298.7383 305.165 310.96174 318.01844 321.92515 324.36347 328.27018 335.11689 338.1836 343.5603 349.987 353.2637 355.70204 363.80876 369.60548 375.4022 381.8289 387.4156 389.8539 395.23063 399.13734 404.51405 414.30076">&#x2018;This is true for leaves&#x2019;, you may ask, &#x2018;but what about thick, woody stems</tspan><tspan y="-646.561" x="60 66.0864 73.0128 79.5192 82.28812 86.90452 92.780918 98.65732 102.643718 108.10011 113.76651 116.07291 118.84182 122.40822 129.33463 132.10353 137.55994 141.54634 147.00275 156.86914 162.32555 165.68195 168.45085 172.43726 179.36367 184.82007 187.58898 189.89537 193.04177 196.18816 201.64456 204.79096 211.71736 217.38376 219.69016 222.45906 227.91547 233.37187 236.51827 239.66466 245.12107 247.88997 253.97637 258.59278 264.04917 266.81809 272.6945 277.31089 282.9773 289.0637 295.99009 299.13648 304.59288 310.04927 316.55567 319.3246 322.47099 329.39738 332.1663 336.15269 343.07908 346.22547 353.15187 355.92079 359.06718 365.15357 370.81999 376.27638 380.89277 386.34916 389.11808 392.26448 399.19087 404.64726 407.79365 414.30006">and roots?&#x2019; In stems, the &#x2018;living&#x2019; cells are organised in thin layers inside</tspan><tspan y="-632.4" x="60 66.0286 72.8972 79.3458 81.8081 88.2567 93.6553 100.523899 105.92249 111.951099 115.8797 122.7483 125.210597 129.13919 136.0078 141.4064 143.8687 150.31729 156.34589 160.90448 167.35308 170.65167 173.11397 179.56256 186.43117 191.82978 197.43837 199.90067 205.92926 209.01786 214.41646 220.23506 222.69736 229.56597 235.59456 240.99317 246.39177 248.85407 254.67267 261.12129 266.51988 273.38847 276.47706 283.34565 288.95426 294.35285 296.81517 302.21376 308.24235 311.33094 314.41954 319.8181 326.26673 328.72904 331.81764 337.21623 344.0848 348.0134 351.102 356.50059 361.89918 364.98777 370.38636 373.68498 376.14729 382.5959 389.46449 394.86308 397.32539 402.72398 408.12257 411.21116 414.29975">and beneath the bark. They also have openings called lenticels. The cells</tspan><tspan y="-618.481" x="60 63.03151 69.84302 72.24822 76.119739 82.931247 88.27275 90.677959 93.709468 100.52097 104.39249 109.73399 114.235507 117.26701 123.02853 127.53004 129.93524 135.90676 140.40827 145.74977 148.15499 154.5465 159.888 165.85951 172.25102 174.65624 180.62775 187.43926 193.83077 196.23598 202.62749 207.129 212.8905 218.23201 221.26352 227.65503 232.99654 235.40175 241.16326 247.97476 251.00627 256.55778 258.96299 268.71449 274.056 279.39753 286.20906 292.18055 298.99208 302.0236 307.3651 313.3366 316.36814 318.77336 324.11488 331.13639 337.5279 343.9194 349.6809 354.1824 358.05393 361.29545 363.70066 370.09217 376.9037 383.9252 389.26673 392.50825 394.91346 404.66499 410.42649 415.768">in the interior are dead and provide only mechanical support. Thus, most</tspan><tspan y="-604.561" x="60 65.32231 70.64462 73.65694 76.66925 81.99156 84.37639 90.1187 93.34101 95.72584 101.67815 104.06297 110.43528 113.447589 119.399898 126.19221 130.04453 132.42934 139.22165 145.17397 150.49628 155.81859 158.2034 164.15572 168.00803 170.39284 173.40515 178.72747 184.67978 190.00209 193.8544 196.23921 202.19153 204.57634 210.94866 216.90097 221.38329 225.2356 227.6204 233.36272 236.58502 238.96984 242.82215 249.61446 254.93677 257.94908 262.43138 264.8162 270.1385 277.1408 282 285.22523 291.18043 296.5056 301.8308 304.21855 307.23374 314.02894 316.41667 321.74189 327.4871 334.2823 338.1375 344.0927 349.4179 353.27314 355.66087 363.71607 366.73127 370.5865 377.38169 379.7694 385.7246 388.7398 392.64 395.83753 398.19755 404.54505 411.31254 414.30003">cells of a plant have at least a part of their surface in contact with air. This</tspan><tspan y="-590.4" x="60 62.95111 68.21222 70.53584 76.426959 79.37807 84.639179 90.32028 92.643909 95.805019 101.69613 106.95724 109.90835 112.85946 115.81057 119.60168 125.49279 129.2839 134.54502 140.85613 143.17975 149.49086 154.96198 157.2856 161.0767 167.80782 173.06893 175.39255 178.34366 184.02477 189.70587 194.96698 200.22809 202.55171 208.86283 214.75394 220.01505 226.32616 229.27727 236.00838 241.47949 243.80312 249.48423 252.64534 254.96897 261.28007 267.17118 271.5923 276.8534 283.5845 288.8456 295.57673 301.04783 310.71894 316.61006 318.93367 324.19477 329.45588 332.40699 335.3581 340.6192 342.9428 345.89393 352.62504 354.94865 357.89976 363.16087 369.05198 374.31309 379.5742 384.8353 387.9964 390.32 395.58113 399.37223 404.63334 414.30445">is also facilitated by the loose packing of parenchyma cells in leaves, stems</tspan><tspan y="-576.481" x="60 66.06831 72.97662 79.464939 81.964359 86.56267 92.420978 98.27928 102.24759 107.6859 111.02421 113.52363 121.69194 128.60025 131.72856 137.16687 144.07518 146.5746 153.06291 157.66123 163.51953 168.95784 172.08615 178.57447 184.01277 186.51219 192.5805 199.48882 201.98824 205.11655 212.02486 215.99317 221.43148 226.02979 231.4681 237.3264 244.23471 251.14302 256.58134 262.01966 265.98799 271.4263 277.9146 280.41404 287.32237 292.76069 296.729 304.8973 310.7556 315.3539 321.84223 324.34165 330.19996 333.53828 336.0377 342.106 345.23429 349.83259 352.332 357.77033 364.25865 370.32695 375.76527 381.20359 386.6419">and roots, which provide an interconnected network of air spaces.</tspan><tspan y="-562.561" x="78 84.507907 91.43581 96.89371 100.04451 105.50241 111.38031 121.248218 127.75612 130.90402 136.36193 140.34983 145.80773 148.95851 154.41641 160.29431 170.16222 176.67012 183.80802 189.26592 193.25382 196.40172 202.27962 209.20752 212.3583 218.2362 221.5941 224.74489 230.41278 233.56069 240.69858 246.15648 252.03438 257.49229 262.95018 266.30809 269.4589 277.6468 284.57469 287.72257 293.18046 300.10835 303.25917 309.76707 314.38496 320.26286 326.77076 333.90867 339.36656 344.82444 350.28233 353.43315 361.20106">The complete combustion of glucose, which produces CO</tspan></text>
<text fill="#231f20" xml:space="preserve" transform="matrix(1 0 -0 1 -20.16 800.64)" font-size="6.1" font-family="Bookman"><tspan y="-558.961" x="369.6">2</tspan></text>
<text fill="#231f20" xml:space="preserve" transform="matrix(1 0 -0 1 -20.16 800.64)" font-size="10.5" font-family="Bookman"><tspan y="-562.561" x="373.44 376.551 382.617 389.523 396.009 399.12"> and H</tspan></text>
<text fill="#231f20" xml:space="preserve" transform="matrix(1 0 -0 1 -20.16 800.64)" font-size="6.1" font-family="Bookman"><tspan y="-558.961" x="407.76">2</tspan></text>
<text fill="#231f20" xml:space="preserve" transform="matrix(1 0 -0 1 -20.16 800.64)" font-size="10.5" font-family="Bookman"><tspan y="-562.561" x="411.6">O</tspan><tspan y="-548.4" x="60 66.0877 71.5454 74.2156 79.6733 86.601009 93.1087 95.7789 102.2866 106.9043 112.782 119.289699 126.4274 131.8851 135.8728 141.3305 144.6882 147.3584 153.0261 156.1738 161.6315 164.7792 171.28691 176.74462 179.41481 184.87252 191.80022 197.25792 201.87563 207.54332 213.21102 215.88121 225.74892 231.62662 237.08432 241.07202 243.74222 249.61992 252.97762 255.64783 263.83555 270.76325 273.91096 279.36866 286.29637 288.96656 292.11427 297.57197 300.24217 305.90986 309.05757 314.51527 319.97297 326.90068 329.57087 335.44856 342.58625 346.57395 349.24415 355.33186 360.78956 363.45976 370.38746 375.84516 381.93287 385.92057">as end products, yields energy most of which is given out as heat.</tspan></text>
<g clip-path="url(#clip_8)">
<text xml:space="preserve" transform="matrix(1.0119716 0 -0 .9881665 -20.16 800.64)" font-size="10.6034569" font-family="Bookman"><tspan y="-535.5367" x="127.3562 138.9757 154.62993 188.071 244.75467 252.34329 281.04096 293.6118 310.92445 318.5139 325.15556 330.60954 335.11576 340.57167">CHOOCOHOEnergy</tspan></text>
<text xml:space="preserve" transform="matrix(1.0119716 0 -0 .9881666 -20.16 800.64)" font-size="6.122439" font-family="Bookman"><tspan y="-532.86618" x="134.945 146.80393 150.59983 162.93317 196.37451 260.64323 289.5791">6126222</tspan></text>
<text xml:space="preserve" transform="matrix(1.0119716 0 -0 .9881666 -20.16 800.64)" font-size="10.6034569" font-family="Bookman"><tspan y="-535.5367" x="181.66681 238.11255 274.63673">666</tspan></text>
<text xml:space="preserve" transform="matrix(1.0119716 0 -0 .9881666 -20.16 800.64)" font-size="10.6034569" font-family="Symbol"><tspan y="-535.5367" x="171.94174 205.85709 224.12015 216.29256 267.2852 303.57218">+&#xf8e7;&#x2192;&#xf8e7;++</tspan></text>
</g>
<text fill="#231f20" xml:space="preserve" transform="matrix(1 0 -0 1 -20.16 800.64)" font-size="10.5" font-family="Bookman"><tspan y="-508.56" x="78 81.5162 84.822399 87.290409 91.22661 98.102809 101.199008 106.60521 109.07322 114.479419 121.35561 126.76181 131.328 136.9442 142.5604 145.0284 148.1246 153.5308 155.99881 159.93502 165.76122 168.22922 174.68543 180.09163 182.55963 189.64583 195.05204 200.45824 203.76444 210.85063 213.94684 216.41484 220.35105 226.17725 228.64525 232.58145 239.45766 244.86386 247.33187 252.73807 258.14427 261.24046 264.33665 267.64286 270.11088 273.20707 277.14326 279.61128 285.01747 291.89366 297.71986 304.80607 307.90226 314.35847 316.82649 323.28269 328.68888 331.1569 337.19309 343.6493 346.74549 352.15168 354.6197 358.55589 364.38209 366.8501 373.9363 377.8725 380.9687 384.06489 387.16108 392.56727 397.97346 400.44148 403.53767 407.47386 409.94187 413.87806">If this energy is to be useful to the cell, it should be able to utilise it to</tspan><tspan y="-494.4" x="60 65.45761 71.12522 78.05283 82.04044 88.968059 94.42567 99.88328 103.03089 108.4885 113.94611 116.74923 122.62684 126.61445 133.54206 138.99967 143.61728 146.42038 156.288 162.1656 165.31322 170.77083 176.22844 183.36605 186.51366 191.97127 197.42888 200.23198 204.21959 211.1472 217.23482 221.22243 224.02553 228.01314 234.94075 240.39836 243.20146 248.65908 254.11669 257.26429 260.4119 263.215 267.8326 273.29023 279.37785 286.51545 289.66307 294.28068 299.73829 305.1959 308.5535 311.3566 314.1597 320.6673 327.5949 333.05253 335.85563 341.31324 345.30085 349.91847 356.00608 359.99369 365.4513 371.1189 376.7865 379.5896 383.5772 390.50483 396.59245 400.58006 403.38316 407.37077 414.29838">synthesise other molecules that the cell requires.  The strategy that the</tspan><tspan y="-480.48" x="60 66.50891 69.65782 75.746738 82.675647 86.66455 89.77346 95.23237 100.69128 103.84019 106.9891 110.09801 117.236919 122.69582 128.15474 133.61365 136.72257 139.87148 145.33039 148.4393 152.4282 158.30712 161.41603 166.87494 172.96385 176.95276 183.04167 189.55059 195.42949 198.5784 201.72731 207.18622 212.64513 215.75405 219.74295 226.67186 232.13077 235.23969 240.9086 244.05751 251.19643 256.65534 262.53425 267.99317 273.4521 276.561 286.4299 292.3088 295.4577 300.91664 306.37556 313.51448 316.66337 322.12229 325.2312 328.3801 335.30903 338.41795 343.87687 351.01579 356.4747 363.40364 366.51255 372.60145 375.71037 383.89927 389.98817 395.65708 398.766 402.7549 409.68385 415.77275">plant cell uses is to catabolise the glucose molecule in such a way that</tspan><tspan y="-466.56" x="60 66.8247 72.599399 76.48409 78.9022 84.8869 87.9316 90.9763 93.39441 97.279109 104.103809 109.4585 111.87661 114.92131 117.96601 124.37071 129.72542 134.24011 140.22481 144.10951 149.46422 155.86891 158.28702 163.64173 170.46643 175.82114 180.33583 185.90053 191.46523 193.88333 199.44803 205.22274 210.57744 215.93215 218.35025 224.12496 231.15966 235.04436 237.46247 243.44716 248.80187 251.21997 258.04469 263.39939 269.3841 273.2688 276.5235 278.94163 281.35975 287.76445 294.58915 299.94386 302.36198 308.76667 314.12138 319.68608 322.1042 325.1489 330.5036 332.92173 336.80644 342.58113 344.99925 350.77394 356.5486 359.59333 365.99803 369.04273 374.39744 379.75215 382.17027 387.73497 390.77967 397.81437 403.16908 408.94377 414.29847">not all the liberated energy goes out as heat.  The key is to oxidise glucose</tspan><tspan y="-452.4" x="60 66.927417 72.804828 76.79224 79.38535 82.53276 89.460178 92.05329 97.9307 104.85811 110.31552 112.90864 118.36605 122.35346 127.810878 134.31829 136.91139 143.41881 150.55622 154.54363 157.13674 160.28415 167.21157 169.80467 175.26209 180.7195 186.17691 191.63433 196.25174 202.33916 205.48657 208.07968 213.5371 223.40451 229.49193 232.63935 235.78676 238.37987 243.83728 247.82469 253.2821 259.78953 265.24693 267.84007 273.29747 280.22486 286.31227 292.81968 295.96708 299.11448 306.04188 311.7093 314.30244 319.75984 325.63725 335.50465 340.96205 343.55519 349.01258 352.99998 358.45738 364.96479 370.42219 373.01533 377.00273 382.88014 385.47328 391.98069 397.43809 400.03123 403.17863 410.31605 415.77345">not in one step but in several small steps enabling some steps to be just</tspan><tspan y="-438.48" x="60 63.18759 69.315189 73.97278 79.68037 85.177959 90.25275 95.750339 102.717929 108.63551 115.8131 121.52069 128.48828 133.56307 139.06066 146.23825 151.73584 158.70343 163.77822 167.8058 174.77339 180.90099 184.92858 190.00336 194.03095 200.99854 206.49613 211.5709 217.0685 224.03609 229.53368 234.19127 239.89887 245.60646 250.68125 255.33884 260.83644 264.02403 269.5216 275.6492 281.1468 286.64439 293.19197 298.26673 303.7643 309.8919 316.8595 321.93428 328.48185 333.97944 339.0542 344.5518 350.4694 357.64698 364.19456 367.38215 372.87974 379.4273 384.50209 388.52967 394.44728 399.52204 406.69963 413.2472">large enough such that the energy released can be coupled to ATP</tspan><tspan y="-424.56" x="60 65.42261 71.055217 77.94782 81.90044 88.793048 94.21565 99.63826 102.75087 108.17348 111.496089 113.98239 116.4687 124.83131 130.67392 138.82654 141.31285 145.26546 152.15807 155.27068 160.69329 163.1796 166.2922 171.71482 174.20113 180.67374 186.51634 193.40895 198.83156 201.31787 204.43048 209.85309 213.1757 215.66202 221.08463 226.50724 231.92984 237.35245 244.24506 248.19766 251.31027 257.36289 260.4755 263.5881 269.2207 272.5433 275.0296 278.9822 285.87483 291.29743 293.78373 299.20634 303.15895 309.00157 313.58418 319.21678 321.70307 327.5457 330.8683 333.35459 337.9372 343.3598 348.7824 355.255 358.3676 362.95024 369.00285 372.95545 376.06806 381.91069 388.80329">synthesis.  How this is done is, essentially, the story of respiration.</tspan><tspan y="-410.4" x="78 86.3973 93.5346 98.1519 101.2992 108.2265 113.8938 118.5399 122.5272 129.4545 134.9118 139.5579 146.0652 150.6825 156.5598 162.0171 167.47441 172.93172 178.38903 183.03513 188.91243 192.26973 196.91584 201.53313 206.99044 212.44774 218.95503 222.10233 226.71962 232.80692 236.79422 239.94152 245.81882 252.74613 256.10343 260.7495 266.6268 272.5041 278.1714 283.83869 289.296 296.2233 300.8694 304.0167 309.474 314.1201 321.2574 325.2447 328.392 331.5393 334.6866 340.14393 345.60124 352.10853 355.46583 360.1119 366.19923 373.12654 379.63383 384.2799 389.7372 395.82453 400.44184 406.94914 412.82643">During the process of respiration, oxygen is utilised, and carbon</tspan><tspan y="-396.48" x="60 66.50621 69.65242 75.52863 81.40485 84.551059 91.05727 96.51347 99.86968 104.35359 112.5398 118.626018 122.61223 128.06844 132.68465 137.16857 143.25478 150.18099 156.6872 161.17111 166.62732 173.55353 179.00974 183.62595 189.29216 194.95838 199.44229 205.5285 210.14472 215.60092 220.08484 224.70105 230.15726 233.30347 238.75968 244.84589 250.3021 255.7583 262.26454 266.7484 272.83464 278.29084 282.77473 289.28096 293.89717 299.77339 306.2796 313.4158 318.872 322.85823 328.31443 331.67063 336.1545 342.6607 349.5869 355.04313 359.527 364.98323 370.85945 380.72566 387.23188 394.36808 399.82429 403.8105 406.9567 412.83293">dioxide, water and energy are released as products. The combustion</tspan><tspan y="-382.56" x="60 64.61541 70.07082 76.156238 81.61165 85.59706 88.74247 94.61788 101.54329 104.4714 109.08681 114.54222 120.62763 127.76304 130.90845 135.52387 140.97928 146.4347 149.3628 155.2382 161.11362 166.77902 172.44443 177.89984 184.82526 188.18067 191.10877 198.87418 206.00959 209.995 212.9231 218.37851 224.25392 234.11934 239.57476 242.50286 247.95827 253.41368 256.55909 259.7045 265.1599 268.088 271.23344 274.37886 279.83427 285.28968 288.21778 296.4032 303.3286 308.78404 313.39945 318.85487 321.78297 327.65837 333.53376 339.19917 344.86457 350.31999 357.2454 360.1735 370.0389 376.12434 381.78974 384.71784 390.59324 395.20866 398.13676 408.00218 414.0876">reaction requires oxygen. But some cells live where oxygen may or may</tspan><tspan y="-368.4" x="60 66.8229 72.5958 76.4787 78.89831 85.30121 90.654109 93.073719 99.05662 104.409519 110.39242 113.43532 116.47822 122.46112 128.86402 131.90692 137.25983 140.51273">not be available. </tspan></text>
<text fill="#231f20" xml:space="preserve" transform="matrix(1 0 -0 1 -20.16 800.64)" font-size="10.5" font-family="Bookman" font-style="italic"><tspan y="-368.4" x="143.04 150.63019 157.17038 163.71057 166.05327 172.38346 178.08365 184.62384 186.96654 190.56673 197.10692 200.0771 206.6173 212.94748 215.29018 220.99037 224.59056 226.93326 232.63346 239.17365 244.24384 250.78403 253.12673 258.8269 261.7971 265.39729 271.93748 278.47767 282.07786 285.04804 290.74824 297.28843 302.98863 305.3313 308.30149 314.84169 321.38188 328.13206 330.47474 336.17494 340.40513 346.3153 352.8555 359.3957 362.36589 368.06608 377.33628 383.03648 386.00666 388.34934 397.61955 404.15974 409.85993 414.09013">Can you think of such situations (and organisms) where</tspan><tspan y="-354.48" x="60">O</tspan></text>
<text fill="#231f20" xml:space="preserve" transform="matrix(1 0 -0 1 -20.16 800.64)" font-size="6.1" font-family="Bookman" font-style="italic"><tspan y="-350.88" x="68.4">2</tspan></text>
<text fill="#231f20" xml:space="preserve" transform="matrix(1 0 -0 1 -20.16 800.64)" font-size="10.5" font-family="Bookman" font-style="italic"><tspan y="-354.48" x="72.24 74.6967 77.6934 83.4201 85.8768 92.443508 98.170207 101.796909 104.25361 110.82031 116.54701 123.113719 126.11041 129.10712 135.67382 142.03052 145.02722 150.75392 156.48062"> is not available? </tspan></text>
<text fill="#231f20" xml:space="preserve" transform="matrix(1 0 -0 1 -20.16 800.64)" font-size="10.5" font-family="Bookman"><tspan y="-354.48" x="158.88 161.48622 164.09244 170.59865 177.52486 182.98107 187.59728 193.05348 195.6597 201.74591 206.36212 211.81833 214.42455 219.88076 227.01697 230.37319 233.7294 236.87561 242.33182 245.47803 250.93424 257.86045 261.84666 264.45286 269.06907 274.52528 280.61149 286.0677 291.9439 298.87013 304.32633 306.93254 310.91874 316.79496 319.40116 325.90736 331.36357 334.50978 337.65599 343.11219 348.5684 354.0246 356.6308 360.617 367.5432 373.62944 377.61564 380.22184 384.20805 391.13426 396.59046 399.19667 402.55287 405.69908 410.31529 415.77149">  There are sufficient reasons to believe that the first</tspan><tspan y="-340.56" x="60 65.45851 70.91702 74.06554 77.21405 82.67256 86.601879 92.480388 99.4089 103.33821 107.32672 114.25523 117.40375 122.86226 126.79157 133.30008 136.4486 142.53711 149.46562 154.92414 158.91265 162.84195 165.99047 169.13898 174.59749 180.056 186.56452 190.49382 193.64234 200.57085 204.50016 210.58867 217.51718 221.44649 227.535 231.52352 241.39203 247.27054 252.72905 259.23756 266.16606 271.62455 276.24305 281.70155 285.63087 289.6194 296.54789 302.63639 306.62489 310.5542 313.7027 319.7912 325.2497 331.7582 337.2167 343.72523 347.65455 353.53306 359.41157 365.08009 370.7486 376.2071 383.1356 386.4941 390.42344 394.35276 401.91127 407.36976 412.82826">cells on this planet lived in an atmosphere that lacked oxygen.  Even</tspan><tspan y="-326.4" x="60 65.95771 75.69542 81.44313 88.240848 93.77856 96.171268 102.54897 107.03668 112.364398 117.69211 123.01982 129.81754 133.67525 137.74295 144.12067 150.07839 155.61609 158.00879 161.0265 164.04422 169.37194 172.38965 179.18737 184.72507 187.11777 192.86548 197.3532 202.8909 208.84862 215.64633 218.66405 223.99176 233.72948 239.05719 242.2849 244.6776 252.7353 258.06303 260.45576 266.83348 273.63117 279.37889 287.43659 289.8293 295.57704 298.80476 301.19749 306.52519 311.85289 317.18058 322.50828 326.99598 332.95368 335.97138 338.3641 342.2218 349.0195 354.9772 358.8349 361.22764 367.18534 371.67304 377.00074 379.39347 385.35118 391.72889 397.68659 404.0643 407.922 413.2497">among present-day living organisms, we know of several that are adapted</tspan><tspan y="-312.48" x="60 64.1516 70.19321 75.3925 81.644107 88.7357 94.987308 100.6089 105.3905 111.432109 118.10371 121.415309 127.0369 132.2362 137.8578 143.8994 150.991 157.6626 160.9742 165.1258 168.4374 174.47899 181.57059 187.19219 190.71379 195.9131 201.11241 208.20401 214.2456 224.2772 229.8988 235.09812 241.13971 244.66132 249.86063 254.01222 261.10383 266.72544 272.34706 277.96867 283.16798 289.20957 293.99116 299.82276 306.07435 313.16596 316.47758 322.09919 332.1308 337.7524 342.95173 349.2033 353.9849 359.6065 364.80583 368.32743 374.579 380.20063 387.50224 390.81385 394.96546 401.21705 405.36866 408.68028 414.30189">to anaerobic conditions.  Some of these organisms are facultative</tspan><tspan y="-298.56" x="60 66.0893 73.0186 79.1079 84.5672 89.1865 95.0658 101.5751 107.0344 112.4937 115.853 119.7345 127.9238 134.8531 138.00241 141.15172 146.61103 150.49253 153.64183 160.57114 164.45264 170.33194 174.32125 181.25055 186.70986 191.32915 196.78845 200.66996 204.65926 211.58856 217.04787 220.92937 225.54866 231.00797 237.09726 244.23656 247.38587 252.00516 257.46446 267.33375 272.79304 279.72233 283.7116 287.5931 290.95243 296.83174 301.45103 305.33253 311.4218 318.3511 324.4404 329.8997 334.51899 340.3983 346.9076 350.0569 355.51618 359.39768 364.85697 370.73628 377.66557 384.17488 387.32417 391.31346 394.46275 400.34205 407.27134 411.15284 414.30213">anaerobes, while in others the requirement for anaerobic condition is</tspan><tspan y="-284.4" x="60 65.7209 72.0718 75.0627 78.0536 83.5645 89.4954 93.3263 98.627208 101.8281 104.192699 106.55729 109.968189 116.73908 119.103679 125.03458 131.80548 137.31638 139.68097 144.98188 150.91278 156.21369 161.51459 164.71549 167.08008 173.01099 176.00189 178.9928 181.35739 184.3483 187.3392 192.6401 195.63101 202.40192 207.91281 210.2774 215.9983 220.45922 225.97011 231.901 238.6719 241.66281 246.96372 256.67463 261.97554 264.34013 268.80104 274.10194 277.93284 283.86375 286.85466 293.62556 295.99015 299.82106 306.59196 311.89286 314.25746 319.55836 326.32926 331.21015 336.72105 346.43196 352.36286 356.19377 359.18467 364.48558 366.85017 376.56108 382.49198 387.79289 394.56379 397.5547 404.3256 409.6265 414.0874">obligate.  In any case, all living organisms retain the enzymatic machinery</tspan><tspan y="-270.48" x="60 63.98941 69.86882 72.528247 79.03765 85.12706 89.74647 93.73588 96.885288 102.97469 106.1241 109.273509 114.94292 117.60234 123.48175 129.36116 132.51058 139.01999 142.1694 147.62882 153.08823 155.74764 161.41704 164.56645 171.70586 177.16527 183.04468 188.50409 193.9635 196.62291 204.81232 207.96173 211.95114 218.88056 224.75997 231.89937 235.88878 238.54819 242.5376 249.46701 254.92642 257.58586 264.51527 269.97468 273.12409 279.63349 282.2929 288.17234 291.53175 294.19117 300.0706 305.95 311.61943 317.28883 322.74824 329.67765 333.03706 335.69648 338.3559 344.8653 351.7947 354.94413 360.40354 363.06297 369.57237 374.19178 379.65119 385.7406 392.25 398.7594 404.63883 412.82826">to partially oxidise glucose without the help of oxygen.  This breakdown</tspan><tspan y="-256.56" x="60 65.87471 69.22942 72.10554 77.77025 80.914958 88.04967 93.50438 99.37909 104.8338 110.28851 113.16463 117.14934 123.02405 125.90016 132.40488 138.06958 142.6843 149.819 155.27371 158.41843 163.87314 166.74924 172.83396 178.28867 181.43338 187.9381 190.8142 193.95891 199.41362 202.28972 207.74443 213.82915 216.97386 220.11858 225.57329 232.078">of glucose to pyruvic acid is called </tspan></text>
<text fill="#231f20" xml:space="preserve" transform="matrix(1 0 -0 1 -20.16 800.64)" font-size="10.5" font-family="Bookman"><tspan y="-256.56" x="235.2 241.242 244.764 251.22602 257.268 263.73 267.252 273.71403 279.126 282.858 288.27">glycolysis.</tspan></text>
<text fill="#00aeef" xml:space="preserve" transform="matrix(1 0 -0 1 -20.16 800.64)" font-size="13" font-family="Bookman"><tspan y="-223.44" x="60 68.286899 76.57379 80.70069 102">12.2G</tspan></text>
<text fill="#00aeef" xml:space="preserve" transform="matrix(1 0 -0 1 -20.16 800.64)" font-size="9.1" font-family="Bookman"><tspan y="-223.44" x="112.8 118.587818 124.92162 131.61943 138.86324 144.65105 150.98487 156.95468 160.55849">LYCOLYSIS</tspan></text>
<text fill="#231f20" xml:space="preserve" transform="matrix(1 0 -0 1 -20.16 800.64)" font-size="10.5" font-family="Bookman"><tspan y="-196.8" x="60 66.35391 73.12782 78.43173 80.80235 84.63626 89.94017 94.80008 104.51399 106.88461 112.39852 115.39243 120.90634 126.21025 131.93416 134.92807 140.44199 145.7459 148.7398 154.04372 156.41434 163.18825 169.12216 174.42607 176.79669 182.5206 186.98451 189.97843 195.49234 198.48625 205.26016 211.19408 215.02799 220.3319 226.6858 229.05643 232.26033 236.88 242.60462 252.31923 254.69055 258.52519 265.29978 270.60438 272.9757 281.2203 285.6 290.8989 296.19779 302.5467 304.91233 312.94123 318.66014 323.28 329.5978 334.86564 338.03346">The term glycolysis has originated from the Greek words, </tspan></text>
<text fill="#231f20" xml:space="preserve" transform="matrix(1 0 -0 1 -20.16 800.64)" font-size="10.5" font-family="Bookman" font-style="italic"><tspan y="-196.8" x="340.56 346.23603 348.97206 355.06806 359.90406 365.37007">glycos</tspan></text>
<text fill="#231f20" xml:space="preserve" transform="matrix(1 0 -0 1 -20.16 800.64)" font-size="10.5" font-family="Bookman"><tspan y="-196.8" x="370.8 373.1389 376.3278 382.0367 386.48564 388.82453 394.11344 401.08235 406.58125 412.50016 416.64"> for sugar,</tspan><tspan y="-182.88" x="60 66.09999 73.03998 79.55997">and </tspan></text>
<text fill="#231f20" xml:space="preserve" transform="matrix(1 0 -0 1 -20.16 800.64)" font-size="10.5" font-family="Bookman" font-style="italic"><tspan y="-182.88" x="83.52 86.28001 92.40002 97.89003 100.65004">lysis</tspan></text>
<text fill="#231f20" xml:space="preserve" transform="matrix(1 0 -0 1 -20.16 800.64)" font-size="10.5" font-family="Bookman"><tspan y="-182.88" x="106.56 110.54279 113.89829 119.773799 124.3893 128.3721 133.8276 140.3331 143.4786 146.62412 150.60962 154.59513 157.74063 164.66614 170.33164 173.68714 177.66994 181.65274 188.15824 195.08374 200.53925 204.52205 209.97756 215.43306 222.35857 227.81407 237.67957 243.13507 247.11788 252.99338 256.34889 260.33168 265.99717 269.14268 274.80818 280.26368 286.13917 289.28468 294.95018 300.40568 303.55119 309.00669 312.98948 321.17497 327.26048 332.71598 336.69877 342.36427 345.50978 350.96528 356.42079 363.34629 367.32908 373.83457 379.50007 383.48286 391.87837 399.01387 404.46937 408.45487 414.54039"> for splitting.  The scheme of glycolysis was given by Gustav</tspan><tspan y="-168.96" x="60 67.55651 77.42302 83.92953 90.436038 95.89255 102.81906 106.17557 109.60706 118.00357 121.99008 125.97659 131.8531 135.2846 144.94112 150.39763 156.06414 161.52065 166.13716 173.06368 178.94019 182.29669 185.6532 189.0847 195.17122 202.09774 208.60425 212.03575 218.33226 221.68877 225.12027 231.62679 237.7133 242.32982 249.25634 255.34285 260.79936 264.15586 267.58735 273.67387 280.60038 287.10688 290.53837 293.68489 299.1414 302.57289 308.44938 311.80589 315.7924 321.2489 328.1754 331.6069 336.22343 341.67994 345.03645 350.49296 355.10948 359.72599 365.1825 371.689 375.12049 379.107 384.9835 388.41499 394.5015 399.958 403.3895 407.376 414.30253">Embden, Otto Meyerhof, and J. Parnas, and is often referred to as the</tspan><tspan y="-154.8" x="60 67.32151 76.74302 83.01453 85.299739 91.57124 97.42275 101.17426 107.865779 115.81728 121.66879 127.1003 130.22182 132.50702 135.83853 142.53005 144.81525 150.66677 157.35828 163.2098 168.4313 172.81282 178.45433 184.72585 187.63736 192.85887 195.14408 200.78559 205.1671 210.5986 216.45012 223.14163 226.05315 231.27466 240.90618 246.12769 249.24919 251.5344 254.4459 258.19743 260.48265 263.39414 268.61564 270.90086 274.65235 281.34385 286.56535 288.85057 294.49208 301.18357 304.09507 309.52659 311.8118 318.0833 322.4648 328.10633 333.32783 338.54933 343.7708 348.9923 351.27754 354.18904 360.88053 363.16575 367.54725 372.76875 377.99024 384.26176 387.17326 391.55476 397.40626 401.15776 404.06925 409.71076 416.40226">EMP pathway. In anaerobic organisms, it is the only process in respiration.</tspan><tspan y="-140.88" x="60 68.397 71.54401 77.211009 82.66801 88.545009 91.69201 97.35901 102.81601 105.96301 111.42001 114.23093 120.107929 125.564929 131.02193 138.15892 142.77593 148.23293 151.04383 154.19083 161.11783 163.92873 167.91573 174.84273 180.29973 183.11063 188.56763 194.23464 198.22164 204.09864 210.60564 213.75264 219.83965 225.29665 235.16365 237.97455 243.85155 247.20854 250.01944 254.00644 260.93345 266.39045 269.20137 274.65837 280.11537 283.26237 286.40937 289.22029 295.30729 302.23429 308.74128 311.5522 314.6992 320.1562 322.9671 329.4741 334.0911 339.5481 345.0051 350.4621 357.3891 361.3761 364.187 367.334 374.26103 377.07194 383.15895 386.30595 389.45295 392.26387 395.41087 398.55787 404.01487 407.16188 414.08888">Glycolysis occurs in the cytoplasm of the cell and is present in all living</tspan><tspan y="-126.96" x="60 65.87671 70.493419 76.160129 82.24683 89.173549 92.32026 97.77697 107.64368 113.10039 116.4571 118.97881 121.50053 125.06724 131.99394 134.51564 138.50235 145.42906 148.57578 154.03249 156.55419 163.0609 167.67761 173.55432 179.01103 184.46775 189.92446 195.38117 198.73787 201.25957 206.92627 210.07299 217.20969 222.6664 228.5431 233.99982 239.45653 241.97823 249.11493 256.04164 262.54835 268.00505 272.62174 278.28846 284.16517 289.62187 295.07856 297.60029 304.107 310.1937 314.8104 318.79713 321.94383 328.03053 331.17723 333.69895 339.57566 345.45237 348.59907 355.10578 361.19248 365.1792 368.3259 374.2026 381.1293 383.65104 387.63777 393.51448 396.0362 399.3929 405.26963 409.88633">organisms.  In this process, glucose undergoes partial oxidation to form</tspan><tspan y="-112.8" x="60 63.9855 72.171 78.0465 82.21559 92.08109 97.9566 101.1021 106.557598 112.01309 119.14859 122.29409 127.74959 133.2051 137.37418 143.24968 146.60518 150.77426 157.27976 162.94525 167.56075 174.69625 180.15175 183.29724 188.75275 192.92183 199.00733 204.46283 207.60834 214.11383 217.46933 221.63842 225.20392 232.12943 236.29851 242.804 245.9495 252.03499 258.96049 262.94599 268.4015 271.757 275.9261 279.9116 286.8371 289.9826 295.4381 299.6072 305.2727 308.4182 315.5537 321.00923 326.8847 332.3402 337.79573 341.9648 345.11033 350.56584 354.73493 361.24043 366.69593 371.31144 374.45695 379.91246 385.36796 391.87345 396.04255 399.39805 404.01356 409.88905">two molecules of pyruvic acid. In plants, this glucose is derived from</tspan><tspan y="-98.88" x="60 65.4579 72.5958 78.0537 82.6716 88.5495 94.0074 99.4653 102.823207 106.891109 115.07901 122.00691 125.154819 130.61272 137.54062 141.60852 144.75643 150.21433 154.28223 158.27013 165.19803 170.65593 174.72383 180.18173 187.10964 193.61754 197.68544 204.19335 208.81125 214.68915 221.19705 228.33495 233.79285 237.78075 241.84865 247.72655 251.08444 255.15235 261.66026 268.58815 274.46604 278.45396 284.33186 289.78974 295.45765 302.38554 306.37345 313.30134 318.75923 324.2171 327.365 332.82289 336.1808 340.2487 346.1266 350.74449 354.81239 358.1703 362.78819 368.66609 378.53398 382.60188 388.05976 392.04768 397.92558 402.54347 408.63136 414.29927">sucrose, which is the end product of photosynthesis, or from storage</tspan></text>
<g clip-path="url(#clip_9)">
<text xml:space="preserve" transform="matrix(1 0 -0 1 257.15403 766.8803)" font-size="8" font-family="Arial"><tspan y="6.316" x="0"> </tspan></text>
</g>
</g>
</svg>
