<svg xmlns="http://www.w3.org/2000/svg" xmlns:xlink="http://www.w3.org/1999/xlink" xmlns:inkscape="http://www.inkscape.org/namespaces/inkscape" version="1.1" width="576" height="784.8" viewBox="0 0 576 784.8">
<defs>
<clipPath id="clip_8242">
<path transform="matrix(1,0,0,-1,-18,802.8)" d="M18 18H594V802.8H18Z" clip-rule="evenodd"/>
</clipPath>
<clipPath id="clip_8243">
<path transform="matrix(.23999998,0,0,-.23999998,-18,802.8)" d="M758 1812H1863V708H758Z"/>
</clipPath>
<clipPath id="clip_8244">
<path transform="matrix(1,0,0,-1,259.314,763.9998)" d="M0-8H57.372V.800049H0Z"/>
</clipPath>
</defs>
<g clip-path="url(#clip_8242)">
<path transform="matrix(.23999998,0,0,-.23999998,-18,802.8)" d="M2 2H2548V214.67H2Z" fill="#cbdf7f" fill-rule="evenodd"/>
<path transform="matrix(.23999998,0,0,-.23999998,-18,802.8)" stroke-width="4" stroke-linecap="butt" stroke-miterlimit="1000" stroke-linejoin="miter" fill="none" stroke="#cbdf7f" d="M2 2H2548V214.67H2Z"/>
<path transform="matrix(.23999998,0,0,-.23999998,-18,802.8)" d="M0 3035.83H2550V3372.7003H0Z" fill="#d1d3d4" fill-rule="evenodd"/>
<path transform="matrix(.23999998,0,0,-.23999998,-18,802.8)" d="M0 3078.33H2550V3420H0Z" fill="#e1ecb6" fill-rule="evenodd"/>
<path transform="matrix(.23999998,0,0,-.23999998,62.63616,53.635194)" d="M0 0C7.32 7.32 16.16 10.98 26.52 10.98H97.35C107.71 10.98 116.55 7.32 123.87 0 131.19-7.33 134.85-16.17 134.85-26.52V-101.52C134.85-111.88 131.19-120.72 123.87-128.04 116.55-135.36 107.71-139.02 97.35-139.02H26.52C16.16-139.02 7.32-135.36 0-128.04-7.32-120.72-10.98-111.88-10.98-101.52V-26.52C-10.98-16.17-7.32-7.33 0 0" fill="#ffffff" fill-rule="evenodd"/>
<text fill="#231f20" xml:space="preserve" transform="matrix(1 0 -0 1 -18 802.8)" font-size="11" font-family="Bookman"><tspan y="-729.361" x="87.12 94.409999 101.69999">102</tspan></text>
<text fill="#231f20" xml:space="preserve" transform="matrix(1 0 -0 1 -18 802.8)" font-size="11" font-family="Bookman"><tspan y="-729.361" x="513.12">B</tspan></text>
<text fill="#231f20" xml:space="preserve" transform="matrix(1 0 -0 1 -18 802.8)" font-size="7.69999" font-family="Bookman"><tspan y="-729.361" x="521.04 523.4336 529.3692 533.76486 539.70046 545.63607">IOLOGY</tspan></text>
<path transform="matrix(.23999998,0,0,-.23999998,-18,.35998536)" stroke-width="1" stroke-linecap="butt" stroke-miterlimit="10" stroke-linejoin="miter" fill="none" stroke="#000000" d="M0 0H60"/>
<path transform="matrix(.23999998,0,0,-.23999998,.12000084,-18)" stroke-width="1" stroke-linecap="butt" stroke-miterlimit="10" stroke-linejoin="miter" fill="none" stroke="#000000" d="M0 0V-60"/>
<path transform="matrix(.23999998,0,0,-.23999998,-18,784.68)" stroke-width="1" stroke-linecap="butt" stroke-miterlimit="10" stroke-linejoin="miter" fill="none" stroke="#000000" d="M0 0H60"/>
<path transform="matrix(.23999998,0,0,-.23999998,.12000084,788.16)" stroke-width="1" stroke-linecap="butt" stroke-miterlimit="10" stroke-linejoin="miter" fill="none" stroke="#000000" d="M0 0V-60"/>
<path transform="matrix(.23999998,0,0,-.23999998,593.64,784.56)" stroke-width="1" stroke-linecap="butt" stroke-miterlimit="10" stroke-linejoin="miter" fill="none" stroke="#000000" d="M0 0V-75"/>
<g clip-path="url(#clip_8243)">
<path transform="matrix(.23999998,0,0,-.23999998,296.84635,368.54164)" d="M0 0C303.16 0 550.42-247.04 550.42-549.92 550.42-852.81 303.16-1099.84 0-1099.84-303.16-1099.84-550.41-852.81-550.41-549.92-550.41-247.04-303.16 0 0 0" fill="#fffcd5" fill-rule="evenodd"/>
</g>
<text fill="#231f20" xml:space="preserve" transform="matrix(1 0 -0 1 -18 802.8)" font-size="10.5" font-family="Bookman"><tspan y="-688.561" x="210 217.31 223.56999 233.81999 239.65999 244.02999 247.55998 257.81 263.65 269.49 274.90498 281.37498 286.78996 290.52995 296.36994 304.93995 310.35493 316.19493 323.5049 328.5049 334.76493 345.01493 351.27494 357.11494 363.37495 373.62495 379.46495 385.30494 390.7199 398.0299 404.4999 410.3399 416.1799 421.59489 428.90489 435.1649 442.47489 447.05488 452.89488 457.26487 463.73487 467.26487 474.57487 478.10487 485.41487 491.46485 496.87983 502.71983 508.5598 514.39987 520.65988 527.96987 534.85989 541.32986 546.32986">Sometimes a few chromosomes have non-staining secondary</tspan><tspan y="-674.4" x="192 197.3941 203.2082 210.07231 215.46642 219.39052 223.94463 227.02873 232.42284 236.34694 239.43105 245.24515 252.10926 257.50337 259.96116 265.98527 269.90937 272.36717 278.39128 280.84907 286.24317 292.05726 298.92137 304.31547 308.23957 314.26368 321.12779 325.05189 327.50968 330.59379 336.40788 341.80198 347.82609 351.75019 354.8343 360.64839 367.51249 370.80659 373.26438 379.70848 386.57258 389.65669 395.05079 397.50859 403.11268 406.19679 411.59089 416.985 422.3791 424.83689 428.761 435.6251 441.0192 443.477 449.5011 455.9452 462.38929 467.7834 473.8075 478.3616 484.3857 491.24983 496.64393 502.03804 504.49583 510.3099 513.604 516.0618 522.08596 524.54379 529.93789 539.74197 545.76608 548.85018">constrictions at a constant location. This gives the appearance of a small</tspan><tspan y="-660.481" x="192 195.31322 199.88643 205.92964 211.55286 221.37607 226.78928 233.67249 237.61569 240.09563 245.50884 251.55205 254.65526 257.75846 263.17167 269.63487 272.11479 276.05799 282.9412 288.3544">fragment called the </tspan></text>
<text fill="#231f20" xml:space="preserve" transform="matrix(1 0 -0 1 -18 802.8)" font-size="10.5" font-family="Bookman"><tspan y="-660.481" x="290.88 296.2013 302.1526 306.8439 312.7952 316.2265 319.6578 323.2991 327.99043">satellite</tspan></text>
<text fill="#231f20" xml:space="preserve" transform="matrix(1 0 -0 1 -18 802.8)" font-size="10.5" font-family="Bookman"><tspan y="-660.481" x="334.08">.</tspan></text>
<text fill="#00aeef" xml:space="preserve" transform="matrix(1 0 -0 1 -18 802.8)" font-size="12" font-family="Bookman"><tspan y="-634.081" x="192 200.064 204.28798 212.35198 216.57596 224.63996 240 251.232 255.504 262.416 267.888 275.28 282.432 289.824 297.456 301.728 308.63999">8.5.11Microbodies</tspan></text>
<text fill="#231f20" xml:space="preserve" transform="matrix(1 0 -0 1 -18 802.8)" font-size="10.5" font-family="Bookman"><tspan y="-614.161" x="192 201.55301 207.53603 214.35904 219.92205 222.83135 232.59436 237.94738 247.71039 254.1134 258.6264 264.6094 271.4324 276.7854 279.69474 286.09776 291.87077 298.90379 305.72679 312.1298 315.03913 324.80213 327.84513 334.66813 341.70115 345.58415 350.93714 353.84648 359.19947 364.55247 369.90547 372.94847 378.30146 381.34446 386.69746 392.05046 394.95979 400.31278 406.29579 409.33879 412.38179 417.73478 424.1378 427.04713 436.81013 439.85313 445.20613 449.71913 455.49214 461.89515 467.66816 474.07118 477.11418 482.46717 487.82017 490.7295 494.6125 501.4355 507.4185 511.30149 514.2108 519.56387 525.33688 532.15988 536.04287 542.0259 545.0689">Many membrane bound minute vesicles called microbodies that contain</tspan><tspan y="-600" x="192 197.33931 203.30863 207.80794 210.83725 216.59656 223.61588 228.95519 231.39449 236.7338 243.5431 248.46242 254.01174 263.76106 269.10038 274.32 277.68 280.07633 286.04634 290.54634 295.88633 298.28266 304.67268 309.17268 314.51268 319.85267 325.19267 332.00267 335.87266 338.26899 341.29899 348.10899 350.5053 356.89533 362.65534 366.52534 373.33534 375.73167 382.12168 385.15168 391.12168 397.93168 401.80168 404.198 410.168 416.978 423.368 425.76435 431.73435 438.54435 441.57435 451.32435 457.29435 460.32435 462.72068 468.06068 473.40068 476.43067 479.46067 484.80067">various enzymes, are present in both plant and animal cells.</tspan></text>
<text fill="#00aeef" xml:space="preserve" transform="matrix(1 0 -0 1 -18 802.8)" font-size="13" font-family="Bookman"><tspan y="-547.441" x="288.96">S</tspan></text>
<text fill="#00aeef" xml:space="preserve" transform="matrix(1 0 -0 1 -18 802.8)" font-size="9.1" font-family="Bookman"><tspan y="-547.441" x="297.6 304.0582 312.3364 320.6146 326.8908 333.713">UMMARY</tspan></text>
<text fill="#231f20" xml:space="preserve" transform="matrix(1 0 -0 1 -18 802.8)" font-size="10.5" font-family="Bookman"><tspan y="-513.121" x="113.04 120.04721 123.06442 126.081638 128.47225 134.21945 138.70667 144.24388 150.2011 156.9983 160.01552 165.34273 175.07994 180.40715 182.79776 188.75498 193.24219 198.5694 200.96 210.69722 216.65444 223.03165 228.35886 230.74947 236.49668 239.72388 242.11449 247.4417 252.7689 255.78612 258.8033 264.13053 266.52116 272.26838 276.75559 279.1462 285.10343 290.64064 296.17784 300.66505 305.99226 311.52946 317.48667 321.34388 326.67109 331.9983 334.38893 340.13615 343.36335 345.75398 351.08119 356.4084 359.4256 362.4428 367.77003 370.99723 373.38786 381.02507 386.35227 389.36949 392.3867 397.7139 400.10453 405.43174 411.38896 415.87617 421.41337 423.804 426.8212 433.6184 436.00904 439.86625 446.66346 451.99067 455.00788 459.4951 461.8857 467.21293 474.01014 479.96736 486.34455 491.67176 494.89897 497.28959 502.6168 505.634 510.5412">All organisms are made of cells or aggregates of cells. Cells vary in their shape, size</tspan><tspan y="-499.681" x="113.04 119.020008 125.840007 132.24 134.6537 140.6337 145.9837 149.86371 152.9037 158.25371 161.2937 165.1737 168.2137 173.5637 178.91371 185.10372 188.35372 195.38372 202.20372 207.55373 211.43373 214.47373 220.24373 227.06374 232.41374 235.66374 238.07744 245.73744 251.71744 257.06745 262.41746 268.81745 271.23115 277.00114 283.82115 286.23484 290.11485 296.93486 302.28486 304.69856 311.09855 315.60856 320.95857 326.30857 331.65858 338.47859 343.82859 349.1786 351.5923 357.36228 361.87229 364.28599 370.266 376.666 382.016 387.366 394.186 399.536 404.88603 407.2997 413.0697 416.3197 418.7334 424.7134 427.1271 436.88713 442.23713 451.99714 458.39714 462.90715 468.88716 475.70716 481.05717 483.47087 489.87086 495.64085 502.67085 509.49085">and activities/functions. Based on the presence or absence of a membrane bound</tspan><tspan y="-486.241" x="113.04 120.009 127.188 132.68701 135.876 141.375 148.554 154.05301 159.12921 165.25821 172.2272 178.7762 183.8524 189.77141 193.80042 200.76941 206.2684 210.9274 216.0036 221.9226 226.5816 232.2906 238.4196 245.3886 250.8876 254.0766 257.2656 262.7646 268.26359 271.66258 276.73875 282.23774 287.73674 290.92573 294.11473 299.6137 304.68989 310.81889 317.78788 324.33689 329.41307 336.38206 341.88105 348.85005 354.34904 359.84803 364.9242 370.8432 375.5022 381.2112 387.3402 394.3092 397.4982 402.9972 412.9062 418.40519 423.48136 428.98036 435.10935 442.07835 447.1545 453.70353 459.2025 464.2787 471.24769 477.37669 487.28569 492.78468 499.33369 504.40986 510.53886">nucleus and other organelles, cells and hence organisms can be named as</tspan><tspan y="-472.8" x="113.04 118.4968 125.633609 132.14041 138.22722 142.84403 148.51082 154.38762 158.37442 161.52123 166.97803 169.90982 175.78662 180.40343 183.33522 189.84203 194.45883 200.33563 206.84244 212.92925 217.54605 223.21285 229.08965 233.07645 236.22325 241.68006">eukaryotic or prokaryotic.</tspan><tspan y="-459.121" x="131.04 138.1357 140.6151 144.5608 150.18653 156.65224 159.75795 165.17366 171.21938 174.32509 176.80449 182.2202 189.3159 195.78162 201.82733 206.40305 212.02877 217.86447 221.81018 224.9159 230.3316 232.811 238.22672 243.64243 246.74814 249.85385 252.33325 257.74897 263.5847 270.4704 275.8861 278.99183 284.40754 288.35325 293.76896 296.24836 302.08409 305.39979 307.87919 313.9249 316.4043 321.82 327.23573 330.34144 333.44715 335.92655 345.75227 351.16798 360.99369 367.45939 372.0351 378.0808 384.96653 390.38224 393.69795 396.17735 403.06306 410.15876 415.57447 418.68019 424.0959 431.1916 436.6073 439.0867 445.13243 452.01814 458.48384 460.96324 466.37895 472.00465 475.95036 481.78608 488.25178 491.35749 497.4032 502.8189 512.6446">A typical eukaryotic cell consists of a cell membrane, nucleus and cytoplasm.</tspan><tspan y="-445.681" x="113.04 119.546108 122.69221 128.7783 135.7044 139.6905 142.5505 148.0066 153.4627 156.60881 159.75492 165.21102 168.07102 174.99712 181.08322 186.53932 191.99542 194.85543 200.94153 203.80153 209.25763 214.71373 217.85984 221.00594 223.86594 232.05204 238.13814 241.28424 244.43035 247.29035 253.16645 260.30256 264.28868 269.74476 272.89085 279.39695 284.85304 287.71305 291.69917 298.62525 304.08137 306.94139 312.39747 317.85359 320.99967 324.14576 327.00578 336.87187 342.32795 352.19404 358.70014 363.31623 369.4023 376.3284 381.7845 385.1406 388.0006 394.5067 401.4328 406.88893 409.74894 416.25505 419.40113 425.4872 430.9433 440.8094 446.89549 449.7555 459.62159 465.0777 474.9438 481.4499 486.06599 492.15208 499.07817 504.53425 507.39427 510.54035">Plant cells have a cell wall outside the cell membrane. The plasma membrane is</tspan><tspan y="-432.241" x="113.04 118.812198 124.58439 128.04659 133.81877 139.59096 143.89315 147.35533 153.12752 158.8997 162.3619 168.34409 173.69129 180.51348 186.28566 191.21785 201.40004 207.17223 213.57442 220.3966 223.8588 229.63098 234.97818 241.38037 248.62256 255.44475 260.79194 264.4641 270.8663 276.6385 280.10069 283.56288 287.02507 291.32725 297.72944 302.03163 307.8038 313.576 318.92317 323.22535 328.15754 334.55973 341.8019 347.5741 354.3963 360.5885 365.5207 369.82289 375.17005 381.36225 385.03443 390.3816 396.15379 401.92597 407.69816 413.47035 418.40254 424.80473 428.2669 433.61408 443.79627 449.98847 453.45066 459.22285 464.99504 472.4472 475.9094 481.68159 487.45378 491.12596 496.4731 503.29533 510.5375">selectively permeable and facilitates transport of several molecules. The</tspan><tspan y="-418.8" x="113.04 118.4955 125.421 131.9265 137.802 147.6675 153.123 162.9885 169.49399 174.10948 180.19498 187.12049 192.57599 195.2649 200.7204 206.3859 211.8414 215.8269 221.28241 231.1479 233.8368 236.9823 243.9078 249.36331 252.50882 259.64433 266.1498 271.60533 277.06083 279.74974 287.30525 294.86076 298.21626 300.90516 306.57066 312.44615 315.59165 321.25715 324.40266 327.09156 332.54707 338.42256 348.28807 354.79356 357.93907 363.39457 369.27006 372.62556 375.31446 378.45997 384.12547 389.58097 395.45646 400.91197 406.78746 416.65296 422.10847 427.56398 430.25288 436.33839 443.2639 449.76939 452.45829 457.9138 463.9993 469.4548 476.5903 482.4658 485.6113 491.0668 496.5223 499.8778 502.5667 509.7022 512.8477">endomembrane system includes ER, golgi complex, lysosomes and vacuoles. All</tspan><tspan y="-405.121" x="113.04 116.7573 123.414608 128.6019 130.85419 136.04149 141.22879 144.1061 146.9834 149.23569 154.84299 159.19029 164.58759 170.40489 177.0622 182.2495 185.1268 188.0041 193.1914 198.37871 200.631 206.8683 212.0556 216.40291 219.4902 225.0975 229.44481 239.04212 241.2944 247.53171 250.40901 253.4963 256.58363 261.7709 266.1182 271.30549 277.96278 281.68006 283.93238 290.16969 297.037 300.75428 303.0066 308.19389 314.43119 319.61848 324.80577 327.68305 330.77037 333.64765 338.83494 341.08726 344.17457 351.04188 357.69917 362.88645 366.60374 369.48103 375.08833 381.7456 386.9329 390.0202 392.27253 399.76985 404.95713 411.6144 415.3317 419.679 425.2863 430.47358 436.08088 445.67817 450.86546 453.11778 458.93507 465.59236 471.82966 474.08198 479.26927 484.45655 491.11384 494.83113 499.1784 502.0557 507.663 510.54029">the cell organelles perform different but specific functions. Centrosome and centriole</tspan><tspan y="-391.681" x="113.04 116.354907 122.189807 126.7647 136.5896 139.0661 143.011 149.8959 155.3108 157.78731 164.25222 170.29712 175.71202 181.75693 184.86183 187.33834 193.80324 199.63814 206.10305 211.72794 214.20444 220.03934 223.35424 225.83074 231.24564 234.35054 237.45545 240.56035 246.60526 249.08176 255.12667 262.01158 268.47648 270.953 274.2679 277.3728 283.4177 289.0426 294.4575 297.56239 300.66728 306.71217 309.1887 313.13359 320.01847 326.06336 330.00825 332.48478 335.79969 341.84458 347.25947 350.36436 353.46925 356.57414 360.519 366.5639 370.5088 375.92369 378.4002 381.5051 387.34 392.75489 398.58979 408.41468 414.24958 418.19447 421.29936 427.13426 434.01914 437.33406 439.81059 443.33549 450.22038 452.6969 458.7418 465.62669 468.73158 478.55647 484.60136 487.70625 490.18278 495.59767 501.01255 504.11744 507.22233 512.6372">form the basal body of cilia and flagella that facilitate locomotion. In animal cells,</tspan><tspan y="-378.241" x="113.04 118.49761 123.95522 130.88283 134.87044 139.48805 142.63567 148.51328 151.66089 157.1185 162.57611 167.00032 173.08794 176.23555 181.69316 187.57077 191.99498 195.35259 201.2302 205.84781 215.71543 220.13964 225.59725 232.10486 235.25247 242.18009 248.6877 251.83531 257.2929 261.7171 267.80473 274.31233 280.81993 286.90754 291.52516 297.61277 301.60038 308.73799 314.1956 318.61979 325.12739 332.26499 336.8826 340.0302 346.95783 352.62544 357.04963 362.50724 367.96485 371.11247 374.26008 378.68428 385.19187 388.33949 393.7971 396.9447 402.4023 405.54994 411.42756 418.35517 421.71278 426.13697 433.90458 441.04219 446.4998 449.6474 455.105 462.2426 467.70024 472.12443 477.58204 483.45967 490.38728 494.37489 500.4625 503.6101 510.53773">centrioles also form spindle apparatus during cell division. Nucleus contains</tspan><tspan y="-364.8" x="113.04 119.97039 127.11078 132.57117 135.72156 141.18195 147.06233 150.21273 153.36312 156.5462 162.6366 169.56699 176.07738 179.26047 184.72086 191.65125 196.27164 202.15203 212.02242 218.11281 222.1032 225.25359 232.18398 235.36707 242.29746 247.75785 251.74823 259.93864 265.81904 270.43943 276.9498 280.31019 283.49327 287.06367 291.05406 294.23713 301.1675 307.0479 311.0383 314.22138 320.10179 327.03218 330.18257 335.85295 339.036 344.4964 350.3768 357.3072 361.29759 365.91798 371.79838 374.94877 380.40916 383.59223 387.5826 394.513 399.9734 403.15647 409.24687 414.70726 418.69764 421.84803 427.3084 430.4588 434.4492 437.59959 443.05998 448.52037 451.70344 457.58384 460.9442 464.1273 470.0077 474.62809 480.29847 486.38887 493.31925 498.77964 501.93003 505.0804 510.5408">nucleoli and chromatin network. It not only controls the activities of organelles</tspan><tspan y="-351.121" x="113.04 119.544918 126.679828 130.66474 133.40534 139.49025 142.63516 148.09008 153.96498 156.70558 163.2105 166.35541 172.44033 178.10524 183.56015 186.30075 192.38567 195.12627 204.99118 211.0761 214.22101 220.09592 224.71083 227.45143 232.06635 237.94126 241.08617 246.54108 249.28168 252.42659 259.3515 262.09214 269.01704 274.47193 279.08683 284.54176 291.04667 294.19157 298.17649 303.8414">but also plays a major role in heredity.</tspan><tspan y="-337.681" x="131.04 138.6196 145.5692 152.0988 157.9984 164.528 167.6976 173.8072 179.2868 189.1764 192.34601 197.8256 200.3702 205.0098 210.4894 214.499 217.6686 223.1482 230.3078 233.4774 240.63701 250.52661 253.0712 258.5508 264.4504 271.40003 275.40965 281.51924 284.6888 291.63844 297.11805 299.66267 303.67228 310.83189 317.36149 324.5211 327.69068 333.1703 338.6499 341.19453 347.09413 351.7337 354.27833 359.75794 362.92753 368.40715 372.41676 377.89637 382.53596 389.48554 395.59513 401.07475 404.45436 406.99897 413.52857 420.47816 425.95777 431.64738 434.192 440.30158 444.94117 450.42079 452.9654 458.865 462.2446 464.7892 468.79884 477.00843 482.90803 485.45265 489.46226 495.15187 501.68147 507.16108 512.6407">Endoplasmic reticulum contains tubules or cisternae. They are of two types:</tspan><tspan y="-324.241" x="113.04 117.86889 123.95778 131.30667 137.18556 144.32445 149.23424 155.53313 162.67201 169.3909 174.30069 179.96958 190.04846 196.13736 202.22626 206.42514 213.56403 217.13292 222.04271 229.8116 237.58049 242.49028 249.62917 255.29805 258.65696 265.37586 271.04475 275.9545 279.3134 286.45228 291.36204 295.5609 302.6998 308.36869 313.27845 317.47734 322.3062 328.6051 335.744 341.41288 348.13179 354.22068 359.04957 363.24845 368.1582 374.2471 377.81599 382.72575 388.39463 395.7435 402.4624 408.1313 412.33018 418.62907 425.76795 431.43684 437.1057 442.7746 446.34349 451.25325 456.92213 462.801 469.93989 474.13877 481.27766 486.94654 492.61543 495.9743 501.6432 506.55296 512.64187">rough and smooth. ER helps in the transport of substances, synthesis of</tspan><tspan y="-310.8" x="113.04 119.6737 124.4174 130.4211 134.53479 140.11849 143.39218 150.44588 156.02957 159.51328 162.15699 165.43068 168.70438 175.33808 181.34177 187.97547 192.71916 198.72287 202.83657 208.42026 211.69396 218.74765 224.33135 226.97505 233.18875 240.24245 246.87615 249.51985 255.31356 258.58726 264.38096 269.96467 275.96836 281.76206 287.34577 294.39949 297.88319 300.5269 307.16059 314.2143 319.798 322.32 327.84 333.8435 337.117 342.9105 346.184 348.82749 355.461 361.4645 368.09803 373.8915 376.535 379.8085 385.392 388.0355 394.249 396.8925 406.886 412.46949 422.46299 429.0965 433.84 440.0535 447.107 453.1105 460.374 465.9575 468.60099 474.6045 479.348 485.14149 491.35499 498.40849 503.99198 507.26548 510.53898">proteins, lipoproteins and glycogen. The golgi body is a membranous organelle</tspan><tspan y="-297.121" x="113.04 118.70669 124.79338 134.87007 141.58676 147.67345 153.34014 159.00682 165.72351 169.7277 175.81439 179.38109 183.38529 186.95198 190.30867 196.60536 200.80205 204.99874 210.66542 217.80211 223.4688 230.18549 234.18968 239.85637 246.15306 251.81975 257.48646 261.05314 265.0573 271.774 278.91069 284.57737 288.58155 294.24824 299.91493 305.5816 310.4083 316.07499 320.27168 323.62837 329.71507 336.85176 342.51844 346.5226 352.6093 356.176 360.18019 365.84687 371.51356 374.87025 378.22694 383.89363 387.8978 394.1945 399.02119 404.68788 408.69206 415.40876 421.70545 427.37214 434.0888 439.7555 446.47218 450.47636 453.83305 460.96974 464.9739 469.1706 476.30729 481.97398 492.05067 496.05485 502.35154 509.48823">composed of flattened sacs. The secretions of cells are packed in them and</tspan><tspan y="-283.681" x="113.04 117.5012 122.5924 129.1536 136.5548 142.486 149.4672 155.81839 160.90959 165.37079 171.30199 178.28319 183.7894 187.6206 192.72 199.0835 209.437 214.9555 219.429 226.8425 232.786 238.3045 244.248 250.1915 253.825 257.4585 261.302 266.8205 274.56 280.70149 286.63298 292.98448 298.91596 305.26747 315.60896 321.54045 327.47193 332.9784 339.5399 344.64 350.5794 356.09379 362.03318 365.66258 373.07197 379.22138 382.85078 388.79017 394.30455 404.65394 410.59333 420.94273 427.93214 433.03153 439.60093 447.0103 452.9497 458.46409 464.40348 468.87287 473.97227 481.59169 487.53108 492.00047 499.61988">transported from the cell. Lysosomes are single membrane structur</tspan><tspan y="-283.6806" x="504.71919 510.53919">es</tspan><tspan y="-270.2406" x="113.040187 118.70757 124.79496 131.93235 136.12973 142.42713 145.78452 152.9219 156.2793 163.41669 169.29409 172.85588 178.52327 185.66066 190.90805 196.78545 206.86284 212.53023 218.19762 221.75942 225.3268 231.41419 236.24158 239.80338 246.52077 249.87816 255.75556 261.42295 267.09034 271.28773 274.6451 280.7325 287.8699 291.4317 297.5191 301.0865 304.6483 310.94569 314.30308 317.66047 321.22227 325.41966 331.29704 338.0144 343.6818 349.34919 352.91099 358.99839 362.56578 366.12757 376.20497 382.50236 388.16975 392.99714 399.08454 409.16194 415.24934 418.60673 424.2741 429.9415 437.28889 440.64628 446.31367 451.98106 455.54844 459.11024 466.87763 470.23503 476.9524 483.0398 488.70719 494.7946 504.87199 510.53938">containing enzymes for digestion of all types of macromolecules. Ribosomes</tspan><tspan y="-256.8006" x="113.040187 119.33639 124.16259 129.8288 133.3117 136.66791 143.80411 149.4703 155.5565 158.9127 164.5789 170.2451 176.9613 180.44422 183.80042 190.93662 194.41953 201.13573 205.96193 212.04813 216.24433 221.91053 225.26673 232.40293 235.88584 241.55204 247.42824 254.56444 258.76066 265.89686 271.56306 277.22926 280.58546 286.25166 289.81785 293.30076 300.01695 307.15315 312.81935 318.48554 324.15174 327.63465 333.72087 339.38706 345.05326 352.39945 357.22566 360.70857 364.27476 369.10096 374.76716 380.43336 383.78956 389.66575 393.14866 396.50486 403.64106 407.12397 411.32017 418.45637 424.12257 427.60548 433.27168 439.14787 443.34407 449.43028 456.14646 459.50267 465.79887 471.46507 481.54127 485.02418 491.11039 495.93659 499.4195 505.7157 510.5419">are involved in protein synthesis. These occur freely in the cytoplasm or are</tspan><tspan y="-243.1206" x="113.040187 119.41038 125.150569 130.89076 137.05095 142.79114 146.22133 152.59152 156.86171 162.6019 169.39209 174.70729 183.17748 186.60767 190.87786 198.08805 203.40325 211.24344 219.08364 222.72382 228.03902 237.9792 241.4094 245.67958 251.83977 257.57997 264.79017 270.95036 278.16056 284.95075 289.85093 293.2811 299.65129 304.96647 312.17668 317.91688 321.34706 328.13725 333.45243 336.8826 344.0928 349.408 355.56819 361.72837 365.15855 371.94874 378.3189 382.5891 386.0193 391.7595 397.4997 402.81489 409.60508 416.81529 422.97547 428.71568 435.50587 442.71607 448.87626 453.77644 459.72663 463.1568 469.52699 473.79719 477.22737 483.38755 490.59776 495.91294 502.2831 509.49333">associated with ER. Mitochondria help in oxidative phosphorylation and</tspan><tspan y="-229.6806" x="113.040187 118.91777 124.58536 131.72295 137.39054 142.21813 148.51572 152.7133 156.07089 162.15848 169.29607 172.31926 178.40685 181.97444 184.99764 191.29523 198.01282 203.6804 210.818 216.90558 222.57317 225.93076 233.06835 238.73593 241.75913 245.95671 250.7843 254.14189 260.8595 267.9971 274.0847 279.7523 286.46989 293.60749 299.90507 304.10267 309.77027 313.33787 316.36106 323.07865 330.21626 335.88386 341.76145 344.78465 351.0822 355.9098 361.5774 364.6006 371.31819 377.40577 384.75337 391.89097 398.60856 401.63175 408.34934 414.22694 417.25013 423.9677 430.0553 437.4029 444.12049 447.4781 453.1457 456.16889 466.24647 471.91407 481.99165 488.70924 493.5368 499.83439 506.972 512.6396">generation of adenosine triphosphate. They are bound by double membrane;</tspan><tspan y="-216.2406" x="113.040187 117.09397 124.08776 129.61156 132.19786 138.14165 145.34545 149.39923 154.92302 159.60681 162.19312 172.1269 177.6507 187.58449 194.15828 198.84207 204.99587 211.98966 217.51345 220.09975 223.31354 228.83733 231.42363 236.94742 246.88121 252.825 258.7688 262.8226 269.8164 272.4027 278.5565 285.5503 292.12409 294.7104 297.92417 304.91798 311.91178 317.43559 322.11936 324.70567 330.64945 337.64326 343.16706 345.75337 349.17716 355.12095 358.33473 364.9085 370.4323 373.01863 376.2324 383.2262 387.28 393.2238 395.8101 401.3339 406.8577 412.3815 417.9053 422.58909 428.74287 431.95664 434.54295 440.06675 444.75053 447.9643 453.4881 457.5419 463.69569 469.21949 472.64329 475.22959 481.80339 485.01716 491.17094 496.69474 500.74855 503.9623 510.5361">the outer membrane is smooth and inner one folds into several cristae. Plastids</tspan><tspan y="-202.8006" x="113.040187 119.342479 124.17477 129.84706 134.25505 140.97734 144.33963 150.22193 160.30422 165.9765 173.11879 177.32108 181.72907 187.40135 193.49364 200.63593 204.83821 211.1405 214.50279 221.64508 225.00737 232.14966 238.03195 242.43994 248.53223 253.36452 259.2468 265.54908 272.69139 278.36369 281.72599 285.0883 290.7606 296.4329 300.84089 304.41319 310.50547 317.85777 325.00007 331.72236 336.13035 339.49266 346.63496 351.04295 357.76524 361.12754 367.4298 374.5721 378.7744 383.1824 388.8547 394.527 397.8893 401.04017 406.56019 410.96958 417.06147 424.20335 427.56523 433.4471 437.019 441.4284 445.2103 452.35218 456.76158 463.48347 466.84535 473.14723 480.2891 484.491 488.9004 494.5723 500.2442 503.60609 506.96797 512.63986">are pigment containing organelles found in plant cells only. In plant cells,</tspan><tspan y="-189.1206" x="113.040187 119.28078 126.99136 130.92195 137.58254 142.98313 149.6437 156.9343 160.86489 167.73548 173.97606 178.74665 184.98723 190.80283 197.67342 203.074 209.31459 215.13019 220.53078 226.77136 233.01195 240.30254 246.96312 254.6737 260.9143 264.8449 272.1355 276.0661 282.3067 288.12229 292.26289 298.92347 304.32408 310.13966 314.91026 320.31086 327.18147 334.47206 341.76264 345.69325 353.40385 359.85444 365.67 369.60063 373.53123 379.9818 387.6924 392.463 398.2786 404.5192 412.2298 418.4704 423.871 430.3216 436.7722 442.58778 448.82838 455.06898 461.30958 467.55018 475.26078 480.03138 483.96199 490.83259 494.76319 500.57878 504.71937 511.37995">chloroplasts are responsible for trapping light energy essential for</tspan><tspan y="-175.6806" x="113.040187 119.733287 126.84638 132.90949 137.08258 143.14568 148.78878 154.64188 161.75498 165.92807 173.04117 178.68427 184.32736 187.66046 193.30356 196.84667 199.55138 206.24448 213.35758 219.00067 221.70539 227.55849 232.36159 238.63469 245.74779 252.02089 255.564 258.2687 261.6018 268.7149 271.41963 275.5927 282.7058 288.3489 291.05363 297.74674 301.07984 307.35295 312.99604 317.16914 320.50224 327.19535 330.73844 333.44316 336.77626 342.41935 345.12406 349.29716 356.41026 362.05335 364.75807 370.40116 373.73426 377.90736 383.55046 386.25517 392.31828 395.86137 398.56608 401.89918 405.23228 411.08537 418.19847 422.37156 425.07627 429.87937 435.52247 441.79557 447.43867 451.61177 454.94486 461.00798 468.12107 473.76417 476.46888 482.74198 489.85508 496.5482 499.2529 503.426 510.5391">photosynthesis. The grana, in the plastid, is the site of light reactions and the</tspan><tspan y="-162.2406" x="113.040187 118.68697 122.86376 127.670558 133.73735 143.79415 150.07094 152.78272 158.8495 162.39629 165.10807 171.80486 178.08165 182.88845 189.58524 192.29701 197.1038 202.7506 209.02739 214.67418 218.85097 222.18776 228.25455 235.37134 241.01813 244.56491 247.27669 253.97348 261.09028 266.73707 269.44886 275.30564 280.11244 285.75923 291.406 298.5228 301.2346 306.88139 312.94819 316.28498 322.35179 329.67857 334.48536 340.13215 346.82893 349.5407 356.2375 359.57429 365.85108 371.49787 375.67466 379.01145 385.70823 391.355 394.0668 400.3436 405.1504 410.79719 413.50898 419.15577 426.27256 429.60935 435.67616 440.48295 446.54975 453.24653 456.5833 462.8601 468.5069 472.6837 478.33049 481.87727 484.58906 492.96586 500.08265 503.41944 509.06623">stroma of dark reactions. The green coloured plastids are chloroplasts, which</tspan><tspan y="-148.8006" x="113.040187 118.70969 124.79919 131.93869 136.13819 142.43769 145.79718 152.93668 156.87487 162.54436 169.68386 173.04335 179.13285 183.96234 190.05184 196.77133 203.91083 209.79033 213.14983 216.50933 220.07883 224.01702 232.41652 239.55602 245.22551 250.05501 255.7245 262.02403 267.6935 271.63169 275.83119 282.97068 288.64018 292.57835 298.66786 302.86735 310.00685 315.67634 320.50584 324.444 330.1135 336.203 339.5625 345.652 353.0015 357.831 363.5005 370.22 374.15818 380.8777 384.23719 390.53669 396.20619 400.40568 403.76518 410.48469 416.15419 420.09236 426.39186 431.22135 436.89085 440.829 446.4985 453.638 458.4675 464.557 474.6365 480.726 487.44554 490.80503 497.10453 502.77403 506.9735 512.643">contain chlorophyll, whereas the other coloured plastids are chromoplasts,</tspan><tspan y="-135.1206" x="113.040187 121.43988 128.57958 131.93927 137.60898 144.74868 148.54837 158.62807 164.92777 170.80747 174.60717 180.27686 186.36656 193.50626 197.70597 204.00566 207.36536 214.50505 218.30475 225.02445 228.38414 234.26384 244.34354 250.01325 257.15296 261.35267 267.02238 270.82206 274.18177 277.54148 284.26118 289.93089 293.73057 299.40028 305.69999 310.5297 316.6194 320.8191 326.4888 333.6285 339.29823 343.0979 349.3976 356.53733 363.25703 367.0567 373.1464 379.4461 386.58583 390.78553 397.92524 404.01493 410.73463 417.87434 423.75404 427.11375 430.47346 434.04316 437.84284 444.56254 451.70225 457.37196 461.17164 468.31135 475.66105 481.33076 484.69047 490.36018 497.70988 503.37959 507.17927 510.53898">which may contain pigments like carotene and xanthophyll. The nucleus is</tspan><tspan y="-121.6806" x="113.040187 118.49368 125.41718 130.87068 134.01418 139.88768 145.34119 150.7947 157.29819 159.8184 166.3219 171.9854 174.50562 181.42913 188.56262 194.01613 197.15962 202.61313 208.69663 213.31012 215.83034 221.28385 228.20735 233.66086 239.11437 242.25786 248.13137 254.40018 259.68019 263.029 265.5421 271.6209 274.13404 280.63285 286.50166 293.63047 300.12928 303.2681 308.71693 311.23005 321.08888 326.5377 336.39649 342.8953 347.5041 353.5829 360.5017 365.95054 368.46366 373.91249 377.8913 382.50013 389.62895 395.07777 399.05659 406.1854 410.7942 416.243 418.75614 426.93495 430.07377 434.05259 440.9714 443.48454 450.40336 457.53218 462.981 466.1198 471.56864 477.64744 482.25624 484.76936 491.26817 497.13697 501.7458 507.1946 512.64346">enclosed by nuclear envelope, a double membrane structure with nuclear pores.</tspan><tspan y="-108.2406" x="113.040187 119.75827 126.89636 132.56446 135.91036 139.26845 146.40654 153.54463 159.21273 164.04082 167.38672 177.46482 183.1329 193.211 199.9291 204.75719 211.05529 218.19338 223.86147 227.20737 232.87546 240.01355 245.68164 249.03974 255.12783 260.7959 266.464 272.13209 275.47798 279.67607 286.81416 292.48225 295.82814 302.96623 310.3143 315.9824 319.34049 325.00859 331.09669 337.81477 341.17286 347.47096 353.13905 363.21714 366.56303 372.8611 379.9992 386.7173 390.06318 394.26127 401.39936 407.06745 410.41334 416.08143 423.2195 428.0476 434.1357 444.2138 450.5119 454.71 458.06809 465.20619 468.55207 478.63017 484.92826 489.12635 494.79444 499.62254 502.98063 509.27873 512.6368">The inner membrane encloses the nucleoplasm and the chromatin material.</tspan><tspan y="-94.8006" x="113.040187 119.74558 126.87099 134.20639 139.86179 143.41719 146.13372 151.78911 157.4445 160.7899 164.1353 166.85182 170.19722 175.85262 178.56914 182.75453 189.87993 195.53533 198.25185 203.90724 208.09264 212.90804 220.24344 225.89884 230.08423 237.41963 242.23503 248.52043 251.86583 254.58235 260.86775 267.99314 274.69856 277.41505 280.97044 288.30583 295.4312 301.0866 305.272 308.6174 314.6928 321.8182 328.1036 331.449 334.1655 341.5009 348.62629 351.97169 356.15708 358.87358 364.94898 368.50437 371.22087 374.56626 377.91166 381.46705 387.12245">Thus, cell is the structural and functional unit of life.</tspan></text>
<g clip-path="url(#clip_8244)">
<text xml:space="preserve" transform="matrix(1 0 -0 1 259.314 763.9998)" font-size="8" font-family="Arial"><tspan y="6.316" x="0"> </tspan></text>
</g>
</g>
</svg>
