<svg xmlns="http://www.w3.org/2000/svg" xmlns:xlink="http://www.w3.org/1999/xlink" xmlns:inkscape="http://www.inkscape.org/namespaces/inkscape" version="1.1" width="576" height="784.8" viewBox="0 0 576 784.8">
<defs>
<clipPath id="clip_2109">
<path transform="matrix(1,0,0,-1,-18,802.8)" d="M18 18H594V802.8H18Z" clip-rule="evenodd"/>
</clipPath>
<clipPath id="clip_2110">
<path transform="matrix(.24,0,0,-.24,-18,802.8)" d="M1312 1358H2224.99V571H1312Z"/>
</clipPath>
<clipPath id="clip_2111">
<path transform="matrix(1,0,0,-1,259.314,763.9998)" d="M0-8H57.372V.800049H0Z"/>
</clipPath>
</defs>
<g>
<g clip-path="url(#clip_2109)">
<path transform="matrix(.24,0,0,-.24,-18,802.8)" d="M0 3035.83H2550V3372.705H0Z" fill="#d1d3d4" fill-rule="evenodd"/>
<path transform="matrix(.24,0,0,-.24,-18,802.8)" d="M0 3078.33H2550V3419.998H0Z" fill="#e1ecb6" fill-rule="evenodd"/>
<text fill="#231f20" xml:space="preserve" transform="matrix(1 0 -0 1 -18 802.8)" font-size="11" font-family="Bookman"><tspan y="-730.081" x="84">P</tspan></text>
<text fill="#231f20" xml:space="preserve" transform="matrix(1 0 -0 1 -18 802.8)" font-size="7.7" font-family="Bookman"><tspan y="-730.081" x="90.72 96.8355 102.951007 107.680507 113.796009 118.8335 123.717 129.3705 134.1 140.2155 145.715 150.7525 153.326">HOTOSYNTHESIS</tspan></text>
<text fill="#231f20" xml:space="preserve" transform="matrix(1 0 -0 1 -18 802.8)" font-size="11" font-family="Bookman"><tspan y="-730.081" x="158.4"> </tspan></text>
<text fill="#231f20" xml:space="preserve" transform="matrix(1 0 -0 1 -18 802.8)" font-size="7.7" font-family="Bookman"><tspan y="-730.081" x="160.79999 163.50328">IN</tspan></text>
<text fill="#231f20" xml:space="preserve" transform="matrix(1 0 -0 1 -18 802.8)" font-size="11" font-family="Bookman"><tspan y="-730.081" x="169.19998 171.68129"> H</tspan></text>
<text fill="#231f20" xml:space="preserve" transform="matrix(1 0 -0 1 -18 802.8)" font-size="7.7" font-family="Bookman"><tspan y="-730.081" x="180.47998 183.01218 189.08638 195.16059 200.61879">IGHER</tspan></text>
<text fill="#231f20" xml:space="preserve" transform="matrix(1 0 -0 1 -18 802.8)" font-size="11" font-family="Bookman"><tspan y="-730.081" x="206.15998 208.70128"> P</tspan></text>
<text fill="#231f20" xml:space="preserve" transform="matrix(1 0 -0 1 -18 802.8)" font-size="7.7" font-family="Bookman"><tspan y="-730.081" x="215.51998 220.08818 225.27239 230.91858 235.64078">LANTS</tspan></text>
<path transform="matrix(.24,0,0,-.24,482.6352,53.635194)" d="M0 0C7.32 7.32 16.16 10.98 26.52 10.98H97.35C107.71 10.98 116.55 7.32 123.87 0 131.19-7.33 134.85-16.17 134.85-26.52V-101.52C134.85-111.88 131.19-120.72 123.87-128.04 116.55-135.36 107.71-139.02 97.35-139.02H26.52C16.16-139.02 7.32-135.36 0-128.04-7.32-120.72-10.98-111.88-10.98-101.52V-26.52C-10.98-16.17-7.32-7.33 0 0" fill="#ffffff" fill-rule="evenodd"/>
<text fill="#231f20" xml:space="preserve" transform="matrix(1 0 -0 1 -18 802.8)" font-size="11" font-family="Bookman"><tspan y="-729.361" x="505.92 513.21 520.5">149</tspan></text>
<path transform="matrix(.24,0,0,-.24,-18,802.8)" d="M2 2H2548V214.668H2Z" fill="#cbdf7f" fill-rule="evenodd"/>
<path transform="matrix(.24,0,0,-.24,-18,802.8)" stroke-width="4" stroke-linecap="butt" stroke-miterlimit="1000" stroke-linejoin="miter" fill="none" stroke="#cbdf7f" d="M2 2H2548V214.668H2Z"/>
<path transform="matrix(.24,0,0,-.24,579.6,.11999512)" stroke-width="1" stroke-linecap="butt" stroke-miterlimit="10" stroke-linejoin="miter" fill="none" stroke="#000000" d="M0 0H60"/>
<path transform="matrix(.24,0,0,-.24,576.12,-18)" stroke-width="1" stroke-linecap="butt" stroke-miterlimit="10" stroke-linejoin="miter" fill="none" stroke="#000000" d="M0 0V-60"/>
<path transform="matrix(.24,0,0,-.24,579.6,784.44)" stroke-width="1" stroke-linecap="butt" stroke-miterlimit="10" stroke-linejoin="miter" fill="none" stroke="#000000" d="M0 0H60"/>
<path transform="matrix(.24,0,0,-.24,576.12,788.16)" stroke-width="1" stroke-linecap="butt" stroke-miterlimit="10" stroke-linejoin="miter" fill="none" stroke="#000000" d="M0 0V-59"/>
<path transform="matrix(.24,0,0,-.24,-17.88,-18.23999)" stroke-width="1" stroke-linecap="butt" stroke-miterlimit="10" stroke-linejoin="miter" fill="none" stroke="#000000" d="M0 0V-75"/>
<text fill="#00aeef" xml:space="preserve" transform="matrix(1 0 -0 1 -18 802.8)" font-size="13" font-family="Bookman"><tspan y="-687.36" x="60 68.2552 76.51041 80.605609 88.86081 108">11.10F</tspan></text>
<text fill="#00aeef" xml:space="preserve" transform="matrix(1 0 -0 1 -18 802.8)" font-size="9.1" font-family="Bookman"><tspan y="-687.36" x="116.64 123.2486 130.0392 136.4658 143.8024 150.957">ACTORS</tspan></text>
<text fill="#00aeef" xml:space="preserve" transform="matrix(1 0 -0 1 -18 802.8)" font-size="13" font-family="Bookman"><tspan y="-687.36" x="156.95999"> </tspan></text>
<text fill="#00aeef" xml:space="preserve" transform="matrix(1 0 -0 1 -18 802.8)" font-size="9.1" font-family="Bookman"><tspan y="-687.36" x="160.31999 166.9457 173.2074 179.4691 186.0948 192.9025 199.34619 203.05989 209.86759">AFFECTING</tspan></text>
<text fill="#00aeef" xml:space="preserve" transform="matrix(1 0 -0 1 -18 802.8)" font-size="13" font-family="Bookman"><tspan y="-687.36" x="216.95999 220.3806"> P</tspan></text>
<text fill="#00aeef" xml:space="preserve" transform="matrix(1 0 -0 1 -18 802.8)" font-size="9.1" font-family="Bookman"><tspan y="-687.36" x="228.95999 236.5011 243.8602 250.3093 257.6684 263.7535 270.2026 277.01573 283.4648 291.00593 297.63703 303.72215 307.44123">HOTOSYNTHESIS</tspan></text>
<text fill="#231f20" xml:space="preserve" transform="matrix(1 0 -0 1 -18 802.8)" font-size="10.5" font-family="Bookman"><tspan y="-660.48" x="59.999986 67.113689 74.01739 76.51219 83.62589 90.529598 97.0133 102.447 107.040699 112.474399 116.438098 122.50179 129.40549 135.88919 139.0129 145.9166 151.5603 154.0551 159.9088 163.2425 165.73729 169.70099 176.60469 182.03839 184.53319 187.86688 193.93059 199.36429 203.32799 209.18169 213.77539 219.20909 221.70389 225.66759 232.57129 238.635 242.5987 245.09349 251.1572 254.49089 257.8246 263.2583 268.69203 272.65574 275.15055 281.63426 288.53794 294.39164 298.35536 304.20906 309.64277 315.28648 322.19017 326.15388 333.05757 338.49128 343.925 347.04869 352.48237 354.97718 358.10087 363.53456 366.02937 372.93305 378.36677 383.80049 389.2342 394.6679 400.10163 406.1653 410.759 416.4027">An understanding of the factors that affect photosynthesis is necessary.</tspan><tspan y="-646.07998" x="59.999986 66.507488 73.43498 78.89249 81.77268 86.39018 92.477687 96.46519 101.92268 104.80288 110.68038 114.03788 116.918079 123.425579 130.35308 136.23058 140.21808 146.09558 151.55309 157.22058 164.14809 168.13559 175.0631 180.5206 185.9781 189.12561 194.58312 197.46332 200.61083 206.06833 208.94853 214.40604 219.86354 224.48105 230.14855 233.02875 236.17626 246.04376 252.55127 258.42878 263.04627 267.03376 273.12126 280.04875 284.03623 286.91645 290.06394 296.99143 299.87165 306.37916 311.83665 315.82414 321.28163 325.8991 335.7666 338.9141 345.84159 348.98908 355.91658 361.58409 364.4643 368.45179 375.37928 380.83677 383.71699 389.3845 392.53199 397.98948 401.13697 407.64448 410.5247 416.4022">The rate of photosynthesis is very important in determining the yield of</tspan><tspan y="-631.43997" x="59.999986 66.509288 69.658588 75.74789 82.677188 86.66649 92.125789 95.32508 98.47438 105.40368 110.862979 114.012279 121.15157 127.66087 130.81018 137.73949 143.40879 146.60808 152.06739 156.68668 162.56598 169.07529 172.27458 178.78388 181.93318 188.02248 194.95178 198.94109 204.40039 207.75969 210.95899 214.15828 220.66757 227.59688 233.47618 237.46549 243.34479 248.8041 254.47339 261.40269 265.39198 272.32127 277.78056 283.23985 286.38914 291.84843 295.04774 298.19703 303.6563 306.85563 313.99494 320.92424 327.43354 332.89283 337.51213 340.71144 344.7007 351.63 357.0893 360.2886 363.4379 370.3672 373.7265 376.8758 384.0151 389.4744 396.4037 401.86299 407.32228 410.52159 416.40089">plants including crop plants.  Photosynthesis is under the influence of</tspan><tspan y="-617.0399" x="59.999986 65.21699 70.43399 75.65099 80.868 85.244998 91.091999 93.99899 96.28099 99.39799 105.24499 110.46199 114.20899 119.84599 124.22299 129.43999 132.55699 134.83899 141.10599 146.74298 150.48998 157.17697 159.45897 162.36597 169.05297 172.79996 178.01696 182.39395 189.08095 194.92795 197.83495 200.11695 203.02394 209.29094 212.19794 218.04494 224.73194 228.47893 231.38593 233.66793 239.51493 246.20192 252.46892 254.75092 259.96794 265.60493 269.35194 274.56895 278.94596 285.63298 291.47999 294.387 297.504 299.786 306.053 312.74003 317.95704 320.23905 326.50605 329.41307 335.26008 341.94709 345.6941 347.9761 351.0931 356.94013 362.15715 365.90415 371.54115 375.91816 381.13517 383.41719 386.3242 393.0112 398.2282 401.13523 408.03224 414.29924">several factors, both internal (plant) and external. The plant factors include</tspan><tspan y="-602.6399" x="59.999986 63.997785 70.935588 76.40339 81.11118 88.04898 95.19678 105.07458 111.59238 117.06018 120.959987 124.31789 129.0158 134.4737 137.6216 142.6595 148.1174 151.4753 156.17319 162.2611 167.92899 173.38689 178.08478 184.17269 191.10059 197.60849 202.30638 208.18428 212.80219 215.95009 221.40799 228.33589 232.32379 238.4117 242.3996 245.5475 251.4254 258.3533 263.0512 268.9291 272.28703 276.98493 280.1328 285.5907 291.6786 297.13648 302.59437 308.05226 311.41017 316.10807 325.97596 331.43385 336.89173 342.76963 349.27754 356.2054 361.87333 365.0212 368.1691 372.867 378.3249 383.78279 386.93067 390.07856 395.53645 400.23435 406.32225 413.25013">the number, size, age and orientation of leaves, mesophyll cells and</tspan><tspan y="-587.9999" x="59.999986 65.41749 72.304988 75.41248 81.249988 85.827487 91.664989 98.132488 101.23998 107.28748 112.70499 116.65249 122.06999 125.38749 127.87999 130.98749 137.87499 141.82248 147.23998 151.81748 158.70497 164.75247 167.85997 170.35248 178.07997">chloroplasts, internal CO</tspan></text>
<text fill="#231f20" xml:space="preserve" transform="matrix(1 0 -0 1 -18 802.8)" font-size="6.1" font-family="Bookman"><tspan y="-584.6399" x="186.23999">2</tspan></text>
<text fill="#231f20" xml:space="preserve" transform="matrix(1 0 -0 1 -18 802.8)" font-size="10.5" font-family="Bookman"><tspan y="-587.9999" x="190.07999 192.5615 197.97629 203.81108 210.69588 216.11067 221.52547 228.41027 232.35506 236.92986 242.97466 246.91945 250.02425 255.85904 262.74385 265.2253 271.2701 278.1549 284.61973 287.1012 291.046 297.9308 303.34559 305.82707 311.87187 321.69667 327.53147 334.62626 341.51106 345.45585 347.93733 353.77214 357.0869 359.5684 364.9832 371.86799 374.97279 380.8076 385.3824 391.2172 397.682 404.5668 410.1916 413.2964 416.40119"> concentration and the amount of chlorophyll.</tspan><tspan y="-573.59988" x="59.999986 66.44549 73.31099 78.70649 81.16699 87.612499 90.698 96.723499 103.589 107.514499 109.975 115.7905 120.346 122.8065 125.892009 132.7575 136.68302 142.07852 146.63402 153.49951 159.52501 162.6105 165.071 168.3665 174.392 179.7875 183.71302 189.52852 194.08402 199.47953 201.94002 207.96552 212.52101 217.91652 220.37702 226.82251 232.21802 238.66352 244.05902 250.92452 257.37004 262.76554 269.63105 273.55656 276.01707 281.83256 288.69807 291.15858 295.08409 301.9496 307.3451 309.8056 315.4111 320.8066 327.67213 333.06764 336.99314 340.07865 345.47416 347.93467 354.38017 358.93568 364.33119 370.77668 373.86219 379.2577 385.7032 391.51869 396.91419 399.9997 403.9252 407.0107 412.8262">The plant or internal factors are dependent on the genetic predisposition</tspan><tspan y="-558.95986" x="59.999986 66.08999 73.01999 79.52999 82.049999 86.03999 92.96999 98.42999 100.95 106.619998 111.24 117.119998 125.31 129.3 136.23001 138.75002 144.63002 147.99002 150.51003 154.50003 161.43003 166.89003 169.41004 175.92003 179.07003 185.16002 192.09003 196.08003">and the growth of the plant.</tspan><tspan y="-544.5598" x="77.999988 84.675388 91.77078 97.39618 102.59658 108.221988 114.26739 118.42279 124.04819 128.83359 135.92899 142.18439 145.49979 150.7002 154.2256 160.481 166.1064 170.2618 176.30719 181.09259 186.71799 191.9184 200.2738 206.3192 213.6246 216.94 223.6154 228.81581 232.13121 239.22661 244.852 248.1674 255.47281 262.14823 267.77363 272.974 277.1294 284.2248 289.8502 295.05058 301.30598 306.93138 313.18678 316.50218 319.81758 326.07298 332.74839 336.06379 339.37919 342.69459 346.84999 352.68537 357.88575 363.93116 367.45655 372.65693 378.28233 385.5877 392.6831 395.9985 399.3139 405.1493 412.2447 416.4001">The external factors would include the availability of sunlight,</tspan><tspan y="-530.1598" x="59.999986 63.866685 69.203388 78.95009 85.33679 90.67349 95.1702 101.136898 105.00359 112.020298 116.639987 121.93249 125.124988 127.51749 135.11998">temperature, CO</tspan></text>
<text fill="#231f20" xml:space="preserve" transform="matrix(1 0 -0 1 -18 802.8)" font-size="6.1" font-family="Bookman"><tspan y="-526.5598" x="143.51999">2</tspan></text>
<text fill="#231f20" xml:space="preserve" transform="matrix(1 0 -0 1 -18 802.8)" font-size="10.5" font-family="Bookman"><tspan y="-530.1598" x="147.35999 149.76328 155.11028 160.87728 167.69428 173.04128 178.38828 185.20528 189.08228 193.58928 199.56629 203.44329 206.48029 212.24729 219.06429 221.46758 227.44458 234.26158 240.65859 243.06188 251.13887 257.11589 260.9929 266.3399 270 273.2426 275.64155 278.04048 285.06309 290.40568 292.8046 298.7772 301.17613 307.56874 310.60133 316.5739 323.3865 327.2591 329.65803 336.05064 342.86323 348.62583 352.4984 358.26103 363.6036 369.15623 375.9688 379.8414 386.654 391.99659 397.33918 400.37178 405.71437 411.05696 416.39955"> concentration and water.  As a plant photosynthesises,</tspan><tspan y="-515.5198" x="60 65.9917 69.043399 72.09509 74.5218 78.4135 85.2452 90.6069 95.968608 101.33031 103.75701 107.018718 113.010417 118.372119 122.26382 128.04552 132.56722 137.92891 140.3556 148.44731 151.49901 154.5507 157.6024 160.0291 165.3908 168.44249 178.21419 185.25589 188.30759 192.19928 198.19098 205.02268 210.38437 216.16608 223.20778 228.56948 231.62117 237.19287 239.61957 245.61127 248.87297 252.13468 257.49638 262.85807 266.74977 269.17646 272.22816 276.11985 281.48155 283.90824 288.42994 294.42164 298.31333 303.67503 306.9367 309.3634 317.6651 323.0268 329.8585 335.22019 340.58189 343.84358 346.27027 350.16197 356.99366 362.77537 369.81706 375.38874 382.22044 384.64714 390.00883 395.3705 400.7322 406.0939 410.6156 416.6073">all these factors will simultaneously affect its rate. Hence, though several</tspan><tspan y="-501.11979" x="60 63.2119 69.1538 74.4657 78.3076 84.039508 88.511409 93.8233 96.1995 99.2014 105.9833 109.8252 115.1371 119.609 125.5509 130.86281 134.70471 137.08092 143.02281 149.80472 156.16663 158.54283 163.85474 166.85665 176.57855 183.57045 186.57236 190.41426 196.35616 203.13806 208.44997 214.18187 221.17377 226.48567 229.48758 235.00948 237.38568 243.32758 246.53948 249.75138 255.06328 260.37519 264.21708 266.5933 272.9552 279.7371 285.469 289.31089 295.0428 300.35469 305.8766 312.65849 316.50038 323.28227 328.59416 333.90605 336.90794 342.21983 344.59605 350.32795 354.79985 357.17607 364.79795">factors interact and simultaneously affect photosynthesis or CO</tspan></text>
<text fill="#231f20" xml:space="preserve" transform="matrix(1 0 -0 1 -18 802.8)" font-size="6.1" font-family="Bookman"><tspan y="-497.51979" x="373.2">2</tspan></text>
<text fill="#231f20" xml:space="preserve" transform="matrix(1 0 -0 1 -18 802.8)" font-size="10.5" font-family="Bookman"><tspan y="-501.11979" x="376.80003 379.1611 382.3722 385.3733 391.1044 397.0455 400.8866 403.8877 409.6188 416.3999"> fixation,</tspan><tspan y="-486.47978" x="60.00003 67.13873 72.597438 79.73614 85.82484 88.97353 92.12223 97.79093 101.128238 107.006938 113.93564 119.39434 122.73164 126.09035 132.17905 137.63774 141.62644 147.50513 152.12383 155.46114 158.60984 164.06853 167.40584 171.39453 178.32323 183.78192 187.11923 196.98793 203.07663 206.22533 212.10404 216.72274 220.06005 225.51874 231.60744 238.74614 244.20484 249.66353 253.00084 258.87956 263.49827 266.83558 269.98429 275.443 278.7803 282.769 289.69773 295.15644 298.49375 304.37245 311.30116 316.75987 320.09718 324.08589 331.0146 337.1033 341.092 344.42933 347.57804 350.72676 360.59547 363.74418 367.73289 373.1916 376.5289 380.5176 387.44633 392.90504 396.24235 400.86106 406.94978 410.93849 416.3972">usually one factor is the major cause or is the one that limits the rate.</tspan><tspan y="-472.07978" x="60.00003 68.39153 73.84303 80.764537 86.216037 91.667537 95.019039 97.532138 103.61363 107.59513 110.10823 116.18973 123.11123 128.77274 131.28585 137.78734 143.65885 146.80034 153.72183 157.70334 160.21645 164.19795 171.11945 176.57096 179.08406 183.69556 189.77706 193.75856 199.21007 201.72318 209.90468 213.04618 216.18767 219.32917 221.84227 228.34377 233.79528 236.30838 242.80988 248.26139 252.24289 257.6944 262.3059 272.16743 275.30894 282.23045 287.68196 294.18345 296.69654 303.19804 308.85954 311.37263 315.35414 322.27565 327.72715 330.24024 333.59175 339.67326 345.12477 349.10627 354.97776 359.58927 362.10237 368.18388 373.63539 379.7169 382.8584 385.9999 392.08143 398.58293 401.72444 407.17594 409.68904 415.77055">Hence, at any point the rate will be determined by the factor available at</tspan><tspan y="-457.43977" x="60.00003 65.42223 72.52444 78.996639 83.15884 89.00104 95.473239 99.42544 102.537639 112.369838 118.422039 121.53423 124.00643 127.11863 132.54084 137.96303 143.38523 146.49742 151.91962">sub-optimal levels.</tspan><tspan y="-443.03977" x="78.00003 88.07623 95.00243 100.45863 107.384838 110.678539 116.134738 121.590938 127.047138 132.50334 137.11954 143.20574 146.35193 149.64563 153.00183 159.08803 164.54424 168.53044 174.40665 179.02285 184.47905 187.77275 193.85895 197.21515 200.57135 206.02756 211.48377 215.46997 218.76367 224.84987 231.77606 237.44226 240.73596 243.88216 250.38835 253.53455 259.41075 262.55696 265.85066 271.30686 278.23307 283.68928 293.55549 296.7017 302.1579 308.2441 311.39033 314.68403 321.19023 325.80644 331.68263 337.13883 342.59504 348.05125 353.50746 356.86366 360.15736 367.92356 371.06977 377.15599 382.61219 389.11839 398.9846 405.0708 411.997 414.30323">When several factors affect any [bio] chemical process, Blackman&#x2019;s</tspan><tspan y="-428.63978" x="60.00003 62.89333 69.14663 75.39993 81.65324 87.90654 90.79984">(1905) </tspan></text>
<text fill="#231f20" xml:space="preserve" transform="matrix(1 0 -0 1 -18 802.8)" font-size="10.5" font-family="Bookman"><tspan y="-428.63978" x="93.120029 99.56173 105.37343 113.49513 115.83684 122.068538 125.780239 128.12194 134.56363 138.06533 148.28702 151.78871 156.34041 159.8421 166.7038 172.5155 174.85721 181.7189 187.53061 193.34232 197.89402 204.12572 208.67742 213.85912">Law of Limiting Factors </tspan></text>
<text fill="#231f20" xml:space="preserve" transform="matrix(1 0 -0 1 -18 802.8)" font-size="10.5" font-family="Bookman"><tspan y="-428.63978" x="216.00003 221.19913 226.81822 236.42733 241.62642 246.82552 249.08303 251.97212 258.64125 262.37034 267.98945 270.24693 275.446 278.5451 281.6442 286.8433 292.0424 295.77149 298.87059 301.12806 307.37718 314.04627 316.93537 322.13447 324.39195 329.59104 333.32014 339.14924 342.87834 348.07743 353.27653 355.534 359.2631 365.9322 371.1313 373.38877 376.48786 382.10697 384.99607 387.88517 393.50428 401.43339 404.32249 410.99159 416.40068">comes into effect. This states the following:</tspan></text>
<text fill="#231f20" xml:space="preserve" transform="matrix(1 0 -0 1 -18 802.8)" font-size="10.5" font-family="Bookman" font-style="italic"><tspan y="-413.99977" x="78.00003 81.52803 85.26603 89.18403 95.86203 99.78003 104.98803 111.66603 117.50403 126.91203 130.02004 135.22803 141.90602 145.01403 148.93202 155.40003 159.60004 165.25504 170.28003 175.93503 181.59003 187.24503 190.98003 193.90503 199.56003 203.29503 209.79003 213.60004 217.26255 223.02504 228.15755 231.82006 237.58255 244.39505 248.23755 254.63005 261.02256 264.86506 274.19755 279.96006 284.16004 289.99314 293.90626 297.63935 304.31245 310.98554 317.65864 321.57176 327.40486 334.07795 339.91105 343.82417 347.55726 354.23036 359.43345 363.16654 368.99964 372.48005 375.87336 379.86668 383.67997 390.43327 396.34657 403.09986 407.09318 410.27647 414.08976">If a chemical process is affected by more than one factor, then its</tspan><tspan y="-399.59977" x="60.00003 64.23773 70.78543 74.39313 80.10083 84.25513 93.53283 96.51053 99.48823 102.46593 106.620227 112.957927 118.66563 122.81992 129.57762 135.28533 138.89302 144.60073 149.04004 158.39414 161.44824 168.07234 173.85645 180.69055 184.92125 191.33535 197.74944 201.98014 205.66423 212.28833 218.07244 222.30313 225.98723 232.61133 237.76543 241.44953 247.23363 251.54773 255.77843 265.13255 271.75666 274.81077 279.96488 286.589 290.8197 293.8738 299.6579 303.8886 310.51274 316.2968 322.92094 327.36006 333.24415 339.12825 342.91233 347.24305 351.02714 356.91123 361.24195 364.39607 368.18016 374.06425 378.39497 387.84907 391.00318 397.72727 400.88139 410.33549 417.05958">rate will be determined by the factor which is nearest to its minimal</tspan><tspan y="-384.95976" x="60.00006 65.78056 72.40106 75.45156 82.07206 87.85256 91.11306 94.08506 97.13556 100.816059 103.788059 106.838558 112.61906 115.59106 119.27156 125.89206 131.67256 134.64456 138.32506 144.94556 150.09606 153.77655 159.55706 163.86756 166.83956 176.19005 182.81055 185.86106 191.01155 197.63205 200.60405 207.43456 210.48506 214.79557 220.57607 225.72657 229.40706 232.45757 238.86808 241.84008 248.46057 252.14107 255.82157 261.60206 266.75257 270.43309 276.21357 279.18556 282.86607 289.48658 295.26707 298.23905 304.64955 308.96003 314.7405 319.89103 325.6715 331.452 337.23249 340.20448 343.25498 346.9355 349.90748 352.95799 356.6385 362.41899 365.39097 371.38148 378.00199 384.6225 391.243 394.92353 397.97404 401.65455 408.06504 411.03703 414.08753">value: it is the factor which directly affects the process if its quantity is</tspan><tspan y="-370.55976" x="60.00006 65.22436 71.918659 78.61295 85.30725 91.37155 97.22585 104.13015">changed.</tspan></text>
<text fill="#231f20" xml:space="preserve" transform="matrix(1 0 -0 1 -18 802.8)" font-size="10.5" font-family="Bookman"><tspan y="-356.15977" x="78.00006 84.71536 90.59066 95.20596 97.96847 103.42377 109.299068 115.38437 125.24967 131.75498 134.90027 140.35558 143.71088 146.47338 152.97867 158.43398 163.88928 170.39458 173.53987 177.52518 182.98049 185.74298 189.72829 196.65358 202.10889 204.87139 211.37668 215.99198 221.44728 226.90259 232.3579 239.28319 244.7385 250.1938 252.9563 258.8316 262.1869 264.94938 271.03468 273.79716 279.46247 284.07777 289.53306 294.98835">For example, despite the presence of a green</tspan><tspan y="-341.51976" x="60.00006 63.145463 68.60086 74.686267 78.041667 82.34706 88.432468 95.357868 101.863269 106.16866 112.04406 118.54946 122.53486 125.68026 135.54566 141.63106 144.77646 149.08187 152.22727 155.37267 161.03807 167.96347 171.94887 176.25426 182.33966 189.26506 195.77046 200.07585 207.84125">leaf and optimal light and CO</tspan></text>
<text fill="#231f20" xml:space="preserve" transform="matrix(1 0 -0 1 -18 802.8)" font-size="6.1" font-family="Bookman"><tspan y="-338.15977" x="216.24007">2</tspan></text>
<text fill="#231f20" xml:space="preserve" transform="matrix(1 0 -0 1 -18 802.8)" font-size="10.5" font-family="Bookman"><tspan y="-341.51976" x="220.08007 224.39936 229.86865 235.75795 242.69725 249.21656 252.37586 256.37516 259.53446 265.42378 272.36308 277.83238 281.20167 285.52098 289.52027 296.45957"> conditions, the</tspan><tspan y="-327.11976" x="60.00006 66.34836 69.336658 75.26495 82.03326 85.86156 88.22656 97.93486 103.86316 109.37146 111.736469 118.50477 124.22307 128.05136 130.41637 136.76467 143.53296 149.25127 153.07956 158.79787 164.09616 169.60446 176.37276 180.20105 186.96935 192.26764 197.56594 200.55423 205.85253 211.15082 213.51583 216.50412 219.70243 222.06743 225.89572 232.66402 237.96231 240.32732 244.15561 249.4539 259.1622 265.5105 270.8088 275.26713 281.19544 285.02375 292.00205 296.46037">plant may not photosynthesise if the temperature</tspan><tspan y="-312.47975" x="60.00006 63.60516 69.52026 75.01037 80.92547 86.84057 91.91567 98.04077 103.530879 107.13598 113.47108 122.11618 125.93128 131.42139 138.38649 145.77159 149.3767 155.2918 160.78189 164.387 170.3021 176.8472 180.6623 184.47739 189.96749 193.57259 197.38768 202.87778 209.00289 212.60799 218.52309 224.43819 231.82329 237.31339 241.75849 249.14359 255.05869 260.54878 266.88389 273.84898 278.29408 281.89918 292.22428 298.76939">is very low. This leaf, if given the optimal</tspan><tspan y="-298.07975" x="60.00006 63.922964 69.315868 79.11877 85.56167 90.95457 95.50747 101.53037 105.45327 112.52617 117.07907 122.47197 125.76487 128.22447 136.34737 139.43027 142.51317 145.59607 148.05568 153.44858 157.37148 163.39438 167.94728 171.87018 174.32979 180.77269 187.63559 193.44849 197.37139 203.18428 208.57718 214.18009 221.04299 224.96588 231.82878 237.22168 242.61458 245.69748 251.09038 254.17328 261.0362 266.6391">temperature, will start photosynthesising.</tspan></text>
<text fill="#00aeef" xml:space="preserve" transform="matrix(1 0 -0 1 -18 802.8)" font-size="12" font-family="Bookman"><tspan y="-269.51976" x="60.00006 68.32006 76.64006 81.12006 89.44006 97.76006 102.24007 132.00006 139.38007 143.40007 150.06008 157.92008">11.10.1Light</tspan></text>
<text fill="#231f20" xml:space="preserve" transform="matrix(1 0 -0 1 -18 802.8)" font-size="10.5" font-family="Bookman"><tspan y="-249.35974" x="60.00006 69.12006 74.406169 76.75657 83.51267 88.798778 94.08488 100.420978 102.77138 106.58748 112.29358 114.64398 120.98008 123.95618 129.24228 133.05838 136.03449 142.79059 148.28668 155.25278 158.22888 163.51499 170.27109 172.62149 178.9576 184.2437 188.0598 196.0759 201.362 206.6481 213.4042 215.75461 218.73072 221.70682 227.20291 233.95902 237.77512 240.12552 246.04163 253.00772 258.92384 261.89994 264.87605 268.69215 274.18824 277.37434 279.72474 282.70085 285.67695 291.17304 297.92915">We need to distinguish between light quality, light</tspan><tspan y="-235.43975" x="60.000066 63.151765 70.083469 74.075168 79.536869 86.46857 91.93027 95.08197 99.07367 104.74537 108.33567 114.42737 121.35907 127.87077 131.46108 135.45278 142.38448 147.84618 151.43648 157.94818 165.08988 169.71158 175.80329 179.79499 182.94669 188.82839 195.76009 199.35039 205.23209 208.59378 212.18408 217.64579 223.52748 230.03919 235.92089 241.38259 248.52428 253.14598 258.60768 262.19798 266.18968 272.07139 275.66169 278.8134 281.9651 287.63679 294.56849 298.56019">intensity and the duration of exposure to light,</tspan><tspan y="-221.51975" x="60.000066 68.21767 75.17527 78.35287 81.530467 87.01807 92.08417 98.621768 101.79936 107.286968 112.77457 119.94217 125.42977 130.91738 134.09497 141.05257 146.75017 151.81627 154.99387 158.17147 163.86907 170.82666 174.84426 179.91036 186.02796 191.51555 196.58165 202.69925 207.76535 211.15296 217.27056 222.75815 226.77574 232.68334 237.33094 242.39704 246.41463 253.37223 259.48985 263.50746 268.57356 274.69117 278.07878 281.46638 286.95399 292.4416 296.4592">while discussing light as a factor that affects</tspan><tspan y="-207.35974" x="60.000066 66.53806 73.49606 79.40406 83.42206 89.330059 94.818058 100.51605 107.47405 111.49205 118.45005 123.93805 129.42606 132.60405 138.09206 141.48006 146.54805 153.08605 160.04404 165.53205 170.18004 175.66805 180.73604 183.91403 189.40204 194.47003 200.58803 205.65602 208.83402 212.01201 218.97 224.45801 230.576 235.224 240.29199 244.93999 250.428 253.60599 259.724 263.742 266.92 272.828 279.786 285.27403 292.23204 295.41004">photosynthesis. There is a linear relationship</tspan><tspan y="-193.43975" x="60.000066 66.50826 71.96646 75.95466 84.14286 89.60106 95.05926 101.98746 105.09566 108.24386 115.17206 120.63026 123.77846 130.28665 135.74486 142.67307 146.66127 149.76947 152.91767 156.06586 161.73406 168.66226 172.65047 175.75867 181.84687 188.77507 195.28327 198.39147 206.15967">between incident light and CO</tspan></text>
<text fill="#231f20" xml:space="preserve" transform="matrix(1 0 -0 1 -18 802.8)" font-size="6.1" font-family="Bookman"><tspan y="-189.83974" x="214.56006">2</tspan></text>
<text fill="#231f20" xml:space="preserve" transform="matrix(1 0 -0 1 -18 802.8)" font-size="10.5" font-family="Bookman"><tspan y="-193.43975" x="218.40006 221.51355 224.87705 228.03055 233.91405 240.00756 244.00106 247.15456 253.03806 259.97157 263.08506 267.70857 273.80207 277.79557 283.25907 288.72257 291.83607 297.92958"> fixation rates at</tspan><tspan y="-179.51975" x="60.00006 63.15086 69.03166 77.222469 80.89156 84.042369 87.19317 92.86397 99.79477 103.78557 107.454669 110.60547 117.53627 121.52707 126.98787 133.91867 139.37947 142.53028 146.52108 149.67188 155.13268 160.59348 163.95427 167.62337 174.76416 178.75496 182.42406 189.35486 192.50566 198.17647 205.10727 210.56807 215.18888 218.85797 222.00878 225.15958 230.83039 237.76119 241.75199 245.42108 248.57189 255.50269 259.4935 264.9543 271.8851 277.34593 280.4967 284.48753 287.6383 293.09913 298.55995">low light intensities. At higher light intensities,</tspan><tspan y="-165.35974" x="60.00006 65.55126 70.05246 76.02366 82.414859 89.43606 95.40726 98.43845 101.46965 107.02085 109.42635 113.297557 120.10876 125.44996 127.85546 132.35666 138.32787 142.19907 147.54027 149.94577 156.33698 162.09818 167.43938 172.78058 175.18608 181.99729 187.75849 191.62969 194.03519 199.37639 206.18759 211.94879 220.01999 222.42549 225.66669 232.68788 237.18909 241.06029 247.87149 253.21269 257.7139 260.11943 263.1506 269.9618 275.30299 279.80418 285.14537 291.11656 296.45774">gradually the rate does not show further increase</tspan><tspan y="-151.43975" x="60.00006 66.08576 71.541469 74.75546 80.631168 84.61687 91.542568 96.99827 101.61397 104.827968 108.18366 114.26936 119.72507 123.71077 129.58647 134.20218 139.65789 142.87189 149.3776 154.8333 160.289 166.1647 176.03041 181.48612 184.70012 187.84583 190.99153 200.85724 204.00295 207.98865 211.13436 218.06006 223.72576 226.93976 230.08547 236.80117 239.94687 245.61257 252.74826 257.36396 262.81965 266.03367 272.53938 279.04508 282.4008 288.9065 295.4122 298.5579">as other factors become limiting (Figure 11.10).</tspan><tspan y="-137.51975" x="60.00006 69.94786 76.74566 82.70346 86.561267 88.95156 91.96936 97.297168 99.68746 102.70526 109.50306 113.36086 118.68866 123.17646 128.50426 133.83206 137.68987 140.70767 147.50548 153.04328 155.43358 159.29138 165.03919 167.42949 174.2273 179.9751 183.8329 189.1607 191.55101 194.56882 199.89662 202.28693 206.14473 212.94254 218.90033 222.75814 225.14844 228.16625 231.18405 236.72185 243.51966 247.37746 249.76776 255.09557 261.05339 264.91117 271.91899 276.40678 282.36457 286.22236 289.24015 294.98796">What is interesting to note is that light saturation</tspan><tspan y="-123.35974" x="60.00006 65.87826 71.33646 76.794658 83.93285 88.551059 94.009258 96.58415 102.672359 106.66055 109.23545 115.74365 122.251857 124.82675 131.33495 136.79315 141.41135 143.98625 149.44446 154.90267 161.83087 165.81908 168.39398 174.27219 177.63039 180.20529 184.1935 191.1217 196.57991 199.15482 202.51302 209.65122 212.79941 215.9476 218.5225 223.98072 231.11891 238.04712 241.19532 244.3435 250.0117 256.9399 260.9281 264.28633 266.86125 275.25944 280.71763 287.6458 293.104 298.5622">occurs at 10 per cent of the full sunlight. Hence,</tspan><tspan y="-109.43974" x="60.00006 65.24986 70.91966 76.169467 81.419269 87.71906 91.49886 93.80977 96.95957 102.62937 107.03917 109.350078 115.64987 118.58967 124.46947 131.18927 134.96907 140.21887 142.52977 145.46958 152.18938 154.50028 159.75008 166.46988 172.34969 178.64949 183.89929 186.21019 191.87999 196.2898 198.6007 201.5405 208.2603 210.5712 216.871 222.1208 228.8406 234.09041 239.34021 241.65111 244.8009 250.4707 254.88051 260.1303 265.3801 269.15989 274.40968 277.55949 279.8704 282.81019 285.74998 291.20979 297.92958">except for plants in shade or in dense forests, light</tspan><tspan y="-95.519748" x="60.00006 63.14736 68.60466 72.16196 76.77926 82.86656 87.483867 92.94116 96.08846 101.75576 105.31306 111.40036 114.95766 118.10496 121.25226 131.11956 134.26685 138.25415 141.40145 148.32875 153.99605 157.55335 160.91065 166.99794 172.45525 176.44255 182.31986 186.93715 190.49445 193.64174 200.56905 204.12635 211.05365 217.14095 221.12825 228.26555 232.88285 238.34015 241.69745 245.25475 248.82205 255.74936 261.20668 265.82398 271.28129 277.3686 282.8259 288.2832 291.8405 294.98783">is rarely a limiting factor in nature. Increase in</tspan></text>
<text fill="#6d6f71" xml:space="preserve" transform="matrix(1 0 -0 1 -18 802.8)" font-size="9.5" font-family="Bookman"><tspan y="-107.27975" x="314.88008 321.51716 325.11427 330.80137 337.24848 341.79557 347.48268 352.58979 359.0369 365.484 368.8911 375.33824">Figure 11.10</tspan></text>
<text fill="#6d6f71" xml:space="preserve" transform="matrix(1 0 -0 1 -18 802.8)" font-size="9.5" font-family="Bookman"><tspan y="-107.27975" x="386.88008 394.47517 398.65028 404.15538 410.04048 416.30558 420.63069 425.94578 428.98088 433.30598 436.15107 438.99617 444.12126 450.38636 453.99147 458.31657 461.16166 467.42677 471.03187 475.96696 482.23207 487.16716 490.01225 493.61735 498.74244 503.06755 508.38264 514.6477 518.9728 522.5779 528.84298">Graph of light intensity on the</tspan><tspan y="-95.75975" x="386.88008 391.12028 396.69047 400.36067 405.36088 409.98606 415.36625 418.46644 423.0916 429.0418 435.372 440.7522 444.4224 449.80259 454.8028 459.99299 466.32319 469.99339 476.32359 481.3238 486.324 489.2342">rate of photosynthesis</tspan></text>
<g clip-path="url(#clip_2110)">
<path transform="matrix(.2400936,0,0,-.23990712,320.05659,481.79707)" stroke-width="3.917" stroke-linecap="butt" stroke-miterlimit="2.613" stroke-linejoin="miter" fill="none" stroke="#231f20" d="M0 0V-671.839H795.07"/>
<path transform="matrix(.24000001,0,0,-.23999998,322.5336,482.1888)" d="M0 0-10.32 18.76-20.65 0H0" fill="#231f20" fill-rule="evenodd"/>
<path transform="matrix(.24000001,0,0,-.23999998,510.55445,640.5)" d="M0 0 18.77-10.316 0-20.633V0" fill="#231f20" fill-rule="evenodd"/>
<path transform="matrix(.24009362,0,0,-.2399071,320.0566,642.976)" stroke-width="3.917" stroke-linecap="butt" stroke-miterlimit="2.613" stroke-linejoin="miter" fill="none" stroke="#231f20" d="M0 0C93.07 107.507 183.25 220.293 278.05 324.274 319.1 368.409 365.06 393.619 415.33 395.489 547.62 394.709 679.91 393.919 812.2 393.139"/>
<path transform="matrix(.24009362,0,0,-.2399071,427.4841,542.80068)" stroke-width="1.959" stroke-linecap="butt" stroke-miterlimit="2.613" stroke-linejoin="miter" fill="none" stroke="#231f20" d="M0 0 350.71-.64"/>
<path transform="matrix(.24000003,0,0,-.23999997,427.87684,540.32406)" d="M0 0-18.78-10.29-.03-20.64 0 0" fill="#231f20" fill-rule="evenodd"/>
<path transform="matrix(.24000003,0,0,-.23999997,511.30085,540.47769)" d="M0 0 18.75-10.35-.04-20.63 0 0" fill="#231f20" fill-rule="evenodd"/>
<path transform="matrix(.24009364,0,0,-.23990709,418.9176,542.8727)" stroke-width="1.959" stroke-linecap="butt" stroke-miterlimit="2.613" stroke-linejoin="miter" fill="none" stroke="#231f20" d="M0 0C-54.59-1.19-83.94-20.42-136.93-68.58"/>
<path transform="matrix(.24000004,0,0,-.23999995,418.5817,545.3568)" d="M0 0 18.54 10.72-.45 20.63 0 0" fill="#231f20" fill-rule="evenodd"/>
<path transform="matrix(.24000004,0,0,-.23999995,387.9961,560.8944)" d="M0 0-20.83-4.98-13.89 15.27 0 0" fill="#231f20" fill-rule="evenodd"/>
<path transform="matrix(.24009365,0,0,-.23990707,379.96003,565.5244)" stroke-width="1.959" stroke-linecap="butt" stroke-miterlimit="2.613" stroke-linejoin="miter" fill="none" stroke="#231f20" d="M0 0-231.04-265.622"/>
<path transform="matrix(.24000006,0,0,-.23999994,381.5713,567.44357)" d="M0 0 4.53 20.918-15.58 13.539 0 0" fill="#231f20" fill-rule="evenodd"/>
<path transform="matrix(.24000006,0,0,-.23999994,326.61369,630.57937)" d="M0 0-20.11-7.379-15.58 13.543 0 0" fill="#231f20" fill-rule="evenodd"/>
<path transform="matrix(.24009367,0,0,-.23990706,319.69413,547.51968)" stroke-width="2.938" stroke-linecap="butt" stroke-dasharray="14.689,2.938" stroke-miterlimit="2.613" stroke-linejoin="miter" fill="none" stroke="#231f20" d="M0 0 432.18-2.44 433.27-397.889"/>
<text fill="#231f20" xml:space="preserve" transform="matrix(0 -.9995998 1.0004003 0 -18.00003 802.7999)" font-size="8.930426" font-family="Bookman"><tspan y="321.88456" x="181.17659 187.6065 192.78617 196.17972 200.82353 203.68128 208.68231 211.54006 214.3978 219.93468 225.82875 230.82979 234.22335 239.22438 243.86821 248.69065 254.58472 257.9783 263.87239 268.5162 273.16004 275.83918">Rate of photosynthesis</tspan></text>
<text fill="#231f20" xml:space="preserve" transform="matrix(1.0004 0 -0 .9996001 -18.00003 802.7999)" font-size="8.930571" font-family="Bookman"><tspan y="-139.99509" x="403.51506 408.87339 411.55253 416.37504 422.26924 425.66288 428.52064 431.1998 437.094 440.4876 445.1315 451.0257 455.6696 458.34877 461.7424">Light intensity</tspan><tspan y="-220.87244" x="372.1225">A</tspan><tspan y="-260.60633" x="417.3346">B</tspan><tspan y="-263.67155" x="480.09568">C</tspan><tspan y="-150.81443" x="437.84379">D</tspan><tspan y="-251.43666" x="327.29359">E</tspan></text>
</g>
<g clip-path="url(#clip_2111)">
<text xml:space="preserve" transform="matrix(1 0 -0 1 259.314 763.9998)" font-size="8" font-family="Arial"><tspan y="6.316" x="0"> </tspan></text>
</g>
</g>
</g>
</svg>
