<svg xmlns="http://www.w3.org/2000/svg" xmlns:xlink="http://www.w3.org/1999/xlink" xmlns:inkscape="http://www.inkscape.org/namespaces/inkscape" version="1.1" width="571.68008" height="780.48007" viewBox="0 0 571.68008 780.48007">
<defs>
<clipPath id="clip_17">
<path transform="matrix(1,0,0,-1,-20.16,800.64)" d="M20.16 20.16H591.84V800.64H20.16Z" clip-rule="evenodd"/>
</clipPath>
<clipPath id="clip_18">
<path transform="matrix(.23999998,0,0,-.23999998,-20.16,800.64)" d="M449 1325H2227V1213H449Z"/>
</clipPath>
<clipPath id="clip_19">
<path transform="matrix(1,0,0,-1,257.15403,766.8803)" d="M0-8H57.372V.800049H0Z"/>
</clipPath>
</defs>
<g clip-path="url(#clip_17)">
<path transform="matrix(.23999998,0,0,-.23999998,-20.16,800.64)" d="M2 2H2548V214.67H2Z" fill="#cbdf7f" fill-rule="evenodd"/>
<path transform="matrix(.23999998,0,0,-.23999998,-20.16,800.64)" stroke-width="4" stroke-linecap="butt" stroke-miterlimit="1000" stroke-linejoin="miter" fill="none" stroke="#cbdf7f" d="M2 2H2548V214.67H2Z"/>
<path transform="matrix(.23999998,0,0,-.23999998,-20.16,800.64)" d="M0 3035.83H2550V3372.7003H0Z" fill="#d1d3d4" fill-rule="evenodd"/>
<path transform="matrix(.23999998,0,0,-.23999998,-20.16,800.64)" d="M0 3078.33H2550V3420H0Z" fill="#e1ecb6" fill-rule="evenodd"/>
<path transform="matrix(.23999998,0,0,-.23999998,60.476163,51.47522)" d="M0 0C7.32 7.32 16.16 10.98 26.52 10.98H97.35C107.71 10.98 116.55 7.32 123.87 0 131.19-7.33 134.85-16.17 134.85-26.52V-101.52C134.85-111.88 131.19-120.72 123.87-128.04 116.55-135.36 107.71-139.02 97.35-139.02H26.52C16.16-139.02 7.32-135.36 0-128.04-7.32-120.72-10.98-111.88-10.98-101.52V-26.52C-10.98-16.17-7.32-7.33 0 0" fill="#ffffff" fill-rule="evenodd"/>
<text fill="#231f20" xml:space="preserve" transform="matrix(1 0 -0 1 -20.16 800.64)" font-size="11" font-family="Bookman"><tspan y="-729.361" x="87.12 94.409999 101.69999">158</tspan></text>
<text fill="#231f20" xml:space="preserve" transform="matrix(1 0 -0 1 -20.16 800.64)" font-size="11" font-family="Bookman"><tspan y="-729.361" x="513.12">B</tspan></text>
<text fill="#231f20" xml:space="preserve" transform="matrix(1 0 -0 1 -20.16 800.64)" font-size="7.69999" font-family="Bookman"><tspan y="-729.361" x="521.04 523.4336 529.3692 533.76486 539.70046 545.63607">IOLOGY</tspan></text>
<path transform="matrix(.23999998,0,0,-.23999998,-20.16,-1.7999878)" stroke-width="1" stroke-linecap="butt" stroke-miterlimit="10" stroke-linejoin="miter" fill="none" stroke="#000000" d="M0 0H60"/>
<path transform="matrix(.23999998,0,0,-.23999998,-2.039999,-20.159974)" stroke-width="1" stroke-linecap="butt" stroke-miterlimit="10" stroke-linejoin="miter" fill="none" stroke="#000000" d="M0 0V-60"/>
<path transform="matrix(.23999998,0,0,-.23999998,-20.16,782.52)" stroke-width="1" stroke-linecap="butt" stroke-miterlimit="10" stroke-linejoin="miter" fill="none" stroke="#000000" d="M0 0H60"/>
<path transform="matrix(.23999998,0,0,-.23999998,-2.039999,786)" stroke-width="1" stroke-linecap="butt" stroke-miterlimit="10" stroke-linejoin="miter" fill="none" stroke="#000000" d="M0 0V-60"/>
<path transform="matrix(.23999998,0,0,-.23999998,591.48007,782.4)" stroke-width="1" stroke-linecap="butt" stroke-miterlimit="10" stroke-linejoin="miter" fill="none" stroke="#000000" d="M0 0V-75"/>
<path transform="matrix(.23999998,0,0,-.23999998,-20.16,800.64)" d="M328.75 1208.96H2300V1334.37H328.75Z" fill="#fffac2" fill-rule="evenodd"/>
<text fill="#231f20" xml:space="preserve" transform="matrix(1 0 -0 1 -20.16 800.64)" font-size="10.5" font-family="Bookman"><tspan y="-693.121" x="192 197.7119 203.6338 210.8157 215.0576 222.2395 227.9514 233.6633 237.0652 242.7771 248.489 253.7786 260.12049 265.4101 268.81199 275.15388 280.02577 285.94767 291.65959 296.53147 301.82109 309.003 316.3949 326.51679 333.2787 338.9906 343.8625 349.1521 355.284 358.8959 364.18553 371.57743 378.33934 385.10124 390.39085 400.51274 406.64463 410.0465 415.75843 421.47035 428.86225 432.26414 437.97605 443.68797 448.97758 456.1595 461.8714 467.5833 474.3452 480.05714 486.81904 492.10865 495.72056 501.85246 506.72434 512.0139 517.7258 523.43777 526.83969 530.2416 537.6335 541.0354 547.3773">synthesise a larger number of ATP molecules needed for cellular</tspan><tspan y="-678.721" x="192 201.63101 206.85202 210.60303 216.45404 222.72505 228.36606 231.27707 234.18808 239.40909 249.0401 254.47112 256.75715 259.04316 262.37419 269.0652 271.3512 276.5722 283.4732 289.7442 295.5952 299.97624 305.40724 311.04826 314.79927 320.02027 325.24128 327.52729 331.2783 337.9693 343.1903 348.41133 353.63233 355.91835 361.13935 364.89036 370.11137 376.38236 381.60337 383.88938 387.64039 393.4914 399.7624 404.9834 407.2694 413.5404 416.45143 422.30244 427.52345 432.74446 435.03047 442.98149 445.8925 449.6435 456.3345 459.2455 465.93653 468.22254 471.97355 478.66456 483.88557 486.17158 495.80259 498.7136 502.4646 508.10563 513.32669 520.0177 525.6587 532.34976 538.6207 543.0017 545.9127">metabolism?  In eukaryotes these steps take place within the mitochondria</tspan><tspan y="-664.081" x="192 198.0828 205.0056 211.5084 214.4445 218.4273 225.35012 228.49292 233.94573 236.88182 241.49463 246.94744 253.03023 260.16304 263.30583 267.9186 273.3714 278.8242 281.7603">and this requires O</tspan></text>
<text fill="#231f20" xml:space="preserve" transform="matrix(1 0 -0 1 -20.16 800.64)" font-size="6.1" font-family="Bookman"><tspan y="-660.721" x="290.16">2</tspan></text>
<text fill="#231f20" xml:space="preserve" transform="matrix(1 0 -0 1 -20.16 800.64)" font-size="10.5" font-family="Bookman"><tspan y="-664.081" x="294">.</tspan></text>
<text fill="#231f20" xml:space="preserve" transform="matrix(1 0 -0 1 -20.16 800.64)" font-size="6.1" font-family="Bookman"><tspan y="-660.721" x="297.36"> </tspan></text>
<text fill="#231f20" xml:space="preserve" transform="matrix(1 0 -0 1 -20.16 800.64)" font-size="10.5" font-family="Bookman"><tspan y="-664.081" x="299.04 306.6328 312.7556 317.6184 324.1612 330.494 334.3068 340.4296 343.5324 348.3952 354.518 360.0108 366.7636 370.57643 375.4392 381.562 386.4248 390.2376 396.7804">Aerobic respiration</tspan></text>
<text fill="#231f20" xml:space="preserve" transform="matrix(1 0 -0 1 -20.16 800.64)" font-size="10.5" font-family="Bookman"><tspan y="-664.081" x="404.16 407.08103 410.22773 415.68443 418.60545 422.59217 429.51887 434.97557 437.89659 444.4033 449.02 454.8967 460.3534 465.8101 471.26679 476.72349 479.6445 483.63124 490.55793 496.64463 500.63136 503.55238 506.69908 512.15579 518.2425 524.7492 530.20596 533.12698 537.11367 542.99038 545.9114"> is the process that leads to a</tspan><tspan y="-649.681" x="192 197.4181 203.25621 213.0843 219.5524 222.66049 228.0786 232.0267 237.44481 239.9279 245.766 251.60411 254.7122 261.1803 267.2284 271.17649 274.28459 280.12269 287.01078 289.4939 295.332 298.65013 301.13325 306.97135 311.54945 317.17756 323.22566 330.11375 333.22184 338.63993 341.12306 346.54115 353.63926 360.10737 365.52546 369.47355 375.52165 382.40974 387.82783 393.2459 398.664 401.14714 404.25523 411.1433 413.62644 417.57453 424.46263 429.8807 432.36384 438.83195 443.41004 448.82814 454.24623 459.6643 466.5524 471.9705 477.38859 479.8717 485.7098 489.02793 491.51106 497.34916 503.18727 508.81538 514.4435 519.8616 526.7497 530.0678 532.5509 538.599 545.4871">complete oxidation of organic substances in the presence of oxygen, and</tspan><tspan y="-635.041" x="192 196.43901 201.71802 204.68703 209.96604 215.87505 221.15406 226.43306 231.71207 234.09108 241.68009">releases CO</tspan></text>
<text fill="#231f20" xml:space="preserve" transform="matrix(1 0 -0 1 -20.16 800.64)" font-size="6.1" font-family="Bookman"><tspan y="-631.681" x="249.84">2</tspan></text>
<text fill="#231f20" xml:space="preserve" transform="matrix(1 0 -0 1 -20.16 800.64)" font-size="10.5" font-family="Bookman"><tspan y="-635.041" x="253.44 256.6133 258.94575 266.94905 272.85234 276.65565 281.92897 286.36225 288.69468 294.59797 301.34126 307.66456 309.99699 315.90028 318.2327 321.19599 327.09928 331.53257 337.01588 342.28919 344.6216 350.5249 360.2082 365.9015 372.8548 379.59809 383.4014 385.73384 391.42713 394.60044 396.93287 402.20619 408.94947 414.22279 418.65608 424.13938 429.62269 431.9551 438.2784 442.7117 447.98503 453.25834 458.53166 465.27494 469.07826 471.41069 474.37397 481.11726 483.44969 487.253 493.99629 499.2696 501.60203 506.87535 513.8286 520.1519 525.42526 529.2285 533.6618 539.5651 543.3684 548.6417">, water and a large amount of energy present in the substrate.</tspan><tspan y="-620.641" x="192 198.5041 205.4282 208.57231 214.02642 217.82592 221.81002 227.4741 233.97821 239.43231 243.23181 249.10591 252.46 256.2595 260.88 266.3359 271.7918 278.2977 281.4436 286.0595 292.14543 296.13133 299.27723 305.15315 312.07905 315.88035 319.02626 324.48216 328.28346 338.14936 344.02528 349.48118 353.46708 357.26838 362.72428 368.60017 378.46607 388.33198 394.2079 401.1338 404.9351 408.081 415.0069 418.8082 425.7341 428.88 434.5459 441.4718 446.9277 451.5436 455.3449 461.22084 465.83399 471.49119 477.5684 484.4856 487.6228 493.07 502.92723 508.37443 511.72163 515.5142 525.12 530.5749 534.3752 542.5601 545.705 548.8499">This type of respiration is most common in higher organisms. We will</tspan><tspan y="-606.241" x="192 195.10881 200.94762 206.78643 213.25524 215.73836 221.78717 225.73598 228.2191 232.16791 239.05672 244.47553 249.89434 255.31314 257.79627 264.26509 268.84388 274.68269 280.1015 285.52033 290.93916 296.35798 301.7768 307.19563 309.67875 312.78755 319.67637 322.1595 326.1083 332.99714 338.41596 340.89909 347.7879 353.20674 359.04554 362.99436 365.47749 370.8963 376.31513 381.73396 385.68278 388.79158 394.63038 401.5192">look at these processes in the next section.</tspan></text>
<text fill="#00aeef" xml:space="preserve" transform="matrix(1 0 -0 1 -20.16 800.64)" font-size="13" font-family="Bookman"><tspan y="-572.881" x="192 200.2869 208.57379 212.7007 234">12.4A</tspan></text>
<text fill="#00aeef" xml:space="preserve" transform="matrix(1 0 -0 1 -20.16 800.64)" font-size="9.1" font-family="Bookman"><tspan y="-572.881" x="243.36 250.11751 257.42103 264.90653 271.66404 275.50953">EROBIC</tspan></text>
<text fill="#00aeef" xml:space="preserve" transform="matrix(1 0 -0 1 -20.16 800.64)" font-size="13" font-family="Bookman"><tspan y="-572.881" x="282.24 285.5406"> R</tspan></text>
<text fill="#00aeef" xml:space="preserve" transform="matrix(1 0 -0 1 -20.16 800.64)" font-size="9.1" font-family="Bookman"><tspan y="-572.881" x="295.44 302.0062 308.0264 314.0466 317.7008 324.81303 331.3792 337.76344 341.41764 348.71183">ESPIRATION</tspan></text>
<text fill="#231f20" xml:space="preserve" transform="matrix(1 0 -0 1 -20.16 800.64)" font-size="10.5" font-family="Bookman"><tspan y="-546" x="192 198.7201 204.60019 209.22029 212.3754 218.4655 223.9256 228.5457 234.4258 240.9359 244.086 249.5461 252.7012 257.3213 262.7814 268.24153 274.75163 277.9017 282.5218 288.61189 292.602 295.75209 301.63218 308.5623 311.7174 315.70753 321.58763 324.74275 328.73286 334.82295 341.33305 346.79316 349.94828 356.45838 359.60847 365.69856 371.15867 376.61878 379.7739 387.964 391.11408 395.1042 402.0343 405.1844 412.1145 415.26963 419.25975 426.18986 431.64997 434.80509 444.67518 447.82527 451.81538 457.69548 463.15559 470.0857 475.9658 482.8959 489.406 494.0261 497.17619 503.26628 506.62638 509.7815 513.7716 520.7017 526.1618 529.3169 532.677 535.8271 542.7572 548.8473">For aerobic respiration to take place within the mitochondria, the final</tspan><tspan y="-531.6" x="192 198.5068 203.12361 209.00041 215.50722 222.64402 228.10082 232.08762 235.75551 241.63231 244.9891 248.657 254.32379 257.47059 263.1374 268.59419 274.47099 277.61778 283.28459 288.74137 291.88816 297.34495 300.70176 304.36967 310.87648 316.54328 321.16007 328.29689 333.75367 339.84046 343.82725 349.28404 352.95195 356.09873 361.5555 365.22343 369.2102 373.827 379.9138 386.84059 392.29737 398.80418 404.68098 409.29777 413.28456 418.74134 425.24815 428.91606 432.27287 436.88966 442.76646 452.63325 456.30116 460.28794 467.21473 472.6715 476.33943 481.7962 487.463 491.4498 497.3266 503.8334 506.9802 513.067 518.5238 528.3906 532.05856 535.2053 542.13217 546.11898">product of glycolysis, pyruvate is transported from the cytoplasm into</tspan><tspan y="-516.961" x="192 195.95471 202.84943 208.27414 210.75997 220.59468 223.7094 227.66411 233.50882 238.93354 245.82825 251.67296 258.56767 265.04237 269.62709 272.7418 278.7965 282.12123 284.60704 287.09284 293.56755 300.46226 305.88697 308.37278 313.7975 318.3822 325.4869 330.91163 334.02635 340.08106 343.19578 345.68159 351.1063 356.531 361.95573 368.85044 372.80516 378.22987 380.71568 383.83039 390.7251 393.2109 399.26564 404.69035 409.27507 415.11976 421.59446 424.70918 430.13389 432.6197 437.2044 442.62913 448.05384 454.52854 457.64326 462.22798 468.28269 472.2374 475.3521 481.1968 488.09153 490.57734 496.63206 501.21678 506.64149">the mitochondria.  The crucial events in aerobic respiration are:</tspan></text>
<text fill="#231f20" xml:space="preserve" transform="matrix(1 0 -0 1 -20.16 800.64)" font-size="13" font-family="Bookman"><tspan y="-498.481" x="204">&#x2022;</tspan></text>
<text fill="#231f20" xml:space="preserve" transform="matrix(1 0 -0 1 -20.16 800.64)" font-size="10.5" font-family="Bookman"><tspan y="-498.481" x="222 228.5081 235.4362 240.8943 243.83242 249.29051 255.16861 265.0367 271.5448 274.6929 280.151 284.1391 289.5972 292.5353 298.41343 304.29154 307.43965 313.94773 320.03584 324.02394 327.17204 333.05015 339.97825 342.91636 348.79447 352.15257 355.09068 361.59877 367.26686 371.88496 379.02305 384.48115 390.56925 394.55735 400.01545 402.95356 409.46165 415.12974 418.06785 422.05595 428.98405 434.44215 437.38026 442.83836 446.82646 452.28456 458.79264 466.98075 470.12886 475.58695 481.04505 483.98316 488.60127 494.05937 503.92747 509.80558 515.2637 521.35177 524.4998 527.4379 533.31607 536.67416 539.61227 545.7003 548.8484">The complete oxidation of pyruvate by the stepwise removal of all</tspan><tspan y="-484.081" x="222 225.9637 232.8674 238.3011 240.7991 247.7028 253.34651 259.8302 264.4239 270.2776 275.9213 281.35499 288.25868 290.75669 296.82038 300.7841 306.6378 316.48149 321.91517 325.24888 327.7469 330.87059 336.30427 342.36796 347.80165 350.92533 357.829 363.47273 365.97074 369.93446 376.83815 381.43183 386.86555 392.29927 394.79728 404.64097 410.49467 413.61836 419.05207 424.48579 431.5995 434.72319 440.15687 445.59059 448.0886 453.9423 457.276 459.77403 467.51774">the hydrogen atoms, leaving three molecules of CO</tspan></text>
<text fill="#231f20" xml:space="preserve" transform="matrix(1 0 -0 1 -20.16 800.64)" font-size="6.1" font-family="Bookman"><tspan y="-480.481" x="475.92">2</tspan></text>
<text fill="#231f20" xml:space="preserve" transform="matrix(1 0 -0 1 -20.16 800.64)" font-size="10.5" font-family="Bookman"><tspan y="-484.081" x="479.76">.</tspan></text>
<text fill="#231f20" xml:space="preserve" transform="matrix(1 0 -0 1 -20.16 800.64)" font-size="13" font-family="Bookman"><tspan y="-465.6" x="204">&#x2022;</tspan></text>
<text fill="#231f20" xml:space="preserve" transform="matrix(1 0 -0 1 -20.16 800.64)" font-size="10.5" font-family="Bookman"><tspan y="-465.6" x="222 228.5079 235.4358 240.8937 244.3289 250.8368 256.9247 262.3826 267.84049 270.98838 277.91627 283.58418 287.01939 292.89729 299.82518 303.26039 309.13829 312.4962 315.9314 319.9193 326.8472 332.30509 335.7403 341.19819 344.34608 349.80397 355.26185 359.24977 363.86766 369.74555 376.67344 382.13133 385.56654 390.18443 395.6423 405.5102 411.3881 416.84599 422.30387 428.81178 432.24699 438.33488 443.79277 447.22798 453.73588 459.82377 464.44166 468.42958 471.86479 477.74269 481.1006 484.5358 488.5237 495.4516 500.9095 504.3447 511.27259 516.9405 523.44839 528.0663 533.9442 539.6121 545.07">The passing on of the electrons removed as part of the hydrogen</tspan><tspan y="-450.961" x="222 228.08892 232.07782 237.95673 247.82564 253.28455 255.91016 259.89909 265.77799 268.4036 278.2725 284.1514 287.3003 292.75923 298.21815 305.35707 308.50596 314.59486 319.21376 321.83937">atoms to molecular O</tspan></text>
<text fill="#231f20" xml:space="preserve" transform="matrix(1 0 -0 1 -20.16 800.64)" font-size="6.1" font-family="Bookman"><tspan y="-447.6" x="330.24 334.0182">2 </tspan></text>
<text fill="#231f20" xml:space="preserve" transform="matrix(1 0 -0 1 -20.16 800.64)" font-size="10.5" font-family="Bookman"><tspan y="-450.961" x="335.52 338.1384 346.32679 349.4752 353.4636 360.392 363.0104 368.4688 371.61723 381.48564 388.62403 391.77244 395.76084 401.84925 408.77766 414.23606 420.11445 427.25285 432.71125 435.32966 440.78807 446.45646 453.38487 457.37327 464.30168 469.76008 475.21849 478.36689 483.8253 486.4437 492.32209 495.68049 498.2989 505.437 511.88703 517.92"> with simultaneous synthesis of ATP.</tspan><tspan y="-430.561" x="210 220.0796 227.00922 233.09883 237.08844 239.65195 242.80156 248.26117 250.82468 253.97429 260.9039 264.89353 270.35316 274.97276 280.43238 285.892 289.88163 293.03123 299.96083 305.63044 308.19398 312.1836 318.0632 320.62675 327.55635 333.43595 337.42558 342.8852 345.44874 348.59834 354.05796 356.6215 360.6111 367.5407 373.6303 377.61994 380.18348 384.1731 391.1027 396.56233 399.12586 402.48548 405.63508 410.25468 415.7143 419.70393 422.26747 428.77708 433.39668 439.27629 444.7359 450.19554 455.65516 461.11479 463.6783 467.66795 473.75755 480.26716 485.72679 491.1864 493.74995 500.25956 503.40916 509.49876 514.9584 520.41799 522.9815 526.1311 533.0607 535.62429 539.6139 546.5435">What is interesting to note is that the first process takes place in the</tspan><tspan y="-416.161" x="192 201.8702 207.96039 211.95058 216.57077 219.72097 225.60115 229.25223 235.13242 238.4926 242.14368 246.13387 253.06406 258.52427 262.17536 272.04554 275.1957 279.1859 285.0661 290.5263 297.45649 303.33668 310.26686 316.77705 321.39723 324.5474 330.63758 334.28868 342.47886 349.40904 352.5592 355.70939 361.1696 364.82069 368.81089 375.74107 381.20127 384.85237 390.31257 395.77278 401.23298 407.11317 414.04335 420.55354 424.20463 430.7148 435.335 441.21519 446.67539 452.1356 457.5958 463.056 466.7071 469.85728 475.31748 478.96858 482.11875 487.99894 493.45915 499.54933 503.53953 508.99974 515.5099 519.16098 525.04116 531.9713 535.6224 539.61257 546.5427">matrix of the mitochondria while the second process is located on the</tspan><tspan y="-401.521" x="192 195.0915 201.96302 208.83452 214.23603 218.79752 221.26152 231.07303 236.47454 246.28604 252.73755 257.29905 263.33055 270.20204 275.60353 278.06755 283.88905 287.19056 289.65458 293.58607 300.45756 305.85905 308.32307 318.13456 321.22605 325.15754 330.97904 336.38053 343.252 349.07353 355.945 362.3965 366.958 370.0495 376.081">inner membrane of the mitochondria.</tspan><tspan y="-387.121" x="210 216.25362 221.66722 226.03084 232.91445 238.11806 243.95166 247.68527 252.88889 255.9925 258.2572 266.19084 272.86445 275.75807 280.96168 287.63529 289.9 292.7936 297.99723 300.26194 303.36555 308.98915 313.35276 322.96638 328.16999 334.42359 336.6883 342.9419 348.3555 350.6202 354.35383 361.02745 366.23106 368.49577 373.90937 376.80299 382.21659 387.4202 393.0438 395.9374 401.351 405.08464 407.97825 413.18186 415.44657 420.65019 426.4838 430.2174 436.05104 442.30464 447.92823 450.82185 453.71546 458.91908 468.53269 470.7974 476.421 479.5246 481.7893 486.99293 492.82655 497.19017 503.44377 509.06736 515.74099 521.1546 527.4082 531.7718 537.6054 541.339 546.5426">Pyruvate, which is formed by the glycolytic catabolism of carbohydrates</tspan><tspan y="-372.481" x="192 195.04451 201.86902 205.72902 209.61353 216.43804 221.79254 225.65254 231.00705 236.57157 240.45607 246.23058 251.58509 257.3596 260.4041 263.65864 267.51866 273.50315 276.75767 280.64219 285.9967 290.5112 294.37123 297.41575 301.30027 305.16029 310.5148 317.33934 321.22386 326.57838 331.09288 336.4474 340.3074 350.0719 353.11643 357.00096 362.77546 368.12998 374.9545 380.729 387.55354 393.95805 398.47254 401.51707 407.50157 410.54609 414.4061 424.1706 430.1551 434.0396 438.5541 441.59864 447.37315 451.23316 458.26768 465.0922 471.4967 476.85124 481.36573 486.93025 492.70475 498.05928 503.4138 507.2738 513.04837 518.8229 521.8674 528.27188 534.25637 538.14089 541.18539 546.53988">in the cytosol, after it enters mitochondrial matrix undergoes oxidative</tspan><tspan y="-358.081" x="192 198.5662 204.08238 209.59857 215.74477 220.42096 226.98715 232.92334 238.85953 244.58573 247.79192 253.93811 257.9843 261.1905 267.12669 274.11286 279.20677 285.77296 291.49916 296.59306 302.73924 307.83314 313.34934 319.28553 329.2117 335.7779 338.98408 344.50028 350.43647 355.53038 361.04658 366.56278 370.60899 375.70289 381.63908 385.05528 390.14918 394.82536 400.34156 406.48774 412.00395 416.05015 419.25633 425.1925 432.17869 437.6949 442.7888 448.305 454.45118 458.49739 464.64356 467.84974 473.57594 479.09214 484.60835 491.17454 496.26844 502.83464 508.56083 513.6547 520.2209 525.9471 530.6233 537.81948 543.33566 546.5418">decarboxylation by a complex set of reactions catalysed by pyruvic</tspan><tspan y="-343.441" x="192 198.2974 203.5448 210.2622 215.7196 222.017 226.4244 232.0918 237.5492 242.7966 249.514 255.3914 260.6388 265.8862 269.0336 271.3453 277.6427 284.3601 289.6075 291.91923 296.32664 301.57405 307.45146 312.69886 316.47627 319.41368 325.08106 331.79847 337.04588 339.35758 344.60499 350.4824 354.2598 360.1372 363.07463 368.532 373.77943 379.02684 385.32423 387.63594 393.93333 399.39073 401.70243 407.99983 413.4572 417.86463 424.79203 430.03944 432.97685 438.22425 440.53596 446.83335 452.08076 458.79817 464.25556 470.55296 474.96037 480.62776 486.08515 491.33256 498.04997 503.92738 509.17478 514.4222 516.7339 521.1413 526.3887 532.26608 539.1935 542.13088 546.53829">dehydrogenase. The reactions catalysed by pyruvic dehydrogenase require</tspan><tspan y="-329.041" x="192 195.8779 202.6958 208.0437 210.45832 216.85622 222.83412 227.34203 231.21993 234.25783 239.60573 242.64363 249.04154 255.01944 258.89735 261.93525 267.70317 274.52107 276.93568 282.70359 285.95149 288.3661 293.714 299.0619 304.4098 309.7577 314.2656 320.2435 323.2814 325.696 331.0439 336.81184 342.15974 348.97764 353.90553 359.4634 369.2213 374.5692 379.9171 383.165 385.57963 388.61753 395.43544 400.78334 403.82124 410.84913 417.247 420.2849 427.1028 432.6607 435.07533 442.73323 449.7611">the participation of several coenzymes, including NAD</tspan></text>
<text fill="#231f20" xml:space="preserve" transform="matrix(1 0 -0 1 -20.16 800.64)" font-size="6.1" font-family="Bookman"><tspan y="-332.641" x="458.16">+</tspan></text>
<text fill="#231f20" xml:space="preserve" transform="matrix(1 0 -0 1 -20.16 800.64)" font-size="10.5" font-family="Bookman"><tspan y="-329.041" x="461.76 464.16004 470.12754 476.93507 483.32258 485.7226 488.12263 495.77015 501.52766 506.86518 513.67269 518.59017 524.13766 533.88516 539.22268 541.6227 548.6402"> and  Coenzyme A.</tspan></text>
<g clip-path="url(#clip_18)">
<text xml:space="preserve" transform="matrix(.9847318 0 -0 1.0155014 -20.16 800.64)" font-size="10.293419" font-family="Bookman"><tspan y="-296.36659" x="111.13676 117.4721 123.0782 127.70853 134.7759 139.89275 143.06182 150.12824 155.97711 161.33866 164.26302 179.61724 187.17201 193.02092 210.0791 217.63489 224.70128">PyruvicacidCoANAD</tspan></text>
<text xml:space="preserve" transform="matrix(.9847317 0 -0 1.0155014 -20.16 800.64)" font-size="9.86506" font-family="Bookman"><tspan y="-302.275" x="300.49906 309.5175">Mg</tspan><tspan y="-291.40354" x="255.16883 261.51438 266.8753 271.01908 277.84327 282.96128 288.56584 292.2216 299.04655 305.13844 310.25657 316.5931 322.19963 328.29154 332.4356 338.0402 343.40187 348.51997 355.1003 360.70674 365.82377">Pyruvatedehydrogenase</tspan></text>
<text xml:space="preserve" transform="matrix(.9847318 0 -0 1.0155014 -20.16 800.64)" font-size="10.293419" font-family="Symbol"><tspan y="-296.3666" x="172.31526 202.53447 242.99007 374.1078 253.47109 264.1892 275.15519 286.12315 297.08918 307.81285 318.77854 329.74513 340.71266 351.43464 362.4012">++&#xf8e7;&#x2192;&#xf8e7;&#xf8e7;&#xf8e7;&#xf8e7;&#xf8e7;&#xf8e7;&#xf8e7;&#xf8e7;&#xf8e7;&#xf8e7;&#xf8e7;</tspan></text>
<text xml:space="preserve" transform="matrix(.9847317 0 -0 1.0155014 -20.16 800.64)" font-size="5.943842" font-family="Symbol"><tspan y="-301.09236" x="233.23712">+</tspan></text>
<text xml:space="preserve" transform="matrix(.9847317 0 -0 1.0155014 -20.16 800.64)" font-size="8.241235" font-family="Symbol"><tspan y="-305.11103" x="320.24226">+</tspan></text>
<text xml:space="preserve" transform="matrix(.9847317 0 -0 1.0155014 -20.16 800.64)" font-size="8.241235" font-family="Bookman"><tspan y="-305.11103" x="314.8804">2</tspan></text>
<text xml:space="preserve" transform="matrix(.9847318 0 -0 1.0155014 -20.16 800.64)" font-size="10.293419" font-family="Symbol"><tspan y="-296.3666" x="372.15245 372.15245 445.5092 475.72828 518.37637">&#xf8e7;&#xf8e7;+++</tspan></text>
<text xml:space="preserve" transform="matrix(.9847317 0 -0 1.0155014 -20.16 800.64)" font-size="5.943842" font-family="Symbol"><tspan y="-301.09236" x="536.65817">+</tspan></text>
<text xml:space="preserve" transform="matrix(.9847318 0 -0 1.0155014 -20.16 800.64)" font-size="10.293419" font-family="Bookman"><tspan y="-296.3666" x="388.7245 395.79188 401.1543 406.51487 410.41505 416.0193 422.843 430.39869 436.24659 452.8184 460.37419 483.52595 491.08076 498.14814 506.18934 528.12258">AcetylCoACONADHH</tspan></text>
<text xml:space="preserve" transform="matrix(.9847317 0 -0 1.0155014 -20.16 800.64)" font-size="5.943842" font-family="Bookman"><tspan y="-294.00325" x="468.9055">2</tspan></text>
</g>
<text fill="#231f20" xml:space="preserve" transform="matrix(1 0 -0 1 -20.16 800.64)" font-size="10.5" font-family="Bookman"><tspan y="-275.76" x="210 218.39672 225.53342 230.15013 233.29685 240.22356 245.89026 248.90196 252.88867 259.81538 262.96208 268.41877 271.43049 277.9372 282.5539 288.4306 293.8873 299.344 304.8007 310.2574 313.6141 316.62583 320.61256 328.79927 334.67597 337.68769 347.55439 353.4311 356.5778 362.0345 367.49119 374.6279 377.7746 383.2313 388.688 391.6997 397.57643 400.93315 403.94486 411.71159 418.8483 427.245 435.6417 438.6534 444.7401 449.3568 454.8135 457.82524 464.33195 468.94865 474.82536 481.33207 488.46879 493.92549 499.38218 505.8889 508.9006 512.2573 516.874 522.75076 532.61746 535.62918 539.61587 546.54257">During this process, two molecules of NADH are produced from the</tspan><tspan y="-261.12" x="192 201.82752 207.24503 211.19254 217.24005 223.70757 229.54508 232.65259 235.7601 241.17761 251.00513 253.48763 259.32514 262.64265 265.12516 269.07267 277.22019 283.0577 285.54023 295.36775 301.20527 304.31278 309.7303 315.1478 322.2453 325.3528 330.77033 336.18785 338.67036 344.50788 347.82539 350.3079 356.7754 362.4029 366.9804 374.0779 379.49543 382.60295 388.02046 390.50297 396.55049 401.968 405.0755 411.543 414.0255 417.13304 423.60054 428.17805 434.01557 440.48307 447.58058 452.99809 458.4156 464.8831 467.3656 470.6831 475.26063 481.09815 490.92567 493.40818 499.2457 506.1332 511.55073 514.0332 519.6607 522.7682 529.8657 535.2832 541.1207 546.5382">metabolism of two molecules of pyruvic acid (produced from one glucose</tspan><tspan y="-246.72" x="192 201.86151 207.73302 210.87453 216.32604 221.77754 228.90906 232.05057 237.50208 240.2786 246.7801 253.91162 258.52314 261.66465 268.58616 274.24766 277.02418 282.68568 285.82719 291.48869 296.9402 302.8117 305.95323 311.61473 317.06623 320.20774 325.65925 328.80076">molecule during glycolysis).</tspan><tspan y="-232.08" x="210 216.4714 223.36281 228.78421 231.2706 237.322 242.74341 248.16481 252.11621 257.74763 260.859 263.34544 271.07685 276.91825 284.01966 286.50608 290.45747 297.34886 302.77024 309.66163 312.14805 317.56944 324.46083 328.4122 333.8336 338.41499 343.83638 346.32279 352.37419 354.8606 360.28199 365.9134 371.33479 374.44618 377.55757 382.97895 385.46537 391.93678 397.98817 401.93955 408.83094 416.98234 423.03373 428.66514 431.98655 434.47297 438.42436 443.00575 446.11714 451.5385 457.5899 462.1713 468.6427 474.4841 480.3255 485.9569 489.0683 492.1797 497.60108 500.0875 506.1389 511.56028 514.6717 521.14309 523.62948 529.05087 534.68228 540.10366 543.215 548.6364">The acetyl CoA then enters a cyclic pathway, tricarboxylic acid cycle,</tspan><tspan y="-217.68" x="192 201.7953 207.6006 212.1459 217.5312 219.9802 225.3655 231.17079 240.9661 250.7614 256.5667 263.422 266.49729 272.0926 274.5416 279.9269 285.9422 289.0175 292.09278 297.4781 303.9134 306.3624 312.3777 317.763 320.212 327.6973 332.24259 337.6279 344.0632 349.44853 351.6838 354.1328 359.51814 365.11344 370.49876 373.57405 378.95936 381.40837 387.42366 390.70896 394.62428 400.00959 404.55488 407.00389 410.9192 417.77449 423.1598 425.6088 430.9941 436.37944 439.4547 444.84004 451.6953 455.61064 458.6859 464.07124 467.98655 470.43556 478.76084 484.77613 491.6314 497.01673 499.46574 506.95103 511.4963 516.8816 523.3169 528.7022 531.1512 539.2665 546.12179">more commonly called as Krebs&#x2019; cycle after the scientist Hans Krebs who</tspan><tspan y="-203.04" x="192 195.2953 198.38062 202.93593 208.33124 212.25655 214.72686 220.12216 223.20748 230.28278 235.67809 238.7634 245.20871 251.23403 255.15933 260.55467 266.99998 269.4703 272.5556 276.48094">first elucidated it.</tspan></text>
<text fill="#00aeef" xml:space="preserve" transform="matrix(1 0 -0 1 -20.16 800.64)" font-size="12" font-family="Bookman"><tspan y="-176.64" x="192 200.352 208.70401 213.216 221.56801 226.08 240 248.35912 253.83823 258.11735 265.03645 271.95555 277.43464 284.59376 291.99287 299.15199 306.5511 310.5902 314.86933 321.78843 326.17756 334.77668 341.69578 345.97489 353.61399 358.0031 366.84223 374.24134 381.16044 385.19956">12.4.1Tricarboxylic Acid Cycle</tspan></text>
<text fill="#231f20" xml:space="preserve" transform="matrix(1 0 -0 1 -20.16 800.64)" font-size="10.5" font-family="Bookman"><tspan y="-158.64" x="192 198.26902 204.95803 210.17704 212.45973 218.72875 226.25775 233.15677 235.43947 240.65848 246.0875 251.3065 254.21552 259.43455 261.71726 266.93629 270.6853 276.5343 280.9133 284.66233 289.88136 292.16407 300.11308 303.02207 306.7711 313.46009 315.7428 319.49183 326.18083 331.39985 333.68257 338.90159 344.5406 351.22959 357.4986 362.71763 369.40663 374.62565 380.47465 384.22367 387.13267 392.77168 399.46067 401.74339 407.3824 410.5014 412.78413 418.63313 423.85215 429.07118 432.8202 438.2492 441.1582 443.44093 448.86994 453.24894 458.88795 465.78697 472.05598 474.33869 482.2877 485.1967 488.9457 495.6347 497.91743 503.55644 509.19544 515.04446 517.9534 523.59249 529.44149 534.66049 539.87948 543.6285 546.5375">The TCA cycle starts with the condensation of acetyl group with oxaloacetic</tspan><tspan y="-144.48" x="192 198.0866 203.5432 206.6898 213.19641 217.10301 220.24962 228.64623 235.78282 242.91942 246.06603 249.97263 256.05924 262.98585 269.49244 273.39903 281.58564 287.67225 291.65885 297.11546 301.73207 305.63865 309.62525 315.50184 319.40843 325.075 328.22163 333.67823 336.82484 343.33143 347.238 352.6946 355.84123 359.82783 364.44444 367.59104 373.04765 376.95423 383.04084 388.49745 391.64405 398.15065 402.05723 405.20384 411.92045 415.06706 420.73365 427.87025 432.48686 437.94346 441.85005 448.35664 454.86323 458.21983 464.7264 467.87303 471.2296 475.1362 481.6428 488.5694 494.026 497.9326 502.5492 508.0058 514.0924 519.549 523.5356 526.6822 532.5588 539.48538 543.39199 546.5386">acid (OAA) and water to yield citric acid (Figure 12.3). The reaction is</tspan><tspan y="-130.56" x="192 197.19931 203.02863 206.75794 212.58725 215.47657 220.88588 226.08519 231.2845 237.53382 239.79563 246.04494 251.45426 253.71607 257.44538 264.1147 269.314 271.5758 276.77513 283.44444 288.22373 293.63304 303.24235 308.44166 310.70347 315.90278 318.79209 322.5214 326.8807 332.71003 336.43934 341.63865 343.90046 349.09977 354.50907 361.17839 364.90769 371.577 377.4063 382.60563 387.80494 390.06675 395.89607 402.56538 408.81468 411.07649 416.9058 419.1676 428.77693 434.39625 437.28556 442.48487 447.68418 454.56349 457.4528 462.6521 464.9139 470.53324 473.63255 475.89436 483.40367 489.02299 495.90229 498.1641 501.0534 506.25273 508.51454 512.87387 518.0731 520.9624 526.16177 531.991 537.1903 542.38967 548.639">catalysed by the enzyme citrate synthase and a molecule of CoA is released.</tspan><tspan y="-116.64" x="192 199.767 202.914 206.901 211.518 217.60501 221.59201 227.04901 230.02681 233.17382 238.63082 241.60861 245.59561 252.52262 257.9796 264.90663 267.88444 271.03144 276.48844 282.36546 292.23246 297.68946 302.30647 305.45347 310.91047 316.36747 322.87446 325.85227 329.83927 335.71629 338.6941 341.8411 347.2981 353.1751 358.6321 361.7791 365.7661 370.38313 376.47013 380.45713 385.91413 389.27113 392.24894 395.22676 398.79374 402.78074 405.75856 408.90556 414.36256 417.34037 420.69737 426.57438 429.72138 432.86839 438.7454 446.9324 452.3894 458.8964 461.8742 468.3812 474.0482 477.026 481.013 489.2 495.07704 498.05485 503.51185 510.64884 516.10586 521.56289 527.0199 532.4769 537.93399 541.08096 546.53799">Citrate is then isomerised to isocitrate.  It is followed by two successive</tspan><tspan y="-102.48" x="192 197.45981 201.44962 206.90943 213.41924 218.87905 221.53887 227.41867 230.77849 233.43831 239.94812 245.40793 250.86774 256.95756 261.57737 268.08717 273.96699 279.8468 285.5166 288.6664 294.75624 298.74604 301.89585 307.77568 314.70549 318.06529 320.7251 323.8749 329.33473 335.42454 341.93434 345.08415 352.01396 357.68376 360.34358 364.33338 370.2132 372.87303 376.86283 383.79264 389.25245 391.91227 395.27207 401.1519 405.7717 415.6415 421.73133 425.72114 428.87095 434.75077 441.68058 444.3404 450.2202 453.58003">steps of decarboxylation, leading to the formation of </tspan></text>
<text fill="#231f20" xml:space="preserve" transform="matrix(1 0 -0 1 -20.16 800.64)" font-size="10.5" font-family="Symbol"><tspan y="-102.48" x="456.241">&#x03b1;</tspan></text>
<text fill="#231f20" xml:space="preserve" transform="matrix(1 0 -0 1 -20.16 800.64)" font-size="10.5" font-family="Bookman"><tspan y="-102.48" x="462.96 467.1518 473.6536 479.1054 483.08723 488.959 494.62083 497.76264 504.89445 508.87626 514.95809 519.5699 522.7117 528.16348 530.81527 536.89706 542.3488 545.4906">-ketoglutaric acid</tspan></text>
<g clip-path="url(#clip_19)">
<text xml:space="preserve" transform="matrix(1 0 -0 1 257.15403 766.8803)" font-size="8" font-family="Arial"><tspan y="6.316" x="0"> </tspan></text>
</g>
</g>
</svg>
