<svg xmlns="http://www.w3.org/2000/svg" xmlns:xlink="http://www.w3.org/1999/xlink" xmlns:inkscape="http://www.inkscape.org/namespaces/inkscape" version="1.1" width="576" height="784.8" viewBox="0 0 576 784.8">
<defs>
<clipPath id="clip_3378">
<path transform="matrix(1,0,0,-1,-18,802.8)" d="M18 18H594V802.8H18Z" clip-rule="evenodd"/>
</clipPath>
<clipPath id="clip_3379">
<path transform="matrix(1,0,0,-1,259.314,763.9998)" d="M0-8H57.372V.800049H0Z"/>
</clipPath>
</defs>
<g clip-path="url(#clip_3378)">
<path transform="matrix(.23999998,0,0,-.23999998,-18,802.8)" d="M0 3035.83H2550V3372.7003H0Z" fill="#d1d3d4" fill-rule="evenodd"/>
<path transform="matrix(.23999998,0,0,-.23999998,-18,802.8)" d="M0 3078.33H2550V3420H0Z" fill="#e1ecb6" fill-rule="evenodd"/>
<text fill="#231f20" xml:space="preserve" transform="matrix(1 0 -0 1 -18 802.8)" font-size="11" font-family="Bookman"><tspan y="-730.081" x="84">P</tspan></text>
<text fill="#231f20" xml:space="preserve" transform="matrix(1 0 -0 1 -18 802.8)" font-size="7.69999" font-family="Bookman"><tspan y="-730.081" x="90.72 95.284709 100.46541 106.10811">LANT</tspan></text>
<text fill="#231f20" xml:space="preserve" transform="matrix(1 0 -0 1 -18 802.8)" font-size="11" font-family="Bookman"><tspan y="-730.081" x="110.88 113.361309"> G</tspan></text>
<text fill="#231f20" xml:space="preserve" transform="matrix(1 0 -0 1 -18 802.8)" font-size="7.69999" font-family="Bookman"><tspan y="-730.081" x="122.4 127.8772 133.97039 141.29558 146.00278">ROWTH</tspan></text>
<text fill="#231f20" xml:space="preserve" transform="matrix(1 0 -0 1 -18 802.8)" font-size="11" font-family="Bookman"><tspan y="-730.081" x="152.16"> </tspan></text>
<text fill="#231f20" xml:space="preserve" transform="matrix(1 0 -0 1 -18 802.8)" font-size="7.69999" font-family="Bookman"><tspan y="-730.081" x="154.56 159.7698 165.4416">AND</tspan></text>
<text fill="#231f20" xml:space="preserve" transform="matrix(1 0 -0 1 -18 802.8)" font-size="11" font-family="Bookman"><tspan y="-730.081" x="171.6 174.08132"> D</tspan></text>
<text fill="#231f20" xml:space="preserve" transform="matrix(1 0 -0 1 -18 802.8)" font-size="7.69999" font-family="Bookman"><tspan y="-730.081" x="182.88 188.37882 193.72362 199.22243 203.79723 209.91204 214.64084 221.67964 227.17845 232.83126">EVELOPMENT</tspan></text>
<path transform="matrix(.23999998,0,0,-.23999998,482.6352,53.635194)" d="M0 0C7.32 7.32 16.16 10.98 26.52 10.98H97.35C107.71 10.98 116.55 7.32 123.87 0 131.19-7.33 134.85-16.17 134.85-26.52V-101.52C134.85-111.88 131.19-120.72 123.87-128.04 116.55-135.36 107.71-139.02 97.35-139.02H26.52C16.16-139.02 7.32-135.36 0-128.04-7.32-120.72-10.98-111.88-10.98-101.52V-26.52C-10.98-16.17-7.32-7.33 0 0" fill="#ffffff" fill-rule="evenodd"/>
<text fill="#231f20" xml:space="preserve" transform="matrix(1 0 -0 1 -18 802.8)" font-size="11" font-family="Bookman"><tspan y="-729.361" x="505.92 513.21 520.5">177</tspan></text>
<path transform="matrix(.23999998,0,0,-.23999998,-18,802.8)" d="M2 2H2548V214.67H2Z" fill="#cbdf7f" fill-rule="evenodd"/>
<path transform="matrix(.23999998,0,0,-.23999998,-18,802.8)" stroke-width="4" stroke-linecap="butt" stroke-miterlimit="1000" stroke-linejoin="miter" fill="none" stroke="#cbdf7f" d="M2 2H2548V214.67H2Z"/>
<path transform="matrix(.23999998,0,0,-.23999998,579.6,.11999512)" stroke-width="1" stroke-linecap="butt" stroke-miterlimit="10" stroke-linejoin="miter" fill="none" stroke="#000000" d="M0 0H60"/>
<path transform="matrix(.23999998,0,0,-.23999998,576.12,-18)" stroke-width="1" stroke-linecap="butt" stroke-miterlimit="10" stroke-linejoin="miter" fill="none" stroke="#000000" d="M0 0V-60"/>
<path transform="matrix(.23999998,0,0,-.23999998,579.6,784.44)" stroke-width="1" stroke-linecap="butt" stroke-miterlimit="10" stroke-linejoin="miter" fill="none" stroke="#000000" d="M0 0H60"/>
<path transform="matrix(.23999998,0,0,-.23999998,576.12,788.16)" stroke-width="1" stroke-linecap="butt" stroke-miterlimit="10" stroke-linejoin="miter" fill="none" stroke="#000000" d="M0 0V-59"/>
<path transform="matrix(.23999998,0,0,-.23999998,-17.88,-18.23999)" stroke-width="1" stroke-linecap="butt" stroke-miterlimit="10" stroke-linejoin="miter" fill="none" stroke="#000000" d="M0 0V-75"/>
<text fill="#231f20" xml:space="preserve" transform="matrix(1 0 -0 1 -18 802.8)" font-size="10.5" font-family="Bookman"><tspan y="-685.2" x="60 65.3907 70.9914 77.852108 81.772808 88.63351 94.02421 99.41491 102.49561 107.886318 113.277019 119.71771 122.173419 125.25412 132.11483 134.57051 139.12122 144.51192 150.11261 153.19332 159.00402 165.86472 171.25542 173.7111 181.8318 188.6925 194.0832 198.63391 204.02462 206.4803 211.031 217.05171 223.49242 226.57312 233.01383 235.46952 240.86022 246.25092 249.33162 252.41233 254.86801 261.30873 264.3894 269.7801 272.86079 278.25148 281.33216 287.14286 294.00355 296.45927 302.26997 307.66065 313.05134 320.12205 324.67274 330.06343 333.35414 335.80986 339.10057 344.91127 349.46195 351.91767 357.30836 363.11906 369.13975 378.94044 385.38114 388.46183 393.8525 397.14323 399.59895 404.14964 409.96034 415.77104">synthesised in regions where rapid cell division occurs, for example, root</tspan><tspan y="-669.6" x="60 66.086917 72.59383 75.74074 81.19765 86.65456 92.111469 95.468379 98.08439 104.5913 110.04821 115.50512 120.96203 124.10894 129.98586 136.49277 139.63968 146.56659 152.2335 154.8495 160.30641 167.23332 173.11023 178.98714 182.97405 185.59004 192.09696 199.23387 205.74079 211.1977 214.5546 217.1706 222.83751 228.71442 235.85134 242.77825 248.44516 251.06116 254.41806 259.03498 266.17189 269.3188 273.3057 278.7626 281.3786 286.8355 290.82243 296.27934 299.63624 302.25224 305.81916 309.80607 312.42207 319.34898 324.80589 327.9528 334.4597 339.9166 342.5326 346.5195 352.39643 355.01243 361.51933 366.13624 372.01316 378.52006 385.65696 391.11387 396.57078 399.18678 406.11369 411.5706">apices, developing shoot buds, young fruits etc. It helps to produce new</tspan><tspan y="-654" x="60 62.99701 68.304019 74.24103 79.548038 84.85504 90.16205 93.36906 95.737178 101.04419 107.8212 110.81821 116.54522 121.01223 126.73924 133.09626 136.09326 142.03028 147.33728 151.17429 156.4813 158.84943 161.84644 168.62345 170.99158 173.98859 179.2956 185.2326 190.53961 195.84662 201.15363 204.36064 206.72878 209.72579 215.6628 219.4998 224.80681 229.27382 235.21083 238.20784 240.57598 245.88298 252.65999 258.387 264.114 267.95103 270.31913 275.83613 280.30314 286.03016 294.06718 297.90419 304.68119 307.0493 312.9863 319.7633 326.12034 328.48844 334.42546 340.78248 346.08949 351.39649 358.1735 362.0105 365.0075 368.8445 371.84153 377.56855 384.55555 389.86256 392.23066 397.53767 404.31468 410.0417 415.7687">leaves, chloroplasts in leaves, lateral shoot growth and adventitious shoot</tspan><tspan y="-638.4" x="60 63.18061 68.88122 73.32183 83.01244 88.92306 92.733669 95.70428 101.404888 108.155498 111.336109 113.67923 121.26984 126.760448 130.57106 136.27167 142.60228 145.57289 152.3235 155.29412 162.04473 167.32534 169.66844 176.41905 181.69966 184.67028 191.00089 193.344 199.0446 204.32521 209.60582 214.04644 219.32704 225.02765 234.71826 239.99887 242.34198 246.15259 252.9032 258.1838 260.52693 266.43754 272.76814 275.73875 281.01936 286.92997 289.90058 292.24369 298.57429 304.2749 313.9655 316.93614 323.68675 329.59736 336.34797 341.62858 346.90919 350.08979 352.4329 358.7635 365.5141 370.7947 376.2853 378.62843 384.959 389.39964 395.10026 404.79087 410.4915 414.3021">formation. Cytokinins help overcome the apical dominance. They promote</tspan><tspan y="-622.8" x="60 66.88231 73.97462 77.91693 82.48924 85.59155 91.00386 97.88617 101.828479 104.301898 114.12421 119.95652 126.41883 129.52115 132.62346 135.72577 141.13808 147.18039 151.1227 154.225 160.05731 166.93962 169.41306 177.55536 184.43767 187.53998 192.95229 199.8346 202.30803 209.19034 214.60265 217.70496 224.16727 229.57958 232.05301 235.15532 242.03763 244.51107 248.45337 255.33568 260.748 263.2214 269.68373 275.09605 278.19837 284.24067 289.86299 292.3364 298.1687 301.48103 303.95445 307.05677 312.4691 318.51139 321.8237 324.29713 329.70945 335.12178 342.0041 347.4164 352.82875 358.24107 363.65339 370.5357 375.94804 381.36036">nutrient mobilisation which helps in the delay of leaf senescence.</tspan></text>
<text fill="#6d6f71" xml:space="preserve" transform="matrix(1 0 -0 1 -18 802.8)" font-size="10.5" font-family="Bookman" font-style="italic"><tspan y="-601.044" x="60.158 67.0794 74.0008 77.5622 84.483608 88.045009 94.96641 98.52781">13.4.3.4</tspan><tspan y="-601.043" x="59.843 66.7644 73.6858 77.2472 84.1686 87.73 94.651409 98.21281">13.4.3.4</tspan><tspan y="-601.358" x="60.158 67.0794 74.0008 77.5622 84.483608 88.045009 94.96641 98.52781">13.4.3.4</tspan><tspan y="-601.3585" x="59.843 66.7644 73.6858 77.2472 84.1686 87.73 94.651409 98.21281">13.4.3.4</tspan><tspan y="-601.2005" x="60 66.9214 73.842807 77.404209 84.32561 87.88701 94.80841 98.36981">13.4.3.4</tspan><tspan y="-601.0425" x="107.1104 114.983287 119.28617 126.52906 133.56195 137.23485 143.63774 150.88063 108.890819 116.7637 121.06659 128.30948 135.34238 139.01528 145.41817 152.66106">EthyleneEthylene</tspan><tspan y="-601.3575" x="107.1104 114.983287 119.28617 126.52906 133.56195 137.23485 143.63774 150.88063 108.890819 116.7637 121.06659 128.30948 135.34238 139.01528 145.41817 152.66106">EthyleneEthylene</tspan><tspan y="-601.19949" x="107.99999 115.87288 120.175769 127.418659 134.45154 138.12444 144.52733 151.77022">Ethylene</tspan></text>
<text fill="#231f20" xml:space="preserve" transform="matrix(1 0 -0 1 -18 802.8)" font-size="10.5" font-family="Bookman"><tspan y="-579.5995" x="59.99999 67.66118 71.752368 78.783557 84.55474 87.80593 93.36712 100.39831 105.959499 109.284297 112.535488 118.09667 121.42147 127.61266 130.93747 136.49866 139.74985 149.72104 156.33223 159.58342 165.1446 168.46942 174.24062 180.43181 185.993 191.55419 197.53537 204.77657 210.33776 213.66257 220.27376 228.77495 236.43614 239.89734 243.22216 246.89334 250.98453 254.30934 257.56056 263.12174 266.44654 272.00773 277.7789 284.8101 288.90129 295.93247 301.49366 307.05485 310.30604 315.86723 321.4284 328.03959 331.36439 334.61558 341.64677 344.97157 348.22276 354.41395 359.13514 364.9063 370.4675 373.7923 379.9835 389.95469 395.93589 403.17707 410.20826 414.29945">Ethylene is a simple gaseous PGR. It is synthesised in large amounts</tspan><tspan y="-563.9995" x="59.99999 66.61138 72.382778 76.74415 80.83554 84.08693 89.64832 95.20972 102.4511 108.0125 113.57389 117.935268 125.17665 132.20804 138.81943 144.38082 149.1022 154.8736 160.85498 164.10637 171.13776 176.90915 181.27054 186.83193 192.39331 199.4247 204.98609 210.54747 216.10886 221.67024 228.70163 234.26302 239.8244 244.18579 250.37718 257.40858 264.01997 268.38136 273.10276 276.35417 282.96556 288.52696 295.55836 298.80976 305.84117 311.61256 315.97395 319.43534 324.15675 331.39814 334.64955 338.74095 344.30235 347.76374 352.12513 355.7965 362.8279 366.2893 369.5407 376.7821 382.3435 389.3749 394.9363 400.4977 406.0591 410.4205 416.4019">by tissues undergoing senescence and ripening fruits. Influences of</tspan><tspan y="-548.3995" x="59.99999 65.56489 69.65979 76.69469 82.46959 85.72449 91.28939 98.32429 103.88919 107.27629 113.26119 120.29609 123.68319 130.2981 133.553 139.7479 146.78279 150.87769 156.44258 159.82968 163.08458 170.11948 175.68437 178.93927 186.18418 192.79907 198.36397 201.75107 208.78597 214.77086 219.49576 222.75066 227.89556 233.88045 240.91535 245.01024 251.20514 254.46004 257.84715 263.62205 268.34696 274.33186 282.62675 286.72166 293.75657 297.14369 303.12858 306.59349 309.9806 315.5455 321.1104 326.67533 333.29023 336.54515 339.80006 346.83497 352.60987 358.17478 361.63969 365.0268 370.5917 378.8866 384.4515 387.70643 390.96134 394.21626 401.25117 407.02607 410.41319 416.39808">ethylene on plants include horizontal growth of seedlings, swelling of</tspan><tspan y="-532.7995" x="59.99999 63.9069 70.75381 76.130718 78.572628 84.57954 90.37645 93.44336 98.82027 101.26218 107.26909 114.116 120.54291 122.98482 128.99173 135.41864 138.48555 143.86246 149.86937 152.93628 155.37819 162.2251 168.022 173.81891 180.24582 182.68773 185.96465 191.76155 196.29846 206.08538 212.09229 215.99919 219.0661 224.863 231.70992 234.15183 237.21874 244.06565 246.50756 252.93447 256.00138 261.3783 267.1752 271.08213 273.52406 278.90098 284.2779 289.65483 296.08174 299.14866 302.21559 309.0625 314.6494 320.02635 323.30326 325.74519 333.22209 337.129 343.97593 349.56285 352.62977 358.00669 364.8536 370.23054 372.67247 379.09938 383.63627 389.43318 399.2201 405.017 408.92393 414.30085">the axis and apical hook formation in dicot seedlings. Ethylene promotes</tspan><tspan y="-517.19949" x="59.99999 65.56278 71.12557 78.15836 83.72115 89.28394 94.84673 100.40952 107.442317 113.005107 118.567897 123.39178 129.58457 136.61736 143.23015 148.05402 154.24681 160.8596 166.4224 171.98519 175.23798 180.80077 186.36356 189.61635 195.59914 202.63193 207.4558 213.43859 216.90137 221.72524 228.33803 231.59082 237.78362 244.8164 248.9092 253.73307 259.71586 264.43864 270.21144 276.4042 283.43699 288.9998 293.82368 299.38648 304.94929 311.56208 317.12489 322.68769 325.94047 332.13325 335.38603 338.6388 344.4116 349.23548 355.21827 358.68107 363.50495 366.75773 372.32054 378.5133 384.0761 389.63893 395.20173 400.0256 406.21839 413.25117">senescence and abscission of plant organs especially of leaves and</tspan><tspan y="-501.5995" x="59.99999 63.46179 66.713588 72.69539 80.98719 86.54899 91.27079 96.83259 100.29439 103.981189 111.64299 115.73479 122.76659 128.53839 131.79019 137.35199 144.38379 149.94559 153.6324 156.8842 162.446 166.13282 173.16461 176.41641 182.18822 189.22002 192.47182 198.24362 201.93044 207.49224 210.95404 214.41585 219.97765 225.53945 229.63124 232.88304 238.44484 244.00664 247.69345 250.94525 257.97706 261.66386 265.12565 269.84745 277.08924 280.34104 284.43284 288.11964 292.84144 296.09324 302.70503 308.2668 315.2986 318.5504 325.5822 331.354 334.8158 338.5026 342.1744 346.2662 349.953 355.5148 362.5466 369.5784 375.7702 382.802 388.3638 393.9256 399.4874 403.1742 407.266 414.2978">flowers. Ethylene is highly effective in fruit ripening. It enhances the</tspan><tspan y="-485.99949" x="59.99999 64.84339 70.526798 76.2102 82.943599 86.31699 91.16039 97.47379 101.687198 105.06059 111.163997 118.3174 123.577999 128.4214 134.7348 138.9482 144.63159 149.8922 156.6256 163.989 168.8324 172.2058 179.35919 185.2526 190.5132 195.3566 198.73 205.4634 211.14679 218.30019 221.67359 228.82698 234.72039 239.98099 246.08438 249.66779 254.92839 259.14179 266.2952 271.9786 277.2392 280.8226 285.66603 293.02943 296.40284 300.61625 306.29966 309.88307 315.14366 321.87705 329.03047 332.40388 338.08729 343.34788 348.19129 351.5647 357.2481 362.93153 368.1921 371.56553 378.71894 383.97953 388.82295 395.13636 399.34977 405.03318 410.29377 416.39717">respiration rate during ripening of the fruits. This rise in rate of</tspan><tspan y="-470.39949" x="59.99999 64.66298 70.16597 75.66896 82.221958 85.41495 90.07794 96.21093 100.24392 103.43691 109.3599 116.33289 118.8984 122.09139 127.59438 130.15988 135.66287 141.79587 144.98886 148.18186 153.68485 160.23784 162.80333 167.46633 172.96932 178.4723 185.0253 188.21829 192.88129 199.01428 203.04727 208.97026 213.63326 219.34626 221.91175 227.41474 230.60773 233.80072 243.71372 249.84671 255.3497 259.3827 262.57569 268.07868">respiration is called respiratory climactic.</tspan><tspan y="-454.7995" x="77.999988 85.5571 89.544208 96.47131 102.13842 105.28553 110.74264 117.66975 123.126857 127.12145 133.62856 138.24567 143.70278 149.78989 156.297 161.7541 165.74872 171.20583 176.66294 182.12004 188.62715 192.62177 198.70888 205.63599 212.1431 216.13771 222.64482 229.78194 236.28905 240.28366 246.79077 252.66788 257.28498 267.1521 273.2392 280.16633 285.62345 291.29057 294.64768 298.64228 301.78938 308.7165 311.8636 315.8507 318.9978 325.0849 329.07203 334.52915 339.98628 343.98088 349.64799 355.1051 359.7222 369.5893 372.7364 379.6635 385.7506 389.73774 392.88484 398.76194 405.68907 409.68367 412.83076">Ethylene breaks seed and bud dormancy, initiates germination in</tspan><tspan y="-439.19947" x="59.99999 66.57999 72.109989 78.26999 85.26999 92.47999 96.539989 101.64499 107.17499 112.70499 118.234989 124.81499 130.34499 133.77498 138.87998 144.40998 150.98998 155.67998 161.62998 168.83998 172.89998 176.11998 183.11998 188.85999 193.96498 199.91498 203.34497 208.44997 215.02997 220.97997 225.03997 231.19997 235.25997 241.20996 246.31496 250.37496 257.58497 264.16496 269.69496 274.38496 279.91496 283.34495 288.44993 296.07994 300.13993 307.13993 312.8799 316.0999 321.6299 328.6299 334.1599 339.2649 345.84489 350.53489 356.4849 366.4249 372.3749 376.4349 381.9649 387.4949 392.59989 397.2899 403.4499 410.02989 413.24989">peanut seeds, sprouting of potato tubers. Ethylene promotes rapid</tspan><tspan y="-423.5995" x="59.99999 63.148 70.07601 74.06402 79.522029 84.14004 91.06805 96.94606 103.45407 108.91208 115.21009 121.7181 127.17611 131.16413 134.31214 140.19014 143.33815 148.79616 152.00978 157.46779 160.6158 166.4938 173.42182 179.08983 185.17784 189.16585 192.31386 198.19187 205.11988 208.3335 211.4815 218.40952 221.62314 228.13115 233.58916 239.04717 245.55518 248.7688 256.95683 263.04484 267.03285 272.49085 277.10887 280.32249 284.9405 288.0885 293.5465 299.00453 302.21815 308.72615 311.87416 317.96217 324.89018 328.87818 334.33619 337.69419 340.9078 344.47584 348.46385 351.67747 358.60548 364.06349 367.2115 373.71949 379.1775 382.3911 385.53913 390.99714 397.08515 402.54316 408.00117 413.45918">internode/petiole elongation in deep water rice plants. It helps leaves/</tspan><tspan y="-407.99949" x="59.99999 67.14099 73.65199 80.162998 85.62399 90.244998 92.901508 99.412509 105.50351 110.12451 114.11551 119.57651 122.23302 128.11402 131.475 134.13152 138.12252 145.05352 150.51451 153.17104 158.63204 165.56304 171.44403 177.32503 181.31603 183.97255 187.96355 193.84455 196.50106 201.12099 206.58089 216.45079 222.5407 225.6906 232.6205 235.27591 241.36582 247.87572 253.75562 259.2155 264.6754 267.3308 275.52073 281.61064 285.60054 291.06044 294.958 298.3117 300.9609 308.51463 312.49833 319.42204 325.08573 328.22944 333.68315 340.60685 346.06056 348.70976 354.79347 357.93717 363.39088 369.26457 371.91377 378.41746 383.28 389.148 399.006 404.87403 408.85203 414.30003">upper parts of the shoot to remain above water. Ethylene also promotes</tspan><tspan y="-392.39949" x="59.99999 64.62069 70.50139 76.38209 80.37279 82.9108 88.5815 93.202198 99.08289 107.27359 111.26429 118.19499 120.733 126.8237 133.7544 140.26509 142.8031 147.4238 153.3045 159.18521 163.17592 165.71393 172.64463 178.73532 181.88602 186.50672 189.04473 192.40543 198.28614 202.90683 212.77753 218.86823 222.85894 226.00963 231.89034 238.82103 242.18173 244.71974 248.71045 255.64115 262.78184 268.24253 270.78053 277.7112 283.1719 286.3226 292.8333 295.984 302.9147 308.5854 311.12339 315.11408 322.04478 327.50547 330.04347 336.55418 339.70487 345.79557 352.72627 356.71696 362.17765 364.71565 368.70634 374.58705 377.12504 380.27574 387.20643 392.6671 397.2878 402.7485 408.8392 414.2999">root growth and root hair formation, thus helping the plants to increase</tspan><tspan y="-376.7995" x="59.99999 63.93369 70.80739 76.21109 79.30479 83.868488 86.3472 92.3809 98.834598 104.2383 110.062 114.625698 121.07939 125.01309 128.1068 133.9305 140.8042 143.2829 148.6866 155.7703 160.334 163.6377 169.6714 175.0751 180.4788">their absorption surface.</tspan><tspan y="-361.19947" x="77.999988 85.558589 89.54719 96.475788 102.14439 105.292987 110.75159 117.68019 123.138797 125.84189 128.9905 134.4491 137.15219 144.29079 149.74939 155.208 161.7166 164.4197 168.4083 174.2869 176.98999 180.1386 187.0672 190.2158 194.2044 197.35301 203.44162 207.43022 212.88883 215.59192 218.95052 222.09912 227.97772 236.16632 241.62493 246.24353 249.39214 256.32075 261.98936 264.69248 270.78108 277.70967 284.21827 286.9214 290.28 296.1586 300.7772 303.48033 308.9389 314.6075 321.5361 326.9947 333.92329 338.54188 344.42048 351.34907 354.49766 359.95625 363.10484 370.03343 375.70204 378.40516 381.76377 386.38236 393.52098 396.66957 400.65815 404.85676 410.31535 415.77394">Ethylene is used to initiate flowering and for synchronising fruit-set</tspan><tspan y="-345.5995" x="59.99999 62.9511 69.68221 72.00832 78.319438 81.270549 88.001659 93.262767 99.15388 105.46499 111.7761 114.72721 119.98832 125.24943 128.41054 130.73665 134.10776 137.89887 140.22498 146.11609 149.0672 154.32831 160.00942 162.33553 165.28664 172.01775 178.32886 185.26998 190.53108 195.79219 201.0533 203.37941 206.54053 209.49164 215.17275 223.16385 228.42496 232.84607 235.79718 242.52829 247.9994 250.32552 253.27663 260.00776 262.33387 272.00498 277.8961 284.6272 290.0983 295.77943 298.94053 301.26664 307.99775 310.94886 317.67997 322.94108 328.20219 330.5283 335.7894 339.5805 346.3116 351.7827 354.73384 359.99494 366.72605 371.98716 374.31327 378.73439 383.99549 389.46659 396.40769 399.3588 405.2499 409.04103 414.30213">in pineapples. It also induces flowering in mango. Since ethylene regulates</tspan><tspan y="-329.99949" x="59.99999 65.37259 71.16519 73.5994 83.382 89.384609 96.2272 101.80981 104.24402 110.66662 117.50922 123.09182 128.46442 131.52703 137.31963 140.38224 146.17484 151.75743 154.82004 160.19264 166.19524 169.25785 171.69205 178.11466 182.64725 188.43985 193.81246 199.18506 204.55767 209.93027 215.30287 220.67548 223.94808 226.38228 229.44489 233.34749 235.7817 238.8443 244.2169 246.65111 252.44371 259.28633 264.6589 267.09315 272.88575 276.15837 278.5926 282.49519 289.33778 294.71037 297.1446 306.9272 312.7198 318.09239 321.99497 324.4292 332.5318 335.5944 342.017 347.3896 350.45219 356.0348 358.46903 365.52165 370.89424 376.2668 382.68943 385.12367 391.54627 399.85887 407.33146 409.7657 412.82829">so many physiological processes, it is one of the most widely used PGR in</tspan><tspan y="-314.39949" x="59.99999 66.08639 71.752788 76.36919 79.51559 84.971988 92.10838 95.25478 99.24118 106.37758 110.99398 116.45038 119.80678 123.673168 130.17957 137.10597 142.56238 146.42877 156.29517 162.17157 167.62798 171.61438 175.48078 183.66718 186.81357 193.31996 198.77637 201.92276 207.58916 211.45555 218.59195 224.04836 229.50476 236.01116 239.87755 245.33396 251.21036 261.07676 267.58317 273.45957 280.59599 287.52238 294.02879 297.89518 303.98158 309.43797 313.30436 318.76075 324.63716 331.77357 336.38996 341.84635 347.30274 351.16914 357.04554 360.40196 364.26835 369.72474 373.71113 380.6375 386.30393 389.45033 394.9067 401.8331 407.2895 411.15589 414.30229">agriculture. The most widely used compound as source of ethylene is</tspan><tspan y="-298.79948" x="59.99999 65.46089 69.45179 76.38269 81.84359 88.35449 95.28539 101.16629 108.09719 111.45809 115.93559 123.49649 127.48739 134.41829 139.8792 146.39009 153.32099 159.20189 166.13278 170.61029 173.76119 180.69208 185.16959 191.26049 198.19138 202.66889 208.75978 214.85068 221.99158 227.45249 233.33339 240.47429 245.9352 250.41269 255.8736 261.7545 264.9054 272.0463 276.0372 279.1881 285.069 291.9999 296.47743 299.62834 305.08924 309.56675 314.18766 319.64857 325.73948 332.25038 335.40129 338.5522 344.22309 348.7006 354.7915 361.3024 366.7633 372.6442 377.2651 383.776 389.2369 395.7478 400.2253 406.31623 413.24714">ethephon. Ethephon in an aqueous solution is readily absorbed and</tspan><tspan y="-283.1995" x="59.99999 63.9898 68.60961 74.699428 81.629238 87.08904 93.598857 99.47867 104.09848 108.08829 113.548099 120.05791 124.49892 132.68872 135.83853 139.82834 146.75815 149.90796 156.83777 161.2788 165.2686 172.19841 177.65822 182.09925 188.60906 191.75887 197.84868 204.77849 208.7683 213.20932 219.29914 226.22895 232.73876 237.17978 241.79959 247.2594 250.40921 255.86902 261.95884 267.41865 272.87846 278.33827 282.77928 288.23908 292.22889 299.1587 304.8285 307.9783 313.4381 320.36793 325.82774 330.26875 335.72856 338.87837 344.75819 352.948 356.0978 361.7676 365.1274 369.56843 377.12825 381.11805 388.04786 393.50767 400.01747 406.94728 412.8271">transported within the plant and releases ethylene slowly. Ethephon</tspan><tspan y="-267.5995" x="59.99999 66.8297 72.819408 78.179119 82.068828 87.428539 94.25825 99.61796 102.03878 105.29849 109.81821 116.85792 119.90763 123.79734 126.21816 130.73787 133.78759 140.1973 145.557 152.38672 155.43643 162.26615 167.83586 170.25669 173.3064 180.13611 182.55693 186.44664 192.22635 201.99607 207.98578 211.87549 217.6552 223.01491 228.37462 230.79544 236.78516 243.61487 250.02458 252.4454 258.43513 264.84483 271.25453 274.30424 279.66395 285.02366 287.44447 293.43418 300.2639 306.67359 309.0944 315.0841 320.44383 325.80354 331.16325 334.21296 339.57267 344.09239 350.0821 353.9718 359.3315 364.69123 367.11204 373.10176 379.51145 384.87117 390.23088 393.28059 398.6403 404 407.0497 412.82945">hastens fruit ripening in tomatoes and apples and accelerates abscission</tspan><tspan y="-251.99948" x="59.99999 62.89349 69.566989 71.83418 74.93768 77.831188 83.45468 91.38818 96.59168 100.955188 106.15868 108.42588 114.259387 120.932888 127.186389 129.45359 132.55709 136.92058 143.80408 146.69757 150.43108 155.63459 157.90178 160.79528 164.52878 171.20227 174.09577 180.76926 187.44275 190.33625 197.00974 202.42324 204.69043 210.31394 213.41744 215.68463 220.88814 226.51165 230.24515 233.97866 239.60216 246.27567 249.37917 251.64636 256.84986 263.52336 268.72685 273.09034 277.45384 282.86735 285.97084 288.238 296.1715 302.005 304.8985 311.572 318.4555 322.189 325.0825 328.18598 330.45317 333.76667 337.50016 339.76734 346.02085 350.38435 356.00785 365.62135 371.24485 374.97834 380.18183 385.3853 387.6525 390.75599 395.95948 405.57298 411.40647 414.29997">in flowers and fruits (thinning of cotton, cherry, walnut). It promotes female</tspan><tspan y="-236.39948" x="59.99999 63.33959 66.469188 72.32878 80.49838 85.93798 90.53758 95.97718 98.48349 101.61309 108.52269 111.029 116.4686 123.588199 129.0278 136.1474 145.997 152.48659 157.9262 162.52579 167.9654 170.47171 174.44132 181.35092 186.79053 191.39012 196.82973 203.31932 208.96892 211.47524 214.60483 221.51444 226.95404 231.55364 236.99324 243.06284 248.50244 251.63204 258.54164 264.19123 266.69755 270.66716 277.57676 283.01637 285.52268 291.17228 294.30189 299.7415 302.8711 309.3607">flowers in cucumbers thereby increasing the yield.</tspan></text>
<text fill="#6d6f71" xml:space="preserve" transform="matrix(1 0 -0 1 -18 802.8)" font-size="10.5" font-family="Bookman" font-style="italic"><tspan y="-214.6415" x="59.43139 66.35279 73.27419 76.835597 83.756999 87.3184 94.2398 97.8012 60.56941 67.49081 74.41221 77.97361 84.89501 88.45641 95.377819 98.93922">13.4.3.513.4.3.5</tspan><tspan y="-214.9565" x="59.43139 66.35279 73.27419 76.835597 83.756999 87.3184 94.2398 97.8012 60.56941 67.49081 74.41221 77.97361 84.89501 88.45641 95.377819 98.93922">13.4.3.513.4.3.5</tspan><tspan y="-214.7985" x="60 66.9214 73.842807 77.404209 84.32561 87.88701 94.80841 98.36981">13.4.3.5</tspan><tspan y="-214.6405" x="108.158008 116.0547 122.901409 129.1181 134.7048 138.1915 144.4082 147.8949 153.4816 158.0283 165.085 170.6717 174.1584 107.843 115.7397 122.5864 128.8031 134.3898 137.8765 144.0932 147.5799 153.1666 157.7133 164.77 170.3567 173.8434">Abscisic acidAbscisic acid</tspan><tspan y="-214.9565" x="108.158008 116.0547 122.901409 129.1181 134.7048 138.1915 144.4082 147.8949 153.4816 158.0283 165.085 170.6717 174.1584 107.843 115.7397 122.5864 128.8031 134.3898 137.8765 144.0932 147.5799 153.1666 157.7133 164.77 170.3567 173.8434">Abscisic acidAbscisic acid</tspan><tspan y="-214.7975" x="108.001 115.8977 122.7444 128.9611 134.5478 138.0345 144.2512 147.7379 153.3246 157.8713 164.92801 170.51471 174.0014">Abscisic acid</tspan></text>
<text fill="#231f20" xml:space="preserve" transform="matrix(1 0 -0 1 -18 802.8)" font-size="10.5" font-family="Bookman"><tspan y="-193.1985" x="60.001 67.24199 72.80298 75.43898 85.40997 90.97096 98.00195 102.09294 105.34393 111.32492 118.35591 123.9169 130.5279 133.16388 138.72487 144.91587 149.63686 152.88785 156.13884 161.69983 165.841">As mentioned earlier,</tspan></text>
<text fill="#231f20" xml:space="preserve" transform="matrix(1 0 -0 1 -18 802.8)" font-size="10.5" font-family="Bookman"><tspan y="-193.1985" x="169.201"> </tspan></text>
<text fill="#231f20" xml:space="preserve" transform="matrix(1 0 -0 1 -18 802.8)" font-size="10.5" font-family="Bookman"><tspan y="-193.1985" x="172.321 178.5193 185.1376 190.7059 196.2742 199.5325 205.1008 208.3591 213.9274 216.5457 222.744 228.3123 231.5706">abscisic acid</tspan></text>
<text fill="#231f20" xml:space="preserve" transform="matrix(1 0 -0 1 -18 802.8)" font-size="10.5" font-family="Bookman"><tspan y="-193.1985" x="238.08101 241.0477 244.7544 252.66109 260.56779 268.47447 272.18116"> (ABA) </tspan></text>
<text fill="#231f20" xml:space="preserve" transform="matrix(1 0 -0 1 -18 802.8)" font-size="10.5" font-family="Bookman"><tspan y="-193.1985" x="274.801 283.08369 289.26637 294.81907 297.43177 304.03446 307.27714 312.82984 318.38255 324.35523 329.90794 335.46064 340.32099 345.87098 352.47096 355.08094 358.5309 364.50093 369.2109 371.8209 375.06089 379.14088 384.69087 387.30085 392.158 398.13999 401.392 406.954 409.57603 412.82804">was discovered for its role in</tspan><tspan y="-177.5985" x="60.001 64.7237 70.2864 76.0591 83.301799 86.5545 92.7472 96.8399 100.0926 107.1253 112.897998 116.20069 122.393398 129.00609 134.56879 140.13149 143.38419 148.94689 154.50959 157.76229 163.74498 170.77768 174.08039 180.27309 187.30579 193.91849 197.22119 203.8339 209.81659 214.53929 224.512 230.7047 237.7374 243.3001 249.0728 252.5355 255.83821 263.7109 270.9536 275.04634 278.34904 281.6017 284.8544 291.4671 297.02983 300.33253 306.31523 310.40794 317.44065 323.00337 327.72605 331.02876 337.64146 346.14418 353.80686 359.36958 362.83229 366.13499 369.38768 373.48039 376.78309 382.97578 386.22846 391.79118 397.77388 401.07658 408.10929 414.30198">regulating abscission and dormancy. But like other PGRs, it also has</tspan><tspan y="-161.9985" x="60.001 65.86921 69.84742 76.76563 82.213848 86.82205 89.33278 97.51099 100.64919 107.1474 112.59561 115.10634 119.71455 125.792758 132.71097 138.36917 141.50739 148.4256 154.0838 156.59452 162.04273 165.39093 168.73914 174.18735 179.63556 183.61377 189.06198 191.5727 197.4409 204.35912 206.86983 213.36804 216.50626 222.58448 229.50269 233.4809 235.99161 241.64981 246.25803 252.12624 260.30445 264.28266 271.20088 273.71159 279.7898 286.708 293.2062 295.71693 302.21513 307.66334 313.11155 318.55976 321.69798 327.5662 334.0644 343.9226 349.37083 356.28904 360.26725 363.61546 366.12617 369.68437 373.66258 376.17329 382.2515 387.6997 391.67793 397.12614 399.63685 405.71507 411.16328 413.67399">other wide ranging effects on plant growth and development. It acts as a</tspan><tspan y="-146.3985" x="60.001 65.77649 71.34198 78.37747 83.94296 88.66846 94.863948 98.11944 101.94602 108.561519 111.81701 118.0125 125.04799 129.14348 132.97005 138.74555 143.47104 149.45653 157.75202 161.8475 168.883 172.70957 175.96506 183.00055 190.03604 193.29154 199.90703 203.16252 207.25801 213.2435 217.969 221.79557 227.99106 235.02655 241.64205 245.46862 251.66411 258.6996 262.52616 265.78166 272.81715 279.85264 283.10813 289.7236 292.9791 297.0746 303.0601 307.78559 311.61216 317.59767 321.06315 324.8897 331.5052 334.76069 340.95619 347.99168 352.08717 355.91374 365.88923 371.4547 375.5502 381.7457 388.36119 394.34669 397.60218 400.85768 406.42317 416.39866">general plant growth inhibitor and an inhibitor of plant metabolism.</tspan><tspan y="-130.7985" x="60.001 67.2446 75.118198 82.36179 85.08099 88.334598 95.368198 102.401798 105.655399 112.269 115.5226 119.616199 125.179798 127.899 133.4626 139.0262 144.5898 151.2034 153.92259 159.6962 165.2598 169.9834 179.957 183.2106 190.2442 196.4378 200.5314 203.785 209.7686 216.8022 220.26581 222.985 230.2286 238.1022 245.34581 248.06502 253.62862 257.72224 260.97584 270.94944 278.19303 281.44664 287.64024 291.73384 297.29743 302.86103 305.5802 309.6738 316.7074 322.271 324.99018 330.55378 333.80738 339.791 345.35459 352.59819 357.32179 362.88539 365.60456 371.58818 375.05177 377.77095 383.33454 387.42814 393.41175 403.38536 409.57896 413.67256">ABA inhibits seed germination. ABA stimulates the closure of stomata</tspan><tspan y="-115.198497" x="60.001 66.19399 73.22698 79.83997 84.97797 88.23096 95.26395 100.826938 105.54993 111.112918 117.30591 122.8689 128.43189 133.99488 139.13288 143.22586 150.25885 155.82184 160.95984 165.05283 171.03582 174.2888 179.85179 184.57479 190.76778 197.80077 203.36376 208.92675 214.06475 220.04773 223.51073 228.64873 235.26172 238.51471 244.7077 251.74069 255.83368 261.39668 266.53465 270.62763 276.61064 281.7486 287.31159 293.50459 298.22758 301.48057 307.46357 314.70655 320.26954 325.4075 332.02049 335.27348 342.30647 348.91944 354.48243 359.6204 365.6034 369.06639 374.20436 379.76734 383.86033 388.5833 394.1463 399.7093 405.27229 410.83528 416.39826">and increases the tolerance of plants to various kinds of stresses.</tspan><tspan y="-99.598499" x="60.001 66.58889 73.59678 79.13467 83.83256 89.370449 92.808338 98.76623 103.46412 109.00201 112.439899 115.04148 118.26937 122.337268 124.93885 128.16675 133.70464 136.30623 142.47412 145.70201 151.2399 157.19779 159.79938 165.33727 171.50516 174.73305 177.96094 183.49883 190.08672 192.68831 196.7562 203.76409 209.30197 211.90357 217.44145 221.50934 226.20723 231.74512 237.283 242.82089 245.42249 252.43038 258.38829 263.08616 273.03407 278.99195 285.99986 291.53776 294.97566 297.57725 304.79515 312.64305 319.86094 322.46253 329.0504 332.27833 338.4462 344.1941 349.732 352.3336 358.50148 365.50938 368.11097 371.33888 381.28675 387.87464 393.83253 398.5304 402.5983 408.76618 415.77409">Therefore, it is also called the stress hormone. ABA plays an important</tspan></text>
<g clip-path="url(#clip_3379)">
<text xml:space="preserve" transform="matrix(1 0 -0 1 259.314 763.9998)" font-size="8" font-family="Arial"><tspan y="6.316" x="0"> </tspan></text>
</g>
</g>
</svg>
