<svg xmlns="http://www.w3.org/2000/svg" xmlns:xlink="http://www.w3.org/1999/xlink" xmlns:inkscape="http://www.inkscape.org/namespaces/inkscape" version="1.1" width="576" height="784.8" viewBox="0 0 576 784.8">
<defs>
<clipPath id="clip_862">
<path transform="matrix(1,0,0,-1,-18,802.8)" d="M18 18H594V802.8H18Z" clip-rule="evenodd"/>
</clipPath>
<clipPath id="clip_863">
<path transform="matrix(1,0,0,-1,259.314,763.9998)" d="M0-8H57.372V.800049H0Z"/>
</clipPath>
</defs>
<g clip-path="url(#clip_862)">
<path transform="matrix(.23999998,0,0,-.23999998,-18,802.8)" d="M2 2H2548V214.67H2Z" fill="#cbdf7f" fill-rule="evenodd"/>
<path transform="matrix(.23999998,0,0,-.23999998,-18,802.8)" stroke-width="4" stroke-linecap="butt" stroke-miterlimit="1000" stroke-linejoin="miter" fill="none" stroke="#cbdf7f" d="M2 2H2548V214.67H2Z"/>
<path transform="matrix(.23999998,0,0,-.23999998,-18,802.8)" d="M0 3035.83H2550V3372.7003H0Z" fill="#d1d3d4" fill-rule="evenodd"/>
<path transform="matrix(.23999998,0,0,-.23999998,-18,802.8)" d="M0 3078.33H2550V3420H0Z" fill="#e1ecb6" fill-rule="evenodd"/>
<path transform="matrix(.23999998,0,0,-.23999998,62.63616,53.635194)" d="M0 0C7.32 7.32 16.16 10.98 26.52 10.98H97.35C107.7 10.98 116.54 7.32 123.87 0 131.19-7.32 134.85-16.16 134.85-26.52V-101.52C134.85-111.88 131.19-120.72 123.87-128.04 116.54-135.36 107.7-139.02 97.35-139.02H26.52C16.16-139.02 7.32-135.36 0-128.04-7.32-120.72-10.98-111.88-10.98-101.52V-26.52C-10.98-16.16-7.32-7.32 0 0" fill="#ffffff" fill-rule="evenodd"/>
<text fill="#231f20" xml:space="preserve" transform="matrix(1 0 -0 1 -18 802.8)" font-size="11" font-family="Bookman"><tspan y="-729.196" x="86.9048 93.8812 100.857608 87.331409 94.30781 101.28421">126126</tspan><tspan y="-729.526" x="86.9046 93.881008 100.85741 87.331409 94.30781 101.28421">126126</tspan><tspan y="-729.361" x="87.12 94.096408 101.07281 513.12">126B</tspan></text>
<text fill="#231f20" xml:space="preserve" transform="matrix(1 0 -0 1 -18 802.8)" font-size="7.69999" font-family="Bookman"><tspan y="-729.361" x="521.04 523.3687 529.3087 533.6779 539.6179 545.5579">IOLOGY</tspan></text>
<path transform="matrix(.23999998,0,0,-.23999998,-18,.35998536)" stroke-width="1" stroke-linecap="butt" stroke-miterlimit="10" stroke-linejoin="miter" fill="none" stroke="#000000" d="M0 0H60"/>
<path transform="matrix(.23999998,0,0,-.23999998,.12000084,-18)" stroke-width="1" stroke-linecap="butt" stroke-miterlimit="10" stroke-linejoin="miter" fill="none" stroke="#000000" d="M0 0V-60"/>
<path transform="matrix(.23999998,0,0,-.23999998,-18,784.68)" stroke-width="1" stroke-linecap="butt" stroke-miterlimit="10" stroke-linejoin="miter" fill="none" stroke="#000000" d="M0 0H60"/>
<path transform="matrix(.23999998,0,0,-.23999998,.12000084,788.16)" stroke-width="1" stroke-linecap="butt" stroke-miterlimit="10" stroke-linejoin="miter" fill="none" stroke="#000000" d="M0 0V-60"/>
<path transform="matrix(.23999998,0,0,-.23999998,593.64,784.56)" stroke-width="1" stroke-linecap="butt" stroke-miterlimit="10" stroke-linejoin="miter" fill="none" stroke="#000000" d="M0 0V-75"/>
<text fill="#00aeef" xml:space="preserve" transform="matrix(1 0 -0 1 -18 802.8)" font-size="12" font-family="Bookman"><tspan y="-687.9" x="191.26 199.6176 207.9752 212.6608 221.0184 225.704 193.21759 201.5752 209.9328 214.6184 222.976 227.66159">10.4.110.4.1</tspan><tspan y="-688.261" x="191.26039 199.618 207.9756 212.6612 221.0188 225.70439 193.21759 201.5752 209.9328 214.6184 222.976 227.66159">10.4.110.4.1</tspan><tspan y="-688.081" x="192.24 200.59761 208.95522 213.64081 221.99842 226.684">10.4.1</tspan><tspan y="-687.9" x="240.42 251.77429 258.24458 262.02687 268.98915 275.4594 279.2417 285.71199 291.73426 240.065 251.4193 257.8896 261.67189 268.63417 275.10444 278.88673 285.357 291.37928">Meiosis IMeiosis I</tspan><tspan y="-688.261" x="240.42 251.77429 258.24458 262.02687 268.98915 275.4594 279.2417 285.71199 291.73426">Meiosis I</tspan><tspan y="-688.26058" x="240.0652 251.4195 257.88978 261.67207 268.63435 275.1046 278.8869 285.35719 291.37947">Meiosis I</tspan><tspan y="-688.08059" x="240.2402 251.5945 258.0648 261.84709 268.80937 275.27964 279.06193 285.5322 291.55448">Meiosis I</tspan></text>
<text fill="#231f20" xml:space="preserve" transform="matrix(1 0 -0 1 -18 802.8)" font-size="10.5" font-family="Bookman"><tspan y="-668.00259" x="192.3972 199.04381 203.7584 209.76451 216.41112 223.48822 229.70432 235.27993 240.85553 243.43912 247.08272 192.0822 198.7288 203.4434 209.44951 216.09612 223.17322 229.38932 234.96492 240.54053 243.12412 246.76772">Prophase I:Prophase I:</tspan><tspan y="-668.31759" x="192.3972 199.04381 203.7584 209.76451 216.41112 223.48822 229.70432 235.27993 240.85553 243.43912 247.08272 192.0822 198.7288 203.4434 209.44951 216.09612 223.17322 229.38932 234.96492 240.54053 243.12412 246.76772">Prophase I:Prophase I:</tspan><tspan y="-668.15957" x="192.2402 198.88681 203.60141 209.60752 216.25412 223.33123 229.54732 235.12293 240.69853 243.28212 246.92572 250.32019 252.85689 259.4566 264.1243 270.0835 276.6832 283.7134 289.8826 295.4113 300.93998 303.47666 309.43586 312.82255 315.35923 319.3864 326.41664 331.9453 334.482 337.86869 341.04539 345.71308 351.24177 355.26896 357.80564 367.82835 373.35704 376.53373 382.49293 386.5201 389.6968 395.2255 397.76219 404.36189 407.53858 413.06727 416.24397 421.77265 424.94935 430.90855 437.93876 440.47544 443.65214 449.18083 451.7175 455.7447 461.4834 468.0831 471.2598 476.78849 482.95768 486.13438 489.31108 495.04978 497.58647 500.76316 506.72236 513.75259 519.4913 525.01998 529.6877 532.2244 538.3936 545.4238">Prophase I: Prophase of the first meiotic division is typically longer and</tspan><tspan y="-654.00057" x="192.2402 202.09111 207.87851 212.3744 217.73131 220.0962 225.45311 231.24051 241.09142 247.51932 250.52422 255.88112 261.66853 264.03343 272.17283 279.03123 284.38813 291.24653 293.61143 298.96833 304.75575 314.60664 321.03453 327.03193 331.52784 336.88475 343.31263 345.67753 349.53294 355.32035 357.68525 364.11314 368.60905 374.39646 380.82435 387.68275 393.68016 399.03706 404.39396 406.75886 412.54627 415.76118 418.12608 427.97697 430.98188 434.83729 440.6247 445.9816 448.9865 454.3434 457.55833 459.92323 463.3481 467.20353 469.56843 476.42683 482.42424 487.78114 490.14604 496.5739 501.93083 507.28773 514.1461 516.51107 519.72598 526.7944 531.2903 535.1457 542.0041 547.36099">more complex when compared to prophase of mitosis. It has been further</tspan><tspan y="-640.0796" x="192.2402 197.97171 205.4147 212.21721 219.01972 222.39922 228.13072 231.51023 238.31273 244.04424 250.84674 256.13624 259.51573 266.74873 270.97874 277.14073 282.4302 286.66023 293.89323 299.62474 304.9142 308.50373 314.6657 318.0452 321.42469 327.58668 336.10069 339.48017 346.71318 352.65467 357.94416 361.53367 364.91316 370.64466 376.37617 381.66566 388.46815 395.70115 402.07316 407.80467 413.53617 419.26768 424.55717 431.35966 437.73167 443.46318 449.19468 455.99717 461.28666 467.44865 474.68165 479.97114 485.70265 492.93565 497.80616 503.96815 514.19369 520.35568 526.08718 532.24917 542.4747 548.8467">subdivided into the following five phases based on chromosomal</tspan><tspan y="-626.15957" x="192.2402 198.59111 203.87102 210.65242 216.57283 221.85274 224.78066 230.49106 237.48247 240.4802 243.6127 245.8952 248.8177 251.95021 257.2247 260.3572 263.48973 265.77223 272.4002 277.67143 284.01365 287.78337 293.48509 297.2548 302.526 309.2987 314.56993 317.69914 319.97834 326.53056 332.01176 337.49296 343.19468 346.9644 352.2356 359.0083 364.2795 367.40873 369.68794 376.03016 381.94187 387.21308 393.98579 399.46699 403.2367 408.5079 415.2806 420.55183 423.68104 425.96025 434.22395 437.14317 443.48539 446.4046 452.10633 455.87605 461.14726 467.91996 473.19117 475.47038 481.38209 488.1548 494.497 496.7762 505.03993 507.95915 513.87088 520.2131 523.13229 529.90499 535.1762 540.44747 543.36666 548.6379">behaviour, i.e., Leptotene, Zygotene, Pachytene, Diplotene and Diakinesis.</tspan><tspan y="-612.00057" x="210.2402 218.8258 226.1304 230.8625 234.1036 241.19821 247.00131">During </tspan><tspan y="-611.84158" x="249.7582 253.04358 258.68098 265.38938 269.52528 275.59318 279.72908 285.36647 292.50535 298.14274 249.44562 252.731 258.3684 265.0768 269.2127 275.2806 279.4165 285.0539 292.19279 297.83018">leptotene leptotene </tspan><tspan y="-612.15658" x="249.7582 253.04358 258.68098 265.38938 269.52528 275.59318 279.72908 285.36647 292.50535 298.14274 249.44562 252.731 258.3684 265.0768 269.2127 275.2806 279.4165 285.0539 292.19279 297.83018">leptotene leptotene </tspan><tspan y="-612.00057" x="249.60019 252.88558 258.52296 265.23136 269.36726 275.43516 279.57106 285.20845 292.34733 297.9847 300.7202 306.30973 310.39775 316.62776 322.42726 328.01676 330.61427 334.70228 341.79328 347.38279 349.9803 355.5698 362.6608 367.38929 373.40928 383.49278 389.51277 395.10227 401.12226 411.20576 416.79527 422.38478 424.98228 431.64277 437.23228 442.82179 448.84178 458.92527 464.51478 467.11228 472.91178 477.64027 483.87028 490.53077 497.83177 504.06178 507.29927 510.53675 516.33627 518.9338 524.52328 527.76077 533.3502 536.5877 543.2482 546.4857">leptotene stage the chromosomes become gradually visible</tspan><tspan y="-598.07858" x="192.2402 199.41242 206.37462 212.90633 218.36704 222.96675 225.43546 229.39467 236.35688 241.81758 244.28629 247.39499 250.5037 256.1744 263.13664 267.09584 269.5645 279.51924 282.62794 288.08866 292.68836 298.57957 304.04029 309.501 315.3922 321.92393 327.38465 330.70335 333.17204 339.70375 346.66596 352.12669 354.59538 360.0561 365.9473 375.902 382.43373 388.5349 393.99565 397.95484 401.06355 406.95475 413.91697 416.38566 422.27687 425.59556 428.06425 433.52497 440.48719 445.08689 450.9781 460.9328 466.824 472.28474 478.17594 488.13066 493.59138 499.0521 501.52079 506.9815 512.87277 519.83499 523.7942 526.9029 533.8651 541.0373 546.498">under the light microscope. The compaction of chromosomes continues</tspan><tspan y="-584.15859" x="192.2402 196.2971 203.35701 208.05442 214.04332 221.31322 227.08162 234.14153 240.13043 247.40033 251.45723 254.02362 257.23 262.78843 269.41783 273.47474 279.46363 283.5205 289.07893 296.13883 301.69725 305.11366 307.68006 314.30946 321.36936 324.57575 330.13417 332.70057 335.90696 341.46537 344.03178 347.44819 353.43708 356.64347 359.84986 365.83876 374.17967 379.73808 386.36747 388.93388 395.56327 401.33168 403.89808 407.95497 415.01487 420.57328 423.13969 428.6981 434.2565 439.8149 445.8038 452.8637 459.4931 462.0595 467.61793 471.6748 477.87373 483.64213 489.20054 491.76695 497.75584 501.17225 503.73866 510.36805 515.0654 521.0543 527.6837 534.7436 540.9425 546.5009">throughout leptotene. This is followed by the second stage of prophase</tspan><tspan y="-570.00057" x="192.2402 196.1021 201.45398 207.24787 213.68225 217.12415 220.56604 226.35993 233.22481">I called </tspan><tspan y="-569.8406" x="238.95819 244.39629 250.47489 256.5535 262.8526 267.2197 273.0883 280.45838 238.64646 244.08455 250.16315 256.24177 262.54087 266.90797 272.77656 280.14665">zygotenezygotene</tspan><tspan y="-570.1556" x="238.95819 244.39629 250.47489 256.5535 262.8526 267.2197 273.0883 280.45838 238.64646 244.08455 250.16315 256.24177 262.54087 266.90797 272.77656 280.14665">zygotenezygotene</tspan><tspan y="-570.00057" x="238.8002 244.2383 250.3169 256.3955 262.6946 267.0617 272.9303 280.30039 286.0802 289.7591 295.13798 303.95137 311.48377 316.44367 319.91258 327.23497 333.26588 338.64476 342.96415 350.28654 353.75544 359.57633 364.9552 370.7761 375.0955 381.5569 387.5878 393.3602 396.7202 402.0991 407.91999 415.24238 420.20228 426.45368 436.7686 443.02 448.84089 455.0923 465.4072 471.2281 477.04899 482.42787 488.24876 492.56816 499.02955 503.98945 508.30885 513.68777 520.57968 527.0411 530.50997 535.46987 538.9387 546.2611">zygotene. During this stage, chromosomes start pairing</tspan><tspan y="-556.0776" x="192.2402 196.24301 202.17781 207.8921 213.39641 217.3992 224.405 229.9093 234.5526 237.0649 243.2097 250.2155 256.7908 259.3031 263.3059 270.3117 273.46403 278.96833 281.48063 288.0559 292.69923 298.63404 304.13835 309.64265 315.14695 320.65126 323.16355 329.09837 332.46067 334.97297 341.11778 346.62208 352.12638 358.0612 363.5655 366.7178 372.8626 376.86543 380.01774 385.95256 392.95835 395.47065 398.62297 404.12727 406.63957 412.14387 418.28868 421.44099 424.5933 430.0976 436.67289 439.18519 444.68949 450.40379 457.40959 463.55439 470.12968 475.63398 478.7863 484.2906 487.6529 490.1652 497.171 504.38679 509.89109 516.8969 519.40927 525.98458 532.12936 535.2816 539.9249 545.4292">together and this process of association is called synapsis. Such paired</tspan><tspan y="-542.1576" x="192.2402 198.41289 206.08708 211.39878 218.00197 228.66866 235.27185 241.44454 248.04773 258.71443 264.88713 271.0598 276.7905 283.6037 288.91539 295.08808 300.81877 306.99147 313.80467 317.62535 321.446 327.6187 334.8624 340.59309 348.26728 354.87046 365.53715 372.14033 375.961 382.56419 388.94688 395.55006 403.43424 409.60694 415.33763 421.5103 429.1845 434.4962 441.09938 451.76606 458.36924 464.54194 471.1451 481.8118 487.9845 494.1572 498.1879 503.91859 512.2333 516.05398 522.2266 528.3993 533.0705 538.3822 544.9854">chromosomes are called homologous chromosomes. Electron</tspan><tspan y="-528.0006" x="192.2402 202.4575 205.82881 211.55211 216.41442 222.5682 228.50151 233.36382 239.72762 246.52191 253.7467 259.47 264.75129 270.9051 274.4864 279.76768 283.98948 291.21427 294.58558 300.30888 305.59016 311.31346 315.53526 321.89906 327.83235 333.3602 336.9602 342.2389 345.60758 352.82978 359.62147 362.99015 368.71086 375.07203 379.2912 385.0119 390.2906 394.50978 401.73197 408.09315 412.31233 417.591 423.3117 430.5339 435.3936 441.54478 451.75947 457.91065 463.63136 469.78254 479.99723 485.71794 490.9966 496.71733 502.648 509.8702 516.2314 523.0231 528.7438 532.1125 537.8332 543.1119 546.4806">micrographs of this stage, indicate that chromosome synapsis is</tspan><tspan y="-514.0776" x="192.2402 199.24179 205.60288 211.96396 218.75556 229.61064 237.04273 244.04431 251.9069 255.916 262.2771 269.7092 275.62828 283.06037 289.63145 295.5505 300.4101 308.27268 314.63377 320.55284 324.7719 331.5635 337.0636 347.9187 354.9203 359.77989 363.78898 370.58058 378.44316 384.3622 391.1538 395.3729 401.29197 407.65306 414.44465 425.29975 432.73185 436.74095 443.10203 449.89363 455.81269 462.17378 467.03337 472.53346 480.60606 486.96714 491.82673 499.89933 505.3994 511.7605 517.6796 524.0407 531.0423 535.0514 539.0605 545.4216">accompanied by the formation of complex structure called</tspan><tspan y="-500.00059" x="192.3982 198.10138 204.01457 211.21927 217.56296 224.33715 228.53884 234.67253 241.87723 247.58042 257.77763 264.1213 267.4725 271.73368 277.43687 283.57057 293.76777 300.54197 303.89317 309.59635 315.73005 192.08319 197.78638 203.69957 210.90427 217.24796 224.02214 228.22383 234.35753 241.56223 247.26541 257.46263 263.8063 267.1575 271.41868 277.12187 283.25556 293.45277 300.22697 303.57817 309.28135 315.41505">synaptonemal complex.synaptonemal complex.</tspan><tspan y="-500.31459" x="192.3982 198.10138 204.01457 211.21927 217.56296 224.33715 228.53884 234.67253 241.87723 247.58042 257.77763 264.1213 267.4725 271.73368 277.43687 283.57057 293.76777 300.54197 303.89317 309.59635 315.73005 192.08319 197.78638 203.69957 210.90427 217.24796 224.02214 228.22383 234.35753 241.56223 247.26541 257.46263 263.8063 267.1575 271.41868 277.12187 283.25556 293.45277 300.22697 303.57817 309.28135 315.41505">synaptonemal complex.synaptonemal complex.</tspan><tspan y="-500.15657" x="192.2412 197.94438 203.85758 211.06227 217.40596 224.18015 228.38184 234.51554 241.72023 247.42342 257.6206 263.9643 267.3155 271.57667 277.27986 283.41355 293.61076 300.38496 303.73616 309.43934 315.57304 318.96119 323.1996 329.91978 337.07048 342.71968 346.95808 352.60728 358.68696 368.83015 375.55033 378.8475 384.4967 390.5764 394.8148 398.322 404.40168 409.18986 419.33305 424.98225 431.70243 435.94084 442.661 448.5202 452.7586 459.0483 463.2867 470.0069 476.2966 479.59379 484.38197 488.62037 494.70005 498.20726 502.44566 508.09486 513.95407 521.10476 527.3944 534.1146 539.7638 545.41299">synaptonemal complex. The complex formed by a pair of synapsed</tspan><tspan y="-486.00059" x="192.2412 199.3899 205.46759 215.60878 221.68647 224.98166 231.05936 236.91655 242.99423 250.35292 256.00013 259.9053 265.5525 272.70118 277.48738 283.56507 293.70628 299.78398 305.43116 311.50886 321.65007 327.29725 332.94444 336.8496 340.1448 345.792 349.69718 355.34437 361.63206 364.92726 368.22245 373.86964 380.58784 384.493 390.7807">homologous chromosomes is called a </tspan><tspan y="-485.83857" x="394.9592 401.735 405.08778 410.79258 417.13786 420.49064 426.19544 433.40174 394.639 401.4148 404.76759 410.47239 416.81767 420.17045 425.87525 433.08155">bivalentbivalent</tspan><tspan y="-486.15357" x="394.9592 401.735 405.08778 410.79258 417.13786 420.49064 426.19544 433.40174 394.639 401.4148 404.76759 410.47239 416.81767 420.17045 425.87525 433.08155">bivalentbivalent</tspan><tspan y="-486.00059" x="394.8012 401.577 404.92979 410.63459 416.97987 420.33265 426.03746 433.24375 437.2812 441.18818 447.26768 452.05567 455.96266 462.25215 466.15913 470.3066 475.9556 480.1031 484.89109 491.18058 497.90058 501.40757 505.31455 513.6012 519.7011 528.153 533.8224 539.49179 545.16116 548.64126">bivalent or a tetrad. However,</tspan><tspan y="-472.07557" x="192.2412 196.39209 203.54598 209.19837 214.85076 220.50315 223.25583 229.54872 234.34012 239.99251 242.7452 252.89159 258.9745 263.76588 269.41828 272.17097 277.82337 281.12376 286.77616 293.06904 297.8604 301.1608 307.0232 309.77589 315.42829 318.72868 324.38108 327.68147 334.40486 337.70524 343.35765 346.11033 352.4032 356.55409 359.30677 363.45765 370.61155 376.26396 379.01664 386.17054 391.82295 397.90583 402.0567 404.8094 410.4618 414.61268 420.90556 426.76795 432.42036 435.93074 438.6834 445.4068 452.5607 458.2131 460.9658 464.47618 467.77656 472.56794 478.22035 482.37123 485.1239 489.27479 497.70967 503.79255 506.54524 512.19766 516.3485 522.6414 528.5038 534.1562 539.8086 542.5613 548.64419">these are more clearly visible at the next stage. The first two stages of</tspan><tspan y="-458.15559" x="192.2412 198.9044 203.6356 209.65831 216.32152 223.41522 229.64792 235.24011 240.8323 243.4325 247.0927 249.69289 255.92559 260.65678 266.24897 268.84916 273.58036 279.17256 282.41276 288.64546 292.73616 295.97636 301.56855 307.16075 310.40095 316.20314 318.8033 324.3955 331.4892 337.5119 342.2431 346.3338 350.645 353.8852 357.1254 362.7176 368.30979 374.973 377.57319 383.16539 389.18809 399.2743 405.9375 412.1702 416.9014 422.4936 429.1568 431.757 435.8477 441.8704 444.47059 448.56129 455.65498 461.24717 463.84736 470.94105 476.53324 482.55595 486.64665 489.24684 494.83903 498.92973 505.1624 510.9646 516.5568 519.15707 523.24777 530.34146 536.57418 540.66488 543.2651 546.50527">prophase I are relatively short-lived compared to the next stage that is</tspan><tspan y="-443.8376" x="192.3992 199.18999 205.55028 211.27007 218.49135 224.42115 228.63944 234.35923 241.5805 192.0842 198.87499 205.23528 210.95507 218.17635 224.10614 228.32444 234.04422 241.2655">pachytenepachytene</tspan><tspan y="-444.1526" x="192.3992 199.18999 205.55028 211.27007 218.49135 224.42115 228.63944 234.35923 241.5805 192.0842 198.87499 205.23528 210.95507 218.17635 224.10614 228.32444 234.04422 241.2655">pachytenepachytene</tspan><tspan y="-444.00059" x="192.2422 199.03299 205.39328 211.11307 218.33435 224.26415 228.48244 234.20223 241.42351 246.96219 250.47219 255.01548 263.65998 271.02348 275.81446 279.11445 286.26795 292.12995 296.67326 300.82377 307.97727 311.27726 316.92927 321.47257 327.12458 331.2751 337.5676 343.4296 349.2022 352.5622 357.12019 361.16758 368.21797 373.76686 378.22373 381.6306 387.61003 394.8704 399.5583 404.01518 409.56407 416.61445 421.30235 427.28175 437.32463 443.514 447.5614 450.7583 457.3782 462.9271 467.38398 473.36338 476.77027 481.22715 486.77604 492.96543 498.5143 505.5647 509.7622 516.5038 519.8224 525.493 531.8041 535.1227 540.7933 547.9654">pachytene. During this stage, the four chromatids of each bivalent</tspan><tspan y="-430.0746" x="192.2422 197.89711 205.05352 209.84741 215.93282 226.08171 232.16712 237.82202 243.90743 254.05632 259.7112 265.36613 269.7622 276.3778 281.9224 287.46699 293.44209 303.48069 309.02528 314.56986 318.98905 325.60466 328.79725 334.34184 338.38493 341.5775 348.6236 354.16819 358.21128 362.63047 368.81556 375.86164 382.47724 386.8822 392.5372 395.84019 401.49519 407.79069 412.58467 415.88764 421.75263 426.29063 432.58613 439.3121 446.0381 451.69309 457.9886 462.78257 467.32057 473.61607 479.27107 483.80906 487.96257 493.61756 497.77107 502.56504 508.86054 515.58657 521.2415 524.7545 529.2925 536.0185 543.175 546.47799">chromosomes becomes distinct and clearly appear as tetrads. This</tspan><tspan y="-416.15458" x="192.2422 197.89409 202.04448 208.33687 214.19876 219.85065 223.51683 226.81673 232.46862 236.1348 241.78668 248.94008 255.23247 260.02336 266.31575 271.96763 276.118 281.7699 286.5608 289.8607 295.51258 301.16447 307.88737 311.55354 318.27644 324.1383 327.80448 331.95487 339.10826 344.76014 348.4263 354.7187 361.4416 368.1645 373.81639 380.10877 384.89967 391.19206 398.34544 403.9973 409.6492 413.31538 419.39778 422.90766 426.57383 431.36473 437.0166 442.6685 448.7509 458.8968 465.6197 468.9196 476.07298 482.36537 486.51576 489.81565 495.89805 503.05143 506.7176 513.871 519.95339 526.6763 534.0397 537.33956 542.99148 548.6434">stage is characterised by the appearance of recombination nodules,</tspan><tspan y="-402.00059" x="192.2422 196.2991 203.35901 208.9174 211.4838 217.04219 220.2486 224.3055 229.86389 235.42229 237.98868 244.18758 248.24448 250.81087 259.15177 266.21168 269.41807 274.97648 282.03639 284.60279 290.1612 294.85859 300.84748 306.40589 311.9643 315.1707 322.2306 327.999 330.5654 336.5543 342.1127 347.6711 352.3685 354.9349 360.9238 366.4822 372.04063 379.31053 384.0079 389.5663 392.13273 398.76213 404.32054 408.37745 416.71836 422.27677 427.83518 434.89509 437.4615 444.5214 450.51029 457.5702 461.8476 467.406 470.6124 476.1708 480.22773 485.78614 490.48353 493.04994 498.60835 505.66825 510.36564 516.35458 526.407 532.6059 536.6628 539.8692 546.4986">the sites at which crossing over occurs between non-sister chromatids</tspan><tspan y="-388.0746" x="192.2422 198.32039 201.82608 206.21508 210.36127 217.51045 223.15814 227.54714 234.69632 240.7745 250.9162 256.9944 260.29008 266.36827 272.22596 278.30415 285.66334 291.31105 295.7 301.34773 308.49693 313.2836 319.3618 329.50349 335.58168 341.22938 347.30757 357.44926 363.09696 368.74467 372.25035 376.6393 384.639 389.4257 395.50389 401.15159 406.7993 410.09498 417.24418 423.10188 427.49085 433.56904 439.21675 444.86445 449.65113 454.0401 457.3358 462.9835 467.37248 471.51866 478.66786 484.31556 488.70454 494.35224 500.43043 506.07814 513.2273 519.5155 526.6647 532.52236 538.17007 542.559 548.6372">of the homologous chromosomes. Crossing over is the exchange of</tspan><tspan y="-374.15458" x="192.2422 197.9314 203.4106 210.3913 215.8705 219.8482 222.9754 228.4546 230.9418 240.91501 247.03472 251.01242 256.4916 261.1098 264.237 270.3567 273.4839 275.97108 282.52128 288.00047 291.97816 300.23985 305.71903 311.1982 318.17893 320.6661 324.6438 332.9055 338.8152 341.30238 348.28309 354.19279 364.166 370.07569 373.20289 379.11259 384.8018 390.7115 397.9022 403.38139 405.86857 411.34776 418.32847 422.94667 428.85636 438.82957 444.73927 450.21846 456.12815 466.10136 471.58055 477.05973 480.3969 482.8841 490.7153 495.3335 501.2432 506.72239 512.2016 515.3288 522.3095 527.9987 530.48599 536.3957 541.8749 547.35409">genetic material between two homologous chromosomes. Crossing over</tspan><tspan y="-360.00059" x="192.2422 195.4897 201.08919 203.69667 209.93666 213.18416 218.78365 224.81363 227.42111 233.6611 240.76209 243.36957 248.96906 256.07005 261.239 267.0485 277.14198 282.74147 287.05995 297.1534 302.7529 309.4234 312.6709 318.9109 323.00889 328.60838 335.27888 337.88636 344.55686 349.29536 355.32536 360.92485 366.52433 372.1238 377.7233 380.33079 386.57078 393.67176 400.34226 402.94975 407.04774 414.1487 419.7482 422.35569 427.95518 435.05616 440.22514 446.0346 456.12809 461.72758 464.33506 467.58256 474.68354 480.28303 486.31303 489.56053 495.16 500.7595 507.43 510.03749 513.285 518.88449 521.492 527.0915 533.3315 536.579 539.8265 545.42599">is also an enzyme-mediated process and the enzyme involved is called</tspan><tspan y="-346.0746" x="192.2422 196.9461 202.511 208.0759 214.0713 224.1302 230.7661 233.979 241.04541 247.25081 252.8157 258.3806 261.80354 264.37644 272.29335 276.99723 282.9926 288.55754 294.12245 297.33534 304.40174 310.17665 312.74955 318.74494 324.30986 329.87477 334.57865 337.15156 340.36445 345.92936 352.13478 358.77067 364.33558 366.90849 370.97187 376.96726 379.54017 384.24406 389.80897 395.37388 401.36927 411.42817 418.06407 421.27696 428.34336 434.54878 438.61216 441.82505 447.82044 454.88685 457.45976 463.45515 466.87806 469.45097 475.22587 480.79078 487.85719 493.4221 497.48548 500.69837 506.26329 508.83619 518.8951 525.10049 529.1639 534.72879 539.4327 542.64559 548.85098">recombinase. Crossing over leads to recombination of genetic material</tspan><tspan y="-332.15458" x="192.2422 198.6242 206.07721 211.5867 216.0367 223.4897 229.4412 234.95069 239.40068 248.13468 254.51668 260.02616 265.97767 273.43067 278.52119 284.90318 295.34867 301.73066 307.68217 314.06416 324.50965 330.46116 336.41267 340.22218 345.73167 353.82518 359.77668 365.72819 372.11018 382.55567 389.57817 393.17765 400.63066 407.22267 411.67268 415.27217 421.65415 429.10716 434.61665 441.63914 447.59065 452.04066 460.77467 466.72618 472.67768 480.13069 485.64018 493.09318 499.47517 509.92066 516.3027 519.90219 526.2842 532.4457 538.8277 546.4907">on the two chromosomes. Recombination between homologous</tspan><tspan y="-318.00059" x="192.2422 197.99849 205.25629 210.15158 216.33837 226.58866 232.77544 238.53173 244.7185 254.9688 260.7251 266.48139 271.79566 275.19996 280.95625 286.2705 292.0268 298.2136 308.46388 315.29118 318.69548 324.45176 328.70655 334.46284 341.29014 346.6044 353.4317 359.39799 364.71226 368.96705 376.22483 381.9811 387.29539 393.05168 400.30946 407.13676 412.45103 418.63783 422.2521 427.56639 434.39369 440.79048 446.54676 453.80455 459.7708 464.0256 469.7819 477.03968 482.79597 486.41026 491.72453 495.1288 500.8851 507.2819 513.0382 516.4425 523.7003 529.6666 534.98098 539.2357 546.4935">chromosomes is completed by the end of pachytene, leaving the</tspan><tspan y="-304.0746" x="192.2422 197.79921 204.85771 209.55371 215.54122 225.59221 231.57971 237.13672 243.12422 253.17522 258.7322 264.2892 266.85423 270.0592 273.2642 280.3227 286.95069 292.5077 299.13569 301.70069 307.8982 311.9537 314.5187 318.57423 325.63273 331.18974 333.75474 339.31175 342.51673 346.57225 352.12925 357.68626 360.25126 366.23875 369.65376 372.21876 377.77577 382.47178 388.45927 394.01628 399.57328 402.77827 409.83677 415.60377 418.16877 424.15626 429.71327 435.27027 438.48219">chromosomes linked at the sites of crossing over.</tspan><tspan y="-290.15458" x="210.2422 217.0307 224.2497 229.96718 232.70938 239.49788 245.21537 251.14286 254.50835 261.72734 268.94633 272.3118 279.5308 285.45829 288.2005 294.34849 297.92399">The beginning of </tspan><tspan y="-290.00059" x="300.8802 307.72419 311.14518 317.98918 321.41017 327.61366 331.88517 337.65818 344.93269 350.7057 300.5652 307.40919 310.83018 317.67417 321.09516 327.29866 331.57017 337.34318 344.61769 350.3907">diplotene diplotene </tspan><tspan y="-290.31159" x="300.8802 307.72419 311.14518 317.98918 321.41017 327.61366 331.88517 337.65818 344.93269 350.7057 300.5652 307.40919 310.83018 317.67417 321.09516 327.29866 331.57017 337.34318 344.61769 350.3907">diplotene diplotene </tspan><tspan y="-290.15357" x="300.7202 307.5642 310.9852 317.8292 321.25019 327.45368 331.7252 337.4982 344.7727 350.54573 353.27619 356.6439 362.3636 365.09129 369.94999 375.66969 381.38938 387.53959 393.46928 400.69047 404.05818 409.77787 415.49757 422.28828 425.01597 431.80668 437.73637 440.46406 444.68226 451.90345 457.62315 460.35084 467.14155 470.50926 476.22895 481.94865 488.09886 491.46656 498.89778 503.11598 506.48368 512.63388 519.85507 522.58279 528.733 532.31069 535.0384 539.2566 546.4778">diplotene is recognised by the dissolution of the</tspan><tspan y="-276.00059" x="192.2432 198.4839 204.9346 212.6768 219.558 226.8697 231.6089 238.2801 246.02231 252.26302 262.9977 269.8789 273.7676 279.56629 285.80699 292.47819 303.2129 310.5246 314.4133 320.654 327.3252 333.12388 340.00508 347.74726 355.05897 360.85765 365.59684 373.33903 379.5797 385.3784 390.11759 396.35829 404.10047 411.41218 417.65287 425.39506 431.63575 438.08647 443.88514 450.55635 454.65504 460.4537 465.1929 472.9351 479.17579 484.97447 490.35417 496.59486 502.83555 509.50675 520.24148 527.55319 531.44186 539.184 545.42477">synaptonemal complex and the tendency of the recombined</tspan><tspan y="-262.07359" x="192.2432 199.277 205.23979 215.2661 221.2289 224.4092 230.372 236.11429 242.07709 249.32089 254.8532 257.3935 262.92579 269.9596 274.6309 280.5937 290.62 296.5828 302.11509 308.07789 318.1042 323.63648 329.16877 331.70906 337.67185 341.06214 343.60243 347.6332 354.66703 360.1993 362.7396 369.3429 372.5232 378.05549 384.22828 387.40858 392.94087 399.97468 404.00547 409.53776 412.07804 416.10884 422.07164 424.6119 430.1442 435.67649 442.2798 448.45259 453.12388 459.29667 463.32746 468.85975 471.40003 474.7903 479.4616 485.4244 495.4507 497.991 503.5233 509.69609 515.2284 522.2622 524.80258 530.7654 534.7962 541.83 547.3623">homologous chromosomes of the bivalents to separate from each other</tspan><tspan y="-248.15357" x="192.2432 197.7721 203.73149 209.26039 214.78929 221.38919 225.4166 227.95349 234.1229 238.1503 240.6872 244.7146 251.745 257.2739 259.8108 265.3397 268.5166 272.544 278.0729 283.6018 286.1387 292.0981 295.48503 298.0219 303.5508 308.21873 314.17814 319.70704 325.23594 331.19535 336.72425 342.25315 346.92106 352.44996 355.83686 358.37376 364.97367 372.00407 377.53297 383.06187 388.59077 391.12767 398.79856 403.04646 408.57536 415.60575 421.77516 428.37507 433.90397 440.50389 443.04078 448.56968 452.59709 457.26499 464.50538 470.03428 474.06169 481.30207 485.96998 491.49888 497.02778 500.41468 502.95158 509.12098 513.7889 519.31777 521.8547 527.38357 533.5529 536.7298 539.9067 545.43557">except at the sites of crossovers. These X-shaped structures, are called</tspan><tspan y="-233.83557" x="192.4012 198.21239 205.52507 208.98426 215.43595 221.24713 231.55233 238.00402 242.3137 248.7654 192.0862 197.89739 205.21007 208.66925 215.12094 220.93213 231.23732 237.68901 241.9987 248.4504">chiasmata.chiasmata.</tspan><tspan y="-234.15058" x="192.4012 198.21239 205.52507 208.98426 215.43595 221.24713 231.55233 238.00402 242.3137 248.7654 192.0862 197.89739 205.21007 208.66925 215.12094 220.93213 231.23732 237.68901 241.9987 248.4504">chiasmata.chiasmata.</tspan><tspan y="-234.00058" x="192.2442 198.05539 205.36808 208.82726 215.27895 221.09014 231.39533 237.84702 242.15671 248.6084 252.2442 257.11338 260.93708 268.19429 273.06349 279.24967 285.43586 291.19157 297.15727 301.41148 307.16719 312.92289 317.79209 323.97828 327.59199 332.46119 338.2169 344.40309 354.65278 360.40849 365.27769 371.0334 376.7891 381.6838 385.93803 391.69374 398.52043 403.41514 409.81135 414.06556 419.82127 425.57698 429.19068 434.05989 440.88658 444.29026 451.11695 454.52064 460.70683 464.96104 470.71675 477.97395 483.72966 488.59886 494.35456 500.75077 508.00798 512.87716 516.2808 522.677 528.4327 532.6869 537.5561 541.1698 547.356">chiasmata. In oocytes of some vertebrates, diplotene can last for</tspan><tspan y="-220.07257" x="192.2442 202.36789 208.42809 215.55928 219.68747 226.81867 232.44835 235.08603 241.14623 245.91492 248.5526 254.39229 260.02198 266.29219 271.06086 276.69056">months or years.</tspan><tspan y="-206.15259" x="210.2442 216.7848 223.7559 229.22551 231.70311 235.03072 238.14832 245.11942 251.22953 254.34712 256.8247 262.2943 266.26243 272.37254 278.05213 283.52174 285.99934 291.8994 295.22703 297.70463 307.6682 313.13783 316.25544 322.15553 326.12364 329.24125 334.71086 337.18846 343.72904 348.33766 354.23774 360.77833 367.74943 373.85954 379.32914 384.79875 387.27635 390.81394 393.29154 396.40916 401.87876">The final stage of meiotic prophase I is </tspan><tspan y="-206.00058" x="404.5622 411.1629 414.3406 420.5108 427.1115 430.2892 437.32044 442.85017 448.37989 451.5576 457.0873 404.2472 410.8479 414.0256 420.1958 426.7965 429.9742 437.00544 442.53517 448.06489 451.24259 456.7723">diakinesis.diakinesis.</tspan><tspan y="-206.30957" x="404.5622 411.1629 414.3406 420.5108 427.1115 430.2892 437.32044 442.85017 448.37989 451.5576 457.0873 404.2472 410.8479 414.0256 420.1958 426.7965 429.9742 437.00544 442.53517 448.06489 451.24259 456.7723">diakinesis.diakinesis.</tspan><tspan y="-206.15158" x="404.4052 411.00593 414.18363 420.35383 426.95454 430.13224 437.16346 442.69319 448.2229 451.4006 456.93034 460.0852 462.5656 469.109 476.08293 479.20335 484.67576 487.15617 490.27659 495.749 498.2294 508.1958 514.3087 518.9201 525.4635 530.9359 537.4793 539.9597 546.5031">diakinesis. This is marked by</tspan><tspan y="-192.00058" x="192.2452 196.2925 201.8413 206.5291 216.5719 219.7687 226.819 233.0083 236.20511 239.40192 244.95072 251.14002 255.18732 258.38414 264.36344 271.41374 274.13304 280.11235 283.51914 286.23844 291.78724 298.83753 302.03434 308.22364 313.77244 323.81523 330.00453 334.05183 340.24113 343.64793 346.36723 354.9085 362.16883 366.85664 370.05345 377.10374 382.86253 385.58183 389.62913 396.6794 399.87623 405.42503 408.14433 414.76414 421.81443 428.00373 433.55253 439.10133 441.82063 445.86793 452.9182 458.467 461.1863 466.7351 473.7854 478.4732 484.4525 494.4953 500.4746 506.0234 512.0027 522.0455 527.5943 533.1431 535.8624 542.05178 546.73959">terminalisation of chiasmata. During this phase the chromosomes are</tspan><tspan y="-178.07157" x="192.2452 195.64919 202.90668 206.10066 209.29465 215.05065 219.03464 224.58063 230.55712 237.6046 244.22159 249.76758 256.81507 262.36106 267.90705 274.52406 278.50804 284.69453 291.742 298.359 302.343 306.38749 313.43498 318.98097 322.96495 333.0049 338.5509 341.7449 347.7214 351.7659 354.9599 360.5059 364.48988 370.03587 376.65287 379.84687 386.89436 393.51136 396.70536 402.25135 406.23533 409.42933 414.9753 418.9593 425.14579 430.69178 436.23777 441.78376 451.82374 458.44075 461.63475 467.18074 473.79774 477.7817 481.8262 487.8027 491.78669 498.4037 503.08869 508.63468 515.25167 521.4381 526.1231 531.66909 535.6531 539.6976 546.74508">fully condensed and the meiotic spindle is assembled to prepare the</tspan><tspan y="-164.15155" x="192.2452 199.26689 205.21759 215.2318 221.1825 224.3507 230.30139 236.03159 241.98229 249.21399 254.73419 257.2624 262.7826 269.8043 274.4635 280.4142 290.4284 296.37913 301.89933 307.85005 317.86424 323.38444 328.90464 331.43284 334.81105 340.76176 345.42097 347.94917 353.46937 358.98957 365.58076 371.74147 376.40068 382.56138 386.58009 389.7483 395.699 402.7207 406.0989 408.6271 416.4993 422.2295 424.7577 428.7764 435.7981 441.3183 443.8465 449.3667 456.3884 462.97959 465.50779 471.4585 474.8367 477.3649 483.9561 487.1243 493.285 499.8762 503.0444 510.0661 515.5863 521.1065 524.2747 529.7949 533.1731 535.7013 539.72 546.7417">homologous chromosomes for separation. By the end of diakinesis, the</tspan><tspan y="-150.00055" x="192.2452 199.34459 206.65398 212.25186 215.49776 221.09564 227.12404 230.36994 237.67932 243.2772 248.43309 255.10198 258.34788 263.94578 270.18418 276.85307 283.52195 289.11985 295.35826 300.09513 305.69303 310.8489 317.0873 324.1867 330.8556 336.01148 340.10789 347.20729 352.80519 357.96107 365.06047 372.36985 377.96775 381.21363 386.81153 393.04994 397.7868 402.9427 408.5406 415.63999 421.23789 426.8358 430.08168 436.11006 442.77894 448.37684 453.5327 459.77113 463.017 468.6149 474.64329 479.79917 486.46806 491.20494 496.80284 503.04124 509.7101 515.308 520.46389 527.13278 533.16116 541.5415 548.64089">nucleolus disappears and the nuclear envelope also breaks down.</tspan><tspan y="-136.0716" x="192.2452 200.6176 203.64551 209.66593 216.11684 219.14475 226.02616 231.40607 236.78598 239.81389 245.1938 247.58171 252.10062 257.48054 263.93144 268.45036 273.83027 279.21018 284.5901 291.4715 295.3499 300.72984 303.11775 306.99617 311.51509 317.5355 324.4169 329.7968 332.82475 336.70317 339.73109 345.5415 352.4229 354.81083 358.68925 364.49967 366.88758 376.76148 382.1414 386.0198 392.04023 398.49113 405.37254 411.39295 416.77287 422.15278">Diakinesis represents transition to metaphase.</tspan><tspan y="-122.00055" x="192.4032 202.2716 207.8665 211.9599 218.1953 224.86119 231.9576 238.193 243.78789 249.38278 252.78568 256.44859 192.0882 201.9566 207.5515 211.6449 217.8803 224.54619 231.6426 237.87799 243.47289 249.06778 252.47068 256.13359">Metaphase I:Metaphase I:</tspan><tspan y="-122.30859" x="192.4032 202.2716 207.8665 211.9599 218.1953 224.86119 231.9576 238.193 243.78789 249.38278 252.78568 256.44859 192.0882 201.9566 207.5515 211.6449 217.8803 224.54619 231.6426 237.87799 243.47289 249.06778 252.47068 256.13359">Metaphase I:Metaphase I:</tspan><tspan y="-122.15057" x="192.2462 202.11461 207.7095 211.8029 218.0383 224.7042 231.8006 238.036 243.63089 249.22579 252.62868 256.29158 259.6862 263.0229 269.6413 276.6902 282.23759 285.57429 292.1927 295.3881 300.9355 307.12339 310.3188 315.86619 322.91508 326.96098 330.29768 335.84507 342.89396 347.58036 353.55827 363.59968 369.57759 375.12498 381.10289 391.1443 396.69169 402.23908 405.57579 411.76368 414.95909 418.15449 423.91188 430.96076 434.29747 440.27537 447.32426 450.66096 454.70686 461.75575 467.30314 470.63984 476.18724 482.37513 489.63404 495.82194 499.86784 505.84574 510.53215 513.72756 519.91549 523.11087 526.4476 533.066 536.26138 542.4493 546.4952">Metaphase I: The bivalent chromosomes align on the equatorial plate</tspan><tspan y="-107.9906" x="192.2462 195.4376 202.26203 205.45343 211.20685 218.46176 223.14417 228.68758 231.749 238.3634 244.97782 248.37923 254.99364 258.18507 261.58647 264.64787 271.26228 278.3072 283.8506 286.912 296.9494 300.1408 305.6842 310.3666 316.3405 320.38243 327.63734 334.25175 341.50666 344.69807 350.24147 355.78486 358.84626 362.24766 366.93006 372.90397 382.94139 386.00279 390.04469 397.0896 402.633 405.6944 411.6683 418.2827 424.89714 430.87104 436.41444 439.60585 443.64775 449.19114 452.25254 458.86695 464.84086 468.03227 473.57566 479.11906 482.18046 488.15437 491.55577 494.61717 498.65907 505.70399 511.24739 514.30886 519.85226 526.4667 529.6581 536.703 543.31747 546.50888">(Figure 10.3). The microtubules from the opposite poles of the spindle</tspan><tspan y="-94.07056" x="192.2462 198.32431 202.26042 206.19654 212.27465 217.71225 224.65137 227.09697 231.03308 236.90119 239.34679 243.2829 250.22202 255.65962 258.10523 264.61384 267.69944 274.63856 280.07618 284.01228 289.88038 295.318 302.2571 308.1252 312.7018 318.13945 320.58506 326.45317 329.74879 332.1944 339.1335 345.00163 354.93324 360.80134 363.88694 369.75505 375.40266 381.27076 388.41987 393.85749 396.3031 401.74073 408.67985 413.25645 419.12455 429.05616 434.92427 440.36189 446.22999 456.1616 461.5992 467.03684">attach to the kinetochore of homologous chromosomes.</tspan></text>
<g clip-path="url(#clip_863)">
<text xml:space="preserve" transform="matrix(1 0 -0 1 259.314 763.9998)" font-size="8" font-family="Arial"><tspan y="6.316" x="0"> </tspan></text>
</g>
</g>
</svg>
