<svg xmlns="http://www.w3.org/2000/svg" xmlns:xlink="http://www.w3.org/1999/xlink" xmlns:inkscape="http://www.inkscape.org/namespaces/inkscape" version="1.1" width="576" height="784.8" viewBox="0 0 576 784.8">
<defs>
<clipPath id="clip_2088">
<path transform="matrix(1,0,0,-1,-18,802.8)" d="M18 18H594V802.8H18Z" clip-rule="evenodd"/>
</clipPath>
<clipPath id="clip_2089">
<path transform="matrix(1,0,0,-1,259.314,763.9998)" d="M0-8H57.372V.800049H0Z"/>
</clipPath>
</defs>
<g>
<g clip-path="url(#clip_2088)">
<path transform="matrix(.24,0,0,-.24,-18,802.8)" d="M2 2H2548V214.668H2Z" fill="#cbdf7f" fill-rule="evenodd"/>
<path transform="matrix(.24,0,0,-.24,-18,802.8)" stroke-width="4" stroke-linecap="butt" stroke-miterlimit="1000" stroke-linejoin="miter" fill="none" stroke="#cbdf7f" d="M2 2H2548V214.668H2Z"/>
<path transform="matrix(.24,0,0,-.24,-18,802.8)" d="M0 3035.83H2550V3372.705H0Z" fill="#d1d3d4" fill-rule="evenodd"/>
<path transform="matrix(.24,0,0,-.24,-18,802.8)" d="M0 3078.33H2550V3419.998H0Z" fill="#e1ecb6" fill-rule="evenodd"/>
<path transform="matrix(.24,0,0,-.24,62.63616,53.635194)" d="M0 0C7.325 7.32 16.164 10.98 26.516 10.98H97.352C107.707 10.98 116.547 7.32 123.868 0 131.192-7.33 134.852-16.17 134.852-26.52V-101.52C134.852-111.88 131.192-120.72 123.868-128.04 116.547-135.36 107.707-139.02 97.352-139.02H26.516C16.164-139.02 7.325-135.36 0-128.04-7.32-120.72-10.984-111.88-10.984-101.52V-26.52C-10.984-16.17-7.32-7.33 0 0" fill="#ffffff" fill-rule="evenodd"/>
<text fill="#231f20" xml:space="preserve" transform="matrix(1 0 -0 1 -18 802.8)" font-size="11" font-family="Bookman"><tspan y="-729.361" x="87.12 94.41 101.700008">142</tspan></text>
<text fill="#231f20" xml:space="preserve" transform="matrix(1 0 -0 1 -18 802.8)" font-size="11" font-family="Bookman"><tspan y="-729.361" x="513.12">B</tspan></text>
<text fill="#231f20" xml:space="preserve" transform="matrix(1 0 -0 1 -18 802.8)" font-size="7.7" font-family="Bookman"><tspan y="-729.361" x="521.04 523.4336 529.3692 533.76486 539.70046 545.63607">IOLOGY</tspan></text>
<path transform="matrix(.24,0,0,-.24,-18,.35998536)" stroke-width="1" stroke-linecap="butt" stroke-miterlimit="10" stroke-linejoin="miter" fill="none" stroke="#000000" d="M0 0H60"/>
<path transform="matrix(.24,0,0,-.24,.12000084,-18)" stroke-width="1" stroke-linecap="butt" stroke-miterlimit="10" stroke-linejoin="miter" fill="none" stroke="#000000" d="M0 0V-60"/>
<path transform="matrix(.24,0,0,-.24,-18,784.68)" stroke-width="1" stroke-linecap="butt" stroke-miterlimit="10" stroke-linejoin="miter" fill="none" stroke="#000000" d="M0 0H60"/>
<path transform="matrix(.24,0,0,-.24,.12000084,788.16)" stroke-width="1" stroke-linecap="butt" stroke-miterlimit="10" stroke-linejoin="miter" fill="none" stroke="#000000" d="M0 0V-60"/>
<path transform="matrix(.24,0,0,-.24,593.64,784.56)" stroke-width="1" stroke-linecap="butt" stroke-miterlimit="10" stroke-linejoin="miter" fill="none" stroke="#000000" d="M0 0V-75"/>
<text fill="#231f20" xml:space="preserve" transform="matrix(1 0 -0 1 -18 802.8)" font-size="10.5" font-family="Bookman"><tspan y="-688.561" x="192 197.2443 203.95859 209.83289 216.54718 223.26148 228.50577 231.44007 233.76 239.4287 242.5774 244.87609 248.65479 255.37349 260.6222 262.9209 270.47959">channel of the CF</tspan></text>
<text fill="#231f20" xml:space="preserve" transform="matrix(1 0 -0 1 -18 802.8)" font-size="6.1" font-family="Bookman"><tspan y="-684.961" x="276.96">0</tspan></text>
<text fill="#231f20" xml:space="preserve" transform="matrix(1 0 -0 1 -18 802.8)" font-size="10.5" font-family="Bookman"><tspan y="-688.561" x="280.56 282.8613 288.52149 291.66169 293.96299 297.7332 304.4434 309.6836 311.9849 318.9051 325.19529 331.48548 333.78678 339.02699 344.47718 351.18739 354.95759 361.6678 367.538 372.7782 378.0184 381.1586 383.4599 389.7501 396.4603 401.7005 404.0018 410.922 417.2122 423.50239 425.80369 431.04389 436.49409 443.20429 446.9745 453.6847 459.5549 464.7951 470.0353 472.3366 477.5768 484.28703 489.1072 494.5574 504.2076 509.4478 511.7491 516.9893 522.64956 529.35977 534.5999 537.5301 542.77029 546.54049"> of the ATP synthase. The ATP synthase enzyme consists</tspan><tspan y="-674.401" x="192 197.8717 201.2234 203.7418 207.72351 215.90522 221.77692 224.29532 230.79701 236.87871 241.4904 245.4721 250.92382 254.27552 256.7939 262.66563 269.5873 275.039 277.5574 283.0091 289.0908 292.23249 295.37419 300.82588 307.32759 309.84599 313.82768 320.74937 326.20106 328.71946 336.48115">of two parts: one called the CF</tspan></text>
<text fill="#231f20" xml:space="preserve" transform="matrix(1 0 -0 1 -18 802.8)" font-size="6.1" font-family="Bookman"><tspan y="-671.041" x="343.2">0</tspan></text>
<text fill="#231f20" xml:space="preserve" transform="matrix(1 0 -0 1 -18 802.8)" font-size="10.5" font-family="Bookman"><tspan y="-674.401" x="347.04 349.5599 352.7031 358.15629 360.67619 366.12937 375.99256 382.49577 387.94895 394.45216 400.95536 406.40855 412.91175 415.43165 418.57484 425.49803 428.0179 432.00114 438.92433 444.3775 446.8974 450.8806 457.8038 463.467 466.6102 472.6934 479.1966 485.0698 488.21299 494.7162 497.23609 507.09928 512.5525 522.4157 528.9189 533.5321 539.6153 546.5385"> is embedded in the thylakoid membrane</tspan><tspan y="-660.481" x="192.00002 197.96942 204.77883 211.16823 213.56873 216.80812 222.56752 227.06693 236.81633 242.15573 244.55623 250.52564 252.92613 256.79554 261.29493 267.2643 274.0737 279.4131 289.16249 294.50187 304.25126 310.64067 315.14006 321.10945 327.91883 333.2582 335.65873 340.9981 347.8075 353.7769 360.58628 367.39567 372.73506 375.76445 378.16496 382.03437 388.84376 394.81315 398.68257 401.08308 406.42247 412.39186 416.89125 421.39064 424.42 429.7594 435.0988 437.4993 443.2587 450.2781 454.14753 456.54804 459.78746 465.75685 471.09623 474.1256 477.155 480.1844 484.0538 490.0232 493.8926 499.232 505.6214 508.0219 514.4113 517.44076 520.6801 523.9195 530.9389 536.2783 539.30776 545.06716">and forms a transmembrane channel that carries out facilitated diffusion</tspan><tspan y="-646.56106" x="192.00002 197.87921 201.23842 205.33763 211.84683 216.46604 222.34523 226.33443 232.21363 239.14282 244.60202 248.70124 254.79044 260.24964 264.86885 270.74806 276.20726 281.66645 285.76564 289.75483 296.68403 302.14323 306.2424 316.1116 321.5708 331.44 337.9492 342.5684 348.6576 355.5868 361.046 364.40519 368.50437 375.01356 381.94276 387.40196 391.50114 397.38035 401.36955 408.29875 413.75794 418.37715 422.47633 428.9855 434.86473 439.48393 443.4731 446.6223 452.50154 459.43074 463.5299 466.6791 472.1383 476.2375 481.6967 487.7859 490.9351 494.0843 499.5435 506.05268 510.15187 517.9211">of protons across the membrane. The other portion is called CF</tspan></text>
<text fill="#231f20" xml:space="preserve" transform="matrix(1 0 -0 1 -18 802.8)" font-size="6.1" font-family="Bookman"><tspan y="-642.96109" x="524.64">1</tspan></text>
<text fill="#231f20" xml:space="preserve" transform="matrix(1 0 -0 1 -18 802.8)" font-size="10.5" font-family="Bookman"><tspan y="-646.56106" x="528.24 532.39 538.52 545.49"> and</tspan><tspan y="-632.40109" x="192 198.5085 203.127 209.0055 212.99399 217.61249 224.75099 231.25949 236.71799 242.17649 245.62589 251.50438 258.4329 261.8823 265.8708 272.7993 278.25779 281.70719 287.5857 294.72419 298.71269 304.17118 308.78968 312.23908 317.69758 324.83607 329.45457 332.81306 338.90156 344.36006 349.81855 353.26795 359.14646 362.50495 365.95436 369.94285 376.87135 382.32984 385.77925 389.76774 396.69624 402.36473 405.5132 411.6017 418.11024 423.98875 427.13725 433.64576 437.09516 446.96366 452.42216 462.29066 468.79917 473.41767 479.50617 486.43467 491.89317 495.34257 501.22108 508.14958 511.59898 515.58749 522.516 527.9745 531.4239 536.8824 540.0309 546.53939">protrudes on the outer surface of the thylakoid membrane on the side</tspan><tspan y="-618.4811" x="192 195.9887 202.91739 209.00609 212.99478 215.98529 219.344 225.4327 230.89139 236.35009 241.80878 244.79929 248.78798 255.71668 261.17539 264.1659 269.6246 273.6133 278.23204 284.11073 293.97944 300.06816 303.42686 306.41737 312.92607 319.85478 325.31349 328.304 334.81269 339.4314 344.8901 350.97883 357.48753 360.47804 366.98674 372.86543 381.0541 387.98283 390.97334 396.85203 400.21073 403.20124 407.18995 414.11866 419.57737 422.56788 428.23658 432.8553 438.944 445.4527 448.6014 454.06013 460.98884 464.97755 467.96806 474.47676 479.09547 484.97416 490.43287 493.58158 500.09028 505.54899 511.0077 513.99819 519.45687 526.38558 532.2643 539.40298 545.07168">that faces the stroma. The break down of the gradient provides enough</tspan><tspan y="-604.5611" x="192 197.4602 204.39041 209.85062 214.47081 220.141 225.8112 228.9714 232.96161 238.84181 242.00202 247.46222 253.55242 260.69264 266.15284 271.61305 274.77323 280.86344 284.02363 289.48384 295.364 302.29423 305.65443 311.5346 316.15483 326.02503 332.11524 336.10545 339.25566 345.13584 352.06605 358.15626 361.30647 364.46665 369.92686 376.85707 382.94728 389.87748 395.54768 401.00788 404.16807 407.31828 414.24848 417.40867 421.39888 428.32908 433.78929 436.94947 444.71968">energy to cause a conformational change in the CF</tspan></text>
<text fill="#231f20" xml:space="preserve" transform="matrix(1 0 -0 1 -18 802.8)" font-size="6.1" font-family="Bookman"><tspan y="-600.9611" x="451.44">1</tspan></text>
<text fill="#231f20" xml:space="preserve" transform="matrix(1 0 -0 1 -18 802.8)" font-size="10.5" font-family="Bookman"><tspan y="-604.5611" x="455.28 458.4332 464.9364 471.0196 475.63279 479.616 482.7592 488.21238 491.35557 496.80876 499.96195 505.83515 509.18836 512.34158 516.32479 523.248 528.7012 531.8544 538.98757 545.4907"> particle of the ATP</tspan><tspan y="-590.4011" x="192 197.1945 202.599 209.2635 212.988 219.65251 225.477 230.67151 235.86602 238.96051 241.21611 249.14061 255.80512 258.6896 263.8841 270.54859 272.8042 282.4087 288.2332 294.4777 299.67219 304.86668 307.12229 310.84678 317.51127 322.70576 324.96138 330.15586 336.82035 341.59486 346.99937 356.60386 361.79835 364.05397 369.24845 374.65296 381.31745 385.04194 391.70643 396.9009 402.0954 404.9799 410.17439 415.36888 417.62449 422.81898 428.01347 433.20796 438.40245 442.75694 448.58143 451.4659 453.72154 463.32603 468.94053 471.825 477.0195 482.214 489.0885 491.973 497.16749 502.36198 504.61759 510.2321 513.3266 515.58218 520.7767 527.44119 532.6357 536.9902 542.39468 547.79916">synthase, which makes the enzyme synthesise several molecules of energy-</tspan><tspan y="-576.48117" x="192 198.5014 204.58281 210.03421 216.53562 221.98702 228.48842 232.13982 239.28 245.73 251.76">packed ATP.</tspan><tspan y="-562.56118" x="210 217.9116 224.9832 230.58481 240.5964 243.888 249.9096 255.5112 265.5228 271.5444 277.146 280.4376 286.03919 291.21577 295.97737 301.57896 307.81056 315.09214 318.38374 323.14533 328.74693 334.3485 339.5251 345.75669 350.93327 360.94486 366.54646 376.55805 383.20967 387.97126 394.20286 401.27445 406.87605 410.37763 415.5542 421.7858 426.96238 433.61399 438.37559 444.3972 448.52879 454.55039 461.62199 466.79856 473.45018 480.73176 490.74336 497.39497 500.89656 506.07313 512.30477 517.4813 524.13296 528.89456 534.91616 539.0477 545.06936">Chemiosmosis requires a membrane, a proton pump, a proton</tspan><tspan y="-548.4012" x="192 197.6671 202.2842 208.37129 214.87839 218.02548 223.48259 230.40969 234.39679 238.15839 244.24549 251.17258 257.6797 261.44129 268.57838 275.08549 281.5926 285.3542 290.81129 296.4784 303.4055 307.39259 314.31968 320.40678 325.86387 331.32096 334.67805 338.43965 345.99674 352.92384 358.38093 362.99803 368.66514 374.33226 378.09385 381.24095 386.69804 390.45964 397.5967 403.0538 408.5109 415.018 418.7796 422.7667 428.6438 432.4054 438.9125 446.0496 455.9167 462.4238 466.1854 472.6925 477.3096 483.1867 487.1738 493.0509 499.978 505.4351 509.1967 515.2838 520.7409 525.35806 531.2351 536.6922 542.1493 545.9109">gradient and ATP synthase. Energy is used to pump protons across a</tspan><tspan y="-534.4812" x="192 201.7815 207.153 216.9345 223.35599 227.88748 233.88898 240.73049 246.10199 249.37349 251.80869 255.71019 261.50169 263.9369 269.30839 273.83988 279.21138 285.21287 289.11436 294.48585 296.92106 302.92256 305.35777 310.93928 315.47077 321.47227 327.89378 330.95527 336.32676 343.16825 347.06974 349.50495 355.29646 359.82795 362.26316 368.26466 370.69987 377.54136 380.60285 386.18437 393.02586 395.46107 400.83256 406.62406 413.46556 418.83705 424.20854 431.05003 434.9515 439.483 445.4845 449.386 452.44749 458.23899 465.08049 467.5157 473.3072 476.5787 479.01393 485.43544 489.96693 495.75843 499.6599 505.45143 512.2929 517.6644 520.0996 528.2011 531.26266 535.1641 542.0056 545.06716">membrane, to create a gradient or a high concentration of protons within</tspan><tspan y="-520.5612" x="192 195.8956 202.7312 208.0968 210.5261 214.42169 221.2573 226.8329 229.8885 235.88411 242.29972 248.08531 251.14092 257.55653 259.9858 263.0414 270.087 279.8626 285.2282 292.0638 295.3294 297.7587 304.8043 311.21989 317.63548 320.06477 325.43037 331.00596 337.84156 341.73716 348.57276 354.56837 359.93397 365.29957 367.72886 374.56446 380.56007 385.92567 388.35496 394.35057 396.77986 402.14546 408.98106 414.97666 421.81227 428.64787 434.01347 437.06907 439.49836 443.39396 450.22956 456.22517 460.12077 462.55006 468.54566 471.60127 474.65687 480.44248 488.5381 493.9037 496.33299 502.74858 505.80418 509.06977 512.3354 519.381 524.7466 527.8022 533.58779 540.42337 542.85269 548.63827">the thylakoid lumen. ATP synthase has a channel that allows diffusion of</tspan><tspan y="-506.4012" x="192 198.2506 202.61119 208.2318 211.9624 217.58301 224.2536 229.45421 231.7198 237.9704 243.801 249.0016 255.2522 257.5178 263.3484 268.54899 272.90959 278.53019 283.73078 288.93138 291.19697 294.92756 301.59815 306.79875 309.06434 318.67494 323.87553 333.4861 339.73674 344.09733 349.92793 356.5985 361.7991 364.8997 367.16529 370.89588 377.56648 380.45707 385.65766 387.92326 392.28385 397.48445 400.37504 405.57563 411.40623 416.6068 421.8074 427.008 429.2736 434.47419 441.14479 446.76539 453.646 459.0566 465.7272 467.9928 473.1934 479.86399 485.06459 489.42518 494.8358 500.2464 502.512 506.24259 511.8632 514.1288 519.9594 525.16006 528.8906 531.78128 536.9819 542.8125 546.5431">protons back across the membrane; this releases enough energy to activate</tspan><tspan y="-492.4812" x="192 199.2 205.7059 212.2118 214.73021 220.18611 225.852 232.77791 236.76381 243.68972 249.77562 255.23152 260.6874 263.2058 268.6617 275.58763 280.6235 286.2894 296.1553 301.6112 304.1296 308.1155 315.0414 321.12733 325.11323 327.63163 333.08753 339.17344 343.15934 349.24525 352.39115 358.05705 363.51295 368.96885 374.42475 376.94316 380.92906 387.85496 393.31086 395.82926 399.18516 405.06105 409.91999 419.79249 425.88499 429.87748 433.02998 438.91249 445.84498 448.36997 454.25248 457.61497 460.13996 467.283 473.733 479.75999">ATP synthase enzyme that catalyses the formation of ATP.</tspan><tspan y="-478.5612" x="209.99997 217.13857 220.28717 226.16577 233.09438 238.76297 241.91156 250.10016 253.24877 257.23738 264.16596 267.31459 271.30317 278.23176 283.69035 286.83897 294.60755 301.74617 310.14476 316.65336 325.05195 328.20057 334.70918 339.32777 345.20637 351.71498 358.85359 364.31217 369.77076 376.27937 379.42799 385.93659 391.6052 394.7538 398.7424 405.671 411.12959 414.2782 424.1468 430.0254 435.48399 440.94258 450.81117 456.26976 463.19834 467.18693 470.33555 476.21415 479.57276 482.72138 488.17997 491.32856 496.78715 502.24574 506.2343 510.8529 516.7315 523.6601 529.1187 532.4773 535.62588 539.61447 546.543">Along with the NADPH produced by the movement of electrons, the</tspan><tspan y="-464.40119" x="191.99997 199.04837 205.46677 211.88516 214.31607 222.41448 225.47287 228.53127 231.58966 234.02057 240.43897 245.80738 248.23828 255.28668 260.6551 266.0235 272.4419 274.8728 277.9312 287.70964 297.48805 302.85646 309.27485 312.33326 318.33168 322.23008 327.59849 330.6569 336.2353 338.6662 341.7246 348.56303 350.99394 354.89234 361.73075 367.09916 369.53007 375.94847 379.00688 384.79527 390.16368 395.74208 402.58049 406.47889 413.3173 418.6857 422.5841 425.64253 431.01094 433.44184 435.87275 440.40116 445.76957 451.76799 457.13639 461.0348 464.0932 469.8816 476.72 479.1509 483.04933 489.04774 495.46614 498.52455 505.36296 510.94136 513.3722 519.7906 522.849 528.8474 534.2158 539.5842 542.0151 545.0735">ATP will be used immediately in the biosynthetic  reaction taking place in</tspan><tspan y="-450.48118" x="191.99997 195.96277 202.86557 208.29837 210.80117 216.23397 220.19676 224.78957 230.64237 240.48517 246.54798 249.88077 252.38356 256.97636 262.40916 267.84196 274.32475 280.17756 287.08036 292.51316 295.63597 302.11875 305.24156 310.67436 313.17716 316.50996 322.36277 326.95558 329.45838 332.79118 335.91398 341.76679 344.8896 351.7924 357.43519 359.938 367.6808">the stroma, responsible for fixing CO</tspan></text>
<text fill="#231f20" xml:space="preserve" transform="matrix(1 0 -0 1 -18 802.8)" font-size="6.1" font-family="Bookman"><tspan y="-446.88117" x="376.07997">2</tspan></text>
<text fill="#231f20" xml:space="preserve" transform="matrix(1 0 -0 1 -18 802.8)" font-size="10.5" font-family="Bookman"><tspan y="-450.48118" x="379.91996 383.24797 385.72596 391.78398 398.68199 405.15998 407.63798 413.06599 418.70399 425.602 429.56 436.458 441.88603 447.31404 450.43205 455.86006 458.33805 464.18605 467.51405 469.99205 475.42005 482.52806 488.16606 494.22407 498.81208 504.24009">, and synthesis of sugars.</tspan></text>
<text fill="#00aeef" xml:space="preserve" transform="matrix(1 0 -0 1 -18 802.8)" font-size="13" font-family="Bookman"><tspan y="-417.36119" x="191.99996 200.28685 208.57375 212.70066 233.99996">11.7W</tspan></text>
<text fill="#00aeef" xml:space="preserve" transform="matrix(1 0 -0 1 -18 802.8)" font-size="9.1" font-family="Bookman"><tspan y="-417.36119" x="246.95996 254.64136 261.41276 268.73017">HERE</tspan></text>
<text fill="#00aeef" xml:space="preserve" transform="matrix(1 0 -0 1 -18 802.8)" font-size="13" font-family="Bookman"><tspan y="-417.36119" x="275.27998"> </tspan></text>
<text fill="#00aeef" xml:space="preserve" transform="matrix(1 0 -0 1 -18 802.8)" font-size="9.1" font-family="Bookman"><tspan y="-417.36119" x="279.11997 285.77177 292.96958">ARE</tspan></text>
<text fill="#00aeef" xml:space="preserve" transform="matrix(1 0 -0 1 -18 802.8)" font-size="13" font-family="Bookman"><tspan y="-417.36119" x="299.27998"> </tspan></text>
<text fill="#00aeef" xml:space="preserve" transform="matrix(1 0 -0 1 -18 802.8)" font-size="9.1" font-family="Bookman"><tspan y="-417.36119" x="303.11997 309.61888 317.20979">THE</tspan></text>
<text fill="#00aeef" xml:space="preserve" transform="matrix(1 0 -0 1 -18 802.8)" font-size="13" font-family="Bookman"><tspan y="-417.36119" x="323.51997 326.94715 336.28096 345.35475 353.90855"> ATP </tspan></text>
<text fill="#00aeef" xml:space="preserve" transform="matrix(1 0 -0 1 -18 802.8)" font-size="9.1" font-family="Bookman"><tspan y="-417.36119" x="357.35997 364.40086 371.62376">AND</tspan></text>
<text fill="#00aeef" xml:space="preserve" transform="matrix(1 0 -0 1 -18 802.8)" font-size="13" font-family="Bookman"><tspan y="-417.36119" x="378.71998 382.57276 392.59217 402.35157 412.89097 421.87037 432.92976 436.78254"> NADPH U</tspan></text>
<text fill="#00aeef" xml:space="preserve" transform="matrix(1 0 -0 1 -18 802.8)" font-size="9.1" font-family="Bookman"><tspan y="-417.36119" x="446.39997 453.01869 460.18339">SED</tspan></text>
<text fill="#00aeef" xml:space="preserve" transform="matrix(1 0 -0 1 -18 802.8)" font-size="13" font-family="Bookman"><tspan y="-417.36119" x="467.27998">?</tspan></text>
<text fill="#231f20" xml:space="preserve" transform="matrix(1 0 -0 1 -18 802.8)" font-size="10.5" font-family="Bookman"><tspan y="-391.20118" x="191.99997 201.35997 206.70568 209.74308 212.77878 218.12448 224.10019 228.95998 235.77878 239.65758 242.69808 246.57688 253.39568 259.37449 263.2533 266.2938 270.1726 276.9914 282.3402 285.3807 291.7795 296.39997 302.17466 308.57936 315.61405 320.96876 324.85346 330.20817 333.25456 339.02925 342.28395 345.33033 348.37504 351.41975 356.98445 363.80915 367.69386 370.74024 375.35997 380.71977 386.70957 392.06938 395.95918 399.00898 404.78877 411.61857 414.67005 420.65986 425.27998 430.66416 433.74006 440.63996 447.08998 452.63996 455.89958 458.95088 466.62046 473.66007 481.95967 488.36927 496.66886 499.72016 505.70976 512.53939 518.949 522.00027">We learnt that the products of light reaction are ATP, NADPH and O</tspan></text>
<text fill="#231f20" xml:space="preserve" transform="matrix(1 0 -0 1 -18 802.8)" font-size="6.1" font-family="Bookman"><tspan y="-387.60118" x="530.39999">2</tspan></text>
<text fill="#231f20" xml:space="preserve" transform="matrix(1 0 -0 1 -18 802.8)" font-size="10.5" font-family="Bookman"><tspan y="-391.20118" x="533.99996 537.28329 540.3166 548.6399">. Of</tspan><tspan y="-377.76118" x="191.99994 195.89324 202.72653 208.08983 213.45313 218.81642 221.27973">these O</tspan></text>
<text fill="#231f20" xml:space="preserve" transform="matrix(1 0 -0 1 -18 802.8)" font-size="6.1" font-family="Bookman"><tspan y="-374.16117" x="229.43994">2</tspan></text>
<text fill="#231f20" xml:space="preserve" transform="matrix(1 0 -0 1 -18 802.8)" font-size="10.5" font-family="Bookman"><tspan y="-377.76118" x="233.27994 235.70444 242.10803 245.15163 248.40523 251.65883 258.69245 264.04606 269.39967 274.75328 277.17778 282.95137 289.98497 293.86857 296.29307 302.06666 305.32026 307.74476 311.62837 318.45198 323.80558 326.23008 331.58369 338.4073 341.4509 347.2245 351.7381 357.5117 363.91529 366.9589 372.9425 378.2961 382.17973 384.60423 392.6878 399.5114 402.55503 405.59864 410.95225 413.37675 420.41035 426.81394 433.21754 435.64204 441.62565 448.44926 454.85285 457.27735 464.94096 471.97456 480.26817 486.67176 494.96537 497.38987 503.37348 507.8871 513.24069 515.66519 522.6987 528.0523 533.4059 539.8095 542.234 546.1176"> diffuses out of the chloroplast while ATP and NADPH are used to</tspan><tspan y="-364.32118" x="191.99994 198.18294 202.47594 205.29894 210.43193 215.56493 217.76163 221.42462 228.02762 233.16062 235.35732 241.54032 245.83332 251.3863 256.51933 261.6523 266.7853 271.9183 277.0513 282.1843 284.38099 287.20399 292.33699 298.09999 304.283 307.106 313.70899 319.05198 321.24867 324.91166 330.46467 332.66136 336.32435 342.92735 348.06034 350.25703 355.39 360.733 367.336 370.999 377.602 382.735 387.86799 390.69099 395.82398 398.02067 403.57368 406.60667 408.80335 411.83634 417.38935 422.94236 429.12538 432.15837 434.35505 443.89805 449.45106 453.74406 458.87705 461.07374 466.83674 471.96974 477.10273 483.9157 488.2087 493.9717 497.6347 502.7677 505.5907 510.9337 513.9667 516.1634 521.2964 528.1094 533.4524 539.2154 543.5084 548.6414">drive the processes leading to the synthesis of food, more accurately, sugars.</tspan><tspan y="-350.64118" x="191.99994 198.41085 205.24175 208.29265 213.65355 216.39785 219.44875 224.80965 227.55394 231.44484 238.27574 243.63665">This is the </tspan></text>
<text fill="#231f20" xml:space="preserve" transform="matrix(1 0 -0 1 -18 802.8)" font-size="10.5" font-family="Bookman"><tspan y="-350.64118" x="246.23995 252.46814 256.17634 262.61454 268.00276 274.44096 281.50917 286.26737 293.33558 299.35377 304.11198 307.82017 313.83836 316.78657 323.43476 330.50297 336.52116 341.90937">biosynthetic phase</tspan></text>
<text fill="#231f20" xml:space="preserve" transform="matrix(1 0 -0 1 -18 802.8)" font-size="10.5" font-family="Bookman"><tspan y="-350.64118" x="347.99995 350.72697 356.49897 359.75099 362.478 368.88 375.702 381.474 385.356 391.128 396.47999 402.042 408.86399 412.74598 419.56797 424.91996 430.27195 433.31394 438.66593 441.91795 444.64497 451.04698 457.86897 460.91096 466.26295 468.98997 475.39198 479.90397 485.67597 491.02796 496.37995 501.73194 507.08393 509.81095 516.21298 521.9849 527.3369 532.6889 535.4159 542.2379 548.0099"> of photosynthesis. This process does not</tspan><tspan y="-337.20118" x="191.99994 198.40283 201.44574 205.95864 211.31154 216.66445 220.54735 223.59024 229.15314 231.61853 238.02143 243.37433 249.77722 255.13013 261.95304 268.35594 270.82133 276.5942 283.4171 285.8825 289.7654 296.58833 301.94123 304.40663 310.8095 315.32243 320.67533 326.02824 331.38114 338.20405 343.55696 348.90986 351.37525 357.14814 360.40104 362.86643 365.90934 368.95225 374.51515 381.33805 385.22096 387.68635 394.08924 401.12214 405.00505 407.47044 410.51335 415.86625 418.33164 424.73454 430.08744 436.49034 441.84324 448.66615 455.06904 460.42195 467.24485 471.12776 473.59315 479.36604 486.18894 488.65434 492.53724 499.36015 504.71305 507.17845 513.58139 518.09426 523.8671 530.27 537.3029 542.6558 546.5387">directly depend on the presence of light but is dependent on the products</tspan><tspan y="-323.76118" x="191.99994 197.76865 201.01735 203.43825 207.31696 214.13565 219.48435 221.90525 224.94394 227.98264 233.54134 240.36003 244.23874 246.65964 251.27994 256.63233 262.61473 267.9671 271.8495 274.89189 280.66429 287.48667 290.73908 293.1637 296.2061 299.4585 304.81089 308.0633 311.3157 313.74034 320.87995 327.27696 333.67396 336.09318 342.07017 348.88716 355.28416 357.70338 365.36039 372.3874 380.67439 387.07139 395.35838 398.60539 401.0246 407.4216 412.76863 418.11564 421.15263 427.54963 432.89665 438.24366 440.66288 448.3199">of the light reaction, i.e., ATP and NADPH, besides CO</tspan></text>
<text fill="#231f20" xml:space="preserve" transform="matrix(1 0 -0 1 -18 802.8)" font-size="6.1" font-family="Bookman"><tspan y="-320.16117" x="456.71995 460.54814">2 </tspan></text>
<text fill="#231f20" xml:space="preserve" transform="matrix(1 0 -0 1 -18 802.8)" font-size="10.5" font-family="Bookman"><tspan y="-323.76118" x="461.75996 467.72746 474.53495 480.92247 483.35997">and H</tspan></text>
<text fill="#231f20" xml:space="preserve" transform="matrix(1 0 -0 1 -18 802.8)" font-size="6.1" font-family="Bookman"><tspan y="-320.16117" x="491.75996">2</tspan></text>
<text fill="#231f20" xml:space="preserve" transform="matrix(1 0 -0 1 -18 802.8)" font-size="10.5" font-family="Bookman"><tspan y="-323.76118" x="495.35997 503.64326 506.88655 509.27983 515.51998 521.264 528.268 530.642 540.37606 546.33">O. You may</tspan><tspan y="-310.32118" x="191.99997 200.08138 205.85277 212.67417 219.07556 224.42696 228.93836 233.14426 239.96566 245.73705 253.81845 258.02436 261.90577 268.72718 271.7686 277.12 281.3259 286.6773 292.4487 299.4801 302.5215 308.9229 313.1288 319.5302 324.88163 329.08753 334.43894 339.79035 344.30177 347.34318 350.59458 353.636 358.9874 365.3888 368.6402 372.8461 375.8875 379.76893 383.97483 387.01625 392.36766 396.57356 401.92497 404.96638 414.72779 421.12919 424.1706 429.522 432.7734 436.9793 440.02073 449.78215 459.54356 464.89497 471.29637 474.33778 480.31919 484.2006 489.552 492.5934 498.15483 502.36073 508.34214 511.59355 515.4749 520.8263 525.3377 529.54367 532.585 535.6264 541.1878 548.0092">wonder how this could be verified; it is simple: immediately after light</tspan><tspan y="-296.64118" x="191.99997 198.40297 203.75597 209.10897 214.88196 224.64496 229.99796 235.35095 238.51016 245.54317 252.36617 258.34916 263.70216 269.68516 272.72816 275.77116 281.75416 288.15718 291.20018 296.55317 299.80616 302.96534 306.84834 313.67134 319.02433 322.1835 328.58653 331.62953 337.40254 342.75553 348.3185 355.1415 359.0245 365.8475 371.2005 375.0835 378.1265 383.4795 386.63868 393.0417 397.5547 403.3277 408.6807 414.0337 419.3867 424.7397 427.89888 433.25187 439.02488 445.84788 449.73088 452.77388 459.59687 466.62986 471.98286 477.33586 480.49504 483.74803 489.52104 494.03404 497.1932 502.5462 508.3192 518.0822 523.43527 526.5944 530.4774 533.52047 543.28347 548.6365">becomes unavailable, the biosynthetic process continues for some time,</tspan><tspan y="-282.96119" x="191.99997 197.94387 204.72777 211.09168 213.46808 217.31198 224.09589 229.40979 236.1937 238.5701 243.884 247.7279 253.4618 259.8257 265.13963 268.35353 270.72993 274.1538 277.3677 279.7441 283.588 290.37193 295.68583 302.46974 305.68363 308.06004 311.06394 314.06785 319.59175 326.37565 330.21955 332.59596 335.59986 340.91377 343.29017 353.01408 358.95799 365.32188 370.63578 373.01219 378.9561 384.27 390.2139 393.2178 396.2217 402.16563 408.5295 411.53343 416.84733 420.06123 422.43763 426.28153 433.06544 438.37934 440.75575 446.06965 451.59355 458.37745 462.22135 469.00526 474.31916 479.63307 482.63697 487.95088 490.32728 495.64118 499.48509 505.429 509.9029 513.74679 519.06069 521.4371 527.381 532.9049 538.8488 541.8527 548.6366">and then stops. If then, light is made available, the synthesis starts again.</tspan></text>
<text fill="#231f20" xml:space="preserve" transform="matrix(1 0 -0 1 -18 802.8)" font-size="10.5" font-family="Bookman" font-style="italic"><tspan y="-269.2812" x="209.99997 217.64588 224.24178 230.83768 233.98719 243.31308 249.06899 252.30489 255.45439 262.0503 267.80619 274.40208 279.52796 285.28385 288.51976 291.66926 297.42515 304.02104 310.40693 313.55644 317.21235 323.80824 330.4041 334.06004 337.20954 342.33543 348.9313 351.9572 354.98313 358.00904 364.60493 370.57084 373.72035 377.37626 383.97215 389.72804 392.87754 399.26344 402.28935 408.04524 413.80113 420.187 426.7829 430.4388 437.0347 442.7906 446.4465 449.4724 454.5983 457.7478 464.1337 470.72959 477.32548 483.08137 488.83726 491.98677 498.58265 504.33854 507.48805 511.14396 517.73989 523.4958">Can we, hence, say that calling the biosynthetic phase as the </tspan><tspan y="-269.1232" x="526.71798 534.00796 541.08798 545.858">dark</tspan><tspan y="-269.12263" x="526.4032 533.6932 540.7732 545.5432">dark</tspan><tspan y="-269.43763" x="526.7182 534.0082 541.0882 545.8582 526.4032 533.6932 540.7732 545.5432">darkdark</tspan><tspan y="-269.27964" x="526.5602 533.85018 540.9302 545.7002">dark</tspan><tspan y="-255.44164" x="192.15717 197.03856 203.38996 210.58136 216.30277 220.55417 224.17557 230.52696 191.84197 196.72336 203.07476 210.26616 215.98757 220.23897 223.86037 230.21176">reactionreaction</tspan><tspan y="-255.75664" x="192.15717 197.03856 203.38996 210.58136 216.30277 220.55417 224.17557 230.52696 191.84197 196.72336 203.07476 210.26616 215.98757 220.23897 223.86037 230.21176">reactionreaction</tspan><tspan y="-255.59864" x="191.99916 196.88056 203.23195 210.42336 216.14476 220.39617 224.01757 230.36896 236.87917 240.44628 243.51058 249.30487 252.87198 259.5063 263.07337 272.43766 275.50196 281.29627 287.93058 293.72489 303.08918 308.88349 313.2078 319.0021 322.56919 330.46348 333.52778 339.32209 344.4864 351.1207 356.915 362.70933 366.2764 369.9707 376.605 379.6693 385.46363 389.0307 395.665 405.0293 410.8236 417.45793 423.46223 429.25654 432.95085 436.5179 442.9422 448.7365 455.37083 459.69514 465.48945 471.28376 474.34806 480.14237 485.93669 491.731">reaction is a misnomer? Discuss this amongst yourselves.</tspan></text>
<text fill="#231f20" xml:space="preserve" transform="matrix(1 0 -0 1 -18 802.8)" font-size="10.5" font-family="Bookman"><tspan y="-242.15863" x="209.99916 216.27446 221.70977 225.67507 228.17197 235.28726 240.72257 243.21947 250.12477 255.98007 264.1454 266.64228 272.07759 277.51289 282.94819 285.44508 292.35038 298.20567 306.37098 308.86787 312.83317 319.73847 325.17378 327.67066 334.78596 341.27125 347.75654 350.25343 356.31874 363.22404 369.70933 372.2062 379.9515 387.0668 395.4421 401.9274 410.3027 412.7996 418.8649 423.4602 428.8955 431.3924 438.5077 443.943 449.3783 455.8636 458.36048 461.48579 468.39109 470.88798 474.85328 481.75859 487.19389 489.69078 496.17607 499.30137 505.15666 510.59196 516.23727 523.1425 527.1078 534.01309 539.44839 543.41366 546.53897">Let us now see how the ATP and NADPH are used in the biosynthetic</tspan><tspan y="-228.71863" x="191.99916 198.46056 205.34195 211.38335 216.79476 222.20616 225.51757 227.99897 237.35916 242.76317 245.23717 250.64118 256.67518 264.80918 267.28318 272.68717 278.72117 283.28517 286.37916 289.47315 294.87715 299.44114 301.91514 305.84913 312.7231 318.7571 322.6911 325.1651 332.8791">phase. We saw earlier that CO</tspan></text>
<text fill="#231f20" xml:space="preserve" transform="matrix(1 0 -0 1 -18 802.8)" font-size="6.1" font-family="Bookman"><tspan y="-225.11862" x="341.27919">2</tspan></text>
<text fill="#231f20" xml:space="preserve" transform="matrix(1 0 -0 1 -18 802.8)" font-size="10.5" font-family="Bookman"><tspan y="-228.71863" x="344.87919 347.34779 350.44389 355.84999 358.31858 363.72468 369.55079 379.36689 385.823 388.9191 395.7952 401.2013 407.6574 410.126 418.26213 421.35823 425.2943 432.1704 434.639"> is combined with H</tspan></text>
<text fill="#231f20" xml:space="preserve" transform="matrix(1 0 -0 1 -18 802.8)" font-size="6.1" font-family="Bookman"><tspan y="-225.11862" x="443.03919">2</tspan></text>
<text fill="#231f20" xml:space="preserve" transform="matrix(1 0 -0 1 -18 802.8)" font-size="10.5" font-family="Bookman"><tspan y="-228.71863" x="446.87919 455.22248 457.67579 461.60908 467.43238 469.88569 476.339 480.95918 486.78419 493.23918 500.32417 505.72917 511.13417 513.5892 516.68417 524.3992">O to produce (CH</tspan></text>
<text fill="#231f20" xml:space="preserve" transform="matrix(1 0 -0 1 -18 802.8)" font-size="6.1" font-family="Bookman"><tspan y="-225.11862" x="532.7992">2</tspan></text>
<text fill="#231f20" xml:space="preserve" transform="matrix(1 0 -0 1 -18 802.8)" font-size="10.5" font-family="Bookman"><tspan y="-228.71863" x="536.6392 545.0092">O)</tspan></text>
<text fill="#231f20" xml:space="preserve" transform="matrix(1 0 -0 1 -18 802.8)" font-size="6.1" font-family="Bookman"><tspan y="-225.11862" x="547.91928">n</tspan></text>
<text fill="#231f20" xml:space="preserve" transform="matrix(1 0 -0 1 -18 802.8)" font-size="10.5" font-family="Bookman"><tspan y="-215.27863" x="191.99924 197.87924 202.49924 206.25154 211.71155 218.85155 224.52155 230.61154 235.23154 240.69155 244.05155 247.80385 251.37386 255.36386 259.11616 267.30616 273.39616 278.85615 282.60844 288.48844 291.84843 295.6007 298.7507 305.6807 309.6707 315.13069 319.75068 325.21067 330.67066 334.66065 338.41294 342.40293 348.28294 352.03523 357.4952 362.9552 366.1052 371.5652 378.49519 382.48518 385.63517 391.09516 395.08515 400.54515 404.29743 408.2874 414.16743 417.9197 421.2797 424.4297 431.35969 437.8697 441.62199 447.50199 454.642 458.632 462.38429 469.31428 475.19429 483.38429 487.13658 491.12657 498.05656 501.20655 506.66654 510.41883 515.0388 520.49887 526.58889 532.0489 536.0389 539.1889 545.0689">or sugars. It was of interest to scientists to find out how this reaction</tspan><tspan y="-201.59864" x="191.99924 198.36154 202.83385 208.56615 213.87845 219.19075 224.50305 230.86536 236.17766 242.53997 245.75226 248.13455 253.86685 258.33915 260.72148 265.19377 271.13606 274.97834 281.76063 287.0729 291.5452 293.92753 301.96983 308.7521 314.6944 318.53669 320.919 328.9613 334.9036 340.21589 342.5982 346.4405 353.22279 358.53507 360.9174 364.1297 367.132 371.60429 376.91658 380.75886 383.14118 389.50349 393.97578 399.70808 406.07038 413.06269 418.37498 422.21726 424.59959 427.8119 433.5442 438.01649 447.73878 453.05107 459.41337 461.7957 469.83799 476.62028 481.93257 488.71485 491.09718 498.71949">proceeded, or rather what was the first product formed when CO</tspan></text>
<text fill="#231f20" xml:space="preserve" transform="matrix(1 0 -0 1 -18 802.8)" font-size="6.1" font-family="Bookman"><tspan y="-198.23863" x="506.87925">2</tspan></text>
<text fill="#231f20" xml:space="preserve" transform="matrix(1 0 -0 1 -18 802.8)" font-size="10.5" font-family="Bookman"><tspan y="-201.59864" x="510.71925 513.063 516.0467 521.3404 523.68417 527.5079 533.4316 539.77529 545.069"> is taken</tspan><tspan y="-188.15863" x="191.99924 195.13014 202.04105 206.01195 211.87285 214.37535 220.44626 222.94876 227.54967 232.99057 239.06148 244.50238 248.47328 251.60419 257.4651 264.37599 266.87849 272.73939 277.34028 279.84278 283.1837 286.31459 292.17549 297.61637 304.10728 307.44819 309.95069 316.2316 323.3525 328.7934 332.76429 335.26679 341.33769 344.6786 348.64949 354.09037 358.69126 361.19377 369.36466 375.22557 379.82646 382.95735 389.44825 391.95075 400.12165 406.19255 410.79344 413.29594 416.84684 420.39775 423.73866 426.24116 432.31205 442.16294 448.02384 454.93473 460.58564 463.08815 467.05903 473.9699 479.4108 481.9133 487.3542 492.79508 498.23597 503.67686 508.27775 514.34866 517.47958 519.98208 525.423 528.76388 532.10476 537.96566 542.5665 546.5374">into a reaction or fixed. Just after world war II, among the several efforts</tspan><tspan y="-174.71863" x="191.99924 196.03765 201.96605 207.05165 213.61005 220.79845 224.83686 229.92246 234.59085 240.72925 247.28765 250.48604 256.41444 259.61283 265.12123 271.04963 275.088 281.01643 287.57484 293.08323 298.5916 303.6772 307.71559 313.64399 318.72956 325.28797 330.79637 337.77476 343.28315 346.69154 349.88993 355.39833 358.5967 364.7351 367.9335 373.01908 380.20747 385.71586 391.22425 394.63264 399.7182 403.7566 410.735 416.24339 421.32896 429.56736 435.49577 440.16416 446.72257 451.80815 457.73655 461.14494 466.2305 475.9389 481.4473 484.6457 490.15409 493.35249 500.33088 505.41645 513.23489 519.3733 522.5717 528.08016 531.27859 538.25698 543.3425 546.54098">to put radioisotopes to beneficial use, the work of Melvin Calvin is</tspan><tspan y="-161.27863" x="191.99924 197.45475 203.33025 208.78575 218.65125 225.15674 228.30225 234.38774 239.00324 244.66873 248.02423 252.27973 258.78523 265.71073 271.16624 275.42173 282.55723 288.01274 293.46824 297.72373 303.5992 306.9547 311.2102 315.8257 321.91123 328.41673 331.56224 337.4377 343.52323 348.97874 352.96424 356.10975 361.56526 367.02076">exemplary. The use of radioactive </tspan></text>
<text fill="#231f20" xml:space="preserve" transform="matrix(1 0 -0 1 -18 802.8)" font-size="6.1" font-family="Bookman"><tspan y="-164.63863" x="371.27925 375.17756">14</tspan></text>
<text fill="#231f20" xml:space="preserve" transform="matrix(1 0 -0 1 -18 802.8)" font-size="10.5" font-family="Bookman"><tspan y="-161.27863" x="378.95924 386.72633 390.9834 397.4905 403.15763 407.4147 414.3418 417.4889 427.356 431.61308 434.76017 441.68727 445.94435 452.03144 455.17854 460.84565 466.93275 470.07984 474.3369 480.84403 487.77113 493.64823 497.6353 503.51243 508.9695 514.6366 521.5637 525.55087 532.47799 537.93508 543.39218 546.53927">C by him in algal photosynthesis</tspan><tspan y="-147.59864" x="191.99922 197.45392 201.43862 208.57332 215.07802 218.22272 223.67742 229.13211 233.42432 236.56902 242.02371 248.52841 252.82062 256.80534 262.68003 266.97224 270.95695 277.88166 283.33638 287.62858 294.13328 297.27799 302.7327 308.1874 314.0621 319.5168 324.97154 329.58625 335.25096 339.54316 343.52787 350.45259 356.53727 360.52198 364.81419 368.7989 375.7236 381.1783 385.47053 388.82524 391.96995 396.58467 402.03938 406.02409 410.31629 418.081">studies led to the discovery that the first CO</tspan></text>
<text fill="#231f20" xml:space="preserve" transform="matrix(1 0 -0 1 -18 802.8)" font-size="6.1" font-family="Bookman"><tspan y="-144.23863" x="426.71925">2</tspan></text>
<text fill="#231f20" xml:space="preserve" transform="matrix(1 0 -0 1 -18 802.8)" font-size="10.5" font-family="Bookman"><tspan y="-147.59864" x="430.31925 434.62226 437.98777 441.14326 447.02876 453.12425 457.11976 460.27525 466.16075 473.09623 477.39924 483.91474 488.54023 494.42573 500.94123 508.08674 513.55227 517.5477 521.8507 530.0462 536.1417 541.60726 545.9102"> fixation product was a</tspan><tspan y="-134.15863" x="191.99924 198.50864 202.70804 208.16744 214.25684 218.87624 225.38564 231.26503 238.19443 240.93384 246.81324 251.43264 257.10203 263.1914 270.12083 273.27024 278.72966 281.46907 287.55845 293.01786 296.16728 302.67668 306.03608 308.77549 317.1749 322.6343 325.37373 331.4631 334.61253 340.07194 345.95133 348.69075 354.15016 360.02955 366.95896 370.94837 375.56779 378.7172 385.2266 392.366 396.3554 401.81483 408.32423 411.06364 415.05305 420.93244 423.67185 431.86125 437.74064 442.36006 448.86946 452.01887 458.94828 464.61769 467.3571 473.23649 480.3759 484.3653 487.1047 491.09413 498.02354 503.48295 506.22236 511.68177 517.56118 527.43057 533.93997 537.08938 542.54879 546.53817">3-carbon organic acid. He also contributed to working out the complete</tspan><tspan y="-120.71863" x="191.99924 198.51145 201.66365 207.54586 213.00806 218.68025 225.61246 229.60466 236.53687 241.99907 245.99127 249.14348 254.60569 258.0679 264.5801 270.6723 274.6645 281.59669 289.78889 295.88108 301.55329 304.9155 308.37773 315.3099 320.7721 327.70429 333.16648 338.62867 342.09089 345.24308 349.23527 352.69749 360.88969 366.98188 372.44407 375.90629 381.36848 387.46067 390.61286 393.76506 399.22724 405.73945">biosynthetic pathway; hence it was called </tspan></text>
<text fill="#231f20" xml:space="preserve" transform="matrix(1 0 -0 1 -18 802.8)" font-size="10.5" font-family="Bookman"><tspan y="-120.71863" x="409.20167 416.96586 423.05006 426.61427 432.90846 436.68266 443.81684 447.50605 453.59025 460.09446 466.17866 469.74287 475.82707">Calvin cycle </tspan></text>
<text fill="#231f20" xml:space="preserve" transform="matrix(1 0 -0 1 -18 802.8)" font-size="10.5" font-family="Bookman"><tspan y="-120.71863" x="479.27925 485.37074 488.73225 492.72373 498.1852 502.8067 506.2932 513.22476 516.3762 526.24777 529.60928 533.09579 539.60726 546.53878">after him. The</tspan><tspan y="-107.278629" x="191.99924 195.35604 198.50284 203.11965 208.57645 212.56325 216.55754 223.06435 227.68115 233.55796 240.06476 247.20156 252.65836 256.64515 260.63948 263.78627 270.29307 275.74986 282.67665 286.66343 289.8102 293.16703 296.3138 301.7706 308.2774 312.27174 320.45854 326.54533 332.0021">first product identified was </tspan></text>
<text fill="#231f20" xml:space="preserve" transform="matrix(1 0 -0 1 -18 802.8)" font-size="10.5" font-family="Bookman"><tspan y="-107.278629" x="335.99644 342.97895 346.81144 353.58393 360.77644 367.33894 372.85145 379.62394 386.81645 393.37895 399.52143 403.14393 409.70643 415.8489 421.9914 426.8739 430.7064">3-phosphoglyceric</tspan></text>
<text fill="#231f20" xml:space="preserve" transform="matrix(1 0 -0 1 -18 802.8)" font-size="10.5" font-family="Bookman"><tspan y="-107.278629" x="436.79927 440.79277 446.87626 452.32975 455.47325 461.97676 465.97026 471.84376 476.45726 480.45075 483.59425 490.51774 494.51124 499.96473 506.8882 512.7617 517.37527 521.35879"> acid or in short </tspan></text>
<text fill="#231f20" xml:space="preserve" transform="matrix(1 0 -0 1 -18 802.8)" font-size="10.5" font-family="Bookman"><tspan y="-107.278629" x="525.35928 532.58926 541.0792">PGA</tspan></text>
<text fill="#231f20" xml:space="preserve" transform="matrix(1 0 -0 1 -18 802.8)" font-size="10.5" font-family="Bookman"><tspan y="-107.278629" x="548.6393">.</tspan></text>
<text fill="#231f20" xml:space="preserve" transform="matrix(1 0 -0 1 -18 802.8)" font-size="10.5" font-family="Bookman" font-style="italic"><tspan y="-93.35863" x="191.99927 200.21598 205.70267 214.75937 218.15927 227.48458 234.07988 240.67519 247.06049 250.54579 255.6711 262.2664 266.5517 272.937 278.69233 285.28764 288.77293 295.36824 299.02354 304.77885 314.10414 319.85945 323.34474 330.15003 335.90534 341.66065 347.41596 350.90126 353.92655 357.58186 361.06715 367.66246 374.25776 380.01307 385.76838">How many carbon atoms does it have?</tspan></text>
<g clip-path="url(#clip_2089)">
<text xml:space="preserve" transform="matrix(1 0 -0 1 259.314 763.9998)" font-size="8" font-family="Arial"><tspan y="6.316" x="0"> </tspan></text>
</g>
</g>
</g>
</svg>
