<svg xmlns="http://www.w3.org/2000/svg" xmlns:xlink="http://www.w3.org/1999/xlink" xmlns:inkscape="http://www.inkscape.org/namespaces/inkscape" version="1.1" width="576" height="784.8" viewBox="0 0 576 784.8">
<defs>
<clipPath id="clip_640">
<path transform="matrix(1,0,0,-1,-18,802.8)" d="M18 18H594V802.8H18Z" clip-rule="evenodd"/>
</clipPath>
<clipPath id="clip_641">
<path transform="matrix(1,0,0,-1,259.314,763.9998)" d="M0-8H57.372V.800049H0Z"/>
</clipPath>
</defs>
<g clip-path="url(#clip_640)">
<path transform="matrix(.23999998,0,0,-.23999998,-18,802.8)" d="M2 2H2548V214.67H2Z" fill="#cbdf7f" fill-rule="evenodd"/>
<path transform="matrix(.23999998,0,0,-.23999998,-18,802.8)" stroke-width="4" stroke-linecap="butt" stroke-miterlimit="1000" stroke-linejoin="miter" fill="none" stroke="#cbdf7f" d="M2 2H2548V214.67H2Z"/>
<path transform="matrix(.23999998,0,0,-.23999998,-18,802.8)" d="M0 3035.83H2550V3372.7003H0Z" fill="#d1d3d4" fill-rule="evenodd"/>
<path transform="matrix(.23999998,0,0,-.23999998,-18,802.8)" d="M0 3078.33H2550V3420H0Z" fill="#e1ecb6" fill-rule="evenodd"/>
<path transform="matrix(.23999998,0,0,-.23999998,62.63616,53.635194)" d="M0 0C7.32 7.32 16.16 10.98 26.52 10.98H97.35C107.71 10.98 116.55 7.32 123.87 0 131.19-7.33 134.85-16.17 134.85-26.52V-101.52C134.85-111.88 131.19-120.72 123.87-128.04 116.55-135.36 107.71-139.02 97.35-139.02H26.52C16.16-139.02 7.32-135.36 0-128.04-7.32-120.72-10.98-111.88-10.98-101.52V-26.52C-10.98-16.17-7.32-7.33 0 0" fill="#ffffff" fill-rule="evenodd"/>
<text fill="#231f20" xml:space="preserve" transform="matrix(1 0 -0 1 -18 802.8)" font-size="11" font-family="Bookman"><tspan y="-729.361" x="87.12 94.409999 101.69999">172</tspan></text>
<text fill="#231f20" xml:space="preserve" transform="matrix(1 0 -0 1 -18 802.8)" font-size="11" font-family="Bookman"><tspan y="-729.361" x="513.12">B</tspan></text>
<text fill="#231f20" xml:space="preserve" transform="matrix(1 0 -0 1 -18 802.8)" font-size="7.69999" font-family="Bookman"><tspan y="-729.361" x="521.04 523.4336 529.3692 533.76486 539.70046 545.63607">IOLOGY</tspan></text>
<path transform="matrix(.23999998,0,0,-.23999998,-18,.35998536)" stroke-width="1" stroke-linecap="butt" stroke-miterlimit="10" stroke-linejoin="miter" fill="none" stroke="#000000" d="M0 0H60"/>
<path transform="matrix(.23999998,0,0,-.23999998,.12000084,-18)" stroke-width="1" stroke-linecap="butt" stroke-miterlimit="10" stroke-linejoin="miter" fill="none" stroke="#000000" d="M0 0V-60"/>
<path transform="matrix(.23999998,0,0,-.23999998,-18,784.68)" stroke-width="1" stroke-linecap="butt" stroke-miterlimit="10" stroke-linejoin="miter" fill="none" stroke="#000000" d="M0 0H60"/>
<path transform="matrix(.23999998,0,0,-.23999998,.12000084,788.16)" stroke-width="1" stroke-linecap="butt" stroke-miterlimit="10" stroke-linejoin="miter" fill="none" stroke="#000000" d="M0 0V-60"/>
<path transform="matrix(.23999998,0,0,-.23999998,593.64,784.56)" stroke-width="1" stroke-linecap="butt" stroke-miterlimit="10" stroke-linejoin="miter" fill="none" stroke="#000000" d="M0 0V-75"/>
<text fill="#00aeef" xml:space="preserve" transform="matrix(1 0 -0 1 -18 802.8)" font-size="13" font-family="Bookman"><tspan y="-691.2" x="193.44 201.7269 210.0138 214.1407 235.44">13.2D</tspan></text>
<text fill="#00aeef" xml:space="preserve" transform="matrix(1 0 -0 1 -18 802.8)" font-size="9.1" font-family="Bookman"><tspan y="-691.2" x="246.48 250.1193 256.30659 262.49388 269.04518 276.14247 282.69377 289.42707 295.79637 299.43568 305.98698 312.35627 315.99559 323.27488">IFFERENTIATION</tspan></text>
<text fill="#00aeef" xml:space="preserve" transform="matrix(1 0 -0 1 -18 802.8)" font-size="13" font-family="Bookman"><tspan y="-691.2" x="330 334.9856 338.8212">, D</tspan></text>
<text fill="#00aeef" xml:space="preserve" transform="matrix(1 0 -0 1 -18 802.8)" font-size="9.1" font-family="Bookman"><tspan y="-691.2" x="348.96 355.5774 362.74079 366.44618 372.69956 378.95295 385.57035 392.73374 399.35115 406.1505 412.5859 416.2913 422.9087 429.3441 433.04948 440.39488">EDIFFERENTIATION</tspan></text>
<text fill="#00aeef" xml:space="preserve" transform="matrix(1 0 -0 1 -18 802.8)" font-size="13" font-family="Bookman"><tspan y="-691.2" x="447.12"> </tspan></text>
<text fill="#00aeef" xml:space="preserve" transform="matrix(1 0 -0 1 -18 802.8)" font-size="9.1" font-family="Bookman"><tspan y="-691.2" x="450.48 457.5209 464.7438">AND</tspan></text>
<text fill="#00aeef" xml:space="preserve" transform="matrix(1 0 -0 1 -18 802.8)" font-size="13" font-family="Bookman"><tspan y="-675.6" x="235.44">R</tspan></text>
<text fill="#00aeef" xml:space="preserve" transform="matrix(1 0 -0 1 -18 802.8)" font-size="9.1" font-family="Bookman"><tspan y="-675.6" x="245.28 251.8014 258.8688 262.4782 268.63563 274.79304 281.31446 288.38188 294.9033 301.6067 307.9461 311.5555 318.07695 324.41636 328.02577 335.27519">EDIFFERENTIATION</tspan></text>
<text fill="#231f20" xml:space="preserve" transform="matrix(1 0 -0 1 -18 802.8)" font-size="10.5" font-family="Bookman"><tspan y="-648.961" x="193.44 200.0464 207.0728 212.6292 217.7633 223.3197 228.8761 232.1225 235.3689 240.9253 246.0594 252.6658 258.2222 262.9386 266.185 271.7414 277.2978 283.9042 289.0383 292.4947 297.2111 303.1875 313.1539 318.288 323.0044 328.9808 334.9572 339.0436 344.1777 350.3641 356.97053 360.21693 365.77333 371.95973 375.20613 380.3402 386.5266 393.553 400.15943 405.29353 410.8499 417.8763 423.85273 429.82914 433.91554 438.2119 444.39833 451.00474 454.25114 459.80754 465.99394 469.24034 474.37443 484.34083 489.89723 494.61363 497.86003 503.4164 507.5028 513.0592 523.02566 528.58206 533.7161 539.9025 546.92898">The cells derived from root apical and shoot-apical meristems and</tspan><tspan y="-635.041" x="193.44 198.809 204.80802 214.58702 221.00603 224.06504 231.11403 240.89304 243.32315 249.74216 252.80117 256.07017 259.33918 264.70817 269.23716 274.60615 281.44514 285.34413 288.4031 294.4021 298.3011 303.67008 306.1002 312.09919 318.93818 325.35719 327.7873 337.56629 343.56529 347.46427 354.51329 359.04228 364.41127 366.84138 370.74037 376.52937 378.95948 385.37849 390.74748 395.27647 398.54548 404.33448 408.86347 418.64247 421.07258 426.44157 432.86058 438.22956 443.59855 446.65754 449.92655 452.98554 458.35453 460.78465 464.05366 471.10267 477.94166 483.31065 487.20964 490.26863 496.05763 502.8966 508.2656 511.5346 513.9647 520.3837 527.2227 530.28176 535.65078 538.0809 544.0799 549.4489">cambium differentiate and mature to perform specific functions. This act</tspan><tspan y="-620.881" x="193.44 196.40822 201.68643 207.59464 213.92285 216.89107 223.63928 229.12749 231.4807 235.28891 240.98712 243.34033 253.02855 258.93678 262.74497 269.7032 274.1414 280.0496 283.8578 286.826 292.5242 299.2724 301.62565 304.59385 309.87205 312.22529 316.03349 321.31169 325.74989 335.43809 340.71629 347.0445 349.39775 355.30595 360.58415">leading to maturation is termed as </tspan></text>
<text fill="#231f20" xml:space="preserve" transform="matrix(1 0 -0 1 -18 802.8)" font-size="10.5" font-family="Bookman"><tspan y="-620.881" x="362.88 369.315 372.81 376.51499 380.21998 386.02497 390.56999 396.37498 403.22999 407.775 411.27 417.07499 421.62 425.115 431.34">differentiation</tspan></text>
<text fill="#231f20" xml:space="preserve" transform="matrix(1 0 -0 1 -18 802.8)" font-size="10.5" font-family="Bookman"><tspan y="-620.881" x="438.24 441.4133 443.7366 451.9499 458.9032 463.3365 466.29978 473.04307 478.52638 480.84968 487.17298 490.13627 493.30958 496.48289 501.7562 506.18949 511.4628 518.2061 522.0094 524.9727 530.87606 534.6793 537.64266 543.33596 550.0792">. During differentiation,</tspan><tspan y="-606.961" x="193.44 198.82271 204.20542 207.2781 210.3508 215.7335 218.17871 225.24141 232.09412 238.52681 243.90952 248.45221 254.0449 259.8476 262.29283 265.57554 270.95823 279.07093 281.51615 285.42884 291.23155 293.67677 303.46946 309.48216 312.55485 318.35755 322.90025 325.34547 330.72816 334.64085 339.18354 346.24626 351.62895 355.54164 362.60435 367.14704 373.15974 376.23243 378.67765 384.06034 390.91304 396.92573 403.7784 409.37113 414.7538 420.1365 422.58174 429.01445 434.81715 438.72984 445.58253 448.02775 451.10044 457.95314 460.39836 464.31105 471.16374 476.54643 479.6191 484.1618 486.60704 491.98973 497.3724 500.4451 503.5178 505.963 514.0757 520.0884 523.1611 526.23379 531.61648 534.0617 540.0744 546.9271">cells undergo few to major structural changes both in their cell walls and</tspan><tspan y="-593.041" x="193.44 199.94712 204.56423 210.44133 214.42844 220.30554 226.81266 229.95977 236.04688 241.50399 251.3711 254.72821 258.09034 264.80744 270.68455 275.30165 278.66377 284.12089 289.998 296.08509 305.9522 312.45933 315.60646 321.06358 324.4207 327.7828 331.76994 337.64704 341.00917 344.36628 350.24339 354.86048 364.7276 368.08973 374.17683 377.53895 381.52607 386.14317 392.23027 397.68739 404.6145 410.07164 416.15873 420.77583 426.44294 429.80506 435.26219 438.4093 443.86643 453.73353 459.19065 466.11778 470.1049 473.462 476.82414 480.81126 487.73838 493.1955 496.55763 502.01475 507.47187 510.61897 513.76608 519.22317 522.58529 530.7724 536.64956 543.7866 546.9337">protoplasm. For example, to form a tracheary element, the cells would</tspan><tspan y="-578.881" x="193.44 197.00789 203.30579 209.18367 215.06156 220.51715 224.92505 232.27294 238.15082 241.7187 246.75659 252.21219 259.14009 264.17799 270.47587 274.88377 281.18165 288.10954 291.67744 298.18534 304.06324 314.35115 318.12904 323.58464 330.5125 337.8604 343.7383 349.8262 355.2818 361.7897 365.3576 371.2355 377.5334 382.98899 389.91688 395.79478 401.67268 407.55058 411.11848 417.41636 424.34425 429.79985 436.30775 441.76335 447.64125 453.51914 458.55705 464.64494 470.10054 475.97843 480.38633 485.42424 491.7221 499.07 505.1579 508.9358 514.39138 520.2692 523.8371 530.345 536.22286 540.63076 544.1986 550.0765">lose their protoplasm. They also develop a very strong, elastic,</tspan><tspan y="-564.961" x="193.44 196.53342 199.62683 205.24024 212.11365 217.93706 223.34047 228.74388 231.8373 234.93071 242.01412 245.10753 250.93094 256.33436 259.42778 264.83119 267.2996 272.703 278.1064 283.50984 289.33326 296.20668 302.66007 308.69349 313.2569 318.8703 321.3387 326.74214 332.14555 335.23896 338.33238 340.80079 348.9342 354.96763 358.06105 361.15446 366.55787 369.86128 372.32969 376.2631 382.0865 384.5549 389.9583 395.99174 400.55516 405.11857 410.73197 413.20039 421.3338 427.36723 431.30064 436.70405 441.26747 443.73588 447.66929 453.49269 455.9611 459.0545 464.87794 471.75135 477.36476 479.83317 486.28657 489.37998 494.7834 498.7168 504.7502 511.62364 517.02706 522.4304 527.8338 530.3022 535.70559 541.10897 546.5123">lignocellulosic secondary cell walls, to carry water to long distances even</tspan><tspan y="-551.041" x="193.44 200.5643 207.4786 213.9729 219.4172 224.0215 226.5769 232.02121 237.88552 241.85982 246.72 252.18599 262.06199 267.52799 270.1051 274.1011 279.5671 286.5031 291.96913 295.1251 301.01109 307.94709 311.31309 313.8902 320.64 325.2553 330.92063 333.48707 337.47239 343.3477 345.91413 351.36946 357.24476 361.86006 366.475 371.9334 375.08183 381.17024 385.15864 390.61705 393.18656 397.17497 404.10337 409.56178 412.1313 417.5897 423.6781 428.2965 431.44493 437.3233 444.4617 449.9201 452.48963 458.57804 465.50645 471.59486 475.58326 481.46165 491.33006 494.47846 499.93687 506.02528 509.17369 511.74324 515.1016 520.56 526.6484 530.6368 537.7752 542.64 547.98007">under extreme tension. Try to correlate the various anatomical features</tspan><tspan y="-536.881" x="193.44 199.10341 204.9768 212.1102 214.6261 220.0795 227.0029 232.4563 238.3297 245.4631 252.3865 256.3699 261.8233 266.4367 268.9526 272.096 279.0194 281.5353 288.0387 291.1821 297.2655 304.1889 308.1723 313.6257 316.1416 320.125 325.9984 328.5143 332.4977 339.4211 344.8745 347.3904 350.7438 357.8772 364.8006 370.254 374.2374 377.3808 383.2542 390.1776 395.631 398.1469 402.1303 409.0537 414.5071 420.1705 422.6864 429.1898 434.6432 439.2566 442.61 448.4834 453.0968 462.9602">you encounter in plants to the functions they perform.</tspan><tspan y="-522.961" x="211.44 217.75061 220.70122 226.59181 233.32242 237.11302 242.37363 244.69853 249.95914 256.68974 262.37034 270.36094 272.68586 278.57646 285.30705 290.98765 294.77824 301.50883 306.7694 311.19 313.51493 316.4655 323.1961 326.9867 332.24729 336.66789 341.92848 347.18907 350.97966 353.93025 360.66084 366.13145 368.45637 374.76698 381.49757 386.75816 393.48875 399.16935 408.83995 414.10054 420.83113 426.51173 433.2423 436.40293 438.72785 445.03846 451.76905 457.02964 459.35456 462.30516 465.25575 470.51634 473.46693 480.1975 485.66813 487.99305 494.30366 497.25425 500.41487 503.57548 508.83607 513.25668 518.5173 525.24789 529.03848 531.9891 537.8797 541.6703 546.9309">Plants show another interesting phenomenon. The living differentiated</tspan><tspan y="-509.041" x="193.44 198.85231 204.26462 207.36693 210.46924 215.88155 219.19387 221.66779 225.61009 232.4924 238.53472 242.47702 244.95095 251.41326 257.03556 259.5095 266.3918 272.22413 280.36643 282.84037 289.7227 295.76499 301.1773 306.58964 309.06358 312.1659 317.9982 323.41053 327.35285 329.82679 333.7691 340.65144 346.06376 348.5377 353.95 359.9923 366.45463 372.49693 377.90925 381.01155 384.95387 390.57618 393.0501 396.99244 402.82475 405.29869 411.761 414.86329 420.2756 423.37794 429.84025 435.25257 437.7265 443.13883 449.18113 456.06346 458.53739 463.10969 468.522 474.14433 480.1866 483.28895 490.17127 492.6452 496.58753 503.46986 508.88218 511.35609 516.7684 522.81069 529.27297 535.31527 540.72756 543.82986 547.77218">cells, that by now have lost the capacity to divide can regain the capacity</tspan><tspan y="-494.881" x="193.44 199.3195 202.679 207.4718 213.98131 217.13082 222.59032 225.73983 231.19933 234.34883 240.22834 247.15784 251.95064 259.09016 266.01966 272.52915 277.98866 282.60816 287.40095 292.86045 298.31996 302.93946 306.92897 313.01847 316.16798 323.09748 327.89027 333.34977 339.22926 346.15876 352.66825 355.81776 359.80726 362.95677 368.83625 375.76576 381.22526 384.58476 389.37754 395.88703 402.81654 405.96604 411.42555 416.21833 422.7278 429.65733 435.11683 442.04634 447.9258 457.79533 463.25483 470.18434 476.0638 482.99333 487.7861 490.9356 496.3951 501.1879 505.1774 510.6369 515.2564 525.1259 530.5854 537.0949 541.8877 547.9772">of division under certain conditions. This phenomenon is termed as</tspan></text>
<text fill="#231f20" xml:space="preserve" transform="matrix(1 0 -0 1 -18 802.8)" font-size="10.5" font-family="Bookman"><tspan y="-480.961" x="193.44 199.98001 205.89002 212.43003 216.03003 219.84004 223.65006 229.56006 234.21007 240.12007 247.08008 251.73009 255.3301 261.2401 265.89015 269.49015 275.82017">dedifferentiation</tspan></text>
<text fill="#231f20" xml:space="preserve" transform="matrix(1 0 -0 1 -18 802.8)" font-size="10.5" font-family="Bookman"><tspan y="-480.961" x="282.96 286.2222 288.6487 295.27095 301.05314 305.57536 308.00187 313.36408 319.14628 325.1385 334.9107 341.3229 344.37513 349.73735 352.99955 355.42607 358.68827 364.47047 368.99269 378.7649 384.7571 388.64933 391.70155 397.48374 404.31596 406.74247 412.52467 415.78688 418.21339 427.9856 433.3478 437.87004 440.92225 446.28446 450.17668 455.53889 465.3111 470.6733 473.09983 478.25205 480.67857 483.73078 490.563 494.4552 499.8174 504.33964 507.60185 513.59408 518.95626 524.3184 527.3706 532.7328 539.775 542.8272 548.8194">. For example, formation of meristems &#x2013; interfascicular</tspan><tspan y="-467.041" x="193.44 198.8661 204.92221 214.75832 221.23442 224.35053 231.45662 241.29273 243.78133 249.83744 256.73353 263.20964 265.69825 271.12434 276.97044 281.55653 288.03263 290.52125 295.94734 302.00343 311.8395 318.3156 321.4317 328.5378 338.3739 340.86253 344.18864 348.77473 354.62083 364.4569 366.94554 370.27165 377.37776 380.49385 383.60993 389.24604 391.73466 398.21076 401.32685 404.65296 407.97908 413.40516 417.99125 423.41734 430.31343 434.2695 437.3856 443.44169 447.39778 452.82386 459.29997 461.78858 468.26469 474.32078 478.90687 484.33296 491.22904 496.65513 503.5512 509.18733 519.02346 525.0795 527.5682 532.99429 538.42037 541.53646 544.6525 550.0786">cambium and cork cambium from fully differentiated parenchyma cells.</tspan><tspan y="-452.881" x="193.44 203.5169 210.44382 213.59073 216.73764 222.19455 225.11646 231.62337 237.50028 240.64719 247.5741 253.24102 256.16294 261.61985 267.49678 270.85368 273.77558 279.23249 286.3694 291.8263 298.7532 301.6751 311.54203 316.99894 321.61585 324.76277 330.21968 334.20658 339.66349 349.5304 354.9873 361.2842 365.27113 368.41804 373.87495 379.33186 386.46876 391.92567 397.38258 400.30448 406.3914 411.0083 416.4652 419.38713 425.47404 431.98094 435.12785 440.58476 443.50666 447.49357 453.37049 456.2924 462.7993 465.9462 471.4031 474.55003 481.05693 486.51383 489.43574 495.52265 502.44956 508.95646 511.87837 518.38528 523.00216 528.879 535.3859 542.5228 547.97976">While doing so, such meristems/tissues are able to divide and produce</tspan><tspan y="-438.961" x="193.44 198.89832 204.35663 207.50495 210.65326 216.11157 219.51988 223.5082 230.43651 236.52483 240.51314 243.92145 249.79976 256.72807 262.18638 267.64469 271.05299 277.1413 282.8096 288.89793 292.04624 298.97456 302.38285 305.53117 311.40946 316.86778 322.32609 325.73439 329.7227 336.651 342.1093 345.5176 350.97593 357.06425 363.57255 369.66087 375.11918 378.2675 382.2558 387.9241 391.3324 395.3207 401.199 404.6073 411.1156 414.26393 419.72224 422.87055 429.37886 434.83717 438.24546 444.75376 451.89207 455.88038 459.28868 469.15699 475.2453 479.2336 486.37193 490.99024 496.44856 499.85685 503.84516 509.72346 513.1318 519.6401 525.0984 529.7167 533.075 538.9533 543.5716">cells that once again lose the capacity to divide but mature to perform</tspan><tspan y="-425.041" x="193.44 198.8607 205.3314 210.7521 216.1728 219.28351 222.6042 225.7149 231.1356 233.6313 236.952 244.05269 250.94339 256.3641 260.31483 263.4255 269.2662 276.1569 281.5776 284.89833 287.39405 290.50474 293.82545 299.24617 302.56687 305.88758 308.3833 314.014 319.43473 323.38545">specific functions, i.e., get </tspan></text>
<text fill="#231f20" xml:space="preserve" transform="matrix(1 0 -0 1 -18 802.8)" font-size="10.5" font-family="Bookman"><tspan y="-425.041" x="325.92 330.64 336.62004 343.23 346.90003 350.78004 354.66004 360.64006 365.36006 371.34007 378.37007 383.09007 386.76008 392.74009 397.46009 403.4401">redifferentiated</tspan></text>
<text fill="#231f20" xml:space="preserve" transform="matrix(1 0 -0 1 -18 802.8)" font-size="10.5" font-family="Bookman"><tspan y="-425.041" x="410.16 413.4807 415.95863 422.21934 425.33003 430.75074 434.70146 437.17936 442.60008 448.44078 458.27146 463.69218 466.17008 472.01078 475.33149 477.8094 481.7601 488.6508 494.0715 496.5494 500.50013 503.6108 509.03153 514.4522 521.5529 526.97366 532.39437 534.87228 537.983 544.87368 547.35159">. List some of the tissues in a</tspan><tspan y="-410.881" x="193.44 201.6299 207.5098 213.3897 219.8996 225.5695 229.4106 235.9205 239.0704 244.5303 250.4102 254.4001 260.07 263.2199 268.6798 275.1897 280.6496 287.5795 293.4594 300.5993 306.0592 309.9003 316.4102 319.5601 325.65 332.5799 336.5698 340.4109 344.4008 351.3307 357.4206 361.4105 365.2516 371.3415 375.9614 381.4213 385.2624 389.2523 396.1822 401.6421 405.4832 411.99308 416.61299 422.4929 429.00279 436.14268 441.60258 445.59248 451.05238 454.89347 460.77339 464.13328 467.97438 472.59428 478.05418 484.56407 487.71397 491.07386 494.43376 499.89366 504.51356 509.97346 516.9033 520.89328 524.04318 530.13308 534.123 537.2729 543.1528 550.08267">woody dicotyledenous plant that are the products of redifferentiation.</tspan><tspan y="-396.961" x="193.44 201.72891 207.49782 215.57672 217.98934 226.06824 231.83715 238.86606 241.90497 248.30388 250.71649 256.2754 262.0443 269.0732 271.4858 277.8847 283.2336 288.58253 293.93144 298.44035 301.47926 307.87815 313.22706 315.63966 321.61857 324.03117 327.91007 334.93898 344.69789 350.4668 357.4957 362.0046 367.5635 369.9761 379.945 386.76393 392.74284 396.62174 399.03434 407.11326 412.88218 419.91108 422.94999 429.34889 431.76148 437.32038 443.0893 450.1182 452.5308 457.8797 463.8586 466.89753 469.93644 472.34904 476.22795 483.04685 488.39576 490.80836 497.20726 503.18617 507.69508 513.044 519.8629 525.21188 532.03079 537.58969 547.3486">How would you describe a tumour? What would you call the parenchyma</tspan><tspan y="-383.041" x="193.44 198.7015 203.96302 206.91452 209.86603 215.12754 217.45403 221.24553 227.97704 233.86853 237.66004 239.98653 245.87802 250.29952 255.56102 257.88755 267.55906 273.45057 279.76206 285.02357 287.35008 291.14158 296.82307 299.14958 305.46107 308.41258 313.67408 316.62559 322.93708 328.19859 330.5251 337.46659 344.1981 350.50959 355.7711 360.1926 362.5191 367.7806 373.4621 380.1936 383.9851 388.40663 394.0881 397.0396 399.99113 405.25263 411.56413 413.89064 416.84214 422.73365 429.04515 434.72663 439.14814 445.03965 448.83116 454.51264 458.93415 464.40565 466.73216 471.99366 477.67515 484.40666 490.71815 493.66966 497.46116 500.41267 506.09416 512.8256 518.0871 520.4136 526.7251 533.6666 538.08816 541.0396 547.7711">cells that are made to divide under controlled laboratory conditions during</tspan><tspan y="-369.121" x="193.44 199.9425 203.085 209.16751 216.09001 220.07251 222.6 226.5825 229.725 235.1775 240.63 247.76251 253.21501 255.74251 261.195 268.3275 271.47 275.4525 282.58503 287.1975 292.65003">plant tissue culture?</tspan><tspan y="-354.961" x="211.44 218.84592 224.15183 229.45774 235.39365 238.38956 241.38547 244.59139 246.961 249.95691 256.73283 259.10243 265.87834 271.18424 276.49015 280.32606 283.32197 289.04789 295.8238 298.1934 304.5493 310.90519 314.11109 320.46699 323.67289 330.02879 333.23469 335.60429 343.6402 348.9461 351.3157 358.0916 364.02754 369.33345 374.63935 377.00895 386.72486 392.03077 398.80668 402.64259 405.6385 411.3644 418.14033 423.44624 429.80213 432.17173 436.00764 442.78355 448.71946 452.55537 454.92497 458.76087 465.53678 470.84269 473.21229 478.72819 483.1941 488.92 496.95594 500.79185 507.56776 509.93736 512.9332 519.70919 522.0788 528.4347 531.4306 537.3665 544.14248 547.9784">Recall, in Section 13.1.1, we have mentioned that the growth in plants</tspan><tspan y="-341.041" x="193.44 196.43451 201.73902 204.10512 209.82962 216.18413 221.48863 228.26314 231.46764 233.83374 236.82825 240.03275 245.33725 248.54175 251.74625 254.11235 257.10685 260.94136 263.30747 268.61198 274.54649 281.32099 283.6871 290.0416 295.3461 297.71223 300.70674 307.48124 313.83573 319.14024 322.97474 328.27925 332.74375 342.45826 345.45277 352.22727 358.16178 361.99629 367.30079 369.6669 375.3914 379.8559 382.22203 388.5765 393.881 397.7155 403.02003 407.48454 417.19905 420.19355 426.96806 432.90257 436.73707 442.04158 445.24607 447.61219 455.22669 460.95118 468.98567 472.19017 474.55628 482.59077 487.89527 490.26139 499.9759 505.9104 511.4249 513.791 519.0955 525.03 530.54458 532.9107 536.7452 543.51968 549.45419">is open, i.e., it can be indeterminate or determinate. Now, we may say that</tspan><tspan y="-327.121" x="193.44 198.79932 204.15863 209.51795 216.34726 218.77156 225.18088 228.2302 231.4895 234.74881 240.10813 244.62744 249.98676 256.81608 260.70539 263.7547 269.74403 273.63334 276.68266 282.46195 289.29127 291.71559 294.7649 301.5942 304.01853 310.42784 313.47715 319.46647 326.29579 330.1851 335.5444 337.96873 341.01805 346.37736 348.80168 354.58097 360.99028 366.34959 373.1789 376.4382 378.86253 385.27183 390.63114 395.99046 401.97978 409.01908 414.3784 419.7377 422.16203 427.52134 432.88066 435.92997 438.97929 444.3386 450.5379 454.42723 457.47654 462.83586 468.19517 475.23448 480.59379 485.9531 488.3774 494.36674 498.88606 501.93537 507.29469 510.344 517.1733 522.7426 525.16696 530.9462 537.98556 541.8748 544.29916 550.0784">even differentiation in plants is open, because cells/tissues arising out of</tspan><tspan y="-312.961" x="193.44 197.48941 204.4788 209.9982 215.0953 220.6147 226.7641 236.6935 242.21289 247.31 257.2394 262.75883 267.43824 270.64765 276.16706 280.21647 285.73588 295.66529 300.7624 307.7518 313.9012 319.42063 324.94004 330.03715 336.60655 339.81596 343.23536 346.65476 352.17417 356.85359 362.373 369.3624 373.4118 378.5089 384.02833 388.07774 392.75715 399.95655 405.47596 409.52537 416.72477 421.40419 426.92359 432.443 437.5401 443.6895 447.73893 452.83604 462.76545 468.91487 472.96427 480.16368 484.84309 488.0525 492.1019 497.8313 501.2507 506.3478 512.91726 519.9066 525.426 530.5231 533.94247 537.15188 544.14126 550.29067">the same meristem have different structures at maturity. The final</tspan><tspan y="-299.041" x="193.44 198.79682 202.68363 207.20044 214.23725 219.59406 223.48087 230.51767 235.03449 240.3913 242.81061 248.79743 252.68424 255.10355 264.87037 270.85719 274.744 281.7808 286.2976 289.34443 293.23124 298.79804 301.21736 306.99418 310.25099 312.6703 318.6571 321.07643 326.43324 331.79005 334.83686 337.88368 344.08049 347.9673 351.0141 356.3709 361.72773 368.76454 374.12135 376.54066 379.58747 384.94429 387.3636 393.3504 396.39723 401.75404 407.53086 409.95018 416.35697 421.71379 425.6006 430.9574 435.4742 445.24104 448.28785 455.11466 460.47148 466.87828 469.29759 475.70439 481.27119 483.6905 487.5773 494.4041 499.76094 502.18025 505.22706 511.00389 516.36068 522.3475 526.23428 529.28109 535.05789 541.88467 544.304 550.0808">structure at maturity of a cell/tissue is also determined by the location of</tspan><tspan y="-285.121" x="193.44 197.4473 204.39459 209.87189 214.9242 220.40149 225.87879 229.04608 232.21338 237.26569 245.47299 248.64029 252.64759 259.59489 262.76219 269.70948 273.08677 278.13905 284.87635 290.77366 295.41096 300.46324 305.94053 311.83784 317.94514 327.83244 334.35975 337.52705 343.00434 346.38163 351.4339 356.9112 362.3885 365.5558 368.72309 374.20039 379.25267 385.77998 391.67729 397.15458 400.32188 404.32917 407.49647 413.39378 420.34107 425.81837 432.34568 437.39796 443.50526 451.71257 457.81986 463.50715 468.55943 471.9367 476.574 482.4713 492.3586 497.4109 502.0482 507.9455 513.8428 517.8501 522.9024 529.0097 535.537 538.7043 544.1816 550.2889">the cell within. For example, cells positioned away from root apical</tspan><tspan y="-270.961" x="193.44 203.3206 208.7912 213.4218 216.5824 222.053 226.05359 231.52419 241.40479 246.87538 251.92369 258.4443 261.60493 264.97554 268.34614 273.81675 278.44737 283.91798 290.85859 294.8592 298.0198 304.1204 308.121 313.5916 318.63993 324.7405 330.21113 335.25944 339.89006 345.78065 351.67124 355.67185 359.88246 365.35307 371.45365 377.97425 383.02256 388.49317 393.96379 397.1244 400.285 405.7556 409.12623 414.17454 422.37513 429.31575 432.47636 435.63697 441.10758 446.15589 450.1565 457.0971 462.9877 468.4583 473.92893 478.97724 485.49784 492.64845 498.11906 505.05967 510.53028 517.0509 522.0992 526.0998 531.9904 537.0387 541.0393 547.9799">meristems differentiate as root-cap cells, while those pushed to the</tspan><tspan y="-257.041" x="193.44 199.94452 205.39904 210.01355 213.15807 219.66259 226.5871 232.04161 236.65613 242.32064 246.36144 256.22596 262.31047 266.29496 273.42948 278.04399 283.49848 287.53929 293.62379 299.07829 303.11909 308.57359 315.0781 318.2226 324.7271 330.1816 334.7961 344.6606 347.8051 353.2596 356.61415 360.65495 368.41944 374.50395 381.42845 385.46925 391.13377 397.00828 404.1428 408.1836 414.2681 420.7726 427.27714 431.31794 437.40245 441.44325 444.79777 450.25227 458.43678 462.47758 472.34208 478.21659 482.8311 488.28559 492.3264 497.78089 503.6554 509.7399 519.60446 526.10897 529.2535 534.708 540.16256 544.2033 550.0778">periphery mature as epidermis. Can you add a few more examples of</tspan><tspan y="-243.121" x="193.44 199.3069 205.8038 211.2507 218.1676 220.6761 227.173 230.3099 233.6568 237.0037 242.45059 247.0575 252.5044 259.4213 263.3982 266.5351 272.612 276.5889 279.7258 285.5927 292.5096 295.01814 300.46504 306.33195 310.93885 315.54576 320.99266 324.12956 330.20646 334.18336 337.32026 344.23716 349.89405 352.40257 356.37947 363.29637 368.74327 371.25178 377.74867 383.61558 389.06248 392.19938 396.17628 399.31318 405.18009 412.097 414.6055 420.4724 423.8193 426.32783 432.40473 434.91325 440.36015 445.80705 448.94395 452.08085 454.58937 458.56626 464.43318 466.94169 469.4502 472.5871 476.564 482.0109 484.5194 491.0163 496.8832 502.3301 505.467 509.4439 512.5808 518.4477 525.36459 527.8731 531.01 537.9269 540.4354 546.5123">open differentiation correlating the position of a cell to  its position in an</tspan><tspan y="-228.961" x="193.44 199.40399 204.10799 209.86197 216.03597 223.04996">organ?</tspan></text>
<text fill="#00aeef" xml:space="preserve" transform="matrix(1 0 -0 1 -18 802.8)" font-size="13" font-family="Bookman"><tspan y="-195.841" x="193.44 201.7269 210.0138 214.1407 235.44 239.70059">13.3 D</tspan></text>
<text fill="#00aeef" xml:space="preserve" transform="matrix(1 0 -0 1 -18 802.8)" font-size="9.1" font-family="Bookman"><tspan y="-195.841" x="250.08 256.8175 263.555 270.29249 276.30198 283.7675 289.95899 298.6985 305.43598 312.35548">EVELOPMENT</tspan></text>
<text fill="#231f20" xml:space="preserve" transform="matrix(1 0 -0 1 -18 802.8)" font-size="10.5" font-family="Bookman"><tspan y="-169.441" x="193.44 201.8388 207.2976 212.75641 218.21521 221.36402 227.24282 233.75162 243.62042 249.07923 256.00804 259.99684 262.91023 266.05903 271.51783 274.4312 280.52003 283.4334 287.4222 292.881 297.49983 307.36863 310.282 314.2708 321.19963 327.28843 331.27723 334.1906 337.33943 344.26823 349.72703 352.87583 360.01463 366.5234 371.9822 377.441 380.3544 386.4432 389.592 392.7408 395.6542 401.113 408.0418 414.1306 421.05943 426.7282 432.187 437.6458 440.5592 444.548 451.4768 457.5656 461.5544 464.4678 470.5566 477.4854 480.3988 486.27763 490.89643 496.56523 502.65403 509.58283 512.7316 518.1904 528.0592 530.97268 536.6415 542.52029 547.97909">Development is a term that includes all changes that an organism goes</tspan><tspan y="-155.521" x="193.44 197.42151 204.34302 208.95453 214.82604 221.95755 227.61907 234.54058 237.05579 243.5573 250.68881 255.30033 258.44184 265.36335 271.02485 273.54005 276.68156 280.66307 286.11457 288.62977 291.77128 294.91279 298.26429 303.7158 306.231 311.6825 317.344 322.7955 325.937 331.38853 333.90373 337.25523 341.86674 347.73826 357.59977 360.11497 365.77647 371.22798 375.83949 385.701 388.8425 395.764 401.84553 405.82704 408.96855 414.84007 421.76158 424.27677 430.1483 433.4998 436.01499 439.9965 446.918 452.3695 454.8847 460.3362 465.78773 471.23924 477.74073 480.25593 484.23744 490.10896 492.62416 498.07566 503.52717 510.44868 515.9002 521.35177 526.8033 532.2548 539.17636 544.62789 550.0794">through during its life cycle from germination of the seed to senescence.</tspan><tspan y="-141.361" x="193.44 202.0856 205.4812 211.8168 217.7324 222.598 228.93361 239.04921 249.16481 255.50041 259.73603 263.13163 268.83723 274.1213 278.9869 284.6925 291.44813 296.31373 302.01933 307.7249 313.4305 320.6061 324.8417 331.1773 335.4129 338.8085 344.9341 352.1097 357.3938 363.5194 367.125 372.4091 376.64469 383.82029 389.52589 394.80998 400.51557 406.22117 412.55677 419.94236 425.64796 432.82356 438.52915 444.23475 449.51884 455.64445 459.25004 464.53413 471.28974 476.15534 482.28096 487.98655 493.69215 499.39775 505.10334 510.80894 516.5145 521.7986 530.2342 537.4098 540.8054 546.51107">Diagrammatic representation of the sequence of processes which</tspan><tspan y="-127.441" x="193.44 198.89832 204.77663 211.70494 217.16326 221.15157 224.29988 228.2882 235.4265 239.41481 244.87313 248.11603 252.10434 259.03266 264.49098 267.7339 274.2422 279.7005 285.1588 290.61714 293.76545 299.64375 306.15205 316.02037 321.47868 328.40699 332.3953 335.6382 341.5165 344.87483 348.11775 354.20606 357.44898 362.9073 368.3656 371.51393 374.66224 377.90516 383.78346 387.14176 390.38468 396.473 399.7159 406.64424 409.79255 415.46086 422.38917 427.84748 432.4658 435.7087 442.217 445.36534 451.45365 458.38197 462.37028 465.6132 468.7615 474.21983 477.46275 483.13105 486.27937 491.73768 497.19599 504.1243 507.36723 510.51554 517.44387 520.68679 527.4051 530.5534 536.22177 543.36007 547.97836">constitute the development of a cell of a higher plant is given in Figure</tspan><tspan y="-113.521" x="193.44 199.9482 206.45639 209.81459 216.32279 219.68099 222.22249 225.7907 229.7789 232.3204 235.4686 240.9268 243.4683 249.5565 252.7047 258.1629 264.0411 266.5826 272.6708 279.17903 285.68724 288.83543 291.9836 297.4418 303.53 310.0382 313.1864 318.6446 321.18614 325.17433 331.05253 333.59403 337.5822 340.7304 346.1886 351.6468 358.785 364.2432 369.7014 375.99958 381.87779 386.49598 392.16419 398.25239 405.18058 410.63877">13.8. It is also applicable to tissues/organs.</tspan></text>
<g clip-path="url(#clip_641)">
<text xml:space="preserve" transform="matrix(1 0 -0 1 259.314 763.9998)" font-size="8" font-family="Arial"><tspan y="6.316" x="0"> </tspan></text>
</g>
</g>
</svg>
