<svg xmlns="http://www.w3.org/2000/svg" xmlns:xlink="http://www.w3.org/1999/xlink" xmlns:inkscape="http://www.inkscape.org/namespaces/inkscape" version="1.1" width="576" height="784.8" viewBox="0 0 576 784.8">
<defs>
<clipPath id="clip_1182">
<path transform="matrix(1,0,0,-1,-18,802.8)" d="M18 18H594V802.8H18Z" clip-rule="evenodd"/>
</clipPath>
<clipPath id="clip_1183">
<path transform="matrix(1,0,0,-1,259.314,763.9998)" d="M0-8H57.372V.800049H0Z"/>
</clipPath>
</defs>
<g clip-path="url(#clip_1182)">
<path transform="matrix(.23999998,0,0,-.23999998,-18,802.8)" d="M2 2H2548V214.67H2Z" fill="#cbdf7f" fill-rule="evenodd"/>
<path transform="matrix(.23999998,0,0,-.23999998,-18,802.8)" stroke-width="4" stroke-linecap="butt" stroke-miterlimit="1000" stroke-linejoin="miter" fill="none" stroke="#cbdf7f" d="M2 2H2548V214.67H2Z"/>
<path transform="matrix(.23999998,0,0,-.23999998,-18,802.8)" d="M0 3035.83H2550V3372.7003H0Z" fill="#d1d3d4" fill-rule="evenodd"/>
<path transform="matrix(.23999998,0,0,-.23999998,-18,802.8)" d="M0 3078.33H2550V3420H0Z" fill="#e1ecb6" fill-rule="evenodd"/>
<path transform="matrix(.23999998,0,0,-.23999998,62.63616,53.635194)" d="M0 0C7.32 7.32 16.16 10.98 26.52 10.98H97.35C107.71 10.98 116.55 7.32 123.87 0 131.19-7.33 134.85-16.17 134.85-26.52V-101.52C134.85-111.88 131.19-120.72 123.87-128.04 116.55-135.36 107.71-139.02 97.35-139.02H26.52C16.16-139.02 7.32-135.36 0-128.04-7.32-120.72-10.98-111.88-10.98-101.52V-26.52C-10.98-16.17-7.32-7.33 0 0" fill="#ffffff" fill-rule="evenodd"/>
<text fill="#231f20" xml:space="preserve" transform="matrix(1 0 -0 1 -18 802.8)" font-size="11" font-family="Bookman"><tspan y="-729.361" x="87.12 94.409999 101.69999">130</tspan></text>
<text fill="#231f20" xml:space="preserve" transform="matrix(1 0 -0 1 -18 802.8)" font-size="11" font-family="Bookman"><tspan y="-729.361" x="513.12">B</tspan></text>
<text fill="#231f20" xml:space="preserve" transform="matrix(1 0 -0 1 -18 802.8)" font-size="7.69999" font-family="Bookman"><tspan y="-729.361" x="521.04 523.4336 529.3692 533.76486 539.70046 545.63607">IOLOGY</tspan></text>
<path transform="matrix(.23999998,0,0,-.23999998,-18,.35998536)" stroke-width="1" stroke-linecap="butt" stroke-miterlimit="10" stroke-linejoin="miter" fill="none" stroke="#000000" d="M0 0H60"/>
<path transform="matrix(.23999998,0,0,-.23999998,.12000084,-18)" stroke-width="1" stroke-linecap="butt" stroke-miterlimit="10" stroke-linejoin="miter" fill="none" stroke="#000000" d="M0 0V-60"/>
<path transform="matrix(.23999998,0,0,-.23999998,-18,784.68)" stroke-width="1" stroke-linecap="butt" stroke-miterlimit="10" stroke-linejoin="miter" fill="none" stroke="#000000" d="M0 0H60"/>
<path transform="matrix(.23999998,0,0,-.23999998,.12000084,788.16)" stroke-width="1" stroke-linecap="butt" stroke-miterlimit="10" stroke-linejoin="miter" fill="none" stroke="#000000" d="M0 0V-60"/>
<path transform="matrix(.23999998,0,0,-.23999998,593.64,784.56)" stroke-width="1" stroke-linecap="butt" stroke-miterlimit="10" stroke-linejoin="miter" fill="none" stroke="#000000" d="M0 0V-75"/>
<text fill="#231f20" xml:space="preserve" transform="matrix(1 0 -0 1 -18 802.8)" font-size="10" font-family="Bookman"><tspan y="-689.761" x="119.04 124.72061 137.04 146.64249 153.24498 158.64748 161.39998 164.40248 169.60498 172.35749 181.75998 184.76248 188.56499 194.16748 199.36998 202.37248 207.57498 210.32749 215.52999 221.33249 224.33499 227.3375 232.54 238.7425 241.495 246.6975 252.5 259.3025 265.10499 268.90748 271.90998 277.51249 284.115 289.91749 292.91999 295.67253 301.87504 304.87754 310.08006 313.08256 318.28507 321.28758 326.89009 333.49259">5.Why is mitosis called equational division?</tspan><tspan y="-673.681" x="119.04 124.72061 137.04 144.4412 150.24239 159.64359 164.84479 167.6999 171.5011 178.1023 183.3035 186.15862 191.35982 195.16101 200.9622 206.3634 211.5646 214.41973 220.02092 223.22212 226.07724 231.27845 236.47965 239.48085 242.48206 245.33718 250.53838 255.93958 261.14079 264.14198 269.34318 272.19828 277.99949 281.8007 284.6558 292.457 299.0582 302.0594 307.2606 313.8618 316.7169 322.31809 328.91929 334.12049 336.9756 342.57679 345.77799 348.6331 352.4343 359.0355 364.2367 367.0918 370.293 375.8942 378.8954 381.89659 387.49778 395.29899 398.30018 404.90138 410.30259 413.15769 418.3589 423.5601 428.7613 435.3625 439.1637 444.3649 447.22 452.8212 458.0224 463.2236 470.0248 474.42604">6.Name the stage of cell cycle at which one of the following events occur:</tspan><tspan y="-657.841" x="142.08 145.02002 147.96002 156 163.44029 170.08058 174.48 180.0795 189.479 195.0785 200.278 205.8775 215.27701 220.4765 225.676 228.12549 233.92499 238.324 243.5276 245.9812 255.3848 260.9884 266.19203 271.39564 277.59925 280.05287 283.85646 289.46006 291.91368 297.11729 303.3209 306.3245 312.9281 319.1317 322.1353 327.33894 329.79255 334.99617 340.79975 347.60334 353.40693 357.2105 362.81413 366.48">(i)Chromosomes are moved to spindle equator.</tspan><tspan y="-641.761" x="138.96 141.96 144.96 147.96 156 163.40259 168.60518 175.20777 179.01036 183.41295 189.01554 198.41812 203.62071 208.0233 213.22589 216.11598 221.31858 227.52117 230.52376 233.52635 237.32895 242.53154 245.42163 251.22423 257.8268 264.0294 266.91947 272.12205 278.72465 283.12724 288.72984 298.13243 303.935 307.73759 310.74018 316.94276 322.14533 325.0354 330.23799 335.44056 341.64314 347.4457 351.8483 357.65089 361.45347 366.65605">(ii)Centromere splits and chromatids separate.</tspan><tspan y="-625.681" x="137.04 140.01001 142.98003 145.95005 148.92006 156 162.19 167.98001 170.97002 175.36003 178.35004 184.94005 190.33007 192.72008 198.91008 204.1001 207.8901 215.68012 220.87012 226.06012 232.65013 235.04015 241.63016 247.22017 256.61018 262.20018 265.1902 270.78019 276.1702 281.7602 288.5502 293.7402 296.13023 301.32023 307.91023 312.30024 317.89024 327.28025 332.87025 338.06025 343.65025 353.04026 358.23027 363.42027 365.81028 369.60029 375.3903 381.5803 386.7703 391.9603 394.3503 400.5403 403.53034 409.32035 414.51036 419.70036">(iii)Pairing between homologous chromosomes takes place.</tspan><tspan y="-609.841" x="137.04 140.02689 143.01378 148.20069 156 163.3997 167.79941 173.39911 178.59882 183.79853 186.79822 193.39792 198.79763 201.19733 206.79703 211.99674 217.19644 221.59615 223.99585 230.19556 235.39527 239.19496 246.99466 252.19437 257.39408 263.99378 266.3935 272.9932 278.5929 287.99259 293.5923 296.59199 302.19169 307.59138 313.19108 319.99079 325.1905 327.5902 332.78993 339.38963 343.7893 349.389 358.7887 364.3884 369.5881 375.1878 384.5875 389.7872 394.9869 397.38664 401.18635 406.98606 413.18577 418.38548 423.58518 425.9849 432.1846 435.1843 440.984 446.18373 451.38343">(iv)Crossing over between homologous chromosomes takes place.</tspan><tspan y="-593.761" x="119.04 124.72061 137.04 145.01851 150.19702 155.37554 160.55405 164.93256 167.91107 174.08959 179.2681 181.6466 185.42511 192.00362 197.18213 199.56064 202.73915 208.31766 211.29618 214.27469 219.8532 227.6317 230.61022 237.18872 242.56723">7.Describe the following:</tspan><tspan y="-577.681" x="137.04 140.0373 145.8346 148.8319 151.9435 157.1408 162.53809 169.13539 174.9327 181.12999 186.32729 189.32459 194.52188 197.63349 200.74509 203.74239 209.93968 212.93698 216.04859 222.24588 225.24318 230.44048 236.23778 239.23508 244.43238 251.02968 254.82698 257.9386 261.0502 264.04753 269.2448 272.24214 275.35374 280.55104 287.14833 290.14564 295.94294 301.14024 310.53755 316.33485 320.13215">(a) synapsis  (b) bivalent  (c) chiasmata</tspan><tspan y="-561.841" x="137.04 145.0403 149.4406 155.24089 163.04119 165.84149 171.64179 174.4421 180.6424 183.6427 189.443 194.84329 199.24359 205.04389 214.44419 217.24449 221.04479 226.64508 229.44539 232.4457 235.446 238.4463 245.2466 250.4469 254.2472 258.6475 264.44779 268.24809 273.44837 276.24867 281.64897 287.24928 294.04957 298.44987 301.25016 307.05046 313.65077 318.85105 326.65135 331.85163 335.52">Draw a diagram to illustrate your answer.</tspan><tspan y="-545.761" x="119.04 124.72061 137.04 145.0407 150.64139 158.4421 161.22919 167.42989 173.03058 178.23128 183.43198 186.21907 191.41977 196.82047 200.62117 206.22187 212.42256 215.42327 222.02396 227.22466 232.42536 235.42606 240.62676 243.41385 246.41455 253.01526 255.80237 262.00309 265.00379 270.80448 277.40519 281.20588 283.99299 289.1937 294.3944 297.3951 300.3958 305.59654 308.38365 314.58436 317.58506 320.78578 323.98649 329.1872 333.5879 336.375 339.5757 343.9764 349.57713 358.9778 361.76493 365.5656 372.16633 377.967 381.7677 384.5548 387.5555 394.15623 396.94334 402.74403 409.34474 412.34544 421.74613 427.5468 430.54753 433.33464 438.53535 443.73606 446.73677 449.73747 454.93818">8.How does cytokinesis in plant cells differ from that in animal cells?</tspan><tspan y="-529.681" x="119.04 124.72061 137.04 143.4398 146.43962 153.03943 159.23925 161.77758 166.97739 172.5772 178.377 187.77681 193.97663 196.97644 202.17626 207.37607 209.9144 217.7142 224.31401 229.51383 233.91364 239.11345 241.65178 245.45159 252.05139 257.2512 259.7895 262.9893 268.5891 275.38893 279.78874 282.32704 288.52684 294.32664 301.12644 306.52626 313.12608 316.92588 322.12568 326.52549 329.06379 334.26359 339.46339 342.4632 345.463 350.6628 353.2011 356.4009 360.80073 366.40055 375.80036 378.33866 387.73847 392.93827 395.93809 401.5379 406.7377 409.73753 414.93733 417.47563 423.27543 427.67524 432.87504 435.41334 440.61314 446.41294 453.21275 459.01255 462.01237 464.55067 467.55049 474.1503 476.6886 481.8884 484.8882 489.68803 494.88783 497.42613 503.22593 509.82575">9.Find examples where the four daughter cells from meiosis are equal in size and</tspan><tspan y="-517.681" x="137.04 144.83699 151.43399 156.631 161.028 166.225 169.22202 173.01902 179.61602 184.81302 190.21002 193.20703 199.00403 203.40103 208.59804 211.59505 214.79206 220.38906 227.18605 233.78305 239.98006 242.97707 249.77407 256.37107 261.56806 267.36506 274.16206 279.95906 282.95606 285.95307 288.95008 295.5471 298.5441 303.7411 306.7381 311.5351 316.7321">where they are found unequal in size.</tspan><tspan y="-501.841" x="113.04 118.88051 124.721019 137.04 145.0383 148.0366 153.23491 157.03322 160.03153 166.62984 172.02816 178.82646 181.82477 187.02307 193.62139 196.2947 202.093 208.69132 214.48963 220.68793 227.28624 233.08455 238.28285 243.48116 246.15447 251.75278 254.95108 257.6244 267.0227 270.02104 273.81935 279.41764 284.61595 287.61427 292.81257 295.48588 298.68418 303.0825 308.6808 318.0791 320.7524 326.55073 333.14903 338.94734 345.14564 351.74394 357.54225 362.74055 367.93885 370.61216 374.01048 376.68379 382.28208 385.48039 388.1537 397.552 402.7503 405.74864 411.34693 416.54524 419.54356 424.74186">10.Distinguish anaphase of mitosis from anaphase I of meiosis.</tspan><tspan y="-485.761" x="113.04 118.88051 124.721019 137.04 143.04039 146.04079 151.24118 155.04157 157.81336 161.61374 168.21413 173.41452 176.18631 185.5867 191.38709 194.38748 200.98787 203.75966 209.96006 212.96045 216.16085 219.36124 224.56163 228.96202 234.16242 240.7628 245.9632 251.16359 256.36399 259.13578 265.33616 270.53654 274.3369 282.1373 287.33769 292.53807 299.13847 301.91026 311.31065 314.31105 318.11143 323.71183 328.9122 331.9126 337.11299 339.88478 345.68516 352.28556 358.48594 361.25773 370.6581 375.8585 378.8589 384.4593 389.65968 392.66007 397.86045">11.List the main differences between mitosis and meiosis.</tspan><tspan y="-469.681" x="113.04 118.88051 124.721019 137.04 146.64289 153.24578 159.04866 162.85155 165.64444 168.64733 173.85022 176.64311 180.446 187.04889 192.25179 195.04468 200.24758 203.25046 208.65335 215.25624 218.25913 221.46202 224.4649 229.6678 235.47069 242.07358 247.27648 252.47937 255.27227 260.87516 264.07804 266.8709 276.2738 281.47669 284.47959 290.08247 295.28535 298.28825 303.49113">12.What is the significance of meiosis?</tspan><tspan y="-453.841" x="113.04 118.88051 124.721019 137.04 145.03839 148.03679 153.23519 158.43358 165.23198 170.43038 175.62877 178.40216 186.20056 189.19896 192.99736 199.59577 202.36916 207.76757 213.36597 220.16437 224.56278 227.33617 231.13457 236.33296 242.13137 247.32976 253.92816 259.12657 263.52497 266.29838 272.09678 278.29518 283.89356 290.69197">13.Discuss with your teacher about</tspan><tspan y="-437.761" x="142.08 145.02002 147.96002 156 162.60129 168.40258 174.60387 177.60517 183.20645 186.20775 192.40904 195.29784 198.29914 204.90042 210.10172 215.30301 220.5043 224.30559 229.50688 232.39568 238.19696 244.79825 250.99954 253.88834 256.88963 262.4909 270.2922 275.4935 279.89479 282.78358 288.98487 291.98616 297.78746 304.38874 308.19004 313.39134 316.28013 324.08143 330.6827 335.884 340.28529 345.48658 348.37538 353.57667 358.77796 361.77925 364.78053 368.7818 374.9831 377.98439 383.18568 386.18696 391.38825 394.38954 399.9908 406.5921 409.4809 415.08219 420.28349 425.48478 432.28608 436.68736 441.88865 445.08995 447.97874 453.78004 460.38133">(i)haploid insects and lower plants where cell-division occurs, and</tspan><tspan y="-421.681" x="138.96 141.96 144.96 147.96 156 161.1995 166.799 176.1985 181.398 184.20249 190.80199 196.60149 202.80098 205.80048 211.39998 214.39948 220.59897 223.40346 228.60295 233.80245 236.80194 239.80144 245.00093 247.80542 250.80492 257.40443 260.20893 266.8084 269.80793 275.20744 281.80693 287.0064 291.4059 294.21043 300.4099 303.40943 309.20893 315.8084 319.6079 324.8074 327.6119 335.4114 342.0109 347.2104 351.6 356.7969 359.59883 364.79573 369.9926 372.98954 375.98646 379.98338 386.18028 389.1772 394.37409 397.371 402.5679 405.56483 411.16175 417.75868 420.56059 426.75749 432.3544 437.5513 442.7482 445.5501 452.14704 457.74397 461.54087 464.34278 469.9397 475.1366 480.3335 487.1304 491.04">(ii)some haploid cells in higher plants where cell-division does not occur.</tspan><tspan y="-405.841" x="113.04 118.88051 124.721019 137.04 144.4387 150.23741 156.83612 159.75154 163.55025 170.14896 175.34767 179.74639 184.9451 187.86052 194.05924 199.25795 202.17337 211.57209 214.57079 218.36949 223.9682 229.16692 232.16562 237.36434 240.27976 248.07846 251.07717 254.87587 261.47459 267.0733 273.872 277.67073 280.58613 288.58485 295.98356 302.78227 305.69767 310.09638 315.29508 321.49378 324.4925 327.4912 332.6899 338.48863 342.28733 345.28605 350.88478 357.4835 360.3989 363.3976 369.99635 372.91175 375.11045 381.70918 383.90788 386.82328 393.02198 399.6207 405.4194 410.6181 415.8168">14.Can there be mitosis without DNA replication in &#x2018;S&#x2019; phase?</tspan><tspan y="-389.761" x="113.04 118.88051 124.721019 137.04 144.43909 150.23819 156.8373 159.70781 163.50691 170.10602 175.30512 179.70421 184.9033 187.77382 193.97292 199.17201 202.04253 210.04163 217.44072 224.23983 227.11034 231.50943 236.70853 242.90763 245.90673 248.90583 254.10492 259.90403 263.70314 266.70225 272.30134 278.90043 281.77095 289.57005 292.56916 296.36827 302.96736 308.56645 315.36555 319.16465 322.03517 327.23426 332.43336 335.43247 338.43159 341.3021 347.5012 350.5003 355.6994 358.69853 363.8976 366.89674 372.49583 379.0949">15.Can there be DNA replication without cell division?</tspan><tspan y="-373.921" x="113.04 118.88051 124.721019 137.04 143.8398 150.4396 156.23941 159.23923 164.63904 169.83885 175.03867 177.73078 181.53058 188.13039 193.3302 196.02231 201.22212 206.42194 211.62175 218.22156 222.02136 227.22118 229.91329 236.1131 242.9129 247.31272 250.31253 256.91236 262.31217 265.00428 270.20408 275.40388 280.60368 285.00349 290.4033 293.0954 298.2952 302.095 307.8948 313.29463 318.49443 321.18653 326.78636 329.98616 332.67826 337.87806 343.07786 346.07768 349.07749 351.7696 356.9694 362.3692 367.569 370.56883 375.76863 378.46073 384.26054 390.86036 397.06016 399.75227 406.35209 411.9519 415.7517 418.75154 423.95133 429.15113 431.84324 438.44306 444.04289 451.84269 454.5348 458.3346 464.93443 470.13423 472.82633 476.02613 481.62596 484.62577 487.62559 493.2254 501.0252 504.02503 510.62486">16.Analyse the events during every stage of cell cycle and notice how the following</tspan><tspan y="-361.921" x="137.04 140.84189 148.64379 154.24568 157.17259 163.3745 169.17639 173.5783 179.38019 188.78209 193.984 197.78589 202.9878 207.3897 212.5916 215.51851 220.72042 227.32231 233.1242 239.7261 245.128">two parameters change</tspan><tspan y="-345.841" x="142.08 145.02002 147.96002 156 162.60129 169.40258 178.80387 185.00516 190.20645 194.60774 197.17903 202.78032 205.98162 208.5529 213.7542 220.35549 224.75678 230.35807 239.75936 245.36064 250.56194 256.16325 265.5645 270.7658 275.9671 278.5384 281.53968 288.94096 291.94224 294.51353 300.7148 305.9161 310.31739 312.88868 318.08998 323.29127 326.29255">(i)number of chromosomes (N) per cell</tspan><tspan y="-329.761" x="138.96 141.96 144.96 147.96 156 161.8003 171.20059 176.80089 183.60118 190.20148 194.00177 196.76877 202.36907 205.56937 208.33637 216.33667 223.73697 230.53726 233.30426 238.50457 244.10486 250.70516 254.50545 259.70576 266.30607 270.10636 272.87336 275.87367 283.27397 286.27427 289.04127 295.24156 300.44184 304.84214 307.60914 312.80943 318.0097 321.01">(ii)amount of DNA content (C) per cell</tspan></text>
<g clip-path="url(#clip_1183)">
<text xml:space="preserve" transform="matrix(1 0 -0 1 259.314 763.9998)" font-size="8" font-family="Arial"><tspan y="6.316" x="0"> </tspan></text>
</g>
</g>
</svg>
