<svg xmlns="http://www.w3.org/2000/svg" xmlns:xlink="http://www.w3.org/1999/xlink" xmlns:inkscape="http://www.inkscape.org/namespaces/inkscape" version="1.1" width="576" height="784.8" viewBox="0 0 576 784.8">
<defs>
<clipPath id="clip_860">
<path transform="matrix(1,0,0,-1,-18,802.8)" d="M18 18H594V802.8H18Z" clip-rule="evenodd"/>
</clipPath>
<clipPath id="clip_861">
<path transform="matrix(1,0,0,-1,259.314,763.9998)" d="M0-8H57.372V.800049H0Z"/>
</clipPath>
</defs>
<g clip-path="url(#clip_860)">
<path transform="matrix(.23999998,0,0,-.23999998,-18,802.8)" d="M0 3035.83H2550V3372.7003H0Z" fill="#d1d3d4" fill-rule="evenodd"/>
<path transform="matrix(.23999998,0,0,-.23999998,-18,802.8)" d="M0 3078.33H2550V3420H0Z" fill="#e1ecb6" fill-rule="evenodd"/>
<path transform="matrix(.23999998,0,0,-.23999998,-18,802.8)" d="M2 2H2548V214.67H2Z" fill="#cbdf7f" fill-rule="evenodd"/>
<path transform="matrix(.23999998,0,0,-.23999998,-18,802.8)" stroke-width="4" stroke-linecap="butt" stroke-miterlimit="1000" stroke-linejoin="miter" fill="none" stroke="#cbdf7f" d="M2 2H2548V214.67H2Z"/>
<path transform="matrix(.23999998,0,0,-.23999998,482.6352,53.635194)" d="M0 0C7.32 7.32 16.16 10.98 26.52 10.98H97.35C107.71 10.98 116.55 7.32 123.87 0 131.19-7.33 134.85-16.17 134.85-26.52V-101.52C134.85-111.88 131.19-120.72 123.87-128.04 116.55-135.36 107.71-139.02 97.35-139.02H26.52C16.16-139.02 7.32-135.36 0-128.04-7.32-120.72-10.98-111.88-10.98-101.52V-26.52C-10.98-16.17-7.32-7.33 0 0" fill="#ffffff" fill-rule="evenodd"/>
<text fill="#231f20" xml:space="preserve" transform="matrix(1 0 -0 1 -18 802.8)" font-size="11" font-family="Bookman"><tspan y="-730.081" x="84">C</tspan></text>
<text fill="#231f20" xml:space="preserve" transform="matrix(1 0 -0 1 -18 802.8)" font-size="7.69999" font-family="Bookman"><tspan y="-730.081" x="92.16 97.633197 102.18239">ELL</tspan></text>
<text fill="#231f20" xml:space="preserve" transform="matrix(1 0 -0 1 -18 802.8)" font-size="11" font-family="Bookman"><tspan y="-730.081" x="106.8 109.46123"> C</tspan></text>
<text fill="#231f20" xml:space="preserve" transform="matrix(1 0 -0 1 -18 802.8)" font-size="7.69999" font-family="Bookman"><tspan y="-730.081" x="117.84 122.79888 128.52777 133.17865">YCLE</tspan></text>
<text fill="#231f20" xml:space="preserve" transform="matrix(1 0 -0 1 -18 802.8)" font-size="11" font-family="Bookman"><tspan y="-730.081" x="138.48"> </tspan></text>
<text fill="#231f20" xml:space="preserve" transform="matrix(1 0 -0 1 -18 802.8)" font-size="7.69999" font-family="Bookman"><tspan y="-730.081" x="141.36 146.56981 152.24161">AND</tspan></text>
<text fill="#231f20" xml:space="preserve" transform="matrix(1 0 -0 1 -18 802.8)" font-size="11" font-family="Bookman"><tspan y="-730.081" x="158.4 161.0612"> C</tspan></text>
<text fill="#231f20" xml:space="preserve" transform="matrix(1 0 -0 1 -18 802.8)" font-size="7.69999" font-family="Bookman"><tspan y="-730.081" x="169.2 174.67319 179.22238">ELL</tspan></text>
<text fill="#231f20" xml:space="preserve" transform="matrix(1 0 -0 1 -18 802.8)" font-size="11" font-family="Bookman"><tspan y="-730.081" x="184.08 186.80121"> D</tspan></text>
<text fill="#231f20" xml:space="preserve" transform="matrix(1 0 -0 1 -18 802.8)" font-size="7.69999" font-family="Bookman"><tspan y="-730.081" x="195.6 198.228 203.62798 206.25597 211.34795 213.97594 220.14592">IVISION</tspan></text>
<text fill="#231f20" xml:space="preserve" transform="matrix(1 0 -0 1 -18 802.8)" font-size="11" font-family="Bookman"><tspan y="-729.361" x="505.92 513.21 520.5">125</tspan></text>
<path transform="matrix(.23999998,0,0,-.23999998,579.6,.11999512)" stroke-width="1" stroke-linecap="butt" stroke-miterlimit="10" stroke-linejoin="miter" fill="none" stroke="#000000" d="M0 0H60"/>
<path transform="matrix(.23999998,0,0,-.23999998,576.12,-18)" stroke-width="1" stroke-linecap="butt" stroke-miterlimit="10" stroke-linejoin="miter" fill="none" stroke="#000000" d="M0 0V-60"/>
<path transform="matrix(.23999998,0,0,-.23999998,579.6,784.44)" stroke-width="1" stroke-linecap="butt" stroke-miterlimit="10" stroke-linejoin="miter" fill="none" stroke="#000000" d="M0 0H60"/>
<path transform="matrix(.23999998,0,0,-.23999998,576.12,788.16)" stroke-width="1" stroke-linecap="butt" stroke-miterlimit="10" stroke-linejoin="miter" fill="none" stroke="#000000" d="M0 0V-59"/>
<path transform="matrix(.23999998,0,0,-.23999998,-17.88,-18.23999)" stroke-width="1" stroke-linecap="butt" stroke-miterlimit="10" stroke-linejoin="miter" fill="none" stroke="#000000" d="M0 0V-75"/>
<text fill="#00aeef" xml:space="preserve" transform="matrix(1 0 -0 1 -18 802.8)" font-size="12" font-family="Bookman"><tspan y="-688.081" x="60 68.399997 76.79999 81.35998 102 109.89951 114.19902 121.138538 129.27805 133.57756 138.11707 142.41658 149.3561 156.29561 164.43512 171.37464 178.31415 181.99866 189.41817 193.95767 197.64218 208.90169 213.2012 218.70072 226.12023 232.33974 236.63925">10.3Significance of Mitosis</tspan></text>
<text fill="#231f20" xml:space="preserve" transform="matrix(1 0 -0 1 -18 802.8)" font-size="10.5" font-family="Bookman"><tspan y="-668.641" x="60 69.6078 72.705608 76.6434 82.4712 87.879 90.9768 96.3846 98.856098 104.68389 109.25169 111.72319 115.66099 122.53879 127.94659 130.41808 135.82588 141.86368 148.95148 154.98928 158.92708 162.02487 167.85268 174.73049 180.76828 183.86608 186.33757 192.79537 195.89316 201.30097 204.39876 209.80657 212.90436 218.73217 225.60997 228.08147 231.17926 236.58707 239.05857 246.14636 251.55417 258.64198 264.67979 267.7776 270.8754 276.4932 278.9647 283.5325 288.9403 294.3481 298.28593 302.85374 305.95155 311.35935 315.29716 320.70497 327.16276 329.63426 333.57206 339.39985 341.87135 345.80915 352.68696 358.09477 360.56626 367.02406 370.12187 376.57966 379.67747 385.50526 388.60307 395.06086 397.53236 402.94017 408.34797 411.44578 414.54359">Mitosis or the equational division is usually restricted to the diploid cells</tspan><tspan y="-655.681" x="60 65.8845 72.819 75.9735 81.648 85.012508 88.02251 96.42701 102.31151 110.50601 115.97051 121.43501 126.89951 130.8 134.16011 137.16571 140.31581 147.24591 150.25151 155.71161 161.5917 171.4618 176.9219 179.9275 183.0776 188.9577 197.1478 202.6079 207.228 210.2336 216.7437 219.8938 225.9839 232.914 236.9041 242.3642 245.3698 251.4599 258.39 264.90013 267.90574 271.05583 277.98594 280.99156 286.45167 292.33177 302.20185 307.66197 310.66758 316.1277 322.00779 327.4679 330.61799 336.70808 339.85816 342.86378 346.01387 352.94398 358.40409 363.8642 369.3243 373.31443 378.77455 381.78016 388.71028 394.80036 401.31047 404.46055 410.34065 413.49073">only. However, in some lower plants and in some social insects haploid</tspan><tspan y="-642.721" x="60 65.61179 71.22359 74.525379 77.82716 83.43896 88.627948 94.869739 98.171527 103.78332 109.81511 115.0041 121.665889 124.967678 130.57947 133.88126 140.54305 146.15483 151.34383 158.00562 163.82741 169.0164 179.0382 182.33998 186.48177 192.51355 198.12534 201.42713 207.03891 210.5507 215.7397 219.46149 223.60327 228.79227 232.09406 237.70584 242.89484 248.50662 254.11841 258.8902 264.71199 269.90095 275.51274 281.1245 286.7363 292.34809 299.42988 303.57167 306.87345 313.11524 316.41703 321.606 325.74778 331.77958 336.96855 344.2603 351.3421 358.0039 363.6157 368.38749 373.99928 378.14106 384.38285 391.46464 398.12644 403.3154 407.45719 414.53898">cells also divide by mitosis. It is very essential to understand the</tspan><tspan y="-629.761" x="60 65.45891 68.60782 74.276729 81.205638 84.354549 87.713459 90.862369 96.32127 102.41019 109.339099 114.798007 120.25691 123.40043 129.27935 132.63826 135.78179 139.77069 146.6996 149.84851 155.30742 158.45095 164.95986 168.10877 173.56768 176.71659 182.17549 185.3244 191.20331 198.13222 201.27574 204.42465 211.35356 214.49709 218.486 225.4149 230.87381 234.01734 237.16625 240.31516 243.67407 249.13298 252.2765 258.15544 261.51435 264.65788 270.74678 277.6757 280.8192 286.69813 291.31703 296.98594 303.07484 310.00376 313.15266 318.61158 328.48048 331.8394 334.9829 342.12184 346.74073 352.19966 355.34318 361.0121 366.891 374.0299 377.17344 383.26234 391.45124 397.54014 402.15904 407.61796 410.76148 416.64039">significance of this division in the life of an organism. Are you aware of</tspan><tspan y="-616.8" x="60 65.24411 70.90822 80.56233 85.80644 88.115558 93.359668 99.02377 104.89788 114.551998 120.84611 123.78022 129.02434 134.26845 136.57755 144.55165 151.26576 156.50988 160.91399 166.1581 168.4672 173.92131 179.58542 186.50952 188.81862 195.53273 201.40685 206.65096 211.89507 214.20417 219.44828 223.22238 230.14649 236.4406 239.37471 244.61882 250.91294 253.22203 259.09614 265.39024 271.05436 277.97846 281.75257 284.06169 290.7758 296.6499 302.944 305.8781 311.54225 314.47636 320.77046 323.07957 328.95368 335.6678 341.96189 344.271 350.5651 353.4992 359.7933 362.72743 368.39155 371.32566 377.61976 379.92887 382.86299 389.5771 394.8212 400.0653 405.30943 409.08354 414.32765">some examples where you have studied about haploid and diploid insects?</tspan><tspan y="-603.841" x="78 87.6586 90.8072 94.7958 100.6744 106.133 109.2816 114.740207 118.79879 125.93739 131.396 138.53459 144.6232 147.7718 150.92041 156.589 160.6476 165.2662 170.72481 176.18341 183.322 186.47061 190.45922 195.91782 199.97641 203.12502 210.05362 214.11222 218.10082 225.02942 230.48802 234.54662 241.05522 245.67383 251.55243 258.06105 265.19966 270.65824 274.64683 277.7954 283.674 290.6026 294.6612 300.5398 303.8984 307.957 314.4656 317.6142 324.1228 327.2714 333.15 336.29859 342.8072 346.86579 353.3744 359.46299 366.6016 372.2702 379.1988 383.18739 388.64598 393.26457 397.32316 402.78175 408.24034 411.38893 414.5375">Mitosis usually results in the production of diploid daughter cells</tspan><tspan y="-590.641" x="60 68.04271 71.04542 74.88813 81.67084 84.04606 87.04877 93.411479 98.72419 105.5069 109.34961 112.35232 117.66503 123.60774 126.61045 128.98567 134.50838 139.82109 146.6038 151.91652 155.75923 158.76195 164.07466 166.44988 171.76259 177.4953 187.21802 193.58074 196.58345 201.89617 211.61888 216.9316 223.71431 227.55702 230.76973 233.14495 239.50766 246.29038 251.60309 253.9783 259.501 263.97373 269.70643 277.74916 281.59187 288.37458 290.7498 296.48249 299.6952 302.0704 311.79313 318.78584 321.78855 325.63127 328.63398 333.9467 339.2594 342.26213 345.26484 352.25755 355.26026 361.20298 365.6757 368.0509 373.7836 378.25633 383.77903 389.72175 396.50447 399.50718 404.8199 414.5426">with identical genetic complement. The growth of multicellular organisms</tspan><tspan y="-577.681" x="60 63.1484 68.6068 71.140209 77.648609 84.787 90.24541 92.77882 96.76722 102.64562 105.17903 115.04743 118.19583 122.184238 128.06264 133.52104 136.66945 142.12786 145.48625 148.01966 155.78806 161.24646 164.39487 167.54328 170.07668 175.74507 180.36347 186.24187 194.43027 198.41867 205.34708 207.88048 212.49887 217.95728 223.41568 230.55408 233.70249 237.69089 243.14929 245.6827 248.8311 255.7595 258.29295 264.80134 267.94975 273.40815 277.39656 284.53495 289.15336 295.66175 298.81016 305.73857 311.40696 313.94038 317.92878 324.85719 330.31559 332.849 337.4674 343.55583 347.54423 350.69264 356.571 359.10444 365.61283 371.07124 375.05964 383.24806 388.70646 394.16487 401.09327 403.62669 407.61509 414.5435">is due to mitosis. Cell growth results in disturbing the ratio between the</tspan><tspan y="-564.721" x="60 66.92761 74.06522 79.522838 82.67045 88.12806 95.26567 100.72328 103.28089 109.3685 116.29611 122.80373 125.361339 129.34896 136.27657 141.73418 144.29178 149.74939 155.41699 159.4046 165.28221 171.78983 174.93744 181.02506 186.48267 196.35028 199.70789 202.26549 205.8331 209.82071 212.37831 216.36592 223.29354 228.75115 233.36876 238.82637 242.18398 248.06159 252.6792 258.1368 260.69444 267.20204 272.65965 278.11726 283.99488 293.8625 299.3201 304.7777 307.33534 312.79295 318.25056 323.70817 329.16578 336.09339 340.081 343.2286 349.31623 352.46385 355.02146 358.37907 364.25669 368.8743 371.43193 375.41954 382.34715 387.80476 390.36238 395.81999 401.2776 404.4252 407.5728 410.13044 414.11805">nucleus and the cytoplasm. It therefore becomes essential for the cell to</tspan><tspan y="-551.761" x="60 66.8185 70.277 76.0455 79.504009 86.3225 92.091 97.43451 101.73301 107.92151 113.265018 118.19351 123.96201 129.73052 134.02902 140.21753 145.14603 150.91452 156.25803 160.55652 167.79502 173.5635 178.90702 186.14551 193.59401 199.3625 202.821 208.5895 214.778 219.2865 225.055 231.0335 235.332 241.52051 248.339 251.7975 258.196 263.9645 274.143 277.6015 283.37 288.71348 293.64198 300.04048 304.33897 307.79747 313.98597 317.65446 322.99794 330.4464 335.7899 341.55839 347.32688 352.25538 358.23387 363.57734 369.34584 372.80433 378.7828 386.0213 389.4798 393.1483 396.60679 402.37528 408.77378 416.01228">divide to restore the nucleo-cytoplasmic ratio. A very significant</tspan><tspan y="-538.8" x="60 65.46109 71.34218 78.27327 82.26436 86.88545 90.036548 96.54764 103.68873 107.67982 110.83091 116.712 123.64309 126.97338 132.85448 136.21556 139.54584 149.41693 152.56803 156.55912 162.4402 167.90129 171.05239 176.51348 179.84375 182.99485 188.45594 191.78621 197.2473 202.70839 205.85948 209.01058 212.34085 216.962 222.3845 228.85701 234.90952 238.02202 242.16 245.5143 248.83779 255.34209 262.2664 267.7207 271.04423 276.49855 281.95286 285.09715 288.24143 293.69575 297.01927 302.89356 306.24787 309.57139 313.5557 320.47999 325.9343 329.2578 336.39213 342.89643 349.40074 354.85505 359.46934 362.79286 365.93714 372.02143 377.68574 383.14006 387.75434 391.07786 396.95216 400.30647 403.62998 407.6143 414.53858">contribution of mitosis is cell repair. The cells of the upper layer of the</tspan><tspan y="-525.841" x="60 65.2424 71.534809 74.46721 80.75961 86.002017 90.40441 100.05681 102.98921 108.23161 111.374019 113.67803 118.92043 124.162837 127.09524 130.02764 135.27004 137.57404 143.23644 146.37883 148.68283 152.45523 159.16764 164.41004 166.71404 169.64644 172.57884 179.29125 182.22365 188.93605 194.38846 196.69246 202.35486 205.49726 207.80126 211.57366 218.28606 223.52846 225.83246 231.28485 238.20725 241.97965 245.12204 247.42604 253.29845 260.01084 266.30323 268.60725 274.89964 277.83204 283.49446 289.15687 295.44926 297.75328 302.99568 308.23808 311.17048 314.10289 319.34529 321.6493 327.5217 331.9241 337.1665 339.47053 345.7629 351.0053 353.9377 360.65013 366.1025 368.40653 373.64894 379.31135 386.02375 391.26615 395.03855 400.91096 407.62336 411.39576 414.32817">epidermis, cells of the lining of the gut, and blood cells are being constantly</tspan><tspan y="-512.641" x="60 64.6177 70.0754 76.5831 79.7308 85.8185 91.2762 96.7339 103.2416 106.5993 109.83199 119.48969 122.63739 126.62509 132.50279 136.4905 139.6382 145.0959 148.3286 154.8363 157.98401 163.44171 166.58942 172.04712 175.19483 181.07253 188.00023 193.45793 196.69063 199.83834 206.76604 209.99874 213.98644 220.91414 226.37184 229.60454 239.47225 244.92995 249.54766 252.69536 258.15306 262.14076 267.59846 277.46617 283.55387 287.54158 290.68928 296.14698 299.37968 303.36738 306.51509 311.97279 317.43049 324.56819 330.02589 335.48359 338.71629 343.964 347.1967 351.1844 358.1121 363.5698 366.8025 372.8902 379.3979 382.5456 388.0033 394.091 397.2387 400.4714 406.5591 413.48683">replaced. Mitotic divisions in the meristematic tissues &#x2013; the apical and</tspan><tspan y="-499.681" x="60 63.92711 70.79422 76.19133 78.65344 81.740558 87.76766 91.69477 97.09188 101.648998 107.6761 110.763217 113.22533 118.62244 124.64954 134.45665 140.90377 143.99088 151.06798 160.87509 164.1722 166.6343 171.1914 176.58852 181.98563 189.06273 192.14984 196.07695 198.53905 201.62616 208.49327 210.95537 216.98249 219.44458 224.84169 230.6588 237.52591 241.45302 244.54013 251.40724 258.48435 264.30146 271.37858 276.7757 279.23783 284.84495 289.40205 295.21916 303.34626 307.27339 314.14048 316.6026 322.4197 325.71684 328.17897 334.62608 337.71318 343.74028 350.60737 354.5345 359.9316 362.39375 366.32087 373.18797 377.74507 383.56217 390.63929 396.2464 403.1135 408.9306 416.00773">the lateral cambium, result in a continuous growth of plants throughout</tspan><tspan y="-486.721" x="60 63.82001 70.580028 75.87003 78.850048 83.30006 85.64007 88.62008 91.60009 94.7901 100.08011">their life.</tspan></text>
<text fill="#00aeef" xml:space="preserve" transform="matrix(1 0 -0 1 -18 802.8)" font-size="13" font-family="Bookman"><tspan y="-454.081" x="60 68.286899 76.57379 80.70069 102">10.4M</tspan></text>
<text fill="#00aeef" xml:space="preserve" transform="matrix(1 0 -0 1 -18 802.8)" font-size="9.1" font-family="Bookman"><tspan y="-454.081" x="114.24 120.8398 124.527599 131.8554 137.9092 141.597">EIOSIS</tspan></text>
<text fill="#231f20" xml:space="preserve" transform="matrix(1 0 -0 1 -18 802.8)" font-size="10.5" font-family="Bookman"><tspan y="-428.161" x="60 66.5091 73.4382 78.8973 81.98971 88.49881 93.11791 98.99701 105.50611 112.64521 118.10431 122.09341 125.24251 131.12162 138.05072 141.14313 147.02223 150.38134 153.47374 159.35285 162.71195 166.07105 171.53015 178.03925 182.65834 185.80744 192.73654 198.40564 201.49805 208.00714 213.67624 216.76865 222.22776 227.68686 233.56597 240.70507 246.79416 249.94326 253.03566 257.65476 263.11387 269.62297 274.24208 280.12117 286.63026 293.76936 299.22846 303.21757 306.36668 312.24577 319.17488 322.26728 325.41639 332.3455 337.8046 340.9537 348.0928 354.6019 360.061 365.5201 368.61253 372.60163 379.53074 384.98985 388.08226 391.44136 398.58045 404.03956 407.18867 413.06776">The production of offspring by sexual reproduction includes the fusion</tspan><tspan y="-415.2" x="60 65.6022 68.6844 70.9303 74.6425 82.5547 88.156909 90.4028 95.795 101.6072 111.1994 116.3816 120.093799 125.27599 130.45819 133.54039 135.78629 140.96849 146.78069 151.96289 158.6151 160.861 168.7732 171.64539 175.35759 182.0098 184.25569 190.06789 192.31378 197.49599 203.09819 212.6904 218.92259 221.7948 226.977 230.68921 235.87142 238.11731 244.76952 250.58171 256.8139 259.6861 265.2883 268.1605 274.3927 276.6386 281.8208 287.003 290.71519 292.9611 298.5633 301.6455 303.89143 309.0736 315.7258 320.068 325.6702 335.2624 340.8646 346.04679 351.649 361.24119 366.42338 371.60557 374.68778 376.9337 385.05589 390.86808 400.46028 405.64247 409.35466 414.53684">of two gametes, each with a complete haploid set of chromosomes. Gametes</tspan><tspan y="-402.241" x="60 66.0846 70.6992 76.1538 80.2034 83.558 89.4326 94.0472 103.911808 109.3664 115.871 119.9206 123.2752 127.8898 133.7644 143.629 147.6786 153.13321 159.6378 165.0924 170.54701 173.69162 179.77622 182.92082 186.06543 191.52004 196.97464 203.47924 207.52884 214.03343 217.17804 223.68264 226.82724 232.70185 235.84645 242.35105 246.40065 251.85526 257.30986 260.45445 263.59904 269.05363 272.40824 276.45787 282.96247 289.88706 293.03166 298.48625 302.53587 307.99046 314.49507 319.94966 325.40425 328.54884 334.63343 337.778 340.9226 346.3772 351.8318 358.3364 362.38603 368.89064 372.03523 378.9598 385.46443 389.51405 395.38865 398.74327 402.79289 408.24748 413.70207 416.84666">are formed from specialised diploid cells. This specialised kind of cell</tspan><tspan y="-389.041" x="60 66.5082 69.6564 75.1146 78.2628 83.721 86.8692 92.7474 99.6756 104.038799 108.02699 114.95519 121.043399 125.03159 129.3948 134.013 139.4712 145.9794 153.1176 158.5758 164.03401 169.49222 173.85543 177.84363 184.77184 190.23004 194.59325 200.05146 206.97966 211.59786 217.47606 227.34426 233.22246 238.68067 244.55887 254.42707 259.88526 264.24848 271.17668 278.31489 288.18309 294.69129 300.14949 304.76768 309.13087 315.63908 321.30729 325.67048 332.59867 338.68687 341.83506 345.19325 349.55647 354.17466 359.63285 365.09104 372.22926 375.37745 379.36564 384.82383 389.187 392.3352 399.2634 403.6266 407.61479 414.54298">division that reduces the chromosome number by half results in the</tspan><tspan y="-376.081" x="60 66.5271 71.1642 77.0613 83.5884 90.7455 96.222599 100.2297 103.3968 109.2939 116.241 121.2931 127.1902 130.5673 135.61942 142.56652 148.67362 155.20072 158.36782 164.26491 167.432 173.9591 179.01122 185.53832 191.64542 198.80252 204.48963 211.43672 215.44382 220.92092 225.55802 230.61013 236.08722 241.56432 244.73142 247.89852 253.37561 256.75273 261.8048 268.3319 275.27903 278.44615 283.92326 288.97535 295.50245 298.66957 305.61668 312.14378 317.19587 323.09297 326.47007 331.52217 338.04927 341.21638 346.69349 349.8606 355.3377 358.50483 364.40193 371.34904 376.40113 379.56825 385.04536 390.09745 395.57456 401.68165 404.84877 408.01588 413.49299">production of haploid daughter cells. This kind of division is called</tspan></text>
<text fill="#231f20" xml:space="preserve" transform="matrix(1 0 -0 1 -18 802.8)" font-size="10.5" font-family="Bookman"><tspan y="-363.121" x="60 70.3929 76.3758 80.0487 86.4516 91.8045 95.477397 100.83029">meiosis.</tspan></text>
<text fill="#231f20" xml:space="preserve" transform="matrix(1 0 -0 1 -18 802.8)" font-size="10.5" font-family="Bookman"><tspan y="-363.121" x="104.16 106.56351 116.10332 121.44313 124.47294 130.23274 135.57256 138.60237 143.94219 146.34569 151.6855 158.49532 163.83513 170.85494 175.35475 180.69457 186.03438 188.43788 192.3077 199.11751 204.45732 206.86083 213.25064 217.75046 223.51027 229.90009 236.91989 242.2597 246.12952 249.15933 254.91915 261.72895 264.13246 269.89225 273.13206 275.53556 282.34538 288.3152 294.705 297.7348 303.4946 306.5244 312.9142 315.31773 321.70753 328.51734 334.48716 339.82698 345.16679 347.57029 350.6001 357.4099 359.81343 363.68324 370.49305 375.83287 378.23637 381.26618 384.296 387.5358 392.8756 395.2791 400.61894 406.16874 411.50856 414.53837"> Meiosis ensures the production of haploid phase in the life cycle</tspan><tspan y="-350.161" x="60 65.62291 68.72582 70.99125 76.19416 81.39707 87.01998 93.90289 99.7358 102.62871 105.52162 110.93453 113.19996 117.56287 122.76578 129.01869 133.3816 139.00452 145.25743 152.14034 157.34325 160.23616 166.90908 172.32198 174.58739 180.2103 184.57321 189.98612 195.81903 202.49195 205.38486 210.58777 220.20069 225.4036 227.669 235.60192 242.27483 247.47774 251.84066 257.04356 262.87648 268.07939 270.3448 273.4477 278.6506 283.01353 286.74644 289.63935 292.53227 295.42518 300.62809 306.461 310.1939 313.08683 318.70976 325.38267 327.64808 332.011 337.2139 342.4168 346.14973 351.77265 356.13557 361.33848 366.54139 368.8068 372.5397 379.21263 384.41554 386.68095 392.93385 395.82676 402.07966 404.97257 410.5955 413.4884">of sexually reproducing organisms whereas fertilisation restores the diploid</tspan><tspan y="-337.2" x="60 66.5168 73.4536 79.5504 85.0172 90.48399 93.85079 98.63978 108 113.4573 118.236789 123.694087 129.57138 139.43868 144.89598 149.67548 155.76277 161.22008">phase. We come acr</tspan><tspan y="-337.20063" x="165.837 171.71541 177.17382 182.63222 187.41281 197.28122 202.73963 205.88803 211.76644 217.22484 220.37325 225.83165 230.61225 237.12065 244.25905 248.87744 252.02585 258.95426 264.62266 269.40324 275.07164 281.16004 291.02845 296.48686 300.47526 306.35365 312.02204 317.48045 324.40885 329.86726 335.32566 338.47407 343.93247 348.71305 351.86146 358.78987 363.57044 370.07884 373.22724 379.31565 386.24406 390.23246 395.69087 400.47145 406.55986 413.48826">oss meiosis during gametogenesis in plants and</tspan><tspan y="-324.24064" x="60 65.9853 72.8106 75.8559 85.6212 91.6065 94.6518 100.0071 103.262409 105.681407 112.0867 118.912 121.957309 127.31261 129.7316 132.7769 138.1322 144.11751 150.52281 155.87812 158.2971 162.1824 167.9577 170.3767 174.262 181.0873 186.4426 188.86159 192.11688 197.89218 202.40749 212.17279 218.1581 222.0434 225.0887 230.864 237.6893 240.10829 245.88359 249.13889 251.55788 258.38319 264.36848 270.77378 273.81907 279.59437 282.63966 289.04496 291.46397 297.02928 303.01457 312.77986 318.13514 322.02046 327.37574 332.73103 335.98634 338.40534 344.81065 351.63594 356.9912 359.41023 365.81553 371.1708 376.7361 379.15513 382.41044 387.76573 393.751 397.63633 404.67164 409.18693 414.5422">animals. This leads to the formation of haploid gametes. The key features</tspan><tspan y="-311.04063" x="60 65.838809 69.157619 71.63894 81.46775 86.88656 89.99537 95.83418 101.25299 104.3618 109.78061 112.26193 118.310749 122.88956 128.30837 130.78969 136.8385 142.25731 144.73863 148.05745 153.89626 157.00507 160.11388 165.95269 174.10149 179.5203">of meiosis are as follows:</tspan></text>
<text fill="#231f20" xml:space="preserve" transform="matrix(1 0 -0 1 -18 802.8)" font-size="9" font-family="TT60B6T00"><tspan y="-291.94563" x="60.135 59.869">&#xfffd;&#xfffd;</tspan><tspan y="-292.21565" x="60.135 59.869">&#xfffd;&#xfffd;</tspan><tspan y="-292.08064" x="60">&#xfffd;</tspan></text>
<text fill="#231f20" xml:space="preserve" transform="matrix(1 0 -0 1 -18 802.8)" font-size="10.5" font-family="Bookman"><tspan y="-292.08064" x="78 87.40781 92.615619 95.51343 101.141239 106.349048 109.24686 114.454669 116.72748 119.62529 126.3031 131.51091 137.13872 140.03653 145.24434 150.45215 155.65996 157.93276 161.67057 169.60837 175.23618 177.50897 182.71678 187.92459 193.7624 200.6502 205.85802 212.53583 216.27364 219.17145 225.00926 227.90708 230.17987 235.38768 240.8055 246.0133 248.91112 254.11893 259.32676 261.59959 267.2274 270.3352 272.60804 279.28584 286.17366 291.38148 294.27928 299.4871 305.3249 309.6927 311.9655 317.8033 324.4811 330.73893 333.01176 338.21958 343.4274 346.3252 349.223 351.49583 357.75364 360.65144 365.85926 368.75706 373.96488 376.86268 382.49049 389.16828 391.4411 396.64894 402.48674 405.38453 408.28233 413.49015">Meiosis involves two sequential cycles of nuclear and cell division called</tspan></text>
<text fill="#231f20" xml:space="preserve" transform="matrix(1 0 -0 1 -18 802.8)" font-size="10.5" font-family="Bookman"><tspan y="-279.84065" x="78 88.4713 94.5326 98.2839 104.7652 110.196498 113.94779 119.37909 122.5204">meiosis I</tspan></text>
<text fill="#231f20" xml:space="preserve" transform="matrix(1 0 -0 1 -18 802.8)" font-size="10.5" font-family="Bookman"><tspan y="-279.84065" x="126.72 129.6775 135.765 142.6925 149.20001"> and </tspan></text>
<text fill="#231f20" xml:space="preserve" transform="matrix(1 0 -0 1 -18 802.8)" font-size="10.5" font-family="Bookman"><tspan y="-279.8403" x="152.15799 162.6247 168.68141 172.42812 178.90483 184.33155 188.07825 193.50496 196.59168 200.75839">meiosis II</tspan></text>
<text fill="#231f20" xml:space="preserve" transform="matrix(1 0 -0 1 -18 802.8)" font-size="10.5" font-family="Bookman"><tspan y="-279.8403" x="204.961 207.9201 214.4292 221.5683 225.5574 228.51651 234.39562 241.32472 244.47382 250.14292 253.10202 259.19114 262.15025 267.60935 270.75846 277.68757 283.35667 286.50578 291.96488 294.92399 300.3831 306.0522 311.5113 314.6604 320.1195 323.0786 328.9577 332.3168 335.2759 343.67503 351.44413 358.58323 361.54234 366.16145 371.62055 378.12965 381.27876 384.42787 389.88697 395.97608 399.96519 403.1143 408.99339 415.9225"> but only a single cycle of DNA replication.</tspan></text>
<text fill="#231f20" xml:space="preserve" transform="matrix(1 0 -0 1 -18 802.8)" font-size="9" font-family="TT60B6T00"><tspan y="-264.58534" x="60.136 59.8698">&#xfffd;&#xfffd;</tspan><tspan y="-264.8603" x="60.136 59.8698">&#xfffd;&#xfffd;</tspan><tspan y="-264.7203" x="60">&#xfffd;</tspan></text>
<text fill="#231f20" xml:space="preserve" transform="matrix(1 0 -0 1 -18 802.8)" font-size="10.5" font-family="Bookman"><tspan y="-264.7203" x="78 87.64 93.08 96.21 102.07 107.51 110.64 116.08 118.58111 122.13111 124.632228 127.76222 133.20223 135.70334 138.83335 145.74335 148.87335 152.84336 155.97336 162.04337 166.01337 171.45337 177.94338 180.44449 186.5145 189.85449 193.8245 199.2645 203.8645 206.36562 210.33562 217.24562 222.68563 225.18674 231.67675 237.74675 242.34676 247.78676 254.69676 258.66676 264.73677 267.86677 270.36787 275.80787 282.71788 287.31788 293.17787 303.02787 308.88786 314.32786 320.18785 330.03785 335.47785 340.91786 343.41896 350.32896 356.39897 361.83897 367.27897 369.78007 374.38008 379.82008 386.31007 389.44007 392.57008 398.01008 404.08009 408.05009 413.49009">Meiosis I is initiated after the parental chromosomes have replicated</tspan><tspan y="-252.7203" x="78 81.97151 87.83302 90.33704 96.82855 101.43006 107.29157 113.78308 120.904598 126.34611 131.78762 134.29163 137.42314 143.91466 149.35617 156.26769 160.2392 163.37071 168.81223 174.88375 178.01526 180.51927 185.96079 189.0923 194.53382 198.50533 203.94684 208.54836 211.05237 216.49388 223.4054 228.00691 233.86843 243.71994 249.79146 253.76297 256.89448 263.386 268.82749 271.3315 277.403 281.3745 283.87855 287.85005 294.76155 300.20304 302.70707 309.61857 312.1226 318.6141 325.5256 331.5971 337.0386 342.4801">to produce identical sister chromatids at the S phase.</tspan></text>
<text fill="#231f20" xml:space="preserve" transform="matrix(1 0 -0 1 -18 802.8)" font-size="9" font-family="TT60B6T00"><tspan y="-237.7053" x="60.136 59.8698">&#xfffd;&#xfffd;</tspan><tspan y="-237.97531" x="60.136 59.8698">&#xfffd;&#xfffd;</tspan><tspan y="-237.8403" x="60">&#xfffd;</tspan></text>
<text fill="#231f20" xml:space="preserve" transform="matrix(1 0 -0 1 -18 802.8)" font-size="10.5" font-family="Bookman"><tspan y="-237.8403" x="78 88.3245 94.449008 98.263507 104.80801 110.93251 114.74701 120.871509 126.57101 130.38552 137.98001 144.1045 150.649 154.4635 160.588 166.7125 172.83699 178.5365 185.711 192.4655 196.28 201.5645 205.379 212.9735 219.308 225.0075 231.552 235.5765 241.27602 248.87052 255.41501 265.94953 272.49403 276.30854 282.85304 289.18754 295.73204 303.53654 309.66105 315.36054 321.48506 329.07957 334.36408 340.90858 351.44309 357.98759 364.1121 370.6566 381.1911 387.3156 393.44013 399.13963 405.8941 413.48863">Meiosis involves pairing of homologous chromosomes and</tspan><tspan y="-225.8403" x="78 82.974597 88.789188 94.603778 100.83836 111.06296 117.92755 121.432147 128.71674 135.16133 139.50592 143.01052 149.2451 156.5297 161.92427 168.78887 174.60346 178.94805 187.49263 193.30722 199.12181 206.4064 211.80098 219.08557 225.32016 232.60475 237.15935 242.97394 246.47853 252.29312 256.63774 262.45234 267.4269 272.8215 278.6361 285.9207 290.89527 297.12986 307.35444 313.799 318.14363 321.6482 328.5128 334.3274 339.722 345.95658 349.67118 355.06578 362.35035 368.58494 378.8095 385.0441 388.54869 394.78327 400.80787 407.04246 414.53706">recombination between non-sister chromatids of homologous</tspan><tspan y="-213.8403" x="78 83.3318 90.133609 94.625408 100.377208 110.119 115.870807 121.20261 126.95441 136.69622 142.02802 147.35982">chromosomes.</tspan></text>
<text fill="#231f20" xml:space="preserve" transform="matrix(1 0 -0 1 -18 802.8)" font-size="9" font-family="TT60B6T00"><tspan y="-198.58531" x="60.136 59.8698">&#xfffd;&#xfffd;</tspan><tspan y="-198.8603" x="60.136 59.8698">&#xfffd;&#xfffd;</tspan><tspan y="-198.7203" x="60">&#xfffd;</tspan></text>
<text fill="#231f20" xml:space="preserve" transform="matrix(1 0 -0 1 -18 802.8)" font-size="10.5" font-family="Bookman"><tspan y="-198.7203" x="78 84.7139 90.5878 97.721698 102.335597 104.98449 111.90839 117.99229 124.496189 127.64008 133.51398 136.65789 143.16179 145.81069 151.26459 156.71849 159.8624 163.0063 168.4602 171.1091 177.193 181.8069 187.2608 189.9097 193.2636 199.1375 203.7514 213.61531 219.06922 225.57312 228.22202 234.30591 238.28981 240.9387 244.9226 251.84651 257.3004 259.94935 265.40324 272.32713 278.83103 281.47996 287.35386 290.70777 293.3567 303.22059 308.67448 311.81837 317.69227 323.14616 326.29005 331.74394 334.39286 337.95677 341.52067">Four haploid cells are formed at the end of meiosis II.</tspan><tspan y="-183.12032" x="78 87.6582 93.1164 96.2646 102.1428 106.131 109.2792 114.7374 117.32061 122.77881 128.23702 133.69522 140.62343 144.61164 150.06984 152.65305 158.11125 164.19945 171.12766 173.71086 180.21906 185.67726 188.26047 193.92867 198.54686 204.42507 211.56327 218.07146 223.52967 230.03786 232.62107 239.75926 246.68747 253.19567 258.65388 263.27207 265.85527 269.84346 276.77165 282.22984 284.81303 288.1712 294.0494 297.1976 300.3458 306.224 314.4122 317.5604 324.4886 330.1568 332.74003 339.24824 346.17643 352.26463 357.7228 363.181 368.6392">Meiotic events can be grouped under the following phases:</tspan></text>
<path transform="matrix(.23999998,0,0,-.23999998,-18,802.8)" d="M681.16 385.34H1403.4099V724.05H681.16Z" fill="#fedbb4" fill-rule="evenodd"/>
<path transform="matrix(.23999998,0,0,-.23999998,-18,802.8)" stroke-width="4" stroke-linecap="butt" stroke-miterlimit="1000" stroke-linejoin="miter" fill="none" stroke="#fcbb76" d="M681.16 385.34H1403.4099V724.05H681.16Z"/>
<text fill="#231f20" xml:space="preserve" transform="matrix(1 0 -0 1 -18 802.8)" font-size="9.5" font-family="Bookman"><tspan y="-161.04" x="170.16 179.11679 184.65358 188.10037 194.01717 198.98397 202.43076 207.39756 212.20435 262.08 270.995 276.49 279.895 285.77 290.695 294.1 299.02503 303.94 307.725">Meiosis IMeiosis II</tspan></text>
<text fill="#231f20" xml:space="preserve" transform="matrix(1 0 -0 1 -18 802.8)" font-size="9.5" font-family="Bookman"><tspan y="-145.44" x="170.16 176.0639 180.2578 185.59169 191.49559 197.7795 203.30339 208.2573 213.2112 217.8151 262.08 267.9766 272.1632 277.4898 283.3864 289.66304 295.17964 300.12623 305.0728 309.61943 312.85603">Prophase IProphase II</tspan><tspan y="-130.08" x="170.16 179.01149 184.06298 187.78447 193.40596 199.40746 205.78894 211.41043 216.46192 221.5134 226.21489 262.08 270.8896 275.89918 279.57878 285.15837 291.11796 297.45756 303.03715 308.04673 313.0563 317.71589 321.01548">Metaphase IMetaphase II</tspan><tspan y="-114.72" x="170.16 176.7439 183.1378 188.7717 194.7856 201.1795 206.8134 211.8773 216.94121 221.6551 262.08 268.6406 275.0112 280.6218 286.6124 292.983 298.5936 303.6342 308.67478 313.36537 316.69596">Anaphase IAnaphase II</tspan><tspan y="-99.36" x="170.16 176.08559 181.06118 183.94676 189.30236 195.22794 201.53353 207.07912 212.0547 217.03029 221.65589 262.08 267.99238 272.95478 275.82716 281.16954 287.0819 293.3743 298.90669 303.86909 308.83149 313.44386 316.69624">Telophase ITelophase II</tspan></text>
<path transform="matrix(.23999998,0,0,-.23999998,146.4,647.52)" stroke-width="4" stroke-linecap="butt" stroke-miterlimit="10" stroke-linejoin="miter" fill="none" stroke="#ffffff" d="M0 0H715"/>
<path transform="matrix(.23999998,0,0,-.23999998,227.04,630)" stroke-width="4" stroke-linecap="butt" stroke-miterlimit="10" stroke-linejoin="miter" fill="none" stroke="#ffffff" d="M0 0V-331"/>
<path transform="matrix(.23999998,0,0,-.23999998,146.4,661.68)" stroke-width="4" stroke-linecap="butt" stroke-miterlimit="10" stroke-linejoin="miter" fill="none" stroke="#ffffff" d="M0 0H715"/>
<path transform="matrix(.23999998,0,0,-.23999998,146.4,677.28)" stroke-width="4" stroke-linecap="butt" stroke-miterlimit="10" stroke-linejoin="miter" fill="none" stroke="#ffffff" d="M0 0H715"/>
<path transform="matrix(.23999998,0,0,-.23999998,146.4,692.88)" stroke-width="4" stroke-linecap="butt" stroke-miterlimit="10" stroke-linejoin="miter" fill="none" stroke="#ffffff" d="M0 0H715"/>
<g clip-path="url(#clip_861)">
<text xml:space="preserve" transform="matrix(1 0 -0 1 259.314 763.9998)" font-size="8" font-family="Arial"><tspan y="6.316" x="0"> </tspan></text>
</g>
</g>
</svg>
