<svg xmlns="http://www.w3.org/2000/svg" xmlns:xlink="http://www.w3.org/1999/xlink" xmlns:inkscape="http://www.inkscape.org/namespaces/inkscape" version="1.1" width="576" height="784.8" viewBox="0 0 576 784.8">
<defs>
<clipPath id="clip_2117">
<path transform="matrix(1,0,0,-1,-18,802.8)" d="M18 18H594V802.8H18Z" clip-rule="evenodd"/>
</clipPath>
<clipPath id="clip_2118">
<path transform="matrix(1,0,0,-1,259.314,763.9998)" d="M0-8H57.372V.800049H0Z"/>
</clipPath>
</defs>
<g>
<g clip-path="url(#clip_2117)">
<path transform="matrix(.24,0,0,-.24,-18,802.8)" d="M2 2H2548V214.668H2Z" fill="#cbdf7f" fill-rule="evenodd"/>
<path transform="matrix(.24,0,0,-.24,-18,802.8)" stroke-width="4" stroke-linecap="butt" stroke-miterlimit="1000" stroke-linejoin="miter" fill="none" stroke="#cbdf7f" d="M2 2H2548V214.668H2Z"/>
<path transform="matrix(.24,0,0,-.24,-18,802.8)" d="M0 3035.83H2550V3372.705H0Z" fill="#d1d3d4" fill-rule="evenodd"/>
<path transform="matrix(.24,0,0,-.24,-18,802.8)" d="M0 3078.33H2550V3419.998H0Z" fill="#e1ecb6" fill-rule="evenodd"/>
<path transform="matrix(.24,0,0,-.24,62.63616,53.635194)" d="M0 0C7.321 7.32 16.161 10.98 26.516 10.98H97.348C107.704 10.98 116.543 7.32 123.868 0 131.188-7.32 134.848-16.16 134.848-26.52V-101.52C134.848-111.88 131.188-120.72 123.868-128.04 116.543-135.36 107.704-139.02 97.348-139.02H26.516C16.161-139.02 7.321-135.36 0-128.04-7.324-120.72-10.984-111.88-10.984-101.52V-26.52C-10.984-16.16-7.324-7.32 0 0" fill="#ffffff" fill-rule="evenodd"/>
<text fill="#231f20" xml:space="preserve" transform="matrix(1 0 -0 1 -18 802.8)" font-size="11" font-family="Bookman,Bold" font-weight="bold"><tspan y="-729.361" x="87.12 94.41 101.700008">152</tspan></text>
<text fill="#231f20" xml:space="preserve" transform="matrix(1 0 -0 1 -18 802.8)" font-size="11" font-family="Bookman"><tspan y="-729.361" x="513.12">B</tspan></text>
<text fill="#231f20" xml:space="preserve" transform="matrix(1 0 -0 1 -18 802.8)" font-size="7.7" font-family="Bookman"><tspan y="-729.361" x="521.04 523.36868 529.30868 533.67788 539.61788 545.55789">IOLOGY</tspan></text>
<path transform="matrix(.24,0,0,-.24,-18,.35998536)" stroke-width="1" stroke-linecap="butt" stroke-miterlimit="10" stroke-linejoin="miter" fill="none" stroke="#000000" d="M0 0H60"/>
<path transform="matrix(.24,0,0,-.24,.12000084,-18)" stroke-width="1" stroke-linecap="butt" stroke-miterlimit="10" stroke-linejoin="miter" fill="none" stroke="#000000" d="M0 0V-60"/>
<path transform="matrix(.24,0,0,-.24,-18,784.68)" stroke-width="1" stroke-linecap="butt" stroke-miterlimit="10" stroke-linejoin="miter" fill="none" stroke="#000000" d="M0 0H60"/>
<path transform="matrix(.24,0,0,-.24,.12000084,788.16)" stroke-width="1" stroke-linecap="butt" stroke-miterlimit="10" stroke-linejoin="miter" fill="none" stroke="#000000" d="M0 0V-60"/>
<path transform="matrix(.24,0,0,-.24,593.64,784.56)" stroke-width="1" stroke-linecap="butt" stroke-miterlimit="10" stroke-linejoin="miter" fill="none" stroke="#000000" d="M0 0V-75"/>
<text fill="#231f20" xml:space="preserve" transform="matrix(1 0 -0 1 -18 802.8)" font-size="10" font-family="Bookman"><tspan y="-688.561" x="114 119.6419 132.95999 140.25069 147.1314 154.6221 157.6328 162.8835 170.15999 178.31999 180.92229 183.97069 189.2591 191.86139 197.7598 204.4782 207.08049 212.3689 219.0873 223.9657 229.4541 239.0225 244.31092 246.91321 250.7716 257.49003 263.38844 267.24684 269.84916 275.74757 281.03596 284.89436 290.18275 292.78507 299.09349 304.79188 308.65028 315.36869 317.971 323.86943 329.1578 331.76014 337.65855 340.26087 345.54927 351.44767 355.91609 362.2245 367.92289 373.62129 379.10969 382.15809 388.0565 393.34489 398.63328 401.2356 407.134 413.85243 420.16084 422.76316 428.46156 434.15995 439.64836 445.13676 450.42515 457.14356 463.04197 468.33036 473.61875 476.86717 479.46949 489.23789 495.9563 501.4447 504.04704 510.35545">4.RuBisCO is an enzyme that acts both as a carboxylase and oxygenase. Why do</tspan><tspan y="-674.401" x="132 137.4662 143.1424 150.03859 152.46479 156.30098 162.99718 166.02338 172.71958 179.00577 181.44 188.7408 195.63159 203.13239 206.15319 211.41399 218.91478 226.8 229.2186 234.4772 240.34581 244.78441 249.223 252.24161 257.5002 262.75883 265.17744 270.84605 277.73466 281.56327 283.98188 293.52049 299.1891 303.6277 308.8863 311.3049 316.5635 322.4321 326.8707 333.1493 338.8179 344.4865 349.9451 352.96369 358.83229 362.6609 365.67948 371.34809 378.03669 380.4553 383.47389 390.16249 392.5811">you think RuBisCO carries out more carboxylation in C</tspan></text>
<text fill="#231f20" xml:space="preserve" transform="matrix(1 0 -0 1 -18 802.8)" font-size="5.8" font-family="Bookman"><tspan y="-671.041" x="400.08003">4</tspan></text>
<text fill="#231f20" xml:space="preserve" transform="matrix(1 0 -0 1 -18 802.8)" font-size="10" font-family="Bookman"><tspan y="-674.401" x="403.68003 406.06224 412.35444 415.38664 421.26884 427.97105 431.81324 437.08543"> plants?</tspan><tspan y="-657.361" x="114.00003 119.64193 132.96002 139.67452 146.58902 152.89353 159.19803 164.89253 170.17704 175.46154 178.13335 181.98786 188.70235 193.98685 198.45134 203.73584 206.40766 214.34215 219.62665 224.09114 229.37564 232.04746 238.35196 241.39646 247.29096 254.00545 257.85997 263.14445 265.81626 269.67076 276.38526 282.27976 286.13426 288.80607 295.52058 301.41508 307.71958 310.3914 316.2859 318.9577 325.6722 328.7167 334.2012 340.9157 343.58753 348.872 354.5665 361.281 366.5655 371.84999 378.56449 382.41899 386.88349 392.77799 396.63249 399.67698 405.37147 412.08598 414.75779 420.45228 423.69679 426.3686 433.8931 440.6076 443.6521 449.3466 453.8111 459.50559 465.8101 472.5246 478.0091 481.0536 484.09809">5.Suppose there were plants that had a high concentration of Chlorophyll </tspan></text>
<text fill="#231f20" xml:space="preserve" transform="matrix(1 0 -0 1 -18 802.8)" font-size="10" font-family="Bookman,Italic" font-style="italic"><tspan y="-657.361" x="486.96003">b</tspan></text>
<text fill="#231f20" xml:space="preserve" transform="matrix(1 0 -0 1 -18 802.8)" font-size="10" font-family="Bookman"><tspan y="-657.361" x="492.96003 496.226 498.892 505.218 512.154">, but</tspan><tspan y="-643.44107" x="132.00003 135.04854 140.94704 146.23554 152.54404 157.83254 164.14104 167.71454 173.00304 179.72154 182.77005 188.46855 192.93706 198.63556 204.94406 211.66257 217.15106 220.19957 223.24808">lacked chlorophyll </tspan></text>
<text fill="#231f20" xml:space="preserve" transform="matrix(1 0 -0 1 -18 802.8)" font-size="10" font-family="Bookman,Italic" font-style="italic"><tspan y="-643.44107" x="226.80004">a</tspan></text>
<text fill="#231f20" xml:space="preserve" transform="matrix(1 0 -0 1 -18 802.8)" font-size="10" font-family="Bookman"><tspan y="-643.44107" x="232.56003 235.80812 239.39511 247.3332 253.03131 259.9494 262.9975 269.3056 272.8926 275.9407 279.7988 283.3858 288.6739 294.572 299.0401 303.5082 308.9963 312.5833 318.2814 325.1995 329.0576 332.6446 338.9527 345.6708 351.3689 355.227 360.92509 366.21318 371.70127 378.41938 382.27748 388.99559 394.28367 399.57176 402.61985 407.90794 413.39604 416.98304 423.29115 430.00926 435.29734 442.01545 445.60246 453.54057 460.25868 465.74678 469.33378 475.64189 481.33998 484.92698 491.23509 494.28318 500.18128 506.89939 510.75749">, would it carry out photosynthesis? Then why do plants</tspan><tspan y="-629.52108" x="132.00003 138.68314 144.54624 149.79933 155.05243 157.46553 162.71863 169.40174 172.41484 178.07794 182.51105 188.17415 194.44725 201.13036 206.58345 209.59656 212.60967">have chlorophyll </tspan></text>
<text fill="#231f20" xml:space="preserve" transform="matrix(1 0 -0 1 -18 802.8)" font-size="10" font-family="Bookman,Italic" font-style="italic"><tspan y="-629.52108" x="215.04004">b</tspan></text>
<text fill="#231f20" xml:space="preserve" transform="matrix(1 0 -0 1 -18 802.8)" font-size="10" font-family="Bookman"><tspan y="-629.52108" x="221.28005 223.68685 229.55614 236.24544 242.52474 244.93154 250.60083 254.43013 261.11943 266.37873 270.81803 273.22483 279.09413 284.35343 289.61274 294.87205 300.13136 305.39067 311.05998 315.49928 320.95857 323.36537 329.64466 332.66395 338.12324 347.66255 352.92185 359.61116 363.44047 368.69978"> and other accessory pigments?</tspan><tspan y="-612.4811" x="114.000049 119.641948 132.96006 142.72936 149.44866 154.93796 158.08725 161.13655 166.42586 169.57515 173.43445 180.15375 185.44306 188.59235 193.88166 199.58095 202.63025 208.32955 215.24884 219.71814 222.86743 228.56673 231.81603 234.96532 240.86463 244.01392 247.06322 252.35253 258.25184 261.50114 264.65043 270.95973 276.24903 282.55833 286.41764 289.56694 292.6162 299.3355 302.4848 306.34413 313.06343 318.35273 321.502 327.8113 333.7106 338.1799 344.4892 347.6385 350.8878 355.3571 360.6464 366.5457 373.465 378.7543 385.4736 389.33293 392.3822 397.8715 401.02079 407.33009 412.6194 417.9087 423.608 433.1773 438.4666 443.75593 446.9052 452.3945 457.6838 460.7331 463.78239 469.4817 475.68006 478.93836 482.09666 487.80497 492.28327 495.44157 501.75987 507.66816 510.72645">6.Why is the colour of a leaf kept in the dark frequently becomes yellow, or pale</tspan><tspan y="-598.5611" x="132.00006 137.46446 141.90886 147.17327 152.43767 159.13207 164.59647 167.00836 176.75276 183.44716 186.47156 191.73596 198.43036 200.84226 207.12665 210.15105 215.61545 225.15985 230.42426 237.11865 240.95305 243.36495 249.64934 255.32373 257.73564 263.2 268.87443 275.76884 278.18074 282.01515 288.70954 291.73396 298.42835 304.71275 307.12464 310.14906 315.41346 317.82536 327.36976 333.04417 337.48857 342.75297 345.16487 350.42927 354.26368 360.13807 366.42247 369.44688 374.71128">green? Which pigment do you think is more stable?</tspan><tspan y="-581.5211" x="114.00006 119.64196 132.96006 139.05886 144.75766 150.45647 156.76528 160.70067 166.59947 170.45827 174.39366 177.44246 182.73126 188.63007 193.91887 199.20767 204.49648 208.43187 214.13068 217.37947 221.31487 225.17366 231.89246 237.18126 241.11666 246.40546 252.30426 261.87306 267.16184 271.09727 277.40608 280.45487 286.35368 293.07249 296.93128 300.8667 306.5655 313.2843 317.21974 321.07853 327.79734 333.08613 337.02156 342.31034 349.02915 354.92796 361.23677 366.72557 370.66099 375.94978 378.99858 385.30738 390.59617 394.5316 400.4304 407.1492 413.458 417.39344 422.68223 428.381 437.9498 444.2586 450.1574 454.62623 459.915 463.85044 466.89924 470.75804 474.69346 482.63227 485.68107 489.53987 496.25868 500.1941 504.0529 510.7717">7.Look at leaves of the same plant on the shady side and compare it with the</tspan><tspan y="-567.36117" x="132.00005 134.94554 140.13105 145.92655 151.11205 156.29755 161.48305 163.81784 169.41335 176.02884 178.36363 182.11913 188.73462 193.92012 196.25492 201.44042 208.25592 214.87142 221.48691 226.8724 229.2072 234.3927 237.3382 243.5437 248.7292 251.8747 254.20949 262.56007 265.44007 268.58357 270.91636 276.09986 281.69337 291.15687 297.36036 303.15385 307.51734 312.70085 315.03364 318.78715 325.40065 330.58415 332.91694 339.12043 344.71394 348.46745 352.22096 357.40446 363.60795 365.94075 372.14424 375.08775 380.88124 387.49473 391.24824 396.43174 398.76454 404.96803 410.15153 416.355 420.10853 422.4413 425.38484 431.99833 434.33113 438.08464 444.69813 449.88163 452.21443 457.39793 464.21144 470.82493 473.76844 476.71195 482.09547 488.70896 492.46247 494.79527 502.62876 505.57228 509.32579">leaves on the sunny side. Or, compare the potted plants kept in the sunlight with</tspan><tspan y="-553.44119" x="132.00006 135.85837 142.57666 148.27497 153.56327 158.85157 161.46057 164.50887 171.22718 173.83618 177.69449 184.41278 189.70108 192.31009 197.59839 204.31668 210.21498 216.52329 221.81159 225.05989 227.6689 237.4372 244.15549 247.20378 252.49208 259.2104 261.81938 267.51768 270.76597 273.37495 277.23326 283.95155 289.23985 298.80815 301.4171 308.1354 314.0337 319.322 321.93098 324.97929 330.26759 336.1659 341.4542 346.7425 352.0308 354.63978 358.49809 365.21638 371.1147 374.973 377.58198 383.4803 387.94859 393.23689 395.84587 402.15415 408.05244 412.52073 418.829 424.1173 428.5856 431.19459 436.6829 441.15119 446.43949 451.72779 458.44609 461.05506 466.54338 469.15235 478.92066 485.63896 491.12727">those in the shade. Which of them has leaves that are darker green ? Why?</tspan><tspan y="-536.4012" x="114.00006 119.64196 132.96006 139.32695 142.23386 147.58075 154.35765 158.68456 163.83145 166.12506 172.29196 178.45886 181.56577 187.73267 193.89957 196.19318 201.34008 207.91698 213.47388 221.27079 226.41768 228.71129 232.42819 239.0051 244.152 246.4456 251.5925 254.6994 257.8063 262.95323 268.10014 271.81703 274.11064 279.66755 282.77445 285.06806 287.97496 290.88185 296.22874 302.80564 306.52253 308.81614 314.37306 320.94996 323.24357 326.96046 333.53736 338.68428 340.97789 345.30479 351.06169 354.77857 359.92549 362.2191 367.776 370.8829 373.1765 379.3434 385.92033 391.47724 395.19413 400.75105 405.89796 411.24485 417.82176 421.53865 428.11555 433.26246 438.40937 441.31626 446.46318 449.57008 451.86369 454.1573 461.5442 467.3011 472.448 477.5949 483.7618 486.05543 491.6123 498.1892 500.48283 504.1997 510.7766">8.Figure 11.10 shows the effect of light on the rate of photosynthesis.  Based on the</tspan><tspan y="-522.4812" x="132.00005 137.44045 141.86084 147.71125 153.97165 160.64205 163.84244 166.23033 172.08074 178.75113 183.99153 191.88193 197.12233 201.54273 203.93062 207.74102 214.4114 219.65181 222.0397 225.2401 230.8905 233.8909 236.8913 242.5417 250.4321 253.4325 260.1029 265.5433 267.9312 273.78163 280.652 285.8924 291.13279 294.94319 297.94358 303.59397 310.26438 315.50477">graph, answer the following questions:</tspan><tspan y="-505.4412" x="132.96006 136.00426 141.89846 144.94266 147.58026 154.49446 158.34867 160.98627 168.92047 175.63468 178.67888 183.96308 190.67728 193.31488 199.61908 205.31328 208.35749 215.07169 218.92589 225.02008 230.30428 232.94188 235.98609 243.36005 246.58795 249.20926 256.71717 259.33848 265.01637 269.46427 272.08558 279.36006 282.41035 285.05406 288.10435 294.82466 297.46836 301.32865 308.04896 313.33927 315.98298 321.2733 328.19358 332.66389 337.9542 343.2445 345.8882 348.9385 351.9888 357.4791 364.1994 368.0597 370.7034 373.7537 379.044 381.6877 387.588 390.23173 393.282 396.3323 405.90263 408.9529 412.8132 415.8635 422.5838 428.0741 430.7178 433.9681 439.8684 445.15873 449.019 454.7193 459.1896">(a) At which point/s (A, B or C) in the curve light is a limiting factor?</tspan><tspan y="-491.52119" x="132.96006 135.99776 142.29546 145.33316 147.75977 157.51747 164.22518 170.11287 173.96057 176.38718 181.66487 187.35257 194.26027 197.29798 203.59568 206.02228 212.31998 217.59767 220.02428 223.87198 230.57968 235.85738 238.28398 241.32169 244.35939 253.91709 256.95478 260.80247 263.84016 270.54786 276.02555 278.45216 281.68986 287.57756 292.85527 296.70295 302.39067 306.84837 312.93608 318.21379 320.64039 323.67808 330.38578 332.81239 337.27009 342.5478 348.02549 351.06318 356.7509 363.4586 365.8852 372.7929">(b) What could be the limiting factor/s in region A?</tspan><tspan y="-477.36119" x="132.96006 136.00475 141.28945 144.33414 146.94385 156.70854 163.42325 169.31795 173.17266 175.78237 182.08707 187.78177 190.39148 197.91619 200.5259 206.4206 213.1353 219.44 222.04972 224.65943 232.79413 235.40384 239.86855 245.15325 251.45795 255.92266 261.20738 266.49208 271.77677 278.49147 282.34617 284.95585 290.65055 297.36524 299.9749 303.82963 310.5443 315.829 318.4387 323.7234 330.6381 335.10279 340.38749 345.67219">(c) What do C and  D represent on the curve?</tspan><tspan y="-460.5612" x="114.00005 119.64195 132.96006 141.00775 143.96546 149.16315 154.36084 156.70604 161.90373 167.51143 176.98914 183.20684 189.01453 193.39223 196.34993 201.54763 207.15532 213.78302 216.12822 222.34592 227.54361 231.31131 239.15901 244.3567 249.5544 256.1821 258.5273 262.295 268.9227 274.1204 276.4656 279.62333 285.23103 288.18873 291.14643 296.75413 304.6018 307.5595 314.1872 319.5849">9.Give comparison between the following:</tspan><tspan y="-443.52119" x="132.96006 136.01085 141.91165 144.96245 147.76325">(a) C</tspan></text>
<text fill="#231f20" xml:space="preserve" transform="matrix(1 0 -0 1 -18 802.8)" font-size="5.8" font-family="Bookman"><tspan y="-440.1612" x="155.28006">3</tspan></text>
<text fill="#231f20" xml:space="preserve" transform="matrix(1 0 -0 1 -18 802.8)" font-size="10" font-family="Bookman"><tspan y="-443.52119" x="158.88007 161.65486 167.52967 174.22446 180.50926 183.28408"> and C</tspan></text>
<text fill="#231f20" xml:space="preserve" transform="matrix(1 0 -0 1 -18 802.8)" font-size="5.8" font-family="Bookman"><tspan y="-440.1612" x="191.04007">4</tspan></text>
<text fill="#231f20" xml:space="preserve" transform="matrix(1 0 -0 1 -18 802.8)" font-size="10" font-family="Bookman"><tspan y="-443.52119" x="194.64008 197.39208 203.70407 209.60608 213.46808 220.19008 228.13208 234.03409 239.5261"> pathways</tspan><tspan y="-429.36119" x="132.96009 135.93399 142.1679 145.1418 147.5032 154.9571 160.371 165.5849 168.5588 171.53272 176.74662 179.10802 184.93192 191.57582 197.80973 200.17113 206.81504 212.43894 219.08284 223.07674 228.29064 233.70453 238.91843 241.89234 244.86624 250.08014 252.44155 258.67546 265.31935 270.94325 274.72715 280.35105 286.58494 293.22883 298.85273 304.06663 310.3005 316.9444 322.5683 326.9622 332.3761 335.35 341.17393 344.95783 347.93174 353.55564">(b) Cyclic and non-cyclic photophosphorylation</tspan><tspan y="-415.44117" x="132.96009 136.00989 141.29969 144.34949 147.0093 153.9291 160.6489 166.54869 170.4085 176.10829 185.67809 191.1679 193.8277 199.5275 202.7773 205.4371 208.48691 213.7767 219.6765 222.9263 225.5861 228.63591 235.35572 238.01552">(c) Anatomy of leaf in C</tspan></text>
<text fill="#231f20" xml:space="preserve" transform="matrix(1 0 -0 1 -18 802.8)" font-size="5.8" font-family="Bookman"><tspan y="-412.08119" x="245.52008">3</tspan></text>
<text fill="#231f20" xml:space="preserve" transform="matrix(1 0 -0 1 -18 802.8)" font-size="10" font-family="Bookman"><tspan y="-415.44117" x="249.12009 251.75688 257.64369 264.35047 270.64729 273.28407"> and C</tspan></text>
<text fill="#231f20" xml:space="preserve" transform="matrix(1 0 -0 1 -18 802.8)" font-size="5.8" font-family="Bookman"><tspan y="-412.08119" x="280.80009">4</tspan></text>
<text fill="#231f20" xml:space="preserve" transform="matrix(1 0 -0 1 -18 802.8)" font-size="10" font-family="Bookman"><tspan y="-415.44117" x="284.4001 287.0626 293.3851 296.4476 302.3601 309.09263 312.96513"> plants</tspan></text>
<g clip-path="url(#clip_2118)">
<text xml:space="preserve" transform="matrix(1 0 -0 1 259.314 763.9998)" font-size="8" font-family="Arial"><tspan y="6.316" x="0"> </tspan></text>
</g>
</g>
</g>
</svg>
