<svg xmlns="http://www.w3.org/2000/svg" xmlns:xlink="http://www.w3.org/1999/xlink" xmlns:inkscape="http://www.inkscape.org/namespaces/inkscape" version="1.1" width="576" height="784.8" viewBox="0 0 576 784.8">
<defs>
<clipPath id="clip_4223">
<path transform="matrix(1,0,0,-1,-18,802.8)" d="M18 18H594V802.8H18Z" clip-rule="evenodd"/>
</clipPath>
<clipPath id="clip_4224">
<path transform="matrix(1,0,0,-1,259.314,763.9998)" d="M0-8H57.372V.800049H0Z"/>
</clipPath>
</defs>
<g clip-path="url(#clip_4223)">
<path transform="matrix(.23999998,0,0,-.23999998,-18,802.8)" d="M2 2H2548V214.67H2Z" fill="#cbdf7f" fill-rule="evenodd"/>
<path transform="matrix(.23999998,0,0,-.23999998,-18,802.8)" stroke-width="4" stroke-linecap="butt" stroke-miterlimit="1000" stroke-linejoin="miter" fill="none" stroke="#cbdf7f" d="M2 2H2548V214.67H2Z"/>
<path transform="matrix(.23999998,0,0,-.23999998,-18,802.8)" d="M0 3035.83H2550V3372.7003H0Z" fill="#d1d3d4" fill-rule="evenodd"/>
<path transform="matrix(.23999998,0,0,-.23999998,-18,802.8)" d="M0 3078.33H2550V3420H0Z" fill="#e1ecb6" fill-rule="evenodd"/>
<path transform="matrix(.23999998,0,0,-.23999998,62.63616,53.635194)" d="M0 0C7.32 7.32 16.16 10.98 26.52 10.98H97.35C107.71 10.98 116.55 7.32 123.87 0 131.19-7.33 134.85-16.17 134.85-26.52V-101.52C134.85-111.88 131.19-120.72 123.87-128.04 116.55-135.36 107.71-139.02 97.35-139.02H26.52C16.16-139.02 7.32-135.36 0-128.04-7.32-120.72-10.98-111.88-10.98-101.52V-26.52C-10.98-16.17-7.32-7.33 0 0" fill="#ffffff" fill-rule="evenodd"/>
<text fill="#231f20" xml:space="preserve" transform="matrix(1 0 -0 1 -18 802.8)" font-size="11" font-family="Bookman"><tspan y="-729.361" x="87.12 94.26001">94</tspan></text>
<text fill="#231f20" xml:space="preserve" transform="matrix(1 0 -0 1 -18 802.8)" font-size="11" font-family="Bookman"><tspan y="-729.361" x="513.12">B</tspan></text>
<text fill="#231f20" xml:space="preserve" transform="matrix(1 0 -0 1 -18 802.8)" font-size="7.69999" font-family="Bookman"><tspan y="-729.361" x="521.04 523.4336 529.3692 533.76486 539.70046 545.63607">IOLOGY</tspan></text>
<path transform="matrix(.23999998,0,0,-.23999998,-18,.35998536)" stroke-width="1" stroke-linecap="butt" stroke-miterlimit="10" stroke-linejoin="miter" fill="none" stroke="#000000" d="M0 0H60"/>
<path transform="matrix(.23999998,0,0,-.23999998,.12000084,-18)" stroke-width="1" stroke-linecap="butt" stroke-miterlimit="10" stroke-linejoin="miter" fill="none" stroke="#000000" d="M0 0V-60"/>
<path transform="matrix(.23999998,0,0,-.23999998,-18,784.68)" stroke-width="1" stroke-linecap="butt" stroke-miterlimit="10" stroke-linejoin="miter" fill="none" stroke="#000000" d="M0 0H60"/>
<path transform="matrix(.23999998,0,0,-.23999998,.12000084,788.16)" stroke-width="1" stroke-linecap="butt" stroke-miterlimit="10" stroke-linejoin="miter" fill="none" stroke="#000000" d="M0 0V-60"/>
<path transform="matrix(.23999998,0,0,-.23999998,593.64,784.56)" stroke-width="1" stroke-linecap="butt" stroke-miterlimit="10" stroke-linejoin="miter" fill="none" stroke="#000000" d="M0 0V-75"/>
<text fill="#231f20" xml:space="preserve" transform="matrix(1 0 -0 1 -18 802.8)" font-size="10.5" font-family="Bookman"><tspan y="-689.521" x="210.24 217.3755 224.30101 226.87021 230.01572 239.88121 246.3867 251.0022 256.8777 262.3332 267.7887 274.2942 276.8634 286.7289 292.6044 299.1099 304.5654 307.7109 310.28013 316.1556 319.5111 322.08033 324.64955 328.63505 335.56056 341.01606 343.58528 349.04078 353.02629 357.64179 364.77729 370.2328 374.2183 381.3538 385.9693 391.4248 393.99403 399.8695 403.225 405.79423 411.24974 416.70524 419.85075 422.99626 425.56547 435.43098 440.88648 450.75199 457.25749 461.873 467.9585 474.884 480.3395 482.90873 491.0942 497.17973 502.63523 505.20445 511.70994 516.32546 522.2009 528.7064 534.5819 540.0374 545.4929">An improved model of  the structure of cell membrane was proposed</tspan><tspan y="-675.361" x="192.24 198.74422 204.40843 207.71895 214.64316 217.78737 224.71158 230.3758 235.83 240.44422 243.75473 249.83895 256.76316 263.26737 266.57789 274.3421 277.4863 282.94053 288.81474 291.95893 297.41316 303.28736 310.21159 313.5221 316.6663 323.1705 329.6747 336.17893 342.68315 345.82734 349.13786 357.32206 360.46626 366.97047 372.42469 375.56889 381.2331 384.5436 390.6278 396.08204 401.53627 406.99049 413.4947 417.4789 422.93315 429.43736 432.74787 438.83207 444.2863">by Singer and Nicolson (1972) widely accepted as </tspan></text>
<text fill="#231f20" xml:space="preserve" transform="matrix(1 0 -0 1 -18 802.8)" font-size="10.5" font-family="Bookman"><tspan y="-675.361" x="447.597 451.6193 455.2216 462.1839 465.9962 472.74848 476.30079 486.83308 493.37538 498.86769 504.99 508.80229 514.92459 518.47689 529.00918 535.55148 542.3038 548.4261">fluid mosaic model</tspan></text>
<text fill="#231f20" xml:space="preserve" transform="matrix(1 0 -0 1 -18 802.8)" font-size="10.5" font-family="Bookman"><tspan y="-661.441" x="192.24 195.3873 202.1046 205.25189 210.91919 218.05649 222.67378 228.13109 232.20339 238.71068 242.06798 248.57527 251.72257 255.07987 259.15217 266.28947 271.74678 277.20408 283.08137 287.69868 294.20597 297.35328 304.28059 309.94789 314.02018 318.00749 323.88478 327.95707 331.94438 338.87168 342.01899 347.4763 350.8336 354.90589 358.8932 365.8205 371.2778 375.3501 381.4374 388.5747 394.66203 400.11933 403.26664 407.46394 410.82124 413.96855 421.10585 424.25315 430.76045 434.83274 441.76005 447.84736 451.83467 458.97196 463.58927 469.04658 473.11888 478.99617 482.35346 486.42576 489.57307 492.72038 499.22767 502.37498 508.88227 512.9545 518.4118 525.3391 531.4264 537.9337 541.081 546.53829">(Figure 8.4). According to this, the quasi-fluid nature of lipid enables</tspan><tspan y="-647.521" x="192.24 195.1895 201.079 204.8685 210.128 214.5475 220.437 223.38649 225.70969 235.37918 241.05869 246.31819 251.5777 261.2472 266.50669 273.23619 277.02568 279.34889 285.02839 288.18788 290.51106 296.82057 301.44 307.1255 310.921 316.1865 319.142 325.8775 331.143 333.4722 341.4677 344.42323 348.21873 354.95423 357.90974 364.64524 366.97444 370.76994 377.50544 382.77095 385.10014 390.7856 396.05113 401.31663 405.74214 411.63764 414.59315 417.54866 419.87785 426.19334 429.14884 432.10435 437.99986 443.47535 448.74085 452.4 455.5622 457.8881 464.20033 470.93254 473.88475 479.14695 481.47285 487.36506 493.67726 496.62947 499.58168 502.53388 506.32609 511.79829 514.1242 517.91647 523.59866 525.92459 535.5968 541.279 546.5412">lateral movement of proteins within the overall bilayer. This ability to move</tspan><tspan y="-633.361" x="192.24 200.4051 203.53022 207.49532 214.40042 217.52553 224.43064 226.93004 230.89514 237.80025 243.23535 245.73476 255.57987 261.01496 270.86006 277.34516 281.94026 288.00535 294.91044 300.34553 302.84495 305.97004 311.40513 313.90455 323.74964 329.18473 335.24983 340.6849 347.80003 352.3951 357.8302 364.3153 366.81474 372.87983 378.3149 380.81434 383.93943 387.9045 393.3396 395.83903 399.17414 402.29924 409.41435 412.53944 419.02455 422.14964 426.11473 431.75984">within the membrane is measured as its fluidity.</tspan><tspan y="-619.441" x="210.24 216.72902 223.63803 229.07704 231.57855 234.91756 238.04657 245.16558 248.29459 254.7836 257.28514 264.19413 270.26313 274.23216 281.35118 285.95018 291.38917 293.8907 299.7497 303.0887 305.59025 309.55928 316.46827 321.9073 324.4088 334.2578 339.69685 349.54585 356.03486 360.63386 366.70286 373.61186 379.05085 381.55238 384.68138 390.12037 392.6219 398.6909 401.8199 407.2589 413.11793 415.61946 418.74845 428.59745 435.08647 440.94548 445.54447 449.5135 455.5825 462.4915 466.4605 468.96205 472.30107 476.90007 482.75907 492.60807 495.1096 499.0786 505.9876 511.42665 513.92819 520.4172 526.2762 529.4052 536.3142 540.2832 542.7847 548.64376">The fluid nature of the membrane is also important from the point of</tspan><tspan y="-605.521" x="192.24 197.69951 200.84902 206.30852 214.49802 218.16861 224.04811 227.40761 231.0782 234.4377 241.5772 248.5067 253.9662 257.9557 261.1052 266.98469 273.91419 279.3737 283.04429 286.1938 289.3433 295.85279 301.3123 304.98289 310.44239 315.9019 319.0514 322.2009 325.8715 331.541 336.1605 342.03999 350.2295 354.219 361.1485 364.508 368.1786 371.5381 377.41758 382.03709 391.9066 397.9961 401.9856 405.1351 411.0146 417.9441 421.6147 427.49418 430.85368 434.52427 437.67378 444.60328 448.59278 454.05229 458.67179 464.1313 469.5908 472.7403 475.8898 483.0293 486.1788 492.2683 496.88783 500.5584 503.70793 510.8474 517.7769 523.2364 527.2259 530.37539 536.2549 543.1844 548.64389">view of functions like cell growth, formation of intercellular junctions,</tspan><tspan y="-591.361" x="192.24 197.61782 202.99562 208.37343 212.91124 218.28905 222.19686 225.26467 231.06247 237.91028 241.1881 243.62842 249.00623 255.85404 262.28184 268.07966 273.45747 279.04527 282.95307 288.7509 294.1287 297.1965 302.5743 305.8521 308.29243 313.67024 319.04804 322.11585 325.18367 327.62397 334.05177 337.11958 342.49739 345.5652 350.943 354.0108 359.80863 366.65644 369.09675 374.47456 378.38236 383.76017">secretion, endocytosis, cell division etc.</tspan><tspan y="-577.441" x="210.24 218.63872 225.56743 231.02614 233.59854 239.47725 242.83596 245.40836 249.39707 256.32579 261.7845 264.3569 274.22563 280.10435 285.56306 289.55177 292.12419 295.2729 305.1416 311.6503 317.52903 322.14775 326.13645 332.22517 339.15388 343.14259 345.715 349.0737 356.2124 363.1411 368.59983 372.58854 375.73725 381.61598 388.54469 394.0034 396.5758 402.45454 405.81324 408.38566 412.37437 419.30308 424.76179 427.3342 433.8429 436.9916 443.08033 448.53904 458.40776 464.49647 467.06889 476.9376 482.3963 492.265 498.7737 503.39244 509.48115 516.40988 521.8686 524.441 527.58969 533.0484 535.6208 539.6095 546.5382">One of the most important functions of the plasma membrane is the</tspan><tspan y="-563.521" x="192.24 195.9459 200.28182 206.0877 212.73361 217.90952 224.13542 229.73133 234.06723 237.77313 240.01403 245.60993 248.68582 250.92671 254.63262 261.2785 266.4544 268.6953 278.28123 283.8771 286.743 291.9189 297.09483 303.9507 306.81663 311.99253 317.16844 319.40934 325.21525 330.39115 334.72706 340.32295 345.49885 350.67475 352.91566 355.78157 359.48747 362.56336 364.80427 371.03016 377.67607 382.85197 385.09288 394.67878 399.85469 409.44059 415.66648 420.00239 425.8083 432.4542 437.6301 439.871 442.7369 447.9128 450.15373 455.32963 460.50553 463.37144 468.54734 473.72325 477.42915 480.29505 485.47096 490.64686 493.51277 498.89866 501.13957 507.36546 512.5413 516.8772 526.4631 531.639 537.4449 543.6708 546.5367">transport of the molecules across it. The membrane is selectively permeable</tspan><tspan y="-549.361" x="192.24 196.17601 202.00202 204.47052 209.87653 215.70253 225.51853 230.92453 233.39304 243.20903 249.03504 252.13103 257.53703 262.94303 270.02903 273.12504 278.53105 283.93705 286.40556 292.86155 297.42756 302.83357 308.23957 313.64558 320.52159 324.45759 326.9261 332.75209 339.62809 342.0966 347.5026 350.5986 354.5346 361.4106 366.81663 371.38264 373.85115 379.25715 382.35316 388.80915 394.21516 396.68367 402.50965 405.81565 408.28416 411.38017 415.31617 418.62217 421.09068 430.69667 436.73268 443.60868 449.22468 451.69319 461.5092 467.33518 470.43119 475.8372 481.2432 488.3292 491.4252 496.8312 502.2372 504.70573 510.11174 516.1477 523.0237 525.49227 535.3082 541.1342 546.5402">to some molecules present on either side of it. Many molecules can move</tspan><tspan y="-535.441" x="192.24 198.68582 203.24164 206.32746 211.72327 215.01908 218.10489 223.7107 226.1715 232.19731 237.59313 242.14894 247.96475 253.36057 258.75639 261.2172 265.143 272.00883 277.40464 279.86546 289.67127 295.06709 304.8729 311.3187 315.8745 321.90034 328.76615 334.16197 336.62278 344.7486 347.8344 351.76023 358.62605 364.44184 371.51765 375.44346 377.90428 383.93009 390.7959 396.4017 398.86253 403.41835 408.81416 414.83998 421.91578 425.0016 429.5574 434.95323 444.75904 450.15486 457.02067 460.94648 463.4073 469.22309 472.5189 474.9797 480.37553 487.24134 492.63716 497.19297 502.79878 508.40458 510.8654 516.8912 523.75698 530.20278 532.6636 536.58938 543.45516 546.54098">briefly across the membrane without any requirement of energy and this</tspan><tspan y="-521.521" x="192.24 195.3954 200.86081 204.4929 209.95832 216.05371 219.2091 222.3645 227.8299 234.34529 237.97739 241.9728 248.90819 254.3736">is called the </tspan></text>
<text fill="#231f20" xml:space="preserve" transform="matrix(1 0 -0 1 -18 802.8)" font-size="10.5" font-family="Bookman"><tspan y="-521.521" x="257.76 264.5837 270.7774 276.3411 281.9048 285.78849 292.19218 298.38587 302.40956 307.34324 312.27693 318.4706 325.7143 331.27799 338.10169 344.71537 349.64906">passive transport</tspan></text>
<text fill="#231f20" xml:space="preserve" transform="matrix(1 0 -0 1 -18 802.8)" font-size="10.5" font-family="Bookman"><tspan y="-521.521" x="354.48 357.8369 361.4771 369.24403 374.70094 381.83784 385.82475 390.44166 396.52857 399.67549 403.31568 408.77259 414.6495 417.79643 424.93333 428.92024 434.37715 439.83406 443.47425 453.34117 459.42808 465.09498 468.73518 478.60209 484.479 489.9359 495.39283 499.03303 505.11994 510.57685 515.1937 521.0706 526.5275 531.98446 535.62466 539.6116 546.53848">. Neutral solutes may move across the</tspan><tspan y="-507.361" x="192.24 202.10771 207.56542 217.43312 223.94083 228.55854 234.64624 241.57395 247.03165 250.92264 257.43034 263.09803 266.989 270.9767 277.90443 283.36213 287.2531 293.7608 298.3785 304.2562 309.7139 315.1716 320.6293 326.087 329.978 335.85569 339.21339 343.10438 348.56208 351.70979 361.57749 368.08518 371.23289 376.69059 380.58158 387.08927 390.23698 393.59468 396.95237 404.09007 409.54777 412.69548 418.57316 425.50086 429.39186 435.47956 438.62727 444.50495 451.43266 457.10035 460.99134 464.97904 471.90675 477.36445 481.25544 486.71315 492.59083 499.51853 504.97624 510.43394 517.36166 521.3493 525.967 532.0547 536.04238 539.19009 545.06777">membrane by the process of simple diffusion along the concentration</tspan><tspan y="-493.441" x="192.24 197.7137 202.1374 208.03112 214.34482 217.29853 222.56223 229.29593 233.08963 236.25333 238.58072 241.53443 244.69812 249.96183 253.12552 256.2892 258.6166 261.7803 266.16 271.85 281.53 283.8637 290.6037 293.5637 299.0437 305.7837 311.05369 315.48368 317.81739 323.08738 328.77738 335.51737 340.78736 346.05735 352.79734 356.59733 361.0273 366.9273 370.7273 373.6873 379.3773 386.11729 388.451 392.25099 397.94099 400.2747 404.07469 410.81468 416.08467 418.41838 421.37837 427.06837 435.06837 440.33836 444 447.17823 449.52015 458.64 464.53883 468.33763 473.6064 478.03523 480.36775 490.04655 495.94535 501.42417 503.75669 509.6555 512.6143 517.8831 523.5719 525.9044 535.58328 541.27206 546.54086">gradient, i.e., from higher concentration to the lower. Water may also move</tspan><tspan y="-479.521" x="192.24 198.32811 203.78621 208.40431 214.28241 219.74051 225.19861 227.7345 231.7226 238.6507 241.7988 247.2569 249.79279 259.6609 265.119 274.9871 281.49519 286.11329 292.2014 299.1295 304.5876 307.12348 310.48158 315.09968 320.97779 330.8459 333.38179 340.30989 343.45799 349.12608 356.05418 361.51228 366.13038 368.66627 372.65437 378.53248 381.06837 384.21647 390.09458 398.28269 403.74079 408.3589 410.89479 416.35289 422.231 429.1591 434.6172 440.0753 447.0034 450.9915 455.6096 461.6977 465.6858 468.8339 474.712 481.6401 484.9982 487.5341 497.1922 503.0703 508.5284 513.9865 523.8546 529.31277 536.24087 540.22897 542.76486 548.64297">across this membrane from higher to lower concentration. Movement of</tspan><tspan y="-465.361" x="192.24 200.3704 206.4008 210.3312 215.73162 220.292 222.7624 229.2128 234.8232 237.2936 243.74399 246.83438 250.13478 253.43518 260.5156 265.916 269.00639 274.82679 281.69718 284.1676 287.258 292.6584 295.1288 300.5292 306.5596 309.65 312.7404 318.14079 324.5912">water by diffusion is called </tspan></text>
<text fill="#231f20" xml:space="preserve" transform="matrix(1 0 -0 1 -18 802.8)" font-size="10.5" font-family="Bookman"><tspan y="-465.361" x="326.88 333.39 338.85 349.35 355.86003 361.32 365.1">osmosis</tspan></text>
<text fill="#231f20" xml:space="preserve" transform="matrix(1 0 -0 1 -18 802.8)" font-size="10.5" font-family="Bookman"><tspan y="-465.361" x="370.56 373.86033 376.31907 383.39939 388.79969 391.25843 395.18873 402.05903 407.45933 409.91807 416.36839 422.1887 425.279 431.3093 435.8696 438.32835 448.13865 453.95896 457.04927 462.44956 467.84986 474.93019 478.02049 483.42079 488.82109 491.27983 496.6801 502.71043 509.58073 516.45108 522.27139 526.20169 528.66036 535.11068 541.141 546.5413">. As the polar molecules cannot pass</tspan><tspan y="-451.441" x="192.24 196.26 203.21999 207.84 213.7184 220.8568 226.52519 233.4536 236.6666 240.655 247.5834 253.04181 256.25483 263.18324 269.0616 275.99003 282.4984 288.3768 291.5252 297.61363 302.23204 305.44505 308.59346 311.74186 318.25025 321.39866 327.90705 331.12007 337.62846 340.77687 343.92527 350.01368 355.68208 361.14048 365.28 368.643 371.86064 375.85365 382.78666 388.24967 393.92268 397.1403">through the nonpolar lipid bilayer, they r</tspan><tspan y="-451.4406" x="401.76319 407.2082 413.2832 420.4082 423.5432 428.16023 433.6122 436.81886 442.90086 446.10749 451.55949 457.64149 462.25349 466.86549 470.00749 475.45948 480.07148 483.2781 489.78013 494.4002 500.293 504.2958 509.76863 512.9314 519.8742 523.1016 528.99447 532.36727 535.59469 539.5975 546.5403">equire a carrier protein of the</tspan><tspan y="-437.52064" x="192.2402 202.1074 207.5646 217.43181 223.93901 228.55622 234.64342 241.57062 247.02782 249.63 253.6172 259.49443 262.09663 265.45384 271.54103 276.99824 280.14543 283.2926 286.4398 290.427 296.5142 300.5014 305.95863 308.56083 312.54804 319.47523 324.93244 328.07963 332.6968 335.299 339.28623 343.9034 349.9906 356.9178 362.375 368.8822 374.7594 379.3766 383.3638 385.966 392.0532 397.5104 402.1276 408.0048 413.462 418.91923 421.52143 425.50865 432.43586 437.89308 440.49528 450.36247 455.81968 465.68687 472.19407 476.81126 482.89845 489.82563 495.28285 498.64006 501.24226 508.37947 510.98167 514.33889 519.7961 527.9833 530.58547 533.73269 539.60989 546.53707">membrane to facilitate their transport across the membrane. A few ions</tspan><tspan y="-423.36064" x="192.2402 198.38301 203.26581 208.56362 218.69641 224.83922 228.25202 233.97481 239.6976 247.1004 250.5132 256.236 261.9588 267.2566 273.6094 278.49223 284.21504 289.51283 293.76564 298.64845 305.00126 312.19407 317.91688 324.68968 330.83247 335.71528 339.96809 345.6909 352.46369 357.76148 364.1143 369.8371 374.7199 380.8627 386.5855 392.30833 397.6061 401.85893 409.05174 414.77455 420.07234 430.20515 435.92796 446.06077 452.83357 457.71638 464.06919 471.262 476.9848 482.2826 488.6354 494.5682 500.92103 504.33384 511.52665 517.24948 521.50228 526.80007 531.05288 538.24569 543.96847 547.3812">or molecules are transported across the membrane against their</tspan><tspan y="-409.44065" x="192.2402 197.57971 203.33922 210.14873 215.48824 220.82775 227.63726 231.50676 236.00627 241.97579 245.84529 248.8748 254.63431 261.44383 263.84443 269.39393 273.89344 279.86296 286.25245 289.28196 294.62147 301.43098 305.30049 308.53999 310.94059 313.9701 317.2096 322.5491 325.7886 329.0281 331.4287 334.6682 339.16773 344.92726 354.67677 357.07737 360.10688 365.8664 373.9359 379.27543 383.77494 386.17555 390.04505 395.80458 398.20518 402.07469 408.8842 414.2237 416.6243 423.4338 426.46333 432.01283 438.82234 444.16184 448.66136 451.06196 456.40147 462.16099 468.9705 474.31 479.6495 486.459 490.32853 494.82804 500.79756 504.66706 507.69657 513.45608 520.26559 523.50509 525.9057 532.7152 539.73477 545.0743">concentration gradient, i.e., from lower to the higher concentration. Such</tspan><tspan y="-395.52064" x="192.2402 198.2858 200.7639 204.7095 209.28511 215.3307 222.21631 227.63191 234.09752 239.93312 244.50873 248.45433 250.93244 254.03804 259.45365 261.93177 267.97737 274.86296 277.34107 282.75666 289.64225 295.05784 299.63343 305.25904 310.88465 313.36277 319.82838 325.24397 331.70957 337.12516 344.01075 350.47636 355.89195 362.77754 366.7231 369.20124 375.66685 380.24244 386.07804 391.49363 396.9092 402.3248 407.7404 411.056 413.53413 416.6397 423.5253 426.00343 434.14903 441.0346 444.1402 449.5558 456.44139 458.9195 466.0151 472.4807 478.94633 481.42445 484.53004 489.94563 492.42375 499.51936 503.46495 506.57054 509.67613 512.78176 518.1973 523.6129 530.0785 532.55667 538.60226 545.48788">a transport is an energy dependent process, in which ATP is utilised and</tspan><tspan y="-381.36064" x="192.2402 195.38352 200.83683 203.36515 208.81845 214.90177 218.04508 221.18839 226.6417 233.145">is called </tspan></text>
<text fill="#231f20" xml:space="preserve" transform="matrix(1 0 -0 1 -18 802.8)" font-size="10.5" font-family="Bookman"><tspan y="-381.36064" x="235.4402 241.5035 247.56679 252.37009 256.12339 262.39668 268.45997 271.05329 275.8566 280.6599 286.7232 293.83653 299.2698 305.9631 312.4464 317.24974">active transport</tspan></text>
<text fill="#231f20" xml:space="preserve" transform="matrix(1 0 -0 1 -18 802.8)" font-size="10.5" font-family="Bookman"><tspan y="-381.36064" x="322.3202 325.6469 328.14866 333.57536 336.90208 342.5388 345.8655 349.19224 351.69398 359.4307">, e.g., Na</tspan></text>
<text fill="#231f20" xml:space="preserve" transform="matrix(1 0 -0 1 -18 802.8)" font-size="6.1" font-family="Bookman"><tspan y="-384.96064" x="365.5202">+</tspan></text>
<text fill="#231f20" xml:space="preserve" transform="matrix(1 0 -0 1 -18 802.8)" font-size="10.5" font-family="Bookman"><tspan y="-381.36064" x="369.1202 375.4802">/K</tspan></text>
<text fill="#231f20" xml:space="preserve" transform="matrix(1 0 -0 1 -18 802.8)" font-size="6.1" font-family="Bookman"><tspan y="-384.96064" x="383.04023">+</tspan></text>
<text fill="#231f20" xml:space="preserve" transform="matrix(1 0 -0 1 -18 802.8)" font-size="10.5" font-family="Bookman"><tspan y="-381.36064" x="386.6402 389.1222 395.60423 402.71623 412.55824 419.04026"> Pump.</tspan></text>
<text fill="#00aeef" xml:space="preserve" transform="matrix(1 0 -0 1 -18 802.8)" font-size="12" font-family="Bookman"><tspan y="-355.20063" x="192.2402 200.2202 204.36019 212.34018 216.48017 234.2402 242.92151 249.68282 253.56414 257.44544 260.27677 271.35807 278.1194 282.0007">8.5.2Cell Wall</tspan></text>
<text fill="#231f20" xml:space="preserve" transform="matrix(1 0 -0 1 -18 802.8)" font-size="10.5" font-family="Bookman"><tspan y="-335.04063" x="192.2402 199.37642 204.83263 207.67224 213.33846 219.21466 226.35088 229.19049 239.0567 245.14292 250.80913 253.64875 258.26496 263.72117 269.17738 275.26359 278.4098 281.556 284.9122 287.7518 293.838 296.6776 303.60383 309.48005 316.40626 320.60246 323.74867 326.89488 332.35108 335.49729 342.4235 348.0897 350.9293 355.5455 358.6917 364.3579 367.50413 374.0103 376.8499 382.30613 386.29234 390.90855 398.04475 403.50096 407.48716 414.62336 419.23957 424.69578 427.53538 432.99159 439.0778 442.224 445.3702 450.82643 457.33265 460.17225 464.15846 471.08467 476.54087 479.38047 484.83668 490.29289 493.4391 496.5853 499.4249 507.6111 513.6973 516.84359 519.9898 522.8294 526.1856 532.0618 536.67807 546.54428">As you may recall, a non-living rigid structure called the cell wall forms</tspan><tspan y="-321.12065" x="192.2402 198.2444 205.0886 207.5253 213.3195 220.3737 224.27791 229.65212 234.18631 236.62302 241.99723 247.79143 253.16564 258.53984 263.07405 266.13825 272.98246 278.56666 281.00337 284.27757 290.07176 294.60597 297.04267 300.94688 307.79109 313.16529 315.602 322.02619 325.0904 331.0946 336.4688 346.25303 352.25724 354.69395 364.47816 369.85237 379.63658 386.06077 390.59498 396.59919 403.4434 408.8176 411.2543 417.0485 420.3227 422.7594 426.0336 433.0878 439.932 445.5162 448.5804 451.01713 457.02134 463.86555 470.28974 472.72645 479.15065 482.21485 488.21907 495.06327 498.96748 504.34169 507.61589 510.05259 517.73678 523.11099 526.1752 529.2394 531.6761 539.7803 545.7845 548.8487">an outer covering for the plasma membrane of fungi and plants. Cell wall</tspan><tspan y="-306.96064" x="192.2402 199.1683 205.0464 209.0345 212.8259 218.704 225.6321 228.7802 234.4483 238.2397 243.9078 247.05591 252.514 257.9721 263.4302 267.2216 272.6797 279.6078 285.6959 292.20399 297.66209 301.45347 305.44157 311.31968 315.11106 319.09916 326.02726 331.48536 335.27674 340.73484 346.19294 349.34104 352.48915 356.28053 362.36863 369.29673 375.8048 379.5962 386.10429 390.72239 396.6005 400.5886 406.0467 411.5048 415.4929 420.951 424.74238 428.73048 435.65858 441.11668 444.90806 450.36616 455.82426 458.97236 462.12046 465.91184 469.26994 473.88804 479.76615 489.63426 493.42564 503.29374 508.75184 514.20999 521.13809 527.22616 534.15426 537.3023 542.76046 548.8485">not only gives shape to the cell and protects the cell from mechanical</tspan><tspan y="-293.04063" x="192.2402 198.63512 204.61003 214.36495 220.33986 225.89478 231.23969 233.64958 239.6245 246.4394 252.83432 255.24422 258.2791 265.09403 268.33894 273.68385 279.02876 282.90367 285.93858 291.7035 298.5184 301.7633 304.17323 307.20814 311.08305 313.49296 319.46788 322.50279 327.8477 333.6126 336.02253 342.83744 348.18235 351.21726 357.61216 362.95707 365.36698 368.4019 375.2168 377.6267 382.97163 388.31654 391.35145 394.38636 398.47126 402.34617 408.11109 412.19599 417.5409 422.8858 425.92073 428.95564 431.36555 434.40046 441.21537 445.09028 450.43519 454.9401 460.915 466.25993 470.13484 473.16975 478.93467 485.74958 488.1595 494.1344 500.9493 507.3442 509.75413 516.14907 520.65396 526.4188 531.76376 534.79867 541.19357 546.53848">damage and infection, it also helps in cell-to-cell interaction and provides</tspan><tspan y="-279.12065" x="192.2402 198.74591 204.8316 209.44731 214.06302 217.20873 222.66443 227.28014 231.55803 235.54373 241.41944 245.69733 252.83303 259.75874 266.26445 271.72013 277.1758 280.3215 284.9372 291.0229 297.5286 300.6743 306.12998 310.40788 320.27357 326.35926 331.81495 336.43064 342.30635 352.17204 358.04774 361.19343 366.6491 372.1048 379.2405 382.3862 387.8419 393.29759 396.6533 400.93119 408.0669 411.2126 416.8783 422.964 428.41969 432.69758 439.62327 445.70896 451.16465 456.62034 460.89823 466.3539 471.8096 474.9553 478.10099 482.37889 490.56459 496.65028 499.79597 502.94166 506.29737 510.57527 520.441 526.5267 533.03237 538.48806 542.7659 548.6416">barrier to undesirable macromolecules. Algae have cell wall, made of</tspan><tspan y="-264.96064" x="192.2402 197.51992 202.79962 205.76934 208.73905 215.69876 218.66847 224.36818 229.64789 234.9276 238.1073 240.44951 245.93923 251.84894 254.81865 260.72837 266.0081 269.8178 275.7275 282.47724 287.75697 290.93669 293.2789 302.9686 308.8783 315.628 322.3777 328.28739 335.0371 340.31684 342.65907 348.56877 355.31849 361.6482 363.99043 373.6801 376.6498 383.39955 388.67927 393.11897 399.02867 401.99836 407.27809 409.6203 412.59 415.5597 421.8894 427.16914 429.51136 434.79109 440.70079 443.67048 448.9502 451.9199 458.8796 468.5693 470.91154 476.19126 482.10096 486.54066 492.87037 498.57008 505.31977 511.22947 515.0392 520.3189 523.4986 525.8408 533.8505 540.6002 543.56997 546.5397">cellulose, galactans, mannans and minerals like calcium carbonate, while</tspan><tspan y="-251.04062" x="192.2402 195.19081 201.92142 204.24701 209.92761 213.71822 220.44882 225.70943 230.13002 232.45561 238.7662 241.71681 247.6074 254.33802 258.1286 263.3892 265.7148 268.6654 272.456 274.78163 280.0422 285.7228 292.4534 297.714 300.66459 305.92518 309.71577 314.97636 317.30198 322.98258 326.1432 328.4688 333.7294 338.99 341.94059 344.89118 351.8318 354.78239 360.46299 365.72358 370.98417 374.14479 376.4704 383.201 388.46159 398.13218 401.08277 406.34336 411.60395 414.55455 417.50514 424.44575 427.39634 433.07695 438.33753 443.5981 446.75874 449.08436 455.39497 460.65556 465.91615 469.70674 472.65733 479.3879 484.6485 486.97413 492.86473 499.5953 505.9059 508.23155 514.5421 518.9627 524.6433 528.4339 533.6945 536.64517 543.37576 548.63638">in other plants it consists of cellulose, hemicellulose, pectins and proteins.</tspan><tspan y="-237.12064" x="192.2402 198.6879 205.5556 210.95331 213.41773 218.81543 224.21314 227.30084 230.38855 232.85297 240.98067 247.00836 250.09607 253.18378 255.6482 261.46589 264.76359 267.228 273.2557 275.72013 281.32783 287.1455 294.2232 301.0909 306.6986 309.16304 315.61073 318.69844 324.72615 331.59385 335.52156 337.98597 343.38368 348.78138 351.86909 354.9568 358.2545 360.7189 364.6466 371.5143 376.91203">The cell wall of a young plant cell, the </tspan></text>
<text fill="#231f20" xml:space="preserve" transform="matrix(1 0 -0 1 -18 802.8)" font-size="10.5" font-family="Bookman"><tspan y="-237.12064" x="379.4402 386.19599 391.06178 394.87757 405.41337 411.53916 416.40495 422.9507 425.60655 434.04234 440.16813 443.77394 447.37974">primary wall </tspan></text>
<text fill="#231f20" xml:space="preserve" transform="matrix(1 0 -0 1 -18 802.8)" font-size="10.5" font-family="Bookman"><tspan y="-237.12064" x="450.00019 453.0857 458.4812 460.9267 466.3222 472.34773 478.7932 484.81874 491.26423 494.34974 499.74525 502.19075 508.00627 511.30177 513.7473 519.35287 523.9083 529.7238 537.8493 541.77487 548.6404">is capable of growth,</tspan><tspan y="-222.96063" x="192.2402 200.3206 207.141 210.18141 215.53182 222.35222 224.76631 230.3267 234.83712 240.81752 247.21793 254.24832 260.22874 263.26914 266.30955 271.86994 274.28404 280.68443 283.72483 293.48524 296.52565 303.34605 306.38645 311.73686 318.55726 323.90766 329.25807 331.67216 337.65257 343.00297 345.41706 349.29747 356.11787 361.46827 363.88236 369.23277 374.58317 377.62358 380.66398 383.07807 392.83848 398.81889 402.69929 409.72969 414.24009 419.59049 424.9409 427.35499 433.3354 440.1558 446.55619 448.97029 452.85069 459.67109 465.02149 467.43559 472.78599 478.13639 483.4868 489.25718 496.07759 502.47798 508.45838 512.96878 518.5292 520.9433 529.0237 535.0041 538.0445 541.0849 543.499 546.5394">which gradually diminishes as the cell matures and the secondary wall is</tspan><tspan y="-209.04062" x="192.2402 195.5766 201.433 206.0294 215.87581 221.31221 227.79862 230.29613 236.15253 243.05893 245.55644 249.52285 256.42924 261.86564 264.36314 267.48954 274.39595 281.30235 286.73875 291.33515 293.83265 296.95906 300.92546 306.78187 314.94828 321.01469 325.61109 332.09748 337.53388 340.03138 349.87779 355.31419 365.16059 371.64698 376.24339 382.30979 389.2162 394.6526 397.779 400.2765 405.7129 408.8393 415.32569 420.7621 423.25959 429.116 432.4524 434.9499 438.9163 445.8227 451.2591 453.7566 459.193 464.6294 467.7558 470.8822">formed on the inner (towards membrane) side of the cell.</tspan><tspan y="-195.12064" x="210.2402 216.74692 223.67363 229.13034 232.01885 241.88556 245.03227 251.53899 258.0457 261.19239 266.64909 269.5376 272.6843 278.771 288.6377 294.0944 297.2411 300.3878 306.4745 309.363 312.5097 317.9664 320.85493 326.94163 329.83015 332.97685 339.06355 344.73027 350.18696 354.80366 357.69218 367.55888 373.64558 376.79228 383.71897 386.86567 392.53239 395.4209 401.2976 404.65434 407.54286 412.99955 419.08625 422.23295 427.68965 430.83634 437.97306 447.83976 450.72828 457.235 462.69169 468.14839 472.1351 478.2218 482.20854 487.66523 490.55375 498.74046 505.66716 508.81385 514.27059 521.19729 524.08578 531.01248 536.88919 540.0359 546.5426">The middle lamella is a layer mainly of calcium pectate which holds</tspan><tspan y="-180.96063" x="192.2402 197.96352 202.42682 204.79383 210.30713 213.30045 220.28376 225.58707 230.89038 233.25739 237.0907 243.86402 249.16733 251.53433 257.88764 260.88096 264.4802 267.7202 273.0602 277.4402 282.7498 289.5294 293.369 295.74229 302.52189 307.83149 310.8311 316.35069 323.13029 329.48988 335.21949 342.20909 346.67869 349.67829 356.4579 361.97749 364.35078 369.66038 374.96998 377.96958 380.96919 386.27879 388.65208 392.49168 398.22129 403.74089 409.05049 412.89009 419.66969 424.97929 428.8802 432.0907 434.4649 440.8254 447.6059 452.91639 455.2906 460.60108 465.91157 468.91206 471.91255 474.28675 482.32725 488.26774 491.26823 494.2687 496.6429 502.5834 509.3639 515.72439 518.0986 527.8191 530.8196 537.18008 543.5405 546.541">or glues the different neighbouring cells together. The cell wall and middle</tspan><tspan y="-167.04065" x="192.2402 195.12271 200.9452 210.5477 215.7402 218.62271 221.50522 227.32772 232.52022 234.77384 244.37635 250.19884 255.60134 257.85496 264.09745 269.28996 271.54356 275.26606 279.61857 285.44108 290.63359 295.82609 300.1786 305.3711 310.5636 316.8061 319.0597 325.3022 330.70469 332.95829 339.20079 342.08329 347.9058 353.0983 362.7008 368.3133 374.5558 379.7483 384.9408 394.5433 400.3658 404.08833 409.91084 412.16444 420.0869 426.74943 429.63194 434.82444 441.48695 443.74055 448.93305 454.54554 461.20805 467.87055 473.06306 478.25556 481.97807 484.23167 487.95417 494.61668 499.80918 502.06278 507.25529 512.6578 516.38027 521.99276 528.2352 531.11776 536.94027 542.13278">lamellae may be traversed by plasmodesmata which connect the cytoplasm</tspan><tspan y="-153.1206" x="192.2402 198.10161 201.44301 203.95941 210.87082 216.31223 219.44362 225.09502 232.00643 238.49782 244.35923 251.48062 256.08204 259.21345 266.12486 271.77626 274.29267 279.73408 285.17549 288.3069 291.4383 296.8797">of neighbouring cells.</tspan></text>
<text fill="#00aeef" xml:space="preserve" transform="matrix(1 0 -0 1 -18 802.8)" font-size="12" font-family="Bookman"><tspan y="-126.72064" x="192.2402 200.2202 204.36019 212.34018 216.48017 234.2402 242.88521 251.0502 258.7352 266.1802 278.1852 285.1502 297.1552 304.3602 309.8852 316.8502 325.0152 331.9802 335.0152 342.9402 350.3852 356.6302 362.15519 369.12019">8.5.3Endomembrane System</tspan></text>
<text fill="#231f20" xml:space="preserve" transform="matrix(1 0 -0 1 -18 802.8)" font-size="10.5" font-family="Bookman"><tspan y="-106.56061" x="192.2402 202.3179 209.2456 212.39331 215.54102 220.99872 225.84272 231.30042 237.38813 242.84583 249.77353 254.61753 260.4952 263.8529 268.6969 272.6846 279.6123 285.07 289.914 299.7817 305.2394 315.10713 321.6148 326.2325 332.32023 339.24794 345.1256 352.2633 357.721 362.565 368.4427 373.0604 378.7281 384.8158 391.7435 397.2012 400.3489 403.4966 408.9543 414.41203 419.256 422.40373 427.86143 432.7054 439.2131 442.3608 447.8185 451.8062 454.95393 461.88163 467.33934 471.32704 476.17103 479.31874 486.24644 491.09043 495.07814 500.53584 505.15354 515.02127 520.47897 525.32296 531.2006 534.55838 539.40237 542.55007 546.5377">While each of the membranous organelles is distinct in terms of its</tspan></text>
<g clip-path="url(#clip_4224)">
<text xml:space="preserve" transform="matrix(1 0 -0 1 259.314 763.9998)" font-size="8" font-family="Arial"><tspan y="6.316" x="0"> </tspan></text>
</g>
</g>
</svg>
