<svg xmlns="http://www.w3.org/2000/svg" xmlns:xlink="http://www.w3.org/1999/xlink" xmlns:inkscape="http://www.inkscape.org/namespaces/inkscape" version="1.1" width="576" height="784.8" viewBox="0 0 576 784.8">
<defs>
<clipPath id="clip_8245">
<path transform="matrix(1,0,0,-1,-18,802.8)" d="M18 18H594V802.8H18Z" clip-rule="evenodd"/>
</clipPath>
<clipPath id="clip_8246">
<path transform="matrix(1,0,0,-1,259.314,763.9998)" d="M0-8H57.372V.800049H0Z"/>
</clipPath>
</defs>
<g clip-path="url(#clip_8245)">
<path transform="matrix(.23999998,0,0,-.23999998,-18,802.8)" d="M0 3035.83H2550V3372.7003H0Z" fill="#d1d3d4" fill-rule="evenodd"/>
<path transform="matrix(.23999998,0,0,-.23999998,-18,802.8)" d="M0 3078.33H2550V3420H0Z" fill="#e1ecb6" fill-rule="evenodd"/>
<path transform="matrix(.23999998,0,0,-.23999998,-18,802.8)" d="M2 2H2548V214.67H2Z" fill="#cbdf7f" fill-rule="evenodd"/>
<path transform="matrix(.23999998,0,0,-.23999998,-18,802.8)" stroke-width="4" stroke-linecap="butt" stroke-miterlimit="1000" stroke-linejoin="miter" fill="none" stroke="#cbdf7f" d="M2 2H2548V214.67H2Z"/>
<text fill="#231f20" xml:space="preserve" transform="matrix(1 0 -0 1 -18 802.8)" font-size="11" font-family="Bookman"><tspan y="-730.081" x="84">C</tspan></text>
<text fill="#231f20" xml:space="preserve" transform="matrix(1 0 -0 1 -18 802.8)" font-size="7.69999" font-family="Bookman"><tspan y="-730.081" x="92.16 97.633197 102.18239">ELL</tspan></text>
<text fill="#231f20" xml:space="preserve" transform="matrix(1 0 -0 1 -18 802.8)" font-size="11" font-family="Bookman"><tspan y="-730.081" x="106.8 110.3422 113.42191">: T</tspan></text>
<text fill="#231f20" xml:space="preserve" transform="matrix(1 0 -0 1 -18 802.8)" font-size="7.69999" font-family="Bookman"><tspan y="-730.081" x="120.24 126.45719">HE</tspan></text>
<text fill="#231f20" xml:space="preserve" transform="matrix(1 0 -0 1 -18 802.8)" font-size="11" font-family="Bookman"><tspan y="-730.081" x="132 134.94062"> U</tspan></text>
<text fill="#231f20" xml:space="preserve" transform="matrix(1 0 -0 1 -18 802.8)" font-size="7.69999" font-family="Bookman"><tspan y="-730.081" x="143.52 149.15381 151.70761">NIT</tspan></text>
<text fill="#231f20" xml:space="preserve" transform="matrix(1 0 -0 1 -18 802.8)" font-size="11" font-family="Bookman"><tspan y="-730.081" x="156.48"> </tspan></text>
<text fill="#231f20" xml:space="preserve" transform="matrix(1 0 -0 1 -18 802.8)" font-size="7.69999" font-family="Bookman"><tspan y="-730.081" x="159.6 165.7131">OF</tspan></text>
<text fill="#231f20" xml:space="preserve" transform="matrix(1 0 -0 1 -18 802.8)" font-size="11" font-family="Bookman"><tspan y="-730.081" x="170.64 173.64061"> L</tspan></text>
<text fill="#231f20" xml:space="preserve" transform="matrix(1 0 -0 1 -18 802.8)" font-size="7.69999" font-family="Bookman"><tspan y="-730.081" x="180.48 183.1538 188.13759">IFE</tspan></text>
<path transform="matrix(.23999998,0,0,-.23999998,482.6352,53.635194)" d="M0 0C7.32 7.32 16.16 10.98 26.52 10.98H97.35C107.71 10.98 116.55 7.32 123.87 0 131.19-7.33 134.85-16.17 134.85-26.52V-101.52C134.85-111.88 131.19-120.72 123.87-128.04 116.55-135.36 107.71-139.02 97.35-139.02H26.52C16.16-139.02 7.32-135.36 0-128.04-7.32-120.72-10.98-111.88-10.98-101.52V-26.52C-10.98-16.17-7.32-7.33 0 0" fill="#ffffff" fill-rule="evenodd"/>
<text fill="#231f20" xml:space="preserve" transform="matrix(1 0 -0 1 -18 802.8)" font-size="11" font-family="Bookman"><tspan y="-729.361" x="505.92 513.21 520.5">103</tspan></text>
<path transform="matrix(.23999998,0,0,-.23999998,579.6,.11999512)" stroke-width="1" stroke-linecap="butt" stroke-miterlimit="10" stroke-linejoin="miter" fill="none" stroke="#000000" d="M0 0H60"/>
<path transform="matrix(.23999998,0,0,-.23999998,576.12,-18)" stroke-width="1" stroke-linecap="butt" stroke-miterlimit="10" stroke-linejoin="miter" fill="none" stroke="#000000" d="M0 0V-60"/>
<path transform="matrix(.23999998,0,0,-.23999998,579.6,784.44)" stroke-width="1" stroke-linecap="butt" stroke-miterlimit="10" stroke-linejoin="miter" fill="none" stroke="#000000" d="M0 0H60"/>
<path transform="matrix(.23999998,0,0,-.23999998,576.12,788.16)" stroke-width="1" stroke-linecap="butt" stroke-miterlimit="10" stroke-linejoin="miter" fill="none" stroke="#000000" d="M0 0V-59"/>
<path transform="matrix(.23999998,0,0,-.23999998,-17.88,-18.23999)" stroke-width="1" stroke-linecap="butt" stroke-miterlimit="10" stroke-linejoin="miter" fill="none" stroke="#000000" d="M0 0V-75"/>
<text fill="#00aeef" xml:space="preserve" transform="matrix(1 0 -0 1 -18 802.8)" font-size="13" font-family="Bookman"><tspan y="-687.36" x="267.84">E</tspan></text>
<text fill="#00aeef" xml:space="preserve" transform="matrix(1 0 -0 1 -18 802.8)" font-size="9.1" font-family="Bookman"><tspan y="-687.36" x="277.2 284.19493 290.64384 297.63874 304.26963 307.80653 313.7094 320.15834">XERCISES</tspan></text>
<text fill="#231f20" xml:space="preserve" transform="matrix(1 0 -0 1 -18 802.8)" font-size="10" font-family="Bookman"><tspan y="-648.96" x="100.56 106.24061 119.52 129.1227 135.7254 138.7281 143.9308 150.53351 153.16121 158.76392 161.96662 164.59432 168.39702 174.99973 180.20243 182.83013 186.03282 191.63553 194.63823 197.64093 203.24364 211.04634 214.04904 220.65175 226.05445 228.68215 231.68485 236.88755 239.51525 246.11795 251.72066 255.52336 258.1511 263.3538 268.95649 273.3592 277.7619 282.9646 288.1673 291.97">1.Which of the following is not correct?</tspan><tspan y="-631.92" x="119.52 122.620288 128.52057 137.52 144.7213 150.32259 156.52388 161.72518 166.12647 169.92775 172.54155 179.94284 184.34413 189.94542 197.7467 204.34799 206.96179 213.16309 216.16439 221.36568 226.56697 232.16826 237.36956 242.57085 246.97214 252.17343 258.37474 260.98854 264.78984 271.3911 276.5924 279.2062 284.4075 289.6088 292.61009 295.61137">(a)Robert Brown discovered the cell.</tspan><tspan y="-617.76" x="119.52 122.420207 128.52042 137.52 144.11782 149.31563 155.91344 158.91124 164.10906 167.10686 173.30467 178.50249 185.1003 188.09812 193.89592 200.49373 206.69155 209.68936 216.28717 221.48499 228.0828 235.8806 241.6784 248.27622 254.87403 257.87187 261.06968 266.66749 271.06529 280.46308 287.2609 290.2587 296.05653 299.85435 305.05216 311.24998 314.2478 318.04563 324.64344 329.84126 332.83909 338.0369 343.2347 346.2325 349.23033 352.22816 356.02598 362.62379 367.8216 373.4194 377.8172 383.215">(b)Schleiden and Schwann formulated the cell theory.</tspan><tspan y="-603.84" x="119.52 122.56029 127.800579 137.52 144.5218 147.5236 151.9254 157.1272 163.729 169.33081 177.13262 179.8032 185.005 190.60681 196.80861 199.81041 205.61222 208.61402 215.21582 220.41762 226.61942 229.29001 233.09181 239.69362 245.49542 249.29723 251.96782 257.16963 262.37144 265.37324 268.37504 273.57685 276.24748 282.04927 286.45106 291.65287 294.3235 297.5253 303.1271 307.5289 316.9307 322.1325 328.33433 331.00495 334.20677 338.60856 344.21037 353.61216 356.28279 362.4846 366.88639 372.0882 376.09 381.2918 386.89363 389.89543 395.09724 398.89903 401.90083 408.50263 413.90443 416.57505 421.77687 426.97868 429.98048 432.98228 438.18409">(c)Virchow explained that cells are formed from pre-existing cells.</tspan><tspan y="-589.92" x="119.52 122.420207 128.52042 137.52 144.3203 147.357 154.15729 160.75759 163.75789 168.95819 174.1585 177.1588 180.1591 186.9594 189.9597 195.76 200.1603 203.19699 208.79729 213.19759 218.59789 224.39818 230.99848 233.99878 239.19908 248.59938 251.63608 256.83638 262.63667 267.03697 271.43727 274.43757 279.63786 284.83815 287.87483 293.47514 300.27543 304.0757 307.1124 310.1127 313.913 319.11329 322.14997 325.15028 328.15058 331.35087 336.55116 339.58784 345.38813 350.5884 354.3887 357.389 362.5893 365.5896 369.3899 372.3902 377.59049 382.79078 385.82746 393.62776 396.62806 400.42835 407.02867 410.02897 416.62928 419.66596 425.46626 428.50294 433.70323 436.70353 443.30384 448.70414 451.70445 456.90473 459.9414 465.1417 470.34199 473.3423 476.3426">(d)A unicellular organism carries out its life activities within a single cell.</tspan><tspan y="-571.92" x="100.56 106.24061 119.52 126.919 132.118 139.91699 142.76599 147.965 153.164 156.163 159.16199 164.361 167.20999 172.609 177.808 184.407 189.606 194.005 199.804 203.603 208.802 211.651 214.85 219.24901 224.848">2.New cells generate from</tspan><tspan y="-554.88" x="119.52 122.620288 128.52057 137.52 143.7204 149.52079 154.72118 158.52156 163.72196 168.12235 171.12274 176.92313 179.92353 182.92392 186.12432 191.3247 195.7251 205.12549 210.32588 216.92627 220.72666 226.52704 230.32743 233.32782 238.9282 275.52 278.4202 284.52043 293.52 297.9191 303.1182 308.5173 313.7164 320.3155 325.5146 329.9137 335.7128 339.5119 342.51103 348.1101 354.7092 357.4916 363.0907 366.2898 369.0722 374.6713 377.6704 383.8695 386.65193 391.851 397.0501 400.04924 403.04835">(a)bacterial fermentation(b)regeneration of old cells</tspan><tspan y="-540.96" x="119.52 122.56029 127.800579 137.52 143.7256 148.1312 153.33679 157.34238 162.54798 168.15357 171.15915 176.36475 180.17034 183.17592 189.78151 195.1871 197.7427 202.9483 208.1539 211.15949 214.16507 275.52 278.4202 284.52043 293.52 299.3129 305.5058 308.49873 314.0916 317.88453 320.87745 326.07035 328.86326 338.25617 344.04908 347.84199 353.03489 357.4278 360.42073 366.21363 369.20655">(c)pre-existing cells(d)abiotic materials</tspan><tspan y="-522.96" x="100.56 106.24061 119.52 128.7236 134.5272 138.33081 143.53441 150.13802 152.69162 156.49523 163.09883 168.30243 170.85604 174.05963 179.66324 182.66684 185.67044 191.27405 199.07765 202.08126 208.68486">3.Match the following</tspan></text>
<text fill="#231f20" xml:space="preserve" transform="matrix(1 0 -0 1 -18 802.8)" font-size="10" font-family="Bookman"><tspan y="-505.92" x="137.52 144.87192 151.02384 154.37575 160.92766 170.87957 177.63147 180.08339 281.52 288.828 294.936 298.24403 304.752 314.66004 321.36805 323.77607 327.68409">Column IColumn II</tspan></text>
<text fill="#231f20" xml:space="preserve" transform="matrix(1 0 -0 1 -18 802.8)" font-size="10" font-family="Bookman"><tspan y="-491.76" x="119.52 122.620288 128.52057 137.52 145.0005 149.481 152.56151 157.84201 161.7225 167.603 266.4 269.34 272.28 281.52 287.9235 290.92698 296.73048 300.53398 303.27497 312.67848 317.88197 327.28547 333.48896 337.89247 343.69596 350.29945 355.90293 362.70643 367.9099 370.6509 375.8544 381.6579 386.8614 392.06489 394.80589 397.80937 404.41285 407.15385 412.35734 416.16084 420.56434 426.16783 435.57133">(a)Cristae(i)Flat membranous sacs in stroma</tspan><tspan y="-477.84" x="119.52 122.420207 128.52042 137.52 145.0054 148.0908 153.3762 157.26161 162.54701 167.03241 173.7178 179.60321 263.52 266.52 269.52 272.52 281.52 284.90589 291.4918 294.6777 300.2636 303.2495 309.43544 312.42134 319.00724 324.39314 329.57905 331.96498 334.95088 341.53678 343.9227 353.30863 356.29454 360.08045 365.66636 370.85227 377.43818 383.02409 389.61 395.7959 400.18183 403.16773">(b)Cisternae(ii)Infoldings in mitochondria</tspan><tspan y="-463.92" x="119.52 122.56029 127.800579 137.52 143.6492 150.1784 155.5076 158.4368 164.166 170.2952 175.8244 178.7536 184.8828 260.4 263.37 266.34 269.31 272.28 281.52 289.52299 292.52598 297.72898 302.93199 306.93498 312.13798 318.74098 324.54399 330.74699 335.94999 342.15299 344.94349 350.14649 355.9495 361.1525 366.3555 369.146 372.149 378.75199 381.54249 389.54548 395.14848 398.15147 403.55445 406.55744 409.34794 415.15095 421.35395 427.55696 433.35997 437.76295 443.56596 447.36897 454.17198">(c)Thylakoids(iii)Disc-shaped sacs in Golgi apparatus</tspan><tspan y="-445.92" x="100.56 106.24061 119.52 129.1194 135.71881 138.71822 143.91764 150.51705 153.10646 158.70587 161.90529 164.4947 168.29412 174.89353 180.09294 182.68236 185.88178 191.48119 194.48059 197.48 203.0794 210.87882 213.87822 220.47763 225.87705 228.46646 231.46587 236.66529 239.2547 244.45412 250.05353 254.45294 258.85237 264.05177 269.25117 273.05058">4.Which of the following is correct:</tspan><tspan y="-428.88" x="119.52 122.620288 128.52057 137.52 144.91762 150.11524 153.11284 156.11045 161.30806 164.33428 169.93189 173.1295 176.15572 181.95333 184.95093 187.94853 190.97475 193.97235 196.96996 202.16757 205.16518 211.76279 217.1604 220.18662 225.78423 230.18184 235.57946 241.37706 247.97467 250.97228 256.1699 265.5675 270.7651 273.79133 280.38893 286.18653 291.38414 296.58174 299.60795 305.40556 308.43177 315.02937 321.82698 327.02458 330.0222 335.2198 342.0174 347.215">(a)Cells of all living organisms have a nucleus.</tspan><tspan y="-414.96" x="119.52 122.420207 128.52042 137.52 144.92079 150.52158 154.32238 160.92316 163.94895 169.74974 176.35053 179.35132 188.7521 194.5529 197.5537 200.57949 206.38028 212.98107 219.18186 222.20764 228.40843 231.40923 237.21002 243.8108 247.6116 250.63739 255.83818 261.03898 264.03977 267.04057 272.24134 275.26716 281.86796 287.66874 292.8695 298.0703 301.09614 306.8969 309.92274 317.7235 322.92433 325.9251 328.9259 331.95173 338.1525 343.35328 346.55409 349.55488 356.15568 361.35646 367.55723 370.583 375.7838 380.98463 383.9854 386.9862 390.01203 397.8128 403.6136 406.61439 409.61518">(b)Both animal and plant cells have a well defined cell wall.</tspan><tspan y="-400.8" x="119.52 122.56029 127.800579 137.52 140.9181 147.5162 150.2286 156.42671 160.82482 166.42292 172.62102 178.41912 182.81722 188.21532 193.81342 197.61151 202.80962 208.00772 211.20583 213.91823 217.71633 224.31443 229.51253 233.91063 239.10874 241.82114 247.61923 252.01734 257.21543 259.92784 266.52595 272.12406 274.83647 284.23457 289.43266 298.83076 305.02885 309.42695 315.22505 321.82316 327.02125 329.73365 335.93174 341.52986 348.32795 354.92607 361.12416 363.83656 369.43467 373.83277 379.23088 385.02897 391.62709 396.82518 399.82328 402.82139 408.01948 413.21757">(c)In prokaryotes, there are no membrane bound organelles.</tspan><tspan y="-386.88" x="119.52 122.420207 128.52042 137.52 144.91922 150.11843 153.11763 156.11684 161.31604 163.88195 169.68115 174.08037 179.27957 181.84548 185.04468 190.64389 195.0431 204.44232 209.64153 215.84073">(d)Cells are formed </tspan></text>
<text fill="#231f20" xml:space="preserve" transform="matrix(1 0 -0 1 -18 802.8)" font-size="10" font-family="Bookman" font-style="italic"><tspan y="-386.88" x="218.4 224.86849 230.33698 232.75548 239.02397 244.49246 249.96096">de novo</tspan></text>
<text fill="#231f20" xml:space="preserve" transform="matrix(1 0 -0 1 -18 802.8)" font-size="10" font-family="Bookman"><tspan y="-386.88" x="255.36 257.9082 261.1064 265.5046 271.1028 280.501 283.04924 288.8474 295.04563 298.04383 303.64204 307.44023 310.43843 315.63664 318.18486 327.58305 333.38124 337.1794 342.37763 346.77583 349.77403 355.5722 358.5704 363.76863"> from abiotic materials.</tspan><tspan y="-368.88" x="100.56 106.24061 119.52 128.9848 135.44962 141.11443 144.77924 147.04404 149.90885 154.97365 157.23845 162.90326 165.16806 174.43288 179.49768 184.56249 190.0273 195.0921 200.55692 209.82173 214.88654 217.15134 220.01615 226.48096 228.74576 234.41057 236.67537 242.74018 247.00499 252.4698 258.5346 264.1994 268.4642 273.729 279.19383 282.85865 285.72346 290.78828 293.0531 298.11793 303.18275 306.04756 308.91236 314.17716 316.442 325.5068 330.57164 337.03645 340.70124 343.56605 349.03086 355.49568 357.7605 361.4253 367.8901 372.95494 375.21977 378.28459 384.9494 391.4142 396.47904 400.14387 403.00868 408.47349 414.9383 420.0031 422.26795 425.93275 432.39756 438.06239 441.72718 443.992 446.8568 450.5216 452.78645 458.85127 463.91609 468.18089 471.2457 476.7105 480.9753 490.2401 495.30494">5.What is a mesosome in a prokaryotic cell? Mention the functions that it performs.</tspan><tspan y="-351.84" x="100.56 106.24061 119.52 127.519809 133.11962 140.91942 145.42833 151.62815 157.22795 161.73686 168.33667 173.53649 180.33629 184.1361 188.5359 194.33571 197.33553 201.84444 207.04425 212.64406 215.64388 222.44368 226.24349 231.4433 236.64311 241.15203 250.55184 256.15165 261.35145 266.55125 271.06013 276.85993 282.05973 286.45954 292.05937 297.25917 302.45896 306.96784 310.76765 317.36747 322.56727 327.07615 333.27595 336.27577 342.07557 347.27537 356.67518 362.47499 366.98387 376.38368 381.58348 390.98329 397.18309 401.5829 407.3827 413.9825 419.1823 424.58213 429.091 436.4908 442.29063 448.89045 453.39933 457.19914 463.79896 468.99876 473.50764 479.70744 485.30726 488.30708 494.10688">6.How do neutral solutes move across the plasma membrane? Can the polar</tspan><tspan y="-337.92" x="119.52 128.9198 134.5196 137.51943 142.71924 147.91905 154.71886 157.71868 162.91849 168.1183 172.58951 178.38932 181.38913 186.58895 192.18875 196.65996 206.05977 211.65958 216.85939 222.0592 226.53041 232.33022 237.53003 241.92984 247.52965 252.72946 257.92927 262.40046 265.40028 269.20008 273.67127 276.67109 283.2709 287.7421 291.5419 298.14173 303.34153 307.8127 313.0125 318.81233 328.21214 333.41194 337.88313 345.68293 351.48274 356.88255 362.28236 366.75355 370.15336 373.35316 377.82435 384.42417 390.024 393.8238 397.0236 401.49479 405.2946 411.8944 417.0942 423.69404 428.16523 434.76506 440.36488 448.16468 452.63587 458.43568 462.83549 468.03529 472.50648 476.30628 482.9061 488.1059 493.3057">molecules also move across it in the same way? If not, then how are these</tspan><tspan y="-323.76" x="119.52 123.3175 127.715 133.5125 140.11 145.3075 151.50499 157.1025 161.5 165.2975 170.495 176.69249 179.50669 185.30419 190.50168 194.89919 200.49669 205.69419 210.89168 213.70587 217.50337 224.10088 229.29837 232.11257 241.51007 246.70757 256.10508 262.30259 266.70008 272.49757 279.09507 284.29258">transported across the membrane?</tspan><tspan y="-306.96" x="100.56 106.24061 119.52 126.98148 132.84297 142.30446 147.56595 152.42745 156.28894 164.15044 169.81192 174.67342 179.9349 185.1964 188.25789 191.31938 195.38088 201.04236 205.50385 210.96533 216.82683 223.48831 228.7498 231.8113 234.87279 240.13428 245.39577 250.25727 254.11876 260.78025 266.64173 270.5032 275.36473 281.2262 285.68769 290.9492 295.8107 302.0722 307.7337 314.59519 320.8567 323.91819 329.1797 334.0412 343.5027 348.7642 358.22569 364.48719 368.94868 374.81016 381.47166 386.73316 391.59468 397.85615 403.51765 410.37913 417.04063 423.30213 426.56364 431.42515 441.08665 447.74815 453.60963 457.4711 462.3326 468.1941 472.65559 477.91709 482.7786 486.64009 493.30158">7.Name two cell-organelles that are double membrane bound. What are the</tspan><tspan y="-292.8" x="119.52 124.71981 131.31963 137.11943 141.51924 147.31905 152.51886 156.31867 161.51848 165.91829 168.9181 174.11792 177.91773 180.91754 186.11736 191.31717 193.89699 199.4968 202.69661 205.27643 209.07624 215.67604 220.87586 226.07567 231.27548 233.8553 237.6551 245.45491 251.05472 253.63454 259.23435 263.63417 269.03398 274.83378 281.4336 286.6334 289.6332 292.63304 297.83283 303.03263 308.43244 311.01225 317.61207 321.41188 327.21168 331.01148 336.21128 338.79109 342.59089 349.1907 354.3905 357.39033 361.79014 364.36994 367.56974 374.36955 380.96937 386.16917 389.96897 392.96879 398.5686 405.16844 410.36824 412.94804 418.74784 425.34767 431.54747 434.12727 440.32707 444.72688 450.52668 458.32649 460.90629 463.9061 469.7059 475.9057 481.1055 484.10533 487.10514 492.30494">characteristics of these two organelles? State their functions and draw labelled</tspan><tspan y="-278.88" x="119.52 125.70789 128.6958 134.4837 139.8716 144.25949 150.0474 159.43529 164.62319 167.01108 172.59899 175.78688 178.17478 184.36267 189.95058 193.73848 200.32639">diagrams of both.</tspan><tspan y="-261.84" x="100.56 106.24061 119.52 129.1222 135.72438 141.52657 145.32875 148.28926 154.09145 158.49364 163.69583 166.65634 170.45853 177.06072 182.26291 185.22342 190.42562 197.0278 202.82999 207.23218 213.03437 218.23656 222.03874 227.24094 231.64313 234.64533 239.84752 243.6497 246.6519 251.8541 257.05628 260.01676 265.61897 268.82115 271.78163 277.9838 282.386 287.9882 294.19038 299.99256 304.39476 309.79695 315.39915 319.20133 322.20353 327.4057 330.36619 335.56837 340.77055 343.77275 346.77494 351.9771">8.What are the characteristics of prokaryotic cells?</tspan><tspan y="-244.8" x="100.56 106.24061 119.52 128.72229 135.5246 138.5269 142.32921 145.33152 150.53382 155.73612 158.73842 161.74073 168.54303 171.54534 177.34764 181.74994 184.40224 190.00453 194.4 199.8003 205.60059 212.20088 215.20119 220.40149 229.80179 235.00209 237.65239 244.25269 250.05298 255.25328 260.45359 263.10389 269.30418 272.30448 277.50477 280.50508 285.70536 288.70567 294.30598 300.90629 303.55659 309.1569 312.35719 315.00749 318.00779 323.80809 330.00837 335.60868 342.40898 346.08 349.29249 351.955 359.16749 364.77998 370.99247 374.00495 379.81745 382.82994 389.4424">9.Multicellular organisms have division of labour. Explain.</tspan><tspan y="-227.76" x="95.52 101.360507 107.20101 119.52 126.92219 132.12438 135.12657 138.12877 141.01427 144.01647 149.21866 152.10416 155.90634 162.50853 167.71073 170.59622 176.79842 182.6006 187.8028 190.805 196.00719 198.89269 205.69487 212.29706 215.29926 219.10144 221.98694 227.58913 230.79132 233.67682 236.67902 239.68122 242.8834 248.0856 251.2878 254.1733 262.17549 265.17768 270.37986 275.58204 282.38423 287.5864 292.78858 295.67408 298.67628 305.27848 308.16398 314.36616 318.76835 321.77055 326.97273 330.1749">10.Cell is the basic unit of life. Discuss in brief.</tspan><tspan y="-210.96" x="95.52 101.360507 107.20101 119.52 129.12169 135.72338 141.52507 145.32677 148.34516 154.14685 158.54854 163.75023 166.76862 173.3703 180.172 185.37369 188.37538 193.57707 199.37877 203.78046 206.79885 213.00054 218.60222 223.0039 228.2056 233.40729 238.80898 241.82736 248.42905 252.23075 258.03245 261.83415 267.03584 270.05424 273.85594 280.4576 285.6593 288.66099 293.06269 296.0811 299.28279 306.08448 312.68617 317.88786 321.68955 324.69123 330.2929 336.8946">11.What are nuclear pores? State their function.</tspan><tspan y="-193.92" x="95.52 101.360507 107.20101 119.52 126.91981 132.51963 136.31943 142.91924 145.89905 148.89887 154.29868 159.49849 165.0983 170.29811 175.89792 185.29773 190.49755 195.69736 198.67717 204.47698 211.07678 217.2766 220.25641 225.45623 231.25603 236.45584 243.25565 248.85546 251.85527 257.05509 262.25489 265.23469 271.0345 275.4343 280.6341 283.6139 288.8137 295.4135 301.6133 307.21315 316.61296 321.81275 331.21257 337.41236 341.81217 347.61198 354.2118 359.4116 362.3914 367.5912 371.391 375.7908 382.5906 387.7904 391.5902 398.39 402.78984 407.98963 413.18943 416.38923 419.36903 424.76884 429.96864 433.76844 436.74824 440.54804 447.14787 452.34767 457.74748 460.72727 466.92707 469.92689 473.12669 476.32649 481.52629 485.9261 488.90589 491.9057">12.Both lysosomes and vacuoles are endomembrane structures, yet they differ in</tspan><tspan y="-179.76" x="119.52 123.318508 128.51702 132.91553 142.31404 147.51256 149.98607 155.58458 158.7831 161.2566 165.05512 171.65363 176.85214 179.85065 184.24916 186.72267 189.92119 196.7197 203.3182 208.51673 212.31523 215.31374 220.91225 227.51076 232.70928 235.90779 238.3813 245.77982 251.37833 260.77684 270.17533 275.37385 281.97236 285.77088">terms of their functions. Comment.</tspan><tspan y="-162.96" x="95.52 101.360507 107.20101 119.52 127.520298 132.7206 137.9209 143.1212 147.5215 150.5218 156.7221 161.92241 164.66823 168.46852 175.06882 180.26912 183.01494 188.21524 192.01554 196.41584 203.21613 208.41643 212.21672 219.01702 223.41732 228.61762 231.36344 236.96373 240.16403 242.90985 246.71015 253.31044 258.51075 261.25654 264.45683 270.05714 273.05744 276.05775 281.65806 289.45835 292.45866 299.05897 304.45927 307.20506 315.00535 318.00566 321.80595 328.40626 331.15205 334.95234 341.55265 346.75294 349.49873 356.09904 361.29933 364.29963 370.4999 373.2457 378.846 382.0463 384.79209 387.7924 393.59269 399.79298 404.99327 407.99357 410.99388 416.19416 422.39445 425.14024 431.3405 434.34083 440.1411 445.5414 449.9417 455.742 465.1423 470.3426">13.Describe the structure of the following with the help of labelled diagrams.</tspan><tspan y="-145.92" x="119.52 122.46001 125.40002 137.52 144.9605 151.80098 157.04148 160.08197 165.32247 172.16295 209.52 212.52 215.52 218.52 230.4 237.7382 242.87642 249.41463 253.15283 257.49104 263.02925 268.16746 273.70567 283.04386">(i)Nucleus(ii)Centrosome</tspan><tspan y="-128.88" x="95.52 101.360507 107.20101 119.52 129.11981 135.71962 141.51943 145.31923 148.73444 151.73426 156.93407 160.34928 166.14908 169.56429 174.7641 179.96392 186.56372 190.36353 194.76334 200.36315 209.76296 214.96277 219.36258 224.5624 229.9622 233.37741 241.37723 246.97704 254.77684 258.19206 264.39186 269.99168 275.19148 280.39128 283.80647 287.60627 294.2061 299.40589 302.82109 309.02088 314.6207 319.8205 322.8203 326.62013 329.61994 335.21977 341.81959 345.23478 350.8346 354.0344 357.4496 362.64939 367.84919 374.449 378.2488 382.64863 388.24845 397.64826 402.84806 407.24787 412.44767 415.86286 419.06266 424.66249 429.0623 438.4621 441.8773 445.6771 452.27693 457.4767 460.8919 467.0917 472.8915 478.0913 481.09114 486.29093 489.70613 495.30595">14.What is a centromere? How does the position of centromere form the basis of</tspan><tspan y="-114.96" x="119.52 124.71981 127.71962 133.51943 138.71924 143.91905 146.91887 150.11869 153.1185 158.31832 164.11812 167.91793 170.91774 176.51755 183.11736 186.67266 192.27246 195.47228 199.02758 204.22739 210.8272 215.227 220.82682 230.22663 235.82643 241.02625 246.62606 256.02589 261.22569 266.42549 269.62528 273.18058 279.7804 286.5802 292.78 298.9798 304.57963 308.97944 312.77925 316.33454 321.73435 327.33418 334.13398 338.53379 342.08909 347.8889 354.4887 359.6885 367.4883 372.6881 377.08793 380.64323 388.44303 391.44285 395.24266 401.84248 405.39778 411.19758 414.75288 420.95268 423.95249 429.7523 435.1521 439.5519 445.3517 454.75154 458.30683 463.50663 470.10646 475.70628 483.50608 486.5059 493.1057">classification of chromosomes. Support your answer with a diagram showing</tspan><tspan y="-100.8" x="119.52 123.31891 129.91782 135.11673 137.57196 143.77088 149.36978 154.5687 157.56761 161.36652 164.36544 169.96434 176.56325 179.01848 184.61739 187.8163 190.27153 195.47045 200.66936 207.26827 211.06717 215.46608 221.06499 230.4639 235.66281 240.06172 245.26064 247.71587 253.31478 259.9137 262.36894 268.56785 271.56675 274.76567 277.96458 283.16349 287.56239 292.7613 299.3602 303.15913 305.61436 309.41328 314.81217 321.01109 326.21 331.4089 333.86415 339.46305 342.66197 345.1172 350.3161 356.915 361.3139 366.9128 376.3117 381.9106 387.10954 392.70845 402.10737 407.30628 412.5052">the position of centromere on different types of chromosomes.</tspan></text>
<g clip-path="url(#clip_8246)">
<text xml:space="preserve" transform="matrix(1 0 -0 1 259.314 763.9998)" font-size="8" font-family="Arial"><tspan y="6.316" x="0"> </tspan></text>
</g>
</g>
</svg>
