<svg xmlns="http://www.w3.org/2000/svg" xmlns:xlink="http://www.w3.org/1999/xlink" xmlns:inkscape="http://www.inkscape.org/namespaces/inkscape" version="1.1" width="571.68008" height="780.48007" viewBox="0 0 571.68008 780.48007">
<defs>
<clipPath id="clip_5">
<path transform="matrix(1,0,0,-1,-20.16,800.64)" d="M20.16 20.16H591.84V800.64H20.16Z" clip-rule="evenodd"/>
</clipPath>
<clipPath id="clip_6">
<path transform="matrix(1,0,0,-1,257.15403,766.8803)" d="M0-8H57.372V.800049H0Z"/>
</clipPath>
</defs>
<g clip-path="url(#clip_5)">
<path transform="matrix(.23999998,0,0,-.23999998,-20.16,800.64)" d="M2 2H2548V214.67H2Z" fill="#cbdf7f" fill-rule="evenodd"/>
<path transform="matrix(.23999998,0,0,-.23999998,-20.16,800.64)" stroke-width="4" stroke-linecap="butt" stroke-miterlimit="1000" stroke-linejoin="miter" fill="none" stroke="#cbdf7f" d="M2 2H2548V214.67H2Z"/>
<path transform="matrix(.23999998,0,0,-.23999998,-20.16,800.64)" d="M0 3035.83H2550V3372.7003H0Z" fill="#d1d3d4" fill-rule="evenodd"/>
<path transform="matrix(.23999998,0,0,-.23999998,-20.16,800.64)" d="M0 3078.33H2550V3420H0Z" fill="#e1ecb6" fill-rule="evenodd"/>
<path transform="matrix(.23999998,0,0,-.23999998,60.476163,51.47522)" d="M0 0C7.32 7.32 16.16 10.98 26.52 10.98H97.35C107.71 10.98 116.55 7.32 123.87 0 131.19-7.33 134.85-16.17 134.85-26.52V-101.52C134.85-111.88 131.19-120.72 123.87-128.04 116.55-135.36 107.71-139.02 97.35-139.02H26.52C16.16-139.02 7.32-135.36 0-128.04-7.32-120.72-10.98-111.88-10.98-101.52V-26.52C-10.98-16.17-7.32-7.33 0 0" fill="#ffffff" fill-rule="evenodd"/>
<text fill="#231f20" xml:space="preserve" transform="matrix(1 0 -0 1 -20.16 800.64)" font-size="11" font-family="Bookman"><tspan y="-729.361" x="87.12 94.409999 101.69999">154</tspan></text>
<text fill="#231f20" xml:space="preserve" transform="matrix(1 0 -0 1 -20.16 800.64)" font-size="11" font-family="Bookman"><tspan y="-729.361" x="513.12">B</tspan></text>
<text fill="#231f20" xml:space="preserve" transform="matrix(1 0 -0 1 -20.16 800.64)" font-size="7.69999" font-family="Bookman"><tspan y="-729.361" x="521.04 523.4336 529.3692 533.76486 539.70046 545.63607">IOLOGY</tspan></text>
<path transform="matrix(.23999998,0,0,-.23999998,-20.16,-1.7999878)" stroke-width="1" stroke-linecap="butt" stroke-miterlimit="10" stroke-linejoin="miter" fill="none" stroke="#000000" d="M0 0H60"/>
<path transform="matrix(.23999998,0,0,-.23999998,-2.039999,-20.159974)" stroke-width="1" stroke-linecap="butt" stroke-miterlimit="10" stroke-linejoin="miter" fill="none" stroke="#000000" d="M0 0V-60"/>
<path transform="matrix(.23999998,0,0,-.23999998,-20.16,782.52)" stroke-width="1" stroke-linecap="butt" stroke-miterlimit="10" stroke-linejoin="miter" fill="none" stroke="#000000" d="M0 0H60"/>
<path transform="matrix(.23999998,0,0,-.23999998,-2.039999,786)" stroke-width="1" stroke-linecap="butt" stroke-miterlimit="10" stroke-linejoin="miter" fill="none" stroke="#000000" d="M0 0V-60"/>
<path transform="matrix(.23999998,0,0,-.23999998,591.48007,782.4)" stroke-width="1" stroke-linecap="butt" stroke-miterlimit="10" stroke-linejoin="miter" fill="none" stroke="#000000" d="M0 0V-75"/>
<text fill="#231f20" xml:space="preserve" transform="matrix(1 0 -0 1 -20.16 800.64)" font-size="10.5" font-family="Bookman"><tspan y="-688.561" x="192 198.45452 201.54903 206.11354 211.51805 216.92256 220.85707 223.95159 229.5661 232.03311 235.12763 242.00214 247.40665 251.97116 258.42567 261.52018 266.92469 272.7492 277.31373 282.71824 288.12275 291.21726 293.68428 299.5088 304.0733 306.5403 309.63484 316.50935 322.96385 326.05836 330.62287 336.02738 341.4319 345.3664 348.4609 354.0754 356.54243 359.63694 365.04145 371.07597 375.64048 382.51499 385.6095 391.014 396.83854 401.40306 406.80757 412.21208 415.30659 418.61109 421.0781 427.9526 433.98713 440.44163 445.00614 450.83067 457.28517 464.15968 469.77418 473.70869 479.1132 484.5177 486.9847 490.07923 493.17375 499.62825 505.03276 507.49977 510.80427 517.8888 524.7633 530.3778 533.4723 535.93936 541.9738 546.5383">directly (herbivores) or indirectly (carnivores). Saprophytes like fungi are</tspan><tspan y="-674.4" x="192 198.4387 203.82741 210.26612 215.65482 222.51352 228.95223 234.34093 241.19963 245.11833 247.57073 253.37943 260.23814 262.69053 269.1292 274.5179 280.53663 286.9753 289.4277 295.4464 302.3051 308.7438 311.1962 317.6349 323.0236 328.4123 334.431 340.0297 343.1084 349.9671 355.5658 358.0182 367.8169 373.8356 377.7543 381.673 387.0617 390.96 394.2516 396.70689 399.16218 409.17378 416.03538 422.05699 425.97859 428.43388 431.51548 436.90708 439.36238 442.44398 452.24559 458.68717 464.49879 469.05039 472.972 478.9936 485.8552 489.7768 492.2321 496.1537 501.9653 504.4206 509.04 514.4271 519.8142 525.62136 531.21847 538.07559 541.15267 546.53976">dependent on dead and decaying matter.  What is important to recognise</tspan><tspan y="-660.481" x="192 195.0142 200.33841 202.72422 206.57842 213.37262 219.32682 223.18102 225.56682 232.57102 235.58522 239.43943 242.45363 252.18784 258.14204 261.99623 267.3204 270.3346 275.8688 278.25465 284.20884 287.22303 290.2372 292.62306 296.47724 303.27143 308.5956 310.98146 314.20567 319.94987 325.69407 332.06828 334.4541 338.3083 345.10249 351.05668 354.91087 357.2967 360.31089 365.63508 368.0209 372.5051 377.82929 383.15348 389.52769 392.54188 397.02607 402.35026 408.72447 411.1103 414.3345 420.0787 424.5629 426.94874 429.96293 432.9771 436.20133 441.5255 443.91136 450.28556 454.76976 460.51396 465.83815 471.16233 476.4865 481.8107 487.1349 492.45909 494.8449 500.1691 505.9133 515.6475 520.97177 526.29598 528.68179 531.90597 536.39016 542.13436">is that ultimately all the food that is respired for life processes comes from</tspan><tspan y="-646.561" x="192 198.5128 205.4456 211.3284 215.3212 221.204 226.6668 232.3396 239.2724 243.2652 250.198 255.6608 261.1236 264.2764 269.7392 273.102 278.01478 284.52757 291.46037 294.61317 300.07597 304.98875 310.45155 317.38435 323.47715 329.98994 333.98274 339.44554 344.06834 348.9811 355.4939 360.9567 367.0495 370.2023 375.6651 380.57789 388.7707 391.9235 395.9163 402.8491">photosynthesis. This chapter deals with </tspan></text>
<text fill="#231f20" xml:space="preserve" transform="matrix(1 0 -0 1 -20.16 800.64)" font-size="10.5" font-family="Bookman"><tspan y="-646.561" x="407.765 413.9287 420.0924 423.73609 427.37977 434.38346 438.02714 444.19084 449.0945 454.4882 459.39189 465.55558 471.08927 477.88298 481.73667 486.64036 492.80406 497.70774 501.56144 508.1451">cellular respiration</tspan></text>
<text fill="#231f20" xml:space="preserve" transform="matrix(1 0 -0 1 -20.16 800.64)" font-size="10.5" font-family="Bookman"><tspan y="-646.561" x="515.28 520.21 526.085 530.7 535.63 539.615 546.54"> or the</tspan><tspan y="-632.4" x="192 201.86891 207.32782 212.78673 219.71564 225.80455 232.73346 235.88237 241.34128 251.21019 255.6741 261.553 264.91194 269.37583 275.88475 280.50364 285.96257 292.05146 298.56037 305.06929 310.94819 319.1371 326.066 330.5299 336.4088 339.76774 344.23164 347.59056 353.46946 359.34837 365.85728 370.32118 380.19007 386.27897 390.26789 395.7268 400.3457 403.4946 409.5835 412.7324 418.1913 422.6552 430.84413 433.993 437.98194 444.91087 448.05976 454.98869 459.45259 463.4415 470.37043 475.82936 480.29325 485.75218 491.2111 494.36 497.50889 501.97279 505.9617 511.8406 516.3045 520.9234 526.3823 529.53128 534.9902 541.0791 546.538">mechanism of breakdown of food materials within the cell to release</tspan><tspan y="-618.481" x="192 197.48999 204.44998 209.93997 214.32 219.98812 225.65622 229.01432 231.6824 237.77051 244.69861 251.20671 253.8748 257.8629 264.79103 270.2491 272.9172 276.9053 281.5234 287.6115 294.1196 300.6277 303.7758 310.7039 316.37199 319.04008 324.91819 328.27629 330.94438 334.93247 341.86058 345.00868 350.46678 353.13487 358.59297 365.52107 370.97917 375.597 381.26847 386.93995 389.61143 392.9729 398.8544 403.4759 406.14738 411.60887 417.28034 424.21183 428.2033 435.1348 440.59629 446.05778 449.20927 454.67076 457.34223 463.22373 466.5852 469.25669">energy, and the trapping of this energy for synthesis of A</tspan><tspan y="-618.4806" x="476.3982 482.8482 488.6402">TP.</tspan><tspan y="-604.5606" x="210.00019 216.45998 223.33979 229.16959 233.10939 238.9392 244.349 249.9688 256.8486 260.7884 267.66819 273.07798 278.48777 281.58757 286.99736 290.30717 292.77809 298.60789 301.9177 304.3886 309.7984 315.6282 322.71803 327.2878 332.6976 338.1074 341.4172 343.88813 347.8279 353.8677 360.3275 365.7373 371.1471 373.618 380.07783 383.1776 389.2174 394.6272 400.037 402.5079 410.6477 413.7475 417.6873 424.56709 427.66688 434.54667 437.01759 440.95738 447.83717 453.24696 455.71788 461.12767 468.00746 471.10725 476.93705 481.50685 487.33665 493.79646 496.89625 502.93605 508.34584 512.28567 517.69546 520.1664 523.2662 526.36599 533.2458 535.71676 539.65658 546.5364">Photosynthesis, of course, takes place within the chloroplasts (in the</tspan><tspan y="-590.40066" x="192.00019 197.30489 204.28958 210.64429 216.579 221.0437 226.5584 232.2831 236.1178 241.4225 246.7272 249.72191 252.9266 255.29244 263.32716 270.10185 275.40653 279.87123 285.1759 291.1106 296.41529 298.7811 302.61579 309.39048 314.69517 317.06098 323.41569 327.88038 333.18507 339.11976 345.47447 351.82917 357.55387 365.58857 372.36326 374.72908 380.45378 383.65849 386.0243 391.32899 397.05369 406.76838 413.12309 416.11778 421.42247 427.14717 429.51298 439.22767 444.95237 447.94706 453.25175 458.55644 465.54115 468.53584 473.8405 479.1452 481.51103 485.3457 491.0704 493.43623 498.95094 501.94563 507.2503 510.245 516.5997 518.9655 524.2702 531.0449 536.3496 540.81436 546.32907">eukaryotes), whereas the breakdown of complex molecules to yield energy</tspan><tspan y="-576.4806" x="192.00019 195.99048 202.08078 208.59108 214.05138 219.51168 224.29279 230.80309 233.95339 240.04369 245.50399 250.96428 255.74539 258.8957 265.826 270.6071 274.59739 281.52769 286.98799 291.76908 297.22938 302.89967 306.88996 312.77027 319.28059 322.43089 328.52119 333.98149 343.85179 348.63288 354.72319 361.65348 368.1638 372.9449 376.09519 383.02549 387.80659 391.79689 398.72718 404.18748 408.96858 418.83888 421.98918 425.97947 431.85978 437.32008 444.25038 450.13069 457.06098 463.5713 468.1916 471.3419 477.4322 482.2133 486.9944 490.14469 496.235 499.38529 504.84559 510.7259 515.50698 521.38729 528.31759 531.4679 537.1382 541.91928 545.0696">takes place in the cytoplasm and in the mitochondria  (also only in</tspan><tspan y="-562.5606" x="192.00019 197.45749 204.59479 211.10208 217.18938 221.80667 227.47397 233.35128 237.33858 242.79589 248.25319 251.40048 254.75778 259.33509 263.91239 270.41969 277.347 282.8043 287.3816 293.8889 298.5062 303.9635 310.0508 316.5581 319.7054 326.63273 332.30003 336.87733 342.7546 346.1119 350.6892 354.6765 361.60383 367.06114 371.63844 379.40574 383.60304 391.37034 395.94764 402.45494 408.3322 415.25953 421.7668 427.22413 431.80143 437.6787 441.036 445.6133 451.07063 456.9479 466.81523 473.3225 476.46983 481.92713 487.8044 492.3817 497.83903 503.7163 513.5836 520.09097 525.96829 533.1056 540.0329 546.5402">eukaryotes).  The breaking of the C-C bonds of complex compounds</tspan><tspan y="-548.40066" x="192.00019 195.99057 202.92096 207.54135 213.42174 220.56214 226.23253 233.16292 237.62332 243.50371 249.3841 252.53449 259.04487 265.13526 269.12565 272.27604 278.15644 285.08683 289.5472 297.7376 300.888 304.8784 311.80879 314.95918 321.88957 326.34996 330.34034 337.27073 342.7311 347.1915 352.6519 358.11228 361.26268 364.41307 369.87345 373.23384 377.6942 380.8446 386.305 392.3954 398.90577 402.05616 408.98655 414.65693 419.1173 423.1077 428.9881 433.4485 438.06889 443.52928 446.67967 452.14006 458.23045 463.69084 469.1512 473.6116 479.492 482.8524 487.31278 492.77317 498.65357 505.58396 511.04435 514.1947 520.7051 526.16549 530.7858 536.8762 543.3866 546.537">through oxidation within the cells, leading to release of considerable</tspan><tspan y="-534.4806" x="192.00019 197.93828 207.65637 213.38448 220.37258 227.15068 230.98879 233.36688 239.09499 242.30309 244.68119 249.98929 256.7674 262.0755 266.5436 272.0617 277.5798 279.95793 282.95603 288.26414 290.64225 295.95036 301.88847 304.88658 307.88468 313.19279 319.55088">amount of energy is called </tspan></text>
<text fill="#231f20" xml:space="preserve" transform="matrix(1 0 -0 1 -20.16 800.64)" font-size="10.5" font-family="Bookman"><tspan y="-534.4806" x="322.0802 326.7842 332.7482 338.0822 344.6762 348.3302 353.0342 358.9982 363.7022 367.3562 373.7402">respiration</tspan></text>
<text fill="#231f20" xml:space="preserve" transform="matrix(1 0 -0 1 -20.16 800.64)" font-size="10.5" font-family="Bookman"><tspan y="-534.4806" x="380.6402 383.8541 386.2264 388.59873 394.96263 401.74653 407.06044 409.43275 414.74665 420.48054 430.20445 436.56834 442.30223 449.2961 456.08003 462.4439 467.7578 470.13014 473.97404 480.75794 486.70185 490.54576 492.91807 498.86198 503.33589 508.64979 511.0221 516.756 522.48989 525.4938 531.85769 534.8616 540.1755 545.4894">.  The compounds that are oxidised</tspan><tspan y="-520.5606" x="192.00019 198.54108 205.71196 210.36286 213.54375 220.50464 226.20554 231.27143 235.29232 242.2532 245.4341 250.92499 255.99088 262.53178 267.18266 273.09355 278.5844 284.07533 289.56623 295.05714 300.12303 306.2439 310.89479 316.38569 321.45158 327.99247 334.95335 340.86424 349.0851 356.046 361.11189 367.23277 372.72364">during this process are known as </tspan></text>
<text fill="#231f20" xml:space="preserve" transform="matrix(1 0 -0 1 -20.16 800.64)" font-size="10.5" font-family="Bookman"><tspan y="-520.5606" x="377.7602 382.76799 389.03578 394.67356 401.57136 405.52915 410.53694 416.80473 421.8125 428.5003 433.5081 440.1959 445.8436 451.48139 458.58918 465.06697 470.70475 475.71253 480.7203 486.9881 491.99589 498.26368 503.90147 507.64927">respiratory substrates. </tspan></text>
<text fill="#231f20" xml:space="preserve" transform="matrix(1 0 -0 1 -20.16 800.64)" font-size="10.5" font-family="Bookman"><tspan y="-520.5606" x="512.8802 521.1152 526.6202 533.8052 539.9402 543.1352 546.3302">Usually</tspan><tspan y="-506.4006" x="192.00019 197.402 203.4338 207.99562 214.44744 220.26924 227.14105 232.75287 239.20468 243.7665 249.79831 253.73012 259.13194 264.53376 267.00059 273.03239 277.59419 282.996 285.46284 291.28465 297.10646 300.19825 306.65007 309.74186 315.14369 320.5455 326.9973 329.46415 333.39598 339.21778 341.6846 346.2464 351.64823 354.74003 360.14186 366.17366 371.57548 376.9773 379.44413 384.84596 391.71775 397.11958 401.68138 407.29319 412.905 416.20683 418.67366 425.12547 432.20729 436.1391 438.60594 445.05775 449.61955 455.44136 459.37318 464.775 467.8668 474.7386 480.1404 483.44224 485.90907 489.21089 495.24269 499.1745 504.57633 507.04316 513.07498 519.9468 526.39859 528.86538 534.26718 539.66897 545.07077">carbohydrates are oxidised to release energy, but proteins, fats and even</tspan><tspan y="-492.4806" x="192.00019 197.66168 202.06319 207.51468 213.38619 220.09769 223.02919 228.27069 230.57588 236.44739 241.68889 244.62039 250.9119 256.15339 258.4586 263.70008 269.57157 276.28306 278.58827 284.87977 290.12126 292.42646 299.34797 304.58946 309.83094 316.12245 318.42765 324.29914 329.54063 331.84584 336.2473 341.4888 346.7303 353.0218 355.95329 360.35478 366.22627 369.99778 375.65928 380.06077 385.51228 387.81748 393.05897 399.98048 406.27198 411.51347 415.28498 421.15647 427.86796 433.10945 438.35093 443.5924 445.8976 448.8291 455.5406 457.8458 463.08729 468.74879 478.40028 483.64176 485.94697 492.23847 495.16996 501.04145 507.75294 511.52445 516.7659 519.9074 522.2126 529.1341 535.8456 542.1371 547.3786">organic acids can be used as respiratory substances in some plants, under</tspan><tspan y="-478.5606" x="192.00019 197.256 202.51181 206.92763 210.71344 216.59925 219.54506 226.27088 228.59038 233.84619 239.522 246.24782 252.55364 255.49945 259.28526 262.23106 267.90687 274.63267 279.88847 283.04429 285.3638 287.68333 295.87913 302.81495 307.23075 310.17655 316.90235 322.36817 324.68769 330.3635 336.0393 338.9851 345.29093 351.17674 354.96253 357.90834 363.58415 370.30995 372.62947 380.61528 383.56108 387.34687 394.07267 397.01847 403.74427 406.06379 411.9496 414.2691 419.5249 424.7807 427.7265 430.6723 433.82814 436.14765 442.03346 444.97926 447.92506 450.24458 454.03038 460.75617 466.01197 468.33149 473.58729 480.31309 485.56889 489.98469 495.4505 500.91633 503.23585 508.49165 514.1674 520.89328 524.6791 530.5649 533.5107 540.2365 545.4923">certain conditions.  During oxidation within a cell, all the energy contained</tspan><tspan y="-464.4006" x="192.00019 195.1471 202.074 205.1463 209.76322 215.22013 220.67704 227.18395 230.33086 234.94777 241.03469 245.02159 250.8985 255.51541 261.1823 264.2546 269.71153 276.84843 283.35533 288.81224 292.79914 297.41606 303.50297 307.48988 312.94679 318.4037 321.47599 324.6229 330.0798 333.1521 340.079 345.95594 349.94285 353.01515 357.63206 363.08897 366.23588 371.69279 377.7797 383.2366 388.6935 395.2004 398.2727 401.6296 406.24653 411.70344 417.16035 420.23265 423.37956 430.30647 434.29338 440.1703 443.24259 447.2295 454.1564 459.6133 462.6856 468.14253 473.59944 476.74635 479.89326 483.25016 486.32246 492.19938 496.81629 499.88859 503.0355 509.9624 513.0347 519.12167 522.194 527.6509 530.7978 537.72476 543.39169 546.5386">in respiratory substrates is not released free into the cell, or in a single</tspan><tspan y="-450.4806" x="192.00019 197.45659 201.443 206.8994 213.40579 216.76219 220.19779 223.76419 227.7506 231.18619 234.33258 239.78899 243.22458 247.84098 253.29738 256.4438 261.90019 267.98658 273.44297 278.89936 285.40577 288.84138 291.98777 298.91416 302.34977 308.43617 311.87178 317.32817 322.78456 327.40095 330.54734 336.00373 341.4601 344.89573 350.77214 354.12855 357.56416 363.02055 366.16694 372.04335 380.22975 383.66535 389.12174 393.10813 398.5645 405.07093 409.26734 417.45375 420.60014 426.05653 431.5129 434.94853 439.5649 445.0213 451.1077 456.5641 460.55049 463.69688 469.57328 476.49967 481.95606 485.39167 490.84806 496.72447 503.65086 507.63725 512.25369 518.13009 521.2765 524.4229 529.87936 536.38577 539.8213 546.3277">step. It is released in a series of slow step-wise reactions controlled by</tspan><tspan y="-436.5606" x="192.00019 197.37729 204.2244 209.18149 214.76859 224.55568 229.93279 235.30989 238.58699 241.0284 247.03549 253.8826 260.3097 262.7511 265.8182 269.7253 272.16673 275.23384 280.61094 283.05235 286.95945 291.49656 297.50367 303.93077 310.35786 315.73497 322.16206 324.60346 330.61058 335.98768 338.42909 343.80619 350.6533 356.0304 365.8175 368.8846 374.26173 380.26884 383.33595 385.77735 391.15446 398.00157 403.37867 407.7602 413.3541 418.948 421.3962 424.47013 431.32405 433.77226 437.68617 444.54008 449.92399 452.3722 455.6561 461.46003 466.3202 476.1225 478.5791 484.3914 487.6837 490.1403 497.0402 503.4902 509.28019 512.5454 514.9749 517.4044 525.7096 531.07479 537.91 543.27517 548.6403">enzymes, and it is trapped as chemical energy in the form of ATP.  Hence,</tspan><tspan y="-422.4006" x="192.00019 195.14989 199.13959 202.83109 205.98079 211.44049 215.13199 218.2817 228.1514 234.6611 240.5408 245.1605 249.1502 255.23992 262.16963 266.1593 269.8508 273.8405 279.7202 283.4117 290.55143 297.4811 303.9908 309.4505 314.0702 319.52989 323.5196 329.60929 336.53898 343.04869 346.74018 350.72987 357.65956 363.74925 367.73896 371.43046 375.42018 382.34986 387.80955 391.50105 396.96073 403.8904 409.3501 413.9698 419.6395 425.3092 429.0007 433.6204 439.08009 442.22978 447.68946 453.77915 459.23884 464.69853 471.20823 474.89973 481.40943 487.07914 490.77064 496.65034 502.53004 505.67973 512.1894 518.2791 522.2688 525.4185 531.2982 538.2279 541.9194 545.0691">it is important to understand that the energy released by oxidation in</tspan><tspan y="-408.48063" x="192.00019 196.61838 202.07659 207.53479 214.04299 217.19118 221.80937 227.89757 231.88578 235.03397 240.91217 247.84038 252.82358 255.97177 261.42997 266.41316 273.34135 279.21955 283.20774 288.19093 291.3391 297.21733 301.8355 306.81874 311.43693 317.52513 321.5133 328.4415 333.8997 338.51789 343.5011 348.9593 355.0475 361.97569 368.90388 374.78208 378.77027 383.75349 390.2617 395.71989 398.86808 403.85127 410.98948 416.44767 421.90586 428.41407 433.39729 439.9055 443.05369 447.67189 453.13008 458.58827 462.57646 465.72465 471.39286 476.37605 482.88426 490.02247 494.01066 498.99385 502.14204 507.60023 512.58346 519.7216 525.1798 530.638 537.1462 542.1294 546.1176">respiration is not (or rather cannot be) used directly but is used to</tspan><tspan y="-394.5606" x="192.00019 197.46617 203.14217 210.07816 214.07415 221.01013 226.47612 231.94211 235.0981 240.56409 246.03008 248.94057 256.0802 262.5302 268.3202 271.6741 274.5725 282.7564 289.6803 292.8242 298.27809 305.20198 308.10038 311.24427 316.69816 319.59657 326.10047 330.9602 336.841 343.3518 348.8126 355.74339 358.64866 365.15946 371.04026 379.23106 386.16184 389.0671 397.2579 404.1887 409.64949 416.58027 422.04106 427.50184 432.96263 437.5834 440.48869 443.63948 449.73027 456.66105 463.17185 466.07713 474.2679 481.1987 486.6595 491.2802 496.73085 502.18147 507.63209 512.2427 515.3833 518.2784 523.729 530.6496 536.1002 540.7202 546.3302">synthesise ATP, which is broken down whenever (and wherever) energy</tspan><tspan y="-380.4006" x="192.00019 198.9262 204.3822 209.83821 216.34423 221.80023 224.69853 228.68454 234.56055 237.45885 243.96486 249.42087 252.31917 259.45518 263.4412 266.5872 269.7332 272.87919 278.3352 283.79124 290.29725 293.65327 296.55158 304.94758 310.4036 317.3296 322.7856 328.24165 331.59767 334.49598 341.632 348.138 354.644 357.54234 363.62834 369.08436 373.07038 378.5264 381.4247 387.5107 392.96675 395.86506 399.85108 406.7771 412.23313 415.13145 420.58747 427.5135 432.9695 437.5855 443.25154 448.91755 451.81587 457.27189 464.4079 469.0239 473.6399 479.09593 486.0219 491.47795 497.14396 500.04228 505.91828 509.2743 512.1726 516.1586 523.08468 528.54067 531.43899 536.89498 542.35098 545.49697 548.64297">needs to be utilised. Hence, ATP acts as the energy currency of the cell.</tspan><tspan y="-366.48063" x="192.00019 198.65679 205.73339 209.02999 214.63658 219.82089 225.42749 232.50409 238.11069 242.87729 248.6939 254.5105 259.6948 263.8314 268.598 274.8346 281.49119 288.14778 293.75437 300.41096 305.59526 308.89186 315.96846 321.15275 328.43934 335.09593 341.7525 346.9368 350.2334 355.84 361.0243 368.31089 372.44749 375.74409 379.04069 382.33729 387.94389 393.55049 400.20707 405.39137 408.68797 415.76457 420.94886 426.55546 432.79206 437.55867 440.85527 446.88188 454.16847 459.77507 464.95936 470.56596 477.64256 483.24916 488.01576 493.83235 499.64894 503.9955 508.76213 514.3687 520.6053 527.8919 531.1885 535.9551 539.25167 546.32827">This energy trapped in ATP is utilised in various energy-requiring</tspan><tspan y="-352.5606" x="192.00019 198.5076 203.12502 209.00243 214.45984 219.91725 225.37467 230.83208 236.28949 241.7469 245.29322 251.17063 254.52803 258.07435 262.06175 268.98915 274.44654 277.99287 283.87028 288.48768 294.1551 300.2425 307.1699 310.3173 315.7747 325.6421 331.0995 334.4569 338.00325 344.09065 351.01805 357.52546 361.07179 365.05918 371.98658 377.44398 380.9903 386.4477 392.5351 397.1525 403.6599 409.53733 416.46473 420.01106 425.46846 431.97587 437.43327 440.58067 446.03807 450.02546 455.90287 462.83027 466.3766 472.884 477.5014 483.3788 489.88624 497.02366 502.48106 507.93846 514.44589 517.9922 524.4996 531.63699 536.2544 539.4018 546.3292">processes of the organisms, and the carbon skeleton produced during</tspan><tspan y="-338.4006" x="192.00019 196.61719 202.07419 207.53119 214.0382 217.1852 221.8022 227.8892 231.8762 235.02321 240.9002 247.82721 250.7492 253.89621 259.3532 262.2752 269.4122 274.8692 280.3262 286.8332 289.7552 295.8422 301.2992 304.2212 310.72819 315.34519 320.8022 326.2592 333.39619 338.01319 343.47019 349.3472 353.9642 359.4212 362.3432 365.7002 371.5772 376.1942 379.1162 385.6232 388.7702 394.64723 400.10423 405.7712 412.6982 416.6852 423.6122 429.0692 434.5262 437.67323 443.13023 446.05223 451.92924 455.28623 458.20823 464.08525 468.07225 474.99925 480.45625 485.07325 487.99525 497.86225 503.73927 506.88627 512.34329 517.8003 524.9373 528.0843 533.54129 538.9983 541.9203 545.06729">respiration is used as precursors for biosynthesis of other molecules in</tspan><tspan y="-324.48063" x="192.00019 195.82639 202.59259 207.8888 210.23499 215.53119 220.8274 223.8136 226.7998">the cell.</tspan></text>
<text fill="#00aeef" xml:space="preserve" transform="matrix(1 0 -0 1 -20.16 800.64)" font-size="13" font-family="Bookman"><tspan y="-291.3606" x="192.00019 200.28708 208.57398 212.70088 234.00019">12.1D</tspan></text>
<text fill="#00aeef" xml:space="preserve" transform="matrix(1 0 -0 1 -20.16 800.64)" font-size="9.1" font-family="Bookman"><tspan y="-291.3606" x="244.80019">O</tspan></text>
<text fill="#00aeef" xml:space="preserve" transform="matrix(1 0 -0 1 -20.16 800.64)" font-size="13" font-family="Bookman"><tspan y="-291.3606" x="252.48018 255.90079"> P</tspan></text>
<text fill="#00aeef" xml:space="preserve" transform="matrix(1 0 -0 1 -20.16 800.64)" font-size="9.1" font-family="Bookman"><tspan y="-291.3606" x="264.72019 270.59339 277.19459 283.97779 290.39698">LANTS</tspan></text>
<text fill="#00aeef" xml:space="preserve" transform="matrix(1 0 -0 1 -20.16 800.64)" font-size="13" font-family="Bookman"><tspan y="-291.3606" x="296.40019 300.72077"> B</tspan></text>
<text fill="#00aeef" xml:space="preserve" transform="matrix(1 0 -0 1 -20.16 800.64)" font-size="9.1" font-family="Bookman"><tspan y="-291.3606" x="310.0802 317.2217 323.8172 330.4127 336.8262 344.3317">REATHE</tspan></text>
<text fill="#00aeef" xml:space="preserve" transform="matrix(1 0 -0 1 -20.16 800.64)" font-size="13" font-family="Bookman"><tspan y="-291.3606" x="351.12019">?</tspan></text>
<text fill="#231f20" xml:space="preserve" transform="matrix(1 0 -0 1 -20.16 800.64)" font-size="10.5" font-family="Bookman"><tspan y="-264.9606" x="192.00019 201.36019 206.68349 209.6968 212.7101 215.9334 218.321 222.1743 228.9676 234.29091 236.67852 242.6318 249.42511 254.74842 262.80174 268.12504 272.60835 274.99595 278.84925 284.59254 286.98014 290.83345 297.62675 300.64006 305.96336 308.35096 314.30427 321.30757 326.63087 331.95417 335.80747 338.82078 344.56407 351.35737 353.74497 356.75828 362.08158 364.46919 371.26249 377.00578 380.85908 383.24668 389.19999 396.20329 399.21659 403.0699 408.3932 410.7808 416.1041 421.84739 424.235 430.60829 433.62159 438.00019 443.2938 448.5874 452.411 455.6046 457.96253 460.32044 466.3202 471.6349 476.9496 480.1643 482.54335 488.90806 491.91276 497.85746 504.64216 508.48686 513.8016 516.1806 520.8002 526.1252 532.0802 539.0852 542.1002 546.4802">Well, the answer to this question is not quite so direct.  Yes, plants require</tspan><tspan y="-250.8006" x="192.00019">O</tspan></text>
<text fill="#231f20" xml:space="preserve" transform="matrix(1 0 -0 1 -20.16 800.64)" font-size="6.1" font-family="Bookman"><tspan y="-247.44062" x="200.40018">2</tspan></text>
<text fill="#231f20" xml:space="preserve" transform="matrix(1 0 -0 1 -20.16 800.64)" font-size="10.5" font-family="Bookman"><tspan y="-250.8006" x="204.00019 206.39878 209.63237 215.38597 219.87958 222.27817 226.77178 232.10538 237.43898 243.82259 246.84619 251.3398 257.3034 261.167 264.19059 269.94419 276.74778 279.1464 283.00999 288.76359 291.1622 296.9158 302.2494 307.58299 314.5966 319.09019 321.4888 327.4524 334.25599 340.6396 343.0382 346.9018 353.70539 359.03898 364.58259 366.9812 372.9448 375.96839 381.30198 387.05558 389.4542 394.9978 398.0214 403.35499 408.68858 411.0872 416.8408 423.8544 427.718 430.1166 437.7602"> for respiration to occur and they also give out CO</tspan></text>
<text fill="#231f20" xml:space="preserve" transform="matrix(1 0 -0 1 -20.16 800.64)" font-size="6.1" font-family="Bookman"><tspan y="-247.44062" x="446.1602">2</tspan></text>
<text fill="#231f20" xml:space="preserve" transform="matrix(1 0 -0 1 -20.16 800.64)" font-size="10.5" font-family="Bookman"><tspan y="-250.8006" x="450.00019 453.23069 455.6237 458.0167 466.2872 471.6177 478.4182 483.74873 489.07923 492.30973 494.70274 501.08323 504.10374 510.06425 516.86477 520.7252 526.0557 528.4488 535.24929 541.2098 546.5403">.  Hence, plants have</tspan><tspan y="-236.88062" x="192.00019 197.28469 202.77919 208.06369 211.87819 217.16269 226.8572 232.1417 234.4887 237.4632 244.2177 246.5647 252.8992 255.8737 261.7882 267.07273 272.35725 274.70426 278.51878 285.27326 291.18775 295.00227 297.34928 302.6338 309.38829 314.6728 321.6373 326.0818 331.3663 333.71333 337.52784 344.28233 349.56684 351.91386 357.82835 363.11286 369.02735 372.00184 374.97633 380.8908 387.2253 390.1998 393.1743 396.14878 399.9633 405.4578 407.8048 413.5093 416.69383 419.04084">systems in place that ensure the availability of O</tspan></text>
<text fill="#231f20" xml:space="preserve" transform="matrix(1 0 -0 1 -20.16 800.64)" font-size="6.1" font-family="Bookman"><tspan y="-233.28061" x="427.2002">2</tspan></text>
<text fill="#231f20" xml:space="preserve" transform="matrix(1 0 -0 1 -20.16 800.64)" font-size="10.5" font-family="Bookman"><tspan y="-236.88062" x="431.04017 434.22337 436.56907 438.91477 445.24797 448.22117 454.13438 460.88758 464.70079 469.98399 473.16719 475.51289 482.47608 489.22929 492.20249 495.1757 501.50889 506.79209 509.1378 515.05099 521.80416 524.77737 534.4705 540.3837 543.35696 548.64016">.  Plants, unlike animals,</tspan><tspan y="-222.9606" x="192.00019 198.9242 205.00821 210.46222 215.91623 218.43523 225.35924 231.23325 233.75225 239.20626 245.71027 251.16428 256.6183 259.7623 265.8463 268.99034 272.13435 277.58836 283.04237 289.54637 292.06538 297.9394 302.5534 308.2174 314.30143 321.22544 326.67945 329.19847 332.55247 338.42649 343.0405 345.5595 351.2235 357.30754 362.76155 368.21556 374.08958 381.22358 386.67759 389.1966 394.6506 400.52464 405.97865 412.90266 418.98667 425.91069 431.57469 437.0287 439.5477 446.0517 453.1857 457.1697 459.68873 463.67274 470.59675 476.05076 481.71476 484.23377 491.15779 497.2418 502.6958 508.1498 510.66883 516.12289 520.1069 525.9809 535.8449 541.9289 545.9129">have no specialised organs for gaseous exchange but they have stomata</tspan><tspan y="-208.8006" x="192.00019 198.08768 205.01519 211.52269 214.06198 217.20949 222.66699 229.5945 233.582 236.7295 242.18701 247.64452 250.79203 256.2495 258.78883 262.14634 268.02384 272.64134 275.18064 279.16813 286.0956 289.2431 294.7006 297.2399 303.7474 310.88493 315.5024 322.00993 327.88743 333.3449 338.8024 342.1599 344.69923 351.20674 358.13423 363.5917 368.2092 373.6667 376.206 382.2935 386.91099 392.36848 394.90779 400.36528 405.82276 411.28025 416.73774 421.35523 427.44273 430.5902 433.12953 437.747 443.2045 449.292 454.74949 460.62699 467.55448 473.01197 475.55128 483.73878 490.66627 496.33378 498.87309 505.38059 508.52809 514.6156 521.5431 525.5306 530.9881 533.5274 538.9849 545.07247">and lenticels for this purpose. There are several reasons why plants can</tspan><tspan y="-194.88062" x="192.00019 197.6503 203.09041 207.06052 209.56432 215.63443 218.76454 224.62465 231.53476 237.18488 239.68868 247.85878 250.98889 254.959 261.8691 267.72923 274.84934 278.81947 281.32328 285.92338 291.3635 296.80363 303.29374 306.42384 311.02394 317.09403 321.06416 326.92427 331.52436 337.17448 339.67829 345.5384 350.1385 355.7886 361.8587 368.7688 374.20893 377.54905 380.05287 386.75297 389.88307 394.48316 399.92329 403.8934 407.23353 409.73735 415.17747 421.24757 426.68769 433.59779 436.1016 442.5917 445.7218 451.7919 458.70204 462.67216 465.17597 471.66609 477.73619 482.33628 486.3064 488.8102 492.78034 498.85044 505.34056 510.78068 516.22079 518.72457 524.1647 530.2348 534.8349 540.275 542.7788 548.6389">get along without respiratory organs. First, each plant part takes care of</tspan><tspan y="-180.9606" x="192.00019 195.1469 199.1336 204.59032 207.35953 213.23624 221.42295 228.34966 231.11887 236.78559 242.8723 248.32901 252.52573 257.98243 263.85914 269.31584 276.24253 282.32923 289.25593 294.92265 300.37934 303.14857 310.07527 315.53196 320.98866 327.49537 332.95207 336.30879 339.078 341.84724 348.35395 355.28065 360.73735 365.35404 370.81074 373.57997 376.72666 382.18336 384.95259 390.40928 395.86598 400.48268 406.14939 408.9186 412.0653 415.212 419.19874 423.18547 426.33216 431.78886 434.55809 438.5448 443.1615 449.2482 456.1749 461.6316 468.1383 474.015 478.6317 482.61845 485.38768 491.26438 494.6211 497.39033 503.05705 509.14375 514.60049 520.0572 525.5139 528.28317 531.63986 536.25656 542.13327">its own gas-exchange needs.  There is very little transport of gases from</tspan><tspan y="-166.8006" x="192.00019 197.85979 204.7694 210.209 212.7111 219.2007 222.33029 228.39989 235.3095 239.2791 241.7812 248.2708 254.3404 258.94 262.9096 265.4117 269.38133 275.2409 277.743 283.81263 290.72224 296.58183 300.55143 307.46104 312.90065 316.80018 320.1342 322.6307 325.12724 332.03123 337.4652 342.8992 348.7532 355.6572 362.1412 365.47523 367.97175 374.45576 377.57975 383.64375 390.54774 394.51173 399.9457 402.44224 408.92625 414.78025 417.27677 424.18077 430.03477 433.99876 436.49528 442.97929 447.6002 453.0213 458.4424 463.86354 470.75465 474.70576 477.18937 482.82048 487.4402 492.86698 498.92378 502.88056 505.36988 511.84669 517.2735 527.1103 533.1671 540.0639 546.5407">one plant part to another.  Second, plants do not present great demands</tspan><tspan y="-152.88062" x="192.00019 195.30028 201.12038 205.68048 208.14218 213.75229 219.7824 225.1825 227.6442 233.0443 238.8644 244.2645 251.1346 257.1647 264.0348 269.6449 275.04499 278.3451 280.80683 283.26856 290.76866 296.58876 302.40885 306.33897 311.73908 315.03919 317.50093 322.901 326.83113 332.2312 342.0413 347.4414 349.90315 355.93324 362.8033 369.25343 371.71516 374.80525 380.20533 386.2354 391.6355 397.03559 402.43568 404.8974 409.4575 414.8576 420.2577 426.7078 429.79789 434.35798 439.75807 442.2198 448.24989 452.18 454.64173 459.2018 465.2319 469.16203 474.56214 479.96223 482.42396 485.72407 491.75416 496.31425 498.77598 501.86607 507.68617 515.8163 521.2164 525.7765 528.2382 532.16836 539.03848 545.06857">for gas exchange.  Roots, stems and leaves respire at rates far lower than</tspan><tspan y="-138.96063" x="192.00019 198.11118 205.06217 208.23316 218.12415 224.23514 227.40613 232.88712 237.94582 244.4768 250.37779 253.75879 258.81748 267.23847 274.18946 277.36045 283.05143 288.1101 294.64109 301.80207 306.44306 309.61405 316.56504 322.256 327.3147 333.84568 340.79667 346.69767 350.70866 356.60966 362.09065 367.78163 374.7326 378.7436 385.69459 391.17558 396.65657 399.82756 405.30854 410.36723 416.4782 421.1192 426.6002 431.65888 434.82987 440.94087 445.58186 451.27284 456.7538 461.8125 467.2935 473.1945 476.36549 483.52647 493.41746 498.89845 504.37944 509.4381 515.3391 518.7201 523.77877 529.4697 535.5807 541.0617 546.5427">animals do. Only during photosynthesis are large volumes of gases</tspan><tspan y="-124.8006" x="192.00019 197.4589 203.3376 208.79631 215.72502 221.81374 228.74245 234.41117 239.86988 246.37859 249.82959 255.9183 262.84703 269.3557 272.71443 276.1654 281.6241 287.71284 293.17155 300.10026 303.55125 306.69996 312.15867 318.24739 321.60609 325.05708 328.20579 333.6645 337.11549 345.3042 350.7629 353.91163 357.06034 360.51133 366.60005 373.10874 379.19746 385.70616 389.69486 395.15357 401.66227 405.11326 409.10197 414.98069 418.43168 422.42039 428.5091 435.0178 440.4765 443.9275 449.3862 455.4749 460.09364 465.55235 469.00334 474.88206 478.24076 481.69175 484.84046 488.82917 494.28788 497.73887 503.61759 511.8063 518.735 522.186 529.1147 534.5734 540.03219 546.5409">exchanged and, each leaf is well adapted to take care of its own needs</tspan><tspan y="-110.880619" x="192.00019 198.39278 205.41538 209.91797 212.95056 219.76317 225.31577 227.72716 231.59976 238.41237 243.75498 249.09758 254.44019 256.8516 263.2442 268.5868 273.0894 276.12199 281.88459 288.2772 293.61979 296.8624 299.2738 309.2364 316.04899 321.39158 328.20417 330.61558 335.95817 341.30076 344.33335 347.36595 352.70854 355.11994 361.51255 368.32514 374.08775 377.96034 383.72294 389.06553 394.61814 401.43074 405.3033 412.1159 417.4585 422.8011 425.83369 431.17628 436.51887 439.76148 442.17289 448.14549 453.48808 459.46067 462.49327 465.52586 471.49845 477.89106 480.92366 483.95625 486.98884 490.86143 496.41404 498.82545 504.58805 507.83067 510.24208">during these periods. When cells photosynthesise, availability of O</tspan></text>
<text fill="#231f20" xml:space="preserve" transform="matrix(1 0 -0 1 -20.16 800.64)" font-size="6.1" font-family="Bookman"><tspan y="-107.28058" x="518.6402">2</tspan></text>
<text fill="#231f20" xml:space="preserve" transform="matrix(1 0 -0 1 -20.16 800.64)" font-size="10.5" font-family="Bookman"><tspan y="-110.880619" x="522.2402 524.6385 527.6768 533.02517 535.42349 542.24179 548.0101"> is not</tspan><tspan y="-96.96063" x="192.00019 198.08408 201.35469 207.8586 212.4725 218.3464 224.85031 227.99422 233.44812 243.31203 246.58264 249.72655 256.65046 259.92109 263.90498 270.82887 276.28276 281.73664 287.19053 290.46116 295.91505 301.36894 304.51283 307.6567 313.1106 316.38124 321.8351 324.979 331.9029 337.35679 342.81068 346.0813">a problem in these cells since O</tspan></text>
<text fill="#231f20" xml:space="preserve" transform="matrix(1 0 -0 1 -20.16 800.64)" font-size="6.1" font-family="Bookman"><tspan y="-93.360599" x="354.48017">2</tspan></text>
<text fill="#231f20" xml:space="preserve" transform="matrix(1 0 -0 1 -20.16 800.64)" font-size="10.5" font-family="Bookman"><tspan y="-96.96063" x="358.3202 361.5907 364.7387 370.19673 373.46723 378.08525 383.54325 386.69126 392.14927 398.23728 403.69529 409.1533 415.6613 418.9318 427.1198 430.26783 434.25584 441.18385 444.33186 451.25987 454.53038 458.51838 465.44639 470.9044 474.1749 479.6329 485.0909 488.23893 491.38694 494.74494 498.01545 501.28596 507.79396 514.722 517.87 522.488 528.996 532.354 535.6246 539.6126 546.54067"> is released within the cell.  Third, the</tspan></text>
<g clip-path="url(#clip_6)">
<text xml:space="preserve" transform="matrix(1 0 -0 1 257.15403 766.8803)" font-size="8" font-family="Arial"><tspan y="6.316" x="0"> </tspan></text>
</g>
</g>
</svg>
