<svg xmlns="http://www.w3.org/2000/svg" xmlns:xlink="http://www.w3.org/1999/xlink" xmlns:inkscape="http://www.inkscape.org/namespaces/inkscape" version="1.1" width="576" height="784.8" viewBox="0 0 576 784.8">
<defs>
<clipPath id="clip_9">
<path transform="matrix(1,0,0,-1,-18,802.8)" d="M18 18H594V802.8H18Z" clip-rule="evenodd"/>
</clipPath>
<clipPath id="clip_10">
<path transform="matrix(1,0,0,-1,259.314,763.9998)" d="M0-8H57.372V.800049H0Z"/>
</clipPath>
</defs>
<g clip-path="url(#clip_9)">
<path transform="matrix(.23999998,0,0,-.23999998,-18,802.8)" d="M2 2H2548V214.67H2Z" fill="#cbdf7f" fill-rule="evenodd"/>
<path transform="matrix(.23999998,0,0,-.23999998,-18,802.8)" stroke-width="4" stroke-linecap="butt" stroke-miterlimit="1000" stroke-linejoin="miter" fill="none" stroke="#cbdf7f" d="M2 2H2548V214.67H2Z"/>
<path transform="matrix(.23999998,0,0,-.23999998,-18,802.8)" d="M0 3035.83H2550V3372.7003H0Z" fill="#d1d3d4" fill-rule="evenodd"/>
<path transform="matrix(.23999998,0,0,-.23999998,-18,802.8)" d="M0 3078.33H2550V3420H0Z" fill="#e1ecb6" fill-rule="evenodd"/>
<path transform="matrix(.23999998,0,0,-.23999998,62.63616,53.635194)" d="M0 0C7.32 7.32 16.16 10.98 26.52 10.98H97.35C107.7 10.98 116.54 7.32 123.87 0 131.19-7.32 134.85-16.16 134.85-26.52V-101.52C134.85-111.88 131.19-120.72 123.87-128.04 116.54-135.36 107.7-139.02 97.35-139.02H26.52C16.16-139.02 7.32-135.36 0-128.04-7.32-120.72-10.98-111.88-10.98-101.52V-26.52C-10.98-16.16-7.32-7.32 0 0" fill="#ffffff" fill-rule="evenodd"/>
<text fill="#231f20" xml:space="preserve" transform="matrix(1 0 -0 1 -18 802.8)" font-size="11" font-family="Bookman,Bold" font-weight="bold"><tspan y="-729.361" x="87.12 94.409999 101.69999">122</tspan></text>
<text fill="#231f20" xml:space="preserve" transform="matrix(1 0 -0 1 -18 802.8)" font-size="11" font-family="Bookman"><tspan y="-729.361" x="513.12">B</tspan></text>
<text fill="#231f20" xml:space="preserve" transform="matrix(1 0 -0 1 -18 802.8)" font-size="7.69999" font-family="Bookman"><tspan y="-729.361" x="521.04 523.3687 529.3087 533.6779 539.6179 545.5579">IOLOGY</tspan></text>
<path transform="matrix(.23999998,0,0,-.23999998,-18,.35998536)" stroke-width="1" stroke-linecap="butt" stroke-miterlimit="10" stroke-linejoin="miter" fill="none" stroke="#000000" d="M0 0H60"/>
<path transform="matrix(.23999998,0,0,-.23999998,.12000084,-18)" stroke-width="1" stroke-linecap="butt" stroke-miterlimit="10" stroke-linejoin="miter" fill="none" stroke="#000000" d="M0 0V-60"/>
<path transform="matrix(.23999998,0,0,-.23999998,-18,784.68)" stroke-width="1" stroke-linecap="butt" stroke-miterlimit="10" stroke-linejoin="miter" fill="none" stroke="#000000" d="M0 0H60"/>
<path transform="matrix(.23999998,0,0,-.23999998,.12000084,788.16)" stroke-width="1" stroke-linecap="butt" stroke-miterlimit="10" stroke-linejoin="miter" fill="none" stroke="#000000" d="M0 0V-60"/>
<path transform="matrix(.23999998,0,0,-.23999998,593.64,784.56)" stroke-width="1" stroke-linecap="butt" stroke-miterlimit="10" stroke-linejoin="miter" fill="none" stroke="#000000" d="M0 0V-75"/>
<text fill="#231f20" xml:space="preserve" transform="matrix(1 0 -0 1 -18 802.8)" font-size="10.5" font-family="Bookman"><tspan y="-689.281" x="210.24 217.28672 223.26242 233.30162 238.84682 242.77272 248.31792 253.86312 257.0563 260.2495 265.7947 269.7206 272.91383 279.9605 283.8864 287.9301 294.9768 300.522 304.4479 310.6336 317.24983 324.50654 327.69975 331.74345 335.66935 341.85505 348.90174 352.09495 362.13417 368.31986 371.51307 377.05827 380.98417 387.60038 393.57609 397.50199 404.54869 410.52439 414.56809 418.494 424.6797 431.2959 437.9121 443.4573 449.643 454.3272 458.2531 462.2968 468.27253 472.19844 477.74363 483.71934 490.76603 493.95924 500.57545 503.76866 507.81236 511.73826 518.35446 521.5476 527.09286 530.286 535.83126 539.0244 545.0001">Some cells in the adult animals do not appear to exhibit division</tspan><tspan y="-676.8" x="192.24 195.27172 200.65543 203.89714 209.49085 212.73256 215.97428 218.36598 225.25119 230.6349 236.65912 241.18183 245.06404 247.45575 252.83946 258.22319 261.25489 264.2866 269.6703 272.702 275.0937 281.1179 288.0031 294.45783 296.84953 306.72724 312.75144 319.63667 325.23039 327.62208 333.43629 337.31849 344.2037 349.5874 354.1101 356.5018 361.8855 367.2692 370.3009 373.3326 378.7163 381.108 387.5627 390.59443 395.97813 399.00984 405.46455 410.84825 413.23994 419.05415 425.93937 428.97108 434.5648 436.95649 442.7707 448.1544 453.5381 459.5623 464.94599 467.9777 473.7919 480.67713 486.70133 489.73304 492.76475 496.32 499.5721 501.9742 508.00883 513.4029 515.805 522.7006 528.24 533.599 540.029 545.388">(e.g., heart cells) and many other cells divide only occasionally, as needed</tspan><tspan y="-664.081" x="192.24 196.2849 202.26178 206.97028 211.65567 217.20206 223.81945 227.01384 233.20073 238.74712 244.2935 249.00199 254.54837 260.09477 263.28916 266.48356 272.02995 276.73844 280.78334 287.8312 294.0181 298.063 302.77149 309.81938 316.00627 321.55265 327.09904 331.80754 338.42494 343.9713 349.5177 356.56559 361.27409 364.46849 370.44538 375.99177 380.03666 384.74516 391.36256 396.90895 402.45533 408.6422 415.90013 421.4465 426.9929 431.7014 437.67829 441.08268 445.79118 448.98558 456.03346 459.22785 466.48576 471.17115 476.92753 481.63603 487.6129 492.2983 497.0068 502.5532 508.09959 511.29399 514.48837 519.19686 525.8142 531.3606 537.5475 541.59237 548.64028">to replace cells that have been lost because of injury or cell death.</tspan><tspan y="-651.6" x="192.24 198.85591 205.90232 211.44722 216.99213 222.53704 225.27123 230.81613 236.36104 239.55394 242.74684 248.29175 251.02594 255.06934 262.11573 268.30113 272.3445 275.0787 281.6946 287.67 290.4042 297.4506 303.426 307.4694 310.20359 316.8195 320.0124 325.55729 328.75019 335.3661 340.91099 343.64518 347.04808 354.30448 358.98838 363.03178 370.07817 375.62306 380.30696 383.04115 388.58604 394.56144 397.75434 401.79774 404.53193">These cells that do not divide further exit G</tspan></text>
<text fill="#231f20" xml:space="preserve" transform="matrix(1 0 -0 1 -18 802.8)" font-size="6.1" font-family="Bookman"><tspan y="-648" x="413.04">1</tspan></text>
<text fill="#231f20" xml:space="preserve" transform="matrix(1 0 -0 1 -18 802.8)" font-size="10.5" font-family="Bookman"><tspan y="-651.6" x="416.88 419.61775 426.23844 433.28965 439.47987 445.02958 450.57929 453.31703 457.3652 463.3454 466.08314 471.63285 478.68406 482.73225 488.28196 492.97065 495.70838 501.89857 508.94978 511.6875 514.8852 521.9364 528.1266 533.6763 537.7245 540.9222 546.47189"> phase to enter an inactive</tspan><tspan y="-638.881" x="192.24 197.7852 201.8289 208.0146 213.7698 219.315 223.0432 228.5884 234.7741 237.9673 241.1605 246.7057 253.3219">stage called </tspan></text>
<text fill="#231f20" xml:space="preserve" transform="matrix(1 0 -.20997243 1 -18 802.8)" font-size="10.500472" font-family="Bookman,Bold" font-weight="bold"><tspan y="-638.8805" x="122.8929 129.4117 136.98055 140.55922 146.44799 152.33675 158.22551 164.11428 171.4731 175.8918 180.03044 185.9192 190.3379 196.8567 202.95549 208.84426 212.9829 216.56157">quiescent stage (G</tspan></text>
<text fill="#231f20" xml:space="preserve" transform="matrix(1 0 -.20997244 1 -18 802.8)" font-size="6.100237" font-family="Bookman,Bold" font-weight="bold"><tspan y="-635.5206" x="226.08309">0</tspan></text>
<text fill="#231f20" xml:space="preserve" transform="matrix(1 0 -.20997243 1 -18 802.8)" font-size="10.500472" font-family="Bookman,Bold" font-weight="bold"><tspan y="-638.8805" x="229.45769">)</tspan></text>
<text fill="#231f20" xml:space="preserve" transform="matrix(1 0 -0 1 -18 802.8)" font-size="10.5" font-family="Bookman"><tspan y="-638.8805" x="366.9603 370.6998 376.6806 380.0889 383.8284 387.8772 394.929 400.47929 404.21879 409.76908 415.31938 418.51768 421.71598 425.45549 431.00578 436.76609 442.31639 445.51469 451.06498 454.47328 458.21278 466.11509 471.66539 474.86369 478.06199 483.61228 487.35179 490.55009 497.60188 501.34138 505.39018 512.44198 515.64028 521.19058 524.93008 530.48037 534.5292 540.72 546.4803"> of the cell cycle. Cells in this stage</tspan><tspan y="-626.4005" x="192.2403 196.85779 202.33629 212.30879 218.4278 221.55429 228.53429 231.02079 240.99329 246.47179 250.44879 256.56779 263.11729 269.02629 272.15278 275.27928 280.75776 286.87675 290.00325 293.12974 298.81825 301.30473 307.4237 312.90223 316.8792 320.0057 325.4842 330.9627 333.4492 339.9987 347.1887 351.16569 353.65217 360.63218 366.54118 369.02766 372.15415 378.06315 385.04316 390.73167 396.21015 400.82765 403.31413 409.86363 414.4811 420.3901 423.5166 426.6431 429.97959 435.45808 440.07557 446.19456 450.17155 455.65003 458.1365 465.3265 472.30653 475.433 480.9115 486.39 491.86854 494.355 499.8335 505.95249 509.07899 512.2055 517.684 524.2335 526.72006 532.629 539.609 542.0955 546.0725">remain metabolically active but no longer proliferate unless called on to</tspan><tspan y="-613.6805" x="192.2403 198.8581 204.83539 207.89019 213.43698 219.41428 222.46907 229.08687 234.63367 241.25147 246.79827 253.84656 260.46437 263.65916 270.70747 276.46427 279.51905 285.49635 292.54466 295.59944 299.6447 306.69303 312.23985 315.29463 319.9804 325.52723 331.7145 338.9728 342.1676 346.8534 352.4002 362.441 367.98783 375.03614 379.08143 382.1362 388.1135 391.51829 394.57307 398.61836 405.66667 411.21348 414.26826 420.24555 424.93135 430.68815 436.87544 443.92375 447.11854 452.66535 462.70616">do so depending on the requirement of the organism.</tspan><tspan y="-601.2005" x="210.2403 213.85428 220.90177 224.11035 230.29685 237.34433 240.53832 250.57831 256.7648 259.9588 265.5048 268.90879 272.11738 282.15736 285.35136 289.39585 295.37236 299.41685 302.61085 308.15684 311.36543 316.9114 322.4574 325.6514 328.8454 332.054 338.671 341.865 347.41099 350.60499 356.15098 359.34498 365.32148 372.36897 375.57756 378.77156 384.31755 387.52613 393.50263 400.5501 403.7441 409.5001 412.70869 418.25468 423.80067 429.34666 436.39414 439.60273 442.79673 449.8442 453.0528 457.0973 464.14479 469.69078 472.89936 479.51637 482.71037 489.32737 492.52137 498.49787 501.69187 508.30888 511.51747 517.0635 523.04 533.07998 539.2664 543.3109 546.5049">In animals, mitotic cell division is only seen in the diploid somatic</tspan><tspan y="-588.48049" x="192.2403 197.6384 203.0365 206.0826 209.1287 214.5268 217.7829 220.189 228.2403 234.1002 242.31212 247.74153 253.17095 258.60035 261.8403 265.1122 267.53413 271.44654 278.36195 283.77586 288.32878 293.74269 296.16459 302.219 306.7719 312.18583 314.60774 317.87965 323.29356 331.48997 333.91188 339.32579 345.1702 350.5841 355.99803 362.48295 366.39537 369.45729 375.3017 382.2171 387.631 390.05293 393.96534 399.80976 402.23167 406.14408 413.05949 416.1214 421.5353 423.9572 432.15364 439.06904 444.48295 449.03587 454.44978 456.87168 463.78709 469.8415 476.32643 479.38835 485.23277 488.29469 494.7796 497.2015 502.61543 508.02934 511.09126 514.15316 519.567 521.98898 528.4739 531.53579 536.9497 540.0116 546.4965">cells. However, there are few exceptions to this where haploid cells divide</tspan><tspan y="-576.0005" x="192.2403 198.85729 204.61328 207.57637 217.61637 220.81035 224.85485 230.83133 236.37732 239.5713 245.1173 248.52129 251.48438 254.88837 260.86488 265.54988 268.51298 274.05897 280.03547 286.22196 296.26194 302.87895 306.07295 311.61894 315.02293 317.98603 328.026 334.2125 337.4065 342.95249 345.9156 352.96308 358.93959 365.98707 371.53306 377.28904 380.25215 386.86915 392.41514 397.96113 403.5071 406.9111 409.8742 417.13169 422.88768 429.07417 432.26817 439.31565 444.86164 448.90614 451.86924 455.91374 462.9612 466.1552 471.7012 475.1052 478.0683 482.1128 489.16029 494.70628 497.66938 504.28639 507.48039 513.6669 520.71438 524.75888 530.3048 533.2679 538.81387 545.0003">by mitosis, for example, male honey bees. Against this, the plants can</tspan><tspan y="-563.2805" x="192.2403 197.7842 204.82959 210.80399 219.13039 223.67729 233.7152 236.90709 240.9495 246.92389 250.9663 254.15819 259.7021 264.24897 270.86387 274.05577 279.59968 282.79158 288.33549 291.52738 297.50178 304.54719 310.0911 314.63798 317.82987 324.87528 329.42216 336.03706 342.01145 346.05384 353.09925 357.64613 364.69154 370.87593 377.4908 380.6827 386.6571 389.849 396.4639 401.01078 407.19517 414.24058 420.85548 425.40235 432.01725 435.20915 441.82405 445.01594 450.99034 454.18223 460.79713 465.344 470.8879 476.43183 479.62373 482.8156 488.35954 491.7614 496.3083 503.13319 507.81608 513.79049 523.82839 528.3753 534.1292 540.10366 547.359">show mitotic divisions in both haploid and diploid cells. From your</tspan><tspan y="-550.8005" x="192.2403 196.68959 201.9999 207.3102 213.051 216.0093 218.96759 224.2779 229.5882 233.397 236.3553 242.0961 248.9079 251.2262 256.967 260.1353 262.4536 267.76393 273.50474 279.45555 289.25984 295.6411 298.59944 303.90974 309.22004 311.53834 317.27915 320.44746 322.76576 328.71656 331.67488 335.48368 340.79399 345.2433 352.05509 358.0059 361.8147 364.773 370.51383 377.32563 379.64393 385.38475 388.55305 390.87135 396.39164 401.70195 408.51374 413.82405 418.27336 424.22416 428.03297 430.99128 436.7321 443.54389 448.8542 451.1725 454.1308 460.9426 463.2609 469.64219 472.6005 478.5513 485.3631 489.1719 494.4822 496.8005 499.75883 507.4211 514.2329 520.1837 526.565 530.3738 535.6841 540.13339 542.40029 548.81">recollection of examples of alternation of generations in plants (Chapter 3)</tspan><tspan y="-538.0805" x="192.2403 195.25279 201.6883 207.0528 213.9188 217.7818 220.7943 224.0168 229.5913 231.96379 238.39929 241.41179 247.4168 254.28279 258.14579 260.51829 265.88279 272.31828 277.68278 283.04728 286.05979 291.4243 296.7888 299.1613 305.1663 312.0323 318.46778 320.84028 326.20478 330.06779 336.07279 341.64729 347.01179 352.37629 354.74879 360.75379 364.6168 366.9893 375.1363 382.0023 385.0148 390.3793 397.2453 399.6178 409.4763 412.4888 416.3518 422.14683 427.51133 430.52384 435.88835 438.26084 441.27336 446.63786 449.01036 454.37486 459.73936 465.10386 471.96986 474.34236 477.35487 484.22087 486.59336 493.45936 499.46437 505.89985 508.91236 514.70736 517.71987 524.15536 526.52786 531.89236 537.25686 540.26937 543.28189 548.64639">identify plant species and stages at which mitosis is seen in haploid cells.</tspan></text>
<text fill="#00aeef" xml:space="preserve" transform="matrix(1 0 -.20997244 1 -18 802.8)" font-size="13.001051" font-family="Bookman,Bold" font-weight="bold"><tspan y="-510.7204" x="85.003 93.20495 101.4069 105.708538 127.00489 139.43228 142.90897">10.2M P</tspan></text>
<text fill="#00aeef" xml:space="preserve" transform="matrix(1 0 -.20997244 1 -18 802.8)" font-size="9.099953" font-family="Bookman,Bold" font-weight="bold"><tspan y="-510.7204" x="151.48609 159.09003 165.60196 171.93192">HASE</tspan></text>
<text fill="#231f20" xml:space="preserve" transform="matrix(1 0 -0 1 -18 802.8)" font-size="10.5" font-family="Bookman"><tspan y="-489.8404" x="192.2402 198.72151 205.63332 208.69162 214.10193 219.07024 222.12854 227.53885 232.50716 236.41597 243.32778 248.73809 253.70639 263.6107 269.4515 274.86183 278.77064 283.73893 290.22026 294.76957 300.82038 310.72468 316.77549 320.6843 323.7426 329.15293 334.12123 340.60255 346.01286 350.56217 353.62049 359.4613 365.94264 370.91093 376.75175 380.02006 384.98835 388.89717 395.80897 401.21928 406.18757 411.59788 417.00819 420.0665 423.12483 428.0931 433.50343 439.12373 444.53404 447.59236 453.00267 456.27098 461.23927 464.29759 471.20939 476.6197 482.4605 485.51884 490.92915 493.98747 500.89927 506.51957 511.48786 517.53866 522.50698 532.41128 538.46206 541.5203 547.36117">This is the most dramatic period of the cell cycle, involving a major</tspan><tspan y="-477.36039" x="192.2402 196.715 202.0508 207.8171 212.2919 217.8377 223.81401 230.6513 233.6351 238.9709 244.9472 248.78151 251.7653 257.53163 264.36894 266.83094 272.59724 275.79103 278.25303 283.5888 286.5726 291.0474 294.88169 301.929 307.90528 310.88908 313.87287 319.41868 321.88069 327.85697 330.84077 333.82456 336.28657 341.62239 347.38868 357.21849 363.62528 369.39158 376.22889 381.5647 388.402 392.2363 397.57209 400.0341 405.80039 408.99418 411.45619 415.29048 422.12779 427.46357 429.92558 435.26136 440.59718 443.58097 446.56477 449.75856 452.22056 459.05787 462.04167 468.87898 474.21479 479.5506 482.0126 485.8469 492.6842 498.02003 500.48204 507.31935 514.36666 524.1964 530.6032 535.939 540.4138 542.8758 548.6421">reorganisation of virtually all components of the cell. Since the number of</tspan><tspan y="-464.64039" x="192.2402 197.41211 204.08551 208.39641 213.99881 223.6647 229.2671 234.43901 240.04141 249.7073 254.87921 260.05113 262.23103 265.0509 271.7243 273.9042 277.57463 284.24803 289.41993 291.59983 297.8427 303.65513 307.96604 313.13795 319.81135 323.48176 325.66166 331.47407 338.14747 344.39036 346.57026 352.81315 357.12406 362.72645 368.10835 373.28025 379.95365 385.33555 387.51545 392.68736 397.85926 400.67915 403.49903 408.67094 410.85084 413.67073 418.84263 421.02253 424.69294 431.36634 436.53825 438.71815 443.89006 449.70246 459.36836 464.6402 467.7602 469.9437 472.7672 476.44123 478.62474 481.44825 486.62376 488.80726 494.62327 497.44679 502.62229 508.2283 510.4118 515.58737 521.4034 524.22689 527.05038 532.2259 538.4724 540.65597 546.472">chromosomes in the parent and progeny cells is the same, it is also called as</tspan></text>
<text fill="#231f20" xml:space="preserve" transform="matrix(1 0 -.20997243 1 -18 802.8)" font-size="10.500472" font-family="Bookman,Bold" font-weight="bold"><tspan y="-452.1604" x="97.29899 102.97108 109.2732 116.625377 122.9275 127.129528 130.49152 136.58362 143.7258 150.02793 153.3899 157.71189 164.43402 167.79602 173.46811 176.83011 182.5022 185.8642 191.9563">equational division</tspan></text>
<text fill="#231f20" xml:space="preserve" transform="matrix(1 0 -0 1 -18 802.8)" font-size="10.5" font-family="Bookman,Bold" font-weight="bold"><tspan y="-452.1604" x="294.0002">.</tspan></text>
<text fill="#231f20" xml:space="preserve" transform="matrix(1 0 -0 1 -18 802.8)" font-size="10.5" font-family="Bookman"><tspan y="-452.1604" x="297.60023 301.484 307.88804 314.72254 320.48606 327.53059 333.07359 339.90809 343.79188 346.98289 352.7464 357.2184 361.1022 366.4352 372.19874 379.03324 384.36625 389.69926 396.53376 399.51478 404.84779 411.68229 417.0153 422.3483 426.2321 436.05909 439.0401 442.8716 448.63514 453.96815 456.94917 462.28218 466.16596 473.00047 478.97398 484.30699 488.19078 494.5948 499.9278 505.2608 512.09536 515.9792 522.3832 525.3642 530.6972 533.6782 540.0822 545.4152"> Though for convenience mitosis has been divided</tspan><tspan y="-439.4404" x="192.2402 195.2209 202.0551 205.8863 211.6495 215.06021 218.25092 224.01412 231.05832 235.53002 238.94072 244.27342 248.10463 254.07784 259.62055 264.95326 270.28596 273.69667 279.45988 282.65058 286.06129 292.89549 299.93968 305.27238 308.25309 313.5858 319.559 324.0307 327.4414 333.8451 336.8258 342.1585 345.13923 350.47193 353.45265 359.21586 366.0002 369.6469 372.83363 379.44334 385.62254 390.30024 396.04896 402.01817 408.62788 411.81459 418.8548 424.3935 429.9322 433.1189 438.6576 442.0802 445.2751 448.69996 451.68486 455.52024 458.9451 461.93 467.2669 470.69178 476.0287 481.3656 485.8415 491.3884 494.81327 500.15019 505.4871 510.824 516.1609 522.99929 526.83468 529.8196 535.797 538.7819 542.2068 546.0422">into four stages of nuclear division (karyokinesis), it is very essential to</tspan><tspan y="-426.9604" x="192.2402 199.28961 206.12902 212.53792 217.87583 222.35272 227.69063 231.52703 237.50542 244.34482 250.75373 254.16461 258.001 264.8404 270.8188 274.65519 278.06608 283.40397 288.74186 291.72776 294.71366 298.12455 304.53346 307.51936 312.85725 315.84315 321.18104 324.16694 329.93534 336.77473 340.1856 343.1715 348.5094 351.9203 357.89869 361.30958 367.71849 372.19538 377.96379 383.5117 387.9886 393.32649 398.66438 404.00227 406.98817 412.32606 417.66395 421.07484 427.48374 431.96064 437.72904 443.06694 448.40483 453.7427 459.0806 462.4915 468.46989 475.30928 481.71818 485.12907 490.46696 495.80485 500.28175 505.82966 509.24055 514.5784 517.56436 522.9022 528.8806 531.6002 535.62887 540.9384 547.95956">understand that cell division is a progressive process and very clear-cut</tspan><tspan y="-414.24043" x="192.2402 195.2238 198.2074 205.0445 210.3801 215.7157 220.2878 225.6234 231.5995 238.4366 245.2737 251.0398 254.8739 259.44599 265.8526 271.1882 275.76029 282.16688 286.64149 292.61759 300.7357 307.57279 312.14488 318.55146 323.88706 327.72117 335.83927 341.17488 346.51048 353.34757 357.91966 363.25526 369.23136 373.70597 376.68959 382.4557 389.50279 394.83839 399.41047 404.74607 408.58018 414.55628 420.10188 425.43748 430.77308 433.96669 438.7202 446.40385 452.58595 457.26655 463.01817 468.99028 475.60289 478.79249 485.8356 491.3772 496.9188 500.1084 505.65 510.4496 513.6392 520.6823 526.22396 532.19607 535.3857 540.9273 546.46896">lines cannot be drawn between various stages. Karyokinesis involves</tspan><tspan y="-401.7604" x="192.2402 195.60022 201.25313 204.12354 206.99394 212.64685 220.65177 223.52217 230.24608 235.67848 237.90889 240.9893 246.64221 253.57613 257.93754 260.16795 265.39036 269.11128 274.97419 280.4066 285.629 290.8514">following four stages:</tspan></text>
<text fill="#231f20" xml:space="preserve" transform="matrix(1 0 -0 1 -18 802.8)" font-size="9" font-family="Wingdings"><tspan y="-382.9054" x="204.37522 204.10822">ll</tspan><tspan y="-383.1754" x="204.37522 204.10822">ll</tspan><tspan y="-383.0404" x="204.2402">l</tspan></text>
<text fill="#231f20" xml:space="preserve" transform="matrix(1 0 -.20997243 1 -18 802.8)" font-size="10.500472" font-family="Bookman,Bold" font-weight="bold"><tspan y="-383.0403" x="147.8123 154.88864 160.07489 166.5212 173.59754 181.09389 187.7502 193.77648">Prophase</tspan></text>
<text fill="#231f20" xml:space="preserve" transform="matrix(1 0 -0 1 -18 802.8)" font-size="9" font-family="Wingdings"><tspan y="-367.3053" x="204.37519 204.10819">ll</tspan><tspan y="-367.5753" x="204.37519 204.10819">ll</tspan><tspan y="-367.4403" x="204.24019">l</tspan></text>
<text fill="#231f20" xml:space="preserve" transform="matrix(1 0 -.20997243 1 -18 802.8)" font-size="10.500472" font-family="Bookman,Bold" font-weight="bold"><tspan y="-367.4403" x="151.08786 161.3299 167.37177 171.94355 178.61542 185.7073 193.21921 199.89109 205.93292">Metaphase</tspan></text>
<text fill="#231f20" xml:space="preserve" transform="matrix(1 0 -0 1 -18 802.8)" font-size="9" font-family="Wingdings"><tspan y="-351.7053" x="204.37519 204.10819">ll</tspan><tspan y="-351.97529" x="204.37519 204.10819">ll</tspan><tspan y="-351.8403" x="204.24019">l</tspan></text>
<text fill="#231f20" xml:space="preserve" transform="matrix(1 0 -.20997243 1 -18 802.8)" font-size="10.500472" font-family="Bookman,Bold" font-weight="bold"><tspan y="-351.8403" x="154.36344 162.23697 169.90048 176.72394 183.96744 191.63095 198.45444 204.64789">Anaphase</tspan></text>
<text fill="#231f20" xml:space="preserve" transform="matrix(1 0 -0 1 -18 802.8)" font-size="9" font-family="Wingdings"><tspan y="-336.1053" x="204.37519 204.10819">ll</tspan><tspan y="-336.37528" x="204.37519 204.10819">ll</tspan><tspan y="-336.2403" x="204.24019">l</tspan></text>
<text fill="#231f20" xml:space="preserve" transform="matrix(1 0 -.20997243 1 -18 802.8)" font-size="10.500472" font-family="Bookman,Bold" font-weight="bold"><tspan y="-336.2403" x="157.639 164.77573 170.8624 174.63898 181.14566 188.28238 195.83911 202.55582 208.64249">Telophase</tspan></text>
<text fill="#00aeef" xml:space="preserve" transform="matrix(1 0 -.20997243 1 -18 802.8)" font-size="12.000819" font-family="Bookman,Bold" font-weight="bold"><tspan y="-304.5588" x="128.29074 136.25922 144.22772 148.59595 156.56446 160.93268 176.29303 184.38523 190.31729 197.68943 205.78162 214.35385 221.966 228.85813">10.2.1Prophase</tspan></text>
<text fill="#231f20" xml:space="preserve" transform="matrix(1 0 -0 1 -18 802.8)" font-size="10.5" font-family="Bookman"><tspan y="-285.3602" x="192.2402 198.8991 203.62598 209.64437 216.30326 223.39264 229.62104 235.20893 240.79682 243.5336 251.90399 258.99339 262.22929 267.81718 274.90657 277.64335 280.87925 286.46714 289.20393 293.2903 300.3797 305.9676 308.70439 312.15028 315.38618 320.11308 325.70097 329.78736 332.52415 338.11204 342.19844 348.42683 354.2247 359.8126 362.54939 368.56779 372.01368 374.75047 381.40937 387.63777 392.36466 398.16255 404.18095 410.83985 414.07575 421.16514 426.75303 432.3409 435.5768 441.1647 443.9015 449.9199 453.36579 456.10258 466.18446 469.42036 473.50675 479.52516 485.11305 488.34895 493.93684 496.6736 500.1195 506.1379 509.3738 512.6097 518.62808 526.9984 532.5863 535.32308 539.4094 546.49887">Prophase which is the first stage of karyokinesis of mitosis follows the</tspan><tspan y="-272.6402" x="192.2402 199.3379 202.6421 208.8788 215.9765 222.6437 225.9479">S and G</tspan></text>
<text fill="#231f20" xml:space="preserve" transform="matrix(1 0 -0 1 -18 802.8)" font-size="6.1" font-family="Bookman"><tspan y="-269.0402" x="234.48021">2</tspan></text>
<text fill="#231f20" xml:space="preserve" transform="matrix(1 0 -0 1 -18 802.8)" font-size="10.5" font-family="Bookman"><tspan y="-272.6402" x="238.3202 241.62001 248.2828 255.3761 261.6084 267.2002 272.792 278.3838 281.6836 287.7059 291.1557 294.4555 297.6953 304.7886 308.8789 314.4707 319.2015 325.86433 332.9576 339.1899 344.7817 350.3735 353.8233 357.1231 360.9602 368.057 371.36033 375.45414 382.55094 388.14625 391.44956 398.54637 401.84968 408.08549 415.18229 421.84858 425.1519"> phases of interphase. In the S and G</tspan></text>
<text fill="#231f20" xml:space="preserve" transform="matrix(1 0 -0 1 -18 802.8)" font-size="6.1" font-family="Bookman"><tspan y="-269.0402" x="433.6802">2</tspan></text>
<text fill="#231f20" xml:space="preserve" transform="matrix(1 0 -0 1 -18 802.8)" font-size="10.5" font-family="Bookman"><tspan y="-272.6402" x="437.5202 440.8239 447.4906 454.5878 460.82398 466.41969 472.01539 477.61109 481.0648 484.3685 488.46269 495.55989 501.15559 504.4593 511.5565 517.15219 525.53036 528.83407 536.88027 544.74539"> phases, the new DNA</tspan><tspan y="-260.1602" x="192.2402 202.2613 208.2189 211.394 216.9211 222.4482 229.6868 232.8619 238.38899 243.91609 246.45119 249.83629 255.79389 260.46 270.48109 276.00819 282.6063 285.1414 291.309 295.9751 301.5022 304.0373 311.0659 317.0235 321.0491 323.5842 330.1823 333.35743 338.88453 342.91014 346.08525 353.11384 358.64094 362.66654 365.20164 371.79975 379.03834 383.06394 385.59904 388.77415 395.80274 399.82835 405.35545 410.02156 414.04716 422.35676 425.53187 432.56047 438.08757 444.68568 448.07078 450.60588 457.20399 461.8701 467.8277 474.4258 481.4544 487.622 493.1491 498.6762 501.2113 504.3864 509.9135 512.4486 522.4697 528.6373 533.3034 539.9015 545.4286">molecules formed are not distinct but intertwined. Prophase is marked</tspan><tspan y="-247.4402" x="192.2402 199.15869 205.21619 210.62168 214.96767 222.31665 228.16414 233.56963 237.06511 244.4141 247.90958 252.25557 255.75106 262.23905 266.58503 270.0805 276.3585 283.7075 289.11296 295.39094 299.0964 304.50187 310.34938 316.62736 323.97636 330.89485 336.74235 344.09135 349.93885 356.42683 360.7728 364.26829 370.54627 377.89527 383.30073 389.5787 393.28419 398.68965 404.53715 411.88615 416.87263 423.1506 433.4921 439.77009 445.61759 451.89558 462.23707 468.72505 472.22053 477.62599 487.96748 494.45545 498.80143 504.64894 509.6354 513.1309 519.6189 523.1144 526.8199 532.2254 539.1439 546.4929">by the initiation of condensation of chromosomal material. The</tspan><tspan y="-234.9602" x="192.2402 198.01039 205.28208 210.19127 216.39196 226.65615 232.85683 238.62702 244.8277 255.09189 261.5026 264.92079 270.24897 280.51316 286.92387 291.19255 296.96275 301.87193 305.2901 311.7008 315.119 320.44718 327.28837 333.05857 338.82878 345.02946 355.29365 361.06385 366.83406 372.16224 379.64393 386.91563 391.1843 397.595 404.8667 410.8469 414.26509 420.03529 426.87648 432.20466 439.04585 446.52754 451.4367 454.8549 462.1266 468.10679 473.43498 477.70365 484.97535 490.74555 496.07374 502.91493 507.8241 514.0248 519.795 525.5652 531.3354 537.1056 542.4338 548.63449">chromosomal material becomes untangled during the process of</tspan><tspan y="-222.2402" x="192.2402 197.8283 204.91788 209.64498 215.66356 225.74565 231.97425 236.06084 239.29692 246.3865 249.86389 255.45198 261.47059 268.56019 275.21928 280.80738 287.89698 293.48509 299.71366 303.80024 307.03633 313.0549 320.1445 323.62187 326.85795 333.72703 336.9631 342.7612 350.0608 354.78788 360.37599 363.85334 370.51243 377.1715 380.61759 387.27668 390.75404 396.9826 400.2187 403.66477 407.14213 413.8012 420.8908 426.4789 429.95628 435.54438 441.13249 448.22209 452.30867 457.03575 463.05433 468.64244 474.661 484.7431 490.3312 493.77729 497.25465 505.62525 512.71487 515.9509 521.539 528.6286 532.106 539.1956 545.4242">chromatin condensation (Figure 10.2 a). The centrosome, which had</tspan><tspan y="-209.7602" x="192.2402 199.30832 206.16643 212.59404 217.95066 222.44626 228.01287 233.79998 240.65808 246.0147 248.3793 254.80692 261.87504 268.30265 271.30726 274.31187 279.66847 285.66557 289.52067 292.52528 298.31239 305.1705 307.5351 313.9627 321.03083 325.52644 328.53105 335.38917 340.95579 343.32038 350.1785 352.5431 358.9707 365.82884 371.82594 377.18254 382.53913 384.90373 390.69084 393.90544 396.27003 399.27464 406.13276 409.98786 415.34446 419.84007 426.26768 433.1258 439.1229 444.4795 449.8361 453.0507 455.41529 462.2734 468.06053 476.19963 478.5642 484.99183 490.34843 495.91505 498.91966 505.77778 511.13438 513.499 517.3541 523.14126 525.50588 535.35647 541.14358 546.5002">undergone duplication during S phase of interphase, now begins to move</tspan><tspan y="-197.04019" x="192.2402 196.2327 202.1572 210.4337 216.5682 221.2012 227.7662 233.26021 235.7622 241.6867 248.25171 254.81671 260.7412 266.2352 269.3772 273.3697 278.86369 281.36567 287.93067 293.85517 296.99717 302.49116 307.98515 310.48713 316.41163 319.7636 322.2656 326.2581 333.2536 338.7476 341.24958 346.74357 352.23756 355.37956 358.52156 361.87355 364.37553 370.94053 377.93605 383.43003 385.932 391.426 397.3505 407.3385 413.9035 417.0455 422.5395 426.53199 429.67399 435.59849 442.594 445.09599 451.02049 454.37248 456.87446 463.43946 468.07246 473.99696 480.56196 487.55747 493.69197 499.18595 504.67994 507.18193 512.6759 518.8104 525.8059 528.3079 532.3004 539.2959 546.5014">towards opposite poles of the cell. The completion of prophase can thus</tspan><tspan y="-184.5602" x="192.2402 198.7908 204.2704 206.758 216.7316 222.8517 227.4703 234.0209 239.5005 246.0511 248.5387 255.0893 260.7789 263.26649 267.24458 274.22569 279.7053 282.19288 285.53047 291.44056 294.56816 297.69575 303.60585 311.86796 314.99555 321.97666 327.66627 330.15385 335.63346 342.61457 348.73466 353.35325 359.47334 364.95295 368.93104 374.41065 379.02925 382.15684 387.63645 391.61454 394.74214 400.22175 402.70933 408.18894 413.66856 419.14817 426.12928 430.10737 435.58699">be marked by the following characteristic events:</tspan></text>
<text fill="#231f20" xml:space="preserve" transform="matrix(1 0 -0 1 -18 802.8)" font-size="9" font-family="Wingdings"><tspan y="-169.7852" x="210.3752 210.1082">ll</tspan><tspan y="-170.0602" x="210.3752 210.1082">ll</tspan><tspan y="-169.9202" x="210.2402">l</tspan></text>
<text fill="#231f20" xml:space="preserve" transform="matrix(1 0 -0 1 -18 802.8)" font-size="10.5" font-family="Bookman"><tspan y="-169.9202" x="228.2402 236.3078 243.5249 248.3795 254.5256 264.7352 270.8813 276.5969 282.74299 292.95259 299.3087 302.67228 307.94587 318.15547 324.51158 328.72569 334.44129 339.2959 342.6595 349.0156 352.37919 357.65278 363.36839 369.51448 376.73158 383.51817 389.23377 396.45088 402.16648 407.88209 413.5977 418.87129 423.0854 429.23149 434.50508 438.07868 444.22477 449.07939 459.28898 464.56257 470.27818 476.42427 486.63386 493.42045 499.77656 505.49217 509.70628 514.97988 525.18948 528.55307 532.76718 538.91329 543.1274 546.49099">Chromosomal material condenses to form compact mitotic</tspan><tspan y="-157.2002" x="228.2402 233.78292 240.82712 245.50884 251.48204 261.51875 267.49195 273.03468 279.00788 289.0446 294.5873 300.13005 303.53074 307.58763 315.48234 322.52656 327.20826 333.18147 343.21818 349.19139 354.7341 360.7073 370.74403 376.28675 381.82948 385.88636 392.06956 396.75126 402.29399 406.35087 411.8936 417.4363 422.97904 430.02326 434.08015 438.12135 444.09455 448.15144 454.76515 460.30787 464.36476 469.90748 475.88069 485.9174 492.5311 498.5043 504.04704 509.58976 516.2035 520.2604 526.2336 529.6343 533.69119 537.73239 546.05758">chromosomes. Chromosomes are seen to be composed of two</tspan><tspan y="-144.7202" x="228.2402 233.63442 240.53012 245.06333 250.88803 260.77626 266.81095 270.70365 273.74586 280.21107 285.60527 288.00746 294.04216 297.93486 301.82756 307.86225 313.25645 320.15217 325.54637 332.01158 334.41377 338.30647 344.13117 349.73539 355.12959 359.02229 365.918 371.3122 375.8454 378.2476 384.2823 388.175 390.57719 394.46989 401.3656 406.7598 409.162 414.55619 419.95039 426.8461 430.7388 435.272 441.0967 450.98493 456.37913 460.91233 466.30653">chromatids attached together at the centromere.</tspan></text>
<text fill="#231f20" xml:space="preserve" transform="matrix(1 0 -0 1 -18 802.8)" font-size="9" font-family="Wingdings"><tspan y="-129.9452" x="210.3752 210.1082">ll</tspan><tspan y="-130.2152" x="210.3752 210.1082">ll</tspan><tspan y="-130.0802" x="210.2402">l</tspan></text>
<text fill="#231f20" xml:space="preserve" transform="matrix(1 0 -0 1 -18 802.8)" font-size="10.5" font-family="Bookman"><tspan y="-130.0802" x="228.2402 235.92781 241.26342 248.10051 251.93462 256.4092 262.17533 267.51094 273.27705 283.10664 288.44224 290.78584 298.90394 305.74104 308.72465 314.06025 320.89735 323.24095 330.07804 336.05415 342.46076 344.80436 351.85145 358.68855 365.09516 370.43077 374.90538 380.45097 386.21708 393.05418 398.38978 400.73338 407.13996 414.18705 420.59364 423.57725 426.56086 431.89646 437.87257 441.70668 444.69029 450.4564 457.2935 459.6371 466.0437 473.0908 477.5654 480.549 487.3861 492.9317 495.2753 498.2589 505.096 508.9301 514.2657 518.7403 525.1469 531.984 537.9601 543.29568 548.6312">Centrosome which had undergone duplication during interphase,</tspan><tspan y="-117.3602" x="228.2402 234.58531 239.85942 245.34354 248.26564 255.04125 260.31538 262.59748 266.3701 272.0747 274.3568 284.1249 289.82954 295.10365 300.37776 302.65986 306.43247 312.1371 320.1937 326.1083 330.52143 336.86656 342.14067 344.42277 350.12739 356.4725 362.81764 368.52226 373.79637 376.71849 380.4911 385.7652 388.0473 394.39244 400.09706 403.01918 408.29328 413.56739 415.8495 421.5541 424.68623 426.96833 430.74095 437.51655 442.79066 445.07276 450.34687 455.62098 458.5431 461.4652 464.59733 466.87944 474.29554 480.21015 485.48426 492.25987 494.54197 499.81608 505.09019 511.86579 515.63839 520.05148 525.75607 531.03018 536.73477 546.50289">begins to move towards opposite poles of the cell. Each centrosome</tspan><tspan y="-104.8802" x="228.2402 232.8963 239.05391 245.64202 248.80712 254.96472 258.98033 264.4974 270.0145 272.53959 278.48719 285.7158 289.73139 292.25648 302.26759 305.43269 310.94978 315.60588 321.55348 325.56907 332.79768 339.38578 346.61439 349.77949 355.29658 360.81367 363.33876 368.85585 375.01344 378.17854 381.34364 386.86073 393.44883 395.9739 402.1315 407.6486 411.66419 417.18128 421.83738 427.35447 430.72956 433.25465 439.84275 446.86134 452.37843 454.9035 458.9191 467.2187 473.1663 475.69139 481.84898 487.36607 491.38166 496.89875 501.55485 507.07194 509.59703 513.6126 519.5602 525.2873 530.8044 534.82 541.8386 547.3557">radiates out microtubules called asters. The two asters together</tspan><tspan y="-91.200199" x="228.2402 236.49312 239.61153 243.58043 250.55234 253.03075 258.50117 265.04258 268.16099 275.1329 281.67433 284.79273 290.26313 292.74153 296.06993 299.18833 305.72975 310.33915 315.80955 321.27995 323.75834 327.08674 332.98765 337.59706 347.56147 353.03187 355.51026 365.47468 368.59309 372.56199 378.4629 382.4318 385.5502 391.0206 393.499 399.6099 406.1513 412.69273 418.80363 423.41304 429.52394 433.49284 440.67475 446.14515">with spindle fibres forms mitotic apparatus.</tspan></text>
<path transform="matrix(.23999998,0,0,-.23999998,-18,802.8)" d="M327 2109.5H773V2905.5H327Z" fill="#fed8ae" fill-rule="evenodd"/>
<path transform="matrix(.23999998,0,0,-.23999998,-18,802.8)" stroke-width="4" stroke-linecap="butt" stroke-miterlimit="1000" stroke-linejoin="miter" fill="none" stroke="#fcbb76" d="M327 2109.5H773V2905.5H327Z"/>
<text fill="#231f20" xml:space="preserve" transform="matrix(1 0 -0 1 -18 802.8)" font-size="9.5" font-family="Bookman"><tspan y="-684.24" x="83.04 88.32 94.49809 101.83518 109.46068 116.607769 122.97585 128.76445 134.55304 142.17853 147.96712 152.3972 159.7343 166.49188 170.15247 175.94106">You have studied</tspan><tspan y="-672.72" x="83.04 92.11641 94.99882 98.65073 104.05064 109.06104 111.94345 116.95386 120.492969 123.375377 129.74428 133.28339 138.68329 145.0522 147.93462 153.33454 159.70345 163.24256 167.47397 172.87387 178.27378">mitosis in onion root</tspan><tspan y="-661.44" x="83.04 86.86929 89.929088 96.08588 100.885669 106.073459 111.261249 114.32104 117.38083 122.56862 125.818408 130.6182 135.41799 138.85778 142.68706 147.48685 154.03314 159.80043 164.98822 169.78801 175.9448">tip cells.  It has 16</tspan><tspan y="-649.92" x="83.04 88.820697 95.959888 100.96158 107.13177 116.978458 123.14864 128.92934 135.09954 144.94623 150.72692 156.5076 171.9 175.55269">chromosomes in</tspan><tspan y="-638.64" x="83.04 88.23359 94.00668 99.20027 105.752368 110.55796 115.75155 120.94514 124.01073 127.07632 130.33191 135.1375 139.94309 147.26468 153.03777 159.58986 164.39545 169.77904 175.36212">each cell.  Can you</tspan><tspan y="-627.12" x="83.04 87.46489 93.248279 96.90366 100.55905 116.154148 123.296039 129.46894 137.76982 153.3649 163.2143 169.57718 176.71907">tell how many</tspan><tspan y="-615.84" x="83.04 88.8264 95.9713 100.9787 107.1546 117.007 123.18291 128.9693 135.1452 144.9976 150.784 156.5704 163.4187 171.7226 175.381 179.0394">chromosomes will</tspan><tspan y="-604.32" x="83.04 87.0916 93.8602 99.2703 104.292407 109.70251 115.11261 118.39471 121.6768 126.698909 133.4675 139.45709 144.86719 150.27729 155.2994 161.28899 165.34059 170.3627">the cell have at G</tspan></text>
<text fill="#231f20" xml:space="preserve" transform="matrix(1 0 -0 1 -18 802.8)" font-size="5.5" font-family="Bookman"><tspan y="-601.2" x="178.56">1</tspan></text>
<text fill="#231f20" xml:space="preserve" transform="matrix(1 0 -0 1 -18 802.8)" font-size="9.5" font-family="Bookman"><tspan y="-593.04" x="83.04 89.02081 95.39112 100.98243 105.99424 111.00605 114.07986 117.03697 122.62828 125.70209 129.3554 134.3672 138.6 141.55713 147.92745 150.88457 156.86537 163.23569 168.827 173.8388 178.85062">phase, after S phase,</tspan><tspan y="-581.52" x="83.04 88.8349 95.4088 101.5932 106.4206 112.2155 115.4929 119.3498 124.5652 129.0016 133.82901 142.9109 147.73831 153.92272 160.49662 166.29152 171.50691 176.7223">and after M phase?</tspan><tspan y="-570.24" x="83.04 89.60301 92.489528 97.504039 102.90804 105.98455 108.62356 116.15557 122.52858 128.12259 131.7786 134.4176 141.94962 144.83612 147.72263 150.60913 153.24814 159.23165 164.24616 166.88516 170.54117 176.91419">Also, what will be the</tspan><tspan y="-558.72" x="83.04 91.0304 98.44131 105.272708 110.16761 115.45051 121.12291 127.76431 131.68872 136.97162 143.61302 147.53742 152.43231 158.1047 161.4496 166.3445 170.26889 176.9103">DNA content of the</tspan><tspan y="-547.44" x="83.04 88.4812 93.9224 97.2356 100.548809 105.990009 111.043209 117.0639 121.14661 126.19981">cells at G</tspan></text>
<text fill="#231f20" xml:space="preserve" transform="matrix(1 0 -0 1 -18 802.8)" font-size="5.5" font-family="Bookman"><tspan y="-544.32" x="134.4">1</tspan></text>
<text fill="#231f20" xml:space="preserve" transform="matrix(1 0 -0 1 -18 802.8)" font-size="9.5" font-family="Bookman"><tspan y="-547.44" x="138 141.53179 146.61357 152.66286 156.19464 160.30594 165.77573 170.46652 175.54831">, after S</tspan><tspan y="-535.92" x="83.04 89.4178 96.5746 103.3419 110.202098 116.579898 121.0197 127.87989">and at G</tspan></text>
<text fill="#231f20" xml:space="preserve" transform="matrix(1 0 -0 1 -18 802.8)" font-size="5.5" font-family="Bookman"><tspan y="-532.8" x="136.32">2</tspan></text>
<text fill="#231f20" xml:space="preserve" transform="matrix(1 0 -0 1 -18 802.8)" font-size="9.5" font-family="Bookman"><tspan y="-535.92" x="140.16 144.0186 150.9021 154.5707 158.42929 165.31279 169.75089 176.90598">, if the</tspan><tspan y="-524.64" x="83.04 88.82119 94.99188 102.13158 106.55427 112.33546 119.47514 123.897838 135.76583 142.12651 145.9697 150.39238 156.17357 161.17577 173.04375">content after M</tspan><tspan y="-513.12" x="83.04 89.0189 95.3873 100.9767 105.9866 110.996509 114.99341 117.875308 122.88521 126.88211 132.86101 139.9989">phase is 2C?</tspan></text>
<g clip-path="url(#clip_10)">
<text xml:space="preserve" transform="matrix(1 0 -0 1 259.314 763.9998)" font-size="8" font-family="Arial"><tspan y="6.316" x="0"> </tspan></text>
</g>
</g>
</svg>
