<svg xmlns="http://www.w3.org/2000/svg" xmlns:xlink="http://www.w3.org/1999/xlink" xmlns:inkscape="http://www.inkscape.org/namespaces/inkscape" version="1.1" width="571.68008" height="780.48007" viewBox="0 0 571.68008 780.48007">
<defs>
<clipPath id="clip_39">
<path transform="matrix(1,0,0,-1,-20.16,800.64)" d="M20.16 20.16H591.84V800.64H20.16Z" clip-rule="evenodd"/>
</clipPath>
<clipPath id="clip_40">
<path transform="matrix(1,0,0,-1,257.15403,766.8803)" d="M0-8H57.372V.800049H0Z"/>
</clipPath>
</defs>
<g clip-path="url(#clip_39)">
<path transform="matrix(.23999998,0,0,-.23999998,-20.16,800.64)" d="M2 2H2548V214.67H2Z" fill="#cbdf7f" fill-rule="evenodd"/>
<path transform="matrix(.23999998,0,0,-.23999998,-20.16,800.64)" stroke-width="4" stroke-linecap="butt" stroke-miterlimit="1000" stroke-linejoin="miter" fill="none" stroke="#cbdf7f" d="M2 2H2548V214.67H2Z"/>
<path transform="matrix(.23999998,0,0,-.23999998,-20.16,800.64)" d="M0 3035.83H2550V3372.7003H0Z" fill="#d1d3d4" fill-rule="evenodd"/>
<path transform="matrix(.23999998,0,0,-.23999998,-20.16,800.64)" d="M0 3078.33H2550V3420H0Z" fill="#e1ecb6" fill-rule="evenodd"/>
<path transform="matrix(.23999998,0,0,-.23999998,60.476163,51.47522)" d="M0 0C7.32 7.32 16.16 10.98 26.52 10.98H97.35C107.71 10.98 116.55 7.32 123.87 0 131.19-7.33 134.85-16.17 134.85-26.52V-101.52C134.85-111.88 131.19-120.72 123.87-128.04 116.55-135.36 107.71-139.02 97.35-139.02H26.52C16.16-139.02 7.32-135.36 0-128.04-7.32-120.72-10.98-111.88-10.98-101.52V-26.52C-10.98-16.17-7.32-7.33 0 0" fill="#ffffff" fill-rule="evenodd"/>
<text fill="#231f20" xml:space="preserve" transform="matrix(1 0 -0 1 -20.16 800.64)" font-size="11" font-family="Bookman"><tspan y="-729.361" x="87.12 94.409999 101.69999">162</tspan></text>
<text fill="#231f20" xml:space="preserve" transform="matrix(1 0 -0 1 -20.16 800.64)" font-size="11" font-family="Bookman"><tspan y="-729.361" x="513.12">B</tspan></text>
<text fill="#231f20" xml:space="preserve" transform="matrix(1 0 -0 1 -20.16 800.64)" font-size="7.69999" font-family="Bookman"><tspan y="-729.361" x="521.04 523.4336 529.3692 533.76486 539.70046 545.63607">IOLOGY</tspan></text>
<path transform="matrix(.23999998,0,0,-.23999998,-20.16,-1.7999878)" stroke-width="1" stroke-linecap="butt" stroke-miterlimit="10" stroke-linejoin="miter" fill="none" stroke="#000000" d="M0 0H60"/>
<path transform="matrix(.23999998,0,0,-.23999998,-2.039999,-20.159974)" stroke-width="1" stroke-linecap="butt" stroke-miterlimit="10" stroke-linejoin="miter" fill="none" stroke="#000000" d="M0 0V-60"/>
<path transform="matrix(.23999998,0,0,-.23999998,-20.16,782.52)" stroke-width="1" stroke-linecap="butt" stroke-miterlimit="10" stroke-linejoin="miter" fill="none" stroke="#000000" d="M0 0H60"/>
<path transform="matrix(.23999998,0,0,-.23999998,-2.039999,786)" stroke-width="1" stroke-linecap="butt" stroke-miterlimit="10" stroke-linejoin="miter" fill="none" stroke="#000000" d="M0 0V-60"/>
<path transform="matrix(.23999998,0,0,-.23999998,591.48007,782.4)" stroke-width="1" stroke-linecap="butt" stroke-miterlimit="10" stroke-linejoin="miter" fill="none" stroke="#000000" d="M0 0V-75"/>
<text fill="#231f20" xml:space="preserve" transform="matrix(1 0 -0 1 -20.16 800.64)" font-size="10.5" font-family="Bookman"><tspan y="-690.241" x="210 217.7603 223.6306 231.8109 234.32231 237.46262 242.91292 246.89322 249.40464 256.53495 261.98524 264.49665 267.00807 272.45835 278.32865 288.18894 294.68925 300.76954 305.37983 310.8301 313.34153 315.85295 319.20326 324.65354 329.26383 339.1241 344.5744 351.4947 355.47499 361.55528 365.53556 368.67585 374.54615 381.46644 383.97785 390.05815 396.97843 403.47874 405.99015 412.07044 417.52073 422.131 428.0013 434.50163 437.6419 443.0922 445.6036 450.2139 455.66419 461.11448 467.61479 470.75508 475.36537 481.44566 485.42594 488.56623 494.43653 501.3568">Now let us  compare  fermentation and aerobic respiration:</tspan></text>
<text fill="#231f20" xml:space="preserve" transform="matrix(1 0 -0 1 -20.16 800.64)" font-size="14" font-family="Bookman"><tspan y="-672" x="210">&#x2022;</tspan></text>
<text fill="#231f20" xml:space="preserve" transform="matrix(1 0 -0 1 -20.16 800.64)" font-size="10.5" font-family="Bookman"><tspan y="-672" x="222 228.7197 234.1794 238.7991 248.66881 254.12851 261.0582 265.0479 271.1376 275.12733 278.277 284.1567 291.0864 295.4836 301.5733 307.033 312.49269 318.37239 325.5121 332.44178 336.43147 341.89115 346.28837 349.64808 355.52778 360.14747 364.54469 370.42439 377.35408 380.50376 386.17347 390.57069 396.66038 401.0576 407.5673 413.65699 418.27668 422.26637 425.41606 431.50575 434.65544 439.05265 445.56236 450.18205 455.64173 461.7314 468.24113 474.75083 480.63053 488.82023 495.7499 500.14714 506.02684 509.38655 513.7837 519.45339 522.6031 529.7428 535.2025 541.0822 546.54196">Fermentation accounts for only a partial breakdown of glucose</tspan><tspan y="-657.841" x="222 230.0807 236.90142 242.25212 246.76284 252.11354 258.09425 263.44496 265.85676 268.89747 275.71818 278.12998 284.1107 289.4614 293.9721 299.74284 306.14353 309.18424 314.53495 316.94676 321.45747 326.80818 332.15888 338.55958 341.60029 346.111 352.0917 355.9724 359.01313 364.78385 371.60456 374.01637 377.05708 380.93778 383.34959 386.3903 391.741 394.1528 399.5035 405.27424 415.03495 421.43565 424.47636 429.82707 433.70777 439.05848 442.09919 447.65989 450.0717 456.47239 461.8231 467.3838 471.8945 477.8752 484.2759 489.62663 496.0273 498.43913 502.31983 508.09056 510.50236 518.1631">whereas in aerobic respiration it is completely degraded to CO</tspan></text>
<text fill="#231f20" xml:space="preserve" transform="matrix(1 0 -0 1 -20.16 800.64)" font-size="6.1" font-family="Bookman"><tspan y="-654.241" x="526.56">2</tspan></text>
<text fill="#231f20" xml:space="preserve" transform="matrix(1 0 -0 1 -20.16 800.64)" font-size="10.5" font-family="Bookman"><tspan y="-657.841" x="530.4 532.76339 538.70669 545.49"> and</tspan><tspan y="-643.681" x="222">H</tspan></text>
<text fill="#231f20" xml:space="preserve" transform="matrix(1 0 -0 1 -20.16 800.64)" font-size="6.1" font-family="Bookman"><tspan y="-640.321" x="230.16">2</tspan></text>
<text fill="#231f20" xml:space="preserve" transform="matrix(1 0 -0 1 -20.16 800.64)" font-size="10.5" font-family="Bookman"><tspan y="-643.681" x="233.76 241.92">O.</tspan></text>
<text fill="#231f20" xml:space="preserve" transform="matrix(1 0 -0 1 -20.16 800.64)" font-size="14" font-family="Bookman"><tspan y="-623.521" x="210">&#x2022;</tspan></text>
<text fill="#231f20" xml:space="preserve" transform="matrix(1 0 -0 1 -20.16 800.64)" font-size="10.5" font-family="Bookman"><tspan y="-623.521" x="222 225.546 232.45201 234.94962 238.28562 243.72162 248.31761 258.1636 263.5996 270.5056 274.47163 280.53764 284.50364 287.62965 293.48564 300.39164 302.88926 306.85527 313.76127 319.19728 323.79328 329.22929 331.7269 334.8529 340.2889 342.78654 348.85255 351.35017 358.25617 363.69218 367.65818 370.1558 375.8018 381.8678 384.9938 391.8998 394.39744 400.25343 403.58943 406.08705 411.94303 418.84904 421.97505 427.62104 430.11866 434.08467 442.25068 448.10667 450.60429 460.4503 466.30628 469.43229 474.8683 480.3043 487.4203 490.5463 495.9823 501.4183 503.91593 509.7719 513.1079 515.6055 522.72158 529.2076 535.6936 538.1912 541.5272 547.38327">In fermentation there is a net gain of only two molecules of ATP for</tspan><tspan y="-609.361" x="222 227.4559 233.54181 238.99771 245.92362 248.87401 258.7399 264.61579 267.7617 273.2176 278.6735 285.8094 288.9553 294.4112 297.3616 303.2375 306.59339 309.5438 315.2097 318.3556 325.4915 330.9474 336.8233 342.2792 347.7351 350.68553 357.1914 362.6473 368.3132 372.9291 379.015 385.5209 390.9768 397.4827 400.4331 404.419 410.29493 413.24534 419.75123 425.4171 430.03303 437.1689 442.62483 445.77073 451.22663 454.17704 460.26295 465.71885 468.86476 475.37065 478.32106 486.50697 493.43287 498.88877 503.50468 508.96058 515.04647 520.5023 523.4527 533.3186 539.4045 546.3304">each molecule of glucose degraded to pyruvic acid whereas many</tspan><tspan y="-595.2" x="222 231.867 237.744 242.36101 247.81801 250.4438 260.3108 266.1878 269.3348 274.7918 280.2488 287.3858 290.5328 295.9898 301.4468 304.0726 309.94963 313.3066 315.9324 323.0694 329.5764 336.08338 338.70918 344.79618 349.41319 354.87019 357.49598 363.16297 368.61997 375.54698 381.00398 385.62098 391.70799 395.69499 401.15199 407.65898 410.28477 417.42176 424.34877 430.85575 436.31275 440.92976 443.55555 449.64256 455.09956 459.71656 465.59358 472.10057 475.24757 480.70457 483.33036 488.78736 494.66438 501.59138 508.09837 511.24537 515.23239 518.37936 524.25637 531.18338 536.6404">more molecules of ATP are generated under aerobic conditions.</tspan></text>
<text fill="#231f20" xml:space="preserve" transform="matrix(1 0 -0 1 -20.16 800.64)" font-size="14" font-family="Bookman"><tspan y="-575.041" x="210">&#x2022;</tspan></text>
<text fill="#231f20" xml:space="preserve" transform="matrix(1 0 -0 1 -20.16 800.64)" font-size="10.5" font-family="Bookman"><tspan y="-575.041" x="222 229.76361 236.89722 245.29084 253.68445 256.63807 259.78169 265.2353 268.1889 274.0625 279.9361 283.0797 289.5833 292.72694 298.18055 303.63417 310.13777 313.09138 317.07499 322.94859 325.9022 333.6658 340.7994">NADH is oxidised to NAD</tspan></text>
<text fill="#231f20" xml:space="preserve" transform="matrix(1 0 -0 1 -20.16 800.64)" font-size="6.1" font-family="Bookman"><tspan y="-578.4" x="349.2">+</tspan></text>
<text fill="#231f20" xml:space="preserve" transform="matrix(1 0 -0 1 -20.16 800.64)" font-size="10.5" font-family="Bookman"><tspan y="-575.041" x="353.04 355.97685 360.59364 366.68043 370.6672 377.594 383.05079 387.66758 390.6044 396.0612 399.20799 405.08479 413.27159 416.41838 422.08518 425.022 428.1688 435.09559 438.0324 441.38923 446.846 451.4628 461.3296 466.78639 473.71318 477.69996 483.78675 487.77354 490.92033 496.79713 503.7239 507.08073 510.01756 516.94436 522.8211 531.00796 536.4647 541.9215 547.3783"> rather slowly in fermentation, however</tspan><tspan y="-560.641" x="222 225.97281 232.88562 238.32843 240.83235 245.43517 250.87798 256.95079 262.3936 266.3664 269.4992 275.36204 282.27485 284.77876 287.91157 293.35438 295.85829 301.3011 306.7439 311.3467 316.9995 319.50343 324.94624 328.07905 333.73185 339.59468 344.19749 350.0603 357.1831 362.62593 365.12983 368.26264 375.17546 377.67936 383.12217 389.19499 394.6378 400.0806 402.5845 408.44734 411.79014 414.29405 420.36686 425.80967 430.41249 436.2753 442.7681 445.9009 451.34373 453.84764 458.45045 463.89326 469.33607 475.82887 478.96168 483.56449 489.6373 493.6101 496.74293 502.60575 509.51856">the reaction is very vigorous in case of aerobic respiration.</tspan></text>
<text fill="#00aeef" xml:space="preserve" transform="matrix(1 0 -0 1 -20.16 800.64)" font-size="13" font-family="Bookman"><tspan y="-529.681" x="192 200.2869 208.57379 212.7007 234">12.6A</tspan></text>
<text fill="#00aeef" xml:space="preserve" transform="matrix(1 0 -0 1 -20.16 800.64)" font-size="9.1" font-family="Bookman"><tspan y="-529.681" x="243.36 252.0631 258.2182 265.82929 269.61839 276.31947 283.74855 289.72163 293.5107">MPHIBOLIC</tspan></text>
<text fill="#00aeef" xml:space="preserve" transform="matrix(1 0 -0 1 -20.16 800.64)" font-size="13" font-family="Bookman"><tspan y="-529.681" x="300.24 304.1406"> P</tspan></text>
<text fill="#00aeef" xml:space="preserve" transform="matrix(1 0 -0 1 -20.16 800.64)" font-size="9.1" font-family="Bookman"><tspan y="-529.681" x="312.72 319.3007 325.6994 333.1901 341.7728 348.3535">ATHWAY</tspan></text>
<text fill="#231f20" xml:space="preserve" transform="matrix(1 0 -0 1 -20.16 800.64)" font-size="10.5" font-family="Bookman"><tspan y="-507.361" x="192 200.3943 203.5386 210.6729 216.1272 222.0015 227.4558 232.9101 235.42938 238.57369 244.02799 246.54727 250.53157 257.45588 262.9102 265.4295 268.7838 274.8681 280.32243 286.19673 293.33103 297.9453 303.39964 309.90394 312.42326 317.87757 325.01188 331.51618 336.9705 340.9548 345.5691 351.65339 355.6377 361.092 363.61134 366.96565 372.83995 377.45423 379.97355 384.58784 390.04216 395.49647 402.00077 405.14506 409.75935 415.84364 419.82795 422.97224 428.84654 435.7708 439.12513 441.64445 444.16377 451.29808 454.44236 457.58665 460.10597 465.56028 471.64457 476.25886 482.76316 488.63746 495.56175 501.22605 507.73036 512.34469 518.42898 522.41329 527.86758 533.32186 535.8411 541.9254 546.53976">Glucose is the favoured substrate for respiration.  All carbohydrates are</tspan><tspan y="-493.921" x="192 199.1368 204.5936 211.7304 217.8172 220.964 224.11081 229.7776 232.4494 235.8062 238.953 243.56981 249.02661 253.01342 255.68521 261.142 267.0188 273.9456 279.40238 284.85917 289.47596 293.46275 298.91954 305.42634 308.09815 311.24494 318.17173 322.1585 328.0353 330.70713 336.37394 339.52073 346.65754 352.11433 357.99113 363.4479 368.9047 371.5765 378.0833 383.5401 386.8969 392.7737 397.3905 402.8473 405.5191 409.5059 416.43269 421.88948 427.55628 430.2281 436.31489 440.93168 446.38847 449.06028 456.19709 461.65388 467.11067 473.61747 476.28929 479.6461 485.5229 490.13969 492.8115 497.42829 502.88508 508.34187 514.84866 517.9954 522.61227 528.69906 532.68588 535.83267 541.7094 548.6362">usually first converted into glucose before they are used for respiration.</tspan><tspan y="-480.241" x="192 200.27011 204.13022 210.93033 216.26044 220.75055 223.14435 228.47446 235.48458 241.86469 247.1948 251.0549 255.54502 261.50514 265.36524 270.69535 276.02546 278.41926 283.74937 289.70948 296.50959 298.90339 304.8635 307.8836 313.2137 318.96385 321.35765 327.73774 333.06785 335.46165 340.08 345.41999 350.75999 357.15 360.18 364.56 369.8966 376.2832 379.5198 381.9201 387.88673 393.22334 395.62364 402.43025 408.39686 413.73347 416.13377 422.52037 427.85697 433.19358 440.00019 442.40049 452.1471 457.4837 464.2903 468.15693 471.18354 476.94017 483.74678 489.08338 495.46998 497.87028 503.20689 509.1735 513.6701 516.6967 519.7233 525.05996 528.96 532.19918 534.602 540.9911 548.0102">Other substrates can also be respired, as has been mentioned earlier, but</tspan><tspan y="-466.561" x="192 195.82811 202.59622 207.89434 214.66245 217.02216 220.85027 227.61838 232.91649 238.42459 240.7843 247.13242 252.85053 255.21025 261.97837 267.69648 271.5246 273.88435 279.18244 285.95054 289.77867 295.07676 299.53486 301.8946 305.72273 312.4908 317.7889 320.14866 324.60676 329.90486 335.20295 341.55107 344.53916 348.99726 354.92536 358.75349 364.4716 368.9297 374.4378 376.79756 383.14567 389.07377 392.9019 399.66999 407.6981 413.6262 419.1343 421.49406 427.42216 431.25028 433.61003 437.43815 444.20625 449.50434 451.86408 455.0622 458.0503 462.5084 467.8065 471.6346 473.99436 479.29246 483.12059 488.41868 494.76679 497.9649 500.32466 507.09275 512.39089 517.68899 520.0487 526.6068 529.5949 535.103 542.0811 546.53927">then they do not enter the respiratory pathway at the first step. See Figure</tspan><tspan y="-453.121" x="192 198.50711 205.01422 208.37134 214.87845 218.04807 222.03517 227.91228 231.0819 236.539 241.99611 247.45322 250.62284 254.60994 261.53706 266.99418 270.1638 276.6709 282.548 285.69514 292.62226 296.60939 302.0665 305.2361 311.11323 314.47035 317.63996 323.09709 330.0242 334.01133 338.62843 344.29554 347.46516 353.34226 356.69938 359.869 366.3761 369.5232 372.8803 376.23744 381.69456 386.31166 391.76878 398.6959 402.683 405.85264 411.30976 418.44688 424.95399 430.4111 434.39823 439.01533 445.10243 449.08955 454.54667 460.00379 463.1734 466.3205 473.24763 476.41725 480.40437 487.33149 492.7886 495.95823 500.57533 506.03245 511.48957 517.99667 521.14376 525.76089 531.84799 535.8351 541.7122 546.32937">12.6 to see the points of entry of different substrates in the respiratory</tspan><tspan y="-439.441" x="192 198.39511 204.37023 208.24533 215.06044 223.13555 229.11066 234.66577 237.91089 240.31851 246.92362 252.89873 256.77384 262.11897 264.52659 272.60169 278.3668 285.3919 288.427 294.8221 297.22975 304.04487 309.38999 314.7351 321.13023 323.53785 327.41297 333.17808 335.5857 341.9808 347.32594 349.73356 356.12867 360.63377 366.39888 372.79399 378.1391 384.95423 387.36186 393.75697 399.52207 407.59718 414.4123 416.81993 419.855 426.67015 430.54527 436.31037 438.718 444.2731 447.3082 452.8633 458.20845 463.55357 468.05867 473.82377 476.85887 479.26649 485.24159 492.0567 498.4518 500.85945 504.10456 510.07966 513.9548 517.8299 523.385 525.79269 531.76779 537.11288 540.14797 546.543">pathway. Fats would need to be broken down into glycerol and fatty acids</tspan><tspan y="-425.761" x="192 195.35442 198.49883 203.11324 208.56764 212.55205 215.90647 219.76467 223.32907 226.68349 230.54169 233.8961 239.98052 243.96492 247.94933 253.61374 257.47193 263.55635 269.01075 272.15516 278.65959 284.11399 287.97218 296.1566 301.611 306.2254 311.6798 315.538 319.5224 325.39683 329.255 335.75944 341.21385 345.07203 349.68644 355.14085 360.59526 367.09968 370.24409 374.8585 380.3129 386.81733 390.6755 394.6599 401.58433 407.03874 412.70314 416.5613 424.74574 430.62016 437.75456 440.89897 447.40339 451.26158 454.61598 457.76039 462.3748 467.8292 471.8136 475.67179 482.1762 487.6306 491.4888 497.99324 503.44764 509.11204 513.72647 519.81088 526.31527 531.76968 538.27407 542.13229 546.1167">first. If fatty acids were to be respired they would first be degraded to</tspan><tspan y="-412.321" x="192 198.08951 203.54901 209.00852 212.99802 218.66751 221.81702 225.9415 233.711 239.5905 246.73 250.85448 256.94398 263.87348 270.38298 274.50746 279.96696 286.89646 290.88597 296.34547 300.96498 305.08946 309.07896 316.00846 321.46797 325.59245 332.10194 338.19145 342.18095 349.11045 357.29997 363.38948 369.05897 372.41847 376.54295 384.94245 388.09196 393.76145 399.22096 404.68046 409.29997 415.17945 418.32896 422.45344 430.64295 436.52244 443.66194 446.81144 453.32093 457.4454 462.9049 469.8344 473.8239 479.28343 483.90293 488.0274 492.0169 498.9464 504.4059 508.5304 515.0399 521.1294 525.1189 532.0484 540.2379 546.3274">acetyl CoA and enter the pathway. Glycerol would enter the pathway</tspan><tspan y="-398.641" x="192 198.1584 201.5868 205.6452 211.1736 215.862 220.96541 227.54381 233.0722 236.2906 243.289 249.0274 254.13082 259.6592 265.6076 272.60603 278.13444 283.66285 288.35127 292.40968 297.93809 304.51649 309.61988 313.67829 319.62669 324.73008 331.30848 339.7769 346.9853 353.3537 356.7821 361.8855 368.4639 375.4623 380.99073 386.09413 392.67253 397.3609 403.3093 407.3677 412.89613 416.11454 423.11296 428.64137 433.74476 442.00315 447.95155 455.15995 458.37837 464.95677 470.06016 476.63856 482.16697 487.27037 493.84877 499.37718 505.11558 509.80397 515.96237 522.5408 528.06918 534.6476 539.751 546.3294">after being converted to PGAL. The proteins would be degraded by</tspan><tspan y="-384.961" x="192 198.48322 203.07643 208.92964 212.89286 218.32607 224.38928 229.8225 235.2557 240.68892 243.18463 249.24785 256.15107 262.63429 265.13 269.0932 275.9964 281.4296 283.92533 287.04853 293.95173 300.43495 303.55815 308.99134 312.11454 318.59776 325.71098 331.77418 334.89738 337.3931 343.4563 353.2995 356.4227 363.3259 369.1791 371.67485 377.73805 383.17124 386.29444 392.77766 398.21086 400.70658 403.82978 409.89299 413.2262 417.1894 422.6226 427.2158 429.71153 436.19474 441.62794 447.69114 457.53434 460.65754 467.56074 473.62394 477.58714 480.71034 486.56355 493.46675 496.58995 499.08567 505.56889 511.00209 517.4853 522.9185 529.8217 536.30496 539.42819 546.33139">proteases and the individual amino acids (after deamination) depending</tspan><tspan y="-371.521" x="192 197.656 204.36202 206.66054 210.42655 217.13256 222.36856 225.29457 229.69058 231.9891 237.22512 240.99112 245.38713 252.30315 257.53916 261.30519 268.2212 272.6172 277.8532 280.15174 288.11775 293.77375 300.68977 303.61579 309.9018 312.20033 317.43635 324.14237 327.9084 333.1444 337.5404 339.83894 343.60496 350.31098 355.547 357.84553 364.13154 369.99754 373.76356 380.46958 388.43559 394.30158 399.7476 402.0461 407.9121 411.67814 413.97666 419.21269 424.86869 434.51469 439.7507 442.04924 447.28526 451.05128 456.91728 462.36329 467.5993 469.89784 477.86384 480.78987 484.55589 491.2619 494.18794 500.89396 503.19248 506.9585 513.6645 518.9005 521.19906 528.53506 532.931 538.16708 544.45309 549.6891">on their structure would enter the pathway at some stage within the Krebs&#x2019;</tspan><tspan y="-357.841" x="192 197.4544 203.11882 208.57323 211.71764 217.17205 219.87647 225.75087 230.36528 233.0697 238.52411 243.97852 249.43292 256.35734 259.06175 265.14616 270.60057 273.30497 279.8094 285.4738 290.0882 297.2226 302.677 308.7614 312.74583 318.20024 320.90464 326.77906 331.39347 334.09788 340.18229 345.6367 351.0911 355.0755 360.7399 363.8843 366.5887 374.35313 380.22755 387.36195">cycle or even as pyruvate or acetyl CoA.</tspan><tspan y="-344.161" x="210 216.8226 219.8652 226.6878 232.0404 237.393 241.3456 245.8582 251.2108 256.56343 262.966 266.0086 270.5212 276.5038 280.3864 283.42903 289.20164 296.02424 299.9768 303.0194 309.842 315.1946 320.96723 324.00984 329.36244 334.71504 340.06764 344.0202 350.4228 354.9354 360.288 366.2706 372.6732 379.07579 384.8484 392.931 399.7536 403.70619 409.4788 412.73139 416.68397 422.03657 429.06916 435.47175 440.82435 444.70695 449.21955 455.20216 459.08476 464.43736 469.78996 473.04255 476.99513 480.87773 487.70033 493.05293 497.0055 501.5181 506.8707 512.2233 518.6259 521.6685 526.1811 532.1637 536.0463 541.8189 546.3315">Since respiration involves breakdown of substrates, the respiratory</tspan><tspan y="-330.721" x="192 198.4031 202.91622 208.68932 214.04242 219.39553 224.74863 230.10173 234.56594 241.38904 247.37213 252.72524 257.18943 261.0725 265.5856 271.5687 277.9718 281.0149 284.89799 287.94108 293.71418 300.53727 306.52037 309.56346 312.60655 318.16966 322.63386 329.03697 334.39006 339.74314 346.56623 351.03044 356.3835 362.15663 368.9797 374.3328 377.3759 383.779 389.13209 393.64518 398.99827 405.40138 409.86558 415.84867 420.31288 425.66596 431.64906 435.53215 441.51524 447.91835 453.69145 456.73454 459.77763 465.1307 469.5949 475.99803 480.5111 486.2842 491.6373 496.9904 502.34349 507.69657 512.16079 518.14389 524.967 531.37008 535.8343 539.7174 546.5405">process has traditionally been considered a catabolic process and the</tspan><tspan y="-317.041" x="192 196.51392 201.86783 207.22174 213.62566 216.66957 221.18349 227.1674 231.05132 236.82523 241.33914 246.90305 250.30695 256.71086 262.69477 266.57868 273.4026 281.4865 287.47044 293.03434 296.43824 302.42216 307.77607 311.17997 317.16389 320.56779 325.9217 331.9056 335.78953 341.77345 348.17735 353.95124 356.99516 360.03907 365.39299 368.79689 375.20079 381.1847 385.0686 391.89253 399.97645 405.96037 411.52427 414.77818 418.18208 421.58598 429.24989 436.28379 440.1677 443.5716 446.6155 451.96943 455.37333 459.25724 466.08116 469.12507 474.47898 477.88288 484.91679 491.7407 498.1446 503.4985 508.01243 513.36636 517.25027 523.23416 530.05807 536.462 539.50588 546.3298">respiratory pathway as a catabolic pathway.  But is this understanding</tspan><tspan y="-303.361" x="192 197.32 203.06002 207.54003 212.16 217.4967 222.8334 226.7001 232.24681 236.4835 240.7202 250.08 255.32 259.68 266.615 272.71 278.175 283.63999 288 294.3979 297.4358 302.7837 308.1316 315.1595 320.5074 325.8553 331.2032 337.60108 341.84898 347.82688 354.22477 359.99269 365.34059 370.8">correct?  We have discussed above,</tspan><tspan y="-303.3606" x="374.1602 378.43009 384.4134 388.2967 392.5666 400.6499 407.4732 410.5165 415.8698 422.6931 426.963 433.3663 439.1396 442.1829 449.0062 452.8895 458.2428 462.5127 465.556 472.3793 476.6492 480.5325 487.3558 492.7091 496.979 501.6002 506.9435 512.2868 518.6801 521.71347 526.21676 532.19009 536.06338 541.82669 546.32998"> at which points in the respiratory</tspan><tspan y="-289.9206" x="192.00019 198.40198 204.38378 208.26558 215.08737 223.16918 229.15097 234.71277 237.73278 244.13457 247.17636 250.42816 253.67996 259.03178 263.54359 268.8954 275.7172 279.599 282.61903 287.97084 295.00263 301.40443 306.75624 310.63804 315.14985 321.13166 325.01347 330.36528 335.71708 338.7371 346.81889 352.59068 359.62248 362.66429 369.06608 372.0861 377.4379 384.2597 388.1415 393.49333 398.00514 401.02516 404.06697 407.31877 410.33879 414.22059 421.0424 426.3942 431.956 434.976 443.0578 448.4096 452.92143 458.27323 461.29325 465.17506 470.94685 473.96687 480.36866 485.72047 488.74049 493.2523 498.6041 503.9559 510.3577 513.3995 517.91128 523.26309 529.66488 532.6848 538.6666 545.4884">pathway different substrates would enter if they were to be respired and</tspan><tspan y="-276.2406" x="192.00019 198.92998 204.17978 209.42958 215.72939 218.04798 221.82778 227.49758 229.81616 236.11597 241.36577 245.77558 248.71538 253.96518 259.21498 261.53358 266.78337 273.50315 278.75294 283.16273 288.62254 294.08235 297.23216 299.55076 309.42057 316.14036 322.02015 325.79994 328.11854 331.05833 336.3081 338.6267 341.5665 351.2263 357.5261 363.1959 367.60569 371.38548 377.26527 383.98506 387.76484 390.08345 393.86323 399.53303 401.85163 406.2614 411.5112 416.761 422.4308 427.8906 434.61039 437.5202 442.80018 448.05058 450.3594 453.2998 458.5502 460.85905 464.63945 471.35984 477.24024 481.02064 483.32948 486.26988 490.05027 492.3591 495.2995 500.5499 502.85874 506.63914 513.35958 518.61 523.8604 529.11087 531.4196 536.67007 541.9205 546.3309">used to derive energy. What is important to recognise is that it is these very</tspan><tspan y="-262.5606" x="192.00019 197.26859 202.95699 212.63539 218.9538 224.6422 231.59059 238.329 244.6474 249.9158 252.24919 256.04759 262.78599 268.6844 272.4828 274.8162 282.8146 288.503 295.4514 298.4098 304.72819 307.06159 313.37998 318.64839 320.98179 328.9802 331.9386 335.737 342.4754 348.7938 353.2222 359.1206 367.11903 373.85743 376.19084 379.35923 383.78764 389.476 399.15443 401.48783 405.28623 412.02464 417.29304 419.62644 424.05485 429.32325 434.59165 440.91004 443.86845 448.29685 454.19526 457.99366 463.68208 468.11048 473.58888 475.92228 482.24067 488.13908 491.93748 498.67588 506.6743 512.5727 518.0511 520.38449 523.55288 529.2413 533.6697 536.00308 539.80148 546.53988">compounds that would be withdrawn from the respiratory pathway for the</tspan><tspan y="-249.1206" x="192.00019 197.29709 202.80399 209.57089 213.3978 220.1647 225.46161 230.75852 233.7454 239.04232 241.40291 247.11981 250.31671 252.6773 256.5042 263.27113 268.56803 270.92863 276.22554 282.15245 285.13935 291.48625 293.84684 299.14375 306.12065 312.46754 317.76445 321.59135 326.04826 331.97517 335.80207 341.09898 346.39588 349.59278 351.95338 360.19029 365.48719 372.2541 377.551 382.8479 386.0448 388.4054 391.6023 397.5292 401.3561 405.183 410.6899 413.0505 418.97743 424.27433 427.26124 433.60813 438.90504 441.26564 449.2925 455.0094 461.9863 464.9732 471.3201 473.6807 480.0276 485.3245 487.6851 494.03199 498.4889 504.20579 510.55268 515.84957 522.61648 524.97708 531.324 537.0409 545.0678">synthesis of the said substrates. Hence, fatty acids would be broken down</tspan><tspan y="-235.44062" x="192.00019 195.87859 201.64699 204.05699 210.03539 215.38379 220.7322 224.6106 230.16899 233.2074 235.6174 243.2758 249.0442 256.0726 258.48265 264.88105 270.22944 273.47785 279.24626 283.75465 289.10304 291.51307 296.86146 303.67985 307.55824 312.90663 317.415 320.4534 327.2718 332.8302 335.24024 339.11863 345.937 351.2854 353.69544 358.20384 363.55223 368.9006 375.299 378.3374 382.8458 388.8242 392.70259 398.47099 402.97938 408.53779 410.9478 417.34623 423.32463 427.203 434.0214 442.0998 448.0782 453.6366 456.04664 464.12504 470.94343 476.2918 483.1102 485.52024 488.55863 492.437 494.84706 497.88545 503.23384 505.64387 512.67227 518.0206 523.369 529.7674 532.1774 538.1558 543.5042 545.91427">to acetyl CoA before entering the respiratory pathway when it is used as a</tspan><tspan y="-221.76059" x="192.00019 197.35349 204.38678 210.79009 216.14339 220.02669 224.54 230.5233 234.4066 239.7599 243.0132 245.7451 253.4084 260.4417 264.325 267.05693 275.14024 281.96354 287.31684 294.14015 296.87205 300.75535 307.57865 312.93196 315.66386 321.43714 325.95045 331.51374 337.49705 344.32035 347.36366 352.71696 362.48027 365.21217 372.03547 377.38877 382.74208 389.14537 394.49867 397.23057 401.11387 406.88716 409.61906 414.97236 420.53565 427.35896 431.24226 438.06556 443.41886 448.77217 451.92018 457.2002 462.5557 465.2779 468.5334 474.5189 478.4044 482.2899 487.85539 490.57759 496.56309 501.91859 504.96409 511.36958 516.7251 519.9806 522.7028 528.6883 534.0438 539.39938 543.28488 548.85037">substrate. But when the organism needs to synthesise fatty acids, acetyl</tspan><tspan y="-208.32059" x="192.00019 199.66359 205.437 212.47042 215.41883 223.50223 229.27564 236.30905 239.35247 245.75588 248.70429 255.1077 260.46113 263.40956 271.49296 274.53636 278.41978 285.2432 291.6466 296.16 302.1434 310.2268 317.05024 319.99867 323.25209 327.76548 333.53889 343.30229 346.2507 350.13414 356.95756 362.31098 365.2594 369.7728 375.12623 380.47966 386.88307 389.92646 394.43986 400.42326 404.30668 410.08009 414.59349 420.1569 423.10533 429.50874 435.49214 439.37556 446.19898 454.28239 460.26579 465.8292 468.77763 472.03105 477.80445 482.31785 485.26628 488.30967 492.19309 495.4465 498.39494 506.68833 512.04177 518.8652 524.21859 529.4402 532.8002 535.7469 539.6736 546.5403">CoA would be withdrawn from the respiratory pathway for it. Hence, the</tspan><tspan y="-194.6406" x="192.00019 196.5138 201.8674 207.22101 213.62462 216.66823 221.18184 227.16545 231.04906 236.82266 241.33628 246.89989 250.04242 256.44606 262.42967 266.31327 273.13688 281.2205 287.2041 292.7677 295.91023 301.26383 307.03746 316.80107 322.15467 327.50828 330.6508 333.6944 340.518 344.4016 350.17524 353.31776 357.20137 364.02497 369.37858 372.5211 378.92469 381.9683 387.3219 391.2055 398.2391 402.75273 408.10633 411.24885 417.65248 423.4261 427.3097 434.1333 437.27583 443.67945 450.71305 455.22666 458.27027 465.09388 470.65748 473.8 480.2036 484.71723 490.07084 496.05445 502.45808 508.8617 514.6353 522.71896 529.54257 532.68508 538.66867 545.49227">respiratory pathway comes into the picture both during breakdown and</tspan><tspan y="-180.9606" x="192.00019 197.3514 202.9126 209.73381 213.61502 220.43624 225.78745 231.13866 234.17987 239.53108 243.78229 249.5535 252.8047 257.0559 260.30714 266.28834 270.16957 274.05079 279.612 283.86323 289.84443 295.19563 298.23683 304.63804 309.98924 313.24046 317.49168 324.31288 327.35408 337.11528 340.15647 343.19767 349.17887 353.69007 356.73127 362.40019 365.7602 370.02079 376.4214 383.452 387.9626 391.00318 397.82377 403.38438 407.64497 414.04557 418.55616 423.90675 429.88734 436.28794 442.68855 448.45915 456.53974 463.36033 467.6209 473.6015 480.4221 486.8227 491.08329 496.43388 501.99449 508.81507 512.6957 519.5163 524.8669 530.21749 533.25808 538.60867 542.86929 548.6399">synthesis of fatty acids. Similarly, during breakdown and synthesis of</tspan><tspan y="-167.52063" x="192.00019 198.52448 203.15877 209.05306 213.05735 218.53163 221.69593 228.64022 233.6895 237.69379 243.58808 249.48236 252.85665 257.9059 262.5402 268.0145 273.4888 280.0131 283.17738 287.81166 293.91593 297.92024 303.8145 308.4488 314.1331 319.18238 322.34666 329.29096 333.29527 338.76957 343.40385 353.28813 358.76243 365.2867 368.451 374.55528 378.55958 384.03388 389.50819 394.55747 397.93177 403.82606 408.46034 418.3446 423.3939 427.3982 434.34248 439.81678 444.86607 448.03034 451.1946 458.13893 464.6632 468.0375 473.0868 480.8711 485.50538 490.97969 497.08396 503.60826 506.77253 513.7168 519.40109 524.4503 530.9746 536.8689 545.0732">protein too, respiratory intermediates form the link. Breaking down</tspan><tspan y="-153.84058" x="192.00019 198.4612 203.03221 208.86322 214.27423 219.68524 225.09626 230.50727 235.91828 241.32929 246.318 254.459 257.56 261.501 268.38203 271.48304 278.36405 283.35276 287.29377 294.17478 299.5858 304.5745 307.6755 310.77653 316.18754 319.28855 326.16957 331.79057 336.77928 342.6103 347.1813 352.8023 358.84333 365.72434 368.82536 374.23637 384.05738 389.04609 392.1471 397.5581 402.5468 407.95783 413.99885 417.93986 423.98088 430.44187 436.2729 439.3739 442.4749 447.88594 457.70695 461.01795 466.00666 472.04768 478.92869 485.38969 490.3784 495.7894 501.4104 508.2914 512.2324 519.1134 524.5244 529.9354 533.03646 538.44747 543.43618 546.5372">processes within the living organism is catabolism, and synthesis is</tspan><tspan y="-140.16059" x="192.00019 197.84528 204.53038 210.37549 216.6406 222.2757 225.1808 228.0859 233.30101 242.92612 246.04122 248.3213 250.6014 258.1265 263.34159 268.55668 274.40177 281.29689 286.51197 291.72706 294.00718 297.75227 304.43736 309.65245 311.93257 316.30766 321.52275 326.73783 333.00294 335.90803 340.2831 346.1282 349.8733 355.5084 359.88349 365.3086 367.5887 373.85383 379.6989 383.444 390.1291 398.0742 403.91929 409.3444 411.6245 414.5296 419.7447 422.0248 424.9299 431.615 436.83009 442.46519 445.37028 450.58537 455.80046 462.06556 464.34568 467.25077 473.93586 476.21598 482.48109 488.11619 491.86128 498.54637 500.82649 506.67158 513.3567 519.2018 525.46688 531.1019 534.007 536.9121 542.1272">anabolism.  Because the respiratory pathway is involved in both anabolism</tspan><tspan y="-126.72058" x="192.00019 197.74608 204.33199 210.49788 212.67748 217.79338 223.53928 227.18518 232.93108 239.09697 244.63288 247.43877 250.24466 255.36057 264.88648 267.90238 270.08198 272.88789 276.53379 278.71339 286.55928 292.09516 298.89106 301.69697 307.86286 310.04246 316.62837 321.74427 328.33018 333.44609 338.56199 340.74159 346.90748 352.02339 354.20298 360.36888 365.48478 369.13069 372.77659 377.8925 382.1684 384.348 387.9939 393.5298 395.70939 400.8253 406.36119 412.94709 418.063 420.8689 427.0348 432.1507 436.4266 438.6062 442.2521 448.838 453.95393 456.1335 460.40943 465.52534 470.64125 476.80714 479.61305 483.88896 489.63487 493.28077 498.81666 503.09257 508.41847 510.59806 516.764 522.5099 526.15579 532.74166 540.5875 546.33346">and catabolism, it would hence be better to consider the respiratory pathway</tspan><tspan y="-113.04059" x="192.00019 197.9682 203.30622 205.84423 211.81224 218.62026">as an </tspan></text>
<text fill="#231f20" xml:space="preserve" transform="matrix(1 0 -0 1 -20.16 800.64)" font-size="10.5" font-family="Bookman"><tspan y="-113.04059" x="221.28018 227.33788 237.80558 244.49327 251.60097 255.34867 261.61637 268.09407 271.63175 275.37947 281.43717 284.17488 290.86259 296.9203 301.718 308.82569 317.1934 323.2511">amphibolic pathway</tspan></text>
<text fill="#231f20" xml:space="preserve" transform="matrix(1 0 -0 1 -20.16 800.64)" font-size="10.5" font-family="Bookman"><tspan y="-113.04059" x="329.7602 332.3004 336.81724 342.80406 346.69087 353.51768 358.87449 363.3913 365.93153 369.81834 376.64515 382.63197 389.45878 391.999 397.9858 403.34263 405.88285 411.86967 414.40989 419.7667 425.7535 429.64033 435.62715 442.03395 447.81077 450.85758 453.9044 459.2612 461.80143 467.57826 474.40507 479.76188"> rather than as a catabolic one.</tspan></text>
<g clip-path="url(#clip_40)">
<text xml:space="preserve" transform="matrix(1 0 -0 1 257.15403 766.8803)" font-size="8" font-family="Arial"><tspan y="6.316" x="0"> </tspan></text>
</g>
</g>
</svg>
