<svg xmlns="http://www.w3.org/2000/svg" xmlns:xlink="http://www.w3.org/1999/xlink" xmlns:inkscape="http://www.inkscape.org/namespaces/inkscape" version="1.1" width="576" height="784.8" viewBox="0 0 576 784.8">
<defs>
<clipPath id="clip_655">
<path transform="matrix(1,0,0,-1,-18,802.8)" d="M18 18H594V802.8H18Z" clip-rule="evenodd"/>
</clipPath>
<clipPath id="clip_656">
<path transform="matrix(.24,0,0,-.24,-18,802.8)" d="M648 1805H1352V1717H648Z"/>
</clipPath>
<clipPath id="clip_657">
<path transform="matrix(.24,0,0,-.24,-18,802.8)" d="M575 1200H1425V1113H575Z"/>
</clipPath>
<clipPath id="clip_658">
<path transform="matrix(.24,0,0,-.24,-18,802.8)" d="M529 594.996H1471V512H529Z"/>
</clipPath>
<clipPath id="clip_659">
<path transform="matrix(1,0,0,-1,259.314,763.9998)" d="M0-8H57.372V.800049H0Z"/>
</clipPath>
</defs>
<g>
<g clip-path="url(#clip_655)">
<path transform="matrix(.24,0,0,-.24,-18,802.8)" d="M0 3035.83H2550V3372.705H0Z" fill="#d1d3d4" fill-rule="evenodd"/>
<path transform="matrix(.24,0,0,-.24,-18,802.8)" d="M0 3078.33H2550V3419.998H0Z" fill="#e1ecb6" fill-rule="evenodd"/>
<text fill="#231f20" xml:space="preserve" transform="matrix(1 0 -0 1 -18 802.8)" font-size="11" font-family="Bookman"><tspan y="-730.081" x="84">P</tspan></text>
<text fill="#231f20" xml:space="preserve" transform="matrix(1 0 -0 1 -18 802.8)" font-size="7.7" font-family="Bookman"><tspan y="-730.081" x="90.72 96.8355 102.951007 107.680507 113.796009 118.8335 123.717 129.3705 134.1 140.2155 145.715 150.7525 153.326">HOTOSYNTHESIS</tspan></text>
<text fill="#231f20" xml:space="preserve" transform="matrix(1 0 -0 1 -18 802.8)" font-size="11" font-family="Bookman"><tspan y="-730.081" x="158.4"> </tspan></text>
<text fill="#231f20" xml:space="preserve" transform="matrix(1 0 -0 1 -18 802.8)" font-size="7.7" font-family="Bookman"><tspan y="-730.081" x="160.79999 163.50328">IN</tspan></text>
<text fill="#231f20" xml:space="preserve" transform="matrix(1 0 -0 1 -18 802.8)" font-size="11" font-family="Bookman"><tspan y="-730.081" x="169.19998 171.68129"> H</tspan></text>
<text fill="#231f20" xml:space="preserve" transform="matrix(1 0 -0 1 -18 802.8)" font-size="7.7" font-family="Bookman"><tspan y="-730.081" x="180.47998 183.01218 189.08638 195.16059 200.61879">IGHER</tspan></text>
<text fill="#231f20" xml:space="preserve" transform="matrix(1 0 -0 1 -18 802.8)" font-size="11" font-family="Bookman"><tspan y="-730.081" x="206.15998 208.70128"> P</tspan></text>
<text fill="#231f20" xml:space="preserve" transform="matrix(1 0 -0 1 -18 802.8)" font-size="7.7" font-family="Bookman"><tspan y="-730.081" x="215.51998 220.08818 225.27239 230.91858 235.64078">LANTS</tspan></text>
<path transform="matrix(.24,0,0,-.24,482.6352,53.635194)" d="M0 0C7.32 7.32 16.16 10.98 26.52 10.98H97.35C107.71 10.98 116.55 7.32 123.87 0 131.19-7.33 134.85-16.17 134.85-26.52V-101.52C134.85-111.88 131.19-120.72 123.87-128.04 116.55-135.36 107.71-139.02 97.35-139.02H26.52C16.16-139.02 7.32-135.36 0-128.04-7.32-120.72-10.98-111.88-10.98-101.52V-26.52C-10.98-16.17-7.32-7.33 0 0" fill="#ffffff" fill-rule="evenodd"/>
<text fill="#231f20" xml:space="preserve" transform="matrix(1 0 -0 1 -18 802.8)" font-size="11" font-family="Bookman"><tspan y="-729.361" x="505.92 513.21 520.5">135</tspan></text>
<path transform="matrix(.24,0,0,-.24,-18,802.8)" d="M2 2H2548V214.668H2Z" fill="#cbdf7f" fill-rule="evenodd"/>
<path transform="matrix(.24,0,0,-.24,-18,802.8)" stroke-width="4" stroke-linecap="butt" stroke-miterlimit="1000" stroke-linejoin="miter" fill="none" stroke="#cbdf7f" d="M2 2H2548V214.668H2Z"/>
<path transform="matrix(.24,0,0,-.24,579.6,.11999512)" stroke-width="1" stroke-linecap="butt" stroke-miterlimit="10" stroke-linejoin="miter" fill="none" stroke="#000000" d="M0 0H60"/>
<path transform="matrix(.24,0,0,-.24,576.12,-18)" stroke-width="1" stroke-linecap="butt" stroke-miterlimit="10" stroke-linejoin="miter" fill="none" stroke="#000000" d="M0 0V-60"/>
<path transform="matrix(.24,0,0,-.24,579.6,784.44)" stroke-width="1" stroke-linecap="butt" stroke-miterlimit="10" stroke-linejoin="miter" fill="none" stroke="#000000" d="M0 0H60"/>
<path transform="matrix(.24,0,0,-.24,576.12,788.16)" stroke-width="1" stroke-linecap="butt" stroke-miterlimit="10" stroke-linejoin="miter" fill="none" stroke="#000000" d="M0 0V-59"/>
<path transform="matrix(.24,0,0,-.24,-17.88,-18.23999)" stroke-width="1" stroke-linecap="butt" stroke-miterlimit="10" stroke-linejoin="miter" fill="none" stroke="#000000" d="M0 0V-75"/>
<path transform="matrix(.24,0,0,-.24,-18,802.8)" d="M250 503.336H1749.16V603.336H250Z" fill="#fffac2" fill-rule="evenodd"/>
<path transform="matrix(.24,0,0,-.24,-18,802.8)" d="M250 1107.5H1749.16V1215.8359H250Z" fill="#fffac2" fill-rule="evenodd"/>
<path transform="matrix(.24,0,0,-.24,-18,802.8)" d="M250 1715.83H1749.16V1815.83H250Z" fill="#fffac2" fill-rule="evenodd"/>
<text fill="#231f20" xml:space="preserve" transform="matrix(1 0 -0 1 -18 802.8)" font-size="10.5" font-family="Bookman"><tspan y="-688.801" x="78 81.5612 85.542407 88.0573 96.238498 102.319698 107.7709 110.2858 117.207 123.0782 127.0594 129.5743 136.70549 143.6267 147.6079 150.7491 153.8903 156.4052 162.4864 168.98761 174.85881 181.99 185.9712 188.4861 194.9873 201.48851 207.98972 214.49092 217.00582 220.98702 227.90822 233.98943 237.97063 240.48552 246.77672 253.90792 257.0491 260.1903 267.3215 272.7727 275.2876 280.7388 286.61 293.5312 296.04609 302.9673 309.0485 314.4997 321.4209 326.8721 329.387 335.88819 340.4994 346.37059 351.82179 354.96299 361.46418 366.91539 373.41658 375.93147 381.38267 386.83387 389.97508 396.47627 401.92747 408.84867 414.29988">It was not until about 1854 that Julius von Sachs provided evidence</tspan><tspan y="-675.361" x="60 63.3096 69.1392 73.7088 76.1821 82.6417 87.2113 93.0409 99.5005 106.5901 111.9997 115.9393 119.0389 124.8685 131.74811 134.2214 140.05101 143.36061 145.83391 151.4535 154.5531 161.6427 167.0523 172.88191 178.29152 183.70113 186.17443 194.31403 201.19364 206.60324 213.48285 215.95615 222.41574 225.51534 231.55493 238.43454 242.37415 247.78376 250.25705 255.87665 260.44627 266.27586 274.41545 277.72505 280.19834 288.54795 291.64756 298.73716 304.14677 309.97636 315.38597 320.79557 323.26887 326.36848 331.77809 334.25138 341.34098 346.75059 353.84019 359.8798 362.9794 366.079 371.6986 374.1719 379.5815 383.52113 389.3507 393.92033 399.32994 405.78953 408.26283 414.30244">for production of glucose when plants grow. Glucose is usually stored as</tspan><tspan y="-661.681" x="60 65.4591 69.4482 75.5373 80.1564 85.6155 92.5446 95.9037 100.702808 109.101909 112.25101 117.710109 122.50921 125.65831 131.7474 135.73651 141.19562 145.81472 150.61382 156.07292 160.06203 167.20113 173.71022 176.85932 182.31842 187.77753 192.57663 198.03574 204.96485 210.84395 219.03305 224.49216 231.00125 235.80036 239.78946 246.71857 252.80767 256.79676 261.59587 265.58497 272.51408 277.97319 282.77229 288.44139 293.0605 298.5196 303.9787 310.9078 315.7069 321.16603 328.3051 334.8142 340.27333 344.26243 350.35154 357.28065 362.73976 368.19886 372.99797 376.14707 383.07618 387.87528 394.38438 397.53349 403.6226 410.5517 414.5408">starch. His later studies showed that the green substance in plants</tspan><tspan y="-648.241" x="60 63.1486 68.6072 75.5358 78.684398 84.562999 89.181598 95.060199 101.568798 108.49739 114.16599 117.31459 120.46319 123.430088 129.51869 134.9773 137.9442 146.1328 151.5914 154.5583 161.06691 167.99552 173.87412 182.06272 185.02962 188.17823 192.16683 195.13373 202.06233 207.94094 216.12953 219.27814 222.24504 225.39365 230.85225 233.81916 236.96776 242.84636 248.30496 254.39357 258.38218 263.84077 270.34938 273.31629 276.46488 283.39347 286.36039 291.81898 298.32759 303.78617 309.24476 312.39335 318.48194 321.63053 324.59745 331.10606 336.98466 343.49327 346.64186 352.10044 357.55903 360.52595 363.67454 366.82313 372.9117 376.9003 382.3589 386.97749 389.9444 395.40299 401.49159 404.64018 407.78877 413.24736">(chlorophyll as we know it now) is located in special bodies (later called</tspan><tspan y="-634.801" x="60 65.3536 72.1772 75.2208 80.9944 85.508 91.2816 97.6852 100.728809 106.7124 112.066 115.9496 121.3032 124.3468 126.7629 134.8465 137.89009 141.7737 148.59729 151.64089 158.46448 160.88059 167.28418 170.32778 176.31137 183.13497 187.01857 189.43468 194.78829 200.14189 203.18549 206.22908 211.58269 214.83629 217.2524 225.54599 230.8996 233.3157 236.5693 242.34291 249.37651 256.2001 262.6037 265.0198 268.9034 275.72703 281.71064 285.59425 288.01036 291.89396 298.71757 304.07118 306.48728 312.05088 316.56449 321.9181 327.2717 334.0953 336.5114 342.915 348.89863 353.41224 357.29585 362.64945 365.06556 368.10917 374.93278 377.34889 383.75248 386.79609 392.7797 399.6033 403.4869 408.8405 411.25663 414.30024">chloroplasts) within plant cells. He found that the green parts in plants is</tspan><tspan y="-621.361" x="60 68.187 75.114 80.571 85.188 90.645008 93.164508 98.831508 101.97851 109.11551 114.57251 120.44951 125.90651 131.36351 133.88301 137.03002 142.48702 145.00652 154.87352 160.96053 167.46753 172.92453 176.28153 178.80103 184.88803 191.81504 198.32204 200.84154 204.82854 211.75554 217.84255 221.82955 224.34905 228.33605 235.26305 240.72005 243.23955 248.90656 252.05356 259.19056 264.64756 270.52458 275.98158 281.43858 283.95808 287.10508 292.56208 295.08158 302.21858 307.67558 314.81257 320.89958 324.04658 327.19358 332.86058 335.38008 340.83708 344.82408 350.70109 355.31809 360.7751 367.28208 369.80158 375.88859 381.34559 383.86509 389.32209 393.30909 399.3961 404.0131 409.4701 416.3971">where glucose is made, and that the glucose is usually stored as starch.</tspan><tspan y="-607.681" x="78 85.7674 91.644809 99.83221 103.22091 108.67831 114.55571 121.48311 126.940509 130.0879 136.5953 142.0527 146.6701 150.0588 154.0462 160.9736 166.431 169.8197 172.9671 179.8945 183.8819 189.3393 193.9567 199.4141 204.87149 208.85889 212.00629 218.93369 224.60109 227.98979 233.44719 239.32459 245.83199 251.28939 255.90679 259.0542 268.9216 274.379 281.3064 285.2938 290.7512 294.1399 300.64729 306.5247 313.4521 318.9095 322.2982 328.80558 334.47297 337.86167 344.36906 347.72645 357.80384 361.19255 368.74995 375.67735 381.34474 386.80213 389.94953 399.81694 405.90434 412.83174">Now consider the interesting experiments done by T.W Engelmann</tspan><tspan y="-594.241" x="60 63.1464 69.6528 76.1592 82.6656 89.172008 91.840007 97.0864 99.7544 106.2608 112.767208 119.273609 125.78001 128.9264 132.2828 134.9508 137.6188 145.8052 151.26161 154.408 161.33441 167.00081 169.66881 175.7552 178.4232 184.9296 189.54599 192.69239 198.14879 208.01519 210.68318 217.60959 223.066 225.734 231.1904 237.6968 240.84319 243.98958 247.97599 250.64398 253.79038 256.93678 262.60319 269.52958 273.51597 276.184 279.33039 286.25679 290.24317 296.11958 298.7876 301.934 305.92039 311.37678 314.0448 319.5012 326.0076 331.464 336.92039 340.90678 345.52317 351.60957 354.75596 357.42399 362.88038 368.75679 378.62318 385.12959 391.00599 397.93238 403.38877 410.31517 414.30155">(1843 &#x2013; 1909).  Using a prism he split light into its spectral components</tspan><tspan y="-580.801" x="60 66.0891 73.0182 79.527309 82.4614 86.4505 93.3796 98.8387 105.7678 108.7019 111.851 115.0001 118.1492 125.2883 135.1574 138.30649 145.2356 151.32469 155.3138 160.7729 167.282 170.2161 176.30519 179.23929 184.90839 189.52748 194.98659 200.4457 207.3748 210.3089 216.398 219.54709 225.21619 231.30529 234.66439">and then illuminated a green alga, </tspan></text>
<text fill="#231f20" xml:space="preserve" transform="matrix(1 0 -0 1 -18 802.8)" font-size="10.5" font-family="Bookman" font-style="italic"><tspan y="-580.801" x="237.598 245.2613 248.30461 254.91791 261.7412 267.51454 273.91783 280.53114 286.30445 290.60777">Cladophora</tspan></text>
<text fill="#231f20" xml:space="preserve" transform="matrix(1 0 -0 1 -18 802.8)" font-size="10.5" font-family="Bookman"><tspan y="-580.801" x="297.12 300.4739 303.39033 309.89424 313.03813 319.122 324.5759 330.0298 336.5337 339.4501 342.594 349.51789 352.4343 358.5182 361.4346 366.8885 374.0224 379.4763 385.9802 391.43409 398.35798 403.81187 406.95576 412.82966">, placed in a suspension</tspan><tspan y="-567.361" x="60 65.8757 69.2314 74.0787 80.1644 85.6201 90.2358 96.1115 102.6172 105.7629 111.218608 116.0659 122.5716 128.6573 134.113 138.09871 143.55442 148.17012 151.31583 157.40152 160.75722 165.60453 172.11023 179.03594 184.49164 189.33893 195.84464 201.93033 207.38603 211.37174 216.82744 221.44315 224.58885 230.67455 235.52185 243.70755 249.16326 253.77896 259.23466 264.08198 271.21769 276.67338 282.12907 288.63478 293.4821 297.46778 303.34349 308.1908 314.6965 320.1522 324.13789 329.59358 335.04927 339.03495 343.88227 347.86796 354.79365 360.24934 365.09666 370.55235 373.69804 377.68373 383.1394 388.5951 393.4424 399.3181 402.67384 407.52116">of aerobic bacteria. The bacteria were used to detect the sites of O</tspan></text>
<text fill="#231f20" xml:space="preserve" transform="matrix(1 0 -0 1 -18 802.8)" font-size="6.1" font-family="Bookman"><tspan y="-563.76107" x="415.92">2</tspan></text>
<text fill="#231f20" xml:space="preserve" transform="matrix(1 0 -0 1 -18 802.8)" font-size="10.5" font-family="Bookman"><tspan y="-553.681" x="60 65.276 70.552 76.248 79.214008 86.170009 89.976009 92.94201 98.63801 105.38401 108.56001 110.90102 119.11702 124.39302 126.734027 132.43003 138.75603 144.03203 149.30803 153.74404 159.02004 164.29604 170.62204 172.96303 176.76903 183.51503 189.42104 193.22704 195.56803 199.37403 206.12003 211.39603 213.73702 220.06302 225.96903 231.24503 235.05103 240.32703 244.76303 247.72904 253.63504 255.97603 261.88203 267.15803 272.43403 279.39 289.07603 296.032 298.99803 304.90403 308.71003 313.98603 320.312 322.653 332.33903 338.24504 341.21104 347.95704 350.92304 356.40904 358.75004 361.71604 368.46205 370.80305 374.60905 381.35505 386.63105 388.97206 393.40806 398.68406 404.17005 407.13606 412.83207">evolution. He observed that the bacteria accumulated mainly in the region</tspan><tspan y="-540.241" x="60 65.8764 69.2328 73.2892 79.7956 82.942 90.0784 95.5348 99.591197 105.6776 112.604 119.1104 123.166797 127.783199 133.2396 139.74599 143.80239 146.94878 150.09517 155.76157 162.68798 166.67438 170.73078 176.60718 179.96358 184.01998 188.00638 194.93279 200.38919 204.44559 209.902 216.40839 219.55478 222.70117 226.68758 230.74398 236.20038 242.70677 248.16318 253.61959 257.606 262.22239 269.3588 279.2252 282.5816 286.63804 293.77445 297.83088 301.1873 304.33369 308.95008 314.40647 318.39286 322.44929 328.53569 333.99208 337.97846 341.12486 347.00126 353.92765 357.98408 363.44047 369.94688 375.40327 380.85966 384.84605 389.46244 396.59886 406.46525 410.52168 416.39808">of blue and red light of the split spectrum. A first action spectrum of</tspan><tspan y="-526.801" x="60 66.4614 73.342807 79.1742 83.1156 88.947 94.3584 99.9798 106.8612 110.8026 117.684 123.0954 128.5068 131.6082 137.0196 139.49352 147.63492 153.67632 159.08773 161.56163 165.50304 172.38443 179.47583 184.88724 187.36115 193.82254 199.23395 204.64536 210.05677 214.62816 217.72956 224.19095 229.60236 236.06375 239.37516 241.84906 245.37046 249.31186 251.78577 256.35719 261.7686 267.18 272.5914 282.4128 288.8742 291.97563 297.38703 302.79844 305.27235 309.84376 315.67515 322.76655 328.38795 335.26936 338.37077 343.99217 346.46607 350.40748 357.28889 362.7003 365.1742 371.2156 377.677 383.0884 388.9198 393.4912 399.9526 403.894 406.99543 412.8268">photosynthesis was thus described. It resembles roughly the absorption</tspan><tspan y="-513.361" x="60 65.4527 71.9554 77.4081 82.860797 86.84349 91.45619 97.538898 100.22499 106.097698 109.45039 112.13649 117.58919 124.51189 127.65459 133.52729 138.13999 144.01268 150.51538 157.43808 163.10079 166.24349 169.38619">spectra of chlorophyll </tspan></text>
<text fill="#231f20" xml:space="preserve" transform="matrix(1 0 -0 1 -18 802.8)" font-size="10.5" font-family="Bookman" font-style="italic"><tspan y="-513.361" x="172.08 178.27">a </tspan></text>
<text fill="#231f20" xml:space="preserve" transform="matrix(1 0 -0 1 -18 802.8)" font-size="10.5" font-family="Bookman"><tspan y="-513.361" x="180.96 187.0133 193.9066 200.3799">and </tspan></text>
<text fill="#231f20" xml:space="preserve" transform="matrix(1 0 -0 1 -18 802.8)" font-size="10.5" font-family="Bookman" font-style="italic"><tspan y="-513.361" x="203.04001 209.66">b </tspan></text>
<text fill="#231f20" xml:space="preserve" transform="matrix(1 0 -0 1 -18 802.8)" font-size="10.5" font-family="Bookman"><tspan y="-513.361" x="212.40001 215.5464 222.0528 225.19919 230.6556 236.112 243.2484 248.7048 254.16121 259.6176 266.12403 268.79295 271.46186 274.60826 281.53465 284.20356 289.65995 295.11634 300.57273 304.5591 307.7055 313.5819 320.5083 323.17723 329.68363 336.19004 339.54646 346.05287 349.19926">(discussed  in section 11.4).</tspan><tspan y="-499.68104" x="78.000019 85.767719 91.43542 95.59761 99.58531 106.513019 111.97072 116.13291 126.00061 129.14832 135.65602 142.16373 145.31143 150.76914 154.93134 160.80904 164.16674 168.32894 172.31664 179.24434 184.70204 188.86425 195.79195 198.93965 205.86736 211.32506 215.31276 220.77046 226.22817 233.15587 237.14357 244.07128 248.23348 253.69118 259.14888 266.07658 270.06428 277.20198 281.81968 287.48738 291.64958 295.63728 302.56498 308.02268 312.18489 318.69258 324.15028 329.81797 333.98017 337.33787 342.79557 348.88328 352.87098 360.00868 364.62638 370.08409 375.54179 379.70399 385.58168 388.93937 393.10157 399.60926 402.75697 408.84468 415.77238">By the middle of the nineteenth century the key features of plant</tspan><tspan y="-486.24104" x="60.000017 66.50902 73.43802 79.31702 83.306018 89.18501 94.64401 100.31301 107.24201 111.23101 118.16001 123.61901 129.07802 132.22702 137.68602 140.35611 148.5451 154.0041 158.62311 164.0821 166.7522 173.2612 180.1902 186.0692 194.2582 201.1872 204.54619 207.21628 214.14528 220.23429 230.10329 235.56229 238.71129 244.3803 247.73929 250.40938 254.39838 261.32737 267.41636 271.40538 274.07548 280.58448 283.73347 289.82246 296.75144 300.74046 306.19947 308.86958 314.32859 320.20759 327.3466 330.49559 337.00459 339.67469 346.8137 352.2727 357.73173 360.40184 363.5508 366.6998 372.3688 379.2978 383.2868 385.9569 391.41593 398.3449 403.80393 408.4229 414.09193">photosynthesis were known, namely, that plants could use light energy</tspan><tspan y="-472.80104" x="60.000017 63.986719 69.86342 74.195117 84.06181 90.14851 96.65521 102.111919 106.44361 111.900318 117.987018 122.603717 129.11042 134.9871 141.9138 147.5805 154.0872 158.7039 164.7906 168.7773 174.234 179.69069 184.0224 187.3791">to make carbohydrates fr</tspan><tspan y="-472.8006" x="191.9961 197.87239 207.7387 212.06999 219.83629">om CO</tspan></text>
<text fill="#231f20" xml:space="preserve" transform="matrix(1 0 -0 1 -18 802.8)" font-size="6.1" font-family="Bookman"><tspan y="-469.2006" x="228.2401">2</tspan></text>
<text fill="#231f20" xml:space="preserve" transform="matrix(1 0 -0 1 -18 802.8)" font-size="10.5" font-family="Bookman"><tspan y="-472.8006" x="232.0801 236.4315 242.5296 249.4677 255.9858 260.3372 268.53529 274.6334 278.6315 284.0996 288.0001 291.35749 295.69819 300.03889 306.54627 313.47367 318.93107 323.27177 328.72917 338.59657 345.10395 348.25135 352.86875 356.01615 361.47355 367.56095 370.70835 375.04905 380.50645 386.59385 393.73124 399.81864 403.80604 406.95344 412.83085"> and water.  The empirical equation</tspan><tspan y="-459.3606" x="60.00009 64.61849 70.07689 76.58529 81.20369 86.662097 92.1205 97.5789 104.5073 108.495708 111.644107 118.5725 124.240909 129.218 133.2064 140.13481 145.59322 150.57032 154.55872 160.43712 164.42552 170.51392 173.66233 178.63942 185.14783 189.76624 195.64464 201.10305 206.56145 212.01985 217.47826 222.45536 228.33376 231.69216 236.66925 243.17766 250.10607 255.98447 259.97288 265.85127 271.30967 276.97807 283.90647 287.89488 294.82328 300.28169 305.74009 308.8885 314.3469 319.324 322.6824 328.5608 333.1792 338.1563 344.0347 349.9131 355.58149 361.24989 366.70829 373.6367 378.6138 384.0722 389.5306 395.409 398.5574 404.0158 407.1642 414.09263">representing the total process of photosynthesis for oxygen evolving</tspan><tspan y="-445.6806" x="60.00009 65.87129 70.48249 76.14369 82.22489 89.146099 92.28729 97.738498 107.59969 113.050899 115.5646 123.7458 129.827 135.2782 137.7919 141.7731 148.6943 154.14551 161.06671 163.58042 170.71161 177.63282 184.13402 189.58522 194.19643 199.64763 203.62883 209.50003 215.37123 221.87244 224.38614 230.46735 235.91855">organisms was then understood as:</tspan></text>
<g clip-path="url(#clip_656)">
<text xml:space="preserve" transform="matrix(.9970456 0 -0 1.0029631 -18 802.8)" font-size="10.528802" font-family="Bookman"><tspan y="-415.88795" x="157.42519 165.12717 187.99512 200.75392 269.83909 277.54106 290.29985 311.24208">COHOCHOO</tspan></text>
<text xml:space="preserve" transform="matrix(.9970456 0 -0 1.0029631 -18 802.8)" font-size="10.090101" font-family="Bookman"><tspan y="-421.8702" x="226.75077 232.76773 235.65727 241.19365 247.93277">Light</tspan></text>
<text xml:space="preserve" transform="matrix(.9970456 0 -0 1.0029631 -18 802.8)" font-size="6.078987" font-family="Bookman"><tspan y="-413.2567" x="173.7927 196.66104 286.2066 319.66624">2222</tspan></text>
<text xml:space="preserve" transform="matrix(.9970456 0 -0 1.0029631 -18 802.8)" font-size="10.528802" font-family="SymbolMT"><tspan y="-415.88795" x="180.53372 213.75212 255.63703 224.34275 235.17494 246.24784 253.47023 303.05674">+&#xf8e7;&#x2192;&#xf8e7;&#xf8e7;&#xf8e7;&#xf8e7;+</tspan></text>
<text xml:space="preserve" transform="matrix(.9970456 0 -0 1.0029631 -18 802.8)" font-size="10.528802" font-family="Bookman"><tspan y="-415.88795" x="266.7082 298.72438">[]</tspan></text>
</g>
<text fill="#231f20" xml:space="preserve" transform="matrix(1 0 -0 1 -18 802.8)" font-size="10.5" font-family="Bookman"><tspan y="-395.04" x="60 68.19 75.12 80.58 85.200008 90.66 94.920009 98.07001 105.840007">where [CH</tspan></text>
<text fill="#231f20" xml:space="preserve" transform="matrix(1 0 -0 1 -18 802.8)" font-size="6.1" font-family="Bookman"><tspan y="-391.68003" x="114.240009">2</tspan></text>
<text fill="#231f20" xml:space="preserve" transform="matrix(1 0 -0 1 -18 802.8)" font-size="10.5" font-family="Bookman"><tspan y="-395.04" x="118.08 126.4739 129.6178 133.8788 138.4927 143.94661 150.45052 155.06443 160.51833 165.97223 171.42613 178.35004 182.33394 187.78784 194.29175 198.55275 204.63666 208.89766 214.35157 220.43546 225.04936 231.55327 237.42717 244.35108 250.01497 256.51887 261.13276 267.21665 271.20054 276.65443 280.91545 284.05934 289.5132 292.86714 298.53105 301.88496 305.23887 309.49989 315.1638 318.30769 325.4416 330.89549 336.76939 342.22328 347.67716 351.03108 355.29209 361.37599 365.637 371.09089 374.23478 380.10868 384.30259 389.75648 395.84037 400.45426 406.95817 412.83207">O] represented a carbohydrate (e.g., glucose, a six-carbon</tspan><tspan y="-381.6" x="60 65.425 72.53001 78.16501 84.22001 88.80501 91.920009">sugar).</tspan><tspan y="-368.16" x="78 85.0361 87.454708 97.2208 100.2669 103.312999 108.6691 114.0252 117.9113 123.6874 130.5135 135.8696 138.28821 143.6443 149.42041 156.2465 160.1326 164.6487 167.6948 174.10089 181.137 185.02309 188.06919 193.84528 200.67137 203.08998 206.97608 212.75217 215.17078 219.05687 225.88297 231.23906 233.65767 240.69377 247.51987 253.92597 259.28208 263.7982 269.1543 273.0404 279.02653 285.85264 292.25874 295.30485 302.13096 307.69706 310.11567 315.89176 319.14787 321.56648 327.97257 334.79869 340.57478 344.46089 350.23698 355.59309 361.15919 367.9853 371.8714 378.6975 384.05363 389.40974 392.45585 397.81196 400.23057 408.31666 414.30278">A milestone contribution to the understanding of photosynthesis was</tspan><tspan y="-354.72" x="60 63.9856 70.9112 76.9968 80.98241 85.32371 95.18931 101.27491 107.78051 113.236118 117.577419 124.083019 129.74861 134.08992 140.17552 144.51683 154.38243 157.52803 162.98363 167.59923 173.47483 179.98043 183.12602 189.00162 192.14722 198.02281 203.68842 206.83402 212.28961 216.2752 219.63082 223.97212 231.73772 237.61331 242.22891 249.15451 254.6101 257.7557 260.9013 268.0369 273.4925 277.83378 283.28938 289.37498 296.30058 300.64186 308.40745 311.55305 317.00865">that made by a microbiologist, Cornelius van Niel</tspan></text>
<text fill="#231f20" xml:space="preserve" transform="matrix(1 0 -0 1 -18 802.8)" font-size="10.5" font-family="Bookman"><tspan y="-354.72" x="320.155"> </tspan></text>
<text fill="#231f20" xml:space="preserve" transform="matrix(1 0 -0 1 -18 802.8)" font-size="10.5" font-family="Bookman"><tspan y="-354.72" x="325.2 328.3438 334.84764 341.35145 347.85527 354.35908 358.55287 365.05668 371.5605 378.0643 384.5681 387.7119 391.0657 395.4195 403.6033 410.5271 416.4009">(1897-1985), who,</tspan><tspan y="-341.04" x="60 66.5072 72.594409 78.051609 83.508808 90.01601 93.77321 99.650409 106.57761 110.33481 117.26201 120.40921 125.86641 129.6236 135.0808 139.068 146.2052 152.7124 155.8596 161.3168 166.774 170.53119 176.40839 179.76558 183.52277 190.02997 197.16718 201.78438 208.29158 211.43878 216.89598 220.65317 226.74037 233.66757 240.17478 243.93196 249.59917 254.21637 259.67359 265.1308 272.05799 275.8152 282.3224 288.40959 293.8668 297.854 303.31123 307.9284 311.0756 317.16279 320.52 324.2772 330.7844 336.2416 346.1088 351.986 358.9132 364.37043 368.35765 372.97483 379.062 383.04924 388.50645 395.01365 398.77085 402.75807 409.68525 415.77244">based on his studies of purple and green bacteria, demonstrated that</tspan><tspan y="-327.6" x="60 66.7436 73.907199 80.0208 84.2444 90.358 96.051609 101.95521 109.118808 113.34241 120.506008 126.19961 131.8932 135.27681 140.97042 146.24251 149.62612 155.31972 160.59181 166.28542 171.97902 177.67263 183.36623 190.52983 194.75344 198.13704 204.46063 207.84424 211.22785 217.13144 222.40354 228.72714 233.99924 237.38285 240.76645 246.67005 253.83365 258.05726 262.49085 269.23445 274.92805 281.67164 287.36524 294.52885 301.27244 306.96604 314.12965 318.35325 323.62535 328.47895 334.17256 340.49617 346.18977 350.41337 353.79698 359.91056 367.07417 372.34626 375.72987 382.89347 388.16557 396.58918 403.75279 407.13639 412.83">photosynthesis is essentially a light-dependent reaction in which</tspan><tspan y="-314.16" x="60 66.9274 72.594799 79.102199 83.7196 89.597 95.2644 100.721797 107.64919 110.63789 113.99529 118.61269 124.4901 134.3575 137.3462 143.43361 146.42232 151.87972 159.01712 162.16452 166.15192 172.23932 178.74672 181.89412 187.35152 190.34023 196.21762 202.09502 205.24242 211.74982 214.89722 220.35462 226.44202 232.94942 236.09682 241.55422 244.54293 250.00032 255.87772 265.74513 272.2525 278.1299 285.2673 292.1947 298.7021 301.69078 306.30818 311.76557 318.27296 325.41035 330.86775 336.32514 341.78254 344.7712 350.2286 356.316 360.9334 367.4408 373.3182 380.2456 383.23429 389.74168 392.88908 398.76649 404.6439 407.7913 414.29869">hydrogen from a suitable oxidisable compound reduces carbon dioxide</tspan><tspan y="-300.72" x="60 63.9862 69.8624 72.53529 77.99149 84.0777 88.6939 95.2001 101.0763 108.0025 113.6687 120.174907 124.79111 130.8773 134.86351 140.31972 145.77593 149.13213 151.80503 158.31122 165.23741 168.3836 173.83982 176.51271 181.96892 188.05512 194.98131 197.6542 204.1604 209.61661 212.2895 217.74571 223.62192 230.12812 234.74431 240.20052 245.65673 251.11293 256.56913 263.07533 265.74824 272.25444 277.92063">to carbohydrates. This can be expressed by:</tspan></text>
<g clip-path="url(#clip_657)">
<text xml:space="preserve" transform="matrix(1.0028957 0 -0 .9971126 -18 802.8)" font-size="10.470231" font-family="Bookman"><tspan y="-272.94929" x="139.03847 255.1066">22</tspan></text>
<text xml:space="preserve" transform="matrix(1.0028957 0 -0 .99711248 -18 802.8)" font-size="6.045456" font-family="Bookman"><tspan y="-270.3007" x="154.114 192.40557 295.5514 326.42338">2222</tspan></text>
<text xml:space="preserve" transform="matrix(1.0028957 0 -0 .9971126 -18 802.8)" font-size="10.470231" font-family="Bookman"><tspan y="-272.94929" x="145.73783 159.379 176.13039 183.78858 262.28614 279.2778 286.93513 299.6201 318.0467 330.73066">HACOACHOHO</tspan></text>
<text xml:space="preserve" transform="matrix(1.0028957 0 -0 .9971125 -18 802.8)" font-size="10.033973" font-family="Bookman"><tspan y="-278.726" x="214.90035 220.64313 223.7552 229.2586 235.72116">Light</tspan></text>
<text xml:space="preserve" transform="matrix(1.0028957 0 -0 .9971126 -18 802.8)" font-size="10.470231" font-family="SymbolMT"><tspan y="-272.94929" x="168.94965 201.97577 243.379 212.26744 223.27562 234.28441 241.22455 271.8583 309.67085">+&#xf8e7;&#x2192;&#xf8e7;&#xf8e7;&#xf8e7;&#xf8e7;++</tspan></text>
</g>
<text fill="#231f20" xml:space="preserve" transform="matrix(1 0 -0 1 -18 802.8)" font-size="10.5" font-family="Bookman"><tspan y="-249.84" x="78 81.4431 88.2462 90.646 96.1891 100.682209 106.015308 111.348407 118.151508 120.55131 126.93441 129.9575 135.92061 142.72371 146.5868 151.9199 154.3197">In green plants H</tspan></text>
<text fill="#231f20" xml:space="preserve" transform="matrix(1 0 -0 1 -18 802.8)" font-size="6.1" font-family="Bookman"><tspan y="-246.48" x="162.48001">2</tspan></text>
<text fill="#231f20" xml:space="preserve" transform="matrix(1 0 -0 1 -18 802.8)" font-size="10.5" font-family="Bookman"><tspan y="-249.84" x="166.32 174.5921 176.9853 180.0074 185.33951 187.73271 191.59482 198.39691 203.72902 206.12223 212.92432 218.46642 224.84851 229.3406 235.09272 240.63481 245.96692 252.76902 255.1622 261.5443 267.29643 274.0985 279.85063 284.3427 286.7359 292.698 299.5001 305.8822 308.2754 311.2975 316.62959 319.02278 324.77488 330.52699 333.54908 339.93119 342.95329 348.28538 353.61747 359.99958 362.39277 366.25486 372.00697 374.40016">O is the hydrogen donor and is oxidised to O</tspan></text>
<text fill="#231f20" xml:space="preserve" transform="matrix(1 0 -0 1 -18 802.8)" font-size="6.1" font-family="Bookman"><tspan y="-246.48" x="382.8">2</tspan></text>
<text fill="#231f20" xml:space="preserve" transform="matrix(1 0 -0 1 -18 802.8)" font-size="10.5" font-family="Bookman"><tspan y="-249.84" x="386.4 389.63 392.01 398.81 404.56 414.3">. Some</tspan><tspan y="-236.4" x="60 65.8756 70.4912 76.15681 82.24241 89.16801 92.31361 97.76921 107.63481 113.09041 115.7085 122.2141 128.0897 130.70781 137.6334 143.509 147.4946 150.1127 154.7283 160.1839 163.3295 168.7851 174.8707 180.3263 185.78189 188.4">organisms do not release O</tspan></text>
<text fill="#231f20" xml:space="preserve" transform="matrix(1 0 -0 1 -18 802.8)" font-size="6.1" font-family="Bookman"><tspan y="-232.79999" x="196.8 200.5782">2 </tspan></text>
<text fill="#231f20" xml:space="preserve" transform="matrix(1 0 -0 1 -18 802.8)" font-size="10.5" font-family="Bookman"><tspan y="-236.4" x="202.08 208.5941 215.7382 220.3623 223.5164 230.4505 236.1246 238.73871 245.2528 252.1869 258.071 262.06513 267.94923 273.41334 279.08744 286.02156 290.01567 296.94978 302.41389 307.878 311.0321 316.49623 319.86033 322.47444 325.08854 335.17265 342.10676 347.57087 354.50498 357.11909">during photosynthesis.  When H</tspan></text>
<text fill="#231f20" xml:space="preserve" transform="matrix(1 0 -0 1 -18 802.8)" font-size="6.1" font-family="Bookman"><tspan y="-232.79999" x="365.52003">2</tspan></text>
<text fill="#231f20" xml:space="preserve" transform="matrix(1 0 -0 1 -18 802.8)" font-size="10.5" font-family="Bookman"><tspan y="-236.4" x="369.36003 376.28004 379.63005 382.23005 385.37007 392.29008 397.74009 401.7201 407.1701 413.2501">S, instead</tspan><tspan y="-222.95999" x="60.00003 63.30793 68.92583 74.11873 78.26663 85.35453 90.97243 96.16533 103.25323 109.08113 115.74903 120.52693 126.564838 132.39273 138.01064 145.09854 150.29145 156.95935 162.99726 170.08516 176.12306 180.90096 186.09386 189.61176 195.64966 200.42755 205.62046 212.28836 219.58626 224.36415 231.03205 234.33995 239.95786 245.15076 251.39865 258.48655 265.15446 270.34736 276.17527 280.95317 286.57106 292.18894 299.27684 304.46974 310.08763 317.38554 320.69343 327.36134 334.44923 341.74714 346.52503 351.71794 358.38584 364.63374 370.25163 374.3995 380.0174 384.7953 388.10319 394.35108 397.869 403.0619 407.20979 414.29768">is the hydrogen donor for purple and green sulphur bacteria, the</tspan><tspan y="-209.51999" x="60.00003 62.30933 68.18863 74.06793 77.21723 83.72653 89.815837 93.80514 96.95444 102.83374 109.76304 112.07234 115.72054 122.22984 126.849147 132.72844 139.23773 146.37703 151.83634 155.82564 159.47383 162.62314 168.08245 171.73064 177.18994 184.32924 187.47855 193.98786 200.91716 208.05646 212.67575 216.32395 222.20325 226.82254 230.47074 235.93004 243.06934 246.21865 252.72794 259.65724 265.74653 269.7358 275.1951 278.84333 285.35264 290.81193 297.32124 302.78053 309.7098 316.21913 319.3684 326.2977 331.967 335.61524 341.49455 348.42384 352.07206 356.06135 362.99064 368.44993 372.09815 377.97746 382.59675 388.26606 394.35536 401.28465 404.43394 409.89323">&#x2018;oxidation&#x2019; product is sulphur or sulphate depending on the organism</tspan><tspan y="-195.84" x="60.00003 66.10883 73.05763 79.58643 83.56523 90.51403 96.41283 100.42162 104.40042">and not O</tspan></text>
<text fill="#231f20" xml:space="preserve" transform="matrix(1 0 -0 1 -18 802.8)" font-size="6.1" font-family="Bookman"><tspan y="-192.48" x="112.80003">2</tspan></text>
<text fill="#231f20" xml:space="preserve" transform="matrix(1 0 -0 1 -18 802.8)" font-size="10.5" font-family="Bookman"><tspan y="-195.84" x="116.40003 119.75803 123.741039 132.13904 137.59705 144.52504 149.98305 155.44106 158.79906 162.78206 169.71006 175.16806 179.15106 182.29906 189.22705 192.58506 198.04306 202.66106 207.27906 212.73706 219.24506 223.22806 227.21607 234.14406 240.23206 244.22006 248.20307 252.19107 259.11909 264.5771 268.5601">. Hence, he inferred that the O</tspan></text>
<text fill="#231f20" xml:space="preserve" transform="matrix(1 0 -0 1 -18 802.8)" font-size="6.1" font-family="Bookman"><tspan y="-192.48" x="276.96003 280.84834">2 </tspan></text>
<text fill="#231f20" xml:space="preserve" transform="matrix(1 0 -0 1 -18 802.8)" font-size="10.5" font-family="Bookman"><tspan y="-195.84" x="283.2 288.65483 294.10963 299.9844 303.1292 308.584 314.03883 320.5436 324.5234 331.0282 336.693 340.6728 344.6576 351.5824 357.0372 361.017 366.6818 371.2966 376.7514 382.2062 389.131 393.1108 399.6156 402.7604 408.8452 415.77003">evolved by the green plant</tspan><tspan y="-182.4" x="60.000017 65.37552 71.17102 80.95652 86.33202 91.70753 94.15803 97.433528 101.969028 107.76453 117.550029 120.00053">comes from H</tspan></text>
<text fill="#231f20" xml:space="preserve" transform="matrix(1 0 -0 1 -18 802.8)" font-size="6.1" font-family="Bookman"><tspan y="-178.79999" x="128.16002">2</tspan></text>
<text fill="#231f20" xml:space="preserve" transform="matrix(1 0 -0 1 -18 802.8)" font-size="10.5" font-family="Bookman"><tspan y="-182.4" x="132.00002 140.30812 143.57622 146.00931 152.84741 158.63552 162.53362 164.9667 168.2348 172.76291 178.55101 188.32912 190.7622 196.13031 202.12842 206.65653 213.07463 218.86273 225.70084 228.13393 234.55204 237.61014 243.39824 249.18634 252.24445 258.66255 264.03065 267.29875 269.73185 276.14994 282.98805 286.04615 291.41426 293.84736 301.94548 307.94358 313.31169 315.74479 318.8029 324.801 328.6991 334.0672 338.5953 341.0284 347.4465 351.9746 357.7627 363.1308 368.4989 374.917 377.3501 383.7682 389.34629 391.7794 398.82749 404.1956 407.2537 414.0918">O, not from carbon dioxide. This was later proved by using</tspan><tspan y="-168.95999" x="60.000017 64.48451 70.43901 76.81351 79.82801 85.57251 88.58701 93.911518 99.65601 103.51051 109.25501 115.62952 118.64402 123.96852 126.358028 130.21253 135.53702 140.86151 147.656 154.4505 157.465 163.4195 170.424 175.74849 181.07299 184.29749 186.68698 189.07648 195.45098 202.24547 207.56996 209.95946 215.28395 221.02846 225.51296 229.99745 235.32195 240.64644 244.50095 246.89044 252.21494 258.16944 265.17393 271.12843 274.9829 277.9974 283.7419 290.5364 293.7609 296.1504 300.00489 306.79939 312.75389 316.60838 318.99787 327.05238 332.79689 339.80137 342.81587 349.19038 351.57987 356.06437 361.38887 367.76338 372.24787 377.57237 382.89686 388.22135 395.01585 398.87034 401.25984 403.64933 407.5038 414.2983">radioisotopic techniques.  The correct equation, that would represent  the</tspan><tspan y="-155.51999" x="60.000017 65.822017 71.224018 76.626018 81.18802 87.22002 90.31202 93.40402 95.86603 102.31803 106.880039 112.702037 118.104038 123.506038 128.90804 134.31003 136.77204 142.59404 145.89604 148.35805 154.81005 161.68204 167.50405 171.43605 177.25806 182.66007 188.27207 195.14406 199.07607 205.94806 211.35007 216.75208 219.84407 225.24607 227.70807 230.80007 236.20206 238.66407 242.59607 249.46807 254.87006 259.43208 264.83409 268.13609 273.95808 278.52009 283.9221">overall process of photosynthesis is therefore:</tspan></text>
<g clip-path="url(#clip_658)">
<text xml:space="preserve" transform="matrix(1.0006996 0 -0 .99930068 -18 802.8)" font-size="9.9669699" font-family="Bookman"><tspan y="-127.76945" x="128.31032 162.12514 168.36159 297.8689 332.88285">61266</tspan></text>
<text xml:space="preserve" transform="matrix(1.0006996 0 -0 .99930068 -18 802.8)" font-size="5.7550246" font-family="Bookman"><tspan y="-125.1276" x="149.89443 182.7504 257.0984 268.8496 272.44728 284.44017 312.50056 347.27345">22612622</tspan></text>
<text xml:space="preserve" transform="matrix(1.0006996 0 -0 .99930068 -18 802.8)" font-size="9.9669699" font-family="Bookman"><tspan y="-127.76945" x="134.5447 141.73952 174.59597 186.82811 249.66318 261.17494 276.2832 304.344 316.33439 339.11814">COHOCHOHOO</tspan></text>
<text xml:space="preserve" transform="matrix(1.0006996 0 -0 .9993007 -18 802.8)" font-size="9.551679" font-family="Bookman"><tspan y="-133.2933" x="211.29036 217.04529 219.68433 224.96051 231.19606">Light</tspan></text>
<text xml:space="preserve" transform="matrix(1.0006996 0 -0 .99930068 -18 802.8)" font-size="9.9669699" font-family="SymbolMT"><tspan y="-127.769458" x="156.36995 199.05838 238.63002 208.89128 219.44466 229.75727 236.47246 290.91343 325.92744">+&#xf8e7;&#x2192;&#xf8e7;&#xf8e7;&#xf8e7;&#xf8e7;++</tspan></text>
</g>
<text fill="#231f20" xml:space="preserve" transform="matrix(1 0 -0 1 -18 802.8)" font-size="10.5" font-family="Bookman"><tspan y="-105.84" x="60 68.1867 75.113399 80.5701 85.1868 90.6435 93.7502">where C</tspan></text>
<text fill="#231f20" xml:space="preserve" transform="matrix(1 0 -0 1 -18 802.8)" font-size="6.1" font-family="Bookman"><tspan y="-102.479999" x="101.520008">6</tspan></text>
<text fill="#231f20" xml:space="preserve" transform="matrix(1 0 -0 1 -18 802.8)" font-size="10.5" font-family="Bookman"><tspan y="-105.84" x="105.36 108.479999"> H</tspan></text>
<text fill="#231f20" xml:space="preserve" transform="matrix(1 0 -0 1 -18 802.8)" font-size="6.1" font-family="Bookman"><tspan y="-102.479999" x="116.64 120.5383">12</tspan></text>
<text fill="#231f20" xml:space="preserve" transform="matrix(1 0 -0 1 -18 802.8)" font-size="10.5" font-family="Bookman"><tspan y="-105.84" x="124.32 127.439998"> O</tspan></text>
<text fill="#231f20" xml:space="preserve" transform="matrix(1 0 -0 1 -18 802.8)" font-size="6.1" font-family="Bookman"><tspan y="-102.479999" x="135.84">6</tspan></text>
<text fill="#231f20" xml:space="preserve" transform="matrix(1 0 -0 1 -18 802.8)" font-size="10.5" font-family="Bookman"><tspan y="-105.84" x="139.68"> </tspan></text>
<text fill="#231f20" xml:space="preserve" transform="matrix(1 0 -0 1 -18 802.8)" font-size="10.5" font-family="Bookman"><tspan y="-105.84" x="143.04 147.65869 153.11739 159.62609 164.24478 169.70348 175.16217 180.62087 187.54956 191.53826 196.99695 200.05565 205.72435 208.87305 216.01175 221.47045 227.34915 232.80785 238.26654 241.62525 244.68395 251.19264 258.12135 263.58006 266.63877">represents glucose. The O</tspan></text>
<text fill="#231f20" xml:space="preserve" transform="matrix(1 0 -0 1 -18 802.8)" font-size="6.1" font-family="Bookman"><tspan y="-102.479999" x="275.03999">2</tspan></text>
<text fill="#231f20" xml:space="preserve" transform="matrix(1 0 -0 1 -18 802.8)" font-size="10.5" font-family="Bookman"><tspan y="-105.84" x="278.87998 281.94068 286.55137 292.00209 295.14277 300.59349 306.67417 312.12489 317.5756 324.0763 327.137 330.27769 335.7284 338.7891 342.1398 346.7505 352.6212 362.48188 365.54258 373.72328 379.80397 383.78468 389.23539 393.84608 397.19679 400.25749 404.2382 411.15888 414.29957"> released is from water; this</tspan><tspan y="-92.399997" x="59.99997 68.18927 74.27857 79.73787 82.26387 88.77317 93.39247 99.271778 104.73107 110.19037 116.69967 119.22567 126.36497 131.82427 134.97357 141.90288 147.57218 150.09818 154.71747 160.80677 167.31607 170.46538 176.34468 178.87068 182.01999 187.4793 193.3586 197.3479 203.2272 209.73651 215.19582 217.72182 221.71112 227.17043 232.62973 239.55904 246.48834 249.63765 255.72695 262.86625 268.32554 273.78483 277.14414 279.67015 287.43943 293.31874 297.308 302.7673 305.2933 309.2826 316.21189 322.30119 326.29048 328.81648 332.80577 339.73506 342.88435 348.34364 350.86964 354.01893 359.4782 362.0042 368.9335 374.8128 378.8021 381.3281 387.4174 389.9434 395.40269 398.55198 405.48127 411.15058 414.29988">was proved using radio isotope techniques. Note that this is not a single</tspan></text>
<g clip-path="url(#clip_659)">
<text xml:space="preserve" transform="matrix(1 0 -0 1 259.314 763.9998)" font-size="8" font-family="Arial"><tspan y="6.316" x="0"> </tspan></text>
</g>
</g>
</g>
</svg>
