<svg xmlns="http://www.w3.org/2000/svg" xmlns:xlink="http://www.w3.org/1999/xlink" xmlns:inkscape="http://www.inkscape.org/namespaces/inkscape" version="1.1" width="576" height="784.8" viewBox="0 0 576 784.8">
<defs>
<clipPath id="clip_3383">
<path transform="matrix(1,0,0,-1,-18,802.8)" d="M18 18H594V802.8H18Z" clip-rule="evenodd"/>
</clipPath>
<clipPath id="clip_3384">
<path transform="matrix(1,0,0,-1,259.314,763.9998)" d="M0-8H57.372V.800049H0Z"/>
</clipPath>
</defs>
<g clip-path="url(#clip_3383)">
<path transform="matrix(.23999998,0,0,-.23999998,-18,802.8)" d="M0 3035.83H2550V3372.7003H0Z" fill="#d1d3d4" fill-rule="evenodd"/>
<path transform="matrix(.23999998,0,0,-.23999998,-18,802.8)" d="M0 3078.33H2550V3420H0Z" fill="#e1ecb6" fill-rule="evenodd"/>
<text fill="#231f20" xml:space="preserve" transform="matrix(1 0 -0 1 -18 802.8)" font-size="11" font-family="Bookman"><tspan y="-730.081" x="84">P</tspan></text>
<text fill="#231f20" xml:space="preserve" transform="matrix(1 0 -0 1 -18 802.8)" font-size="7.69999" font-family="Bookman"><tspan y="-730.081" x="90.72 95.284709 100.46541 106.10811">LANT</tspan></text>
<text fill="#231f20" xml:space="preserve" transform="matrix(1 0 -0 1 -18 802.8)" font-size="11" font-family="Bookman"><tspan y="-730.081" x="110.88 113.361309"> G</tspan></text>
<text fill="#231f20" xml:space="preserve" transform="matrix(1 0 -0 1 -18 802.8)" font-size="7.69999" font-family="Bookman"><tspan y="-730.081" x="122.4 127.8772 133.97039 141.29558 146.00278">ROWTH</tspan></text>
<text fill="#231f20" xml:space="preserve" transform="matrix(1 0 -0 1 -18 802.8)" font-size="11" font-family="Bookman"><tspan y="-730.081" x="152.16"> </tspan></text>
<text fill="#231f20" xml:space="preserve" transform="matrix(1 0 -0 1 -18 802.8)" font-size="7.69999" font-family="Bookman"><tspan y="-730.081" x="154.56 159.7698 165.4416">AND</tspan></text>
<text fill="#231f20" xml:space="preserve" transform="matrix(1 0 -0 1 -18 802.8)" font-size="11" font-family="Bookman"><tspan y="-730.081" x="171.6 174.08132"> D</tspan></text>
<text fill="#231f20" xml:space="preserve" transform="matrix(1 0 -0 1 -18 802.8)" font-size="7.69999" font-family="Bookman"><tspan y="-730.081" x="182.88 188.37882 193.72362 199.22243 203.79723 209.91204 214.64084 221.67964 227.17845 232.83126">EVELOPMENT</tspan></text>
<path transform="matrix(.23999998,0,0,-.23999998,482.6352,53.635194)" d="M0 0C7.32 7.32 16.16 10.98 26.52 10.98H97.35C107.71 10.98 116.55 7.32 123.87 0 131.19-7.33 134.85-16.17 134.85-26.52V-101.52C134.85-111.88 131.19-120.72 123.87-128.04 116.55-135.36 107.71-139.02 97.35-139.02H26.52C16.16-139.02 7.32-135.36 0-128.04-7.32-120.72-10.98-111.88-10.98-101.52V-26.52C-10.98-16.17-7.32-7.33 0 0" fill="#ffffff" fill-rule="evenodd"/>
<text fill="#231f20" xml:space="preserve" transform="matrix(1 0 -0 1 -18 802.8)" font-size="11" font-family="Bookman"><tspan y="-729.361" x="505.92 513.21 520.5">179</tspan></text>
<path transform="matrix(.23999998,0,0,-.23999998,-18,802.8)" d="M2 2H2548V214.67H2Z" fill="#cbdf7f" fill-rule="evenodd"/>
<path transform="matrix(.23999998,0,0,-.23999998,-18,802.8)" stroke-width="4" stroke-linecap="butt" stroke-miterlimit="1000" stroke-linejoin="miter" fill="none" stroke="#cbdf7f" d="M2 2H2548V214.67H2Z"/>
<path transform="matrix(.23999998,0,0,-.23999998,579.6,.11999512)" stroke-width="1" stroke-linecap="butt" stroke-miterlimit="10" stroke-linejoin="miter" fill="none" stroke="#000000" d="M0 0H60"/>
<path transform="matrix(.23999998,0,0,-.23999998,576.12,-18)" stroke-width="1" stroke-linecap="butt" stroke-miterlimit="10" stroke-linejoin="miter" fill="none" stroke="#000000" d="M0 0V-60"/>
<path transform="matrix(.23999998,0,0,-.23999998,579.6,784.44)" stroke-width="1" stroke-linecap="butt" stroke-miterlimit="10" stroke-linejoin="miter" fill="none" stroke="#000000" d="M0 0H60"/>
<path transform="matrix(.23999998,0,0,-.23999998,576.12,788.16)" stroke-width="1" stroke-linecap="butt" stroke-miterlimit="10" stroke-linejoin="miter" fill="none" stroke="#000000" d="M0 0V-59"/>
<path transform="matrix(.23999998,0,0,-.23999998,-17.88,-18.23999)" stroke-width="1" stroke-linecap="butt" stroke-miterlimit="10" stroke-linejoin="miter" fill="none" stroke="#000000" d="M0 0V-75"/>
<text fill="#231f20" xml:space="preserve" transform="matrix(1 0 -0 1 -18 802.8)" font-size="10.5" font-family="Bookman"><tspan y="-687.6" x="78 84.4479 87.5358 93.5637 100.431598 104.3595 106.822399 112.4303 116.9882 122.8061 130.934 134.86191 141.72982 144.1927 150.22061 157.08852 163.53643 165.99932 172.44722 177.84513 183.24303 188.64093 191.72884 197.54674 203.99465 213.80255 219.20046 226.06836 229.99626 232.45915 238.48706 243.04497 248.44287 250.90576 257.98368 264.85157 271.29948 276.69737 281.25526 283.71818 287.64607 294.51396 299.91184 302.37477 307.77265 313.59056 320.45845 324.38633 328.9442 334.76213 337.85 340.31294 346.13084 349.42875 351.89167 358.33958 364.15748 368.08537 374.95326 377.41618 380.50407 387.37196 391.29985 395.85774 398.94563 405.8135 411.2114 414.2993">Plant growth and development are under the control of both intrinsic</tspan><tspan y="-673.681" x="60 66.08801 73.01602 79.52403 84.48204 89.94005 95.81806 99.80607 104.42408 107.57209 114.5001 119.95811 123.10612 128.56414 133.52216 136.88018 142.96819 148.4262 152.4142 158.2922 162.91022 168.36823 171.72624 176.68427 180.25228 187.18029 191.16829 196.6263 201.24431 206.70232 212.16033 215.30834 218.45635 225.59436 228.74237 234.83039 239.4484 244.40642 247.55443 254.48244 258.47047 263.08848 266.23649 273.1645 278.6225 281.7705 287.22853 292.18653 295.54454 301.63255 307.09056 311.07856 316.95658 321.5746 327.0326 331.9906 338.0786 342.69664 348.15464 353.11265 357.10066 364.02867 369.48667 374.44468 379.90269 386.8307 392.2887 402.1567 405.30473 410.76274 416.85075">and extrinsic factors. Intercellular intrinsic factors are the chemical</tspan><tspan y="-659.761" x="60 65.23341 72.14682 78.43023 83.66364 87.427059 93.29047 99.99387 105.22729 110.4607 115.694118 118.82752 121.12204 126.35545 132.21886 135.14228 138.06569 143.2991 149.58252 151.87705 158.16046 161.08388 166.94728 173.6507 177.41411 179.70864 185.15204 189.54546 195.19887 203.16228 206.92569 213.6291 215.92363 220.31705 225.55046 230.99387 237.90727 240.83069 246.69409 250.4575 256.1109 260.5043 265.7377 268.03224 270.95564 277.23905 285.41246 292.74586 295.66926 298.80268 301.0972 307.3806 314.084 319.3174 323.71083 328.9442 331.23875 337.10215 341.49555 346.72895 349.02348 355.3069 358.2303 363.46369 368.69709 373.09049 378.32389 383.55729 385.8518 391.29524 395.68864 401.34205 408.25547 414.53889">substances, called plant growth regulators (PGR). There are diverse groups</tspan><tspan y="-645.6" x="60 65.64281 68.76562 71.05343 77.32624 85.48905 92.81186 98.03467 100.32248 103.23529 109.9281 112.21591 118.48872 121.401538 127.25435 133.94716 137.69997 142.92278 146.04558 148.33338 154.60619 158.989 161.90181 168.59462 173.81743 176.73024 183.00305 188.85587 191.76868 194.68149 200.1143 202.4021 208.67491 213.89772 216.81053 222.45334 229.14615 234.57897 237.49178 244.18459 249.6174 251.9052 255.658 261.3008 263.58863 266.71144 269.62425 274.84706 280.06986 282.35768 287.79048 292.17329 297.8161 304.7189 310.9917 316.2145 319.3373 321.62513 327.47795 334.38075 340.02357 342.93638 349.62919 354.852 357.9748 360.2626 365.6954 368.60823 374.881 381.1538 386.37663 390.75944 395.98225 398.89506 401.80787 404.72068 411.41349 416.6363">of PGRs in plants, principally belonging to five groups: auxins, gibberellins,</tspan><tspan y="-631.681" x="60 65.45711 71.124217 75.11133 80.98844 87.49555 90.64266 97.56977 100.71688 107.64399 113.1011 116.458209 119.93751 126.02462 132.53173 137.98883 143.44594 146.59305 152.05016 155.19727 160.65438 164.13368 170.2208 175.6779 178.82501 185.33213 188.81143 194.89855 201.82566 208.33277 211.81208 217.26918 221.25629 228.1834 233.85051 236.99762 242.45473 249.38184 254.83895 258.19606 261.67536 268.18247 275.1096 280.5667 286.02384 291.48097 294.96028 301.46739 309.8645 317.4216 322.87873 326.35804 332.44514 337.06224 342.51936 345.99867 351.45579 357.1229 364.05003 368.03715 374.96427 380.4214 385.8785 389.02565 394.48277 399.93989 406.447 409.9263 413.07344">cytokinins, abscisic acid and ethylene. These PGRs are synthesised in</tspan><tspan y="-617.761" x="60 65.4881 71.6062 76.2543 79.4324 85.3405 92.5086 97.9967 103.0625 109.6006 115.718708 120.366809 124.3849 129.873 134.93881 140.84691 144.23502 149.30083 153.31893 160.27703 165.76512 170.83094 177.36904 180.54714 186.66524 193.62334 197.64144 201.02954 206.09535 210.11345 217.07155 222.55965 228.25775 233.32357 238.81166 244.71976 251.67786 255.69596 260.34407 266.25218 269.43028 274.49607 281.03416 284.21226 287.60035 290.98844 296.47654 301.12464 306.61274 313.57084 317.58894 322.65473 329.1928 332.3709 335.759 339.1471 344.6352 349.2833 354.7714 361.7295 365.7476 368.9257 375.0438 379.0619 382.24 388.1481 395.1062 400.172 406.2901 413.2482">various parts of the plant; they control different differentiation and</tspan><tspan y="-603.6" x="60 66.2801 71.5102 76.7403 81.970409 84.8905 90.5406 96.8207 106.4608 111.6909 118.39101 122.15111 128.01122 130.93132 133.22254 138.45264 143.68274 148.91284 155.61295 159.37305 164.60315 167.73325 170.02446 176.93456 183.63466 189.07476 191.36597 197.64608 205.81618 213.14627 215.43749 222.13759 227.9977 233.2278 235.51902 241.79912 244.71923 249.94933 255.17943 259.56953 264.79963 270.02973 272.32093 278.601 285.30113 290.7412 295.9713 298.89143 304.5415 307.4616 313.1117 318.5518 321.4719 326.702 332.5621 335.4822 337.7734 343.0035 346.1336 349.2637 354.4938 359.7239 363.484 368.7141 371.0053 376.6554 383.3555 385.6467 391.9268 394.8469 400.707 407.4071 411.1672 416.3973">developmental events. Any PGR has diverse physiological effects on plants.</tspan><tspan y="-589.681" x="60 68.35301 71.456027 76.86903 82.28204 86.85506 92.26807 97.681079 100.1552 106.61821 114.97122 122.48423 127.89724 130.37137 136.41439 139.5174 144.9304 150.76342 153.23754 163.06055 169.10356 175.98657 179.08959 182.40259 187.8156 193.2286 197.17162 199.64574 205.05875 208.16176 217.98477 221.08779 224.1908 230.23381 234.80683 237.28095 242.69396 246.00696 249.31996 254.73297 260.146 264.08903 269.50205 272.81507 275.28919 281.7522 290.1052 297.6182 303.03123 305.50535 315.32835 321.37135 326.99436 329.46849 335.51148 340.9245 344.86753 347.34165 352.75468 358.3777 365.26069 370.6737 375.2467 380.86973 383.97273 389.38575 393.32878 396.43177 401.8448 407.8878 410.99079 414.09379">Diverse PGRs also manifest similar effects. PGRs may act synergistically</tspan><tspan y="-575.761" x="60 65.69771 70.13542 72.478137 78.38584 85.13355 88.94126 94.84897 100.33668 106.034389 112.7821 115.74981 121.02752 124.83523 127.80294 133.08066 138.98838 141.95609 144.9238 150.41152 153.58922 155.93192 162.25963 165.22734 171.13506 177.88277 181.69048 184.03318 189.52089 193.9586 199.65631 207.66402 211.47173 218.21944 220.56214 226.46985 233.21756 239.54528 241.88797 248.21569 253.4934 258.77113 264.04884 267.01655 272.71427 279.04197 288.72969 294.0074 300.7551 304.5628 306.90553 309.87324 315.15095 317.49366 323.40138 326.36909 331.6468 337.3445 339.68724 345.59495 348.77265 351.95036 357.22807 362.50578 366.31349 371.5912 377.91889 380.2616 386.5893 392.077 394.4197 397.38743 400.35514 405.84284 412.59056 416.39826">or antagonistically. Plant growth and development is also affected by light,</tspan><tspan y="-561.6" x="60 63.90561 69.28122 79.06683 85.49245 90.86806 95.40367 101.40928 105.31489 112.3705 116.90611 122.28172 125.557338 127.99546 134.84107 141.89667 145.80228 150.33789 153.4035 157.30912 160.37473 166.17034 173.01595 176.29155 178.72966 184.52527 190.32088 195.9065 201.49211 206.86772 213.71334 216.15145 221.52706 225.43267 231.43828 235.34389 242.39949 247.7751 251.0507 253.48882 259.07444 263.61006 269.61567 274.99128 278.0569 281.9625 287.5481 289.9862 295.99183 302.83744 309.26304 311.70115 317.07676 324.13236 329.50798 336.35359 338.7917 344.1673 349.96293 353.86854 359.24415 363.77976 370.62538 376.63099 379.6966 382.1347 385.4103 391.41593 396.79154 400.69715 406.49278 411.02839 416.404">temperature, nutrition, oxygen status, gravity and such external factors.</tspan></text>
<text fill="#00aeef" xml:space="preserve" transform="matrix(1 0 -0 1 -18 802.8)" font-size="13" font-family="Bookman"><tspan y="-516.721" x="219.36">E</tspan></text>
<text fill="#00aeef" xml:space="preserve" transform="matrix(1 0 -0 1 -18 802.8)" font-size="9.1" font-family="Bookman"><tspan y="-516.721" x="228.96 236.05771 242.6094 249.7071 256.4408 260.0805 266.0862 272.6379">XERCISES</tspan></text>
<text fill="#231f20" xml:space="preserve" transform="matrix(1 0 -0 1 -18 802.8)" font-size="10" font-family="Bookman"><tspan y="-479.761" x="66 71.68061 86.88 95.29768 100.915378 104.533069 107.95075 114.968448 120.586139 125.803829 131.62152 136.43921 142.4569 150.67459 154.89229 161.90998 165.52767 170.74536 177.36305 180.78075 184.39844 188.01613 193.63382 198.4515 204.0692 211.08689 215.30458 218.72228 224.93997 229.15767 232.57537 238.59305 245.61074 249.22843 254.44612 261.0638 266.6815 272.29917 277.91685 281.33454 287.35224 293.9699 303.7876 309.40528 316.42298 320.64067 324.25834 329.476 336.0937 341.71138 348.32905 351.74674 355.3644 358.9821 364.59977 369.41746 375.03514 382.05284 386.2705 389.6882 395.90589 400.12358 403.54127 409.55897 416.57667">1.Define growth, differentiation, development, dedifferentiation,</tspan><tspan y="-465.841" x="86.88 91.27981 96.47962 102.67943 105.67924 108.87905 112.078868 117.27868 121.67849 126.8783 133.47812 137.27793 140.27774 146.07755 149.87735 152.87717 158.47698 165.07678 168.2766 170.90142 177.10123 182.30104 186.10085 191.30066 195.70047 205.10028 208.1001 214.6999 220.49971 224.29952 229.49933 232.12415 237.52396 241.92377 247.52358 255.32338 259.1232 265.72303 268.92283 271.54765 280.94746 286.14726 290.54707 293.54689 298.74668 302.54649 307.74629 317.1461 319.7709 325.5707 332.17054 338.37034 340.99516 346.39497 350.79478 356.3946 364.1944 367.9942 374.59403 377.21885 381.61866 387.41847 391.21827 396.41807">redifferentiation, determinate growth, meristem and growth rate.</tspan><tspan y="-447.6" x="66 71.68061 86.88 96.4816 103.0832 108.4848 112.32639 115.327999 120.529598 124.371189 130.97278 136.57437 140.37598 144.21756 150.01917 156.62076 162.02236 165.86394 171.46553 178.06713 183.26873 187.1103 193.3119 199.11351 203.5151 209.31671 218.7183 223.9199 227.72151 232.92311 237.3247 241.16629 246.56789 252.16948 257.7711 263.9727 267.81428 273.01588 279.61747 285.21907 292.02067 297.42228 304.02388 307.86546 311.66706 317.26866 321.11024 327.31184 332.51344 341.91505 347.51664 354.11824 359.31983 363.12144 367.52305 373.32466 377.12626 382.32786 386.16944 391.57106 395.97267 401.57426 409.37586 413.17747">2.Why is not any one parameter good enough to demonstrate growth</tspan><tspan y="-433.441" x="86.88 90.681 97.282 101.683 107.284 114.085 119.486 126.087 131.688 138.489 142.29 144.99932 148.80031 155.4013 160.60231 163.31163 166.31264 169.31365 172.51465 177.71566 180.42498 186.02597 189.22698 191.9363 197.73729 200.44661 203.64762 206.64862 212.24962 220.05062 225.25162 229.65262 232.65363 239.25463 244.65563 247.36495 253.56595 256.56697 262.36796 268.96897 272.76997">throughout the life of a flowering plant?</tspan><tspan y="-415.2" x="66 71.68061 86.88 94.85541 100.030818 105.20622 110.38163 114.75704 117.73245 123.90786 129.08327 131.45868 137.6341 142.0095 144.98491 150.16033 153.33574 156.31114 161.68656">3.Describe briefly:</tspan><tspan y="-401.281" x="86.88 89.880298 95.680599 98.68089 101.381198 108.181499 112.581798 115.58209 119.38239 125.9827 135.383 140.5833 144.38359 147.3839 152.5842 155.2845 160.6848 165.0851 170.6854 178.48569 182.28598">(a) Arithmetic growth</tspan><tspan y="-387.121" x="86.88 89.8508 96.0216 98.9924 101.3632 109.334 114.5048 120.0756 129.4464 134.6172 138.388 142.7588 145.7296 150.9004 153.27121 158.64202 163.01282 168.58362 176.35442 180.12522">(b) Geometric growth</tspan><tspan y="-373.2" x="86.88 89.88289 95.08578 98.08867 100.65826 107.26115 110.26404 115.66693 125.069828 130.67272 133.6756 139.8785 142.44809 147.85099 152.25388 157.85677 165.65966 169.46254 176.06543 178.63503 183.83792 190.64081 195.0437 200.2466">(c) Sigmoid growth curve</tspan><tspan y="-359.281" x="86.88 89.87871 96.077419 99.076129 101.97483 108.773548 114.97225 120.17096 125.76967 128.76837 135.56708 139.36579 144.5645 147.46321 153.26192 159.86063 166.05934 168.95806 173.35677 178.55548 181.55419 187.35289 191.1516 194.1503 199.34902 204.54773 207.44644 212.84516 217.24387 222.84258 230.64128 234.43999 241.0387 243.93741 248.33612 254.13483 257.93354 263.13224">(d) Absolute and relative growth rates</tspan><tspan y="-340.8" x="66 71.68061 86.88 92.8714 95.8628 101.0542 104.8456 107.577899 110.769298 113.7607 118.952098 124.14349 126.87579 136.2672 142.0586 145.04999 151.64139 154.37369 159.76509 164.4 170.00019 176.80037 183.00057 188.20076 190.94185 196.54204 199.74224 202.48332 209.08351 214.8837 218.68389 225.48407 229.88426 235.68445 238.68463 241.42572 247.62592 250.6261 256.4263 263.0265 266.8267 269.56779 274.96797 279.6 285.2041 293.0082 296.81233 303.4164 306.1614 310.56 315.7584 321.1568 327.9552 330.9536 336.752 340.5504 346.1488 350.5472 355.7456 358.944 361.6833 370.8 375.2082 378.21638 382.02458 387.23277 389.98185 395.79005 398.53913 405.1473 410.7555 414.5637">4.List five main groups of natural plant growth regulators. Write a note</tspan><tspan y="-326.881" x="86.88 92.48149 99.082988 102.84447 109.04596 112.04745 117.24894 122.45043 128.05193 133.25342 138.45491 142.8564 148.25789 151.45938 155.22087 161.42237 168.02385 173.42534 178.62683 181.62833 187.22982 190.23131 195.8328 201.23429 204.23578 209.43727 215.23876 218.24025 222.00174 225.20323 232.00472 238.6062 243.8077 247.60918 250.61067 256.21217 262.81367 268.01515 271.7766 277.5781 284.1796 290.38108 294.14256 299.94404 305.34553 309.747 312.7485 317.94999 324.75148 327.75297 331.55445 338.35594 342.75743 348.5589 351.5604 357.5619 364.1634 369.7649 374.16639 377.96788 380.96937 386.17085 392.97233 395.97383 399.7753 406.57679 410.97828 416.77976">on discovery, physiological functions and agricultural/horticultural</tspan><tspan y="-312.961" x="86.88 92.6832 98.8864 105.0896 108.0928 111.09599 116.299198 122.102397 125.905597 128.9088 134.512 141.11519 146.31839 148.99161 154.5948 157.798 160.47122 166.27443 172.87763 178.28083 180.95404 186.55724 193.16043 198.36363 201.03685 206.64005 209.84325 212.51647 216.31967 222.92287 228.12607 237.52927">applications of any one of them.</tspan><tspan y="-294.721" x="66 71.68061 86.88 96.4797 103.0794 108.479099 111.32259 114.322299 119.521999 122.36549 128.16519 134.3649 139.5646 144.76432 147.764 152.96372 155.96341 161.16312 164.00662 169.80632 175.00603 178.00572 184.20543 187.04894 192.84864 195.84833 201.04804 206.64774 209.49124 215.69095 222.29065 227.89035 235.69005 242.28975 245.13326 250.93296 256.13267 258.97618 264.17588 267.9756 272.37528 277.57499 282.7747 287.9744 290.8179 297.4176 303.0173 307.417 316.81669 322.41639 329.01609 334.2158">5.Why is abscisic acid also known as stress hormone?</tspan><tspan y="-276.241" x="66 71.68061 86.88 89.0591 96.438198 102.017299 105.796398 112.375499 114.75459 120.13369 124.51279 130.09189 137.87099 141.65009 148.22919 150.60829 156.38739 162.96649 169.1456 171.5247 177.7038 180.68289 183.862 187.0411 192.22022 196.59932 201.77843 208.35753 212.13663 215.11573 220.89482 224.67392 227.65302 233.23212 239.81122 242.19033 245.16942 251.74852 254.12763 260.70674 263.68583 269.0649 275.644 280.82313 285.2022 287.58134 293.76045 296.73954 302.51866 309.09776 312.87687 318.05598 320.4351 326.2142 330.5933 335.7724">6.&#x2018;Both growth and differentiation in higher plants are </tspan></text>
<text fill="#231f20" xml:space="preserve" transform="matrix(1 0 -0 1 -18 802.8)" font-size="10" font-family="Bookman" font-style="italic"><tspan y="-276.241" x="338.16 343.5302 349.50044 354.87065 361.04084">open&#x2019;</tspan></text>
<text fill="#231f20" xml:space="preserve" transform="matrix(1 0 -0 1 -18 802.8)" font-size="10" font-family="Bookman"><tspan y="-276.241" x="363.84 367.0093 369.37864 376.74794 382.31724 391.68653 401.05583 406.22514 412.79444 416.56373">. Comment.</tspan><tspan y="-258" x="66 71.68061 86.88 89.08149 96.48298 102.08447 105.88596 112.48746 115.65815 121.45964 124.63033 129.83182 136.4333 142.03479 146.43628 150.23777 153.40845 159.60994 165.41143 170.81291 173.9836 180.18509 183.18659 188.98807 195.58956 199.39104 202.56172 208.3632 214.96469 221.16619 224.33687 230.13835 233.30904 236.31053 241.91202 248.5135 253.915 257.0857 263.28718 269.08866 274.49015 277.66084 283.8623 286.8638 292.66529 299.26679 303.06828 306.23896 311.44044 317.2419 323.8434 327.0141 333.21559 337.61708 343.21858 349.42005 356.22154 361.423 366.62449 369.79518 374.99665 380.79814 387.39964 390.5703 393.7718 396.7733 402.3748 410.17628 415.37776">7.&#x2018;Both a short day plant and a long day plant can produce can flower</tspan><tspan y="-244.081" x="86.88 92.07741 95.07482 104.47223 111.26964 114.26705 118.06446 123.86187 130.45928 135.65668 141.25409 148.0515 153.2489 156.2463 161.64373 164.44113 167.43854 174.03595 176.83336 182.63077 185.42818 190.82559 193.823 199.0204 204.2178 210.81522 213.61263 219.81003 222.80744 228.60485 233.80225 238.99965 241.19705 244.39446 247.19187 254.38927 259.98667 266.18409 269.1815 274.9789 277.97633 284.57374">simultaneously in a given place&#x2019;. Explain.</tspan><tspan y="-225.6" x="66 71.68061 86.88 96.48149 103.082988 106.08447 111.285968 117.88746 121.85555 127.45705 134.05854 139.26003 143.22812 148.8296 152.0311 155.99919 159.80068 166.40216 171.60366 175.57175 181.77324 184.77474 190.57622 197.1777 200.97919 204.94728 210.34877 214.75026 220.35175 228.15323 231.95471 238.5562 242.52429 246.92578 252.12728 257.52879 264.33027 267.33177 273.13325 276.93473 282.53623 286.9377 292.1392 296.10728 303.90876 309.51026 316.31175 319.31324 325.5147 329.4828 334.88429 340.48579 347.28727 351.25535 358.05683 363.2583 368.45979 372.42787 375.42936 378.63084 382.5989 388.0004 393.6019 400.40339 404.37147 410.17295 414.57444">8.Which one of the plant growth regulators would you use if you are</tspan><tspan y="-211.681" x="86.88 92.6605 97.841 104.0215 109.202 115.38251 117.76301 121.54351 127.12401">asked to:</tspan><tspan y="-197.761" x="86.88 89.87581 95.671619 98.66743 101.543239 104.53905 111.13486 117.330669 124.12647 129.32228 134.5181 137.3939 141.78972 147.38553 152.98134 156.77715 159.77295 166.36876 171.76457 174.64038 177.63619 184.232 187.1078 192.90361 195.77942 199.57523 207.37104 210.36684">(a) induce rooting in a twig</tspan><tspan y="-183.6" x="86.88 89.88399 96.087978 99.091968 102.03346 107.837459 114.64145 117.64544 122.84943 129.05342 132.0574 137.4614 140.4029 144.80689 147.81087 154.01486 159.21886 165.82285 168.76435 174.56833 177.50983 180.71382 185.11782 191.9218 194.92578">(b) quickly ripen a fruit</tspan><tspan y="-169.681" x="86.88 89.88289 95.08578 98.08867 101.324848 107.52773 112.73062 115.73351 121.5364 126.93929 130.17548 133.17836 138.38126 144.18415 147.38704 150.62323 155.82613 161.02902 167.63191 172.83481 178.0377 183.2406 188.4435 195.04639 200.24929">(c) delay leaf senescence</tspan><tspan y="-155.761" x="86.88 89.879299 96.0786 99.077899 101.867198 104.86649 111.46579 117.66509 124.46439 129.6637 134.86299 137.65229 143.05159 147.4509 153.0502 160.8495 164.6488 171.24811 174.0374 177.0367 183.636 186.4253 192.2246 197.8239 200.8232 203.8225 206.8218 212.6211 217.0204 222.41971 225.209 231.4083 238.2076 244.40689">(d) induce growth in axillary buds</tspan><tspan y="-141.6" x="86.88 89.8768 95.0736 98.070407 100.979709 103.176509 109.37331 114.97011 117.96691 121.76371 123.96051 126.86981 132.66661 135.5759 139.9727 145.5695 150.7663 155.9631 159.7599 163.5567 168.75351 171.66281 177.8596 180.8564 186.6532 193.25">(e) &#x2018;bolt&#x2019; a rosette plant</tspan><tspan y="-127.681" x="86.88 89.87851 93.07702 96.07553 98.88235 101.88086 108.47937 114.67788 121.47639 126.6749 131.87342 134.68024 137.67874 147.07726 156.47577 161.67429 167.8728 170.8713 176.66982 180.46833 185.66684 188.47367 193.67218 197.47069 203.0692 212.46772 218.26622 222.06473 227.86324 230.86174 233.66857 238.86708 241.86559 247.4641 252.66262 259.46113 263.85963 269.05815 271.86497 274.86347 281.46199 284.2688 287.2673 292.46583 298.26435 303.46287 308.66139 313.8599">(f) induce immediate stomatal closure in leaves.</tspan><tspan y="-109.441" x="66 71.68061 86.88 96 101.5993 108.3986 111.397899 117.5972 120.0028 125.8021 128.2077 134.407 139.6063 142.80559 148.40489 151.40419 154.40349 160.20279 164.00209 169.20139 175.40068 177.80628 184.00557 187.00487 192.80417 199.40348 203.20278 205.60837 210 215.2031 220.40619 226.60929 232.21237 238.81546 245.01856 247.42795 251.23104 256.83415 259.24354 265.44664 272.0497 277.6528 281.4559 287.059 293.2621 298.46519 302.86827 305.87135 311.47444 317.67753 320.6806 325.8837 328.2931 333.4962 338.89927 344.10237 347.10545 352.30854 357.7116 360.121 369.7241 376.32719 381.73027">9.Would a defoliated plant respond to photoperiodic cycle? Why?</tspan></text>
<g clip-path="url(#clip_3384)">
<text xml:space="preserve" transform="matrix(1 0 -0 1 259.314 763.9998)" font-size="8" font-family="Arial"><tspan y="6.316" x="0"> </tspan></text>
</g>
</g>
</svg>
