<svg xmlns="http://www.w3.org/2000/svg" xmlns:xlink="http://www.w3.org/1999/xlink" xmlns:inkscape="http://www.inkscape.org/namespaces/inkscape" version="1.1" width="576" height="784.8" viewBox="0 0 576 784.8">
<defs>
<clipPath id="clip_6441">
<path transform="matrix(1,0,0,-1,-18,802.8)" d="M18 18H594V802.8H18Z" clip-rule="evenodd"/>
</clipPath>
<clipPath id="clip_6442">
<path transform="matrix(1,0,0,-1,259.314,763.99978)" d="M0-8H57.372V.800049H0Z"/>
</clipPath>
</defs>
<g clip-path="url(#clip_6441)">
<path transform="matrix(.24,0,0,-.24,-18,802.8)" d="M0 3035.83H2550V3372.7003H0Z" fill="#d1d3d4" fill-rule="evenodd"/>
<path transform="matrix(.24,0,0,-.24,-18,802.8)" d="M0 3078.33H2550V3420H0Z" fill="#e1ecb6" fill-rule="evenodd"/>
<path transform="matrix(.24,0,0,-.24,482.635,53.63501)" d="M0 0C7.32 7.32 16.16 10.98 26.52 10.98H97.35C107.71 10.98 116.55 7.32 123.87 0 131.19-7.33 134.85-16.17 134.85-26.52V-101.52C134.85-111.88 131.19-120.72 123.87-128.04 116.55-135.36 107.71-139.02 97.35-139.02H26.52C16.16-139.02 7.32-135.36 0-128.04-7.32-120.72-10.98-111.88-10.98-101.52V-26.52C-10.98-16.17-7.32-7.33 0 0" fill="#ffffff" fill-rule="evenodd"/>
<text fill="#231f20" xml:space="preserve" transform="matrix(1 0 -0 1 -18 802.8)" font-size="11" font-family="Bookman"><tspan y="-730.081" x="84">P</tspan></text>
<text fill="#231f20" xml:space="preserve" transform="matrix(1 0 -0 1 -18 802.8)" font-size="7.69999" font-family="Bookman"><tspan y="-730.081" x="90.72 95.284709 100.46541 106.10811">LANT</tspan></text>
<text fill="#231f20" xml:space="preserve" transform="matrix(1 0 -0 1 -18 802.8)" font-size="11" font-family="Bookman"><tspan y="-730.081" x="110.64 113.2806"> K</tspan></text>
<text fill="#231f20" xml:space="preserve" transform="matrix(1 0 -0 1 -18 802.8)" font-size="7.69999" font-family="Bookman"><tspan y="-730.081" x="120.96 123.47469 129.06938 135.12607 141.18276 147.23944">INGDOM</tspan></text>
<text fill="#231f20" xml:space="preserve" transform="matrix(1 0 -0 1 -18 802.8)" font-size="11" font-family="Bookman"><tspan y="-729.361" x="505.91999 513.06">29</tspan></text>
<path transform="matrix(.24,0,0,-.24,-18,802.8)" d="M2 2H2548V214.67H2Z" fill="#cbdf7f" fill-rule="evenodd"/>
<path transform="matrix(.24,0,0,-.24,-18,802.8)" stroke-width="4" stroke-linecap="butt" stroke-miterlimit="1000" stroke-linejoin="miter" fill="none" stroke="#cbdf7f" d="M2 2H2548V214.67H2Z"/>
<path transform="matrix(.24,0,0,-.24,579.6,.11999512)" stroke-width="1" stroke-linecap="butt" stroke-miterlimit="10" stroke-linejoin="miter" fill="none" stroke="#000000" d="M0 0H60"/>
<path transform="matrix(.24,0,0,-.24,576.12,-18)" stroke-width="1" stroke-linecap="butt" stroke-miterlimit="10" stroke-linejoin="miter" fill="none" stroke="#000000" d="M0 0V-60"/>
<path transform="matrix(.24,0,0,-.24,579.6,784.44)" stroke-width="1" stroke-linecap="butt" stroke-miterlimit="10" stroke-linejoin="miter" fill="none" stroke="#000000" d="M0 0H60"/>
<path transform="matrix(.24,0,0,-.24,576.12,788.16)" stroke-width="1" stroke-linecap="butt" stroke-miterlimit="10" stroke-linejoin="miter" fill="none" stroke="#000000" d="M0 0V-59"/>
<path transform="matrix(.24,0,0,-.24,-17.88,-18.23999)" stroke-width="1" stroke-linecap="butt" stroke-miterlimit="10" stroke-linejoin="miter" fill="none" stroke="#000000" d="M0 0V-75"/>
<text fill="#231f20" xml:space="preserve" transform="matrix(1 0 -0 1 -18 802.8)" font-size="10.5" font-family="Bookman"><tspan y="-688.561" x="60 67.76711 72.384227 78.05133 83.928447 90.435558 97.36266 103.02977 107.01688 112.47398 117.93109 121.96599 128.0531 132.67021 138.12732 142.16223 148.24935 151.39646 156.85356 162.73067 166.76558 172.22269 178.3098 181.45691 184.60402 190.06113 196.56824 200.60315 206.69026 216.55738 223.06449 229.9916 233.1387 239.64582 242.79293 248.88004 255.80715 261.26426 265.29917 271.17628 274.5334 278.5683 282.55543 289.48255 294.93968 298.97459 305.4817 308.62879 314.71589 321.643 325.63014 329.66505 336.17216 339.31929 346.2464 351.9135 358.42063 364.29774 374.16487 378.19978 384.70689 390.164 395.62113 401.70823 408.84535 414.30247">Bryophytes are also called amphibians of the plant kingdom because</tspan><tspan y="-674.39999" x="60 64.00089 70.94178 76.412677 81.88357 87.35446 92.40035 98.92124 102.08213 108.18302 115.12391 119.1248 124.595699 129.64159 135.11248 141.21337 148.15425 153.20015 156.36104 159.52193 164.99282 170.4637 175.5096 178.67049 185.61138 190.65727 196.12816 202.01905 205.17993 208.34082 213.38672 219.90761 227.0585 231.05939 236.10529 242.20618 246.83707 252.30796 257.35386 263.87477 269.34565 275.86656 281.33744 288.27833 294.79924 300.2701 307.211 311.21189 316.25776 322.14866 329.08955 334.1354 342.3363 348.4372 352.43809 357.90898 362.53987 367.58573 370.9566 376.8475 381.4784 386.52427 391.99516 397.46604 403.35694 410.5078 416.6087">these plants can live in soil but are dependent on water for sexual</tspan><tspan y="-660.48098" x="60 64.55941 69.958827 76.40823 80.96764 86.787059 93.236469 100.31587 105.71529 109.6447 112.73411 118.55352 125.42293 128.72234 131.18286 137.63228 144.5017 149.90111 155.51052 157.97104 165.05045 170.44986 177.52927 183.55867 186.64809 189.7375 195.34691 197.80744 203.62685 209.02626 214.42568 221.50508 226.0645 228.52503 231.61444 238.48386 240.94438 247.3938 253.4232 263.2326 269.682 272.9814 275.44194 282.31135 289.39076 299.20018 302.28959 308.73899 311.1995 317.2289 324.09834 330.54774 333.00825 338.40766 345.27708 351.3065 357.7559 363.1553 369.6047 372.06523 375.15464 380.97404 386.37345 392.40287 395.49229 398.5817 402.5111 405.60054 410.99995 416.39936">reproduction. They usually occur in damp, humid and shaded localities.</tspan><tspan y="-646.561" x="60 66.50741 73.434818 78.89223 84.55964 87.14206 93.64947 96.796878 102.884288 108.5517 111.13412 117.22153 124.14894 126.73136 129.87877 139.74619 146.2536 152.13101 156.74843 160.73584 166.82326 173.75067 177.73809 180.3205 184.93791 190.81533 193.96274 199.42015 202.00257 205.14998 212.0774 214.6598 221.16722 224.31464 230.40206 237.32947 241.31688 243.89929 249.3567 256.4941 261.9515 267.4089 272.8663 278.3237 283.7811 286.9285 292.8059 299.7333 302.31575 308.19316 315.12055 317.70298 324.2104 330.2978 334.9152 340.3726 342.95503 347.57243 353.44984 358.90724 365.41465 370.87205 377.16947 382.62687 388.50428 391.65168 394.79908">They play an important role in plant succession on bare rocks/soil.</tspan><tspan y="-632.39999" x="78 84.38771 91.19542 96.53313 98.93453 105.32224 108.34995 114.317668 121.125377 124.99309 127.3945 133.78221 139.53992 145.92763 151.47534 153.87676 159.63446 162.87218 165.27359 171.6613 176.15901 181.70673 187.46443 193.85214 200.65985 206.20757 210.07527 215.41298 220.75069 223.1521 226.17981 231.51752 233.91893 243.66664 249.42435 253.92206 259.25978 261.66117 268.04887 271.07658 274.31428 277.55198 282.88969 287.3874 292.7251 299.5328 303.4005 306.42823 312.39595 316.26365 321.60136 327.98905 330.39045 334.25816 341.06587 347.03358 353.84129 356.24269 360.11039 366.9181 372.8858 376.7535 379.1549 384.91264 388.15034 390.55174 396.51945 399.54716 405.09486 411.06257 416.40028">The plant body of bryophytes is more differentiated than that of algae.</tspan><tspan y="-618.48098" x="60 63.56831 67.55662 70.26044 73.408748 78.86706 81.57088 85.55919 92.4875 98.57581 101.72412 104.87243 112.01074 117.469058 121.667369 124.815677 127.96398 134.47229 139.9306 142.63442 148.72274 155.65105 162.15937 164.86318 171.37149 175.9898 181.86812 187.32643 191.31475 195.93306 202.02138 206.00969 211.468 214.17182 220.05013 224.66844 227.37226 232.83057 237.44889 242.9072 248.36551 252.35382 255.71213 258.41596 264.50428 271.4326 277.9409 280.6447 286.73304 290.72135 294.70967 300.79798 306.2563 313.1846 318.6429 325.1512 327.85505 331.84336 337.72166 340.42549 344.4138 351.3421 356.8004 359.50425 364.96257 372.10087 378.60917 384.06748 388.0558 392.6741 398.76243 402.75074 409.88905">It is thallus-like and prostrate or erect, and attached to the substratum</tspan><tspan y="-604.561" x="60 66.5066 72.1732 76.2498 83.3864 90.312999 93.459598 98.9162 104.3728 107.5194 110.666 117.8026 120.949199 127.0358 131.6524 135.729 141.6056 146.22222 150.29882 160.16542 167.30202 170.44863 174.43523 177.58184 183.03844 188.49504 191.64165 194.78826 201.92485 205.07146 211.15805 215.77466 219.85126 224.46787 231.39447 234.54108 239.57769 245.45429 248.60089 255.1075 260.5641 263.9207 267.99729 274.50389 281.43049 286.8871 292.55369 296.63029 299.7769 305.8635 311.3201 317.8267 321.9033 325.8899 330.5065 337.6431 343.0997 347.1763 351.7929 357.6695 363.54609 367.53269 372.9893 376.3459 380.4225 385.8791 389.8657 395.3223 405.1889 409.2655 415.1421">by unicellular or multicellular rhizoids. They lack true roots, stem or</tspan><tspan y="-590.39999" x="60 63.1042 68.5184 74.5626 79.9768 85.391 90.8052 94.1194 96.59471 103.058917 109.943119 115.357318 120.981517 123.456829 133.28102 139.32523 144.94944 147.42475 153.88895 159.72315 165.13735 170.55155 175.96575 181.37995 186.79415 189.26946 193.84366 199.67786 205.51206 209.45626 213.61046 216.71466 219.81887 226.28307 231.69727 235.01146 237.48677 240.59098 246.00518 252.04938 255.36357 259.51777 262.62196 265.72615 272.19035 277.60456 280.07987 285.91407 290.48826 292.96357 298.37779 302.322 307.7362 317.5604 321.7146 324.8188 327.92298 334.38719 339.8014 342.2767 347.69093 351.63514 356.20933 363.30354 368.71775 372.66197 379.75617 384.33036 389.74458 395.15879 398.473 400.9483 407.4125 414.2967">leaves. They may possess root-like, leaf-like or stem-like structures. The</tspan><tspan y="-576.48098" x="60 69.8339 75.8878 79.0017 85.8956 88.383197 94.85709 97.97099 104.024898 110.91879 114.872699 117.36029 123.83419 129.67809 136.152 141.78589 144.27349 150.11739 153.44129 155.92888 159.88278 166.77669 172.20059 174.68819 181.1621 185.746 191.3799 197.2238 203.69771 210.59162 216.22551 220.17942 225.60332 228.09091 231.20482 236.62873 239.11632 246.01023 252.06412 258.53804 261.65193 267.49583 270.6097 277.08363 280.40754 282.89515 286.42906 290.38294 292.87055 299.34446 303.92835 309.77226 316.24617 323.35008 328.77397 334.19786 339.62174 342.10935 347.74327 353.79716 363.63105 369.05494 373.00883 378.4327 383.8566 387.1805 389.66813 396.562 401.9859 408.8798 414.30369">main plant body of the bryophyte is haploid. It produces gametes, hence</tspan><tspan y="-562.561" x="60 63.0827 68.4754 70.934818 76.327518 82.35021 85.432918 88.51562 93.90832 100.35102 102.81043 108.83313">is called a </tspan></text>
<text fill="#231f20" xml:space="preserve" transform="matrix(1 0 -0 1 -18 802.8)" font-size="10.5" font-family="Bookman"><tspan y="-562.561" x="111.36 117.24601 123.13202 133.42803 139.31404 143.94005 150.24607 156.76207 163.69808 170.00409 174.6301">gametophyte</tspan></text>
<text fill="#231f20" xml:space="preserve" transform="matrix(1 0 -0 1 -18 802.8)" font-size="10.5" font-family="Bookman"><tspan y="-562.561" x="180.72 184.0134 186.4711 192.9145 199.77791 205.17131 207.62902 213.02242 218.41582 224.22922 226.68692 232.50032 236.88 242.4774 248.4948 255.3522 260.7396 263.1913 266.2687 273.1261 275.57783 282.01524 286.56263 292.16004 297.96745 304.40486 311.26225 316.85966 320.77705 326.16444 331.55183 334.00355 340.02095 344.64 350.02684 352.47795 362.27476 369.34156 372.41838 376.33518 379.412 384.7988 390.1856 393.26243 396.33924 403.40605 406.48286 412.49967 416.40003">. The sex organs in bryophytes are multicellular.</tspan><tspan y="-548.39999" x="60.00003 66.50323 73.42643 78.87963 83.14942 93.01262 99.09582 102.23902 107.69222 111.96201 117.415218 122.868419 128.74163 133.01142 138.88462 143.49782 149.16101 155.24422 162.16742 166.43721 169.58042 175.03362 179.3034 184.7566 190.83982 193.98302 197.12622 202.57942 209.08263">The male sex organ is called </tspan></text>
<text fill="#231f20" xml:space="preserve" transform="matrix(1 0 -0 1 -18 802.8)" font-size="10.5" font-family="Bookman"><tspan y="-548.39999" x="213.36003 219.52643 226.74283 231.64923 238.86563 245.03203 249.93843 253.79483 260.59123 264.44764 271.45405 282.03044">antheridium.</tspan></text>
<text fill="#231f20" xml:space="preserve" transform="matrix(1 0 -0 1 -18 802.8)" font-size="10.5" font-family="Bookman"><tspan y="-548.39999" x="285.60005 289.87464 296.38264 303.31065 308.76866 314.43666 318.71125 325.21925 329.83726 335.71528 342.22328 349.36128 354.81929 360.27729 364.55189 371.05989 374.2079 377.5659 380.7139 386.8019 392.4699 397.92793 401.07594 404.22395 410.31196 414.29997"> They produce biflagellate</tspan></text>
<text fill="#231f20" xml:space="preserve" transform="matrix(1 0 -0 1 -18 802.8)" font-size="10.5" font-family="Bookman"><tspan y="-534.48098" x="60.00003 65.94274 72.93545 77.61816 84.61086 90.55357 95.23628 101.59899 107.3317 113.69441 117.327129 123.89983">antherozoids</tspan></text>
<text fill="#231f20" xml:space="preserve" transform="matrix(1 0 -0 1 -18 802.8)" font-size="10.5" font-family="Bookman"><tspan y="-534.48098" x="129.36003 132.58835 134.98339 141.3617 148.16 153.48831 155.88335 159.11167 164.43997 174.17829 180.1366 183.1549 188.48322 190.87825 196.20656 201.53487 207.28318 209.6782 215.42652 219.91483 225.45314 231.41146 238.20977 240.6048 245.9331 251.89142 254.90973 257.92805 263.25636 269.63465">. The female sex organ called </tspan></text>
<text fill="#231f20" xml:space="preserve" transform="matrix(1 0 -0 1 -18 802.8)" font-size="10.5" font-family="Bookman"><tspan y="-534.48098" x="271.92005 277.95457 282.72908 288.76359 295.84809 301.8826 307.9171 314.3716 321.45613 325.18064 332.05516 342.49967">archegonium </tspan></text>
<text fill="#231f20" xml:space="preserve" transform="matrix(1 0 -0 1 -18 802.8)" font-size="10.5" font-family="Bookman"><tspan y="-534.48098" x="344.88005 347.88935 353.20866 355.57795 358.79725 361.80656 367.75587 373.07518 379.44447 383.50376 388.82307 395.61238 401.56169 407.93098 413.25028">is flask-shaped</tspan><tspan y="-520.561" x="60.00003 65.911937 72.66383 78.995738 81.34133 87.67323 92.115139 97.81703 104.14893 111.11083 116.39273 121.67463 126.95653 129.30213 135.21402 137.55962 142.84152 145.81342 152.56533 158.05722 161.02912 166.31102 168.65662 173.93852 179.43042 184.92232 188.10422 190.44982 196.78171 203.53362 208.81552 211.16112 217.07302 223.82492 227.63683 234.38874 239.67064 244.11254 249.81444 254.67633 260.37825 263.35014 269.68205 274.96394 277.3095 283.2214 287.6633 292.9452 295.29078 299.73268 305.01457 307.98646 313.26835 319.18025 324.46214 329.74403 336.07594 338.4215 341.3934 348.1453 351.95719 357.6591 360.0047 368.0166 373.9285 377.7404 383.02229 387.46418 389.80976 397.82167 404.57356 409.85545 414.29734">and produces a single egg. The antherozoids are released into water where</tspan><tspan y="-506.39997" x="60.00003 63.99103 70.922039 76.38303 82.05403 85.07504 90.53604 96.41704 106.28804 111.74904 114.77005 117.92105 124.85205 127.873058 133.33406 139.21506 146.14606 150.13706 156.22806 161.68906 165.68006 168.70105 176.89205 180.04305 184.03404 190.96504 193.98606 200.07706 204.69806 210.15906 217.09006 222.55106 228.22206 234.10306 241.03406 244.18506 251.32607 261.19706 264.55805 267.57905 274.72004 281.65104 284.67204 290.76304 297.69404 301.68504 308.61604 314.07704 318.69804 324.57905 329.62004 335.50105 338.65205 345.16304 348.18403 351.545 358.686 364.147 369.608 375.069 378.09 386.281 389.432 393.423 400.354 403.375 407.366 414.297">they come in contact with archegonium. An antherozoid fuses with the</tspan><tspan y="-492.48097" x="60.00003 65.457538 71.12504 76.79254 80.90504 84.89254 90.77004 94.88254 101.39004 106.00754 111.88504 118.39254 125.53004 130.98754 136.44504 140.55754 144.54505 151.47255 156.93006 161.04256 166.08007 171.74756 177.41506 183.29256 187.28006 192.73757 196.09506 200.20757 206.92507 212.59256 218.26006 224.13756 228.12506 233.58257 239.04007 243.15258 249.66008 255.53759 259.6501 266.57759 272.45509 276.44258 280.55509 287.6926 294.6201 301.1276 306.58509 311.20259 316.8701 322.7476 326.8601 331.4776 336.9351 343.4426 350.5801 356.0376 360.0251 363.17259 369.05009 375.97758 380.0901 386.5976 389.7451 395.20259 398.35008 403.80757 406.95506 412.83256">egg to produce the zygote. Zygotes do not undergo reduction division</tspan><tspan y="-478.56095" x="60.00003 63.14463 73.00923 82.87383 88.32843 94.83303 97.97763 104.06223 108.04684 113.501438 116.646038 122.31063 125.66523 129.60105 136.10564 143.03025 148.48485 154.14945 158.08525 164.58985 169.20444 175.07904 181.58364 188.71823 194.17284 199.62744 203.56325 209.64785 213.58365 223.44824 230.58284 233.72745 237.71205 240.85666 246.31127 251.76587 254.91048 258.05509 265.1897 268.3343 274.41889 279.03349 282.9693 289.4739 295.3485 301.85313 307.51774 311.45356 316.90815 322.99275 326.13734 329.28193 334.7365 341.24113 345.17695 351.26155">immediately. They produce a multicellular body called a </tspan></text>
<text fill="#231f20" xml:space="preserve" transform="matrix(1 0 -0 1 -18 802.8)" font-size="10.5" font-family="Bookman"><tspan y="-478.56095" x="355.19703 360.6437 367.3504 373.8471 378.66383 385.16053 391.86723 398.99394 405.49064 410.30735">sporophyte</tspan></text>
<text fill="#231f20" xml:space="preserve" transform="matrix(1 0 -0 1 -18 802.8)" font-size="10.5" font-family="Bookman"><tspan y="-478.56095" x="416.40003">.</tspan><tspan y="-464.39994" x="60.00003 66.51003 73.44003 78.90003 83.71002 89.17002 95.68002 101.56002 106.18002 112.06002 118.57002 125.50002 131.17003 135.16004 140.62004 145.43004 148.58003 154.04004 158.85004 165.78003 171.66004 175.65004 180.46004 183.82004 188.44004 193.90004 199.36005 203.56005 206.71004 209.86003 215.32004 218.47003 225.40003 231.07003 235.88002 242.39002 249.53002 253.52002 258.33 264.41999 268.40998 272.39997 278.48997 283.94996 290.87995 296.33995 302.84996 307.6599 311.6499 317.5299 322.33988 326.32987 333.25987 338.71986 343.52983 350.03984 356.96983 362.84983 366.8398 372.71983 378.1798 383.84983 390.77983 394.7698 401.6998 407.1598 411.14979 414.29978">The sporophyte is not free-living but attached to the photosynthetic</tspan><tspan y="-450.48094" x="60.00003 65.93592 72.29181 82.427707 88.153598 92.409488 98.555377 105.33127 112.52716 118.46305 122.71894 128.44483 133.74842 140.10431 147.3002 154.0761 159.37969 166.15558 171.88147 176.76737 180.18326 185.90915 191.63504 197.36093 202.66452 209.86042 216.0063 223.41219 228.29808 231.71398 237.43987 244.63576 254.77165 260.49754 267.69343 271.9493 277.2529 280.87879 285.76469 291.91059 302.04649 307.35008 310.76597 315.02186 318.64775 323.95133 331.14723 337.29313 347.42903 353.1549 358.4585 364.1844 369.91029 373.32618 376.74208 382.46797 387.77156 393.91746 397.54335 402.84693 407.1028 414.2987">gametophyte and derives nourishment from it. Some cells of the</tspan><tspan y="-436.5609" x="60.00003 65.49292 72.03581 77.9487 82.60159 88.51448 95.05737 102.02026 107.72315 111.74604 117.23893 122.31031 129.4832 136.44609 142.98899 148.48188 153.13477 158.83766 164.75055 169.82193 174.47483 179.96772 186.5106 193.6835 199.17639 203.19928 206.38217 212.29506 219.25795 224.32933 230.87223 234.05512 239.548 242.7309 248.22379 251.40668 257.31959 264.28248 269.35386 272.53675 282.43965 287.93254 291.11543 297.02833 302.5212 305.7041 311.197 314.37989 319.45127 323.47416 329.38706 334.45845 341.0013 345.6542 351.5671 358.11 365.28288 370.77577 376.26866 381.34004 388.30293 394.4258 400.9687 404.15159 410.06449 413.24739">sporophyte undergo reduction division (meiosis) to produce haploid</tspan><tspan y="-422.3999" x="60.00003 65.45433 71.95863 77.83293 82.447238 87.901538 93.355838 96.71014 99.30735 101.904567 108.40887 115.33317 120.78747 126.24177 131.69608 134.29328 139.74758 146.25188 152.12618 156.74048 162.19478 167.64908 170.24628 175.91059 181.36489 185.97919 195.84349 198.9878 205.9121 211.9964 215.9807 221.435 224.0322 228.0165 233.8908 236.48799 242.9923 247.6066 253.4809 259.9852 267.1195 272.57383 278.02815 280.62538 286.28968 292.37397 302.23826 307.69258 311.67689 317.55119 324.05549 330.97978 336.64408 340.6284 346.0827">spores.  These spores germinate to produce gametophyte.</tspan><tspan y="-408.4809" x="78.00003 85.76674 90.383449 96.050159 101.926868 108.43358 115.36029 121.027 125.01371 130.47042 135.92713 140.13384 143.28055 150.20726 154.41397 160.08069 165.5374 172.46411 177.92082 182.53754 188.62425 191.77097 195.97768 202.06439 206.6811 212.13782 216.34453 222.22124 225.57794 229.78466 232.93137 236.07808 240.06479 244.0515 247.19821 252.65493 256.86164 262.31834 267.77503 273.65174 280.57844 286.45515 296.32185 299.46855 304.92524 309.13197 312.27867 322.14537 328.65208 334.52879 339.14549 343.1322 349.2189 356.1456 361.6023 367.059 371.26573 377.77244 384.90916 388.89588 393.1026 398.5593 404.436 414.3027">Bryophytes in general are of little economic importance but some</tspan><tspan y="-394.56089" x="60.00003 69.82333 75.65663 81.06993 86.48323 91.89653 97.30983 99.78424 106.24754 110.82085 116.654148 122.067447 125.170749 131.63405 137.04735 139.52176 142.83506 148.66835 154.50165 160.96495 163.43936 166.75266 172.58596 177.15926 179.63367 186.51697 191.93027 196.50357 202.96688 209.01018 214.42348 219.83678 225.67008 232.76337 238.17667 240.65108 250.47438 256.51768 266.34098 276.16429 282.20759 285.31089 290.72419 294.03749 296.51188 302.97517 306.07847 310.65177 317.11506 322.52836 325.00276 331.04606 337.92936 344.39265 346.86705 352.70036 356.64366 363.52696 368.94026 373.51356 375.98796 382.03126 388.91456 392.01786 401.84117 407.88447 410.98777 416.40107">mosses provide food for herbaceous mammals, birds and other animals.</tspan><tspan y="-380.39988" x="60.00003 66.93602 73.45201 78.918 84.38399 87.53998 93.00597 98.471958 101.012958 106.89894 110.26493">Species of </tspan></text>
<text fill="#231f20" xml:space="preserve" transform="matrix(1 0 -0 1 -18 802.8)" font-size="10.5" font-family="Bookman" font-style="italic"><tspan y="-380.39988" x="112.80003 119.802928 126.38582 133.17871 139.9716 146.13449 152.92739 159.72028">Sphagnum</tspan></text>
<text fill="#231f20" xml:space="preserve" transform="matrix(1 0 -0 1 -18 802.8)" font-size="10.5" font-family="Bookman"><tspan y="-380.39988" x="168.72003 172.07224 174.58943 180.67165 183.18885 193.05106 198.92327 204.37548 209.82769 213.17989 215.69709 222.1993 226.81151 232.68372 238.13593 241.27814 247.78035 253.23256 255.74977 262.25199 267.7042 273.7864 277.76863 280.28584 284.26805 291.19026 297.27247 301.25468 303.77189 310.6941 316.7763 322.22853 327.68074 330.19795 333.34016 339.21238 346.13459 351.79679 354.314 360.8162 366.2684 371.7206 378.64283 381.16004 388.29225 393.74446 399.19667 405.69886 408.21607 414.29829">, a moss, provide peat that have long been used as</tspan><tspan y="-366.48088" x="60.00003 63.11353 70.00703 75.22053 78.12403 81.23753 83.51473 85.79193 91.63543 98.31893 104.58243 106.85963 112.703128 117.916629 120.193828 126.45732 132.30083 137.51433 143.77783 146.68134 153.36484 158.78833 161.06552 170.68903 176.53253 180.27603 185.48954 189.86304 192.76654 198.61005 201.51355 203.79074 206.90424 212.53774 216.91124 219.18843 222.93193 227.30544 233.14894 239.83245 245.04595 248.99945 254.21295 260.89646 263.79997 270.06346 279.68696 284.90046 291.58396 295.32746 297.60466 303.23817 306.35166 308.62886 311.53236 314.43586 319.64936 322.55287 329.23637 334.65986 336.93705 346.56056 352.40406 356.14756 361.36106 365.73457 368.63807 374.48158 377.38508 379.66227 385.92576 391.13926 396.35276 402.19627 409.08976 414.30326">fuel,  and as packing material for trans-shipment of living material because</tspan><tspan y="-352.56086" x="60.00003 65.87694 69.23385 72.86155 76.84846 83.77537 89.23228 92.37919 96.9961 100.6238 106.08071 112.167629 118.67454 124.76145 130.21837 133.36528 137.35219 143.0191 146.64679 150.6337 156.5106 160.13829 167.0652 172.94211 176.08902 182.59593 186.22362 194.41053 200.49744 204.48435 209.94126 214.08003 217.43573 221.06221 230.71791 236.59362 242.04932 247.50502 252.96073 258.4164 262.0429 268.1286 271.2743 277.15 284.07569 289.7414 293.3679 301.5536 304.69929 308.68498 315.61067 319.23716 322.38285 325.52854 330.98423 337.9099 343.3656 350.2913 355.74699 359.37348 365.45918">of their capacity to hold water. Mosses along with lichens ar</tspan><tspan y="-352.56047" x="370.075 375.53483 379.1654 383.1552 390.08503 395.54484 399.1754 402.53523 405.68504 410.30485 415.76466">e the first</tspan><tspan y="-338.40046" x="60 65.70421 70.14842 75.64263 81.55684 88.31105 91.28526 96.56947 106.26369 111.5479 113.89711 117.71132 123.41553 125.76474 131.04895 136.75316 139.72737 145.43158 152.18579 155.16 160.44422 165.72843 168.07762 172.52184 178.22605 183.51026 189.84447 195.12868 197.47788 203.39209 210.1463 216.48052 218.82971 225.58393 230.86814 237.62235 242.90656 248.19077 251.37497 253.72417 259.63838 264.08259 269.3668 271.716 277.42024 280.60444 282.95365 288.44786 292.89207 298.17628 304.09049 307.9047 310.2539 315.53813 320.82234 326.52656 329.50077 335.205 340.6992 343.6734 348.9576 354.87184 357.84605 360.19526 363.16947 372.86369 379.19789 384.9021 389.3463 393.16053 399.07475 405.82896 411.11317 416.39738">organisms to colonise rocks and hence, are of great ecological importance.</tspan><tspan y="-324.48045" x="60 66.50691 73.43382 78.89073 84.55764 87.74956 94.25647 99.71338 105.17029 111.047199 120.91411 127.42102 133.29793 138.75484 144.21175 147.40366 152.02057 157.89748 163.35439 169.8613 175.3182 178.51012 188.37703 194.46395 200.97086 204.11777 211.04468 216.7116 219.9035 223.89041 230.81732 236.27423 239.46614 244.92305 252.05997 258.56687 264.02378 268.01069 272.6276 278.7145 282.70143 288.15834 291.35026 296.80717 303.94407 307.09098 311.07789 317.1648 323.6717 326.8186 332.2755 335.46745 338.82435 344.70127 349.31819 352.5101 356.497 363.42393 368.88084 372.07276 377.73966 382.35658 388.2335 396.4204 400.40733 407.33424 410.52616 416.40309">They decompose rocks making the substrate suitable for the growth of</tspan><tspan y="-310.56044" x="60 66.8383 69.89661 75.47491 82.31321 87.68151 92.20981 94.640628 101.05892 104.11722 110.11552 116.95382 120.85212 126.22042 129.48873 131.91953 138.75783 141.81613 148.65444 154.02274 159.39104 161.82184 171.60015 177.38845 182.75675 188.12505 193.49335 198.86165 201.29245 204.56075 210.34905 214.87735 224.65566 227.08646 233.50476 238.87306 245.71137 251.07967 256.44798 258.87879 268.65708 274.65538 278.55366 283.92195 286.35276 292.14106 298.97935 301.41017 305.30848 312.14677 317.51506 319.94587 325.31416 331.10246 334.16075 337.21903 340.48735 342.91816 346.81648 353.65476 359.02305 364.60136 367.03218 371.56047 376.92875 383.34706 390.39537 395.76365 401.13194 403.56275 407.46107 414.29936">higher plants. Since mosses form dense mats on the soil, they reduce the</tspan><tspan y="-296.40043" x="60 63.0222 72.764408 79.14661 85.10881 90.44101 94.30321 96.699108 102.4513 105.6835 108.0794 111.3116 117.2738 120.296009 123.31821 126.34041 133.14261 138.68482 141.0807 145.5729 151.53511 154.55731 161.35951 163.7554 169.7176 176.5198 182.90201 185.2979 191.6801 196.1723 201.5045 206.8367 212.1689 218.9711 222.8333 225.22919 230.56139 236.31359 239.33579 242.35799 244.75388 250.08608 254.57828 260.33049 265.6627 268.68489 274.43708 281.23927 284.47148 286.86738 293.24958 300.05177 305.38398 307.77989 314.16209 318.65428 324.19648 329.94868 336.33088 343.13307 348.67527 352.53749 357.8697 363.2019 365.5978 371.56 376.0522 381.3844 383.7803 390.1625 393.1847 398.5169 401.5391 407.9213 413.2535">impact of falling rain and prevent soil erosion. The bryophytes are divided</tspan><tspan y="-282.4804" x="60 63.1025 69.985 73.9275 79.759998">into </tspan></text>
<text fill="#231f20" xml:space="preserve" transform="matrix(1 0 -0 1 -18 802.8)" font-size="10.5" font-family="Bookman"><tspan y="-282.4804" x="82.32 85.77001 89.43002 95.61003 101.58004 106.29005 114.57005 120.96006 125.67007 130.38008">liverworts</tspan></text>
<text fill="#231f20" xml:space="preserve" transform="matrix(1 0 -0 1 -18 802.8)" font-size="10.5" font-family="Bookman"><tspan y="-282.4804" x="135.84 138.2725 144.28502 151.13753 157.57004"> and </tspan></text>
<text fill="#231f20" xml:space="preserve" transform="matrix(1 0 -0 1 -18 802.8)" font-size="10.5" font-family="Bookman"><tspan y="-282.4804" x="160.08 170.65201 177.23401 182.766 188.298 194.46">mosses</tspan></text>
<text fill="#231f20" xml:space="preserve" transform="matrix(1 0 -0 1 -18 802.8)" font-size="10.5" font-family="Bookman"><tspan y="-282.4804" x="199.92">.</tspan></text>
<text fill="#00aeef" xml:space="preserve" transform="matrix(1 0 -0 1 -18 802.8)" font-size="12" font-family="Bookman"><tspan y="-256.5604" x="60 67.97999 72.11998 80.09997 84.23996 104.16 111.76 116 123.12 130 135.44 144.96 152.32 157.76001 163.20001">3.2.1Liverworts</tspan></text>
<text fill="#231f20" xml:space="preserve" transform="matrix(1 0 -0 1 -18 802.8)" font-size="10.5" font-family="Bookman"><tspan y="-236.40039" x="60.000005 66.5081 73.4362 78.8943 82.2479 85.396 88.544109 94.002208 99.460308 104.07841 112.26651 118.14461 122.76271 126.75081 132.20891 135.5625 141.2306 145.84871 151.7268 159.9149 163.2685 170.40659 175.86469 183.00278 189.09088 192.23899 195.38709 201.05519 204.40879 207.55689 214.48499 217.83858 227.70668 233.58478 236.73288 242.19098 246.17908 249.53717 252.89076 258.34889 265.27699 271.36509 277.87318 283.54127 286.89488 293.82298 299.91108 306.41917 309.56727 313.55537 319.64347 323.63157 329.08967 332.44328 337.90138 345.03947 350.49757 357.42567 360.77928 366.86738 372.32548 375.67909 382.18717 388.27528 395.20338 401.71147 407.16957 410.52317 416.40129">The liverworts grow usually in moist, shady habitats such as banks of</tspan><tspan y="-222.4804" x="60.000005 65.36401 69.258029 73.782039 79.14605 85.14006 94.91407 100.27808 103.54209 105.96861 115.74262 121.73663 126.26064 131.62465 138.45867 144.03267 146.45919 152.03319 156.5572 162.34122 169.38523 176.21924 182.63326 185.89727 188.32378 194.7378 200.7318 210.50582 216.91983 219.34635 224.71036 230.49437 233.54839 236.6024 239.86641 242.29293 248.70694 254.70095 259.22496 265.63896 268.06547 273.84947 277.11347 279.53999 283.434 287.958 293.32203 298.68605 304.05006 306.47657 312.47059 319.3046 325.7186 328.1451 334.5591 339.92314 345.28715 351.70115 354.12767 357.18168 364.0157 366.4422 370.3362 377.17024 382.53425 384.96076 393.05479 398.83879 404.62278 411.03678 416.4008">streams, marshy ground, damp soil, bark of trees and deep in the woods.</tspan><tspan y="-208.5604" x="60.000005 66.509418 73.43883 78.89824 81.574359 88.08376 91.23317 97.32258 104.25199 108.2414 110.91751 117.42692 123.30633 129.81574 135.48514 138.16124 144.04065 147.40006 150.07616 156.16558 158.84168 161.99109 165.1405 170.59992 176.05933 180.67874 188.86815 194.74756 199.36698 203.35639 206.03249 209.1819 214.64131 217.31742 221.30683 228.23624 234.32566 237.47507 240.62448 246.50389 249.6533 256.16273 259.52214 262.19825 267.65766 271.01707 276.68647 280.04588 283.40528">The plant body of a liverwort is thalloid, e.g., </tspan></text>
<text fill="#231f20" xml:space="preserve" transform="matrix(1 0 -0 1 -18 802.8)" font-size="10.5" font-family="Bookman" font-style="italic"><tspan y="-208.5604" x="286.079 295.299 301.99903 306.38905 311.61906 318.31907 325.01908 331.7191 335.4791 338.6091">Marchantia</tspan></text>
<text fill="#231f20" xml:space="preserve" transform="matrix(1 0 -0 1 -18 802.8)" font-size="10.5" font-family="Bookman"><tspan y="-208.5604" x="345.12 348.47203 351.12406 357.62608 364.54808 370.00007 372.6521 376.63414 383.55613 389.63813 392.78013 395.92213 403.05415 408.50614 411.15818 414.30018">. The thallus is</tspan><tspan y="-194.40039" x="60 66.50491 72.37982 76.994739 82.449649 85.59456 91.04947 96.50438 103.42929 107.4142 112.02911 118.11402 121.258937 124.002758 130.08766 137.01258 143.51749 146.2613 151.71622 154.86113 160.73604 166.19095 171.64586 174.79077 180.45569 183.19951 189.28443 195.78934 202.29425 206.90917 212.36408 217.81899 223.2739 228.7288 235.23372 237.97754 241.96245 247.83736 250.58118 254.56609 261.491 266.94593 269.68977 275.14466 282.27958 288.7845 294.23939 298.2243 302.8392 308.9241 312.90904 318.36396 321.71888 324.4627 330.96763 337.89253 343.3474 346.09126 349.23616 354.69105 360.77595 364.13087 369.79579 372.5396 382.4045 387.85945 397.72434 404.22926 409.68415 414.29905">dorsiventral and closely appressed to the substrate. The leafy members</tspan><tspan y="-180.4804" x="60 66.9273 73.0146 78.4719 83.9292 86.4565 90.443798 93.591098 100.518398 106.18569 108.71299 111.86029 117.31759 123.40489 126.76219 130.95949 134.10678 137.25408 143.76137 149.21868 151.74597 157.83327 164.34056 170.84786 176.30516 183.23247 189.73976 195.82706 201.49436 206.95166 212.40897 214.93627 218.08356 225.01087 227.53816 231.52547 239.71277 245.59008 248.11737 252.73467 258.61198 266.79927 272.25657 274.78388 280.66117 287.58848 290.11579 294.1031 301.0304 306.4877 309.015 314.47233 318.45964 323.91694 333.78425 337.98155 341.12886 344.27616 350.78346 356.24076 358.76808 364.22538 368.21269 372.83 379.9673 385.4246 389.4119 396.5492 401.1665 406.6238 412.08113">have tiny leaf-like appendages in two rows on the stem-like structures.</tspan><tspan y="-166.5604" x="78 85.13801 90.596019 96.05402 101.93204 109.070049 115.15806 118.30607 121.77028 126.38829 131.8463 138.35431 142.97232 148.85033 155.35834 162.49636 167.95436 171.94237 175.09038 180.96839 187.8964 191.36061 194.50862 201.43663 204.90085 208.04886 211.19687 216.65488 222.11289 226.7309 234.9189 240.7969 245.41492 249.40293 254.86093 258.32514 262.31315 268.40116 274.90916 280.36717 285.82518 289.28938 295.79737 298.94538 305.0334 310.4914 315.9494 319.4136 325.9216 331.5896 335.0538 338.4118 343.02983 349.11784 354.78584 364.65385 370.11186 377.03987 381.02787 387.11589 391.10389 394.2519 400.1299 407.05793 410.52214 416.40016">Asexual reproduction in liverworts takes place by fragmentation of</tspan><tspan y="-152.40039" x="60 64.02579 70.99158 77.11737 80.30316 83.48895 86.67474 90.07053 95.14403 101.059818 105.71561 110.78909 117.334888 123.04067 128.11417 132.13996 139.10575 144.60153 149.67502 153.0708 158.98659 163.64238 173.54817 179.67397 183.69976 186.88555 192.80133 199.76712 204.8406 210.7564 214.15219 219.22568 224.72147 231.26726 236.76305 242.25884 245.44463 251.57042 254.75621 257.942 263.43778 268.93357 275.47935 280.55284 286.0486 290.0744 294.7302 301.90599 307.40177 311.42756 318.60334 323.25914 328.7549 334.2507 339.3242 344.81999 350.94578 354.13157 357.31736 362.81315 369.35893">thalli, or by the formation of specialised structures called </tspan></text>
<text fill="#231f20" xml:space="preserve" transform="matrix(1 0 -0 1 -18 802.8)" font-size="10.5" font-family="Bookman"><tspan y="-152.40039" x="374.64 380.73 386.82 397.32 407.82 413.91">gemmae</tspan></text>
<text fill="#231f20" xml:space="preserve" transform="matrix(1 0 -0 1 -18 802.8)" font-size="10.5" font-family="Bookman"><tspan y="-138.4804" x="60 63.1464 68.6028 71.7492 78.6756 84.341999 87.698398 91.2923 96.958698 102.41509 112.281497 122.147899 128.2343 131.38069 134.73709 138.331 146.72739 152.18379 162.05019 171.91658 178.00298 183.45938 187.05329 193.13968 197.758 203.16881 206.71712 212.33792 216.95999 222.4149 227.86981 234.79473 238.14963 241.74204 251.60695 258.74186 261.88676 265.87168 269.01658 274.4715 279.9264 283.0713 286.2162 293.3511 296.496 302.5809 306.72 310.07893 313.67533 319.76423 325.22315 330.68208 336.56098 343.6999 349.7888 352.93769 356.5341 363.043 370.18193 376.69084 382.14976 385.50868 389.10508 397.29399 404.2229 407.3718 412.83073">(sing. gemma). Gemmae are green, multicellular, asexual buds, which</tspan><tspan y="-124.560398" x="60 66.5064 71.9628 77.4192 82.875598 86.021999 91.89839 98.40479 102.01569 105.162097 112.08849 115.699398 121.15579 131.02219 137.10858 140.25498 143.40137 147.01227 151.62866 157.08507 162.54148 167.99788 174.50428 178.49068 184.57707 190.03348 193.17987 198.63628 204.09268 207.70359 211.31449 216.77089 222.85729 226.00368 229.15007 234.60648 241.11287 244.72377 250.39017 255.84658 265.71299 275.57939 281.66578 285.27668 290.73307 297.86949 304.3759 309.83229 313.44319 316.58958 322.46598 327.92237 334.00877 337.99516 343.45155 349.95796 353.56886 359.44526 366.37165 369.98255 373.96894 380.89533 386.3517 389.96263 393.949 400.8754 406.9618 410.1082 413.25459 416.40098">develop in small receptacles  called gemma cups located on the thalli.</tspan><tspan y="-110.40039" x="60 66.50561 73.43122 78.88683 82.357448 88.023059 93.47867 103.34428 113.209888 119.295497 124.75111 128.22173 134.72734 140.18296 145.63857 151.51418 161.37979 166.8354 170.30602 176.81163 182.26725 186.25286 192.33847 197.79409 204.7197 210.17531 216.68093 220.15154 223.50714 228.12276 233.99837 243.86399 247.3346 251.3202 258.24583 263.70143 267.17204 273.67765 279.76325 284.37886 289.83445 296.76005 300.74565 304.21626 310.72187 316.59748 323.1031 328.7687 332.23933 338.32493 345.25053 351.75614 355.22676 360.89237 366.34797 370.96357 380.82917 383.97477 390.90037 396.98597 400.97157 406.42716 409.89778 413.88337">The gemmae become detached from the parent body and germinate to</tspan><tspan y="-96.48039" x="60 63.3572 69.2344 73.8516 83.7188 86.237117 93.164318 98.62151 106.808719 109.32703 112.47423 119.40143 125.90863 129.05583 134.51303 137.66024 144.16744 151.30464 157.39185 160.53905 165.99625 169.35344 171.87175 180.26895 187.40616 192.02336 195.17057 202.09777 207.76497 210.28328 215.74048 221.19768 227.07488 234.21208 240.29929 243.44649 245.9648 250.582 256.0392 262.54643 267.1636 273.0408 279.548 286.6852 292.14244 296.12965 299.27684 305.15403 312.08125 315.43846 317.95677 327.82395 333.91114 337.05833 342.51554 345.03385 351.12104 358.04823 364.55543 367.07374 370.43095 375.88816 385.75535 391.84254 394.98973 400.44694 402.96525 408.42247 413.87968">form new individuals. During sexual reproduction, male and female sex</tspan></text>
<g clip-path="url(#clip_6442)">
<text xml:space="preserve" transform="matrix(1 0 -0 1 259.314 763.99978)" font-size="8" font-family="Arial"><tspan y="6.316" x="0"> </tspan></text>
</g>
</g>
</svg>
