<svg xmlns="http://www.w3.org/2000/svg" xmlns:xlink="http://www.w3.org/1999/xlink" xmlns:inkscape="http://www.inkscape.org/namespaces/inkscape" version="1.1" width="576" height="784.8" viewBox="0 0 576 784.8">
<defs>
<clipPath id="clip_2090">
<path transform="matrix(1,0,0,-1,-18,802.8)" d="M18 18H594V802.8H18Z" clip-rule="evenodd"/>
</clipPath>
<clipPath id="clip_2091">
<path transform="matrix(1,0,0,-1,259.314,763.9998)" d="M0-8H57.372V.800049H0Z"/>
</clipPath>
</defs>
<g>
<g clip-path="url(#clip_2090)">
<path transform="matrix(.24,0,0,-.24,-18,802.8)" d="M0 3035.83H2550V3372.705H0Z" fill="#d1d3d4" fill-rule="evenodd"/>
<path transform="matrix(.24,0,0,-.24,-18,802.8)" d="M0 3078.33H2550V3419.998H0Z" fill="#e1ecb6" fill-rule="evenodd"/>
<text fill="#231f20" xml:space="preserve" transform="matrix(1 0 -0 1 -18 802.8)" font-size="11" font-family="Bookman"><tspan y="-730.081" x="84">P</tspan></text>
<text fill="#231f20" xml:space="preserve" transform="matrix(1 0 -0 1 -18 802.8)" font-size="7.7" font-family="Bookman"><tspan y="-730.081" x="90.72 96.8355 102.951007 107.680507 113.796009 118.8335 123.717 129.3705 134.1 140.2155 145.715 150.7525 153.326">HOTOSYNTHESIS</tspan></text>
<text fill="#231f20" xml:space="preserve" transform="matrix(1 0 -0 1 -18 802.8)" font-size="11" font-family="Bookman"><tspan y="-730.081" x="158.4"> </tspan></text>
<text fill="#231f20" xml:space="preserve" transform="matrix(1 0 -0 1 -18 802.8)" font-size="7.7" font-family="Bookman"><tspan y="-730.081" x="160.79999 163.50328">IN</tspan></text>
<text fill="#231f20" xml:space="preserve" transform="matrix(1 0 -0 1 -18 802.8)" font-size="11" font-family="Bookman"><tspan y="-730.081" x="169.19998 171.68129"> H</tspan></text>
<text fill="#231f20" xml:space="preserve" transform="matrix(1 0 -0 1 -18 802.8)" font-size="7.7" font-family="Bookman"><tspan y="-730.081" x="180.47998 183.01218 189.08638 195.16059 200.61879">IGHER</tspan></text>
<text fill="#231f20" xml:space="preserve" transform="matrix(1 0 -0 1 -18 802.8)" font-size="11" font-family="Bookman"><tspan y="-730.081" x="206.15998 208.70128"> P</tspan></text>
<text fill="#231f20" xml:space="preserve" transform="matrix(1 0 -0 1 -18 802.8)" font-size="7.7" font-family="Bookman"><tspan y="-730.081" x="215.51998 220.08818 225.27239 230.91858 235.64078">LANTS</tspan></text>
<path transform="matrix(.24,0,0,-.24,482.6352,53.635194)" d="M0 0C7.32 7.32 16.16 10.98 26.52 10.98H97.35C107.71 10.98 116.55 7.32 123.87 0 131.19-7.33 134.85-16.17 134.85-26.52V-101.52C134.85-111.88 131.19-120.72 123.87-128.04 116.55-135.36 107.71-139.02 97.35-139.02H26.52C16.16-139.02 7.32-135.36 0-128.04-7.32-120.72-10.98-111.88-10.98-101.52V-26.52C-10.98-16.17-7.32-7.33 0 0" fill="#ffffff" fill-rule="evenodd"/>
<text fill="#231f20" xml:space="preserve" transform="matrix(1 0 -0 1 -18 802.8)" font-size="11" font-family="Bookman"><tspan y="-729.361" x="505.92 513.21 520.5">143</tspan></text>
<path transform="matrix(.24,0,0,-.24,-18,802.8)" d="M2 2H2548V214.668H2Z" fill="#cbdf7f" fill-rule="evenodd"/>
<path transform="matrix(.24,0,0,-.24,-18,802.8)" stroke-width="4" stroke-linecap="butt" stroke-miterlimit="1000" stroke-linejoin="miter" fill="none" stroke="#cbdf7f" d="M2 2H2548V214.668H2Z"/>
<path transform="matrix(.24,0,0,-.24,579.6,.11999512)" stroke-width="1" stroke-linecap="butt" stroke-miterlimit="10" stroke-linejoin="miter" fill="none" stroke="#000000" d="M0 0H60"/>
<path transform="matrix(.24,0,0,-.24,576.12,-18)" stroke-width="1" stroke-linecap="butt" stroke-miterlimit="10" stroke-linejoin="miter" fill="none" stroke="#000000" d="M0 0V-60"/>
<path transform="matrix(.24,0,0,-.24,579.6,784.44)" stroke-width="1" stroke-linecap="butt" stroke-miterlimit="10" stroke-linejoin="miter" fill="none" stroke="#000000" d="M0 0H60"/>
<path transform="matrix(.24,0,0,-.24,576.12,788.16)" stroke-width="1" stroke-linecap="butt" stroke-miterlimit="10" stroke-linejoin="miter" fill="none" stroke="#000000" d="M0 0V-59"/>
<path transform="matrix(.24,0,0,-.24,-17.88,-18.23999)" stroke-width="1" stroke-linecap="butt" stroke-miterlimit="10" stroke-linejoin="miter" fill="none" stroke="#000000" d="M0 0V-75"/>
<text fill="#231f20" xml:space="preserve" transform="matrix(1 0 -0 1 -18 802.8)" font-size="10.5" font-family="Bookman"><tspan y="-688.561" x="78 84.9187 90.3674 93.5061 98.9548 105.873508 109.8522 112.990909 118.439609 122.418308 127.867008 130.3782 136.45691 139.59561 145.04431 150.91301 153.42421 157.40291 162.01161 165.15032 170.59902 177.09772 179.60892 183.58762 189.45632 191.96752 198.46622 205.38492 211.25362 219.43231 221.94351 230.12221 237.04091 242.48961 246.4683 253.38701 258.83573 263.44444 265.95564 272.03434 275.17304 278.31175 280.82295 287.32164 290.46034 296.53904 303.45774 307.43644 312.88514 315.39634 322.31504 328.39375 333.84245 339.29115 341.80235 348.30104 356.68974 363.81843 366.32963 372.40834 377.85704 380.36824 384.34693 391.26564 396.71434 399.22554 402.57423 405.71293 410.32164 415.77033">Scientists also tried to know whether all plants have PGA as the first</tspan><tspan y="-674.401" x="60 66.505 71.119998 76.994998 83.49999 90.634998 96.09 100.075 104.18 110.055 113.41 117.51501 125.28001">product of CO</tspan></text>
<text fill="#231f20" xml:space="preserve" transform="matrix(1 0 -0 1 -18 802.8)" font-size="6.1" font-family="Bookman"><tspan y="-671.041" x="133.68">2</tspan></text>
<text fill="#231f20" xml:space="preserve" transform="matrix(1 0 -0 1 -18 802.8)" font-size="10.5" font-family="Bookman"><tspan y="-674.401" x="137.51999 141.6565 145.0152 148.1639 154.0426 160.1313 164.12 167.26869 173.1474 180.0761 183.4348 187.5713 193.45001 198.06871 202.20522 210.39392 217.32262 222.78131 226.77 233.6987 239.1574 243.7761 247.9126 254.0013 260.93 266.5987 270.7352 276.6139 280.6026 287.5313 292.99003 297.60874 301.74525 308.25395 312.87266 318.75135 325.26005 332.39875 337.85746 341.84617 345.98268 354.17137 360.26008 365.71879 369.8553 373.214 379.09269 383.7114 393.5801 399.03883 405.54753 409.68403 412.83274"> fixation, or whether any other product was formed in</tspan><tspan y="-660.481" x="59.999994 65.87779 69.86559 76.793399 82.2512 86.868999 89.8995 96.407299 99.55509 105.64289 112.570697 116.558498 122.0163 125.3741 128.4046 135.9624 141.84021 148.348 153.8058 158.4236 161.5714 171.4392 176.89699 183.82479 187.81258 193.27037 196.30088 201.75867 207.63648 214.56427 221.07207 228.20987 233.66767 237.65546 243.11325 249.62105 252.65155 258.52937 263.98716 269.44496 274.06275 277.09324 283.18104 286.21153 294.39933 297.54713 304.05494 309.51274 312.5432 317.161 323.2488 330.1766 335.8444 341.3022 344.33268 350.21049 353.56828 356.59877 363.10658 366.25437 372.34217 379.26997 383.25776 388.71556 391.74604 394.89384 400.35163 406.85945 409.88993 413.87773">other plants. Experiments conducted over a wide range of plants led to</tspan><tspan y="-646.56106" x="59.999994 63.910493 70.760997 76.141498 78.584499 85.015 88.0855 93.466 98.846508 104.647 110.027507 115.408008 119.9485 125.539 127.982 133.7825 137.063 139.50601 145.51651 152.367 158.16751 162.07802 168.92852 174.309 178.8495 181.29251 186.88301 191.42351 197.22402 204.28452 210.71501 213.15802 218.95853 222.23903 224.68204 231.11254 234.18303 240.19353 247.04402 250.95453 256.33503 259.6155 262.0585 270.169 277.0195 282.4 286.9405 292.32099 294.76399 298.67448 305.52497 310.90547 313.34846 316.62895 319.69944 324.23994 329.62043 333.5309 335.9739 341.3544 345.2649 351.2754 357.7059 360.7764 366.1569 368.59989 375.0304 379.5709 385.3714 391.8019 398.8624 404.2429 408.15339 410.59638 416.39689">the discovery of another group of plants, where the first stable product of</tspan><tspan y="-632.40109" x="59.999994 67.67999">CO</tspan></text>
<text fill="#231f20" xml:space="preserve" transform="matrix(1 0 -0 1 -18 802.8)" font-size="6.1" font-family="Bookman"><tspan y="-629.0411" x="76.079998">2</tspan></text>
<text fill="#231f20" xml:space="preserve" transform="matrix(1 0 -0 1 -18 802.8)" font-size="10.5" font-family="Bookman"><tspan y="-632.40109" x="79.91999 84.10209 87.46339 90.614688 96.49599 102.58729 106.57859 109.72989 115.61119 122.54249 126.72459 134.9159 141.00719 146.46849 150.65059 156.74188 162.41318 168.50447 171.65578 178.58708 182.76918 188.86048 195.79178 199.97388 205.85518 210.47649 216.14778 222.23908 229.17038 232.32169 237.78299 241.96509 248.05638 253.51769 256.66899 263.18028 266.54158 270.72367 277.23497 284.37626 288.36756 292.54966 298.43095 305.36225 310.82356 315.00566 323.19697 330.12828 333.27958 338.74089 345.67219 349.85429 356.78559 362.8769 369.38819 373.57029 380.08158 384.26368 389.72499 395.81629 400.4376 406.94889 412.83018"> fixation was again an organic acid, but one which had 4 carbon</tspan><tspan y="-618.4811" x="59.999994 65.97839 69.8568 75.6252 85.3836 90.732 93.1471 96.1855 103.0039 105.419 108.4574 112.3358 115.5842 117.9993 124.3977 131.2161 134.2545 139.6029 142.018 147.9964 153.3448 156.38321 162.78162 165.19672 173.27512 179.25351 184.60192 187.01702 190.05542 196.45383 201.80223 208.62064 212.49904 215.53745 218.78585 221.82425 227.17266 233.57106 235.98616 239.86457 245.63297 248.04807 254.44647 259.79487">atoms in it. This acid was identified to be </tspan></text>
<text fill="#231f20" xml:space="preserve" transform="matrix(1 0 -0 1 -18 802.8)" font-size="10.5" font-family="Bookman"><tspan y="-618.4811" x="262.08 268.4373 274.5846 280.52189 283.93919 290.29649 296.23377 302.17106 308.10835 312.78565 316.41294 322.35023 324.8175 330.7548 336.69209 340.31938">oxaloacetic acid</tspan></text>
<text fill="#231f20" xml:space="preserve" transform="matrix(1 0 -0 1 -18 802.8)" font-size="10.5" font-family="Bookman"><tspan y="-618.4811" x="347.03999 349.43928 355.20857 359.71788 362.11717 370.40647 377.43577 384.46507 387.71437 390.11366 392.51295 399.33226 402.37156 409.19087 414.54017"> or OAA.  Since</tspan><tspan y="-604.5611" x="59.99997 63.943269 70.82657 76.23987 83.12317 85.63647 93.359767">then CO</tspan></text>
<text fill="#231f20" xml:space="preserve" transform="matrix(1 0 -0 1 -18 802.8)" font-size="6.1" font-family="Bookman"><tspan y="-600.9611" x="101.759967">2</tspan></text>
<text fill="#231f20" xml:space="preserve" transform="matrix(1 0 -0 1 -18 802.8)" font-size="10.5" font-family="Bookman"><tspan y="-604.5611" x="105.35996 107.825969 113.86287 119.26977 124.67667 127.77357 137.59047 140.68737 143.78426 149.82115 153.75806 156.85495 162.68186 169.55876 172.02477 178.48166 185.56856 190.13545 193.23235 200.10926 205.72615 208.19216 214.64905 221.52596 227.35286 231.28977 237.11667 242.52358 248.14048 255.01738 258.95429 265.83119 271.23808 276.64497 279.74186 285.14875 287.61473 290.08073 298.21763 304.25453 309.6614 312.1274 317.5343 323.5712 326.6681 333.125 335.59098 339.52787 345.35478 347.82078 354.27769 359.68458 362.15055 367.97746 371.28437 373.75035 377.68724 385.82414 391.65104 394.11705 403.93394 409.97084 413.06773"> assimilation during photosynthesis  was said to be of two main</tspan><tspan y="-590.4011" x="59.99996 63.988565 69.657169 76.165767 81.62437 87.08297 90.44157 93.061267 97.049869 103.97847 109.85707 115.315677 120.77428 123.393978 129.90258 133.05118 139.13979 146.06839 150.05699 155.5156 158.13529 161.28389 168.2125 170.83219 179.02079 185.94939 189.09799 194.5566 201.4852 204.10489 208.09349 215.0221 220.4807 223.10039 226.45899 229.60759 234.2262 239.6848 243.6734 246.29309 252.8017 257.4203 263.2989 269.8075 276.9461 282.4047 286.39329 289.013 294.8916 298.2502 300.86994 308.63853">types: those plants in which the first product of CO</tspan></text>
<text fill="#231f20" xml:space="preserve" transform="matrix(1 0 -0 1 -18 802.8)" font-size="6.1" font-family="Bookman"><tspan y="-587.04116" x="317.03999">2</tspan></text>
<text fill="#231f20" xml:space="preserve" transform="matrix(1 0 -0 1 -18 802.8)" font-size="10.5" font-family="Bookman"><tspan y="-590.4011" x="320.87998 323.48597 326.84196 329.98796 335.86396 341.94996 345.93595 349.08195 354.95796 361.88395 364.48994 367.63594 373.09193 375.6979 381.7839 384.3899"> fixation is a C</tspan></text>
<text fill="#231f20" xml:space="preserve" transform="matrix(1 0 -0 1 -18 802.8)" font-size="6.1" font-family="Bookman"><tspan y="-587.04116" x="392.15998">3</tspan></text>
<text fill="#231f20" xml:space="preserve" transform="matrix(1 0 -0 1 -18 802.8)" font-size="10.5" font-family="Bookman"><tspan y="-590.4011" x="395.99998 398.59498 404.66999 410.115 413.25"> acid</tspan><tspan y="-576.48117" x="59.99997 63.04747 69.45497 77.75247 84.78997 87.83747 91.09497 93.51917 96.56667 99.82417 105.18167 108.43917 111.69667 114.12087 118.00837 124.83587 130.19338">(PGA), i.e., the </tspan></text>
<text fill="#231f20" xml:space="preserve" transform="matrix(1 0 -0 1 -18 802.8)" font-size="10.5" font-family="Bookman"><tspan y="-576.48117" x="132.47998">C</tspan></text>
<text fill="#231f20" xml:space="preserve" transform="matrix(1 0 -0 1 -18 802.8)" font-size="6.1" font-family="Bookman"><tspan y="-572.88119" x="140.63999">3</tspan></text>
<text fill="#231f20" xml:space="preserve" transform="matrix(1 0 -0 1 -18 802.8)" font-size="10.5" font-family="Bookman"><tspan y="-576.48117" x="144.47998 147.14109 153.90218 160.03328 164.90438 172.08548 180.52658 186.65769 193.20879 196.81989"> pathway, </tspan></text>
<text fill="#231f20" xml:space="preserve" transform="matrix(1 0 -0 1 -18 802.8)" font-size="10.5" font-family="Bookman"><tspan y="-576.48117" x="199.19998 205.18228 212.00458 218.40688 220.82028 224.70258 231.52487 237.29717 242.64946 248.00176 250.41516 253.45746 260.27976 262.69316 270.77546 277.59776 280.64006 285.99235 292.81465 295.22804 299.11033 305.93263 311.2849 313.6983 316.9506 319.9929 324.5052 329.85749 333.73979 336.15318 342.55549 347.06779 352.8401 359.2424 366.2747 371.62699 375.50929 377.92268 386.00498 391.98728 397.33958 399.75297 405.73527 408.14866">and those in which the first product was a C</tspan></text>
<text fill="#231f20" xml:space="preserve" transform="matrix(1 0 -0 1 -18 802.8)" font-size="6.1" font-family="Bookman"><tspan y="-572.88119" x="415.91999">4</tspan></text>
<text fill="#231f20" xml:space="preserve" transform="matrix(1 0 -0 1 -18 802.8)" font-size="10.5" font-family="Bookman"><tspan y="-562.56118" x="59.99997 66.08137 71.53277 74.67417 81.17557 84.97697 88.11837 96.50977 103.641178 110.772579 113.91398 117.26538 121.06678 124.20818 127.559589 133.01099 136.36238 139.71378 143.51517 147.49657 154.41797 159.86937">acid (OAA), i.e., the </tspan></text>
<text fill="#231f20" xml:space="preserve" transform="matrix(1 0 -0 1 -18 802.8)" font-size="10.5" font-family="Bookman"><tspan y="-562.56118" x="163.67996">C</tspan></text>
<text fill="#231f20" xml:space="preserve" transform="matrix(1 0 -0 1 -18 802.8)" font-size="6.1" font-family="Bookman"><tspan y="-558.9612" x="172.07996">4</tspan></text>
<text fill="#231f20" xml:space="preserve" transform="matrix(1 0 -0 1 -18 802.8)" font-size="10.5" font-family="Bookman"><tspan y="-562.56118" x="176.15996 180.34287 187.17577 193.37866 198.32157 205.57447 214.08736 220.29026"> pathway</tspan></text>
<text fill="#231f20" xml:space="preserve" transform="matrix(1 0 -0 1 -18 802.8)" font-size="10.5" font-family="Bookman"><tspan y="-562.56118" x="226.79996 230.15625 233.97684 237.79743 244.30373 251.23003 256.68635 262.14265 267.59895 271.41954 275.40583 283.59214 289.46846 293.28904 298.95533 303.57164 309.44795 316.58424 323.0905 328.5468 332.3674 338.2437 341.6 345.4206 351.92689 355.07319 361.1595 368.0858 372.07209 377.52839 381.34898 386.80528 393.73158 399.60789 407.7942 413.2505">.  These two groups of plants showed</tspan><tspan y="-548.4012" x="59.999956 65.814258 69.738559 76.60286 81.99716 86.55146 89.01006 95.03436 100.428668 105.82297 111.63727 117.03157 120.11587 126.14017 130.06447 135.45877 141.90308 144.36168 149.75598 156.62029 162.64459 167.1989 173.2232 178.61751 182.54181 187.93611 192.49042 195.57472 200.96903 204.89333 207.97763 213.37194 218.76624 221.22484 225.14914 232.01345 238.03775 241.96205 244.42066 252.54496 257.93925 260.39787 268.52217 271.60646 274.69075 277.77503 280.23365 286.67796 289.76225 295.15653 300.5508 307.62513 313.0194 318.4137 320.8723 323.9566 329.9809 333.90519 339.29948 343.19996">other associated characteristics that we will discuss later.</tspan></text>
<text fill="#00aeef" xml:space="preserve" transform="matrix(1 0 -0 1 -18 802.8)" font-size="12" font-family="Bookman"><tspan y="-522.2412" x="59.99994 68.35194 76.70393 81.215938 89.56793 94.07993 107.99994 116.38754 124.53514 131.48274 136.28784 144.19544 149.70304 154.01064 165.99823 172.94583 178.45343 185.88103 190.68613 199.31372 206.26132 213.20893 220.15653 227.82413 233.33173 240.75933 246.26692 251.07202 258.49964 263.04725 267.85234 276.71995">11.7.1The Primary Acceptor of CO</tspan></text>
<text fill="#00aeef" xml:space="preserve" transform="matrix(1 0 -0 1 -18 802.8)" font-size="7" font-family="Bookman"><tspan y="-518.1612" x="286.31996">2</tspan></text>
<text fill="#231f20" xml:space="preserve" transform="matrix(1 0 -0 1 -18 802.8)" font-size="10.5" font-family="Bookman"><tspan y="-502.0812" x="59.99994 66.19694 71.55394 75.44094 77.85954 84.896549 90.25355 92.67215 99.49915 105.27615 113.36315 115.78175 121.76875 127.125759 133.53276 135.95137 141.72837 148.76537 153.28237 158.63936 163.99636 167.04335 172.40035 177.75734 183.11434 185.53295 191.51995 193.93856 199.92555 206.96256 212.31955 217.67655 221.56354 224.61054 230.38753 237.21453 239.63314 243.52013 250.34712 256.33415 260.22114 262.6397 270.7267 276.7137 282.0707 284.4893 290.4763 295.83329 302.2403 307.5973 314.0043 316.42289 322.8299 328.39689 330.81547 334.70246 341.52946 346.88645 349.30503 354.66203 360.019 363.066 368.423 375.25 379.137 382.184 387.541 391.42799 396.78498 399.20356 407.29057 414.11756">Let us now ask ourselves a question that was asked by the scientists who</tspan><tspan y="-488.1612" x="59.99994 67.94354 73.15714 77.53075 82.74435 85.02935 90.24295 93.98655 98.36015 105.25375 110.67735 116.10095 119.004558 121.90816 128.59175 134.01535 136.30036 140.04396 145.67757 147.96257 154.85617 161.53977 167.80336 173.01697 177.39057 182.60417 186.34778 192.19138 198.87497 205.13857 207.42357 211.16718 217.85077 223.06438 225.34938 227.41298 233.67658 239.52017 243.89377 250.15737 252.44237 256.81599 262.02958 267.87318 273.08677 276.83036 279.73396 285.36756 292.05116 294.11476 297.22834">were struggling to understand the &#x2018;dark reaction&#x2019;. </tspan></text>
<text fill="#231f20" xml:space="preserve" transform="matrix(1 0 -0 1 -18 802.8)" font-size="10.5" font-family="Bookman" font-style="italic"><tspan y="-488.1612" x="299.51997 307.76097 313.27195 322.35295 324.49394 333.57493 339.92594 346.27696 352.41795 354.55894 359.43995 365.79096 369.83198 375.97297 381.48396 387.83497 389.97596 396.32698 399.73799 405.24897 414.32997">How many carbon atoms</tspan><tspan y="-474.0012" x="59.999956 69.34625 75.12255 81.73885 84.78516 91.61146 94.36776 100.98406 103.740367 113.08666 118.86296 121.90926 127.68556 132.83187 139.44817 142.49446 148.27077 151.02707 157.64337 164.25968 170.03598 175.81229 178.56859 187.91489 194.53119 197.57749 202.72379 209.34009 212.09639 218.71269 222.38899 226.06529 231.8416 236.1479 238.9042 245.52051 250.66681 255.81311 261.58943 267.99574 271.67204 274.71833 281.33464 287.32093 290.0772 293.1235 296.7998 299.8461 305.6224 308.6687 315.285 321.2713 324.3176 327.07389 334.74018">would a molecule have which after accepting (fixing) CO</tspan></text>
<text fill="#231f20" xml:space="preserve" transform="matrix(1 0 -0 1 -18 802.8)" font-size="6.1" font-family="Bookman" font-style="italic"><tspan y="-470.6412" x="342.71998">2</tspan></text>
<text fill="#231f20" xml:space="preserve" transform="matrix(1 0 -0 1 -18 802.8)" font-size="10.5" font-family="Bookman" font-style="italic"><tspan y="-474.0012" x="346.55998 349.72538 352.37419 361.62959 367.31498 373.84037 376.79579 383.5312 386.18 392.70539 399.23078 404.91618 410.60157 413.25038">, would have 3</tspan><tspan y="-460.08119" x="59.99997 65.18057 71.83118 76.171779 82.61237 88.42297 95.07358 100.88418 104.099788 107.18038 112.99098 116.701587 119.91719 126.35779 134.4784 141.969 145.04959">carbons (of PGA)?</tspan></text>
<text fill="#231f20" xml:space="preserve" transform="matrix(1 0 -0 1 -18 802.8)" font-size="10.5" font-family="Bookman"><tspan y="-446.16117" x="77.99997 84.50727 91.43457 96.89187 100.91167 106.368968 110.35626 117.49356 124.00086 127.14816 132.60547 138.06278 142.08258 147.53989 152.9972 157.61449 163.28179 167.30159 174.43889 181.3662 186.8235 192.7008 199.2081 204.6654 210.12271 214.11002 219.56732 226.07462 229.22191 234.8892 238.90901 244.36632 251.29363 257.17094 265.35823 270.81553 277.3228 281.34263 285.32994 292.25724 298.34455 302.33186 306.35166 310.33897 317.26628 322.72358 326.74339 332.8307 338.288 343.7453 349.2026 355.7099 359.6972 365.5745 370.1918 374.2116 384.07893 389.9562 393.10353 398.56083 404.01814 411.15544 414.30274">The studies very unexpectedly showed that the acceptor molecule</tspan><tspan y="-432.00117" x="59.99997 68.16347 74.22697 79.66047 82.99397 89.05747 92.390979 98.87447 103.04797 108.481479 114.544979 119.13847 125.62197 131.47547 138.37897 141.71247 148.19597 153.62947 157.59297 163.44647 168.87998 174.31348 177.64698 183.08048 190.19397 195.83747 201.90097 206.49448 209.82798 215.05147 218.38497 222.97847 226.10198 232.58548 239.69898 242.82248 248.67598 254.10948 259.54298 262.87648 269.35997 272.48347 277.91697 284.40046 291.30397 297.15745 302.59095 309.07444 315.97795 322.04145 326.00495 331.43846 334.77195 337.89546 345.42897 352.54246 360.28596 366.76945 369.89295 373.22645 376.55995">was a 5-carbon ketose sugar &#x2013; ribulose bisphosphate (RuBP).  </tspan></text>
<text fill="#231f20" xml:space="preserve" transform="matrix(1 0 -0 1 -18 802.8)" font-size="10.5" font-family="Bookman" font-style="italic"><tspan y="-432.00117" x="379.91999 387.68 390.61 397.31999 400.46 406.96 413.46">Did any</tspan><tspan y="-418.08116" x="59.99997 65.81547 69.53097 73.05147 79.49697 85.31247 91.96797 95.48847 99.20397 105.859477 108.94498 115.60048 122.04598 125.56648 131.38199 135.09749 138.618 142.3335 148.989 152.0745 157.89 161.4105 167.856 173.67151 179.48702 185.30252 188.38802 194.83351 197.919 201.0045 204.09 207.8055 214.25099 220.0665">of you think of this possibility? </tspan></text>
<text fill="#231f20" xml:space="preserve" transform="matrix(1 0 -0 1 -18 802.8)" font-size="10.5" font-family="Bookman"><tspan y="-418.08116" x="223.43997 227.03568 235.43567 241.31568 244.91138 251.84137 257.72138 261.71138 265.30705 273.49705 279.37705 283.99705 288.61705 294.28706 297.64704 301.2427 305.2327 312.1627 317.62269 321.21836 326.67835 332.13835 335.28834 340.74833 347.6783 351.6683 354.8183 360.2783 364.26829 369.72828 373.32395 379.41395 382.56394 388.02394 393.90394 397.4996 401.4896 407.3696 413.2496"> Do not worry; the scientists also took</tspan><tspan y="-404.16114" x="59.99997 66.01517 69.30037 72.37557 78.18077 85.03597 90.63117 93.916378 97.83157 100.90678 110.70198 116.08718 119.37238 125.38758 132.24279 138.67798 141.96318 147.34839 153.1536 160.00879 166.44399 173.50919 178.89438 182.80959 188.1948 194.62999 197.91519 207.71039 213.72559 220.58078 226.17598 229.46118 234.84638 240.65158 247.08678 252.47199 257.01719 260.09239 269.88758 275.27278 282.12797 286.04316 291.42835 294.71354 298.62873 304.43394 307.71913 312.2643 317.6495 323.6647 329.0499 335.9051 339.19029 343.10548 349.96067 353.03587 358.42106 361.70625 367.09144 372.89665 379.75184 385.13703 388.21223 395.2774 400.6626 403.7378 409.543 416.3982">a long time and conducted many experiments to reach this conclusion.</tspan><tspan y="-390.00114" x="59.99997 66.32557 73.07117 78.34677 83.832378 87.00797 92.913578 95.87917 101.15477 106.85037 110.02597 116.35157 121.62717 124.592769 127.558368 132.83397 138.10958 143.38518 149.71079 152.88639 156.69199 163.43759 169.34319 173.14879 176.32439 181.59999 184.5656 191.3112 196.5868 201.86241 205.03801 208.84362 215.58922 220.86483 224.04042 227.21602 230.18163 234.61722 239.89282 243.69843 246.87403 253.19963 257.63523 263.3308 269.6564 276.612 281.8876 285.6932 288.8688 296.87443 302.78004 308.05564 311.23124 317.13685 320.31245">They also believed that since the first product was a C</tspan></text>
<text fill="#231f20" xml:space="preserve" transform="matrix(1 0 -0 1 -18 802.8)" font-size="6.1" font-family="Bookman"><tspan y="-386.64115" x="327.83998">3</tspan></text>
<text fill="#231f20" xml:space="preserve" transform="matrix(1 0 -0 1 -18 802.8)" font-size="10.5" font-family="Bookman"><tspan y="-390.00114" x="331.43998 334.60939 340.5088 345.7782 348.7376 355.057 358.2264 361.3958 365.19523 371.93464 377.20405 380.37345 386.69285 391.12226 394.08168 403.76109 409.6605 414.0899"> acid, the primary</tspan><tspan y="-376.08113" x="59.99997 65.99497 71.35997 76.72497 82.089969 88.50497 92.39996 98.18497 102.70997 105.97497 114.06997 119.85497 126.89997 129.95497 136.36997 139.63497 146.04996 151.41497 154.67996 160.67496 163.93996 170.35495 174.45995 179.82495 185.81995 190.34494 196.75994 202.54494 209.37995 212.64495 218.00995 223.79496 233.56995 239.98494 245.76995 252.81494 259.64994 266.06495 269.32997 272.59498 276.48997 283.32496 288.68995 294.26496 297.52998 302.89497 309.30998 314.67497 321.50996 325.40495 328.66996 338.44496 344.43995 351.27494 356.84996 360.11497 365.68998 371.05497 377.04997 381.57496 386.93995 390.20497 394.09996 398.62495 404.19996 407.25495 414.08995">acceptor would be a 2-carbon compound; they spent many years trying</tspan><tspan y="-362.1611" x="59.99997 63.98727 69.86457 73.80517 76.95247 83.45977 88.91707 95.84437 99.831668 102.978969 106.336269 112.00356 115.94416 122.03146 125.97206 132.47936 136.67665 142.13396 148.22126 152.83855 159.34584 165.22315 172.15045 176.09105 181.54836 187.42566 197.29296 203.80025 209.67755 216.81485 223.74216 230.24945 234.19005 240.69734 246.15465 249.51195 255.38925 260.00657 265.46388 269.40449 273.39179 280.3191 285.7764 291.4437 295.3843 301.8916 305.0389 310.49623 315.95353 321.8308 327.28813 332.74543 337.36274 342.82005 349.32734 353.26795 357.25526 364.18257 369.63987 373.58049 380.08778 384.28507 389.74238 395.82969 400.447 406.95429 412.83158">to identify a 2-carbon compound before they discovered the 5-carbon</tspan><tspan y="-348.0011" x="59.99997 67.49997 74.57997 82.28997 88.07997">RuBP.</tspan></text>
<text fill="#00aeef" xml:space="preserve" transform="matrix(1 0 -0 1 -18 802.8)" font-size="12" font-family="Bookman"><tspan y="-321.8411" x="59.99997 68.35197 76.703968 81.215969 89.56796 94.07996 107.99997 116.38727 124.53457 131.48188 134.92418 143.79148 150.73877 154.80608 161.99338 166.30068 174.44797 177.89028 186.75757 194.18488 201.13217 205.19948">11.7.2The Calvin Cycle</tspan></text>
<text fill="#231f20" xml:space="preserve" transform="matrix(1 0 -0 1 -18 802.8)" font-size="10.5" font-family="Bookman"><tspan y="-301.6811" x="59.99997 67.52637 73.372768 76.27917 81.49557 84.40197 91.08837 93.36847 99.21487 105.90127 112.16767 114.44777 121.13417 124.04057 129.25698 131.53707 136.75347 142.38986 146.34627 154.29267 159.92906 164.30547 170.57187 175.78827 180.16468 185.38108 187.66117 191.40756 198.09397 203.31037 209.99677 212.27686 220.22325 225.85965 230.23606 236.50246 241.71886 247.98526 250.26535 255.90175 262.79817 266.54457 268.82466 272.57106 279.25746 284.47386 286.75395 294.70036 301.38676 307.02317 309.92958 315.14598 317.42607 323.69245 329.53886 333.28526 339.97166 347.91807 353.76448 359.19087 361.47096 367.31736 374.00376 380.27015 382.55024 387.76664 394.45304 400.08946 408.03587 413.25227">Calvin and his co-workers then worked out the whole pathway and showed</tspan><tspan y="-287.76109" x="59.99997 63.84887 70.63777 76.58667 80.43557 82.81817 86.66707 93.45597 98.77487 101.15747 107.52637 113.475269 117.324169 124.11307 132.16197 138.11087 143.63977 146.02237 151.76128 158.13018 163.44907 167.92797 173.87686 177.72577 183.04467 189.41356 191.79616 194.80506 201.59395 203.97655 209.92545 212.30805 217.62694 223.15584 228.47473 231.48363 234.49253 239.81142 242.19402 251.92292 257.87184 264.66075 271.44966 276.76856 281.24748 284.46638 286.84898 290.69789 297.4868 302.8057 305.1883 312.6072 319.6061 327.23503 333.6039 335.9865 344.0354 349.9843 355.30323 357.68583 362.16474 367.48365 373.01255 378.33146 385.12037 390.43928 394.91819 400.8671 404.716 410.0349 416.4038">that the pathway operated in a cyclic manner; the RuBP was regenerated.</tspan><tspan y="-273.60108" x="59.99997 66.19367 71.54737 75.43107 78.419368 85.453067 90.80676 93.79506 100.61876 106.392459 114.47616 117.464458 122.81815 128.17186 133.52556 136.51387 143.33757 149.11127 157.19496 160.18328 164.06697 170.89067 176.24437 179.23268 186.89638 192.88008 195.92378 201.27748 204.32118 211.14488 214.1332 220.5369 226.5206 230.4043 237.228 245.31169 251.2954 256.8591 259.84739 265.6211 272.02479 277.37849 281.89219 287.8759 291.75959 297.11329 302.46699 305.45527 311.43898 318.26268 324.66636 327.65464 335.73835 342.56205 347.91575 352.42945 357.78315 360.77143 364.65513 371.47883 376.83253 379.8208 385.1745 392.2082 397.77189 403.75559 408.2693 411.25758 414.30128">Let us now see how the Calvin pathway operates and where the sugar is</tspan><tspan y="-259.68107" x="59.99997 65.35297 70.91597 77.73897 81.62197 88.44497 93.79797 99.15097 102.19397 107.54697 112.89996 119.30296 122.55596 125.16736 127.77876 133.97176 139.32476 143.20775 145.81916 152.85216 158.20516 160.81656 166.79956 170.68256 173.29396 177.17696 183.99996 189.35295 191.96436 197.73735 204.77036 208.65335 214.00635 219.35935 223.24234 225.85375 232.88675 239.70975 246.11275 251.46575 255.97875 261.33177 265.21476 271.19776 278.02076 284.42378 287.03517 292.38816 297.74116 302.25416 307.81715 310.42854 315.78153 318.82453 324.17753 330.16053 334.67353 337.71653 343.2795 345.8909 349.7739 356.5969 362.5799 366.4629 369.07429 372.95729 379.78028 385.13328 387.74467 395.40766 401.39067 404.43367 409.78666 412.82966">synthesised.  Let us at the outset understand very clearly that the Calvin</tspan><tspan y="-245.76107" x="59.99997 66.362369 72.30476 76.14716 82.929569 90.97197 96.91437 102.43677 104.81587 110.54827 115.86067 121.17307 128.16547 132.63787 137.95026 140.32936 143.33176 150.11415">pathway occurs in </tspan></text>
<text fill="#231f20" xml:space="preserve" transform="matrix(1 0 -0 1 -18 802.8)" font-size="10.5" font-family="Bookman"><tspan y="-245.76107" x="152.63997 158.58917 162.01837 165.44757 167.92678 174.50597 181.50518 187.87438 192.56357 198.93277 204.25197 210.62117 217.62038 222.30957 229.30878 235.25798 239.94718 243.58638 249.53559 252.01479 258.594 262.0232 267.97239 274.9716 279.6608">all photosynthetic plants</tspan></text>
<text fill="#231f20" xml:space="preserve" transform="matrix(1 0 -0 1 -18 802.8)" font-size="10.5" font-family="Bookman"><tspan y="-245.76107" x="284.87998 288.09437 290.46876 293.47315 297.31755 299.69194 306.05635 311.79075 317.10514 322.41954 324.7939 331.5783 337.3127 341.1571 343.5315 353.2559 359.2003 363.04469 366.88908 372.20347 376.67787 379.05226 387.09666 393.88105 399.19544 403.03984 409.82423 415.1386">; it does not matter whether</tspan><tspan y="-231.60106" x="59.99997 63.87997 70.699977 76.04997 81.60997 84.20997 91.02997 97.00997 102.35997 107.70997 110.30997">they have C</tspan></text>
<text fill="#231f20" xml:space="preserve" transform="matrix(1 0 -0 1 -18 802.8)" font-size="6.1" font-family="Bookman"><tspan y="-228.24106" x="118.07997">3</tspan></text>
<text fill="#231f20" xml:space="preserve" transform="matrix(1 0 -0 1 -18 802.8)" font-size="10.5" font-family="Bookman"><tspan y="-231.60106" x="121.67997 124.28747 130.06497 134.58248 137.18999"> or C</tspan></text>
<text fill="#231f20" xml:space="preserve" transform="matrix(1 0 -0 1 -18 802.8)" font-size="6.1" font-family="Bookman"><tspan y="-228.24106" x="144.95998">4</tspan></text>
<text fill="#231f20" xml:space="preserve" transform="matrix(1 0 -0 1 -18 802.8)" font-size="10.5" font-family="Bookman"><tspan y="-231.60106" x="148.55998 151.16638 154.21279 159.98918 164.50559 167.11199 173.09839 179.92479 185.4912 188.0976 193.874 197.76039 204.58679 209.94319 214.4596 217.506 220.1124 226.5188 232.5052 236.3916 243.218 251.3044 257.2908 262.8572 268.21363 270.82005 273.86643 280.48283 283.5292 289.0956 296.13203 300.6484 306.00483 308.61125 314.88 321.36003 324.62004 331.03004 334.08003"> (or any other) pathways (Figure 11.8).</tspan><tspan y="-217.68106" x="78.000019 84.715419 90.59081 95.206218 98.201618 103.65701 109.74242 115.197818 120.65321 123.64861 129.52402 132.87943 135.87483 143.01024 149.93564 156.44104 161.89644 166.51184 171.96724 175.95264 182.03804 188.96344 195.46884 198.61425 205.53964 211.20505 214.56046 217.55587 221.54126 228.46666 233.92206 236.91747 244.68286 250.76827 253.91367 259.36909 262.51448 269.43989 272.4353 277.89073 283.55613 289.01155 292.15693 297.61235 300.60777 306.06318 312.14857 319.07398 322.0694 328.5748 334.0302 337.02565 343.53105 348.98646 354.44187 359.89729 364.51268 367.65806 374.16346 379.61888 386.12428 389.1197 396.2551 403.1805 409.6859 415.14134">For ease of understanding, the Calvin cycle can be described under</tspan><tspan y="-203.76107" x="60.000017 63.949617 70.83922 75.418819 80.83842 86.25802 88.737628 94.15723 98.10683 104.156429 109.786029 115.20563 120.62523 123.94483 126.42444 131.84404 137.89365 142.47325 148.94286 154.78246 160.62206 166.25165 169.36125 175.41086 179.36046 182.47006 188.30966 195.19927 198.51886 200.99846 205.57807 210.99767 217.46727 224.56687 229.98647 233.93607 237.04567 242.88527 249.77487 252.25447 258.30409 265.19367 271.66328 274.14289 278.72248 284.14207 289.77168 295.19126 302.08085 307.50044 312.08003 318.1296 322.07923 325.1888 331.0284 337.918">three stages: carboxylation, reduction and regeneration.</tspan></text>
<text fill="#231f20" xml:space="preserve" transform="matrix(1 0 -0 1 -18 802.8)" font-size="10.5" font-family="Bookman"><tspan y="-183.60106" x="60.000017 66.99001 78.000019 85.37752 91.07502 95.51252 101.42002 107.53752 113.44502 119.56252 122.74002 128.43752 132.87502 136.26251 142.38">1.Carboxylation</tspan></text>
<text fill="#231f20" xml:space="preserve" transform="matrix(1 0 -0 1 -18 802.8)" font-size="10.5" font-family="Bookman"><tspan y="-183.60106" x="149.04001 151.20001 156.24 158.40001 165.953 171.826 176.229 182.522 188.185 193.84799 199.301 202.234 208.107 211.87999 214.81299 220.47599 227.18898 229.49869 232.43169 237.67469 239.98439 243.75739 250.47039 255.71338 257.76 260.6969 263.4238 268.8807 274.5476 278.1145 280.8414 286.2983 292.8052 294.8921 300.349 303.2859 305.37278 312.71968"> &#x2013; Carboxylation is the fixation of CO</tspan></text>
<text fill="#231f20" xml:space="preserve" transform="matrix(1 0 -0 1 -18 802.8)" font-size="6.1" font-family="Bookman"><tspan y="-180.24106" x="320.64">2</tspan></text>
<text fill="#231f20" xml:space="preserve" transform="matrix(1 0 -0 1 -18 802.8)" font-size="10.5" font-family="Bookman"><tspan y="-183.60106" x="324.24003 326.33064 329.04875 335.54685 339.10496 344.55305 346.64366 352.30177 354.39237 359.42048 362.97859 368.6367 374.71479 377.4329 382.461 384.5516 389.9997 394.1878 399.4259 405.084 411.58213 414.30024"> into a stable organic</tspan><tspan y="-169.68106" x="78.000019 80.93532 87.65062 91.42592 96.67122 101.07652 110.73183 115.97713 122.27243 125.20773 131.08304 134.85834 140.10364 143.24893 145.55792 147.86692 155.42221 161.29752 165.70282 171.99813 177.66342 183.32872 188.78403 191.71933 197.59464 201.36994 204.30524 209.97054 216.68584 218.99483 221.93013 227.17543 229.48442 233.25972 239.97502 245.22032 247.52931 257.1846 262.8499 268.0952 271.8705 274.1795 279.4248 283.8301 290.7554 296.0007 298.936 304.8113 307.7466 310.0556 315.3009 319.0762 324.3215 330.6168 332.92579 338.5911 341.7364 344.04539 347.82069 354.53599 359.78129 362.09028 369.64558 375.52088 378.45619 383.70149 386.63679 393.35209 395.66108 400.90638 406.36167 411.60697 414.54228">intermediate.  Carboxylation is the most crucial step of the Calvin cycle</tspan><tspan y="-155.76107" x="78.000019 85.95001 92.640018 97.860019 102.48001 107.70001 111.27001 118.80001">where CO</tspan></text>
<text fill="#231f20" xml:space="preserve" transform="matrix(1 0 -0 1 -18 802.8)" font-size="6.1" font-family="Bookman"><tspan y="-152.16106" x="126.96001">2</tspan></text>
<text fill="#231f20" xml:space="preserve" transform="matrix(1 0 -0 1 -18 802.8)" font-size="10.5" font-family="Bookman"><tspan y="-155.76107" x="130.56002 134.21031 137.1506 142.40091 146.05121 152.9815 156.76181 159.70212 162.64243 165.58274 170.83304 176.08335 182.38364 186.03394 189.18424 194.85454 199.26483 202.91513 206.69544 213.41574 218.66605 222.31635 227.56665 233.44695 237.85724 244.15753 249.82784 255.49814 260.95845 263.89875 269.77906 273.55937 276.49967 282.16996 288.89027 292.54057 298.21086 301.36116 305.01145 312.36177 319.29206 326.85237 332.64 335.77873 339.41743 343.05613 349.34483 356.05354 358.98225 364.22096 367.85966 372.24003 377.48783 383.36564 388.61344 392.39125 395.32905 400.99684 407.71464 411.36244 414.30024"> is utilised for the carboxylation of RuBP.  This reaction is</tspan><tspan y="-141.60106" x="78.00003 83.03463 88.699237 92.26383 97.92844 100.65304 105.89764 110.932239 115.966838 122.05144 124.15104 130.23564 135.48024 137.57984 141.14444 147.64905 152.68366 154.78325 159.81786 166.32245 170.93704 176.18164 185.62624 190.66085 192.76044 199.89504 206.60964 213.95424 220.03884 222.13843 227.17304 232.83763 237.03223 243.11682 248.57143 254.02603 259.27064 261.99525 267.65986 272.69447 277.72908 279.82868 287.59327 294.09788 296.82249 301.8571 308.3617 310.4613 314.6559 319.69053 324.72514 331.43974 334.16435 337.72895 342.76356 344.86317 347.58778 354.09239 356.192 359.7566 366.2612 371.2958 373.39543 376.33003 381.7846 385.97923 395.42384 401.08845 404.65306 407.37767 412.83226">catalysed by the enzyme RuBP carboxylase which results in the formation</tspan><tspan y="-127.68106" x="78.00003 83.67153 86.82303 89.33703 93.11853 101.10003 106.77153 109.28553 118.94703 124.61853 127.56003 132.81153 138.06302 144.99452 147.93602 153.18752 158.43901 160.95302 166.62451 169.77602 172.29003 178.56003 182.64003 188.94303 197.13602 204.06902 207.22202 209.73131 212.2406 218.96361 221.9066 228.62961 233.88262 239.13562 241.64492 245.42792 252.15093 255.09392 260.34693 262.85624 268.10923 274.8322 279.66523 285.12825 294.79124 300.04423 302.55354 308.43653 311.37953 316.6325 322.3055 324.81483 331.5378 337.4208 342.6738 345.1831 351.0661 357.7891 360.2984 365.9714 371.6444 377.10743 382.57044 387.82344 394.54643 400.4294 404.2124 407.1554 412.8284">of two molecules of 3-PGA.  Since this enzyme also has an oxygenation</tspan><tspan y="-113.76106" x="78.00003 83.87783 89.12563 92.903438 95.84123 101.089038 104.02683 107.804637 113.262439 115.79023 118.72803 122.50583 125.03362 133.01143 138.67923 145.60703 148.54483 154.84264 157.37044 163.66825 168.91605 171.44385 181.10166 186.76946 191.17726 196.42507 198.95287 204.20067 209.86847 214.27628 218.68408 223.93189 229.17969 232.95749 235.48529 239.26309 244.9309 247.4587 252.7065 258.5843 261.5221 264.4599 266.9877 269.9255 273.7033 276.2311 283.57893 290.5067 298.0645 304.3623 306.8901 312.1379 318.01573 322.42353 328.7213 334.3891 340.0569 345.51469 348.45249 354.3303 359.5781 364.80003 368.88 374.5575 380.235 385.70249 391.16999 396.4275 403.155 409.0425 414.30003">activity it would be more correct to call it RuBP carboxylase-oxygenase</tspan><tspan y="-99.60106" x="78 83.375 87.49">or </tspan></text>
<text fill="#231f20" xml:space="preserve" transform="matrix(1 0 -0 1 -18 802.8)" font-size="10.5" font-family="Bookman"><tspan y="-99.60106" x="89.520008 97.735 104.69 112.275 116.08 121.565 129.36">RuBisCO</tspan></text>
<text fill="#231f20" xml:space="preserve" transform="matrix(1 0 -0 1 -18 802.8)" font-size="10.5" font-family="Bookman"><tspan y="-99.60106" x="137.76001">.</tspan></text>
<g clip-path="url(#clip_2091)">
<text xml:space="preserve" transform="matrix(1 0 -0 1 259.314 763.9998)" font-size="8" font-family="Arial"><tspan y="6.316" x="0"> </tspan></text>
</g>
</g>
</g>
</svg>
