<svg xmlns="http://www.w3.org/2000/svg" xmlns:xlink="http://www.w3.org/1999/xlink" xmlns:inkscape="http://www.inkscape.org/namespaces/inkscape" version="1.1" width="576" height="784.8" viewBox="0 0 576 784.8">
<defs>
<clipPath id="clip_21001">
<path transform="matrix(1,0,0,-1,-18,802.8)" d="M18 18H594V802.8H18Z" clip-rule="evenodd"/>
</clipPath>
<clipPath id="clip_21002">
<path transform="matrix(.24,0,0,-.24,-18,802.8)" d="M443 2667H1534V1576H443Z"/>
</clipPath>
<clipPath id="clip_21003">
<path transform="matrix(1,0,0,-1,259.314,763.99978)" d="M0-8H57.372V.800049H0Z"/>
</clipPath>
</defs>
<g clip-path="url(#clip_21001)">
<path transform="matrix(.24,0,0,-.24,-18,802.8)" d="M0 3035.83H2550V3372.7003H0Z" fill="#d1d3d4" fill-rule="evenodd"/>
<path transform="matrix(.24,0,0,-.24,-18,802.8)" d="M0 3078.33H2550V3420H0Z" fill="#e1ecb6" fill-rule="evenodd"/>
<path transform="matrix(.24,0,0,-.24,482.635,53.63501)" d="M0 0C7.32 7.32 16.16 10.98 26.52 10.98H97.35C107.71 10.98 116.55 7.32 123.87 0 131.19-7.33 134.85-16.17 134.85-26.52V-101.52C134.85-111.88 131.19-120.72 123.87-128.04 116.55-135.36 107.71-139.02 97.35-139.02H26.52C16.16-139.02 7.32-135.36 0-128.04-7.32-120.72-10.98-111.88-10.98-101.52V-26.52C-10.98-16.17-7.32-7.33 0 0" fill="#ffffff" fill-rule="evenodd"/>
<text fill="#231f20" xml:space="preserve" transform="matrix(1 0 -0 1 -18 802.8)" font-size="11" font-family="Bookman"><tspan y="-730.081" x="84">P</tspan></text>
<text fill="#231f20" xml:space="preserve" transform="matrix(1 0 -0 1 -18 802.8)" font-size="7.69999" font-family="Bookman"><tspan y="-730.081" x="90.72 95.284709 100.46541 106.10811">LANT</tspan></text>
<text fill="#231f20" xml:space="preserve" transform="matrix(1 0 -0 1 -18 802.8)" font-size="11" font-family="Bookman"><tspan y="-730.081" x="110.64 113.2806"> K</tspan></text>
<text fill="#231f20" xml:space="preserve" transform="matrix(1 0 -0 1 -18 802.8)" font-size="7.69999" font-family="Bookman"><tspan y="-730.081" x="120.96 123.47469 129.06938 135.12607 141.18276 147.23944">INGDOM</tspan></text>
<text fill="#231f20" xml:space="preserve" transform="matrix(1 0 -0 1 -18 802.8)" font-size="11" font-family="Bookman"><tspan y="-729.361" x="505.91999 513.06">35</tspan></text>
<path transform="matrix(.24,0,0,-.24,-18,802.8)" d="M2 2H2548V214.67H2Z" fill="#cbdf7f" fill-rule="evenodd"/>
<path transform="matrix(.24,0,0,-.24,-18,802.8)" stroke-width="4" stroke-linecap="butt" stroke-miterlimit="1000" stroke-linejoin="miter" fill="none" stroke="#cbdf7f" d="M2 2H2548V214.67H2Z"/>
<path transform="matrix(.24,0,0,-.24,579.6,.11999512)" stroke-width="1" stroke-linecap="butt" stroke-miterlimit="10" stroke-linejoin="miter" fill="none" stroke="#000000" d="M0 0H60"/>
<path transform="matrix(.24,0,0,-.24,576.12,-18)" stroke-width="1" stroke-linecap="butt" stroke-miterlimit="10" stroke-linejoin="miter" fill="none" stroke="#000000" d="M0 0V-60"/>
<path transform="matrix(.24,0,0,-.24,579.6,784.44)" stroke-width="1" stroke-linecap="butt" stroke-miterlimit="10" stroke-linejoin="miter" fill="none" stroke="#000000" d="M0 0H60"/>
<path transform="matrix(.24,0,0,-.24,576.12,788.16)" stroke-width="1" stroke-linecap="butt" stroke-miterlimit="10" stroke-linejoin="miter" fill="none" stroke="#000000" d="M0 0V-59"/>
<path transform="matrix(.24,0,0,-.24,-17.88,-18.23999)" stroke-width="1" stroke-linecap="butt" stroke-miterlimit="10" stroke-linejoin="miter" fill="none" stroke="#000000" d="M0 0V-75"/>
<g clip-path="url(#clip_21002)">
<path transform="matrix(.24,0,0,-.24,219.56255,163.33679)" d="M0 0C299.32 0 543.45-244.12 543.45-543.44 543.45-842.75 299.32-1086.88 0-1086.88-299.32-1086.88-543.44-842.75-543.44-543.44-543.44-244.12-299.32 0 0 0" fill="#fffcd5" fill-rule="evenodd"/>
</g>
<text fill="#231f20" xml:space="preserve" transform="matrix(1 0 -0 1 -18 802.8)" font-size="10.5" font-family="Bookman"><tspan y="-688.561" x="60 63.14531 66.29062 72.79593 78.251239 81.156558 86.61186 90.597179 95.21249 102.34779 107.8031 111.788417 118.92372 123.53903 128.99434 134.44965 137.80496 140.71028 147.21559 154.1409 159.5962 162.50153 169.00684 173.62215 179.28746 185.16277 191.66808 198.59339 204.2587 208.244 213.69931 219.15462 222.05994 228.14525 232.76056 238.21587 241.12119 247.6265 250.7718 256.2271 259.37245 265.87776 271.33308 277.83839 280.7437 283.88905 290.81437 294.79969 300.675 303.58033 306.72566 309.87098 315.3263 320.78163 325.3969 333.5822 339.45753 344.0728 348.05815 353.51347 356.4188 362.5041 369.4294 375.93473 378.84007 388.70539 394.5807 400.036 405.49134 410.94667 416.40199">like structures. The bryophytes are divided into liverworts and mosses.</tspan><tspan y="-674.39999" x="60 66.4683 73.3566 78.7749 81.2582 87.7265 90.8348 96.8831 103.7714 107.7197 110.203 116.6713 122.509609 128.9779 134.6062 137.0895 142.9278 146.2461 148.72939 151.83769 154.946 160.3643 165.78261 170.3609 178.5092 184.3475 188.92581 192.87412 198.29242 200.77571 203.88402 209.30233 211.78562 215.73392 222.62223 228.67052 231.77883 234.88713 240.72544 243.83374 250.30205 252.78534 258.83366 265.72196 272.19026 274.67356 281.14186 286.98014 291.55845 296.97676 300.08506 305.50337 310.92167 317.80998 321.75828 326.33659 332.3849 335.4932 337.9765 346.12483 353.01313 358.43144 363.00975 368.42805 374.47636 379.89466 382.37797 392.20628 398.04457 403.46287 408.88117 414.29948">The plant body of liverworts is thalloid and dorsiventral whereas mosses</tspan><tspan y="-660.48098" x="60 66.92531 73.01062 78.46593 83.921237 87.548748 94.68405 101.18936 105.80467 108.94998 114.615299 121.5406 125.52592 128.88123 132.50875 137.96405 141.10936 146.56467 153.48998 159.99529 165.45059 170.0659 173.69342 179.77873 185.65404 191.10935 196.56465 200.19217 206.69748 212.15279 218.2381 222.85341 225.99872 232.92403 238.58934 242.21686 247.67217 254.17748 257.32279 261.93809 268.02339 271.1687 274.31404 279.97935 283.60685 289.69215 294.30744 298.92274 305.00804 311.93336 317.59867 323.054 329.5593 333.1868 336.33213 341.78746 347.87275 353.32807 358.7834 364.2387 367.59403 371.22154 377.72685 384.65217 390.10749 393.735 403.60029 409.68559 412.8309">have upright, slender axes bearing spirally arranged leaves. The main</tspan><tspan y="-646.561" x="60 66.94879 70.53758 77.066379 84.435169 88.86395 94.337749 101.28654 107.60532 114.554119 120.6629 126.136699 132.45549 136.25429 141.72809 148.25688 153.73069 160.67948 165.73827 171.84706 178.16585 185.11464 192.48343 198.59223 203.02101 208.9198 214.3936 217.98239 223.88118 229.35498 235.46378 241.99257 252.30136 258.20018 262.62898 268.52778 273.16658 280.11537 285.17414 291.49293 298.4417 306.0205 311.9193 315.5081 322.8769 328.9857 334.45948 340.98826 348.35707 355.30586 360.77964 364.3684 370.2672 375.741 381.6398 388.16859 391.75736 395.34614 401.24494 408.19374 413.6675">plant body of a bryophyte is gamete-producing and is called a</tspan><tspan y="-632.39999" x="60 65.66091 71.74182 81.60273 87.05364 91.03455 96.905467 103.40637 110.327289 115.9882 119.96911 125.42002 128.77094 131.28554 134.84645 138.82736 141.34197 147.84288 153.2938 159.37471 163.98563 169.43654 171.95114 175.93206 182.85297 188.30388 190.81848 200.6794 206.76032 209.90123 215.35214 217.86675 223.31766 228.76857 234.63948 237.15409 243.025 247.63591 253.29682 259.37773 266.2986 271.7495 274.26414 279.71504 285.79594 288.93684 292.07774 297.52864 304.02955 306.54417 312.62507 319.54597 323.52687 330.44776 335.89866 340.50956 343.65046 350.15138 353.29228 359.37318 361.8878 364.4024 370.4833 377.4042 383.90513 386.41975 389.77067 395.22157 405.08247 411.16337 414.30427">gametophyte. It bears the male sex organs called antheridia  and female</tspan><tspan y="-618.48098" x="60 65.45581 70.91162 76.78743 80.409938 86.28574 90.90155 96.56736 102.65317 109.57898 115.03479 118.657299 124.113109 130.19892 133.34473 136.49054 141.94635 148.45217 152.07466 158.16048 162.77629 168.2321 175.15792 180.61373 186.27954 192.15535 199.08116 202.22698 208.31279 211.6686 215.29109 221.7969 228.72272 234.17853 237.80103 247.66684 253.75266 256.89848 262.35429 265.97679 272.0626 278.9884 285.4942 289.1167 292.4725 297.9283 307.79414 313.87995 317.02577 322.48158 326.10408 331.76988 337.85569 347.7215 353.1773 357.16313 362.61894 368.07475 371.69725 378.20304 382.81886 388.69468 395.20048 402.33628 407.79209 413.2479">sex organs called archegonia. The male and female gametes produced</tspan><tspan y="-604.561" x="60 63.5646 70.9092 76.57381 82.2384 87.478008 91.67261 97.75721 102.99681 106.56141 112.64601 117.47061 127.54521 132.78482 138.02942 143.90402 149.77863 155.86322 160.05782 165.72241 170.96202 179.35663 186.49123 189.84583 195.51042 202.64502 207.88463 214.59923 219.42383 225.50843 232.22303 239.56763 245.23223 250.89682 256.56144 261.80104 268.0956 273.3352 283.40983 290.75444 294.10905 298.30366 301.65827 307.32289 312.9875 316.3421 319.69673 327.04133 330.39595 336.69053 341.51515 346.75474 353.46934 359.55393 366.26853 372.14314 377.38273 383.04734 389.34193 392.69654 396.05116 401.71577 408.43037 413.66996">fuse to form zygote which produces a multicellular body called a</tspan><tspan y="-590.39999" x="60 65.4555 71.961 77.8365 82.452 88.32751 94.83301 101.75851 107.424 111.4095 116.865 120.2205 123.892688 127.45818 131.44368 135.11588 141.62137 146.23686 152.11237 158.61786 165.75336 171.20886 176.66437 182.11988 185.79207 192.71758 198.80307 205.30857 208.45407 214.32958 217.47507 223.98056 227.65276 233.10826 239.61376 245.48926 250.10475 255.56026 261.01576 264.37126 268.04344 274.54893 281.47444 286.92994 290.6021 296.05763 302.5631 308.4386 313.0541 318.5096 323.96513 327.6373 333.3028 338.7583 343.3738 353.23933 356.38484 363.31034 369.39585 373.38136 378.83686 382.50904 386.49455 392.37004 396.0422 399.3977 405.2732 409.8887">sporophyte. It produces haploid spores. The spores germinate to form</tspan><tspan y="-576.48098" x="60 65.59501 71.610019 81.40503 86.79004 90.70505 96.510059 102.94507 109.80008 115.39509 119.3101 124.69511 130.08013">gametophytes.</tspan><tspan y="-562.561" x="78 81.3966 88.1532 90.5048 96.8414 100.658 105.944599 110.3912 113.3678 119.7044 125.410999 131.74759 138.5042 144.0008 147.8174 153.104 158.39061 160.7422 164.5588 171.31542 176.60202 178.95362 188.6502 194.5668 197.5434 204.3 206.6516 212.98819 215.96479 221.88138 228.63799 232.45459 234.80619 237.78278 243.06938 245.42098 251.33757 253.68917 258.97578 265.31239 271.01899 275.46559 281.17219 287.5088 294.26539 299.762 303.57859 308.86518 311.2168 319.2334 325.99 328.96659 334.25318 341.00978 343.3614 346.33799 351.62458 353.9762 360.3128 363.2894 366.476 369.66264 374.94923 379.3958 384.6824 391.439 395.25559 398.23219 404.14878 407.96537 413.25196">In pteridophytes the main plant is a sporophyte which is differentiated</tspan><tspan y="-548.39999" x="60 63.1094 69.9988 73.948207 79.787609 82.26811 86.217517 90.79691 97.89632 103.31572 105.79623 110.375629 116.21503 122.05443 126.00383 129.32323 131.80374 137.22315 141.17255 146.59195 156.42136 158.90187 164.95128 171.84069 178.31009 180.7906 183.90001 189.31941 195.36882 200.78823 206.20763 211.62703 214.94643 217.42694 223.89635 230.78575 236.20516 241.62456 247.04396 249.52448 255.36388 259.94328 265.57267 271.62208 278.51148 283.93089 286.41139 292.88078 298.72016 304.13957 309.55897 314.97837 320.39778 325.81718 328.29768 336.44709 341.8665 344.9759 348.0853 352.2447 358.71409 361.8235 365.14289 368.46229 373.88169 378.4611 383.8805 390.7699 394.7193 397.8287 403.8781 407.8275 413.24693">into true root, stem and leaves. These organs possess well-differentiated</tspan><tspan y="-534.48098" x="60 65.36281 71.35562 76.71843 82.08124 89.12405 92.17686 98.16967 102.69248 105.117809 109.01061 112.06342 117.42623 122.78904 129.83185 135.19466 140.55747 143.82028 146.2456 152.65842 159.49123 164.85404 167.27936 172.64217 179.05498 184.83779 189.3606 195.1434 201.55622 208.38903 213.96184 217.85465 223.21746 228.58026 231.00559 237.4184 242.7812 248.77402 253.29683 255.72214 261.08497 267.49778 273.28059 277.80339 283.79618 290.629 296.2018 299.2546 305.2474 307.67274 315.76554 322.59837 325.65116 331.01399 337.8468 340.27214 346.68495 351.20774 356.99055 363.40336 370.44618 375.809 381.1718 383.59715 388.95997 395.37278 401.15559 405.67839 411.0412 416.40403">vascular tissues. The sporophytes bear sporangia which produce spores.</tspan><tspan y="-520.561" x="60 66.5061 73.432209 78.888309 82.084407 87.540508 94.04661 99.92271 104.5388 109.9949 115.451007 118.6471 124.3132 129.7693 134.3854 144.25151 147.39762 154.32372 160.40982 164.39592 169.85202 173.04811 177.03421 182.91031 186.1064 189.4625 195.3386 199.9547 209.8208 213.01689 216.21298 221.87909 227.9652 237.8313 243.2874 247.2735 253.1496 259.6557 266.5818 272.2479 276.234 281.69013 287.14625 290.34236 298.52845 305.45454 308.60063 314.0567 320.9828 324.1789 328.79499 334.2511 340.3372 347.4733 350.6194 355.23548 360.6916 363.8877 369.3438 375.2199 381.096 384.2421 387.5982 390.7943 397.3004 403.3865 413.2526">The spores germinate to form  gametophytes which require cool, damp</tspan><tspan y="-506.39997" x="60 66.38081 69.40163 75.362438 80.693248 86.024059 91.354869 93.749378 97.61018 103.36099 105.7555 111.29631 115.787128 121.53793 129.59874 132.82955 135.22405 141.60486 148.40567 153.73648 156.13098 161.6718 167.63262 177.37343 182.70424 186.56505 192.31586 198.69667 205.49748 211.0383 214.89911 220.22992 225.56073 227.95523 234.33605 239.66686 245.62767 250.11849 252.51299 262.25379 268.2146 271.2354 276.56623 278.96073 284.92155 291.72236 298.10316 300.49766 303.72846 309.05928 318.80009 324.7609 327.7817 333.11253 335.50703 340.83784 346.16865 351.91947 354.31398 360.0648 364.5556 370.0964 376.05723 382.85804 388.18885 390.58335 395.91416 401.87498 404.89579 407.9166 413.2474">places to grow. The gametophytes bear male and female sex organs called</tspan><tspan y="-492.48097" x="60 66.052417 72.944828 76.89723 83.78964 89.21205 93.794467 96.906879 103.37929 106.4917 112.54411 115.02763 121.08005 127.97246 134.44487 136.92839 142.9808 147.6 153.02092 159.91184 165.33275 170.96366 176.80457 183.69548 186.8064 192.8573 196.1782 198.66024 203.28 208.6914 214.10282 220.56423 225.97563 231.38704 235.32845 238.42986 243.84127 249.25267 252.35408 257.9755 261.2869 263.7594 273.12 279.176 283.13203 288.55805 293.14405 295.63117 298.74717 304.1732 306.6603 311.03999 316.485 322.56 329.685 332.82 337.43998 342.85038 349.31077 351.78227 355.09266 360.92308 365.49348 367.96498 371.90538 376.47578 382.51618 389.39659 394.80699 398.11738 403.52778 408.09819 410.56968 416.4001">antheridia and archegonia, respectively. Water is required for transfer of</tspan><tspan y="-478.56095" x="59.99997 69.86628 75.95259 79.0989 84.555217 87.267139 92.93345 99.01976 108.88607 114.342388 118.3287 123.78501 129.24132 131.95323 135.93955 141.81586 144.52777 150.61408 155.2304 160.6867 167.61302 173.06934 178.73564 184.61196 191.53827 194.68459 201.82089 211.68721 214.39913 222.58544 229.51175 234.96807 239.58438 245.0407 247.75261 252.78893 258.45524 264.12156 269.99787 273.98417 279.44047 282.1524 285.2987 290.755 293.46696 296.82328 302.6996 307.3159 317.1822 322.6385 329.1448 331.85676 337.94306 341.29939 345.28569 350.74198 355.35829 358.07023 361.42655 366.88285 371.49916 375.48545 378.63175 381.77806 384.92436 390.38066 396.46696 400.45326 403.59956 409.47587 416.40217">male gametes to archegonium where zygote is formed after fertilisation.</tspan><tspan y="-464.39994" x="59.99997 66.50407 73.42817 78.88227 81.96139 86.99549 92.65959 98.32369 104.19779 108.18189 113.635997 116.71511 123.21921 127.833309 133.70742 140.21152 147.34561 152.79972 158.25382 163.70792 166.78702 172.87113 175.95023 181.40433 187.90843 193.78253 198.39664 204.27074 210.77484 217.69895 223.36304 227.34714 232.80124">The zygote produces a sporophyte.</tspan><tspan y="-450.48094" x="77.99997 84.45257 91.325168 96.72777 99.19406 104.80666 110.419269 120.231868 127.10446 132.92707 138.32967 144.78227 150.18488 154.74748 164.56009 169.96269 172.42899 178.46158 183.02419 188.42679 190.89308 194.82569 201.69829 207.10089 209.56719 216.01979 219.1124 225.14499 232.0176 235.9502 241.3528 243.81909 246.9117 253.7843 256.2506 264.3832 271.2558 274.3484 279.75099 286.62358 289.08988 294.91249 300.31507 307.39768 310.49028 315.89286 321.29545 323.76176 329.79435 334.35694 339.75953 342.22584 349.09843 354.92103 358.8536 361.31993 366.7225 373.5951 378.99769 382.09028 387.91288 393.31547 398.71806 405.17066 407.63697 414.08958">The gymnosperms are the plants in which ovules are not enclosed by</tspan><tspan y="-436.5609" x="59.99997 66.00628 72.85259 78.4389 80.88022 86.67653 92.05284 98.05915 102.59546 108.18177 110.623088 118.72939 124.7357 127.80201 130.86832 134.14463 136.58592 143.64223 146.91854 150.82485 156.20116 160.73748 163.17877 166.45508 171.83139 176.3677 180.27402 183.34033 186.40665 189.47296 194.84928 200.85559 204.7619 207.82822 213.62453 220.47084 222.91214 226.81845 233.66477 239.04108 241.48238 246.85869 252.235 257.6113 264.0376 269.4139 271.85523 276.39155 281.76786 291.55418 297.5605 300.6268 307.4731 309.91444 315.29075 321.08705 327.51335 333.30964 338.68595 344.06227 350.48857 352.92988 358.9362 365.7825 372.2088 374.65013 378.55644 385.40275 390.77906 395.31538 400.69169 403.968 409.76429 414.3006">any ovary wall. After fertilisation the seeds remain exposed and therefore</tspan><tspan y="-422.3999" x="59.99997 63.93367 70.80737 76.211078 81.61478 87.01848 89.484699 95.93839 99.03209 105.06579 111.93949 115.87319 121.27689 123.74311 129.77681 134.34052 139.74422 142.21042 147.61412 153.64783 156.74153 159.83524 165.23894 171.69264 174.15885 181.03255 187.06626 193.51996 198.92366 205.37737 209.52108 214.92478 220.32848 225.73218 232.18589 237.58959 244.04329 246.50949 252.9632 256.0569 262.09059 268.96427 272.89796 278.30165 281.60536 284.07157 290.52528 297.39897 302.80265 305.26887 310.88258 316.49629 326.30998 333.18367 339.00736 344.41105 350.86476 356.26844 360.83213 370.6458 376.0495 378.51573 384.96943 389.5331 395.3568 401.81053 408.89424 414.2979">these plants are called naked-seeded plants. The gymnosperms produce</tspan><tspan y="-408.4809" x="59.99997 69.76828 72.81659 78.1749 82.69321 88.47152 93.829837 100.238147 106.01646 110.53477 115.89308 121.25139 123.67221 129.66053 136.48883 142.89714 145.31797 155.08628 160.44458 166.0129 172.0012 177.35951 183.76782 189.54613 194.06444 199.42275 204.78105 207.20188 215.29019 222.1185 225.16681 230.52512 237.35343 239.77425 245.76256 250.28087 255.63918 258.06 264.46833 268.98664 274.76496 281.17329 288.21159 293.5699 298.9282 305.33653 307.75733 310.80564 317.63395 320.05476 329.82307 332.87138 338.22969 342.748 348.5263 353.8846 360.29295 366.07127 370.58958 376.57789 383.4062 388.9745 392.0228 398.0111 400.43193 406.42024 413.24855">microspores and megaspores which are produced in microsporangia and</tspan><tspan y="-394.56089" x="59.99997 70.62816 76.84635 83.27454 90.122737 96.34093 103.609119 110.24731 115.625499 122.47369 130.16188 136.59008 140.49826 147.34645 153.14315 160.41133 167.04952 172.4277 180.11589 186.33408 192.13077 198.76895 206.45714 212.25383 217.00202 224.6902 230.90839 236.70508 242.92327 250.19145 256.82966 262.20787 268.84605 276.11424 283.80244 290.23063 294.13883 298.04704 304.26524 308.38343 314.1801 321.4483 329.1365 335.3547 341.1514 347.3696 354.6378 361.27598 366.65419 373.29237 380.56056 388.24876 394.67695 398.58515 402.49336 408.71156 414.50825">megasporangia borne on the sporophylls. The sporophylls &#x2013;</tspan><tspan y="-380.39988" x="59.99997 69.86607 73.01218 78.46828 83.08438 88.96048 94.41658 100.92268 106.79878 111.41489 117.290988 123.79709 130.72319 136.3893 139.5354 142.6815 148.1376 151.5562 157.6423 164.5684 171.07451 174.4931 184.3592 189.8153 195.48142 201.56752 207.02362 213.52973 219.40583 224.02193 229.89803 236.40413 243.33023 248.99634 252.14244 255.28855 260.74464 264.16325 269.40934 272.82795 278.91404 283.53013 288.9862 292.40483 298.4909 303.107 307.72309 313.80918 320.73527 326.40138 331.85749 338.3636 341.7822 347.23829 353.7444 356.89048 361.50657 367.59266 370.73875 373.88484 379.55094 382.96955 388.84565 395.77174 399.19035 405.27644 411.15254 414.2986">microsporophylls and megasporophylls &#x2013; are arranged spirally on axis</tspan><tspan y="-366.48088" x="59.99997 63.91278 69.71559 72.1634 75.44621 81.24902 85.79183 95.58464 98.03245 107.82526 113.838069 116.91087 122.293689 124.74149 130.7543 137.60712 144.03993 146.48773 149.77054 155.15335 164.94617 170.95899 174.0318 179.41461 181.86241 187.24523 193.04804 199.90085 205.28366 210.66648 213.94928 216.39708 220.9399 226.32271 231.70552 238.13834 243.52115 248.90396 252.81678 255.88959 261.2724 266.6552 269.72804 275.32084 278.60365 281.05146 287.48426 294.33708 299.71989 302.1677 308.6005 314.4033 317.4761 320.54893 325.93174 332.78456 335.23237 340.82518 345.36799 351.3808 354.4536 361.30644 363.75425 369.34706 374.72987 379.27268 389.0655 392.1383 398.99113 405.00395 408.91676 414.29957">to form male and female cones, respectively. The pollen grain germinates</tspan><tspan y="-352.56086" x="59.99997 66.08738 73.014789 79.522197 82.5296 89.03701 94.91442 98.06183 101.209239 106.66665 113.594058 116.60146 120.588878 127.72629 134.2337 139.69112 142.69852 147.31594 152.77335 155.92076 161.37818 167.46559 172.923 178.38042 183.83783 186.84523 190.83264 197.76006 203.21747 206.22487 216.09229 222.1797 225.32712 230.78453 233.79193 239.45934 245.54676 255.41417 260.87159 264.85899 270.31639 273.3238 276.4712 283.3986 287.386 293.2634 296.2708 300.2582 307.1856 312.643 315.65043 321.52784 326.98524 334.12266 337.27006 342.72746 346.08488 349.0923 357.2797 364.2071 369.6645 374.2819 379.7393 382.7467 385.8941 389.8815 392.88893 396.24635 403.38377 408.84117 414.29856">and pollen tube releases the male gamete into the ovule, where it fuses</tspan><tspan y="-338.39985" x="59.99997 68.05428 71.068599 74.922908 81.71722 84.10653 87.96084 94.75515 100.07946 102.46877 107.79308 113.32739 118.8617 121.251018 126.575328 131.89963 134.91394 137.92826 140.31755 143.33187 150.12618 152.51548 158.46979 162.9541 168.27841 175.07273 180.39704 185.93135 191.67566 198.46997 201.48429 207.4386 210.6629 213.0522 219.6365 225.38082 228.39513 231.40944 237.15375 245.20806 248.22237 255.01668 260.551 262.9403 266.1646 271.48893 275.97325 279.82756 282.84187 285.85618 288.87049 294.1948 300.1491 304.00343 307.01774 312.76206 319.55638 322.78068 325.16999 329.0243 335.8186 341.1429 343.53224 348.43653 353.97084 359.50514 365.24946 369.10377 374.42808 376.81739 383.19169 388.516 393.8403 399.1646 402.17893 407.92326 414.29756">with the egg cell in archegonia. Following fertilisation, the zygote develops</tspan><tspan y="-324.48085" x="59.99997 63.14727 70.07457 74.06187 79.93916 82.513179 87.970478 97.837779 104.34508 108.96238 114.62968 120.50697 123.080989 129.16829 136.0956 142.60289 145.1769 149.1642 156.0915 161.54882 164.12282 170.00012 175.45743 182.59473 185.74202 191.19933 196.65663 199.23064 202.37793 209.30524 213.29254 219.16985 221.74385 227.20116 232.65847 238.11577 244.62306 250.08037">into embryo and the ovules into seeds.</tspan><tspan y="-310.56083" x="77.99997 84.50738 91.434787 96.8922 99.414608 105.502017 112.42943 118.09684 121.24425 127.12166 132.57907 139.08649 144.5439 149.16132 159.02873 164.48615 167.00855 173.09597 177.71338 183.17079 185.69319 192.2006 195.34803 200.80544 203.95285 210.46027 215.91768 222.4251 224.9475 228.09491 235.02233 239.00974 244.88715 247.40955 251.39696 259.58439 265.4618 267.98423 273.44163 276.58903 282.67643 288.13383 293.59123 299.0486 304.506 307.02845 312.27586 314.79829 318.78569 325.71308 331.17048 333.6929 340.20033 343.34773 348.8051 354.68254 358.66993 364.33735 367.48475 372.94215 379.44956 385.32698 392.25437 397.71177 400.2342 406.3216 413.249">The angiosperms are divided into two classes &#x2013; the dicotyledons and</tspan><tspan y="-296.3998" x="59.99997 63.93217 70.804378 76.20657 78.658779 88.47098 94.293178 101.165378 106.98757 112.38977 118.21197 122.144168 127.75636 130.84856 136.25077 142.70296 148.52516 155.39737 160.79958">the monocotyledons.</tspan></text>
<text fill="#00aeef" xml:space="preserve" transform="matrix(1 0 -0 1 -18 802.8)" font-size="13" font-family="Bookman"><tspan y="-253.68082" x="219.35997">E</tspan></text>
<text fill="#00aeef" xml:space="preserve" transform="matrix(1 0 -0 1 -18 802.8)" font-size="9.1" font-family="Bookman"><tspan y="-253.68082" x="228.95998 236.05768 242.60938 249.70708 256.44078 260.08049 266.08619 272.63789">XERCISES</tspan></text>
<text fill="#231f20" xml:space="preserve" transform="matrix(1 0 -0 1 -18 802.8)" font-size="10" font-family="Bookman"><tspan y="-215.76082" x="59.99997 65.68058 78.95997 88.55758 95.15519 100.9528 104.750408 107.63371 110.631328 115.82893 118.71224 122.50985 129.10746 134.30507 137.18839 143.386 149.18361 154.38123 157.37883 162.57645 165.45977 171.05738 174.25499 177.1383 182.33592 185.33353 191.13114 196.32875 201.52637 204.52397 207.72159 210.7192 215.91681 221.71442 225.51203 228.50963 234.10724 240.70485 243.58817 249.18578 252.38339 255.26671 261.06434 264.06196 269.45957 275.25718 280.45478">1.What is the basis of classification of algae?</tspan><tspan y="-197.76082" x="59.99997 65.68058 78.95997 88.56027 95.160579 100.36088 106.96118 109.54608 115.34638 121.946689 128.14699 130.73189 138.53218 145.13248 150.33278 154.73308 159.93338 162.51828 168.71858 174.31888 179.51918 184.71949 187.30438 191.70468 196.90499 203.10529 209.90558 215.10588 218.90618 221.90648 227.50678 234.10707 236.69197 242.89228 245.89258 251.09288 254.09319 259.2935 262.2938 267.8941 274.49443 277.0793 280.8796 286.6799 292.8802 298.08049 300.66539 306.86567 309.86598 315.66627 320.86656 326.06684 328.65174 331.65205 338.25236 340.83726 344.63755 351.23786 356.43815 359.02305 362.02336 365.02366 368.22395 373.42424 376.00914 381.2094 386.6097 391.81 394.8103 400.0106 402.5955 408.1958 411.3961 413.981">2.When and where does reduction division take place in the life cycle of a</tspan><tspan y="-183.59983" x="77.99997 80.99978 83.99959 89.1994 94.399219 98.79903 106.59884 112.19865 116.59846 120.39827 123.59808 126.32571 132.12552 134.85315 144.25296 149.85277 155.05258 160.2524 163.45221 166.17984 171.97965 174.70728 177.90709 183.1069 187.50672 194.10652 197.30634 200.03397 205.83377 208.5614 213.96121 219.36103 228.76084 235.36064 240.96045 246.16027 252.36008 257.55989 261.9597 271.3595 274.0871 279.8869 286.48674 292.68653 295.41413 301.21394 307.81376 310.54136 316.34117 322.94099 328.3408 331.3406 336.94044 342.14024 348.34004 353.53984 357.93965 367.33946">liverwort, a moss, a fern, a gymnosperm and an angiosperm?</tspan><tspan y="-165.59983" x="59.99997 65.68058 78.95997 86.36036 92.16075 101.56114 106.761539 109.62194 113.42233 120.02272 124.42311 129.6235 134.8239 137.6843 143.08469 147.48508 153.08547 159.88585 166.08625 171.28664 174.14704 179.74742 182.94782 185.80821 192.0086 195.009 200.80939 207.40978 211.21016 216.41056 219.27095 223.07134 229.67173 235.4721 239.27249 242.13289 248.33329 253.53368 259.33409 263.73448 266.59486 272.39524 276.79563 281.996 288.5964 293.79679 299.19718 304.79759 311.39799 314.39839 320.19877 323.39915 326.25953 333.6599 338.0603 341.0607 346.26109 349.46147 352.46186 357.86225 360.72264 366.923 372.12339 377.32377 382.52415 386.92454 389.92494 396.1253 401.32569 404.18608 407.98646 414.58686">3.Name three groups of plants that bear archegonia. Briefly describe the</tspan><tspan y="-151.68082" x="77.99997 81.00337 84.006778 87.210178 92.413578 95.141979 100.345378 105.74877 110.95217 113.955577 119.15897 121.887378 127.490779 130.69419 133.42258 139.22599 145.82938 151.23278 153.96117 159.56456 166.16796 171.37136 174.09975 179.70314 182.90654 185.63494 189.43834 196.04174 201.24514 210.64853">life cycle of any one of them.</tspan><tspan y="-133.68082" x="59.99997 65.68058 78.95997 88.16027 93.36057 99.96088 103.76118 106.761478 112.36177 118.962078 121.798778 125.599079 132.19937 137.39968 140.23638 146.43668 149.43698 155.03728 158.03759 164.23789 169.63819 172.47489 178.07518 181.27548 184.11219 187.91248 194.51277 199.71308 202.54978 205.75008 211.35037 214.35068 217.35099 222.95128 230.75157 233.75188 240.35218 245.75247 248.95278 251.78948 257.98979 262.39009 267.9904 271.79069 277.391 283.9913 289.1916 298.5919 304.39219 307.3925 310.2292 315.42948 320.62977 323.63008 326.63038 329.46708 335.06739 338.26768 341.10438 346.90467 349.74137 359.14167 364.74198 369.94227 375.14256 378.34284 381.17955 387.37983 391.78013 394.78044 404.18074 409.98103 414.38133">4.Mention the ploidy of the following: protonemal cell of a moss; primary</tspan><tspan y="-119.76082" x="77.99997 83.16738 89.734798 95.90221 101.46962 106.63703 112.80444 117.971858 122.339267 131.70668 134.07408 140.6415 147.4089 152.57631 155.54372 160.71112 167.47853 172.64594 175.01334 177.98075 184.54816 186.91556 193.08296 196.05037 201.21778 206.78519 210.5526 213.72 216.0874 219.05481 224.22222 229.98963 233.15703 235.52443 240.69184 245.85924 248.82665 251.79405 254.16146 259.72886 262.89628 265.2637 271.03114 273.39857 282.76597 288.33338 293.5008 298.6682 301.83564 304.20307 310.37049 314.73789 320.3053 324.0727 330.6401 336.40754 339.37495 342.34236 349.10975 354.27717 356.6446 361.812 366.97944 369.94685 372.91426 375.28169 380.8491 384.0165 386.38395 392.15138 394.5188 397.68623 402.85365 407.22105 416.58845">endosperm nucleus in dicot, leaf cell of a moss; prothallus cell of a ferm;</tspan><tspan y="-105.599819" x="77.99997 83.28958 88.37919 97.6688 106.95841 112.648029 114.93763 120.02724 125.116847 128.00646 130.89606 133.18567 136.07527 142.56488">gemma cell in </tspan></text>
<text fill="#231f20" xml:space="preserve" transform="matrix(1 0 -0 1 -18 802.8)" font-size="10" font-family="Bookman" font-style="italic"><tspan y="-105.599819" x="144.71997 153.38706 159.65415 163.72124 168.58834 174.85543 181.12252 187.3896 190.85669 193.72379">Marchantia</tspan></text>
<text fill="#231f20" xml:space="preserve" transform="matrix(1 0 -0 1 -18 802.8)" font-size="10" font-family="Bookman"><tspan y="-105.599819" x="199.91997 203.00208 205.28418 214.56629 219.64839 223.9305 226.81259 231.8947 235.5768 240.6589 249.94101 252.22312 257.3052 262.3873 265.2694 268.15153 270.43363 275.9157 278.9978 281.2799 290.562 296.0441 302.52619 308.00828 313.09037 318.57246 322.25456 325.33665 327.61875 333.10084 338.18293 344.86503 354.14714 356.42924 361.91133 364.9934 367.2755 372.9576 375.23973 378.12184 381.00395 386.08604 391.16813 395.45024 403.13233 408.6144 412.8965 416.5786">; meristem cell of monocot, ovum of a liverwort,</tspan><tspan y="-91.68082" x="77.99997 83.79877 90.39757 96.59637 99.28268 104.081478 109.48027 114.879077 120.477878 124.27667 129.47548 132.16179 137.76059 140.9594 143.6457 149.4445 152.13082 155.32962 160.52843 164.92723 171.52603">and zygote of a fern.</tspan></text>
<g clip-path="url(#clip_21003)">
<text xml:space="preserve" transform="matrix(1 0 -0 1 259.314 763.99978)" font-size="8" font-family="Arial"><tspan y="6.316" x="0"> </tspan></text>
</g>
</g>
</svg>
