<svg xmlns="http://www.w3.org/2000/svg" xmlns:xlink="http://www.w3.org/1999/xlink" xmlns:inkscape="http://www.inkscape.org/namespaces/inkscape" version="1.1" width="576" height="784.8" viewBox="0 0 576 784.8">
<defs>
<clipPath id="clip_4483">
<path transform="matrix(1,0,0,-1,-18,802.8)" d="M18 18H594V802.8H18Z" clip-rule="evenodd"/>
</clipPath>
<clipPath id="clip_4484">
<path transform="matrix(1,0,0,-1,259.314,763.9998)" d="M0-8H57.372V.800049H0Z"/>
</clipPath>
</defs>
<g clip-path="url(#clip_4483)">
<path transform="matrix(.23999998,0,0,-.23999998,-18,802.8)" d="M2 2H2548V214.67H2Z" fill="#cbdf7f" fill-rule="evenodd"/>
<path transform="matrix(.23999998,0,0,-.23999998,-18,802.8)" stroke-width="4" stroke-linecap="butt" stroke-miterlimit="1000" stroke-linejoin="miter" fill="none" stroke="#cbdf7f" d="M2 2H2548V214.67H2Z"/>
<path transform="matrix(.23999998,0,0,-.23999998,-18,802.8)" d="M0 3035.83H2550V3372.7003H0Z" fill="#d1d3d4" fill-rule="evenodd"/>
<path transform="matrix(.23999998,0,0,-.23999998,-18,802.8)" d="M0 3078.33H2550V3420H0Z" fill="#e1ecb6" fill-rule="evenodd"/>
<path transform="matrix(.23999998,0,0,-.23999998,62.63616,53.635194)" d="M0 0C7.32 7.32 16.16 10.98 26.52 10.98H97.35C107.7 10.98 116.54 7.32 123.87 0 131.19-7.32 134.85-16.16 134.85-26.52V-101.52C134.85-111.88 131.19-120.72 123.87-128.04 116.54-135.36 107.7-139.02 97.35-139.02H26.52C16.16-139.02 7.32-135.36 0-128.04-7.32-120.72-10.98-111.88-10.98-101.52V-26.52C-10.98-16.16-7.32-7.32 0 0" fill="#ffffff" fill-rule="evenodd"/>
<text fill="#231f20" xml:space="preserve" transform="matrix(1 0 -0 1 -18 802.8)" font-size="11" font-family="Bookman,Bold" font-weight="bold"><tspan y="-729.361" x="87.12 94.26001">96</tspan></text>
<text fill="#231f20" xml:space="preserve" transform="matrix(1 0 -0 1 -18 802.8)" font-size="11" font-family="Bookman"><tspan y="-729.361" x="513.12">B</tspan></text>
<text fill="#231f20" xml:space="preserve" transform="matrix(1 0 -0 1 -18 802.8)" font-size="7.69999" font-family="Bookman"><tspan y="-729.361" x="521.04 523.3687 529.3087 533.6779 539.6179 545.5579">IOLOGY</tspan></text>
<path transform="matrix(.23999998,0,0,-.23999998,-18,.35998536)" stroke-width="1" stroke-linecap="butt" stroke-miterlimit="10" stroke-linejoin="miter" fill="none" stroke="#000000" d="M0 0H60"/>
<path transform="matrix(.23999998,0,0,-.23999998,.12000084,-18)" stroke-width="1" stroke-linecap="butt" stroke-miterlimit="10" stroke-linejoin="miter" fill="none" stroke="#000000" d="M0 0V-60"/>
<path transform="matrix(.23999998,0,0,-.23999998,-18,784.68)" stroke-width="1" stroke-linecap="butt" stroke-miterlimit="10" stroke-linejoin="miter" fill="none" stroke="#000000" d="M0 0H60"/>
<path transform="matrix(.23999998,0,0,-.23999998,.12000084,788.16)" stroke-width="1" stroke-linecap="butt" stroke-miterlimit="10" stroke-linejoin="miter" fill="none" stroke="#000000" d="M0 0V-60"/>
<path transform="matrix(.23999998,0,0,-.23999998,593.64,784.56)" stroke-width="1" stroke-linecap="butt" stroke-miterlimit="10" stroke-linejoin="miter" fill="none" stroke="#000000" d="M0 0V-75"/>
<text fill="#231f20" xml:space="preserve" transform="matrix(1 0 -0 1 -18 802.8)" font-size="10.5" font-family="Bookman"><tspan y="-688.561" x="192 196.2484 203.2793 209.6697 216.06009 233.33319 240.36409 248.256 255.71739 272.99049 279.3809 286.20179 294.0937 300.4841 307.515 313.90544">face and concave</tspan></text>
<text fill="#231f20" xml:space="preserve" transform="matrix(1 0 -0 1 -18 802.8)" font-size="10.5" font-family="Bookman,Italic" font-style="italic"><tspan y="-688.561" x="320.4 337.45469 342.28968 347.75468 354.68968 362.46467"> trans</tspan></text>
<text fill="#231f20" xml:space="preserve" transform="matrix(1 0 -0 1 -18 802.8)" font-size="10.5" font-family="Bookman"><tspan y="-688.561" x="368.64 385.93904 392.77333 398.3161 415.6151 420.51744 428.42274 434.82655 452.12556 463.02336 470.06767 474.96998 483.08528 488.62806 492.67985 500.58515 507.19895 524.4979 528.7597 535.804 542.2078 548.61166"> or the maturing face.</tspan><tspan y="-674.4" x="192 198.6303 205.6911 211.2504">The </tspan></text>
<text fill="#231f20" xml:space="preserve" transform="matrix(1 0 -0 1 -18 802.8)" font-size="10.5" font-family="Bookman,Italic" font-style="italic"><tspan y="-674.4" x="214.8 220.3059 223.50179">cis</tspan></text>
<text fill="#231f20" xml:space="preserve" transform="matrix(1 0 -0 1 -18 802.8)" font-size="10.5" font-family="Bookman"><tspan y="-674.4" x="228.72 232.3119 238.503 245.5551 252.1767 255.7686 259.8177 266.86979 272.42039"> and the </tspan></text>
<text fill="#231f20" xml:space="preserve" transform="matrix(1 0 -0 1 -18 802.8)" font-size="10.5" font-family="Bookman,Italic" font-style="italic"><tspan y="-674.4" x="276 279.9984 284.6268 290.7252 297.66358">trans</tspan></text>
<text fill="#231f20" xml:space="preserve" transform="matrix(1 0 -0 1 -18 802.8)" font-size="10.5" font-family="Bookman"><tspan y="-674.4" x="303.12 306.70277 310.11054 316.3008 321.85063 327.40043 332.95024 336.533 342.51329 345.92106 349.5038 353.5521 360.6034 366.1532 369.73597 375.71626 380.40504 386.16484 392.3551 399.4064 404.9562 408.154 411.35179 416.90159 420.48435 426.67463 431.3634 436.9132 440.49598 446.04579 453.09709 457.14537 460.34315 465.03193 470.58174 473.7795 479.5393 483.12208 489.74287 492.94065 496.8 500.2074 505.7568 510.4452 515.99459 523.0455 527.0934 530.5008 534.0832 540.7036 547.96456"> faces of the organelle are entirely different, but</tspan><tspan y="-660.481" x="192 194.9406 201.7347 205.5258 210.8184 215.25 220.5426 226.2657 233.0598 239.8539 245.1465 250.4391 254.23021 259.5228 265.88639">interconnected.</tspan><tspan y="-646.561" x="210 216.5282 223.4869 228.94409 232.2593 237.9265 243.8142 246.91939 252.5866 255.69179 259.007 265.10469 271.63288 278.16108 284.25877 288.85496 294.95265 298.90834 306.07704 311.53425 314.84944 321.37763 325.97383 329.079 336.03773 341.49494 344.60014 351.12834 357.226 360.3312 363.4364 369.1036 372.4188 378.947 384.4042 389.0004 392.31559 398.20329 402.79948 412.75068 418.2079 421.52308 425.47877 432.43748 437.89469 441.20988 444.52507 451.69377 458.65248 464.10969 468.06538 471.17057 477.05827 484.01698 487.33216 493.21986 496.53504 499.85023 506.37843 512.47616 517.93338 524.46157 530.55929 536.22647 539.33169 546.29037">The golgi apparatus principally performs the function of packaging</tspan><tspan y="-632.4" x="192 201.9159 207.9783 211.8987 217.3206 221.8815 224.9514 231.0138 234.0837 239.5056 242.7855 246.06542 249.98581 255.83821 259.1181 265.611 271.0329 274.3128 280.8057 286.2276 289.2975 292.36738 297.78929 303.21119 307.7721 313.194 319.6869 322.9668 328.3887 331.4586 335.379 342.3024 347.7243 352.28523 355.56513 359.48554 365.33793 368.61784 372.53825 379.46165 384.88356 388.16346 391.23335 398.15675 402.07716 406.63807 412.70048 416.84138 422.26329 427.68519 430.75508 433.82496 440.95835 444.02824 450.09065 454.65156 457.93147 461.85188 467.91429 472.4752 478.1071 483.529 487.4494 492.8713 496.1512 502.0036 506.5645 509.84443 515.2663 520.6882 526.11007 530.67098 536.09286 540.01327 545.4351">materials, to be delivered either to the intra-cellular targets or secreted</tspan><tspan y="-618.481" x="192 197.9723 205.22562 209.26593 214.80774 217.99755 224.61035 230.15216 233.55197 237.59229 244.63559 250.1774 253.57721 259.11903 264.66084 267.85066 271.04048 274.44029 277.8401 287.6554 293.8377 297.87803 303.41984 308.10066 311.29048 317.47279 320.6626 326.2044 329.60423 333.64454 339.61686 343.01667 349.6295 355.1713 358.5711 365.18394 371.36625 376.90806 383.52088 389.7032 395.455 400.9968 407.60963 411.00944 414.19926 421.24256 424.64237 428.68269 435.72599 441.2678 444.6676 448.0674 454.03974 458.72056 468.75636 472.15617 478.12849 481.5283 484.9281 490.4699 496.01173 501.55354 504.74336 510.28517 513.475 519.0168 524.5586 527.9584 531.35818 536.03897 542.0112">outside the cell. Materials to be packaged in the form of vesicles from</tspan><tspan y="-604.561" x="192 195.9912 202.9854 208.4781 211.8288 219.4635 227.0982 230.4489 233.79959 241.00379 246.49649 251.9892 255.33989 263.61509 266.75578 270.74699 277.74119 281.0919 285.0831 292.0773 297.57">the ER fuse with the </tspan></text>
<text fill="#231f20" xml:space="preserve" transform="matrix(1 0 -0 1 -18 802.8)" font-size="10.5" font-family="Bookman,Italic" font-style="italic"><tspan y="-604.561" x="300.96 306.34593 309.4218">cis</tspan></text>
<text fill="#231f20" xml:space="preserve" transform="matrix(1 0 -0 1 -18 802.8)" font-size="10.5" font-family="Bookman"><tspan y="-604.561" x="314.88 318.2311 321.5822 327.71583 333.20893 338.70204 342.05314 347.97676 351.32786 354.67897 358.67057 365.66517 371.15827 374.50938 380.21247 386.13609 389.2772 394.9803 398.1214 401.4725 407.6061 414.1702 420.73429 426.8679 431.5 437.6336 441.6252 448.8298 454.3229 457.674 463.80763 470.80223 477.3663 480.7174 490.7045 496.6281 502.12123 507.61433 510.96543 514.95706 520.8806 529.1562 535.2898 539.9219 546.48599"> face of the golgi apparatus and move towards</tspan><tspan y="-590.4" x="192 196.0466 203.0962 208.6443 212.0854 222.1275 228.3161 232.3627 239.6223 244.3094 247.50551 254.55512 260.3132 263.7543 267.1604 273.349 278.8971 284.4452 287.8513 291.2924 297.9115 304.9611 308.1572 313.7053 317.1464 322.6945 328.6731 335.2922 338.4883 344.6769 347.87303 354.9226 360.4707 363.8768 367.3179 375.6485 382.6981 388.45619 391.89729 395.94389 402.99348 408.54158 411.98268 417.74076 423.71937 426.91548 432.67356 435.86967 439.31077 445.49937 452.11848 458.73759 464.92619 469.61329 475.80189 479.84849 487.1081 492.6562 496.0973 500.7844 506.3325 516.3746 522.5632 525.7593 532.8089 538.357 541.7981 544.9942">the maturing face. This explains, why the golgi apparatus remains in</tspan><tspan y="-576.481" x="192 197.33931 200.32662 206.09642 211.43573 216.77504 219.97235 225.95217 231.29148 236.63079 242.40059 247.7399 250.7272 256.707 260.5448 263.5321 269.3019 276.14274 279.34004 287.46186 290.44917 294.28697 301.12779 304.32508 308.16288 315.0037 320.34303 323.5403 328.87965 335.72047 342.13078 347.90058 354.31089 357.2982 363.27799 368.6173 378.45063 381.43794 386.77726 389.97456 394.45286 399.79219 403.62998 406.61729 411.9566 419.00743 421.99473 429.04554 438.87886 442.07615 445.27345 452.32426 455.52156 462.36238 469.41319 479.2465 485.6568 490.99613 495.47444 498.67173 504.44154 507.63883 510.83613 517.24649 521.7248 527.4946 531.33248 536.67178 539.65908 546.4999">close association with the endoplasmic reticulum. A number of proteins</tspan><tspan y="-562.561" x="192 197.52951 203.26903 210.30004 214.32805 221.35906 226.88857 232.41808 235.59558 241.12509 246.6546 253.25511 256.6426 263.24314 268.98265 272.37016 277.03868 280.2162 286.8167 292.77674 298.30625 304.26628 314.28977 319.81929 325.3488 328.7363 334.69633 341.72734 345.11485 349.14286 356.17387 361.70338 365.09089 370.6204 377.6514 384.25193 390.21195 396.81248 399.99 406.16 411.6895 421.713 424.89054 430.42005 433.80757 438.47608 444.00559 448.0336 451.21113 456.74064 463.98164 467.15916 474.40016 484.42366 487.81117 493.98118 498.6497 504.1792 507.5667 517.5902 523.55026 530.15078 533.32827 536.71578 539.89328 545.4227">synthesised by ribosomes on the endoplasmic reticulum are modified</tspan><tspan y="-548.4" x="192 195.0748 202.0031 205.2879 209.2132 216.1415 221.5683 224.8531 230.2799 233.3547 238.78151 242.7068 248.1336 252.6994 259.62773 265.695 271.1218 274.4066 280.2639 283.54869 286.83348 290.75877 297.68708 303.11387 306.39866 312.03547 317.89277 320.96757 326.60438 329.67918 332.96397 339.03126 345.52906 352.02687 358.09416 362.65995 368.72724 372.65254 379.79084 385.21763 388.5024 395.0002 400.427 403.7118 409.5691 414.1349 419.56169 422.84648 426.77177 433.70008 439.12687 444.76368 448.04847 454.11576 458.68156 464.10835 467.39314 471.95893 477.3857 480.4605 485.8873 491.9546 497.38139 502.80818 509.30598 512.59078 515.87557 520.44137 526.29867 536.2194 539.5042 542.57907 546.50436">in the cisternae of the golgi apparatus before they are released from its</tspan></text>
<text fill="#231f20" xml:space="preserve" transform="matrix(1 0 -0 1 -18 802.8)" font-size="10.5" font-family="Bookman,Italic" font-style="italic"><tspan y="-534.481" x="192 195.9984 200.6268 206.7252 213.6636">trans</tspan></text>
<text fill="#231f20" xml:space="preserve" transform="matrix(1 0 -0 1 -18 802.8)" font-size="10.5" font-family="Bookman"><tspan y="-534.481" x="219.12 225.51889 228.92288 235.10938 240.65537 246.20136 249.60535 256.00425 264.54273 270.51924 273.71324 279.4692 282.6632 289.0621 295.2486 301.8656 308.4826 314.6691 319.3541 325.5406 329.58509 336.84257 342.38856 348.78746 351.98146 357.52745 363.92634 367.97084 375.0183 380.5643 386.9632 390.1572 400.19718 406.81419 412.79069 417.47569 421.52018 427.70668 434.75416 438.79866 445.19755 450.74354 453.93754 457.98204 463.528 469.9269 475.9034 479.3074 485.7063 489.1103 495.0868 499.7718 509.81178 515.9982 520.0427 523.2367 529.2132 536.2607 542.65957 548.63607"> face. Golgi apparatus is the important site of formation of</tspan><tspan y="-520.561" x="192 197.73412 200.90622 206.64034 212.16445 218.11905 224.71416 229.37728 235.33188 239.35449 244.8786 248.0507 255.07631 260.60044 263.98255 270.14717 277.17277 283.76789 287.15 292.8841 296.0562 301.7903 307.31443 313.26905 316.44117 319.61329 326.2084 329.38053 335.97566 341.49977">glycoproteins and glycolipids.</tspan></text>
<text fill="#6d6f71" xml:space="preserve" transform="matrix(1 0 -.20997243 1 -18 802.8)" font-size="10.500472" font-family="Bookman,Bold" font-weight="bold"><tspan y="-491.2804" x="88.84485 95.62512 99.255268 106.03554 109.66568 116.44595 120.076099 136.84716 143.57518 149.67319 155.56119 161.8692 167.7572 174.06522 184.3634 190.2514">8.5.3.3Lysosomes</tspan></text>
<text fill="#231f20" xml:space="preserve" transform="matrix(1 0 -0 1 -18 802.8)" font-size="10.5" font-family="Bookman"><tspan y="-471.1204" x="192.00019 198.72357 205.87746 211.52985 217.18224 222.83463 229.41371 235.7066 240.498 246.15039 252.72948 262.87586 268.52827 278.67466 285.39805 290.18943 296.4823 303.6362 309.2886 315.86769 322.59107 328.67396 336.03785 343.19175 349.91514 356.4942 362.1466 367.799 373.45143 376.7518 382.4042 389.7681 393.06849 399.36137 404.15275 410.7318 416.38423 420.5351 425.32649 432.69038 438.34278 442.49366 449.85755 454.64894 460.30134 465.95375 472.5328 476.04319 482.12608 486.91746 497.06385 502.71626 509.43965 516.0187 522.74209 528.60446 535.1835 539.33438 546.4882">These are membrane bound vesicular structures formed by the</tspan><tspan y="-456.9604" x="192.00019 198.72017 203.50817 209.58765 215.23664 220.88562 226.5346 232.1836 235.96059 242.04007 245.54706 249.32405 256.04405 262.33354 267.9825 274.7025 280.992 286.85099 290.14799 297.29847 303.15745 306.93443 310.2314 317.3819 321.15888 325.30638 332.45686 338.10585 342.00019 347.7602 353.8386 357.1345 362.99238 366.28828 370.06916 376.35755 383.07646 389.79536 396.08375 400.87065 407.15904 411.30543 418.6648 424.31269 427.81858 431.59947 438.31837 445.46775 451.11564 454.8965 458.1924 463.8403 469.9187 473.2146 479.503 483.64939 489.29728 496.01618 499.79707 503.09297 508.95085 514.59878 520.6771 526.325 532.4034 542.5453 548.8337">process of packaging in the golgi apparatus. The isolated lysosomal</tspan><tspan y="-443.0404" x="192.00019 197.65117 203.30216 208.95314 212.25214 217.90312 221.20212 226.8531 232.50409 238.90888 246.06137 252.35286 258.00386 263.65486 270.05964 276.78163 282.43263 288.08363 295.2361 301.6409 305.1499 311.23139 318.59388 325.74638 332.46836 338.87315 343.0226 349.1041 355.50889 362.23088 367.88188 374.28666 379.93766 385.58866 390.37864 396.23963 402.6444 407.4344 410.73338 416.38438 423.53688 429.94166 433.24064 440.39314 446.7979 453.08943 456.3884 466.5334 472.61488 478.26588 482.41535 488.82014 495.11164 498.4106 501.7096 508.11439 512.26388 518.1248 524.8468 530.4978 536.1488 542.5536 548.6351">vesicles have been found to be very rich in almost all types of</tspan><tspan y="-429.1204" x="192.00019 199.15329 205.0149 211.73749 216.52809 222.6102 225.9098 231.77141 235.92151 239.22112 244.87271 248.4073 254.0589 261.212 266.4331 272.2947 282.4403 288.09193 293.74354 297.27815 300.57774 307.73085 313.59245 320.31504 325.10563 331.1877 334.4873 340.77943 346.43104 352.08265 357.73426 361.26887 366.69996 370.23457 373.53416 376.83375 383.55635 389.84846 395.50007 401.15168 406.80329 410.3129 413.8475 420.5701 425.3607 431.44279 435.59288 441.24449 447.5366 453.1882 458.8398 464.49143 468.00105 471.53565 477.18727 483.47938 488.26997 494.99256 501.07466 508.22776 514.08938 520.81198 525.60256 531.89468 537.54629 543.1979 548.8495">hydrolytic enzymes (hydrolases &#x2013; lipases, proteases, carbohydrases)</tspan><tspan y="-414.9604" x="192.00019 198.08289 204.80609 208.95679 212.25699 222.40319 228.69588 231.99608 235.29628 241.15848 247.15357 253.44626 259.09846 263.24916 266.54936 272.20155 277.85374 283.84883 290.1415 294.2922 300.2873 304.438 311.59169 317.24388 323.23896 329.53166 335.18385 338.48405 345.20726 348.50746 354.15965 360.15473 366.87794 375.52265 379.03285 385.02793 391.75114 398.90483 404.557 410.2092 415.8614 421.85649 427.50868 434.66236 439.88407 445.74629 455.8925 461.54469 467.19688 473.19197 479.48466 484.27586 489.92805 495.92314 501.57533 507.868 514.5912 520.8839 527.6071 530.9073 536.5595 542.55459 548.63729">optimally active at the acidic pH. These enzymes are capable of</tspan><tspan y="-401.0404" x="192.00019 198.72368 202.02419 207.88669 213.53919 219.19168 223.34268 226.64319 233.7972 239.6597 244.71179 250.36429 256.6573 261.4488 268.1723 274.2553 281.4093 287.2718 293.9953 298.7868 305.0798 309.2308 314.8833 320.5358 324.0463 329.0984 335.8219 340.6134 346.6964 350.8474 356.4999 359.8004 366.9544 372.6069 376.1174 381.1695 384.47 387.7705 394.49403 397.79454 404.51805 410.17054 415.22264 421.51564 428.66963 435.39314 440.44523 447.5992 454.96324 460.61573 463.91624 469.56874 472.86924 478.52174 483.57383 489.86683 495.51933 498.81983 505.54335 511.19584">digesting carbohydrates, proteins, lipids and nucleic acids.</tspan></text>
<text fill="#6d6f71" xml:space="preserve" transform="matrix(1 0 -.20997243 1 -18 802.8)" font-size="10.500472" font-family="Bookman,Bold" font-weight="bold"><tspan y="-374.8803" x="113.28565 120.065929 123.69607 130.47635 134.10648 140.88675 144.5169 161.28797 169.07114 175.59424 181.48734 189.06049 195.3736 198.95658 204.84967">8.5.3.4Vacuoles</tspan></text>
<text fill="#231f20" xml:space="preserve" transform="matrix(1 0 -0 1 -18 802.8)" font-size="10.5" font-family="Bookman"><tspan y="-354.7203" x="192.00019 198.40729 205.24489 210.581 214.9951 220.3312 226.3078 231.6439 238.69152 244.45812 247.44222 252.77832 257.1924 260.1765 265.5126 269.9267 273.7613 280.59889 285.93498 290.34907 300.17918 305.51527 315.34538 321.75248 326.22758 332.20417 339.04176 344.37785 348.43296 354.84007 360.60667 367.65428 374.49186 380.89897 385.31306 390.64915 397.05625 403.03285 408.36894 413.70503 418.1191 421.3132 427.0798 434.1274 440.965 447.3721 451.7862 454.7703 461.60789 466.02198 469.85658 476.69416 482.03025 486.44435 491.78044 497.32655 501.16114 506.92774 513.33486 516.3189 522.29556 527.63168 537.46176 540.6558 545.0699 547.92019">The vacuole is the membrane-bound space found in the cytoplasm. It</tspan><tspan y="-340.5603" x="192.00019 197.3375 203.1053 209.9441 213.77993 219.75774 222.74304 229.58185 234.91916 237.73447 245.85428 251.83209 255.66791 261.00523 264.24018 267.43397 270.24775 275.58357 281.55986 287.96665 291.16044 293.9742 299.31 305.0763 310.4121 314.8869 320.22273 324.057 329.8233 334.2981 339.8439 342.65769 349.06449 353.53929 359.30558 365.71238 372.75968 378.09547 381.92976 384.74354 390.71983 397.55714 403.96394 406.7777 412.544 416.3783 423.2156 428.5514 433.02619 435.83998 445.66978 451.64607 455.48036 460.81617 465.29096 468.27476 474.25105 477.23484 482.57063 485.3844 492.2217 497.988 501.8223 504.63609 511.68339 517.01919 522.355 525.54879 532.59609 535.5799 538.3937 541.58749 547.35379">contains water, sap, excretory product and other materials not useful for</tspan><tspan y="-326.64033" x="192.00019 195.83449 202.67179 208.00759 211.06389 216.39969 221.73549 224.71929 227.70308 230.89688 233.95319 240.35999 247.19728 252.53308 255.58939 260.92518 266.90147 272.23725 279.28456 285.05085 288.03465 293.37043 296.42674 299.41053 304.74635 307.80265 314.20945 319.97575 327.02305 333.86036 340.26716 343.32347 349.73027 355.27607 358.33238 364.30867 367.36497 372.70075 375.68455 382.52186 388.06767 391.05146 396.38728 399.44358 409.27339 414.6092 424.439 430.8458 435.3206 441.29689 448.1342 453.46998 456.52629 461.86207 467.83836 470.82215 473.80595 479.14173 485.54853 488.60484 492.43913 498.2054 505.04273 510.80903 517.2158 520.19967 526.17599 531.5118 535.34609 538.53988 541.5961 544.99996">the cell. The vacuole is bound by a single membrane called tonoplast. In</tspan><tspan y="-312.7203" x="192.00019 198.4056 201.388 207.36292 214.19882 218.03174 220.66745 226.00186 231.33628 234.31868 237.30109 242.6355 245.27121 249.10413 255.94004 261.27445 263.91017 269.24458 275.21949 280.5539 287.5998 293.36473 296.34715 301.68156 307.01597 309.65168 314.98609 320.961 327.7969 330.43263 336.19755 341.53196 346.86637 353.91227 360.3177 365.8621 368.4978 375.5437 381.9491 384.5848 388.41773 394.18266 396.81837 403.22377 409.62916 412.26487 418.6703 424.0047 428.47813 431.11384 436.44825 441.78266 448.61857 452.45149 455.0872 460.8521 464.04454 466.68025 470.51316 477.34907 482.68348 485.31919 490.6536 496.41853 499.40095 506.44685 516.27529 521.6097 524.24539 530.01028 533.20266 535.8383 539.6712 546.50717">plant cells the vacuoles can occupy up to 90 per cent of the volume of the</tspan><tspan y="-298.5603" x="192.00019 197.1865 202.3728 205.2071 208.04141">cell.</tspan><tspan y="-284.64033" x="210.00019 213.59279 220.6189 223.1515 229.74712 232.91973 239.08484 246.11095 250.13407 255.65868 259.0413 261.57389 265.597 272.6231 278.1477 280.6803 284.7034 290.6585 297.68464 303.63975 310.23536 313.40797 319.57307 325.09767 329.12077 331.65336 335.03596 341.20106 346.72566 349.89826 353.07087 356.24348 360.26658 366.43168 370.45478 375.97938 381.50398 384.03657 388.05967 395.0858 400.61039 403.14299 407.16609 411.82969 417.99479 425.0209 430.5455 437.1411 443.09623 447.75984 451.78294 454.31553 460.27064 463.65324 466.18583 472.35093 474.8835 481.90965 489.14576 499.16438 505.75999 511.28459 515.9482 518.48086 524.436 527.8186 530.35128 533.52389 539.479 546.5051">In plants, the tonoplast facilitates the transport of a number of ions</tspan><tspan y="-270.7203" x="192.00019 197.8154 204.49161 210.73732 212.92003 218.52524 222.19846 228.87467 234.04938 238.36309 240.54579 250.21451 256.02973 259.70295 264.87767 269.19139 272.0141 277.8293 280.65205 285.82676 288.00947 293.82469 299.20939 305.0246 307.84733 314.52354 319.69825 323.37147 325.55418 330.72889 336.3341 343.0103 348.18504 353.35975 360.03596 363.70918 368.0229 373.8381 377.51133 380.33406 385.93928 392.61549 394.7982 400.1829 404.4966 410.31184 416.55754 419.38026 424.55497 431.23118 434.9044 440.0791 442.2618 445.08454 451.76075 455.43397 461.03919 463.2219 466.8951 473.57133 478.74604 480.92875 486.10346 491.91868 497.09339 503.97959 509.5848 512.40756 517.5822 520.6149 522.79769 529.4739 534.64859 541.32479 546.49948">and other materials against concentration gradients into the vacuole, hence</tspan><tspan y="-256.5603" x="192.00019 196.04738 203.09757 208.64626 211.84294 216.53063 220.63233 226.18102 232.1602 239.21039 244.75908 250.30777 257.35798 261.40516 266.09284 272.282 276.3292 279.52589 285.50508 292.55528 296.65696 299.85365 305.4023 309.504 315.05268 318.24937 324.00807 331.05827 334.25495 337.66163 340.8583 346.40699 352.59617 359.64637 363.69355 366.89024 372.64894 376.7506 383.8008 386.9975 392.7562 399.8064 405.35508 410.04277 414.14445 417.34114 424.39134 428.493 432.5402 439.5904 445.13908 449.24076 454.78944 460.9786 466.52729 473.78749 479.76667 482.96336 488.51203 492.6137 496.6609 503.7111 509.90028 516.95046 521.0521 524.24887 531.299 535.4007 539.4479 546.49807">their concentration is significantly higher in the vacuole than in the</tspan><tspan y="-242.6403" x="192.00019 197.37039 202.9506 206.81932 212.62003 219.06124 222.07944 228.09015 233.46036 243.32457">cytoplasm.</tspan><tspan y="-228.7203" x="210.00019 213.48828 220.40988">In </tspan></text>
<text fill="#231f20" xml:space="preserve" transform="matrix(1 0 -0 1 -18 802.8)" font-size="10.5" font-family="Bookman,Italic" font-style="italic"><tspan y="-228.7203" x="222.96018 230.03577 239.84137 245.65697 251.05257 257.49818 263.52378">Amoeba,</tspan></text>
<text fill="#231f20" xml:space="preserve" transform="matrix(1 0 -0 1 -18 802.8)" font-size="10.5" font-family="Bookman"><tspan y="-228.7203" x="266.6402 269.099 273.0483 280.0006 285.45143"> the </tspan></text>
<text fill="#231f20" xml:space="preserve" transform="matrix(1 0 -0 1 -18 802.8)" font-size="10.5" font-family="Bookman,Bold" font-weight="bold"><tspan y="-228.7203" x="288.00019 293.78648 299.99278 307.24906 311.56538 316.51167 322.92796 328.71424 333.03056 336.50685 339.98313 345.7694 348.50575 354.29203 360.7083 366.4946 373.9609 380.1672 383.6435">contractile vacuole</tspan></text>
<text fill="#231f20" xml:space="preserve" transform="matrix(1 0 -0 1 -18 802.8)" font-size="10.5" font-family="Bookman"><tspan y="-228.7203" x="389.5202 391.9845 395.0888 400.5451 403.0094 406.1137 416.064 422.5913 428.47813 433.07344 437.02824 443.12504 450.08283 454.03764 456.50193 459.81623 465.70304 470.29835 472.76264 478.64945 484.10575 494.05604 499.94285 504.53816 509.99446 515.66079 522.82858 525.93289 532.02969 535.98446 539.08877 544.9755"> is important for osmoregulation</tspan><tspan y="-214.5603" x="192.00019 198.0665 204.9938 211.49062 213.92443 219.35024 225.20655 230.63236 235.19716 240.62297 244.54729 247.6211 253.4774 260.40473 263.68855 266.12236 269.61616 276.54347 278.97727 288.89707 294.96339 301.8907 307.5265 309.9603 315.3861 320.81193 323.88575 326.95957 332.38539 335.6692 338.103 344.1693 349.59513 352.02894 355.10276 362.03007 364.46388 370.9607 375.5255 381.38185 385.30616 388.37998 393.8058 397.7301 403.1559 406.43974">and excretion. In many cells, as in protists, </tspan></text>
<text fill="#231f20" xml:space="preserve" transform="matrix(1 0 -0 1 -18 802.8)" font-size="10.5" font-family="Bookman,Bold" font-weight="bold"><tspan y="-214.5603" x="408.72019 412.3625 418.5248 424.68714 431.47944 434.17176 439.91407 446.28639 452.0287 459.451 465.6133 469.04563 474.78794 480.53025">food vacuoles </tspan></text>
<text fill="#231f20" xml:space="preserve" transform="matrix(1 0 -0 1 -18 802.8)" font-size="10.5" font-family="Bookman"><tspan y="-214.5603" x="483.36018 489.42027 493.97886 499.39845 501.82603 505.1036 510.9537 515.5123 525.4259 530.8455 537.3361 539.76376 546.25436">are formed by</tspan><tspan y="-200.6403" x="192.00019 197.43979 204.38089 210.03049 217.18158 220.26918 223.56679 226.65439 233.59549 239.24509 241.69269 245.63079 252.57189 258.01148 260.45909 263.75669 269.62678 275.49687 282.00746 284.45506 290.96565 297.04576 301.62437 305.56248 308.65007 314.08967 317.17726 322.61686 328.05647">engulfing the food particles.</tspan></text>
<text fill="#00aeef" xml:space="preserve" transform="matrix(1 0 -0 1 -18 802.8)" font-size="12" font-family="Bookman,Bold" font-weight="bold"><tspan y="-174.4803" x="192.00019 200.28018 204.96018 213.24018 217.92017 234.00019 245.54239 249.64459 254.70679 261.929 268.67118 277.09339 284.31559 292.7378 300.68 306.4622 310.5644">8.5.4Mitochondria</tspan></text>
<text fill="#231f20" xml:space="preserve" transform="matrix(1 0 -0 1 -18 802.8)" font-size="10.5" font-family="Bookman"><tspan y="-154.32032" x="192.00019 201.71089 204.7961 208.73181 214.59952 220.03673 226.97544 232.84314 239.78185 246.29006 250.86627 253.95148 260.02919 262.47438 265.55958 270.99678 274.08198 281.0207 286.6679 289.9631 293.2583 295.7035 305.6347 308.7199 312.6556 318.52333 323.9605 330.89924 336.76695 343.70567 350.21388 354.79008 357.87528 363.74299 370.6817 373.7669 377.0621 379.5073 386.656 393.59474 396.67994 402.11714 407.55433 412.99153 415.4367 420.8739 427.3821 432.81935 438.25654 441.34175 444.63694 447.72215 453.15937 459.23707 462.32228 465.40748 471.0547 473.49989 478.93708 482.87278 488.95048 492.03569 498.9744 504.41163 510.91984 514.215 516.6603 522.738 527.3142 532.7514 535.19668 542.1354 548.0031">Mitochondria (sing.: mitochondrion), unless specifically stained, are not</tspan><tspan y="-140.16031" x="192.00019 197.38719 203.4147 208.80171 211.83672 214.87172 220.46874 222.86374 228.25075 231.28575 236.67276 239.70777 246.16577 249.20078 254.58779 256.9828 264.0813 270.96983 277.42784 282.81486 287.34086 289.73585 293.62135 300.50987 305.89689 308.29188 318.17289 321.2079 326.5949 331.1209 336.93843 342.32545 347.71247 353.52998 359.98799 365.375 368.62 371.01499 377.473 384.3615 389.74855 392.14353 399.03205 406.13056 416.01158 422.46958 427.8566 432.3826 434.7776 440.5951 443.8401 446.23509 456.1161 459.1511 463.0366 468.8541 474.24113 481.12965 486.94715 493.83567 500.29368 504.81968 507.85469 513.8822 516.2772 522.7352 528.12228 532.64828 535.0433 540.4303 545.8173 548.85238">easily visible under the microscope. The number of mitochondria per cell</tspan><tspan y="-126.24031" x="192.00019 195.01079 200.3734 202.744 208.10662 214.10973 218.61135 221.62195 227.62506 234.05867 237.06928 242.43189 244.80249 251.2361 256.59873 263.03236 268.39497 275.25907 281.6927 284.7033 291.5674 297.14 299.51063 305.30375 312.16786 314.53846 318.39958 325.26368 330.62629 332.9969 339.4305 346.29463 351.86723 357.22984 360.24046 366.03358 369.0442 374.8373 380.4099 383.42054 388.78315 394.78627 397.79689 402.72019 408.7284 414.0961 417.9623 420.978 426.3457 429.3614 433.2276 438.8053 441.181 446.9792 450.2049 452.5806 456.4468 463.316 468.68373 471.05943 476.42713 481.79484 484.81053 487.8262 493.1939 496.41963 498.79533 502.23103 509.10023 511.47593 515.3421 520.7098 525.2165 535.0782 540.44589 542.8216 548.6198">is variable depending on the physiological activity of the cells. In terms of</tspan><tspan y="-112.32031" x="192.00019 197.2235 203.9483 209.81212 216.10643 221.32975 223.56105 229.42487 236.14968 242.44399 244.6753 249.8986 252.76992 257.5627 262.786 265.0173 270.8811 273.7524 278.9757 284.62953 287.71083 289.9421 295.1654 300.8192 307.54405 312.76734 315.63865 321.93296 327.15626 331.51856 337.38236 343.67668 346.54798 351.77128 354.00257 360.29689 365.52018 370.9535 375.3158 380.5391 385.7624 387.99369 393.6475 396.7288 398.96009 404.18339 410.04719 414.4095 417.2808 423.1446 429.4389 432.3102 435.18153 438.05284 441.77464 447.20796 449.43925 452.31056 457.53385 459.76515 465.41896 471.71327 476.93656 482.15986 486.52217 491.74546 496.96876 503.26307 506.34437 508.57566 514.86996 520.3032 526.59756 529.4689 534.6922 540.556 543.42739 546.2987">shape and size also, considerable degree of variability is observed. Typically</tspan><tspan y="-98.16031" x="192.00019 194.88979 198.6299 200.8795 203.7691 209.01071 211.26032 216.50193 222.38404 229.33715 234.57875 240.46086 245.91248 251.15409 255.1147 260.35633 267.09944 272.98155 279.29417 284.53578 290.8484 293.098 298.7701 303.15074 305.40034 310.64195 316.09355 318.98316 321.87278 328.61589 334.9285 339.3091 342.19874 347.44035 353.32246 356.21208 358.46168 365.20478 371.08689 376.3285 379.2181 385.9612 391.4128 393.6624 399.54454 401.79414 408.10676 410.99638 416.87849 426.61408 431.85569 435.5958 440.8374 445.21803 447.46763 453.13975 456.23936 458.48896 464.80158 467.90119 474.2138 478.1744 484.48704 487.58665">it is sausage-shaped or cylindrical having a diameter of 0.2-1.0</tspan></text>
<text fill="#231f20" xml:space="preserve" transform="matrix(1 0 -0 1 -18 802.8)" font-size="10.5" font-family="Symbol"><tspan y="-98.16031" x="493.68019">&#x00b5;</tspan></text>
<text fill="#231f20" xml:space="preserve" transform="matrix(1 0 -0 1 -18 802.8)" font-size="10.5" font-family="Bookman"><tspan y="-98.16031" x="499.4402 509.1833 511.4404 514.3375 520.2271 525.4762 530.7253 535.1134 541.003 546.4621">m (average</tspan><tspan y="-84.240299" x="192.00019 198.00019 201.70688">0.5</tspan></text>
<text fill="#231f20" xml:space="preserve" transform="matrix(1 0 -0 1 -18 802.8)" font-size="10.5" font-family="Symbol"><tspan y="-84.240299" x="208.80019">&#x00b5;</tspan></text>
<text fill="#231f20" xml:space="preserve" transform="matrix(1 0 -0 1 -18 802.8)" font-size="10.5" font-family="Bookman"><tspan y="-84.240299" x="215.04019 225.45229 229.01837 234.49446 241.05306 248.47264 255.46173 260.9378 264.5039 270.422 277.84159 283.96968 288.38627 295.80586 301.28193 308.27104 312.04713 319.03623 323.6733 330.6624 334.4385">m) and length 1.0-4.1</tspan></text>
<text fill="#231f20" xml:space="preserve" transform="matrix(1 0 -0 1 -18 802.8)" font-size="10.5" font-family="Symbol"><tspan y="-84.240299" x="341.5202">&#x00b5;</tspan></text>
<text fill="#231f20" xml:space="preserve" transform="matrix(1 0 -0 1 -18 802.8)" font-size="10.5" font-family="Bookman"><tspan y="-84.240299" x="347.7602 358.1847 361.9732 367.4617 375.5342 382.10523 388.03575 395.46775 400.95625 411.38075 414.95924 419.3882 425.7492 431.67973 439.11174 445.47273 452.90473 459.90623 464.9757 468.5542 474.9152 482.3472 487.8357 491.41419 497.3447 502.8332 509.4042 514.8927 521.8942 528.25527 535.8973 542.8988 546.4773">m. Each mitochondrion is a double</tspan></text>
<g clip-path="url(#clip_4484)">
<text xml:space="preserve" transform="matrix(1 0 -0 1 259.314 763.9998)" font-size="8" font-family="Arial"><tspan y="6.316" x="0"> </tspan></text>
</g>
</g>
</svg>
