<svg xmlns="http://www.w3.org/2000/svg" xmlns:xlink="http://www.w3.org/1999/xlink" xmlns:inkscape="http://www.inkscape.org/namespaces/inkscape" version="1.1" width="576" height="784.8" viewBox="0 0 576 784.8">
<defs>
<clipPath id="clip_5">
<path transform="matrix(1,0,0,-1,-18,802.8)" d="M18 18H594V802.8H18Z" clip-rule="evenodd"/>
</clipPath>
<clipPath id="clip_6">
<path transform="matrix(1,0,0,-1,259.314,763.99978)" d="M0-8H57.372V.800049H0Z"/>
</clipPath>
</defs>
<g clip-path="url(#clip_5)">
<path transform="matrix(.24,0,0,-.24,-18,802.8)" d="M2 2H2548V214.67H2Z" fill="#cbdf7f" fill-rule="evenodd"/>
<path transform="matrix(.24,0,0,-.24,-18,802.8)" stroke-width="4" stroke-linecap="butt" stroke-miterlimit="1000" stroke-linejoin="miter" fill="none" stroke="#cbdf7f" d="M2 2H2548V214.67H2Z"/>
<path transform="matrix(.24,0,0,-.24,-18,802.8)" d="M0 3035.83H2550V3372.7003H0Z" fill="#d1d3d4" fill-rule="evenodd"/>
<path transform="matrix(.24,0,0,-.24,-18,802.8)" d="M0 3078.33H2550V3420H0Z" fill="#e1ecb6" fill-rule="evenodd"/>
<path transform="matrix(.24,0,0,-.24,62.6362,53.63501)" d="M0 0C7.32 7.32 16.16 10.98 26.52 10.98H97.35C107.7 10.98 116.54 7.32 123.87 0 131.19-7.32 134.85-16.16 134.85-26.52V-101.52C134.85-111.88 131.19-120.72 123.87-128.04 116.54-135.36 107.7-139.02 97.35-139.02H26.52C16.16-139.02 7.32-135.36 0-128.04-7.32-120.72-10.98-111.88-10.98-101.52V-26.52C-10.98-16.16-7.32-7.32 0 0" fill="#ffffff" fill-rule="evenodd"/>
<text fill="#231f20" xml:space="preserve" transform="matrix(1 0 -0 1 -18 802.8)" font-size="11" font-family="Bookman,Bold" font-weight="bold"><tspan y="-729.361" x="87.12 94.26001">24</tspan></text>
<text fill="#231f20" xml:space="preserve" transform="matrix(1 0 -0 1 -18 802.8)" font-size="11" font-family="Bookman"><tspan y="-729.361" x="513.12">B</tspan></text>
<text fill="#231f20" xml:space="preserve" transform="matrix(1 0 -0 1 -18 802.8)" font-size="7.69999" font-family="Bookman"><tspan y="-729.361" x="521.04 523.3687 529.3087 533.6779 539.6179 545.5579">IOLOGY</tspan></text>
<path transform="matrix(.24,0,0,-.24,-18,.35998536)" stroke-width="1" stroke-linecap="butt" stroke-miterlimit="10" stroke-linejoin="miter" fill="none" stroke="#000000" d="M0 0H60"/>
<path transform="matrix(.24,0,0,-.24,.12000084,-18)" stroke-width="1" stroke-linecap="butt" stroke-miterlimit="10" stroke-linejoin="miter" fill="none" stroke="#000000" d="M0 0V-60"/>
<path transform="matrix(.24,0,0,-.24,-18,784.68)" stroke-width="1" stroke-linecap="butt" stroke-miterlimit="10" stroke-linejoin="miter" fill="none" stroke="#000000" d="M0 0H60"/>
<path transform="matrix(.24,0,0,-.24,.12000084,788.16)" stroke-width="1" stroke-linecap="butt" stroke-miterlimit="10" stroke-linejoin="miter" fill="none" stroke="#000000" d="M0 0V-60"/>
<path transform="matrix(.24,0,0,-.24,593.64,784.56)" stroke-width="1" stroke-linecap="butt" stroke-miterlimit="10" stroke-linejoin="miter" fill="none" stroke="#000000" d="M0 0V-75"/>
<text fill="#231f20" xml:space="preserve" transform="matrix(1 0 -0 1 -18 802.8)" font-size="10.5" font-family="Bookman"><tspan y="-688.561" x="192.24 199.2885 205.26599 209.3115 213.57649 219.55399 226.60248 229.79749 235.55449 239.81949 243.86499 250.91349 256.46049 260.72547 266.27247 272.24998 276.29548 281.84248 286.52848 293.57698 299.76448 302.95948 307.22447 310.62947 316.17646 322.36396 326.40946 333.66798 338.35398 343.90098 349.44798 352.85298 357.11796 363.73597 370.99449 375.03999 379.30497 385.49247 388.68748 394.23448 400.21199 404.47697 407.67198 414.72047 418.76597 424.31297 428.99897 436.04747 442.23497 445.42997 449.69496 453.09996 458.64695 464.83445 468.87995 476.13847 480.82447 486.37147 491.91847 495.32347 499.58845 502.78346 505.97846 512.59646 518.14346 522.40847 529.66696 532.86196 536.9074 541.5934 547.7809">not only the external features, but also internal features, like ultra-</tspan><tspan y="-674.641" x="192.24 198.3579 202.97429 208.23119 216.06058 222.17847 226.79486 234.62425 239.88115 245.99904 249.97493 255.65082 262.4092 270.0286 276.787 281.40339 287.95179 298.56367 304.89155 308.86744 314.5433 320.6612 331.27308 338.46199 343.71888 350.04676 356.59516 360.36106 366.90946 373.23735 379.56523 385.2411 391.99949 399.61888 406.80778 412.48365 419.67256 427.29194 433.6198 438.2362 444.7846 450.9025 458.52189 464.63978 475.25166 479.01756 485.13545 489.75184 495.00874 501.3366 505.3125 510.98838 518.6078 526.4372 532.5551 540.1745 545.8504">structure, anatomy, embryology and phytochemistry. Such a</tspan><tspan y="-660.721" x="192.24 197.78749 200.98299 207.17098 212.71846 218.26595 221.46144 224.86693 228.06243 233.60991 239.7979 243.84389 247.03939 253.01738 260.06639 263.93858 267.34407 273.32206 278.00856 281.88075 285.28623 288.48173 294.45973 302.7897 308.3372 313.02369 316.21919 323.26817 329.02565 332.89784 339.51634 342.71183 348.8998 355.9488 359.99479 365.54228 369.41447 377.74446 383.93244 389.47993 393.3521 399.1096 402.30509 407.85258 413.40007 420.44905 424.32124 430.93974 436.6972 440.5694 449.10939 454.65687 460.63487 465.32136 471.07884 476.6263 480.4985 488.398 493.9455 500.99449 505.04048 512.0895 518.27749 528.319 532.19119 538.37918 545.42819">classification for flowering plants was given by George Bentham and</tspan><tspan y="-646.56106" x="192.24 198 203.9091 209.38771 214.86632 221.41593 228.39603 230.88263 239.35375 245.47286 248.59947 252.57659 258.4857 265.4658 267.9524 276.24 282.47999 288.36979 294.9001 300.35939 303.59999">Joseph Dalton Hooker.</tspan><tspan y="-632.64108" x="210.23998 217.97856 222.50415 228.08924 235.18732 240.35341 246.3805 252.40758 258.43467 265.96327">At present</tspan></text>
<text fill="#231f20" xml:space="preserve" transform="matrix(1 0 -0 1 -18 802.8)" font-size="10.5" font-family="Bookman,Bold" font-weight="bold"><tspan y="-632.64108" x="270.47999 276.71488 284.19987 292.10487 298.74986 302.87486 309.72984 316.37483 322.8098 330.7148 337.1498 342.1148 346.2398 352.6748 358.9097 365.3447 369.4697 376.5347 382.9697 389.4047 393.5297 397.8647 401.9897 408.42469 415.4897 420.45469 424.57969 431.43467 439.33967 445.57456 452.00956 458.65455 465.08955 470.05455 476.48954 487.33454 493.76954"> phylogenetic classification systems </tspan></text>
<text fill="#231f20" xml:space="preserve" transform="matrix(1 0 -0 1 -18 802.8)" font-size="10.5" font-family="Bookman"><tspan y="-632.64108" x="499.91999 507.0294 513.7083 519.7467 525.7851 532.8945 538.4909 544.9598">based on</tspan><tspan y="-618.72109" x="192.23999 197.5488 202.8576 208.59691 211.55373 218.57404 222.38135 225.33817 231.07747 237.88777 243.83708 248.2849 253.80371 256.1205 260.56834 265.87715 268.83396 274.78327 278.59059 281.5474 287.2867 294.09703 299.40583 306.21614 309.17295 315.55278 320.86158 323.17839 329.5582 334.867 338.67433 346.76564 352.07444 357.38325 364.19355 366.51036 370.31767 377.12797 382.43678 384.75358 390.06239 396.0117 400.4595 403.41633 409.15565 416.17597 421.48478 423.80158 429.5409 433.9887 439.5075 445.45683 452.26713 455.22395 460.53276 470.33555 475.64436 477.96116 483.91047 488.35829 493.66709 495.9839 501.9332 507.242 512.55087 517.8597 524.2395 528.0468 533.99618 540.376 543.33279 548.6416">evolutionary relationships between the various organisms are acceptable.</tspan><tspan y="-604.5611" x="192.23999 198.6583 205.5071 208.5024 213.8497 216.205 222.19281 227.54012 232.88742 239.94623 249.78752 255.13483 260.48213 262.8374 266.6832 273.53199 279.51979 283.36558 285.72087 291.49867 295.98497 301.54228 307.53007 314.37886 317.37416 322.72145 332.56275 337.91004 340.26533 346.68363 352.0309 355.0262 360.80403 367.6528 373.2101 376.2054 383.0542 388.6115 390.9668 394.8126 400.5904 402.94569 406.79148 413.64027 418.98756 421.34284 426.69013 432.67793 442.51924 447.86653 450.2218 454.0676 460.0554 465.8332 471.82099 474.17628 481.02507 487.01286 492.36015 497.70744 500.0627 506.0505 508.4058 513.7531 519.5309 529.3722 539.2135 544.9913">This assumes that organisms belonging to the same taxa have a common</tspan><tspan y="-590.6411" x="192.23999 198.3677 205.35642 210.84363 216.33084 221.81806 225.80376 231.72147 234.95999 238.31629 240.82257 243.32886 245.83515 254.87999 260.3603 262.84858 269.83039 275.74119 284.00398 286.49226 293.68406 299.16435 304.64463 307.1329 310.2612 317.243 320.5813 326.4921 331.1114 341.0857 347.20649 351.18528 354.31358 360.22438 367.20619 369.69447 373.03276 377.65205 383.56285 393.53715 396.02543 405.99974 412.1205 419.10234 424.79264 427.2809 433.1917 437.1705 444.1523 449.6326 454.2519 456.74018 462.22047 468.13127 475.32307 479.94236 485.42265 490.90293 496.3832 498.8715 502.85029 509.03999 514.9488 517.4351 521.4119 527.32077 529.80709 536.78689 542.26516 545.3914">ancestor.   We now use information from many other sources too to help</tspan><tspan y="-576.7211" x="192.23999 196.77999 202.18099 207.58199 213.41349 216.46248 221.86348 227.26448 229.67348 236.14548 239.19448 242.45348 245.71248 248.76148 254.16248 261.27497 264.32398 268.22349 271.2725 276.6735 282.0745 284.4835 287.5325 294.435 296.844 302.245 305.294 311.3355 316.7365 322.1375 325.18653 328.44554 331.49455 336.89555 342.93705 346.83656 349.88557 355.71708 362.61958 365.87858 368.28758 370.69657 377.16859 384.07109 389.47209 394.87309 400.27409 402.68309 409.1551 414.5561 419.9571 425.7886 435.6836 441.0846 443.4936 453.38859 459.2201 463.7601 469.1611 471.5701 474.6191 484.5141 490.9861 496.81764 501.35765 505.25715 511.29866 518.2012 522.10067 524.50967 532.6931 539.59567 544.99667">resolve difficulties in classification.  These become more important when</tspan><tspan y="-562.56118" x="192.23999 196.28289 203.32877 208.87316 213.55655 219.10094 222.03662 225.229 230.77339 233.70908 240.75496 246.72985 249.66553 255.20992 262.46583 269.0812 275.6966 281.67149 286.35487 290.39775 293.59013 300.63603 306.3904 309.3261 312.72853 318.7034 324.2478 329.7922 332.9846 336.17698 339.11268 344.65708 350.20149 353.39387 360.00926 365.55366 372.59956 378.14396 383.68836 387.09077">there is no supporting fossil evidence. </tspan></text>
<text fill="#231f20" xml:space="preserve" transform="matrix(1 0 -0 1 -18 802.8)" font-size="10.5" font-family="Bookman,Bold" font-weight="bold"><tspan y="-562.56118" x="390 398.1885 405.747 416.03553 421.91404 426.95256 430.52107 436.39958 442.90809 446.4766 449.7301 456.6586 463.1671 469.46565 475.76417 483.11268 489.4112 499.6997 505.7882">Numerical Taxonomy </tspan></text>
<text fill="#231f20" xml:space="preserve" transform="matrix(1 0 -0 1 -18 802.8)" font-size="10.5" font-family="Bookman"><tspan y="-562.56118" x="509.043 517.3942 524.4644 527.6811 533.2498 540.32 543.2467 546.4634">which is</tspan><tspan y="-548.6412" x="192.23999 199.28899 205.26699 213.59697 218.62746 224.17494 230.36293 235.91042 239.10591 242.3014 248.0589 253.08939 258.63688 264.82487 269.51136 274.19786 277.39335 282.94084 289.55934 294.5898 300.5678 307.8268 311.8728 316.9033 324.1623 329.70979 332.90528 339.95426 345.71174 350.74223 356.2897 362.2677 372.3092 378.9277 386.1867 390.2327 395.78019 400.46669 406.01417 411.04466 414.24015">now easily carried out using computers is</tspan></text>
<text fill="#231f20" xml:space="preserve" transform="matrix(1 0 -0 1 -18 802.8)" font-size="10.5" font-family="Bookman,Bold" font-weight="bold"><tspan y="-548.6412" x="419.76"> </tspan></text>
<text fill="#231f20" xml:space="preserve" transform="matrix(1 0 -0 1 -18 802.8)" font-size="10.5" font-family="Bookman"><tspan y="-548.6412" x="425.28 431.8995 438.0885 443.637 449.1855 455.805 460.8448 466.8238 473.87379 478.91358 485.10258 488.29908 491.49559 496.53538 502.51438 509.13389 514.6824 520.2309 524.9184 530.4669 536.65597 543.27548 546.4719">based on all observable</tspan><tspan y="-534.7212" x="192.24 197.60622 204.47393 210.48064 214.98584 220.99256 226.35877 230.22348 235.58969 240.0949 243.1091 248.47531 252.34003 255.35424 260.72044 266.08665 269.31086 271.68507 279.40327 286.48097 296.34117 302.77839 308.1446 312.6498 315.02403 321.03074 327.89845 334.33567 336.70988 342.07609 347.8728 354.31004 359.67625 365.04246 367.41667 373.42338 377.9286 383.2948 385.669 391.67573 397.04194 402.40815 405.42237 410.99858 417.86628 423.23249 429.6697 432.0439 435.90864 441.70536 444.07957 450.08628 453.1005 456.11473 458.48893 462.35365 469.22135 474.58757 476.96177 482.32798 489.19569 495.2024 499.7076 505.71434 511.08055 514.94528 520.31149 524.81668 530.18289 532.55709 538.5638 545.4315">characteristics. Number and codes are assigned to all the characters and</tspan><tspan y="-520.5612" x="192.24 196.2872 203.33739 208.88608 211.89278 218.51247 224.70166 228.74886 234.93805 237.94475 244.13394 248.82163 254.37032 257.377 261.4242 268.4744 274.02308 281.07328 284.07997 290.69966 295.38734 301.36653 306.9152 312.46388 318.01255 323.56123 329.1099 335.72959 339.13627 342.14295 345.75965 352.80986 355.81654 359.8637 366.9139 370.1106 375.65928 378.66596 386.99714 393.1863 398.945 401.9517 407.50038 413.68955 419.23823 426.28843 429.2951 434.84379 441.89399 448.08317 452.77085 458.96003 464.5087 468.55589 474.10456 478.79225 481.79893 484.9956 490.54429 493.55097 499.30967 502.50636 508.05503 513.6037 520.6539 523.6606 529.2093 535.3985 542.6587 548.8479">the data are then processed. In this way each character is given equal</tspan><tspan y="-506.6412" x="192.24 195.5558 205.71759 212.45638 218.55467 223.36147 227.52776 233.83605 241.00534 246.67313 252.34091 257.56669 263.87498 271.04426 277.78306 283.00883 289.3171 293.4834 298.70918 302.87547 310.04475 315.71253 320.9383 326.60609 332.91438 343.07618 348.74397 353.96974 358.13603 361.4518 371.61363 377.2814 382.50718 389.67646 397.05577 404.22505 410.96385 415.77064 421.43843 428.17723 433.845 439.07078 445.16908 448.69486 453.92063 459.5884 466.7577 473.06599 477.87278 484.18107 489.84886 494.01515 499.68293 504.48973 510.1575 515.3833 521.0511 527.3594 534.5287 539.7545 546.4933">importance and at the same time hundreds of characters can be</tspan><tspan y="-492.7212" x="192.24 197.7924 203.7753 210.8292 216.38159 219.58199 226.20539 231.75778 236.44919 242.00159 248.62499 252.03539">considered. </tspan></text>
<text fill="#231f20" xml:space="preserve" transform="matrix(1 0 -0 1 -18 802.8)" font-size="10.5" font-family="Bookman,Bold" font-weight="bold"><tspan y="-492.7212" x="255.84 264.03269 270.1254 274.5381 280.8408 285.25349 291.76618 298.06889 304.37159 311.72428 318.02699 328.31968 334.41239 338.1951">Cytotaxonomy, </tspan></text>
<text fill="#231f20" xml:space="preserve" transform="matrix(1 0 -0 1 -18 802.8)" font-size="10.5" font-family="Bookman"><tspan y="-492.7212" x="342.96 347.0015 354.046 360.2295 364.271 368.352 371.543 377.086 381.167 387.781 393.9645 399.5075 405.0505 411.66453 415.7455 421.71903 428.76353 432.8445 438.3875 444.1405 448.182 454.15553 457.34654 463.32005 469.07304 472.26405 477.80705 483.99055 487.18156 491.26255 494.45356 501.49806 504.89906 510.87257 515.55459 525.59158 531.775 535.8165 539.0075 544.981">that is based on cytological information</tspan><tspan y="-478.5612" x="192.23999 195.42549 198.611 205.2195 210.757 213.30249 218.84 225.879 230.5555 236.5235 246.555 252.523 258.0605 264.02848 274.05998 279.59748 282.14299 289.18199 296.43098 306.46247 313.07096 318.60847 321.84 325.2346 327.77919 333.31578 337.35087 342.02647 349.27458 354.81117 358.84626 366.09437 370.76997 376.30656 379.70115 382.24574 388.85334 394.38993 401.428 407.6051 413.1417 416.3263 422.2934 429.5415 434.2171 436.7617 442.93879 449.97688 456.58448">like chromosome number, structure, behaviour and </tspan></text>
<text fill="#231f20" xml:space="preserve" transform="matrix(1 0 -0 1 -18 802.8)" font-size="10.5" font-family="Bookman,Bold" font-weight="bold"><tspan y="-478.5612" x="459.12 464.9888 472.3276 478.1964 488.47523 494.76405 499.16285 505.66166 511.95048 518.23928 525.57809 531.8669 542.1457 548.2245">chemotaxonomy,</tspan></text>
<text fill="#231f20" xml:space="preserve" transform="matrix(1 0 -0 1 -18 802.8)" font-size="10.5" font-family="Bookman"><tspan y="-464.64118" x="192.23999 196.28459 203.33219 209.51879 213.56339 216.33249 223.59009 229.13619 234.68228 240.22838 242.99748 247.04209 254.08969 259.6358 262.40495 267.95106 274.99867 280.54478 290.58488 293.77897 299.32508 305.5117 308.70579 311.4749 317.02104 322.99763 330.04524 335.59135 339.63594 342.83003 346.8746 354.1322 359.6783 366.72593 370.7705 376.31663 379.08576 385.06236 388.46647 391.2356 395.28019 402.3278 407.8739 410.64305 417.26014 420.45423 426.64085 433.68846 437.73304 440.50218 444.54676 450.52336 453.29249 457.97758 463.52369 469.0698 475.0464 478.24049 483.7866 489.3327 492.10185 497.64796 503.62455 510.67216 514.07626 521.33389 526.87997 530.07406 536.05068 543.09829 548.64437">that uses the chemical constituents of the plant to resolve confusions,</tspan><tspan y="-450.72117" x="192.23999 198.4243 203.10712 208.65093 211.66104 217.84535 221.03716 226.58097 232.55527 235.56539 242.8207 248.3645 253.90831 260.52314 263.53327 270.14808 275.9019 278.91203 282.9543 289.1386 295.1129 301.08723 308.13255 314.10685 324.14466 327.33647 332.88029 336.92259 342.4664 345.47654 349.51884 356.56416 362.10798 367.6518 373.19563 376.20576 382.82057 389.00489 394.7587 400.30253">are also used by taxonomists these days.</tspan></text>
<text fill="#00aeef" xml:space="preserve" transform="matrix(1 0 -0 1 -18 802.8)" font-size="13" font-family="Bookman,Bold" font-weight="bold"><tspan y="-418.56117" x="192.23999 200.58139 205.0228 226.31999">3.1A</tspan></text>
<text fill="#00aeef" xml:space="preserve" transform="matrix(1 0 -0 1 -18 802.8)" font-size="9.1" font-family="Bookman,Bold" font-weight="bold"><tspan y="-418.56117" x="235.43999 241.08589 248.55179 254.92569">LGAE</tspan></text>
<text fill="#231f20" xml:space="preserve" transform="matrix(1 0 -0 1 -18 802.8)" font-size="10.5" font-family="Bookman"><tspan y="-392.64115" x="192.23999 200.63999 204.12299 210.16799 216.64348 222.47849 227.87148 234.34697 239.32097 245.15598 250.54897 256.38398 263.72047 267.20347 273.46897 278.44297 284.70848 291.61448 298.95097 304.99598 308.47898 311.96199 316.51597 323.42198 329.25697 335.73246 340.70646 344.18946 351.52595 357.57096 361.26396 366.65693 372.4919 375.9749 386.30393 393.20994 396.69294 402.52793 406.22093 411.6139 415.9474 423.28388 429.75938 433.24238 436.72538 442.99089 446.47389 453.37989 457.07289 462.46586 468.94136 476.48786 480.82136 487.08686 491.42036 496.39436 502.65986 509.56587 516.90237 520.3853 526.22036 531.61337 538.08889 545.42538">Algae are chlorophyll-bearing, simple, thalloid, autotrophic and</tspan><tspan y="-378.72114" x="192.23999 195.59908 201.95067 206.80075 212.72185 218.43294 221.79203 227.71312 230.4322 236.7838 243.13539 250.55799 256.90959 261.11918 264.47828 270.18937 272.90846 276.26756 283.04966 289.19126 293.40086 300.61344 303.33253 306.9016 311.7517 317.4628 323.1739 330.38648 333.10557 341.59916 347.95075 352.16035 357.87144 362.72154 365.4406 371.7922 379.0048 385.7869 388.50599 398.71107 405.06266 409.91276 413.27186 420.48445 426.19554 429.55464 432.2737 438.4153 443.2654 449.1865 455.5381 462.75068 466.10978 471.82087 482.02595 487.73704 491.30613 494.0252 500.8073 508.0199 513.73098 519.65206 522.37118 528.51278 534.2239 539.93496 547.35757">largely aquatic (both fresh water and marine) organisms. They occur</tspan><tspan y="-364.56114" x="192.23999 195.64298 202.89946 205.92087 212.31636 215.33777 221.09276 227.48825 232.38225 235.78524 241.54022 245.79372 251.75872 254.78012 260.9656 264.57859 267.59999 273.78547 278.03895 285.29545 291.05046 295.94444 298.96583 306.22233 312.6178 319.4438 322.84678 327.10026 333.49574 337.7492 343.5042 347.1172 350.13859 360.38758 366.57307 369.97605 375.73106 379.98454 383.00593 388.76094 393.0144 399.1999 406.4564 412.2114 417.9664 421.57939 424.60078 430.35578 436.54127 439.94425 443.34724 449.10224 452.12364 458.5191 465.7756 472.6016 475.623 484.16047 490.34596 496.53144 503.35743 506.9704 509.9918 517.2483 523.4338 533.68276 539.43777 542.4591 548.6446">in a variety of other habitats: moist stones, soils and wood. Some of</tspan><tspan y="-350.6411" x="192.23999 196.49619 203.75537 209.51306 219.76476 222.67044 229.06864 232.47432 238.23201 244.4202 247.32588 253.51407 259.27177 265.02946 272.49864 277.39533 280.30104 283.70674 290.9659 293.8716 300.2698 306.0275 311.7852 317.9734 323.73109 327.13679 333.53498 337.79118 341.19688 347.38508 354.64427 357.54997 366.09016 369.49586 373.75205 381.01124 383.91694 387.53263 395.0018 402.261 408.22868 411.63438 414.54008 417.94578 421.35148 424.75718 430.51487 437.77406 443.53175 450.79093 454.19664 457.10234 463.50053 470.7597 477.5884 480.4941 486.8923 494.1515 497.5572 507.80888 514.20706 517.61276 523.3704 526.27609 529.68179 535.43948 539.0551 545.0228 548.6385">them also occur in association with fungi (lichen) and animals (e.g.,</tspan><tspan y="-336.7211" x="192.23999 198.4285 205.688 208.829 214.58699 217.993 224.1815 228.438 235.69751 238.8385 245.6675 251.42549 257.824 262.721 266.127">on sloth bear).</tspan><tspan y="-322.5611" x="210.23999 216.85709 223.9047 229.45079 232.50489 235.90898 241.88558 246.57068 256.61079 259.6649 265.8515 272.8991 279.5162 282.5703 288.11643 291.31053 296.42613 301.97224 305.02635 311.00294 314.40705 317.46116 323.64778 326.84187 332.59797 338.78459 344.3307 347.3848 350.5789 356.125 359.1791 366.2267 369.4208 375.1769 382.22453 385.4186 391.1747 394.22883 399.77494 405.96156 410.64665 413.84074 420.02735 426.64445 429.83854 435.38465 438.78877 441.84288 446.52796 452.71458 459.76219 465.51829 468.71238 475.75999 481.51609 484.5702 487.9743 492.6594 498.636 508.6761 511.7302 517.2763 523.2529 526.447 532.42367 539.47128 542.66537 548.8519">The form and size of algae is highly variable, ranging from colonial</tspan><tspan y="-308.64109" x="192.23999 195.5938 201.5201 206.15489 216.1447 221.6405 224.1443 227.2881 230.4319 236.9987 242.4945">forms like </tspan></text>
<text fill="#231f20" xml:space="preserve" transform="matrix(1 0 -0 1 -18 802.8)" font-size="10.5" font-family="Bookman,Italic" font-style="italic"><tspan y="-308.64109" x="244.79999 251.51999 257.3777 260.5054 265.9431 271.8008">Volvox</tspan></text>
<text fill="#231f20" xml:space="preserve" transform="matrix(1 0 -0 1 -18 802.8)" font-size="10.5" font-family="Bookman"><tspan y="-308.64109" x="277.44 279.9427 286.07789 293.07408 299.63978 302.14247 306.13566 313.13185 318.62654 321.1292 324.4819 327.6246 330.7673 336.9025 346.8912 352.3859 359.38209 363.37528 369.30049 376.50669 382.00138 384.50407 387.85676 393.78196 398.41566 408.40437 413.89906 416.40174 419.54444 422.68714 429.25285 434.74754"> and the filamentous forms like </tspan></text>
<text fill="#231f20" xml:space="preserve" transform="matrix(1 0 -0 1 -18 802.8)" font-size="10.5" font-family="Bookman,Italic" font-style="italic"><tspan y="-308.64109" x="437.28 445.43183 448.54365 454.38545 458.33726 465.22908 469.81089 472.9227">Ulothrix</tspan></text>
<text fill="#231f20" xml:space="preserve" transform="matrix(1 0 -0 1 -18 802.8)" font-size="10.5" font-family="Bookman"><tspan y="-308.64109" x="478.56 481.0072 487.0869 494.02763"> and</tspan></text>
<text fill="#231f20" xml:space="preserve" transform="matrix(1 0 -0 1 -18 802.8)" font-size="10.5" font-family="Bookman,Italic" font-style="italic"><tspan y="-308.64109" x="500.88 503.3405 510.22105 516.6815 519.78207 524.4 530.198 535.786 541.374 545.91207"> Spirogyra</tspan></text>
<text fill="#231f20" xml:space="preserve" transform="matrix(1 0 -0 1 -18 802.8)" font-size="10.5" font-family="Bookman"><tspan y="-294.72108" x="192.24002 195.27812 201.94922 204.98732 210.58742 217.68901 222.21811 227.60822 230.0063 236.4674 239.7155 246.1766">(Figure 3.1)</tspan></text>
<text fill="#231f20" xml:space="preserve" transform="matrix(1 0 -0 1 -18 802.8)" font-size="10.5" font-family="Bookman,Italic" font-style="italic"><tspan y="-294.72108" x="249.36002 252.56192">. </tspan></text>
<text fill="#231f20" xml:space="preserve" transform="matrix(1 0 -0 1 -18 802.8)" font-size="10.5" font-family="Bookman"><tspan y="-294.72108" x="254.88002 261.98854 264.38905 267.64405 273.04106 281.22056 283.62107 289.44859 292.70359 295.1041 298.9996 305.8981 311.2951 313.69563 323.5866 329.6241 334.16014 337.20515 344.10365 349.50065 351.90116 355.15617 360.98368 365.51969 375.41069 380.80769 383.2082 388.6052 395.71369 401.1107 408.0092 410.4097 416.4472 421.8442 424.24473 430.7127 436.1097 439.15473 445.6227 451.0197 454.27473 456.67524 459.93025 465.75776 470.29377 480.18476 482.58528 492.47627 498.51377 503.91078 509.30778 512.3528 517.74978 523.1467 525.54727 532.01528 535.06027 541.0977 547.9962">A few of the marine forms such as kelps, form massive plant</tspan><tspan y="-280.56108" x="192.24002 198.70813 204.53574 211.00385 214.04895 219.44606 224.84317">bodies.</tspan><tspan y="-266.64106" x="210.24002 216.85631 223.90309 229.44838 233.80788 239.99367 243.18695 248.94225 255.12804 260.67335 265.03285 269.71714 275.26243 281.87873 286.56303 292.53883 299.15513 306.41194 311.9572 317.5025 321.862 328.4783 334.23359 338.59309 344.13838 349.68367 355.43894 360.98423 365.028 371.2138 375.2576 378.4509 383.9962 389.54148 392.94477 397.30427 403.49006 409.03535 414.58064 420.55644 427.81324 433.99903 437.19233 441.55183 447.7376 454.7844 461.4007 465.7602 471.30549 476.85078 482.82658 490.08338 496.26918 499.46247 503.82197 513.86129 519.40658 523.4503 530.49716 536.4729 543.0892 548.63449">The algae reproduce by vegetative, asexual and sexual methods.</tspan><tspan y="-252.72106" x="192.24002 198.24002 203.57273 209.11542 214.44812 218.27933 224.25254 228.08374 231.06444 236.39714 241.72985 244.07054 248.54224 253.87494 260.27864 264.75035 270.51356 276.91725 283.96144 289.29414 293.12535 296.10606 301.86927 308.70347 311.04417 314.02488 319.35758 321.69828 328.10197 333.64466 335.98536 339.17607 343.64778 349.62098 355.16368 364.99037 370.32307 377.15727 380.98847 386.96168 390.79289 393.7736 399.5368 406.371 409.5617 411.9024 419.3771 425.3503 430.683 437.5172 439.8579 443.0486 447.52033 453.49354 459.03623 468.8629 474.19563 481.02983 484.86103 487.20173 493.6054 498.9381 504.2708 509.60353 512.5842 518.3474 524.7511 530.0838 532.4245 535.4052 542.23947 546.0706">Vegetative reproduction is by fragmentation. Each fragment develops into</tspan><tspan y="-238.56105" x="192.24002 198.33103 200.78952 204.73853 211.69052 217.78153 220.88002 223.97852 231.14052 236.59102 239.89952 242.35802 249.52002 254.97052 260.42103 266.30204 273.46403 279.55503 282.65354 285.11204 289.70155 295.15205 301.67356 306.26307 312.14408 318.6656 325.82759 331.27809 335.22709 338.3256 344.2066 351.1586 353.6171 356.7156 362.1661 364.6246 371.14613 376.8066 379.2651 383.2141 390.1661 395.6166 398.0751 404.59663 409.18614 415.06715 421.58866 428.75065 434.20115 438.15016 441.24867 447.12968 454.08168 456.54017 462.42118 465.72969 468.18818 474.7097 477.8082 481.1167 484.4252 489.8757 494.4652 499.9157 506.8677 510.8167 513.2752 517.2242 522.8847 529.4062 534.8567 540.3072 542.7657 548.64669">a thallus. Asexual reproduction is by the production of different types of</tspan><tspan y="-224.64105" x="192.24002 197.78113 204.39324 210.36484 215.04496 220.58606 226.12717 229.52628 233.86699 237.9066 244.9492 250.49031 254.83103 264.86616 270.83778 276.37889 280.4185 284.7592 290.3003 296.2719 306.307 316.3421 322.31373 329.35633 333.69703 340.30915 345.85026 349.03938 356.08198 361.83308 366.17378 370.21339 377.25599 382.7971">spores, the most common being the </tspan></text>
<text fill="#231f20" xml:space="preserve" transform="matrix(1 0 -0 1 -18 802.8)" font-size="10.5" font-family="Bookman,Bold" font-weight="bold"><tspan y="-224.64105" x="387.12004 392.584 398.888 405.192 411.076 418.00999 424.31398 429.35795 435.24195">zoospores</tspan></text>
<text fill="#231f20" xml:space="preserve" transform="matrix(1 0 -0 1 -18 802.8)" font-size="10.5" font-family="Bookman"><tspan y="-224.64105" x="441.36003 444.7611 449.11219 455.7263 462.77088 468.31398 474.06709 478.41816 484.60176 489.28385 494.82695 499.178 502.5791 505.7702 511.9538 517.7069 523.25 526.4411 529.6322 535.8158 539.8574 545.4005">. They are flagellated</tspan><tspan y="-210.72106" x="192.24002 195.24442 205.09482 210.88172 214.73662 217.74102 220.7454 226.1018 229.1062 231.4706 237.4675 244.3254 250.75279 253.11719 258.90409 265.762 268.12638 273.69279 279.0492 283.5446 293.395 296.39939 303.2573 309.25419 313.10908 316.11347 321.90037 328.75828 331.12266 336.68907 339.69346 345.04988 350.40629 355.7627 358.12709 362.62248 365.62687 370.98329 376.3397 378.70408 382.55897 388.34587 390.71025 397.56816 402.92457 411.06349 413.42787 419.85527 422.85966 428.85655 435.71446 439.56935 444.92576 448.14015 450.50453 457.36244 462.71885 468.50575 475.57365 481.57054 484.57493 486.9393 491.4347 496.7911 503.2185 507.7139 513.5008 519.9282 526.9961 532.3525 536.2074 539.2118 544.9987">(motile) and on germination gives rise to new plants. Sexual reproduction</tspan><tspan y="-196.56105" x="192.24002 196.31333 202.52863 209.17443 214.74922 220.32402 225.45682 232.10262 235.32541 241.54071 247.11551 252.6903 257.8231 261.8964 268.9727 273.6865 279.6918 286.9781 292.76289 299.83918 304.97196 308.40476 315.69105 321.26585 324.48866 330.49397 337.57026 342.70304 348.70835 352.14115 357.27394 361.34724 369.70454 375.70985 380.84263 386.6274 392.8427 402.9115 408.4863 412.5596 418.1344 423.7092 427.142 432.27479 438.9206 445.9969 451.5717 457.14649 462.72129 467.85408 473.63887 479.85417 489.92295 495.49775 499.57106 505.14585 510.72065 515.85348 521.4283 527.64358 534.71987 539.85269 546.4985">takes place through fusion of two gametes. These gametes can be</tspan><tspan y="-182.64105" x="192.24002 195.32874 198.20745 204.07866 209.51937 214.75008 217.62879 220.50749 226.37871 230.10791 235.33863 241.64034 243.87905 249.75026 256.48249 262.78419 265.0229 270.2536 273.13233 282.85704 285.73576 288.61448 294.4857 298.8554 301.09413 303.97285 310.70506 312.94377 318.17448 321.0532 325.8534 331.0841 333.3228 336.20155 342.07276 347.30348 349.54219 352.4209 359.1531">flagellated and similar in size (as in </tspan></text>
<text fill="#231f20" xml:space="preserve" transform="matrix(1 0 -0 1 -18 802.8)" font-size="10.5" font-family="Bookman,Italic" font-style="italic"><tspan y="-182.64105" x="361.44 369.3175 372.155 377.7225 381.4 388.0175 392.32499 395.16249">Ulothrix</tspan></text>
<text fill="#231f20" xml:space="preserve" transform="matrix(1 0 -0 1 -18 802.8)" font-size="10.5" font-family="Bookman"><tspan y="-182.64105" x="400.8 403.6746 405.9092 411.5663 415.93193 418.16654 424.89466 430.55177 437.27989 441.2255 444.31013 447.18473 453.05183 458.48844 463.71507 466.58967 469.46427 475.33137 479.05647 484.28309 490.5807 492.81529 495.68989 502.418 508.0751 514.8032 518.74887 528.4694 534.1265 537.8516 540.72628 543.6009 548.8275">) or non-flagellated (non-motile)</tspan><tspan y="-168.72106" x="192.23999 199.0257 206.45189 210.66509 215.93778 221.65248 225.01519 235.22388 238.58658 241.94928 248.30448 253.15818 258.43086 261.79356 269.00975 274.2824 279.9971 283.3598 288.644 294.3587 299.63139 302.99409 309.34928 315.06398 320.33665 323.69935 330.91554">but similar in size (as in </tspan></text>
<text fill="#231f20" xml:space="preserve" transform="matrix(1 0 -0 1 -18 802.8)" font-size="10.5" font-family="Bookman,Italic" font-style="italic"><tspan y="-168.72106" x="336.24 343.32789 349.99577 353.30366 358.08155 364.11946 369.94734 375.7752 380.5531">Spirogyra</tspan></text>
<text fill="#231f20" xml:space="preserve" transform="matrix(1 0 -0 1 -18 802.8)" font-size="10.5" font-family="Bookman"><tspan y="-168.72106" x="386.88 390.2468 393.8236 399.1004 406.3207 413.751 419.46983 426.69013 431.96693 436.8247 442.54353 449.3333 454.1911 460.3404 467.1302 474.5605 480.2793 484.49659 487.86338 494.01268 501.23298 506.50978 509.87657 515.59536 520.87216 526.59097 532.95028 536.3171 539.6839 545.4027">). Such reproduction is called</tspan></text>
<text fill="#231f20" xml:space="preserve" transform="matrix(1 0 -0 1 -18 802.8)" font-size="10.5" font-family="Bookman,Bold" font-weight="bold"><tspan y="-154.56105" x="192.24 195.80261 201.67522 207.96782 214.05042 220.55301 230.8356 237.1282 244.6808">isogamous</tspan></text>
<text fill="#231f20" xml:space="preserve" transform="matrix(1 0 -0 1 -18 802.8)" font-size="10.5" font-family="Bookman"><tspan y="-154.56105" x="250.56 253.96569 257.45777 264.28648 271.54566 277.09336 280.28904 286.2672 293.3164 296.8085 302.78669 306.19239 309.68449 313.73069 322.06089 328.03907 331.53117 337.28886 343.47706 353.51875 359.06645 363.11265 368.66035 374.20805 377.70014 384.31883 387.5145 393.0622 398.6099 401.80558 411.84727 415.04295 418.23863 424.42683 429.1135 432.6056 435.80128 442.85047 446.34257 451.89027 455.08595 460.20314 465.75083 469.15653 472.64863 478.83683 484.38453 487.87663 491.0723 498.1215 501.6136 507.1613 513.77999 519.32766 524.8753 528.071 533.61868 539.1663 542.6584 548.6366">. Fusion of two gametes dissimilar in size, as in species of</tspan></text>
<text fill="#231f20" xml:space="preserve" transform="matrix(1 0 -0 1 -18 802.8)" font-size="10.5" font-family="Bookman,Italic" font-style="italic"><tspan y="-140.64105" x="192.23999 199.8041 206.9482 213.4623 219.34639 223.97049 227.12459 234.05869 240.15279">Eudorina </tspan></text>
<text fill="#231f20" xml:space="preserve" transform="matrix(1 0 -0 1 -18 802.8)" font-size="10.5" font-family="Bookman"><tspan y="-140.64105" x="243.35999 246.55957 252.11116 255.35405 259.40415 264.95576 269.64634 279.69194 285.24354 291.86613 295.109 301.3011 306.85267">is termed as </tspan></text>
<text fill="#231f20" xml:space="preserve" transform="matrix(1 0 -0 1 -18 802.8)" font-size="10.5" font-family="Bookman,Bold" font-weight="bold"><tspan y="-140.64105" x="310.08 316.59019 323.94038 327.51057 333.39076 339.69096 345.78114 352.29133 362.5815 368.8817 376.4419">anisogamous</tspan></text>
<text fill="#231f20" xml:space="preserve" transform="matrix(1 0 -0 1 -18 802.8)" font-size="10.5" font-family="Bookman"><tspan y="-140.64105" x="382.322 385.7236 388.95524 395.77986 403.03495 408.57856 411.77018 417.7443 424.7894 428.02104 434.63566 440.17927 444.22138 452.5475 458.0911 463.6347 470.6798 473.91145 479.88557 486.93067 492.47428 495.7059 498.89753 505.08164 509.76426 515.5179 521.0615 524.46316 527.69479 534.73989 540.714 547.7591">. Fusion between one large, non-</tspan><tspan y="-126.721057" x="192.23999 202.1137 207.92389 211.8021 214.82979 217.85749 223.23719 225.62488 228.65258 234.03227 237.91048 243.93068 247.80889 250.83658 256.21629 259.244 261.63169 264.8694 270.24909 280.12278 286.14299 289.1707 294.55039 296.93809 302.52778 308.54798 318.42167 323.80137 327.67958 333.05928 335.44697 341.46717 348.34837 354.79908 357.18678 363.20698 365.59468 370.97438 380.84806 386.86827 389.89598 392.92369 398.30339 401.52 404.7526 407.1352 417.00379 422.8089 426.682 429.70463 432.72724 438.10185 440.48445 450.35304 456.36814 459.39076 464.76536 467.14796 472.73255 478.74766 488.61625 493.99085 497.86396 503.23857 505.62117 508.64378 514.0184 516.401 520.2741 525.6487 530.1623 540.0309 545.40548">motile (static) female gamete and a smaller, motile male gamete is termed</tspan></text>
<text fill="#231f20" xml:space="preserve" transform="matrix(1 0 -0 1 -18 802.8)" font-size="10.5" font-family="Bookman,Bold" font-weight="bold"><tspan y="-112.56105" x="192.23999 198.50159 204.76319 210.81479 217.28639 227.538 233.79959 241.3212">oogamous</tspan></text>
<text fill="#231f20" xml:space="preserve" transform="matrix(1 0 -0 1 -18 802.8)" font-size="10.5" font-family="Bookman"><tspan y="-112.56105" x="247.19998 250.5671 253.0842 258.59333 261.96043 267.67955 271.04664 274.41374">, e.g., </tspan></text>
<text fill="#231f20" xml:space="preserve" transform="matrix(1 0 -0 1 -18 802.8)" font-size="10.5" font-family="Bookman,Italic" font-style="italic"><tspan y="-112.56105" x="276.96 283.44 289.2839 292.3978 297.8217 303.6656 309.5095 312.8334 315.3073 321.9912 329.09513 334.519 341.62294 347.0468">Volvox, Fucus.</tspan></text>
<g clip-path="url(#clip_6)">
<text xml:space="preserve" transform="matrix(1 0 -0 1 259.314 763.99978)" font-size="8" font-family="Arial"><tspan y="6.316" x="0"> </tspan></text>
</g>
</g>
</svg>
