<svg xmlns="http://www.w3.org/2000/svg" xmlns:xlink="http://www.w3.org/1999/xlink" xmlns:inkscape="http://www.inkscape.org/namespaces/inkscape" version="1.1" width="576" height="784.8" viewBox="0 0 576 784.8">
<defs>
<clipPath id="clip_2292">
<path transform="matrix(1,0,0,-1,-18,802.8)" d="M18 18H594V802.8H18Z" clip-rule="evenodd"/>
</clipPath>
<clipPath id="clip_2293">
<path transform="matrix(1,0,0,-1,259.314,763.99978)" d="M0-8H57.372V.800049H0Z"/>
</clipPath>
</defs>
<g clip-path="url(#clip_2292)">
<path transform="matrix(.24,0,0,-.24,-18,802.8)" d="M2 2H2548V214.67H2Z" fill="#cbdf7f" fill-rule="evenodd"/>
<path transform="matrix(.24,0,0,-.24,-18,802.8)" stroke-width="4" stroke-linecap="butt" stroke-miterlimit="1000" stroke-linejoin="miter" fill="none" stroke="#cbdf7f" d="M2 2H2548V214.67H2Z"/>
<path transform="matrix(.24,0,0,-.24,-18,802.8)" d="M0 3035.83H2550V3372.7003H0Z" fill="#d1d3d4" fill-rule="evenodd"/>
<path transform="matrix(.24,0,0,-.24,-18,802.8)" d="M0 3078.33H2550V3420H0Z" fill="#e1ecb6" fill-rule="evenodd"/>
<path transform="matrix(.24,0,0,-.24,62.6362,53.63501)" d="M0 0C7.32 7.32 16.16 10.98 26.52 10.98H97.35C107.71 10.98 116.55 7.32 123.87 0 131.19-7.33 134.85-16.17 134.85-26.52V-101.52C134.85-111.88 131.19-120.72 123.87-128.04 116.55-135.36 107.71-139.02 97.35-139.02H26.52C16.16-139.02 7.32-135.36 0-128.04-7.32-120.72-10.98-111.88-10.98-101.52V-26.52C-10.98-16.17-7.32-7.33 0 0" fill="#ffffff" fill-rule="evenodd"/>
<text fill="#231f20" xml:space="preserve" transform="matrix(1 0 -0 1 -18 802.8)" font-size="11" font-family="Bookman"><tspan y="-729.361" x="87.12 94.26001">22</tspan></text>
<text fill="#231f20" xml:space="preserve" transform="matrix(1 0 -0 1 -18 802.8)" font-size="11" font-family="Bookman"><tspan y="-729.361" x="513.12">B</tspan></text>
<text fill="#231f20" xml:space="preserve" transform="matrix(1 0 -0 1 -18 802.8)" font-size="7.69999" font-family="Bookman"><tspan y="-729.361" x="521.04 523.4336 529.3692 533.76486 539.70046 545.63607">IOLOGY</tspan></text>
<path transform="matrix(.24,0,0,-.24,-18,.35998536)" stroke-width="1" stroke-linecap="butt" stroke-miterlimit="10" stroke-linejoin="miter" fill="none" stroke="#000000" d="M0 0H60"/>
<path transform="matrix(.24,0,0,-.24,.12000084,-18)" stroke-width="1" stroke-linecap="butt" stroke-miterlimit="10" stroke-linejoin="miter" fill="none" stroke="#000000" d="M0 0V-60"/>
<path transform="matrix(.24,0,0,-.24,-18,784.68)" stroke-width="1" stroke-linecap="butt" stroke-miterlimit="10" stroke-linejoin="miter" fill="none" stroke="#000000" d="M0 0H60"/>
<path transform="matrix(.24,0,0,-.24,.12000084,788.16)" stroke-width="1" stroke-linecap="butt" stroke-miterlimit="10" stroke-linejoin="miter" fill="none" stroke="#000000" d="M0 0V-60"/>
<path transform="matrix(.24,0,0,-.24,593.64,784.56)" stroke-width="1" stroke-linecap="butt" stroke-miterlimit="10" stroke-linejoin="miter" fill="none" stroke="#000000" d="M0 0V-75"/>
<text fill="#00aeef" xml:space="preserve" transform="matrix(1 0 -0 1 -18 802.8)" font-size="13" font-family="Bookman"><tspan y="-688.561" x="294.72">E</tspan></text>
<text fill="#00aeef" xml:space="preserve" transform="matrix(1 0 -0 1 -18 802.8)" font-size="9.1" font-family="Bookman"><tspan y="-688.561" x="304.32 311.3149 317.76383 324.75874 331.38963 334.9265 340.8294 347.27833">XERCISES</tspan></text>
<text fill="#231f20" xml:space="preserve" transform="matrix(1 0 -0 1 -18 802.8)" font-size="10" font-family="Bookman"><tspan y="-650.39999" x="120 125.68061 138 146.0004 149.0008 154.20119 159.40158 166.20197 171.40236 176.60276 181.20314 187.80353 193.40392 201.2043 205.80469 211.00508 214.00548 219.80587 225.00626 230.20665 233.20705 236.40744 239.40784 244.60823 250.40862 254.209 257.20939 262.80979 269.4102 274.01057 279.21095 284.61134 289.8117 293.6121 298.81248 308.21287 313.41325 318.0136 324.614 330.4144 335.61479 340.81517 345.41554 352.2159 358.8163 365.0167 370.21708 374.61747 380.01786 385.61827 392.21867 397.41905 402.0194 407.2198 412.42018 417.62055 422.82093 427.2213 433.0217 436.0221 440.62248 445.82286 452.42326 458.22364 464.82405 470.22444 475.4248 480.62519 485.22557 490.82597 496.02635 501.2267 505.6271 510.22749">1.Discuss how classification systems have undergone several changes over a</tspan><tspan y="-636.48098" x="138 144.16892 149.33783 153.70674 156.67565 162.24456 168.41347 170.78238 176.35129 179.5202 181.88912 185.65802 188.62693 197.99584 203.16475">period of time?</tspan><tspan y="-618.48098" x="120 125.68061 138 144.5973 148.3946 154.19191 157.98921 163.18651 165.70381 169.50112 177.29842 182.89572 185.41303 190.61032 195.80762 201.40493 208.00223 213.59954 222.99683 225.99413 231.19142 236.98873 239.98603 242.98332 248.38062 250.89792 253.89522 263.2925 269.4898 275.0871 279.4844 283.2817 289.079 295.6763 299.4736 301.9909 308.7882 313.9855 319.1828 324.3801 326.8974 332.4947 335.692">2.State two economically important uses of:</tspan><tspan y="-600.48098" x="138 140.9955 146.791 149.7865 152.88199 159.4775 164.67299 168.46849 173.66399 178.05948 183.65499 187.45049 191.84598 197.44149 203.63698 210.23249 213.22798 218.42348 221.51897 227.71446 233.50997 238.70546 242.50096 247.69646 252.09195 255.08745">(a) heterotrophic bacteria</tspan><tspan y="-582.48098" x="138 141.0039 147.20781 150.21172 154.11562 159.91951 164.32341 169.52732 176.13121 181.9351 187.139 193.34291 199.1468 204.35071 208.1546 213.3585 217.7624 220.76631">(b) archaebacteria</tspan><tspan y="-564.48098" x="120 125.68061 138 147.6003 154.20059 160.00089 163.80118 166.6301 169.6304 174.8307 177.65962 181.45992 188.06021 193.26052 196.08943 202.68973 208.49002 212.29032 219.0906 223.4909 228.69121 231.52013 237.12042 240.32073 243.14965 248.34995 253.55025 256.55055 259.55085 263.55116 271.35145 277.15174 280.15205 283.15235 288.35264 291.18153 294.18183 300.78215 303.61103 309.8113 312.8116 318.6119 322.4122 328.0125 337.4128 342.6131">3.What is the nature of cell-walls in diatoms?</tspan><tspan y="-546.48098" x="120 125.68061 138 144.39852 147.39702 153.99553 160.19405 162.87256 168.47107 175.26958 179.06809 181.7466 189.5451 196.14362 201.94213 205.74063 208.41915 214.61766 220.21617 222.89469 226.69319 233.2917 238.49022 241.16873 244.96724 250.16576 254.56427 263.96278 269.1613 271.8398 274.03834 279.83686 282.83537 288.23387 294.03239 297.03089 299.7094 305.90794 308.90644 314.50495 320.10346 329.50196 331.70048 334.379 340.17753 346.77604 352.97456 355.65309 357.8516 362.2501 367.4486 373.64714 377.64564 381.44416 384.44267 390.64118 395.8397 401.0382 403.23674 405.91526 411.11378 414.11228 419.51078 426.10929 429.1078 432.3063 437.7048">4.Find out what do the terms &#x2018;algal bloom&#x2019; and &#x2018;red-tides&#x2019; signify.</tspan><tspan y="-528.48098" x="120 125.68061 138 146.0004 151.60079 159.40117 161.96158 167.76197 172.16236 177.36275 179.92316 185.12355 188.12395 192.52434 198.12473 201.12512 207.32552 212.52591 215.08632 221.28672 224.28711 227.4875 230.6879 235.88829 240.28868 245.48908 252.08946 255.88985 258.45027 261.65065 266.05104 271.65144 281.05183 283.6122 288.8126 291.813 296.21339 303.01377 308.21415 313.41453 318.6149">5.How are viroids different from viruses?</tspan><tspan y="-510.48097" x="120 125.68061 138 145.9987 151.19742 156.39614 161.59485 165.99356 168.99227 175.19098 180.3897 182.7884 188.98712 193.38584 196.38454 201.58325 204.78197 207.78067 213.17938 215.5781 219.3768 225.97551 231.17423 233.57294 236.77165 242.37036 249.16907 253.56778 255.96648 265.36518 271.16389 274.1626 279.76133 284.16004 286.55876 291.95747 296.35618 301.9549 308.7536 314.9523 320.151 322.5497 328.14845 331.34715 333.74586 339.94456 344.34327 349.942 353.7407 359.33943 364.13813 369.73686 375.53556">6.Describe briefly the four major groups of Protozoa.</tspan><tspan y="-492.48097" x="120 125.68061 138 144.4118 147.62361 153.6354 160.4472 164.459 169.8708 174.88262 180.89441 185.50621 190.91802 195.92983 201.94162 208.95342 212.96521 218.77701 222.7888 227.4006 233.2124 239.6242 246.436 249.64781 255.05962 258.4714 263.48323 271.095 277.1068 283.9186 288.93043 294.5422 300.354 307.3658 312.37763 316.38945 323.20124 326.41304 333.22483 339.63664 344.64845 350.46025 353.87205 358.88386 364.29566 370.10746 379.71925 385.13105 390.14286 396.55467 399.76646 405.77827 412.59007 416.60188 422.01368 427.02549 431.0373 437.8491 443.8609 447.8727 452.88453 458.89634 463.50813 468.91993 473.93174 480.34355 486.35536 490.96714 494.97895 498.19075 504.20256 507.41435 510.62614">7.Plants are autotrophic. Can you think of some plants that are partially</tspan><tspan y="-478.56095" x="138 144.56652 149.73302 153.49953 158.66603 163.03255 168.59906 172.36557 176.73209 182.2986 188.4651 195.03162 197.99813 203.16463">heterotrophic?</tspan><tspan y="-460.56095" x="120 125.68061 138 147.5991 154.19821 159.99732 163.79642 166.29552 172.49462 178.09372 180.59282 184.39192 190.99103 196.19013 198.68923 202.48833 207.68743 212.08652 221.48561 226.68471 229.1838 235.3829 241.98201 247.3811 252.5802 258.1793 264.3784 267.3775 272.9766 279.57569 283.3748 285.8739 291.673 298.2721 304.4712 306.9703 316.36943 321.76853 326.96763 332.5667 338.7658 341.76493 347.364 353.9631 357.7622 360.26133 365.46043 368.45954 373.85865 380.45774 383.45686 386.65596 392.05506">8.What do the terms phycobiont and mycobiont signify?</tspan><tspan y="-442.56095" x="120 125.68061 138 145.90552 148.81104 153.91655 159.02207 161.32758 167.03308 169.3386 174.4441 179.94962 189.25513 195.36064 201.06615 205.37166 211.07717 214.78267 217.68817 222.79369 227.8992 230.20471 235.91022 241.01573 246.12125 251.62676 258.33229 264.8378 268.5433 270.84883 276.35435 279.45985 281.76536 285.47087 291.97639 297.08189 299.3874 304.4929 307.3984 313.1039 318.2094 323.3149 328.4204 333.5259 335.83143 341.33695 344.44245 346.74797 353.85346 356.75898 363.2645 368.57 374.6755 380.18104 389.48655 391.79206 398.09757 404.80308 411.3086 416.6141 419.51963 421.82514 428.53065 435.03617 441.14167 446.24717 450.55268 452.8582 456.5637 463.0692 468.1747 470.48023 473.58573 479.09126 481.99678 484.90229 490.4078 498.1133 501.01884 507.52436 512.82986">9.Give a comparative account of the classes of Kingdom Fungi under the following:</tspan><tspan y="-424.56095" x="138 140.5512 143.53569 146.52019 154.56 163.9645 169.569 175.7735 180.978 183.5492 189.15369 192.35819 194.92938 201.53389 208.3384 212.1429 216.5474 219.5519 223.3564 226.3609 231.9654"> (i)mode of nutrition</tspan><tspan y="-406.56095" x="138 141 144 147 154.8 164.17302 169.74604 175.91904 181.09204 183.46504 189.03806 192.21106 194.58406 198.95708 204.13008 210.30309 214.6761 220.24912 226.42212 233.19513 238.36814 242.14115 245.11415 250.68717">(ii)mode of reproduction</tspan><tspan y="-388.56095" x="114 119.84051 125.681018 138 147.598 154.19602 159.99402 163.79203 166.72335 172.52135 176.91936 182.11737 185.04869 188.8467 195.4447 200.64272 203.57404 208.77205 215.37006 221.16806 225.56607 231.36408 236.56209 240.36009 245.5581 249.95612 252.95413 258.15214 261.95014 264.94816 270.14616 273.07746 276.27546 281.47346 287.27146 291.06947 297.86747 302.26548 307.46348 312.66148 315.59278 321.1908 324.3888 327.3201 334.5181 341.3161 346.7141 349.71214 354.91014 361.50816 367.10618 370.1042 376.3022 381.50019">10.What are the characteristic features of Euglenoids?</tspan><tspan y="-370.56095" x="114 119.84051 125.681018 138 146.0004 149.0008 154.20119 159.40158 163.37117 169.17156 173.14115 179.34154 183.74193 186.74233 191.94272 195.14311 199.1127 204.91309 210.11348 215.31388 220.91426 227.71465 234.31504 238.11542 242.085 247.6854 250.88579 254.85538 260.05577 263.05616 267.45655 274.25694 279.4573 284.65769 289.85807 293.82765 301.62803 304.62843 308.4288 315.0292 318.99879 323.39918 328.59956 333.79994 340.0003 345.20069 350.40107 354.20146 358.17103 361.9714 367.5718 371.54139 375.34178 381.94218 387.14256 390.14295 394.54335 398.5129 403.7133 407.51368 411.91407 418.71446 423.91484 427.7152 434.5156 438.916 444.11637 448.08595 453.88633 460.48674 466.6871 470.65669 477.25709 483.05747 486.85786 493.65824 498.05863 503.259 507.22859 512.829">11.Give a brief account of viruses with respect to their structure and nature of</tspan><tspan y="-356.39994" x="138 143.39871 148.59743 155.19614 160.39485 164.19356 167.19226 172.39098 175.1397 184.5384 190.33712 194.13582 199.33454 203.73325 206.73195 212.53066 215.52936 218.72808 221.47679 228.2755 231.2742 236.47292 242.07163 244.82035 251.41905 257.21778 266.6165 271.8152 274.5639 277.7626 283.36134 290.16004 294.55876 297.30747 302.50617 308.1049 317.5036 326.9023 332.50105 339.09977 341.84849 347.04719 350.0459 354.4446 360.24333 363.24205 365.99076 372.18946 375.18818 380.38688 385.58558 391.38429 396.58299 401.78169 406.98039">genetic material. Also name four common viral diseases.</tspan><tspan y="-338.39994" x="114 119.84051 125.681018 138 146.0003 150.4006 155.8009 161.6012 168.20149 171.2018 176.4021 181.6024 185.417 191.2173 195.0319 201.23221 204.23252 209.43282 214.63312 221.43341 226.63372 231.83402 234.83432 240.43462 247.03491 250.84952 253.84983 260.45014 264.2647 269.665 275.26533 282.0656 286.4659 290.2805 295.48078 298.48109 304.28138 309.48167 314.68196 318.49653 324.09684 330.69715 334.51173 338.312 344.91233 350.1126 353.9272 357.72749 363.3278 369.52809 372.52839 377.72868 381.54325 386.54356 390.35813 397.15843 401.55873 406.759 410.57359 415.77388 418.77418 423.17448 429.97477 435.17506 440.37535 445.57563 449.3902 452.3905 455.3908 460.5911 463.5914 470.1917 475.592 479.4066 485.0069 489.4072 493.22178 499.82209 505.4224 512.0227">12.Organise a discussion in your class on the topic &#x2013; Are viruses living or non-</tspan><tspan y="-324.48094" x="138 140.9734 143.94681 149.12023 152.09363 158.66704 164.04045">living?</tspan></text>
<g clip-path="url(#clip_2293)">
<text xml:space="preserve" transform="matrix(1 0 -0 1 259.314 763.99978)" font-size="8" font-family="Arial"><tspan y="6.316" x="0"> </tspan></text>
</g>
</g>
</svg>
