<svg xmlns="http://www.w3.org/2000/svg" xmlns:xlink="http://www.w3.org/1999/xlink" xmlns:inkscape="http://www.inkscape.org/namespaces/inkscape" version="1.1" width="576" height="784.8" viewBox="0 0 576 784.8">
<defs>
<clipPath id="clip_642">
<path transform="matrix(1,0,0,-1,-18,802.8)" d="M18 18H594V802.8H18Z" clip-rule="evenodd"/>
</clipPath>
<clipPath id="clip_643">
<path transform="matrix(.23999998,0,0,-.23999998,-18,802.8)" d="M306 2903H2166.99V2171H306Z"/>
</clipPath>
<clipPath id="clip_644">
<path transform="matrix(.23999998,0,0,-.23999998,-18,802.8)" d="M567 1545H2046V483H567Z"/>
</clipPath>
<clipPath id="clip_645">
<path transform="matrix(1,0,0,-1,259.314,763.9998)" d="M0-8H57.372V.800049H0Z"/>
</clipPath>
</defs>
<g clip-path="url(#clip_642)">
<path transform="matrix(.23999998,0,0,-.23999998,-18,802.8)" d="M0 3035.83H2550V3372.7003H0Z" fill="#d1d3d4" fill-rule="evenodd"/>
<path transform="matrix(.23999998,0,0,-.23999998,-18,802.8)" d="M0 3078.33H2550V3420H0Z" fill="#e1ecb6" fill-rule="evenodd"/>
<text fill="#231f20" xml:space="preserve" transform="matrix(1 0 -0 1 -18 802.8)" font-size="11" font-family="Bookman"><tspan y="-730.081" x="84">P</tspan></text>
<text fill="#231f20" xml:space="preserve" transform="matrix(1 0 -0 1 -18 802.8)" font-size="7.69999" font-family="Bookman"><tspan y="-730.081" x="90.72 95.284709 100.46541 106.10811">LANT</tspan></text>
<text fill="#231f20" xml:space="preserve" transform="matrix(1 0 -0 1 -18 802.8)" font-size="11" font-family="Bookman"><tspan y="-730.081" x="110.88 113.361309"> G</tspan></text>
<text fill="#231f20" xml:space="preserve" transform="matrix(1 0 -0 1 -18 802.8)" font-size="7.69999" font-family="Bookman"><tspan y="-730.081" x="122.4 127.8772 133.97039 141.29558 146.00278">ROWTH</tspan></text>
<text fill="#231f20" xml:space="preserve" transform="matrix(1 0 -0 1 -18 802.8)" font-size="11" font-family="Bookman"><tspan y="-730.081" x="152.16"> </tspan></text>
<text fill="#231f20" xml:space="preserve" transform="matrix(1 0 -0 1 -18 802.8)" font-size="7.69999" font-family="Bookman"><tspan y="-730.081" x="154.56 159.7698 165.4416">AND</tspan></text>
<text fill="#231f20" xml:space="preserve" transform="matrix(1 0 -0 1 -18 802.8)" font-size="11" font-family="Bookman"><tspan y="-730.081" x="171.6 174.08132"> D</tspan></text>
<text fill="#231f20" xml:space="preserve" transform="matrix(1 0 -0 1 -18 802.8)" font-size="7.69999" font-family="Bookman"><tspan y="-730.081" x="182.88 188.37882 193.72362 199.22243 203.79723 209.91204 214.64084 221.67964 227.17845 232.83126">EVELOPMENT</tspan></text>
<path transform="matrix(.23999998,0,0,-.23999998,482.6352,53.635194)" d="M0 0C7.32 7.32 16.16 10.98 26.52 10.98H97.35C107.71 10.98 116.55 7.32 123.87 0 131.19-7.33 134.85-16.17 134.85-26.52V-101.52C134.85-111.88 131.19-120.72 123.87-128.04 116.55-135.36 107.71-139.02 97.35-139.02H26.52C16.16-139.02 7.32-135.36 0-128.04-7.32-120.72-10.98-111.88-10.98-101.52V-26.52C-10.98-16.17-7.32-7.33 0 0" fill="#ffffff" fill-rule="evenodd"/>
<text fill="#231f20" xml:space="preserve" transform="matrix(1 0 -0 1 -18 802.8)" font-size="11" font-family="Bookman"><tspan y="-729.361" x="505.92 513.21 520.5">173</tspan></text>
<path transform="matrix(.23999998,0,0,-.23999998,-18,802.8)" d="M2 2H2548V214.67H2Z" fill="#cbdf7f" fill-rule="evenodd"/>
<path transform="matrix(.23999998,0,0,-.23999998,-18,802.8)" stroke-width="4" stroke-linecap="butt" stroke-miterlimit="1000" stroke-linejoin="miter" fill="none" stroke="#cbdf7f" d="M2 2H2548V214.67H2Z"/>
<path transform="matrix(.23999998,0,0,-.23999998,579.6,.11999512)" stroke-width="1" stroke-linecap="butt" stroke-miterlimit="10" stroke-linejoin="miter" fill="none" stroke="#000000" d="M0 0H60"/>
<path transform="matrix(.23999998,0,0,-.23999998,576.12,-18)" stroke-width="1" stroke-linecap="butt" stroke-miterlimit="10" stroke-linejoin="miter" fill="none" stroke="#000000" d="M0 0V-60"/>
<path transform="matrix(.23999998,0,0,-.23999998,579.6,784.44)" stroke-width="1" stroke-linecap="butt" stroke-miterlimit="10" stroke-linejoin="miter" fill="none" stroke="#000000" d="M0 0H60"/>
<path transform="matrix(.23999998,0,0,-.23999998,576.12,788.16)" stroke-width="1" stroke-linecap="butt" stroke-miterlimit="10" stroke-linejoin="miter" fill="none" stroke="#000000" d="M0 0V-59"/>
<path transform="matrix(.23999998,0,0,-.23999998,-17.88,-18.23999)" stroke-width="1" stroke-linecap="butt" stroke-miterlimit="10" stroke-linejoin="miter" fill="none" stroke="#000000" d="M0 0V-75"/>
<text fill="#231f20" xml:space="preserve" transform="matrix(1 0 -0 1 -18 802.8)" font-size="10.5" font-family="Bookman"><tspan y="-479.28" x="78 84.3444 87.3288 93.2532 100.01759 103.841999 109.1364 111.491909 114.6863 120.4007 123.3851 126.3695 132.0839 140.10829 142.4638 148.80821 151.79262 154.98702 158.18141 163.47582 167.93022 173.22463 179.98903 183.81343 186.16895 192.51335 198.43776 202.26216 209.02657 217.05097 222.97537 228.47977 233.77417 236.12969 239.11409 245.8785 248.23401 252.68842 257.98283 263.27723 269.6216 275.336 282.1004 287.3948 292.6892 295.0447 298.8691 304.5835 306.939 312.2334 318.9978 324.2922 327.2766 331.73103 337.4454 344.2098 353.9142 359.20863 365.97303 369.79743 372.15293 377.8673 382.32173 384.67723 391.0216 397.786 403.71043 409.00483 414.29924">Plants follow different pathways in response to environment or phases</tspan><tspan y="-465.84" x="60 65.72701 68.93402 71.30354 74.30055 77.29756 80.50457 85.811588 88.18111 92.01812 97.74513 100.114658 103.32166 109.048679 113.515689 123.2327 125.60222 131.95923 134.95624 138.16326 141.37027 146.67728 151.14429 156.4513 163.2283 167.0653 169.43483 175.79184 178.78885 185.56586 191.92287 197.22988 199.5994 205.3264 208.53342 210.90294 216.20995 220.04695 224.51396 231.50098 236.80799 240.64499 247.632 252.09902 257.40605 262.71305 265.92005 268.28956 274.64659 281.42359 284.4206 289.7276 292.0971 298.03413 304.39115 307.38816 310.38517 313.38218 317.21919 322.73619 325.10569 328.1027 333.4097 335.7792 341.0862 347.02323 350.02024 353.01725 358.32426 364.68128">of life to form different kinds of structures. This ability is called </tspan></text>
<text fill="#231f20" xml:space="preserve" transform="matrix(1 0 -0 1 -18 802.8)" font-size="10.5" font-family="Bookman"><tspan y="-465.84" x="366.96 373.437 376.764 382.61103 387.82804 392.41505 395.95207 401.79908 405.3361 409.9231 416.1901">plasticity,</tspan></text>
<text fill="#231f20" xml:space="preserve" transform="matrix(1 0 -0 1 -18 802.8)" font-size="10.5" font-family="Bookman"><tspan y="-452.16" x="60 65.461 68.822 74.493 77.854 81.215 83.936008 90.867008 96.328 100.319 105.78 110.4 116.28199 122.79398 129.72597 135.39797 138.54996 141.70195 147.37395 150.09595 153.24794 160.17993 162.90193 168.36392 174.24591 178.2379 182.22989 188.11188 195.04387 198.40586 201.12786 206.58985 212.47183 217.09383 220.24582 226.33782 233.2698 239.7818 245.24379 249.86579 252.58779 258.67979 265.61177 272.12376 274.84577 277.99775 284.08973 288.7117 295.2237 300.68568 307.19767 314.33967 318.24 321.596 324.31205 327.87806 334.80409 337.5201 342.97615 350.11216 355.56819 362.4942 365.21025 371.71626 374.86225 380.94825 387.87428 391.8603 397.3163 400.67234 403.38838 407.3744 414.3004">e.g., heterophylly in cotton, coriander and larkspur. In such plants, the</tspan><tspan y="-438.72" x="60 63.14761 68.60522 74.692829 80.15044 85.60805 91.06566 94.264987 100.14259 103.500209 106.69953 110.68714 117.61475 123.072368 126.27169 129.4193 136.5569 142.01451 147.47212 154.39974 157.54735 160.69496 166.15258 169.35189 175.8595 179.00711 185.09473 192.02234 196.00995 199.20926 205.29688 209.91449 215.3721 218.57141 225.07903 228.22664 231.58425 234.94185 240.39946 245.01708 250.47469 257.40229 261.3899 264.5892 267.73683 274.66444 277.86375 283.32136 290.24897 296.33659 302.84419 308.3018 311.5011 314.8587 319.47633 325.35395 335.22157 338.42088 342.40849 349.3361 355.2137 360.67134 366.12895 369.32826 372.47587 379.40348 382.60279 392.4704 398.558 402.54563 409.68324 414.30085">leaves of the juvenile plant are different in shape from those in mature</tspan><tspan y="-425.28" x="60 66.475 69.59 75.645 82.53999 86.494998 91.92 95.244998 97.732509 106.0975 112.99251 115.48002 119.43502 126.33002 131.75502 134.24253 140.08753 144.04253 150.93753 156.36254 160.94754 163.43505 170.33005 176.38506 183.28006 189.75507 193.08007 195.56757 202.04257 205.15758 208.48258 211.80757 217.23258 221.81758 227.24259 234.13759 239.56259 244.9876 247.4751 250.5901 257.4851 259.97264 265.3976 272.2926 278.3476 284.8226 290.2476 295.67259 298.1601 304.0051 307.3301 309.81764 312.93263 318.3576 324.4126 329.8376 335.26258 340.68757 343.17509 349.6501 354.23509 360.08009 366.55509 373.6601 379.08509 384.51008 390.98509 393.4726 396.5876 403.48258 405.9701 412.0251 415.14009">plants. On the other hand, difference in shapes of leaves produced in air</tspan><tspan y="-411.84" x="60 66.681 74.202 81.303 86.9317 91.5127 99.03371 105.50471 111.55571 117.60671 123.23541 130.33641 135.54741 142.0184 149.1194 156.8504 162.9014 168.9524 176.05339 181.6821 185.4231 192.94409 198.5728 207.3538 214.0348 218.6158 224.6668 229.87779 235.5065 239.2475 246.7685 252.3972 259.4982 267.2292 271.81019 276.39118 282.44218 287.65318 293.70417 301.43516 308.53617 314.16487 320.84587 324.58686 330.63786 337.10887 342.73756 347.94856 353.99955 361.10057 366.31156 372.36256 378.41355 384.46455 391.98554 396.56654 402.19523 406.7762 414.2972">and those produced in water in buttercup also represent the</tspan><tspan y="-398.16" x="60 66.96999 72.469989 76.49998 81.99997 86.65996 92.57995 99.12994 106.09993 111.80992 114.99991 118.189899 124.109889 131.28987 136.78986 141.86835 148.41834 153.91832 159.4183 164.91829 168.10828 174.02826 180.57825 190.48824 195.98822 202.9582 206.98819 212.06668 218.61667 225.79666 231.29665 236.37514 240.40512 246.3251 251.4036 256.9036 263.8736 269.3736 272.5636 277.2236 283.1436 290.1136 300.0236 305.5236 312.4936 316.5236 321.60209 324.79209 331.55207 334.74208 340.45207 347.63206 352.29206 357.79206 362.87055 369.42054 375.97053 379.3705 385.9205 389.1105 392.5105 397.589 404.13899 411.10899 414.29899">heterophyllous development due to environment (Figure 13.9). This</tspan><tspan y="-384.48" x="60 66.50001 73.42002 78.87003 85.79005 91.66006 101.520069 106.97008 113.89009 119.7601 126.680118 129.19443 135.06444 138.41445 140.92876 147.84877 153.29878 157.2788 162.7288 167.33882 173.20883 179.70885 186.62886 192.28887 195.42888 198.5689 204.2289 206.74321 209.88323 215.33324 217.84755 223.92757 230.84758 233.3619 238.8119 244.68192 250.76194 260.62196 267.12196 270.26197 275.71199 278.2263 284.09629 287.4463 289.9606 296.4606 299.60063 305.68064 311.13066 315.11067 318.25068 323.70069 326.8407 330.8207 336.4807">phenomenon of heterophylly is an example of plasticity.</tspan></text>
<text fill="#231f20" xml:space="preserve" transform="matrix(1 0 -0 1 -18 802.8)" font-size="9.5" font-family="Bookman"><tspan y="-505.2" x="132.96 139.494 142.988 148.572 154.916 159.36 164.944 169.6646 176.00859 182.35259 185.65659 192.00058 196.72118">Figure 13.8  </tspan></text>
<text fill="#231f20" xml:space="preserve" transform="matrix(1 0 -0 1 -18 802.8)" font-size="9.5" font-family="Bookman"><tspan y="-505.2" x="201.36 207.63141 212.57282 218.08422 224.54561 229.48702 235.75843 240.69983 245.64124 249.97014 255.29154 258.33296 262.66188 266.27326 272.54466 277.48606 281.81498 287.70637 292.64778 297.58918 302.53059 305.382 310.7034 316.5948 325.52619 330.4676 336.73899 340.35038 345.8618 348.7132 353.0421 358.9335 363.1149 368.4363 373.37773 378.31913 383.26054 388.20195 392.53086 395.38227 401.65367 405.98258 411.494 415.8229 421.7143 424.5657 430.07713 436.3485 439.9599 444.28883 449.23023 454.17164 457.02305">Sequence of the developmental process in a plant cell</tspan></text>
<g clip-path="url(#clip_643)">
<path transform="matrix(.24008638,0,0,-.23991457,56.83805,128.19867)" stroke-width="7.917" stroke-linecap="butt" stroke-miterlimit="2.613" stroke-linejoin="miter" fill="none" stroke="#ec008c" d="M0 0H1848.69V-632.31H0V0Z"/>
<path transform="matrix(.24008638,0,0,-.23991457,265.4316,190.1518)" stroke-width="5.938" stroke-linecap="butt" stroke-dasharray="29.688,17.813" stroke-miterlimit="2.613" stroke-linejoin="miter" fill="none" stroke="#ec008c" d="M0 0-2.29 275.13H-663.68V10.54"/>
<path transform="matrix(.24008638,0,0,-.23991457,109.736789,183.10553)" stroke-width="5.938" stroke-linecap="butt" stroke-miterlimit="2.613" stroke-linejoin="miter" fill="none" stroke="#ec008c" d="M0 0-15.19-23.43-30.39 0"/>
<path transform="matrix(.24008638,0,0,-.23991457,175.04245,202.8913)" stroke-width="5.938" stroke-linecap="butt" stroke-dasharray="29.688,17.813" stroke-miterlimit="2.613" stroke-linejoin="miter" fill="none" stroke="#00aeef" d="M0 0H370.77"/>
<path transform="matrix(.24008638,0,0,-.23991457,259.53987,199.24701)" stroke-width="5.938" stroke-linecap="butt" stroke-miterlimit="2.613" stroke-linejoin="miter" fill="none" stroke="#00aeef" d="M0 0 23.43-15.19 0-30.39"/>
<path transform="matrix(.24008638,0,0,-.23991457,294.12678,202.58899)" stroke-width="5.938" stroke-linecap="butt" stroke-dasharray="29.688,17.813" stroke-miterlimit="2.613" stroke-linejoin="miter" fill="none" stroke="#00aeef" d="M0 0H356.29"/>
<path transform="matrix(.24008638,0,0,-.23991457,375.14869,198.9447)" stroke-width="5.938" stroke-linecap="butt" stroke-miterlimit="2.613" stroke-linejoin="miter" fill="none" stroke="#00aeef" d="M0 0 23.43-15.19 0-30.39"/>
<path transform="matrix(.24008638,0,0,-.23991457,224.89783,228.34143)" stroke-width="5.938" stroke-linecap="butt" stroke-dasharray="29.688,17.813" stroke-miterlimit="2.613" stroke-linejoin="miter" fill="none" stroke="#00aeef" d="M0 0H356.29"/>
<path transform="matrix(.24008638,0,0,-.23991457,305.9198,224.69947)" stroke-width="5.938" stroke-linecap="butt" stroke-miterlimit="2.613" stroke-linejoin="miter" fill="none" stroke="#00aeef" d="M0 0 23.43-15.18 0-30.39"/>
<path transform="matrix(.24008638,0,0,-.23991457,328.59117,227.46088)" stroke-width="5.938" stroke-linecap="butt" stroke-dasharray="29.688,17.813" stroke-miterlimit="2.613" stroke-linejoin="miter" fill="none" stroke="#00aeef" d="M0 0H376.96"/>
<path transform="matrix(.24008638,0,0,-.23991457,414.57569,223.81897)" stroke-width="5.938" stroke-linecap="butt" stroke-miterlimit="2.613" stroke-linejoin="miter" fill="none" stroke="#00aeef" d="M0 0 23.42-15.18 0-30.39"/>
<path transform="matrix(.24008638,0,0,-.23991457,404.65769,158.35828)" stroke-width="5.938" stroke-linecap="butt" stroke-miterlimit="2.613" stroke-linejoin="miter" fill="none" stroke="#00aeef" d="M0 0H233.21"/>
<path transform="matrix(.24008638,0,0,-.23991457,409.17854,154.71393)" stroke-width="5.938" stroke-linecap="butt" stroke-miterlimit="2.613" stroke-linejoin="miter" fill="none" stroke="#00aeef" d="M0 0-23.43-15.19 0-30.39"/>
<path transform="matrix(.24008638,0,0,-.23991457,460.18489,211.22101)" stroke-width="5.938" stroke-linecap="butt" stroke-dasharray="29.688,17.813" stroke-miterlimit="2.613" stroke-linejoin="miter" fill="none" stroke="#00aeef" d="M0 0V214.19"/>
<path transform="matrix(.23999995,0,0,-.23999854,-17.999955,802.7999)" d="M1571.27 2650.81H1637.26V2843.82H1571.27Z" fill="#b9e5fa" fill-rule="evenodd"/>
<path transform="matrix(.24008638,0,0,-.23991457,359.1061,120.28381)" stroke-width="3.95799" stroke-linecap="butt" stroke-miterlimit="2.613" stroke-linejoin="miter" fill="none" stroke="#ec008c" d="M0 0H65.97V-193.08H0V0Z"/>
<text fill="#231f20" xml:space="preserve" transform="matrix(1.0003432 0 -0 .999655 -18 802.80007)" font-size="9.974429" font-family="Bookman"><tspan y="-688.67819" x="167.7163 175.09737 180.28408 183.2764 186.26874 189.46054 197.4401 200.43242 205.61913 208.61145 213.79816 216.7905 222.37616">Cell Division</tspan></text>
<text fill="#231f20" xml:space="preserve" transform="matrix(1.0003432 0 -0 .9996551 -18 802.80007)" font-size="9.974429" font-family="Bookman"><tspan y="-688.8952" x="369.53089 377.5104 382.69715 388.4823 392.27259">Death</tspan><tspan y="-608.1754" x="194.4665 200.65065 203.64299 209.42816 214.61487 223.99083 229.776 233.56629 236.55863 241.74532 244.93714 250.32332 254.79149 260.3772 268.15727 271.94755">Plasmatic growth</tspan><tspan y="-609.3848" x="314.84703 322.82658 325.81889 329.2999 332.49174 337.67848 342.13624 347.32298 353.90608 357.69636 360.6887 366.47386 370.26414 373.25645 378.84214">Differentiation</tspan><tspan y="-561.10519" x="257.78135 264.96293 270.5486 276.73277 282.5179 289.10105 294.28776 297.28007 302.86576">Expansion</tspan><tspan y="-549.3461" x="254.39017 257.38249 264.56407 267.55638 273.14207 279.7252 285.1114 290.89659 294.68687 297.67918 303.26487 309.84797">(Elongation)</tspan><tspan y="-562.1505" x="363.0116 372.18809 377.97325 381.76353 388.54615 392.93489 398.72007 402.51036 405.50267 411.08836">Maturation</tspan><tspan y="-598.9472" x="88.64604 97.82252 105.004108 112.18569 115.577 122.160129 128.34427 135.52587 144.70233 151.49387 157.67801 161.0693">MERISTEMATIC</tspan><tspan y="-587.1862" x="115.28321 122.66428 129.84587 135.83054">CELL</tspan><tspan y="-654.0312" x="421.77189 428.355 435.53657 442.91767 450.09925 456.68235 464.06346 471.24504 478.6261 486.0072">SENESCENCE</tspan><tspan y="-575.3801" x="457.64326 466.81974 473.61244 479.79658 487.57664 494.7582">MATURE</tspan><tspan y="-563.6211" x="466.5193 473.9004 481.08198 487.06663">CELL</tspan></text>
</g>
<g clip-path="url(#clip_644)">
<path transform="matrix(.23999998,0,0,-.23999998,207.8671,527.56326)" d="M0 0C-.03 6.18-3.61 224.89-4.32 234.26-5.23 238.21-8.48 239.8-16.4 238.68-40.69 238.66-62.81 248.91-73.56 262.18-84.13 274.96-81.69 279.2-65 273.63-50.83 270.5-51.85 275.1-59.78 283.22-69.62 286.21-71.65 292.99-75.05 302.66-78.76 315.36-77.65 321.04-65.93 311.26-50.97 300.31-55.33 310.73-56.22 330.27-55.49 350.86-42.17 350.81-38.85 333.47-36.15 319.41-26.01 313.99-21.28 327.89-26.52 311.47-19.74 295.86-15.79 288.98 10.22 275.41-8.69 325.63-16.3 331.74-14.39 348.45-3.81 363.47 3.84 351.71 12.51 339.38 16.64 338.12 16.23 347.94 16.18 351.35 16.14 354.76 16.09 358.17 13.56 366.13 16.28 367.32 24.27 361.73 31.07 358.34 31.16 362.61 30.29 367.99 30.46 377.72 41.93 379.57 41.51 367.47 41.05 360.73 40.58 353.98 40.12 347.24 40.11 339.06 42.14 335.53 48.62 342.22 51.21 344.88 53.81 347.53 56.4 350.18 64.68 357.41 67.05 355.2 63.52 343.54 60.27 335.06 57.01 326.59 53.76 318.11 48.28 308.79 49.37 304.78 64.87 312.43 69.77 324.46 75.76 326.43 82.84 318.34 88.85 275.67 36.83 227.65 17.64 239.17 9.2 242.53 3.71 241.97 4.25 235.48 3.76 226.82 6.66 .83 6.59-.03 3.97-.09 2.67-.05 0 0" fill="#a6ce38" fill-rule="evenodd"/>
<path transform="matrix(.24004318,0,0,-.23995705,207.86743,527.5621)" stroke-width="2.08299" stroke-linecap="butt" stroke-miterlimit="2.613" stroke-linejoin="miter" fill="none" stroke="#231f20" d="M0 0C-.03 6.18-3.61 224.93-4.32 234.3-5.23 238.25-8.48 239.84-16.4 238.72-40.68 238.7-62.8 248.95-73.55 262.23-84.11 275.01-81.68 279.24-64.99 273.67-50.82 270.54-51.84 275.14-59.77 283.26-69.61 286.26-71.64 293.04-75.04 302.71-78.75 315.41-77.63 321.09-65.92 311.31-50.96 300.35-55.32 310.79-56.21 330.32-55.48 350.92-42.17 350.86-38.85 333.52-36.15 319.46-26 314.04-21.28 327.95-26.51 311.52-19.73 295.91-15.79 289.03 10.22 275.45-8.69 325.69-16.3 331.79-14.39 348.51-3.81 363.53 3.83 351.77 12.51 339.43 16.64 338.17 16.22 348 16.18 351.41 16.13 354.82 16.09 358.23 13.56 366.19 16.28 367.38 24.26 361.79 31.06 358.4 31.15 362.67 30.28 368.05 30.46 377.79 41.92 379.63 41.5 367.53 41.04 360.79 40.57 354.04 40.11 347.3 40.11 339.11 42.13 335.58 48.62 342.28 51.21 344.93 53.8 347.59 56.39 350.24 64.66 357.47 67.03 355.26 63.5 343.6 60.25 335.12 57 326.64 53.75 318.16 48.28 308.84 49.36 304.83 64.86 312.48 69.75 324.51 75.75 326.48 82.82 318.39 88.83 275.71 36.82 227.68 17.63 239.21 9.2 242.57 3.71 242.01 4.25 235.52 3.76 226.85 6.66 .82 6.58-.04 3.97-.09 2.67-.06 0 0Z"/>
<path transform="matrix(.23999998,0,0,-.23999998,374.05677,666.7649)" d="M0 0 7.48 20.93C8.39 23.46 8.95 25.67 12.11 25.76V26.94H2.22V25.76C3.76 25.6 5.46 25.16 5.46 23.26 5.46 22.59 5.31 22.04 5.11 21.41L0 5.42-5.62 22.51C-5.78 22.99-5.94 23.34-5.94 23.86-5.94 25.56-4.31 25.52-3.05 25.76V26.94H-13.97V25.76C-10.84 24.96-10.25 23.3-9.38 20.37L-13.97 5.42-19.59 22.23C-19.75 22.79-19.94 23.34-19.94 23.9-19.94 25.52-18.36 25.67-17.14 25.76V26.94H-28.03V25.76C-27.04 25.48-26 25.32-25.29 24.49-24.54 23.58-24.02 22-23.67 20.89L-16.43 0H-14.01L-8.27 17.29-2.49 0H0" fill="#231f20" fill-rule="evenodd"/>
<path transform="matrix(.23999998,0,0,-.23999998,381.50398,666.27096)" d="M0 0C-.47-.32-1.03-.59-1.62-.59-3.56-.59-3.8 1.9-3.8 3.56V11.32C-3.8 13.53-4 15.03-6.14 16.18-7.6 16.97-9.78 17.53-11.44 17.49-13.22 17.45-15.35 17.05-17.02 16.34-18.4 15.75-20.22 14.28-20.22 12.62-20.22 11.63-19.31 10.88-18.37 10.88-16.86 10.88-16.35 11.95-16.35 13.25V13.77C-16.35 15.27-13.77 15.86-12.55 15.86-11.36 15.86-10.01 15.71-8.98 15.03-7.88 14.28-7.68 13.25-7.6 12.03V9.18L-10.53 8.86C-12.78 8.62-15.08 8.19-17.18 7.24-19.43 6.25-21.1 4.98-21.1 2.29-21.1-.87-17.81-2.37-15.04-2.37-12.07-2.37-9.93-1.34-7.6 .47-7.01-1.46-5.22-2.34-3.28-2.37-1.98-2.42-.24-1.98 .75-1.03L0 0ZM-7.6 2.21C-9.22 .83-11.36-.43-13.49-.43-15.4-.43-17.1 .75-17.1 2.77-17.1 6.69-10.61 7.52-7.6 7.79V2.21" fill="#231f20" fill-rule="evenodd"/>
<path transform="matrix(.23999998,0,0,-.23999998,384.86637,662.1694)" d="M0 0H-5.62V7.24H-7.32C-7.32 3.36-8.19 .16-12.74 0V-1.27H-9.42V-14.2C-9.42-15.94-9.26-17.48-7.68-18.52-6.57-19.19-5.07-19.46-3.76-19.46-1.62-19.46 .52-18.67 1.82-16.89L.83-16.02C-.12-16.97-1.19-17.76-2.61-17.76-5.62-17.76-5.62-14.6-5.62-12.38V-1.27H0V0" fill="#231f20" fill-rule="evenodd"/>
<path transform="matrix(.23999998,0,0,-.23999998,389.89198,664.02096)" d="M0 0C.08 4.94-3.76 8.15-8.51 8.11-14.37 8.07-17.97 3.96-17.97-1.78-17.97-4.47-16.94-7.24-15-9.18-13.06-11.03-10.73-11.75-8.08-11.75-4.71-11.75-1.43-10.12 0-7L-1.31-6.33C-2.57-8.66-4.44-9.97-7.13-9.97-9.07-9.97-11.05-9.14-12.15-7.52-13.18-5.97-13.85-3.84-13.85-2.02L-13.78 0H0ZM-13.69 1.62C-13.42 4.16-11.56 6.49-8.75 6.49-6.06 6.49-4.2 4.55-4.2 1.62H-13.69" fill="#231f20" fill-rule="evenodd"/>
<path transform="matrix(.23999998,0,0,-.23999998,392.11439,663.299)" d="M0 0C.87 .95 2.53 2.18 3.88 2.18 5.1 2.18 5.54 .87 7.4 .87 8.63 .87 9.58 1.74 9.58 3.01 9.58 4.59 7.96 5.1 6.65 5.1 3.99 5.1 1.74 3.52 0 1.74V4.71H-1.27L-7.33 3.84V2.65H-6.69C-4.2 2.49-3.8 1.03-3.8-1.19V-9.41C-3.8-11.87-4.24-13.09-6.85-13.25H-7.28V-14.44H3.6V-13.25L2.93-13.21C.39-13.09 .08-11.67 0-9.41V0" fill="#231f20" fill-rule="evenodd"/>
<path transform="matrix(.23999998,0,0,-.23999998,402.71278,663.5549)" d="M0 0C0 1.85 .04 3.6-1.58 4.82-2.77 5.73-4.55 6.17-6.01 6.17-9.1 6.17-11.79 4.82-14.05 2.85V14.99H-15.63C-17.49 14.24-19.43 13.92-21.36 13.69V12.5L-20.81 12.46C-17.57 12.22-17.84 10.13-17.84 7.51V-8.35C-17.84-10.88-18.32-12.07-20.97-12.19H-21.4V-13.37H-10.84V-12.19H-11.36C-13.77-12.03-14.05-10.52-14.05-8.35V.99C-12.47 2.57-9.38 4.11-7.08 4.11-6.13 4.11-5.06 3.76-4.43 3-3.76 2.1-3.8 .87-3.8-.2V-8.35C-3.8-10.88-4.23-12.07-6.88-12.19H-7.36V-13.37H3.25V-12.19H2.77C.32-11.99 0-10.52 0-8.35V0" fill="#231f20" fill-rule="evenodd"/>
<path transform="matrix(.23999998,0,0,-.23999998,409.04878,666.27096)" d="M0 0C-.47-.32-1.03-.59-1.62-.59-3.56-.59-3.8 1.9-3.8 3.56V11.32C-3.8 13.53-3.99 15.03-6.13 16.18-7.6 16.97-9.77 17.53-11.44 17.49-13.22 17.45-15.35 17.05-17.02 16.34-18.4 15.75-20.22 14.28-20.22 12.62-20.22 11.63-19.31 10.88-18.36 10.88-16.86 10.88-16.34 11.95-16.34 13.25V13.77C-16.34 15.27-13.77 15.86-12.55 15.86-11.36 15.86-10.01 15.71-8.98 15.03-7.87 14.28-7.68 13.25-7.6 12.03V9.18L-10.53 8.86C-12.78 8.62-15.08 8.19-17.17 7.24-19.43 6.25-21.09 4.98-21.09 2.29-21.09-.87-17.81-2.37-15.04-2.37-12.07-2.37-9.93-1.34-7.6 .47-7-1.46-5.22-2.34-3.28-2.37-1.98-2.42-.24-1.98 .76-1.03L0 0ZM-7.6 2.21C-9.22 .83-11.36-.43-13.49-.43-15.39-.43-17.1 .75-17.1 2.77-17.1 6.69-10.6 7.52-7.6 7.79V2.21" fill="#231f20" fill-rule="evenodd"/>
<path transform="matrix(.23999998,0,0,-.23999998,410.75038,666.21389)" d="M0 0C2.01-1.78 4.47-2.61 7.16-2.61 12.94-2.61 16.42 1.98 16.42 7.48 16.42 12.74 13.22 17.25 7.59 17.25 4.86 17.25 2.57 16.3 .63 14.36V26.07H-.95C-2.82 25.32-4.75 25-6.7 24.77V23.58L-6.14 23.54C-2.89 23.3-3.17 21.21-3.17 18.59V-2.3H-1L0 0ZM.63 12.27C2.29 14.16 3.84 15.43 6.53 15.43 11.08 15.43 12.31 10.96 12.31 7.24 12.31 3.12 10.56-.75 5.89-.75 3.92-.75 1.93 .04 .63 1.46V12.27" fill="#231f20" fill-rule="evenodd"/>
<path transform="matrix(.23999998,0,0,-.23999998,417,662.1694)" d="M0 0H-1.27L-7.32-.87V-2.05H-6.69C-4.2-2.21-3.8-3.68-3.8-5.89V-14.12C-3.8-16.53-4.2-17.8-6.81-17.96H-7.16V-19.15H3.29V-17.96H2.81C.36-17.76 0-16.3 0-14.12V0ZM.51 4.27C.51 5.62-.48 6.73-1.86 6.73-3.09 6.73-4.24 5.66-4.24 4.43-4.24 3.09-3.29 1.98-1.9 1.98-.63 1.98 .51 2.97 .51 4.27" fill="#231f20" fill-rule="evenodd"/>
<path transform="matrix(.23999998,0,0,-.23999998,421.14958,662.1694)" d="M0 0H-5.61V7.24H-7.32C-7.32 3.36-8.19 .16-12.74 0V-1.27H-9.41V-14.2C-9.41-15.94-9.25-17.48-7.67-18.52-6.57-19.19-5.06-19.46-3.75-19.46-1.62-19.46 .52-18.67 1.82-16.89L.84-16.02C-.11-16.97-1.18-17.76-2.61-17.76-5.61-17.76-5.61-14.6-5.61-12.38V-1.27H0V0" fill="#231f20" fill-rule="evenodd"/>
<path transform="matrix(.23999998,0,0,-.23999998,426.90718,666.27096)" d="M0 0C-.48-.32-1.03-.59-1.62-.59-3.56-.59-3.8 1.9-3.8 3.56V11.32C-3.8 13.53-4 15.03-6.14 16.18-7.6 16.97-9.78 17.53-11.44 17.49-13.22 17.45-15.36 17.05-17.02 16.34-18.4 15.75-20.23 14.28-20.23 12.62-20.23 11.63-19.32 10.88-18.37 10.88-16.86 10.88-16.35 11.95-16.35 13.25V13.77C-16.35 15.27-13.78 15.86-12.55 15.86-11.36 15.86-10.01 15.71-8.99 15.03-7.88 14.28-7.68 13.25-7.6 12.03V9.18L-10.53 8.86C-12.78 8.62-15.08 8.19-17.18 7.24-19.43 6.25-21.1 4.98-21.1 2.29-21.1-.87-17.81-2.37-15.04-2.37-12.07-2.37-9.94-1.34-7.6 .47-7.01-1.46-5.23-2.34-3.29-2.37-1.98-2.42-.24-1.98 .75-1.03L0 0ZM-7.6 2.21C-9.23 .83-11.36-.43-13.5-.43-15.4-.43-17.1 .75-17.1 2.77-17.1 6.69-10.61 7.52-7.6 7.79V2.21" fill="#231f20" fill-rule="evenodd"/>
<path transform="matrix(.23999998,0,0,-.23999998,430.26957,662.1694)" d="M0 0H-5.62V7.24H-7.32C-7.32 3.36-8.19 .16-12.75 0V-1.27H-9.42V-14.2C-9.42-15.94-9.26-17.48-7.68-18.52-6.57-19.19-5.07-19.46-3.76-19.46-1.62-19.46 .51-18.67 1.82-16.89L.83-16.02C-.12-16.97-1.19-17.76-2.61-17.76-5.62-17.76-5.62-14.6-5.62-12.38V-1.27H0V0" fill="#231f20" fill-rule="evenodd"/>
<path transform="matrix(.23999998,0,0,-.23999998,196.97904,533.6952)" d="M0 0C0 1.03-.08 2.77 .39 3.68 .95 4.75 2.06 4.91 3.12 4.95L3.48 4.99V6.18H-7.48V4.99L-6.93 4.95C-3.72 4.71-3.96 2.61-3.96 0V-7.95C-3.96-9.97-3.96-13.57-4.55-15.39-5.42-18.12-7.52-19.46-10.33-19.46-11.91-19.46-13.66-18.95-14.88-17.96-15.63-17.37-16.31-16.38-16.31-15.39-16.31-13.69-14.64-13.84-14.64-11.95-14.64-10.68-15.52-9.89-16.78-9.89-18.76-9.89-19.87-11.47-19.87-13.37-19.87-15.74-18.48-18.08-16.59-19.5-14.68-20.89-12.23-21.45-9.89-21.45-5.98-21.45-1.23-19.7-.28-15.43 0-14 0-11.51 0-10.01V0" fill="#231f20" fill-rule="evenodd"/>
<path transform="matrix(.23999998,0,0,-.23999998,203.55191,534.084)" d="M0 0H-1.27L-7.32-.87V-2.06H-6.69C-4.19-2.22-3.8-3.68-3.8-5.9V-14.17C-5.62-15.94-8.23-17.52-11.04-17.52-12.15-17.52-13.46-17.09-14.05-16.06-14.52-15.23-14.48-13.77-14.48-12.78V0H-15.75L-21.81-.87V-2.06H-21.18C-18.68-2.22-18.28-3.68-18.28-5.9V-13.29C-18.28-14.95-18.25-16.46-17.06-17.76-15.91-19.03-13.97-19.47-12.31-19.47-8.91-19.47-6.05-18.04-3.8-15.86V-19.15H3.25V-17.96L2.65-18C.24-18.16 0-16.38 0-14.17V0" fill="#231f20" fill-rule="evenodd"/>
<path transform="matrix(.23999998,0,0,-.23999998,207.21839,537.86398)" d="M0 0-4.31 11.4C-4.47 11.91-4.79 12.66-4.79 13.22-4.79 14.28-3.76 14.48-2.93 14.56H-2.25V15.75H-11.88V14.56C-9.62 14.37-9.14 13.42-8.31 11.4L-2.29-3.4H0L5.74 10.13C6.69 12.31 7.68 14.09 10.17 14.56V15.75H1.94V14.56C3.28 14.44 4.43 14.17 4.43 12.55 4.43 11.91 4.12 11.08 3.92 10.49L0 0" fill="#231f20" fill-rule="evenodd"/>
<path transform="matrix(.23999998,0,0,-.23999998,214.19063,535.93679)" d="M0 0C.08 4.95-3.76 8.16-8.51 8.12-14.37 8.08-17.97 3.96-17.97-1.77-17.97-4.47-16.94-7.23-15-9.17-13.06-11.03-10.73-11.75-8.07-11.75-4.71-11.75-1.43-10.12 0-7L-1.31-6.32C-2.57-8.66-4.43-9.97-7.12-9.97-9.06-9.97-11.04-9.13-12.15-7.51-13.18-5.97-13.85-3.83-13.85-2.01L-13.77 0H0ZM-13.69 1.63C-13.42 4.16-11.56 6.49-8.75 6.49-6.05 6.49-4.19 4.55-4.19 1.63H-13.69" fill="#231f20" fill-rule="evenodd"/>
<path transform="matrix(.23999998,0,0,-.23999998,219.83255,535.35598)" d="M0 0C0 1.66-.2 2.97-1.54 4.11-2.69 5.14-4.27 5.7-5.82 5.7-9.1 5.7-11.87 4.39-14.25 2.17V5.3H-15.51L-21.57 4.43V3.24H-20.93C-18.44 3.08-18.05 1.62-18.05-.6V-8.82C-18.05-11.32-18.52-12.54-21.13-12.66H-21.57V-13.85H-10.84V-12.66H-11.4C-13.89-12.5-14.25-11.04-14.25-8.82V.47C-12.35 2.13-9.81 3.64-7.2 3.64-6.13 3.64-5.02 3.17-4.43 2.21-3.92 1.35-3.8 .35-3.8-.67V-8.82C-3.8-11.04-4.16-12.5-6.65-12.66H-7.2V-13.85H3.33V-12.66H2.81C.36-12.5 0-11 0-8.87V0" fill="#231f20" fill-rule="evenodd"/>
<path transform="matrix(.23999998,0,0,-.23999998,222.6816,534.084)" d="M0 0H-1.26L-7.32-.87V-2.06H-6.68C-4.19-2.22-3.8-3.68-3.8-5.9V-14.12C-3.8-16.54-4.19-17.8-6.8-17.96H-7.16V-19.15H3.29V-17.96H2.81C.36-17.76 0-16.3 0-14.12V0ZM.52 4.27C.52 5.62-.47 6.73-1.86 6.73-3.09 6.73-4.23 5.66-4.23 4.43-4.23 3.08-3.28 1.98-1.89 1.98-.63 1.98 .52 2.97 .52 4.27" fill="#231f20" fill-rule="evenodd"/>
<path transform="matrix(.23999998,0,0,-.23999998,225.5304,531.87118)" d="M0 0H-1.58C-3.44-.75-5.38-1.07-7.32-1.31V-2.49L-6.76-2.53C-3.51-2.77-3.79-4.87-3.79-7.48V-23.34C-3.79-25.72-4.23-26.98-6.8-27.18H-7.16V-28.37H3.21V-27.18L2.74-27.14C.32-26.98 0-25.48 0-23.34V0" fill="#231f20" fill-rule="evenodd"/>
<path transform="matrix(.23999998,0,0,-.23999998,231.09839,535.93679)" d="M0 0C.08 4.95-3.76 8.16-8.51 8.12-14.37 8.08-17.97 3.96-17.97-1.77-17.97-4.47-16.94-7.23-15-9.17-13.06-11.03-10.73-11.75-8.07-11.75-4.71-11.75-1.43-10.12 0-7L-1.31-6.32C-2.57-8.66-4.43-9.97-7.12-9.97-9.06-9.97-11.04-9.13-12.15-7.51-13.18-5.97-13.86-3.83-13.86-2.01L-13.77 0H0ZM-13.7 1.63C-13.42 4.16-11.56 6.49-8.75 6.49-6.05 6.49-4.2 4.55-4.2 1.63H-13.7" fill="#231f20" fill-rule="evenodd"/>
<path transform="matrix(.23999998,0,0,-.23999998,316.24797,531.42959)" d="M0 0H-3.68L-10.29-16.97C-10.97-18.75-11.95-21.41-12.86-23.03-13.85-24.77-14.53-25.24-16.43-25.68L-16.86-25.76V-26.94H-6.25V-25.76C-8.15-25.56-9.74-25.16-9.74-23.19-9.74-22.28-9.15-20.73-8.83-19.9L-7.72-16.93H2.45L4.23-21.6C4.47-22.19 4.83-23.1 4.83-23.78 4.83-25.32 3.05-25.6 1.74-25.76V-26.94H12.86V-25.76C9.73-25.6 9.14-23.23 8.15-20.77L0 0ZM-7.16-15.15-2.77-3.41 1.74-15.15H-7.16" fill="#231f20" fill-rule="evenodd"/>
<path transform="matrix(.23999998,0,0,-.23999998,323.06877,533.6808)" d="M0 0C-2.1 1.19-3.8 1.98-6.22 1.98-12.07 1.98-15.44-2.57-15.44-8.11-15.44-13.37-12.23-17.88-6.65-17.88-4.12-17.88-1.78-16.77 0-14.87V-17.56H6.49V-16.38C3.95-16.18 3.8-14.48 3.8-12.54V10.8H2.21C.35 10.05-1.58 9.74-3.53 9.5V8.31L-2.97 8.27C.27 8.03 0 5.94 0 3.33V0ZM0-13.01C-1.43-14.79-3.25-16.02-5.51-16.02-10.06-16.02-11.32-11.71-11.32-7.95-11.32-3.95-9.86 .12-5.23 .12-3.29 .12-1.47-.67 0-2.01V-13.01" fill="#231f20" fill-rule="evenodd"/>
<path transform="matrix(.23999998,0,0,-.23999998,330.32637,533.3016)" d="M0 0H-1.27L-7.33-.86V-2.05H-6.69C-4.2-2.21-3.81-3.67-3.81-5.89V-14.16C-5.63-15.94-8.24-17.52-11.05-17.52-12.16-17.52-13.46-17.09-14.06-16.06-14.53-15.23-14.49-13.76-14.49-12.77V0H-15.76L-21.81-.86V-2.05H-21.18C-18.68-2.21-18.29-3.67-18.29-5.89V-13.29C-18.29-14.95-18.25-16.45-17.06-17.76-15.91-19.02-13.98-19.46-12.31-19.46-8.91-19.46-6.06-18.03-3.81-15.86V-19.14H3.24V-17.96L2.65-18C.23-18.16 0-16.37 0-14.16V0" fill="#231f20" fill-rule="evenodd"/>
<path transform="matrix(.23999998,0,0,-.23999998,333.30717,531.08877)" d="M0 0H-1.58C-3.44-.75-5.38-1.06-7.32-1.3V-2.49L-6.76-2.53C-3.52-2.77-3.8-4.86-3.8-7.47V-23.34C-3.8-25.71-4.23-26.98-6.8-27.18H-7.16V-28.36H3.21V-27.18L2.74-27.14C.32-26.98 0-25.47 0-23.34V0" fill="#231f20" fill-rule="evenodd"/>
<path transform="matrix(.23999998,0,0,-.23999998,337.45918,533.3016)" d="M0 0H-5.62V7.25H-7.32C-7.32 3.37-8.19 .16-12.75 0V-1.26H-9.42V-14.2C-9.42-15.94-9.26-17.48-7.68-18.51-6.57-19.19-5.07-19.46-3.76-19.46-1.62-19.46 .51-18.67 1.82-16.89L.83-16.02C-.12-16.97-1.19-17.76-2.62-17.76-5.62-17.76-5.62-14.59-5.62-12.38V-1.26H0V0" fill="#231f20" fill-rule="evenodd"/>
<path transform="matrix(.23999998,0,0,-.23999998,136.17002,677.7871)" d="M0 0H-22.99L-25.21-6.96-23.91-7.44C-22.12-4-19.15-1.54-15.12-1.54-13.5-1.54-13.45-2.21-13.45-3.56V-20.77C-13.45-21.8-13.41-23.5-13.89-24.45-14.44-25.6-15.71-25.64-16.82-25.72L-17.57-25.76V-26.95H-5.3V-25.72H-6.13C-7.28-25.64-8.59-25.6-9.14-24.33-9.53-23.38-9.5-21.8-9.5-20.77V-3.76C-9.5-2.37-9.62-1.5-7.95-1.5-4.07-1.5-.91-4.12 .79-7.44L2.22-6.96 0 0" fill="#231f20" fill-rule="evenodd"/>
<path transform="matrix(.23999998,0,0,-.23999998,141.14807,681.50997)" d="M0 0C.08 4.94-3.76 8.15-8.51 8.11-14.37 8.07-17.97 3.96-17.97-1.78-17.97-4.47-16.94-7.24-15-9.18-13.06-11.03-10.73-11.75-8.07-11.75-4.71-11.75-1.43-10.12 0-7L-1.31-6.33C-2.57-8.66-4.43-9.97-7.12-9.97-9.06-9.97-11.04-9.14-12.15-7.52-13.18-5.97-13.85-3.84-13.85-2.02L-13.77 0H0ZM-13.69 1.62C-13.42 4.16-11.56 6.49-8.75 6.49-6.05 6.49-4.19 4.55-4.19 1.62H-13.69" fill="#231f20" fill-rule="evenodd"/>
<path transform="matrix(.23999998,0,0,-.23999998,143.37097,680.788)" d="M0 0C.87 .95 2.53 2.18 3.88 2.18 5.1 2.18 5.54 .87 7.4 .87 8.62 .87 9.58 1.74 9.58 3.01 9.58 4.59 7.95 5.1 6.65 5.1 4 5.1 1.74 3.52 0 1.74V4.71H-1.27L-7.32 3.84V2.65H-6.69C-4.19 2.49-3.8 1.03-3.8-1.19V-9.41C-3.8-11.87-4.24-13.09-6.85-13.25H-7.28V-14.44H3.6V-13.25L2.93-13.21C.39-13.09 .08-11.67 0-9.41V0" fill="#231f20" fill-rule="evenodd"/>
<path transform="matrix(.23999998,0,0,-.23999998,147.55033,680.788)" d="M0 0C.87 .95 2.53 2.18 3.88 2.18 5.1 2.18 5.54 .87 7.4 .87 8.62 .87 9.58 1.74 9.58 3.01 9.58 4.59 7.95 5.1 6.65 5.1 4 5.1 1.74 3.52 0 1.74V4.71H-1.27L-7.32 3.84V2.65H-6.69C-4.19 2.49-3.8 1.03-3.8-1.19V-9.41C-3.8-11.87-4.24-13.09-6.85-13.25H-7.28V-14.44H3.6V-13.25L2.93-13.21C.39-13.09 .08-11.67 0-9.41V0" fill="#231f20" fill-rule="evenodd"/>
<path transform="matrix(.23999998,0,0,-.23999998,154.51224,681.50997)" d="M0 0C.08 4.94-3.76 8.15-8.51 8.11-14.36 8.07-17.96 3.96-17.96-1.78-17.96-4.47-16.94-7.24-15-9.18-13.06-11.03-10.72-11.75-8.07-11.75-4.71-11.75-1.42-10.12 0-7L-1.3-6.33C-2.57-8.66-4.43-9.97-7.12-9.97-9.06-9.97-11.04-9.14-12.15-7.52-13.18-5.97-13.85-3.84-13.85-2.02L-13.77 0H0ZM-13.69 1.62C-13.41 4.16-11.55 6.49-8.75 6.49-6.05 6.49-4.19 4.55-4.19 1.62H-13.69" fill="#231f20" fill-rule="evenodd"/>
<path transform="matrix(.23999998,0,0,-.23999998,158.7684,679.6583)" d="M0 0H-1.11L-1.55-1.38C-3.09-.16-5.19 .4-7.12 .4-10.29 .4-14.41-1.5-14.41-5.18-14.41-8.9-10.93-9.73-8-10.48L-3.96-11.55C-2.41-11.94-.63-12.38-.63-14.32-.63-16.77-3.56-17.8-5.58-17.8-9.26-17.8-12.51-15.66-13.62-12.11H-15L-13.62-19.15H-12.35L-11.91-17.48C-10.05-18.87-7.92-19.46-5.58-19.46-1.74-19.46 2.69-17.52 2.69-13.09 2.69-9.61 .12-8.54-2.81-7.83L-7.28-6.77C-8.75-6.41-11-6.01-11-4.07-11-1.98-8.71-1.23-6.93-1.23-4.04-1.23-1.03-3.36 0-6.05H1.27L0 0" fill="#231f20" fill-rule="evenodd"/>
<path transform="matrix(.23999998,0,0,-.23999998,162.97585,679.6583)" d="M0 0H-5.62V7.24H-7.32C-7.32 3.36-8.19 .16-12.75 0V-1.27H-9.42V-14.2C-9.42-15.94-9.26-17.48-7.68-18.52-6.57-19.19-5.07-19.46-3.76-19.46-1.62-19.46 .52-18.67 1.82-16.89L.83-16.02C-.12-16.97-1.19-17.76-2.61-17.76-5.62-17.76-5.62-14.6-5.62-12.38V-1.27H0V0" fill="#231f20" fill-rule="evenodd"/>
<path transform="matrix(.23999998,0,0,-.23999998,165.28418,680.788)" d="M0 0C.87 .95 2.53 2.18 3.88 2.18 5.1 2.18 5.54 .87 7.4 .87 8.63 .87 9.58 1.74 9.58 3.01 9.58 4.59 7.96 5.1 6.65 5.1 4 5.1 1.74 3.52 0 1.74V4.71H-1.27L-7.32 3.84V2.65H-6.69C-4.2 2.49-3.8 1.03-3.8-1.19V-9.41C-3.8-11.87-4.23-13.09-6.85-13.25H-7.28V-14.44H3.6V-13.25L2.93-13.21C.4-13.09 .08-11.67 0-9.41V0" fill="#231f20" fill-rule="evenodd"/>
<path transform="matrix(.23999998,0,0,-.23999998,169.46353,679.6583)" d="M0 0H-1.27L-7.32-.87V-2.05H-6.69C-4.2-2.21-3.8-3.68-3.8-5.89V-14.12C-3.8-16.53-4.2-17.8-6.81-17.96H-7.16V-19.15H3.28V-17.96H2.81C.35-17.76 0-16.3 0-14.12V0ZM.51 4.27C.51 5.62-.47 6.73-1.86 6.73-3.09 6.73-4.23 5.66-4.23 4.43-4.23 3.09-3.28 1.98-1.9 1.98-.63 1.98 .51 2.97 .51 4.27" fill="#231f20" fill-rule="evenodd"/>
<path transform="matrix(.23999998,0,0,-.23999998,175.76065,683.75997)" d="M0 0C-.48-.32-1.03-.59-1.62-.59-3.56-.59-3.8 1.9-3.8 3.56V11.32C-3.8 13.53-4 15.03-6.14 16.18-7.6 16.97-9.78 17.53-11.44 17.49-13.22 17.45-15.35 17.05-17.02 16.34-18.4 15.75-20.22 14.28-20.22 12.62-20.22 11.63-19.31 10.88-18.36 10.88-16.86 10.88-16.34 11.95-16.34 13.25V13.77C-16.34 15.27-13.77 15.86-12.55 15.86-11.36 15.86-10.02 15.71-8.98 15.03-7.88 14.28-7.68 13.25-7.6 12.03V9.18L-10.53 8.86C-12.78 8.62-15.08 8.19-17.18 7.24-19.43 6.25-21.09 4.98-21.09 2.29-21.09-.87-17.81-2.37-15.03-2.37-12.07-2.37-9.93-1.34-7.6 .47-7.01-1.46-5.23-2.34-3.28-2.37-1.98-2.42-.24-1.98 .75-1.03L0 0ZM-7.6 2.21C-9.22 .83-11.36-.43-13.49-.43-15.39-.43-17.09 .75-17.09 2.77-17.09 6.69-10.61 7.52-7.6 7.79V2.21" fill="#231f20" fill-rule="evenodd"/>
<path transform="matrix(.23999998,0,0,-.23999998,177.82129,677.4458)" d="M0 0H-1.58C-3.44-.75-5.38-1.07-7.32-1.3V-2.49L-6.77-2.53C-3.52-2.77-3.8-4.86-3.8-7.48V-23.34C-3.8-25.71-4.23-26.98-6.8-27.18H-7.16V-28.37H3.21V-27.18L2.73-27.14C.32-26.98 0-25.48 0-23.34V0" fill="#231f20" fill-rule="evenodd"/>
<path transform="matrix(.23999998,0,0,-.23999998,187.09226,681.0441)" d="M0 0C0 1.86 .04 3.6-1.58 4.82-2.77 5.73-4.55 6.17-6.02 6.17-9.1 6.17-11.79 4.82-14.05 2.85V14.99H-15.63C-17.49 14.24-19.43 13.93-21.37 13.69V12.5L-20.82 12.46C-17.57 12.22-17.85 10.13-17.85 7.52V-8.35C-17.85-10.88-18.32-12.07-20.98-12.19H-21.41V-13.37H-10.84V-12.19H-11.36C-13.77-12.03-14.05-10.52-14.05-8.35V.99C-12.47 2.57-9.38 4.11-7.09 4.11-6.13 4.11-5.07 3.76-4.43 3-3.76 2.1-3.8 .87-3.8-.2V-8.35C-3.8-10.88-4.23-12.07-6.89-12.19H-7.36V-13.37H3.25V-12.19H2.77C.32-11.99 0-10.52 0-8.35V0" fill="#231f20" fill-rule="evenodd"/>
<path transform="matrix(.23999998,0,0,-.23999998,193.42778,683.75997)" d="M0 0C-.48-.32-1.03-.59-1.62-.59-3.56-.59-3.8 1.9-3.8 3.56V11.32C-3.8 13.53-4 15.03-6.14 16.18-7.6 16.97-9.78 17.53-11.44 17.49-13.22 17.45-15.35 17.05-17.02 16.34-18.4 15.75-20.23 14.28-20.23 12.62-20.23 11.63-19.32 10.88-18.36 10.88-16.86 10.88-16.34 11.95-16.34 13.25V13.77C-16.34 15.27-13.77 15.86-12.55 15.86-11.36 15.86-10.01 15.71-8.98 15.03-7.87 14.28-7.68 13.25-7.6 12.03V9.18L-10.53 8.86C-12.78 8.62-15.08 8.19-17.18 7.24-19.43 6.25-21.09 4.98-21.09 2.29-21.09-.87-17.81-2.37-15.04-2.37-12.07-2.37-9.93-1.34-7.6 .47-7-1.46-5.22-2.34-3.28-2.37-1.98-2.42-.24-1.98 .75-1.03L0 0ZM-7.6 2.21C-9.22 .83-11.36-.43-13.5-.43-15.39-.43-17.1 .75-17.1 2.77-17.1 6.69-10.6 7.52-7.6 7.79V2.21" fill="#231f20" fill-rule="evenodd"/>
<path transform="matrix(.23999998,0,0,-.23999998,195.12842,683.7028)" d="M0 0C2.02-1.78 4.47-2.61 7.16-2.61 12.94-2.61 16.42 1.98 16.42 7.48 16.42 12.74 13.22 17.25 7.6 17.25 4.87 17.25 2.57 16.3 .63 14.36V26.07H-.95C-2.81 25.32-4.75 25-6.7 24.77V23.58L-6.14 23.54C-2.89 23.3-3.17 21.21-3.17 18.59V-2.3H-.99L0 0ZM.63 12.27C2.29 14.16 3.84 15.43 6.53 15.43 11.08 15.43 12.31 10.96 12.31 7.24 12.31 3.12 10.57-.75 5.89-.75 3.92-.75 1.94 .04 .63 1.46V12.27" fill="#231f20" fill-rule="evenodd"/>
<path transform="matrix(.23999998,0,0,-.23999998,201.37778,679.6583)" d="M0 0H-1.26L-7.32-.87V-2.05H-6.69C-4.19-2.21-3.8-3.68-3.8-5.89V-14.12C-3.8-16.53-4.19-17.8-6.8-17.96H-7.16V-19.15H3.29V-17.96H2.81C.36-17.76 0-16.3 0-14.12V0ZM.52 4.27C.52 5.62-.47 6.73-1.86 6.73-3.09 6.73-4.23 5.66-4.23 4.43-4.23 3.09-3.28 1.98-1.9 1.98-.63 1.98 .52 2.97 .52 4.27" fill="#231f20" fill-rule="evenodd"/>
<path transform="matrix(.23999998,0,0,-.23999998,205.52906,679.6583)" d="M0 0H-5.62V7.24H-7.32C-7.32 3.36-8.19 .16-12.74 0V-1.27H-9.42V-14.2C-9.42-15.94-9.26-17.48-7.68-18.52-6.57-19.19-5.07-19.46-3.76-19.46-1.62-19.46 .52-18.67 1.82-16.89L.83-16.02C-.12-16.97-1.19-17.76-2.61-17.76-5.62-17.76-5.62-14.6-5.62-12.38V-1.27H0V0" fill="#231f20" fill-rule="evenodd"/>
<path transform="matrix(.23999998,0,0,-.23999998,211.28522,683.75997)" d="M0 0C-.47-.32-1.03-.59-1.62-.59-3.56-.59-3.8 1.9-3.8 3.56V11.32C-3.8 13.53-4 15.03-6.13 16.18-7.6 16.97-9.77 17.53-11.44 17.49-13.22 17.45-15.35 17.05-17.02 16.34-18.4 15.75-20.22 14.28-20.22 12.62-20.22 11.63-19.31 10.88-18.36 10.88-16.86 10.88-16.34 11.95-16.34 13.25V13.77C-16.34 15.27-13.77 15.86-12.55 15.86-11.36 15.86-10.01 15.71-8.98 15.03-7.87 14.28-7.68 13.25-7.6 12.03V9.18L-10.53 8.86C-12.78 8.62-15.08 8.19-17.17 7.24-19.43 6.25-21.09 4.98-21.09 2.29-21.09-.87-17.81-2.37-15.04-2.37-12.07-2.37-9.93-1.34-7.6 .47-7-1.46-5.22-2.34-3.28-2.37-1.98-2.42-.24-1.98 .75-1.03L0 0ZM-7.6 2.21C-9.22 .83-11.36-.43-13.5-.43-15.39-.43-17.1 .75-17.1 2.77-17.1 6.69-10.6 7.52-7.6 7.79V2.21" fill="#231f20" fill-rule="evenodd"/>
<path transform="matrix(.23999998,0,0,-.23999998,214.6481,679.6583)" d="M0 0H-5.62V7.24H-7.32C-7.32 3.36-8.19 .16-12.75 0V-1.27H-9.42V-14.2C-9.42-15.94-9.26-17.48-7.68-18.52-6.57-19.19-5.07-19.46-3.76-19.46-1.62-19.46 .51-18.67 1.82-16.89L.83-16.02C-.12-16.97-1.19-17.76-2.61-17.76-5.62-17.76-5.62-14.6-5.62-12.38V-1.27H0V0" fill="#231f20" fill-rule="evenodd"/>
<path transform="matrix(.23999998,0,0,-.23999998,177.0845,629.8368)" d="M0 0C25.61 17.06 41.47 64.57 53.92 118.26 68.43 148.68 84.28 162.64 100.5 171.99 112.98 178.57 122.32 181.92 109.67 162.8 101.26 150.87 103.38 148.05 116.03 154.32 126.2 159.65 129.26 155.87 125.2 143.01 118.39 123.29 124.08 126.56 131.56 133.11 137.2 138.06 142.85 143.01 148.5 147.96 168.34 162.24 171.39 157.77 157.67 134.53 155.08 130.05 152.5 125.57 149.91 121.1 141.19 106.25 147.97 107.89 156.97 111.9 167.03 121.2 177.38 127.09 188.03 129.58 216.42 135.51 209.75 108.31 200.03 112.61 178.74 110.17 187.07 107.13 193.67 104.13 202.39 101.1 204.87 97.54 193.67 92.82 183.42 88.34 183.42 83.86 193.67 79.39 207.81 75.05 205.37 61.7 190.85 61.71 172.72 59.93 163.84 56.73 175.32 50.4 180.07 46.52 182.61 43.07 169.67 42.63 136.14 39.71 103.1 30.19 70.15 19.3 49.86 13.43 51.13-3.87 76.51-1.91 109.91 5.32 141.26 14.23 166.14 33.44 177.05 33.74 180.67 29.95 168.26 17.17 180.1 9.57 175.16 5.09 153.44 3.75 131.85-.46 135.44-12.22 159.09-10.39 189.59-7.39 207.47-35.53 191.55-37.25 171.19-39.39 162.15-43.14 169.67-49.27 180.16-57.58 167.67-66.64 150.62-64.12 103-53.53 112.38-60.76 117.44-68.36 125.12-85.66 118.96-88.1 103.33-80.38 76.64-69.39 56.38-51.98 40.51-30.18 28.51-17.42 10.15-10.57-1.85-13.75-1.09-7.22-.75-6.68 0 0" fill="#a6ce38" fill-rule="evenodd"/>
<path transform="matrix(.24004078,0,0,-.23995705,177.08458,629.8368)" stroke-width="2.08299" stroke-linecap="butt" stroke-miterlimit="2.613" stroke-linejoin="miter" fill="none" stroke="#231f20" d="M0 0C25.6 17.06 41.46 64.58 53.91 118.29 68.42 148.71 84.26 162.66 100.49 172.02 112.96 178.6 122.3 181.95 109.66 162.83 101.25 150.9 103.36 148.07 116.01 154.35 126.18 159.68 129.23 155.9 125.18 143.04 118.37 123.31 124.06 126.58 131.53 133.14 137.18 138.09 142.82 143.03 148.47 147.98 168.31 162.27 171.36 157.8 157.64 134.55 155.05 130.07 152.47 125.6 149.88 121.12 141.17 106.27 147.95 107.91 156.94 111.92 167 121.22 177.35 127.12 187.99 129.6 216.37 135.53 209.7 108.33 199.98 112.63 178.71 110.19 187.04 107.15 193.63 104.15 202.35 101.12 204.83 97.56 193.63 92.83 183.39 88.35 183.39 83.88 193.63 79.4 207.76 75.07 205.33 61.71 190.81 61.73 172.69 59.94 163.81 56.74 175.28 50.41 180.04 46.53 182.58 43.08 169.64 42.64 136.12 39.71 103.08 30.19 70.14 19.3 49.85 13.44 51.12-3.87 76.49-1.91 109.89 5.32 141.24 14.24 166.11 33.44 177.02 33.75 180.64 29.96 168.23 17.18 180.07 9.57 175.13 5.09 153.41 3.75 131.82-.46 135.41-12.22 159.06-10.39 189.55-7.39 207.42-35.54 191.51-37.26 171.16-39.4 162.12-43.15 169.64-49.28 180.13-57.59 167.64-66.65 150.59-64.13 102.98-53.54 112.36-60.77 117.42-68.37 125.1-85.68 118.94-88.11 103.31-80.39 76.63-69.4 56.37-51.99 40.5-30.19 28.5-17.42 10.15-10.57-1.85-13.75-1.09-7.22-.75-6.68 0 0Z"/>
<path transform="matrix(.23999998,0,0,-.23999998,171.77066,669.46487)" d="M0 0C3.87-4.75 8.32-10.05 13.34-15.52 8.41 23.92 15.98 235.32 55.09 264.52 76.71 283.89 104.16 286.1 121.53 297.79 147.81 311.31 164.67 324.95 146.44 323.38 133.53 321.16 131.94 321.66 140.69 329.78 153.78 338.39 150.46 339.07 140.69 342.58 127.39 348.52 132.71 359.27 143.25 371.37 155.66 380.54 154.8 386.29 140.69 388.64 145.36 418.41 140.68 419.61 131.75 407.83 124.49 402.27 125.61 410.47 127.92 420.63 125.15 461.04 121.69 462.7 110.67 430.23 105.3 415.53 100.57 411.49 97.26 430.87 94.69 451.38 91.55 443.17 88.31 430.87 86.39 424.89 84.48 418.92 82.56 412.95 74.86 399.25 63.68 403.86 70.43 420.63 75.53 434.07 80.64 447.5 85.76 460.94 93.36 492.84 86.46 491.49 72.98 475.02 64.68 462.44 56.37 449.85 48.07 437.27 33.57 413.12 34.59 426.06 37.85 444.3 39.76 453.48 41.68 462.65 43.6 471.82 51.08 524.58 35.86 511.54 17.41 489.1 10.85 477.86 9.4 480.24 .8 491.65-11.96 514.89-14.51 508.48-6.87 472.46-3.73 456.19-9.01 452.1-23.48 472.46-43.63 498.9-49.34 494.82-42.64 476.3-35.46 457.08-37.8 448.76-49.66 451.34-66.21 454.73-67.78 450.84-63.08 428.95-61.43 416.21-66.59 412.42-86.71 428.31-112.86 446.57-118.18 443.45-102.68 417.43-88.95 395.32-88.91 394.75-104.6 397.6-120.92 399.87-121.66 398.46-109.07 386.73-102.24 378.78-101.21 374.34-115.46 379.05-141.34 384.95-141.04 377.74-119.93 360.49-108 351.96-96.08 343.43-84.16 334.9-71.03 325.69-75.93 322.28-98.85 324.66-124.11 328.82-120.84 320.34-104.6 306.11-95.85 300.13-99.05 296.55-103.96 293.31-122.31 286.75-118.9 281.2-93.74 276.68-113.43 265.03-47.81 263.91-19 253.64 3.18 241.48 13.55 211.72 12.11 164.4 12.07 162.87 .07 1.56 0 0" fill="#a6ce38" fill-rule="evenodd"/>
<path transform="matrix(.24004078,0,0,-.23995705,171.77074,669.46499)" stroke-width="2.08299" stroke-linecap="butt" stroke-miterlimit="2.613" stroke-linejoin="miter" fill="none" stroke="#231f20" d="M0 0C3.87-4.75 8.32-10.05 13.34-15.52 8.41 23.92 15.97 235.36 55.08 264.57 76.7 283.94 104.14 286.15 121.51 297.85 147.79 311.36 164.64 325.01 146.42 323.44 133.51 321.22 131.91 321.72 140.67 329.84 153.76 338.45 150.44 339.13 140.67 342.64 127.36 348.59 132.69 359.33 143.22 371.43 155.63 380.61 154.78 386.36 140.67 388.71 145.33 418.48 140.65 419.69 131.73 407.91 124.47 402.34 125.58 410.54 127.9 420.71 125.13 461.12 121.67 462.78 110.65 430.3 105.28 415.61 100.55 411.57 97.24 430.94 94.68 451.46 91.53 443.25 88.29 430.94 86.38 424.97 84.46 419 82.55 413.03 74.85 399.33 63.66 403.93 70.42 420.71 75.52 434.14 80.63 447.58 85.74 461.02 93.34 492.93 86.45 491.57 72.97 475.1 64.66 462.52 56.36 449.93 48.06 437.34 33.56 413.19 34.58 426.13 37.84 444.39 39.75 453.56 41.67 462.73 43.59 471.9 51.07 524.68 35.86 511.63 17.41 489.18 10.85 477.94 9.4 480.33 .8 491.74-11.95 514.98-14.51 508.57-6.86 472.54-3.73 456.27-9.01 452.18-23.47 472.54-43.62 498.99-49.33 494.9-42.63 476.38-35.45 457.16-37.79 448.84-49.65 451.42-66.19 454.81-67.77 450.92-63.07 429.03-61.42 416.29-66.57 412.5-86.7 428.38-112.84 446.64-118.16 443.53-102.66 417.51-88.94 395.39-88.89 394.82-104.58 397.67-120.9 399.94-121.64 398.54-109.05 386.8-102.22 378.85-101.19 374.41-115.44 379.11-141.31 385.02-141.02 377.81-119.91 360.56-107.98 352.02-96.06 343.49-84.14 334.96-71.02 325.75-75.91 322.34-98.83 324.72-124.08 328.88-120.81 320.4-104.58 306.16-95.83 300.19-99.04 296.6-103.94 293.36-122.29 286.8-118.88 281.25-93.72 276.73-113.41 265.08-47.8 263.96-19 253.69 3.18 241.52 13.54 211.76 12.11 164.43 12.06 162.9 .07 1.56 0 0Z"/>
<path transform="matrix(.23999998,0,0,-.23999998,174.49228,632.6671)" d="M0 0C-9.84 3.39-19.1 1.89-24.49-5.84-46.16-31.64-70.02-51.72-95.38-67.89-117.71-78.23-121.16-73.73-105.73-54.41-95.21-37.25-103.03-36.42-119.18-43-127.82-54.54-139.54-54-156.44-53.89-178.36-52.76-187.09-48.61-166.79-37.83-143.34-23.33-161.85-24.12-193.7-16.06-226.64-5.34-221.4 12.14-192.15 8.3-168.43 5.2-159.16 7.57-177.66 21.26-184 24.58-188.11 27.71-176.62 29.55-165.1 32.21-165.78 36.36-178.7 41.99-187.24 43.05-196.89 46.33-207.67 51.84-233.89 62.26-227.01 68.6-205.09 73.09-181.84 78.66-178.21 83.5-194.22 87.6-199.74 89.16-205.26 90.71-210.78 92.26-224.59 92.71-225.46 96.86-213.36 104.71-205.26 112.05-212.12 114.19-221.12 115.59-236.76 120.43-235.31 136.38-215.95 130.1-205.26 126.3-194.56 122.5-183.87 118.7-170.67 114.82-164.19 115.81-172.48 127.51-175.76 132.17-179.04 136.84-182.32 141.5-190.79 155.82-186.3 157.89-168.86 147.72-156.44 139.43-144.02 131.14-131.61 122.85-118.69 111.24-111.79 110.76-118.15 134.76-135.67 146.91-136.53 155.72-120.74 161.2-113.01 159.59-107.51 159.83-117.63 173.12-124.18 185.01-120.73 187.25-107.28 179.86-102.28 170.64-97.28 164.5-92.28 179.86-87.53 203.02-77.2 218.28-74.68 187.63-59.31 165.49-42.44 149.2-46.74 103.67-43.44 75.78-36.2 46.38-15.82 25.89-8.25 20.46-5.17 20.5 .87 15.15 .87 9.94 .36 5.28 0 0" fill="#a6ce38" fill-rule="evenodd"/>
<path transform="matrix(.24004078,0,0,-.23995705,174.49234,632.66708)" stroke-width="2.08299" stroke-linecap="butt" stroke-miterlimit="2.613" stroke-linejoin="miter" fill="none" stroke="#231f20" d="M0 0C-9.83 3.39-19.09 1.89-24.49-5.84-46.15-31.65-70-51.73-95.36-67.9-117.69-78.24-121.14-73.75-105.71-54.42-95.19-37.26-103.01-36.43-119.16-43.01-127.79-54.55-139.51-54.01-156.41-53.9-178.33-52.77-187.05-48.61-166.76-37.83-143.32-23.34-161.82-24.13-193.67-16.06-226.6-5.34-221.36 12.15-192.11 8.3-168.4 5.2-159.13 7.57-177.63 21.26-183.97 24.58-188.07 27.72-176.59 29.56-165.07 32.22-165.75 36.36-178.66 42-187.2 43.05-196.86 46.34-207.63 51.84-233.85 62.27-226.97 68.61-205.05 73.1-181.81 78.68-178.18 83.51-194.18 87.62-199.7 89.17-205.22 90.73-210.74 92.28-224.55 92.72-225.42 96.87-213.32 104.72-205.22 112.07-212.09 114.21-221.08 115.61-236.71 120.45-235.27 136.41-215.91 130.12-205.22 126.32-194.53 122.52-183.83 118.72-170.64 114.84-164.16 115.83-172.45 127.53-175.73 132.19-179.01 136.86-182.28 141.52-190.75 155.84-186.27 157.92-168.83 147.75-156.41 139.45-144 131.16-131.58 122.87-118.67 111.26-111.77 110.78-118.13 134.79-135.65 146.94-136.51 155.75-120.72 161.23-112.99 159.61-107.49 159.86-117.61 173.15-124.15 185.04-120.7 187.28-107.26 179.89-102.26 170.67-97.26 164.53-92.26 179.89-87.52 203.05-77.18 218.32-74.67 187.66-59.3 165.52-42.43 149.23-46.73 103.69-43.43 75.8-36.2 46.39-15.81 25.89-8.25 20.47-5.17 20.51 .87 15.15 .87 9.94 .36 5.28 0 0Z"/>
<path transform="matrix(.23999998,0,0,-.23999998,174.2645,629.0129)" d="M0 0C.24-.21 .43-.35 .69-.6 1.83-1.19 2.67-1.32 2.93 .08 3.39 .07 3.84 .05 4.29 .03 6.44-.79 8.59-1.61 10.73-2.43 10.68-3.69 11.12-4.45 12.82-4.07 13.45-3.62 14.13-3.13 14.76-2.68 13.85-6.98 12.14-11.42 11.23-15.72 10.55-15.82 9.89-15.9 8.89-16.17 6.63-15.8 4.36-15.23 2.09-14.86 1.5-14.31 .76-13.98-.08-13.71-.32-13.65-.54-13.57-.78-13.51-.52-8.99-.26-4.52 0 0" fill="#a6ce38" fill-rule="evenodd"/>
<path transform="matrix(.24004078,0,0,-.23995705,174.26454,629.01278)" stroke-width=".001" stroke-linecap="butt" stroke-miterlimit="2.613" stroke-linejoin="miter" fill="none" stroke="#a6ce38" d="M0 0C.24-.21 .43-.35 .69-.6 1.83-1.2 2.68-1.32 2.93 .08 3.39 .07 3.84 .05 4.29 .03 6.44-.79 8.58-1.61 10.73-2.43 10.68-3.69 11.11-4.45 12.82-4.07 13.45-3.62 14.13-3.13 14.75-2.68 13.85-6.98 12.14-11.42 11.23-15.72 10.55-15.83 9.88-15.9 8.89-16.17 6.63-15.81 4.36-15.23 2.09-14.86 1.5-14.31 .76-13.98-.08-13.72-.32-13.65-.54-13.57-.78-13.52-.52-8.99-.26-4.52 0 0Z"/>
<path transform="matrix(.23999998,0,0,-.23999998,323.26554,493.48323)" d="M0 0C14.69 12.62 23.79 47.77 30.92 87.49 39.25 109.99 48.34 120.32 57.64 127.24 64.8 132.1 70.16 134.58 62.9 120.44 58.08 111.61 59.29 109.52 66.55 114.16 72.38 118.11 74.13 115.32 71.81 105.8 67.9 91.21 71.17 93.63 75.45 98.47 78.69 102.14 81.93 105.79 85.17 109.46 96.55 120.03 98.3 116.72 90.44 99.52 88.95 96.21 87.46 92.89 85.98 89.58 80.98 78.6 84.87 79.82 90.03 82.79 95.8 89.66 101.74 94.02 107.84 95.86 124.13 100.25 120.3 80.13 114.72 83.31 102.52 81.51 107.3 79.25 111.08 77.03 116.08 74.79 117.51 72.16 111.08 68.66 105.2 65.35 105.2 62.04 111.08 58.73 119.19 55.52 117.79 45.64 109.46 45.65 99.06 44.34 93.97 41.96 100.55 37.29 103.28 34.41 104.74 31.86 97.31 31.53 78.09 29.37 59.13 22.33 40.24 14.27 28.6 9.93 29.32-2.87 43.88-1.42 63.04 3.94 81.02 10.53 95.29 24.73 101.55 24.96 103.63 22.16 96.51 12.7 103.29 7.07 100.46 3.76 88.01 2.77 75.62-.35 77.68-9.04 91.24-7.69 108.74-5.47 118.99-26.29 109.86-27.57 98.19-29.14 93-31.92 97.31-36.46 103.33-42.6 96.17-49.31 86.38-47.44 59.08-39.61 64.45-44.96 67.36-50.58 71.76-63.37 68.23-65.18 59.26-59.47 43.96-51.34 32.33-38.46 23.23-22.34 16.35-12.89 5.82-7.82-1.06-10.18-.63-5.35-.43-4.94 0 0" fill="#a6ce38" fill-rule="evenodd"/>
<path transform="matrix(.24004078,0,0,-.23995705,323.2646,493.48338)" stroke-width="2.08299" stroke-linecap="butt" stroke-miterlimit="2.613" stroke-linejoin="miter" fill="none" stroke="#231f20" d="M0 0C14.69 12.62 23.79 47.78 30.92 87.5 39.25 110.01 48.33 120.34 57.64 127.26 64.8 132.13 70.15 134.61 62.9 120.46 58.07 111.63 59.29 109.54 66.54 114.19 72.37 118.13 74.13 115.34 71.8 105.82 67.9 91.22 71.16 93.64 75.45 98.49 78.68 102.16 81.92 105.81 85.16 109.48 96.54 120.05 98.29 116.74 90.42 99.54 88.94 96.23 87.45 92.91 85.97 89.6 80.97 78.61 84.86 79.83 90.02 82.8 95.79 89.68 101.73 94.04 107.83 95.88 124.11 100.27 120.28 80.14 114.71 83.32 102.5 81.52 107.28 79.27 111.07 77.05 116.06 74.8 117.49 72.17 111.07 68.68 105.19 65.36 105.19 62.05 111.07 58.74 119.17 55.53 117.77 45.65 109.44 45.66 99.05 44.34 93.96 41.97 100.54 37.29 103.27 34.42 104.73 31.87 97.3 31.54 78.08 29.38 59.13 22.33 40.23 14.28 28.6 9.94 29.32-2.87 43.88-1.42 63.03 3.94 81.01 10.53 95.28 24.74 101.54 24.96 103.61 22.16 96.49 12.71 103.28 7.08 100.45 3.76 88 2.77 75.61-.35 77.67-9.04 91.23-7.69 108.73-5.47 118.97-26.29 109.85-27.57 98.17-29.15 92.99-31.93 97.3-36.46 103.32-42.61 96.15-49.32 86.37-47.45 59.07-39.62 64.45-44.96 67.35-50.59 71.76-63.39 68.22-65.19 59.26-59.48 43.96-51.34 32.33-38.46 23.23-22.34 16.35-12.89 5.82-7.82-1.06-10.18-.62-5.35-.43-4.94 0 0Z"/>
<path transform="matrix(.23999998,0,0,-.23999998,320.21754,522.80166)" d="M0 0C2.22-3.52 4.77-7.43 7.65-11.48 4.82 17.7 9.16 174.09 31.6 195.7 44 210.02 59.74 211.66 69.71 220.31 84.78 230.31 94.44 240.4 83.99 239.25 76.59 237.6 75.67 237.97 80.69 243.98 88.2 250.34 86.3 250.85 80.69 253.44 73.06 257.84 76.12 265.79 82.16 274.74 89.28 281.52 88.79 285.78 80.69 287.52 83.37 309.54 80.69 310.43 75.56 301.72 71.4 297.61 72.04 303.67 73.37 311.19 71.78 341.08 69.8 342.31 63.47 318.29 60.39 307.42 57.68 304.43 55.78 318.76 54.31 333.94 52.51 327.87 50.65 318.76 49.55 314.34 48.45 309.92 47.35 305.51 42.94 295.37 36.52 298.78 40.39 311.19 43.32 321.13 46.25 331.07 49.19 341.01 53.55 364.61 49.59 363.61 41.86 351.42 37.1 342.11 32.33 332.8 27.57 323.49 19.25 305.63 19.84 315.2 21.71 328.7 22.81 335.48 23.9 342.27 25.01 349.05 29.3 388.09 20.57 378.44 9.98 361.84 6.22 353.52 5.39 355.29 .46 363.73-6.86 380.91-8.32 376.18-3.94 349.53-2.14 337.5-5.17 334.47-13.47 349.53-25.03 369.09-28.3 366.07-24.45 352.37-20.34 338.15-21.68 332-28.49 333.91-37.97 336.41-38.88 333.54-36.18 317.34-35.24 307.92-38.19 305.12-49.74 316.87-64.73 330.37-67.79 328.07-58.9 308.82-51.02 292.46-50.99 292.04-59.99 294.15-69.35 295.83-69.78 294.79-62.56 286.1-58.64 280.23-58.05 276.94-66.22 280.42-81.07 284.79-80.9 279.46-68.79 266.7-61.95 260.39-55.11 254.07-48.27 247.76-40.74 240.95-43.55 238.43-56.7 240.19-71.18 243.27-69.31 236.99-59.99 226.46-54.98 222.04-56.81 219.39-59.63 217-70.15 212.14-68.2 208.04-53.77 204.69-65.06 196.07-27.42 195.24-10.9 187.65 1.82 178.65 7.77 156.64 6.95 121.63 6.92 120.5 .04 1.16 0 0" fill="#a6ce38" fill-rule="evenodd"/>
<path transform="matrix(.24004078,0,0,-.23995705,320.21839,522.80136)" stroke-width="2.08299" stroke-linecap="butt" stroke-miterlimit="2.613" stroke-linejoin="miter" fill="none" stroke="#231f20" d="M0 0C2.22-3.52 4.77-7.44 7.65-11.48 4.82 17.7 9.16 174.12 31.59 195.73 43.99 210.06 59.73 211.69 69.69 220.35 84.76 230.35 94.42 240.44 83.98 239.29 76.57 237.64 75.66 238.01 80.68 244.02 88.18 250.39 86.28 250.9 80.68 253.49 73.05 257.88 76.1 265.84 82.14 274.79 89.26 281.57 88.77 285.83 80.68 287.57 83.36 309.6 80.67 310.49 75.55 301.78 71.39 297.66 72.03 303.72 73.35 311.24 71.76 341.14 69.78 342.37 63.46 318.34 60.38 307.47 57.67 304.48 55.77 318.82 54.3 334 52.49 327.92 50.64 318.82 49.54 314.4 48.44 309.98 47.34 305.56 42.93 295.42 36.51 298.83 40.38 311.24 43.31 321.18 46.24 331.12 49.17 341.07 53.53 364.67 49.58 363.67 41.85 351.48 37.09 342.17 32.32 332.86 27.56 323.55 19.25 305.68 19.83 315.26 21.7 328.76 22.8 335.54 23.9 342.33 25 349.12 29.29 388.16 20.56 378.51 9.98 361.9 6.22 353.58 5.39 355.35 .46 363.79-6.86 380.98-8.32 376.25-3.94 349.59-2.14 337.56-5.17 334.53-13.47 349.59-25.02 369.16-28.3 366.13-24.45 352.43-20.34 338.21-21.68 332.05-28.48 333.96-37.97 336.47-38.88 333.59-36.17 317.4-35.23 307.98-38.19 305.17-49.73 316.92-64.72 330.43-67.78 328.12-58.89 308.87-51.01 292.51-50.99 292.09-59.99 294.2-69.34 295.88-69.77 294.84-62.55 286.15-58.63 280.28-58.04 276.99-66.21 280.47-81.06 284.84-80.88 279.51-68.78 266.74-61.94 260.43-55.1 254.12-48.26 247.81-40.73 241-43.54 238.47-56.69 240.23-71.17 243.31-69.3 237.03-59.99 226.5-54.97 222.08-56.81 219.43-59.62 217.04-70.14 212.18-68.19 208.07-53.76 204.73-65.05 196.1-27.42 195.28-10.9 187.68 1.82 178.68 7.76 156.66 6.94 121.65 6.92 120.52 .04 1.16 0 0Z"/>
<path transform="matrix(.23999998,0,0,-.23999998,321.7775,495.5784)" d="M0 0C-5.64 2.5-10.95 1.4-14.04-4.32-26.47-23.41-40.15-38.26-54.7-50.22-67.51-57.87-69.49-54.55-60.64-40.25-54.6-27.56-59.09-26.95-68.36-31.82-73.31-40.35-80.03-39.95-89.72-39.87-102.3-39.03-107.3-35.96-95.66-27.98-82.21-17.26-92.83-17.85-111.1-11.88-129.99-3.95-126.98 8.98-110.2 6.14-96.6 3.85-91.28 5.61-101.9 15.73-105.53 18.18-107.89 20.5-101.3 21.86-94.69 23.84-95.08 26.9-102.49 31.07-107.39 31.85-112.93 34.27-119.11 38.35-134.15 46.06-130.2 50.75-117.63 54.07-104.29 58.2-102.22 61.77-111.39 64.81-114.56 65.96-117.72 67.11-120.89 68.26-128.81 68.59-129.31 71.65-122.37 77.46-117.72 82.9-121.66 84.48-126.83 85.52-135.79 89.1-134.96 100.9-123.86 96.25-117.72 93.44-111.59 90.63-105.45 87.82-97.88 84.95-94.17 85.68-98.93 94.34-100.81 97.78-102.69 101.23-104.56 104.69-109.42 115.28-106.85 116.81-96.85 109.29-89.72 103.15-82.6 97.02-75.48 90.88-68.07 82.3-64.12 81.95-67.76 99.7-77.81 108.69-78.31 115.21-69.25 119.26-64.81 118.07-61.66 118.25-67.47 128.08-71.22 136.87-69.24 138.53-61.53 133.06-58.66 126.25-55.79 121.7-52.92 133.06-50.2 150.2-44.27 161.49-42.83 138.81-34.02 122.43-24.34 110.38-26.8 76.7-24.91 56.07-20.76 34.31-9.07 19.16-4.73 15.14-2.96 15.17 .5 11.21 .5 7.35 .21 3.91 0 0" fill="#a6ce38" fill-rule="evenodd"/>
<path transform="matrix(.24004078,0,0,-.23995705,321.77867,495.57823)" stroke-width="2.08299" stroke-linecap="butt" stroke-miterlimit="2.613" stroke-linejoin="miter" fill="none" stroke="#231f20" d="M0 0C-5.64 2.5-10.95 1.4-14.05-4.32-26.47-23.42-40.15-38.27-54.7-50.23-67.5-57.88-69.48-54.56-60.63-40.26-54.6-27.56-59.08-26.95-68.35-31.82-73.3-40.36-80.02-39.95-89.71-39.88-102.28-39.04-107.29-35.96-95.65-27.99-82.2-17.26-92.82-17.85-111.08-11.88-129.97-3.95-126.96 8.98-110.19 6.14-96.59 3.85-91.27 5.61-101.88 15.73-105.52 18.19-107.87 20.51-101.28 21.87-94.68 23.84-95.07 26.91-102.47 31.07-107.37 31.85-112.91 34.28-119.09 38.36-134.13 46.07-130.18 50.76-117.61 54.08-104.28 58.21-102.2 61.78-111.38 64.82-114.54 65.97-117.71 67.12-120.87 68.27-128.79 68.6-129.29 71.66-122.35 77.48-117.71 82.91-121.64 84.49-126.81 85.53-135.77 89.11-134.94 100.92-123.84 96.27-117.71 93.45-111.57 90.64-105.44 87.83-97.87 84.96-94.16 85.69-98.91 94.35-100.79 97.8-102.67 101.25-104.55 104.71-109.41 115.3-106.84 116.83-96.84 109.31-89.71 103.17-82.59 97.04-75.47 90.9-68.06 82.31-64.11 81.96-67.75 99.72-77.8 108.71-78.3 115.23-69.24 119.28-64.81 118.09-61.65 118.27-67.46 128.1-71.21 136.89-69.23 138.55-61.52 133.09-58.65 126.27-55.78 121.72-52.92 133.09-50.2 150.23-44.27 161.52-42.83 138.84-34.01 122.45-24.34 110.4-26.8 76.71-24.91 56.08-20.76 34.31-9.07 19.16-4.73 15.14-2.96 15.17 .5 11.21 .5 7.35 .21 3.91 0 0Z"/>
<path transform="matrix(.23999998,0,0,-.23999998,321.52549,492.9288)" d="M0 0C.14-.16 .15-.13 .3-.31 .77-.95 2.65-.83 2.79 .21 3.06 .2 2.71 .26 2.97 .25 4.2-.36 4.89-.7 6.12-1.31 6.06-3.42 7.47-3.34 8.46-2.91 8.47-6.09 8.11-7.65 7.59-10.83 7.15-10.71 5.56-11.1 5.06-11.58 3.75-11.31 3.61-11.17 2.3-10.9 1.85-10.16 .59-9.32-.13-9.29 .02-5.94-.15-3.35 0 0" fill="#a6ce38" fill-rule="evenodd"/>
<path transform="matrix(.24004078,0,0,-.23995705,321.52659,492.92909)" stroke-width=".001" stroke-linecap="butt" stroke-miterlimit="2.613" stroke-linejoin="miter" fill="none" stroke="#a6ce38" d="M0 0C.14-.16 .15-.13 .3-.31 .76-.95 2.64-.83 2.79 .21 3.05 .2 2.71 .26 2.97 .25 4.2-.36 4.89-.7 6.12-1.3 6.05-3.42 7.47-3.34 8.45-2.91 8.47-6.09 8.1-7.65 7.58-10.83 7.15-10.71 5.56-11.1 5.05-11.58 3.75-11.31 3.6-11.17 2.3-10.9 1.84-10.16 .59-9.32-.13-9.29 .01-5.94-.15-3.35 0 0Z"/>
<path transform="matrix(.23999998,0,0,-.23999998,392.80067,619.53)" d="M0 0C18.15 9.81 35.69 17.32 52.73 22.92 66.63 29.53 80.24 36.49 92.46 45.07 122.6 61.21 131.84 88.07 125.32 122.99 117.85 144.34 116.12 168.55 115.39 193.27 117.68 170.68 120.57 148.35 130.67 129.1 131.18 119.43 131.69 109.75 132.2 100.07 133.36 89.73 135.91 90.75 139.84 103.13 143.41 121.97 146.97 140.82 150.54 159.66 153.77 178.83 160.23 192.02 167.35 203.96 162.46 191.77 154.53 176.94 155.21 161.96 166.47 183.07 183.96 197.32 200.21 200.15 164.44 181.87 149.99 150.1 147.49 110.77 143.51 89.26 141.55 81.81 153.87 95.5 164.57 104.92 174.23 116.63 184.93 126.05 190.03 134.96 197.62 146.16 202.71 155.07 203.92 175.5 206.45 189.84 213.21 204.73 209.9 188.85 205.19 171.57 206.89 154.03 221.66 169.04 238.93 180.13 253.71 187.93 231.78 173.92 213.75 152.46 197.92 126.81 191.64 112.62 274.66 127.67 279.69 152.78 277.88 136.18 266.34 121.4 207.86 115.36 201.12 115.61 194.58 115.1 189.51 109.24 170.15 101.17 150.79 80.53 131.44 59.59 122.2 48.5 123.22 45.44 134.49 50.42 158.15 56.68 182.32 69.47 207.09 90.14 214.65 107.87 224.63 120.57 239.95 122.23 230.01 120.23 222.29 112.69 216.78 99.61 216.03 94 216.31 89.28 223.9 90.91 263.86 99.69 282.4 103.65 295.74 170.35 293.9 142.76 288.09 118.11 271.28 101.6 266.95 97.78 262.62 93.96 258.29 90.14 236.62 83.91 215.92 76.09 198.69 62.64 190.43 56.38 194.83 55.04 200.21 53.48 239.04 44.98 269.75 43.36 261.35 74.87 270.51 55.93 264.94 42.87 226.96 42.78 216.97 43.47 213.92 41.94 217.79 38.2 219.26 32.93 222.95 31.35 226.2 29.03 218.19 29.04 211.56 32.09 206.33 38.2 193.98 42.1 182.62 41.08 171.94 36.67 140.58 27.09 108.88 18.89 76.42 13.75 66.19 11.21 64.36 8.66 81 6.11 94.53 1.21 108.06-3.69 121.59-8.59 143.68-16.87 166.06-23.1 189.26-23.62 198.76-24.28 207.24-20.66 214.52-11.9 230.71 5.23 246.31 23.16 260.84 42.52 250.38 24.31 237.94 7.75 224.15-7.69 218.05-12.92 218.05-14.82 224.15-13.4 259.92-2.53 295.39 11.37 330.61 27.79 292.46 6.75 252.09-9.14 210.62-22.42 210.62-23.73 210.62-25.03 210.62-26.33 236.88-25.1 261.65-28.4 284.6-37.15 259.36-30.65 235.13-28.17 212.12-30.54 206.1-29.41 209.69-31.88 212.72-34.15 232.31-41.14 254.72-47.68 271.54-53.02 249.89-48.31 223.24-41.18 201.59-32.04 193.49-27.24 186.6-27.84 179.63-28.13 159.41-24.79 139.75-19.63 120.09-14.6 108.74-13.73 111.03-16.74 115.28-20.32 155.35-68.89 204.98-78.97 261.14-62.71 247.04-69.97 225.96-73.63 194.67-72.03 188.19-71.84 188.1-73.05 194.37-75.64 236.31-105.32 277.45-118.3 318.28-125.24 261.96-121.34 215.12-102.58 175.42-72.63 166.87-68.19 164.96-69.29 169.71-75.94 189.28-106.07 211.92-131.42 236.48-153.8 212.82-136.39 188.76-112.19 164-75.94 153.43-62.07 141.21-54.81 129.41-45.87 122.21-40.98 120.01-42.18 122.79-49.48 126.46-68.55 133.08-84 141.74-96.98 149.44-102.91 158.32-107.66 161.29-118.33 171.71-136.37 188.32-152.64 222.04-164.02 198.15-164.46 169.17-138.44 145.65-108.71 140.92-104.44 139.51-105.44 141.44-111.71 146.35-124.64 151.26-137.57 156.18-150.5 150.51-139.89 146.95-139.24 135.13-99.69 134.46-93.52 132.28-89.25 129.41-85.86 123.17-76.46 124.32-84.06 124-88.26 123.59-101.91 126.62-114.8 131.21-127.35 126.15-120.98 122.12-109.06 120.39-84.96 120.85-77.44 119.64-69.92 116.78-62.41 106.07-31.47 87.32-12.73 60.54-6.19 42.91 .03 28.21-1.05 13.92-3.18 5.5-3.34 1.15-8.39-1.72-15.21-1.15-10.14-.58-5.07 0 0" fill="#6fb445" fill-rule="evenodd"/>
<path transform="matrix(.24004078,0,0,-.23995705,392.8002,619.5299)" stroke-width="1.24899" stroke-linecap="butt" stroke-miterlimit="2.613" stroke-linejoin="miter" fill="none" stroke="#231f20" d="M0 0C18.15 9.81 35.69 17.32 52.72 22.92 66.62 29.54 80.23 36.49 92.45 45.08 122.59 61.23 131.82 88.09 125.3 123.01 117.84 144.36 116.1 168.58 115.37 193.31 117.66 170.71 120.55 148.37 130.65 129.13 131.16 119.45 131.67 109.77 132.18 100.09 133.34 89.75 135.89 90.77 139.82 103.15 143.39 121.99 146.95 140.84 150.52 159.69 153.75 178.86 160.2 192.05 167.33 204 162.44 191.8 154.51 176.97 155.18 161.99 166.44 183.1 183.93 197.36 200.18 200.18 164.42 181.9 149.96 150.13 147.46 110.79 143.49 89.27 141.53 81.83 153.85 95.51 164.55 104.94 174.2 116.65 184.9 126.07 190 134.98 197.58 146.19 202.68 155.1 203.89 175.53 206.41 189.87 213.17 204.77 209.87 188.89 205.16 171.6 206.86 154.06 221.63 169.07 238.89 180.16 253.66 187.96 231.74 173.95 213.72 152.48 197.89 126.83 191.61 112.64 274.62 127.69 279.64 152.81 277.84 136.21 266.29 121.42 207.82 115.38 201.08 115.63 194.55 115.12 189.48 109.26 170.13 101.19 150.77 80.55 131.42 59.6 122.18 48.5 123.2 45.45 134.47 50.43 158.13 56.69 182.29 69.48 207.06 90.16 214.61 107.89 224.59 120.6 239.91 122.25 229.98 120.25 222.25 112.71 216.75 99.63 215.99 94.01 216.28 89.3 223.87 90.93 263.82 99.7 282.35 103.67 295.69 170.39 293.86 142.78 288.04 118.13 271.24 101.62 266.91 97.8 262.58 93.98 258.25 90.16 236.58 83.92 215.88 76.1 198.65 62.65 190.4 56.39 194.8 55.05 200.18 53.49 239 44.99 269.71 43.37 261.31 74.88 270.47 55.94 264.9 42.88 226.92 42.79 216.94 43.48 213.88 41.95 217.76 38.21 219.22 32.93 222.91 31.35 226.16 29.04 218.15 29.04 211.53 32.1 206.29 38.21 193.95 42.11 182.59 41.08 171.91 36.68 140.56 27.09 108.87 18.9 76.41 13.76 66.18 11.21 64.35 8.66 80.99 6.11 94.52 1.21 108.04-3.69 121.57-8.59 143.66-16.88 166.03-23.11 189.23-23.63 198.72-24.28 207.21-20.67 214.49-11.9 230.68 5.23 246.27 23.17 260.79 42.53 250.34 24.31 237.9 7.75 224.11-7.69 218.01-12.92 218.01-14.82 224.11-13.4 259.88-2.53 295.34 11.37 330.56 27.79 292.41 6.75 252.05-9.14 210.58-22.43 210.58-23.73 210.58-25.03 210.58-26.33 236.85-25.11 261.61-28.41 284.55-37.16 259.32-30.66 235.09-28.17 212.08-30.54 206.06-29.41 209.66-31.89 212.68-34.15 232.27-41.15 254.68-47.69 271.5-53.02 249.85-48.32 223.21-41.19 201.56-32.05 193.46-27.24 186.57-27.85 179.61-28.14 159.38-24.8 139.73-19.64 120.07-14.61 108.72-13.73 111.02-16.74 115.26-20.32 155.33-68.91 204.95-78.99 261.1-62.72 247-69.98 225.92-73.65 194.64-72.04 188.16-71.86 188.07-73.06 194.34-75.65 236.28-105.34 277.4-118.32 318.23-125.26 261.91-121.36 215.08-102.6 175.4-72.64 166.84-68.2 164.94-69.31 169.68-75.95 189.25-106.09 211.89-131.45 236.44-153.83 212.78-136.41 188.73-112.22 163.97-75.95 153.4-62.08 141.19-54.82 129.39-45.88 122.19-40.98 119.99-42.19 122.78-49.49 126.44-68.56 133.06-84.02 141.72-97 149.42-102.93 158.29-107.68 161.27-118.35 171.68-136.39 188.29-152.67 222-164.05 198.11-164.49 169.15-138.47 145.63-108.73 140.9-104.46 139.49-105.46 141.42-111.73 146.33-124.66 151.24-137.59 156.15-150.52 150.48-139.92 146.93-139.26 135.11-99.71 134.44-93.53 132.26-89.27 129.39-85.87 123.15-76.47 124.3-84.08 123.98-88.28 123.57-101.93 126.6-114.83 131.19-127.37 126.13-121 122.1-109.08 120.37-84.97 120.83-77.45 119.62-69.93 116.76-62.42 106.06-31.48 87.31-12.74 60.53-6.19 42.9 .03 28.2-1.05 13.92-3.18 5.5-3.34 1.16-8.39-1.72-15.21-1.14-10.14-.57-5.07 0 0Z"/>
<path transform="matrix(.23999998,0,0,-.23999998,391.25987,618.6423)" d="M0 0C-18.15 9.81-35.69 17.31-52.73 22.92-66.63 29.53-80.24 36.49-92.46 45.07-122.61 61.21-131.84 88.07-125.32 122.99-117.85 144.34-116.12 168.55-115.39 193.27-117.68 170.68-120.57 148.35-130.67 129.1-131.18 119.43-131.69 109.75-132.2 100.07-133.36 89.73-135.91 90.75-139.84 103.13-143.41 121.97-146.98 140.82-150.54 159.66-153.77 178.83-160.23 192.02-167.35 203.96-162.46 191.77-154.53 176.94-155.21 161.96-166.46 183.07-183.96 197.32-200.21 200.15-164.45 181.87-149.98 150.1-147.48 110.77-143.52 89.26-141.55 81.81-153.87 95.5-164.57 104.92-174.23 116.63-184.93 126.05-190.02 134.96-197.62 146.16-202.71 155.07-203.92 175.5-206.45 189.84-213.2 204.73-209.9 188.86-205.2 171.57-206.89 154.03-221.66 169.04-238.93 180.13-253.71 187.93-231.77 173.92-213.75 152.45-197.92 126.81-191.64 112.62-274.66 127.67-279.69 152.78-277.89 136.18-266.34 121.4-207.86 115.35-201.11 115.61-194.58 115.1-189.52 109.24-170.16 101.17-150.8 80.53-131.44 59.59-122.2 48.5-123.22 45.44-134.49 50.42-158.15 56.68-182.32 69.47-207.09 90.14-214.64 107.87-224.63 120.57-239.95 122.23-230.01 120.23-222.29 112.69-216.79 99.61-216.03 94-216.31 89.28-223.9 90.91-263.86 99.68-282.4 103.65-295.74 170.36-293.91 142.76-288.09 118.11-271.29 101.61-266.95 97.78-262.62 93.96-258.29 90.14-236.62 83.91-215.92 76.09-198.68 62.64-190.43 56.38-194.82 55.04-200.21 53.47-239.04 44.98-269.75 43.36-261.35 74.87-270.51 55.93-264.94 42.87-226.96 42.78-216.97 43.47-213.91 41.94-217.79 38.2-219.26 32.92-222.95 31.35-226.2 29.03-218.19 29.04-211.57 32.09-206.33 38.2-193.98 42.11-182.62 41.07-171.94 36.67-140.58 27.09-108.88 18.89-76.41 13.75-66.19 11.21-64.36 8.66-81 6.11-94.53 1.21-108.06-3.69-121.59-8.59-143.68-16.88-166.06-23.1-189.26-23.62-198.75-24.28-207.24-20.66-214.52-11.9-230.71 5.23-246.31 23.16-260.84 42.52-250.37 24.31-237.93 7.75-224.15-7.69-218.05-12.92-218.05-14.82-224.15-13.4-259.92-2.53-295.39 11.37-330.61 27.79-292.46 6.74-252.09-9.14-210.61-22.42-210.61-23.72-210.61-25.03-210.61-26.33-236.89-25.1-261.65-28.4-284.6-37.15-259.36-30.65-235.13-28.17-212.12-30.54-206.09-29.41-209.69-31.88-212.72-34.15-232.31-41.15-254.72-47.68-271.54-53.01-249.89-48.31-223.24-41.18-201.59-32.04-193.49-27.24-186.6-27.85-179.64-28.13-159.41-24.79-139.75-19.63-120.09-14.6-108.74-13.73-111.03-16.74-115.27-20.32-155.35-68.9-204.98-78.97-261.14-62.71-247.04-69.97-225.96-73.63-194.67-72.03-188.2-71.84-188.1-73.05-194.37-75.64-236.32-105.32-277.45-118.3-318.29-125.24-261.96-121.34-215.11-102.58-175.43-72.63-166.87-68.19-164.96-69.29-169.71-75.94-189.28-106.07-211.92-131.42-236.48-153.8-212.82-136.39-188.76-112.19-164-75.94-153.43-62.07-141.21-54.82-129.41-45.87-122.21-40.98-120.01-42.18-122.79-49.48-126.46-68.55-133.08-84-141.74-96.98-149.44-102.92-158.32-107.66-161.29-118.33-171.71-136.37-188.32-152.64-222.04-164.03-198.15-164.46-169.18-138.44-145.65-108.71-140.92-104.44-139.52-105.44-141.44-111.71-146.35-124.64-151.27-137.57-156.18-150.5-150.51-139.89-146.95-139.24-135.12-99.69-134.46-93.51-132.29-89.25-129.41-85.86-123.17-76.46-124.32-84.06-124-88.26-123.59-101.91-126.62-114.8-131.21-127.35-126.15-120.98-122.12-109.07-120.39-84.96-120.84-77.44-119.64-69.92-116.78-62.41-106.07-31.47-87.32-12.73-60.54-6.19-42.91 .03-28.21-1.05-13.92-3.18-5.5-3.34-1.15-8.39 1.72-15.21 1.14-10.14 .57-5.07 0 0" fill="#6fb445" fill-rule="evenodd"/>
<path transform="matrix(.24004078,0,0,-.23995705,391.2591,618.6421)" stroke-width="1.24899" stroke-linecap="butt" stroke-miterlimit="2.613" stroke-linejoin="miter" fill="none" stroke="#231f20" d="M0 0C-18.14 9.81-35.68 17.31-52.71 22.92-66.61 29.54-80.22 36.49-92.44 45.08-122.58 61.22-131.81 88.08-125.29 123.01-117.83 144.36-116.1 168.58-115.37 193.3-117.65 170.71-120.55 148.37-130.64 129.12-131.16 119.45-131.66 109.77-132.17 100.09-133.33 89.75-135.88 90.77-139.81 103.15-143.38 121.99-146.95 140.84-150.51 159.69-153.74 178.86-160.2 192.05-167.32 204-162.43 191.8-154.49 176.97-155.17 161.99-166.43 183.1-183.92 197.36-200.17 200.18-164.41 181.9-149.95 150.13-147.45 110.79-143.49 89.27-141.52 81.83-153.84 95.51-164.54 104.94-174.19 116.65-184.9 126.07-189.98 134.98-197.58 146.18-202.67 155.1-203.88 175.53-206.4 189.87-213.16 204.77-209.86 188.89-205.15 171.6-206.84 154.06-221.62 169.07-238.88 180.16-253.66 187.96-231.73 173.95-213.71 152.48-197.88 126.83-191.6 112.64-274.61 127.69-279.63 152.81-277.83 136.21-266.28 121.42-207.81 115.37-201.07 115.63-194.54 115.12-189.48 109.26-170.12 101.19-150.76 80.54-131.41 59.6-122.17 48.5-123.19 45.44-134.46 50.43-158.12 56.69-182.28 69.48-207.05 90.16-214.6 107.89-224.58 120.59-239.9 122.25-229.97 120.25-222.24 112.71-216.74 99.63-215.98 94.01-216.27 89.3-223.86 90.92-263.81 99.7-282.34 103.67-295.68 170.39-293.85 142.78-288.04 118.13-271.23 101.62-266.9 97.8-262.57 93.98-258.24 90.16-236.57 83.92-215.87 76.1-198.64 62.65-190.39 56.39-194.78 55.05-200.17 53.48-239 44.99-269.7 43.37-261.3 74.88-270.46 55.93-264.89 42.88-226.92 42.79-216.93 43.48-213.87 41.95-217.75 38.21-219.22 32.93-222.9 31.35-226.15 29.04-218.14 29.04-211.52 32.1-206.29 38.21-193.94 42.11-182.58 41.08-171.9 36.68-140.55 27.09-108.85 18.9-76.4 13.76-66.17 11.21-64.34 8.66-80.98 6.11-94.51 1.21-108.03-3.69-121.56-8.6-143.65-16.88-166.02-23.11-189.22-23.63-198.71-24.28-207.2-20.67-214.48-11.9-230.67 5.23-246.26 23.17-260.79 42.53-250.33 24.31-237.89 7.75-224.1-7.69-218-12.92-218-14.83-224.1-13.4-259.87-2.53-295.33 11.37-330.55 27.79-292.4 6.74-252.04-9.15-210.57-22.43-210.57-23.73-210.57-25.03-210.57-26.33-236.84-25.11-261.6-28.41-284.54-37.16-259.31-30.66-235.09-28.18-212.07-30.54-206.05-29.42-209.65-31.89-212.68-34.15-232.26-41.16-254.67-47.69-271.49-53.03-249.84-48.32-223.2-41.19-201.55-32.05-193.45-27.25-186.56-27.85-179.6-28.14-159.37-24.8-139.72-19.64-120.06-14.61-108.71-13.73-111.01-16.75-115.25-20.32-155.32-68.91-204.94-78.99-261.09-62.72-246.99-69.99-225.91-73.65-194.63-72.04-188.16-71.86-188.06-73.06-194.33-75.65-236.27-105.34-277.39-118.32-318.22-125.26-261.91-121.36-215.07-102.6-175.39-72.64-166.83-68.2-164.93-69.31-169.68-75.95-189.24-106.09-211.88-131.45-236.43-153.83-212.77-136.41-188.72-112.22-163.96-75.95-153.39-62.08-141.18-54.83-129.38-45.88-122.18-40.99-119.98-42.19-122.77-49.49-126.43-68.56-133.05-84.01-141.71-97-149.41-102.94-158.29-107.68-161.26-118.35-171.68-136.39-188.28-152.67-222-164.06-198.11-164.49-169.14-138.47-145.62-108.73-140.89-104.46-139.49-105.46-141.41-111.73-146.32-124.66-151.23-137.59-156.14-150.53-150.48-139.92-146.92-139.26-135.1-99.71-134.44-93.53-132.26-89.27-129.38-85.87-123.14-76.47-124.29-84.08-123.97-88.28-123.57-101.93-126.59-114.83-131.19-127.37-126.12-121-122.1-109.09-120.36-84.97-120.82-77.45-119.61-69.93-116.75-62.42-106.05-31.48-87.3-12.74-60.52-6.19-42.9 .03-28.2-1.05-13.91-3.18-5.49-3.34-1.15-8.39 1.72-15.21 1.15-10.14 .58-5.07 0 0Z"/>
<path transform="matrix(.23999998,0,0,-.23999998,394.66786,651.41616)" d="M0 0C-16.83 64.89-17.95 144.93-25.75 225.46-23.49 248.08-30.87 263.27-39.07 277.84-44.85 291.12-54.93 300.37-75.92 298.85-119.59 294.14-140.19 309.09-151.84 331.98-135.35 308.39-113.07 293.19-70.15 308.02-89.69 323.88-109.69 331.99-129.65 340.86-122.17 339.09-114.73 337.53-106.85 332.5-102.87 330.87-100.15 330.53-106.2 338.13-118.29 351.5-126.63 366.9-133.91 383.07-115.43 349.98-91.35 321.18-47.25 307.71-42.27 306.5-41.08 307.9-43.7 311.89-49 344.53-66.26 357.37-84.62 367.61-106.57 376.52-120.19 407.64-147.77 414.95-119.36 411.43-94.94 369.05-73.02 366-70.24 364.94-65.65 361.01-70.12 371.47-74.13 385.17-89.04 393.62-103.63 402.07-92.35 396.89-81.39 394.49-68.83 378.23-66.33 371.07-63.43 370.11-60.13 375.34-57.28 378.02-54.41 379.02-51.11 379.52-62.77 371.74-65.02 364.77-57.88 358.59-47.8 345.57-37.89 332.34-33.07 312.86-28.66 302.34-24.26 291.82-19.86 281.3-17.39 275.28-14.92 269.27-12.45 263.26-9.38 257.08-6.91 257.29-5.04 263.91 8.08 281.71 13.55 301.92 12.68 324.13 24.02 366.66 21.62 382.91-4.07 413.66 3.55 404.64 11.18 395.62 18.8 386.61 22.07 383.68 23.15 384.75 22.02 389.83 25.98 405.13 20.06 420.02 14.29 434.92 19.07 424.1 25.81 415.6 25.57 398.85 24.93 394.5 25.9 393.74 28.47 396.59 38.36 402.82 49.51 403.11 61.01 401.75 50.09 402.66 35.14 399.14 27.47 388.78 28.17 365.48 22.7 346.31 18.16 323.49 15.58 310.07 13 296.65 10.42 283.23 9.69 279.75 9.81 277.07 15.9 280.01 29.71 294.12 44.96 303.17 61.97 306.09 64.34 305.45 66.45 305.55 66.8 310.92 71.07 319.97 75.83 327.87 81.3 334.11 78.71 329.08 76.08 324.2 73.89 316.72 71.04 311.62 71.8 310.12 76.15 312.21 92.88 316.13 110.75 323.44 135.11 350.22 130.7 344.85 126.3 339.48 121.9 334.11 119.09 329.79 120.49 329.47 126.09 333.15 143.35 339.96 158.42 351.17 172.48 364.39 152.84 343.04 127.29 323.63 83.24 310.28 66.25 305.52 71.39 305.32 79.69 305.77 113.07 304.76 140.81 322.01 153.47 333.47 139.6 317.98 128.76 313.78 107.08 306.09 96.25 304.59 99.83 303.09 105.46 301.59 115.38 296.52 126.24 294.59 137.36 293.53 123.19 293.28 109.01 295.43 94.84 299.98 78.41 303.25 63.36 302.65 51.34 293.53 24.31 284.01 6.62 267.74 5.59 239.43-.78 204.53-1.67 169.65-3.11 134.76-8.2 82.85-1.91 41.38 8.49 3.67 5.66 2.45 2.83 1.23 0 0" fill="#6fb445" fill-rule="evenodd"/>
<path transform="matrix(.24004078,0,0,-.23995705,394.66773,651.41616)" stroke-width="1.24899" stroke-linecap="butt" stroke-miterlimit="2.613" stroke-linejoin="miter" fill="none" stroke="#231f20" d="M0 0C-16.83 64.91-17.94 144.96-25.75 225.5-23.48 248.12-30.86 263.32-39.07 277.89-44.84 291.17-54.92 300.42-75.9 298.9-119.56 294.19-140.16 309.15-151.81 332.04-135.32 308.44-113.05 293.24-70.14 308.07-89.67 323.94-109.67 332.05-129.62 340.92-122.15 339.15-114.7 337.59-106.83 332.56-102.85 330.93-100.13 330.59-106.18 338.19-118.27 351.56-126.6 366.96-133.89 383.14-115.41 350.04-91.33 321.24-47.24 307.76-42.26 306.55-41.07 307.95-43.69 311.95-48.99 344.6-66.24 357.44-84.6 367.67-106.55 376.59-120.16 407.72-147.74 415.03-119.33 411.51-94.92 369.12-73 366.06-70.23 365.01-65.63 361.08-70.11 371.54-74.12 385.24-89.02 393.7-103.6 402.14-92.33 396.97-81.37 394.57-68.82 378.3-66.32 371.14-63.42 370.17-60.12 375.41-57.27 378.09-54.4 379.09-51.1 379.59-62.75 371.81-65.01 364.83-57.87 358.66-47.79 345.63-37.88 332.4-33.06 312.91-28.66 302.39-24.26 291.87-19.85 281.35-17.39 275.33-14.92 269.32-12.45 263.31-9.38 257.12-6.91 257.34-5.04 263.95 8.08 281.77 13.55 301.98 12.68 324.19 24.02 366.72 21.62 382.99-4.07 413.74 3.55 404.72 11.18 395.7 18.8 386.68 22.07 383.75 23.15 384.83 22.02 389.9 25.98 405.2 20.06 420.1 14.29 435 19.07 424.18 25.81 415.67 25.56 398.92 24.93 394.57 25.9 393.82 28.47 396.66 38.35 402.9 49.5 403.19 61 401.82 50.08 402.73 35.14 399.21 27.47 388.86 28.17 365.55 22.7 346.37 18.15 323.55 15.58 310.12 13 296.7 10.42 283.28 9.69 279.8 9.81 277.12 15.9 280.06 29.7 294.18 44.96 303.23 61.96 306.15 64.33 305.5 66.44 305.61 66.79 310.98 71.06 320.03 75.82 327.93 81.29 334.17 78.69 329.14 76.07 324.26 73.88 316.78 71.03 311.68 71.79 310.17 76.14 312.27 92.87 316.19 110.73 323.49 135.09 350.28 130.68 344.91 126.28 339.54 121.88 334.17 119.07 329.85 120.47 329.53 126.06 333.21 143.33 340.02 158.39 351.24 172.45 364.45 152.82 343.1 127.27 323.69 83.22 310.34 66.24 305.57 71.38 305.37 79.68 305.83 113.05 304.81 140.79 322.06 153.45 333.53 139.58 318.03 128.74 313.84 107.06 306.15 96.23 304.65 99.81 303.14 105.45 301.64 115.36 296.58 126.22 294.65 137.34 293.59 123.17 293.33 108.99 295.48 94.82 300.03 78.4 303.31 63.35 302.71 51.33 293.59 24.31 284.06 6.63 267.79 5.59 239.47-.78 204.57-1.67 169.68-3.1 134.78-8.2 82.87-1.91 41.39 8.49 3.68 5.66 2.45 2.83 1.23 0 0Z"/>
<path transform="matrix(.23999998,0,0,-.23999998,390.04786,618.1126)" d="M0 0C.46-.2 .83-.11 .82 .21 5.81-.93 10.76-2.22 15.75-3.36 15.76-3.66 16.05-3.87 16.64-3.64 16.46-6.26 16.28-8.96 16.11-11.58 16.03-11.64 15.96-11.68 15.88-11.75 15.55-11.98 15.36-12.16 14.98-12.48 10.48-11.29 6-9.93 1.51-8.73 1.22-8.46 .92-8.23 .61-8.02 .43-7.92 .28-7.76 .1-7.67 .07-5.09 .03-2.57 0 0" fill="#6fb445" fill-rule="evenodd"/>
<path transform="matrix(.24004078,0,0,-.23995705,390.04689,618.11257)" stroke-width=".001" stroke-linecap="butt" stroke-miterlimit="2.613" stroke-linejoin="miter" fill="none" stroke="#6fb445" d="M0 0C.46-.2 .83-.11 .83 .21 5.81-.93 10.76-2.22 15.75-3.36 15.76-3.66 16.06-3.88 16.64-3.64 16.47-6.26 16.28-8.96 16.11-11.58 16.03-11.65 15.96-11.68 15.89-11.75 15.55-11.98 15.36-12.16 14.98-12.48 10.48-11.29 6.01-9.93 1.51-8.73 1.23-8.46 .92-8.24 .61-8.02 .43-7.92 .29-7.77 .11-7.67 .08-5.09 .04-2.57 0 0Z"/>
<path transform="matrix(.23999998,0,0,-.23999998,265.79035,537.8496)" d="M0 0C-3.64-.35-6.1-2.77-7.13-6.6-7.96-9.61-8-14.08-8-17.25-8-20.45-7.96-24.92-7.13-27.93-6.1-31.77-3.64-34.18 0-34.5V-33C-2.38-32.32-3.17-29.59-3.57-27.37-4.08-24.57-4.12-20.65-4.12-17.25-4.12-13.88-4.08-9.97-3.57-7.16-3.17-4.94-2.38-2.21 0-1.5V0" fill="#231f20" fill-rule="evenodd"/>
<path transform="matrix(.23999998,0,0,-.23999998,271.39439,544.2576)" d="M0 0C-.47-.32-1.03-.6-1.62-.6-3.56-.6-3.8 1.9-3.8 3.56V11.31C-3.8 13.53-4 15.03-6.13 16.18-7.6 16.97-9.78 17.53-11.44 17.49-13.22 17.45-15.36 17.05-17.02 16.34-18.4 15.74-20.23 14.28-20.23 12.62-20.23 11.63-19.31 10.88-18.36 10.88-16.86 10.88-16.35 11.95-16.35 13.25V13.77C-16.35 15.27-13.77 15.86-12.55 15.86-11.36 15.86-10.01 15.7-8.99 15.03-7.88 14.28-7.68 13.25-7.6 12.03V9.18L-10.53 8.86C-12.79 8.62-15.08 8.19-17.18 7.24-19.43 6.25-21.1 4.98-21.1 2.29-21.1-.87-17.81-2.38-15.04-2.38-12.07-2.38-9.93-1.35-7.6 .47-7.01-1.47-5.22-2.34-3.29-2.38-1.98-2.42-.24-1.98 .75-1.03L0 0ZM-7.6 2.21C-9.22 .83-11.36-.44-13.5-.44-15.4-.44-17.1 .75-17.1 2.77-17.1 6.69-10.61 7.51-7.6 7.79V2.21" fill="#231f20" fill-rule="evenodd"/>
<path transform="matrix(.23999998,0,0,-.23999998,271.67036,546.1392)" d="M0 0C3.6 .4 6.13 3.17 7.08 6.61 7.91 9.62 7.99 14.09 7.99 17.29 7.99 20.46 7.91 24.93 7.08 27.94 6.13 31.38 3.6 34.15 0 34.54V33.04C2.37 32.33 3.2 29.6 3.6 27.38 4.11 24.53 4.11 20.66 4.11 17.37 4.11 13.89 4.11 10.01 3.6 7.17 3.2 4.95 2.37 2.22 0 1.5V0" fill="#231f20" fill-rule="evenodd"/>
<path transform="matrix(.23999998,0,0,-.23999998,267.62397,678.24746)" d="M0 0C-3.64-.35-6.09-2.77-7.12-6.61-7.95-9.61-7.99-14.08-7.99-17.25-7.99-20.45-7.95-24.92-7.12-27.93-6.09-31.77-3.64-34.18 0-34.5V-33C-2.37-32.32-3.16-29.59-3.56-27.37-4.07-24.57-4.12-20.65-4.12-17.25-4.12-13.88-4.07-9.97-3.56-7.16-3.16-4.94-2.37-2.21 0-1.5V0" fill="#231f20" fill-rule="evenodd"/>
<path transform="matrix(.23999998,0,0,-.23999998,269.4192,684.59909)" d="M0 0C2.02-1.78 4.47-2.61 7.17-2.61 12.94-2.61 16.43 1.98 16.43 7.48 16.43 12.74 13.22 17.25 7.6 17.25 4.87 17.25 2.58 16.3 .63 14.36V26.07H-.95C-2.81 25.32-4.75 25-6.69 24.77V23.58L-6.13 23.54C-2.89 23.3-3.16 21.21-3.16 18.59V-2.3H-.99L0 0ZM.63 12.27C2.3 14.16 3.84 15.43 6.53 15.43 11.08 15.43 12.31 10.96 12.31 7.24 12.31 3.12 10.57-.75 5.9-.75 3.92-.75 1.94 .04 .63 1.46V12.27" fill="#231f20" fill-rule="evenodd"/>
<path transform="matrix(.23999998,0,0,-.23999998,273.88319,686.5368)" d="M0 0C3.61 .39 6.14 3.16 7.09 6.61 7.92 9.62 8 14.09 8 17.29 8 20.46 7.92 24.92 7.09 27.93 6.14 31.37 3.61 34.14 0 34.54V33.04C2.38 32.32 3.21 29.6 3.61 27.38 4.12 24.53 4.12 20.66 4.12 17.37 4.12 13.89 4.12 10.01 3.61 7.16 3.21 4.94 2.38 2.21 0 1.5V0" fill="#231f20" fill-rule="evenodd"/>
</g>
<text fill="#231f20" xml:space="preserve" transform="matrix(1 0 -0 1 -18 802.8)" font-size="9.5" font-family="Bookman"><tspan y="-95.28" x="159.36 165.88469 169.36939 174.94408 181.27877 185.71346 191.28815 195.93285 202.26753 208.60222 211.89691">Figure 13.9</tspan></text>
<text fill="#231f20" xml:space="preserve" transform="matrix(1 0 -0 1 -18 802.8)" font-size="9.5" font-family="Bookman"><tspan y="-95.28" x="218.16 222.4295 226.699 234.3035 239.248 242.8625 247.807 251.9915 257.316 263.2105 269.48503 274.6195 277.474 280.3285 285.46299 289.73249 292.58699 298.86149 303.13099 305.98548 311.49998 314.35447 318.62397 321.47846 326.99296 331.17747 337.07197 342.01646 347.91096 354.37547 358.55998 362.82948 368.34397 374.61848 380.51298 384.78248 387.63697 393.53147 396.38597 400.65547 406.54997 413.01448 416.62898 420.24348 425.18797 429.37248 434.31697 440.78147">  Heterophylly in (a) larkspur and (b) buttercup</tspan></text>
<g clip-path="url(#clip_645)">
<text xml:space="preserve" transform="matrix(1 0 -0 1 259.314 763.9998)" font-size="8" font-family="Arial"><tspan y="6.316" x="0"> </tspan></text>
</g>
</g>
</svg>
