<svg xmlns="http://www.w3.org/2000/svg" xmlns:xlink="http://www.w3.org/1999/xlink" xmlns:inkscape="http://www.inkscape.org/namespaces/inkscape" version="1.1" width="576" height="784.8" viewBox="0 0 576 784.8">
<defs>
<clipPath id="clip_2096">
<path transform="matrix(1,0,0,-1,-18,802.8)" d="M18 18H594V802.8H18Z" clip-rule="evenodd"/>
</clipPath>
<clipPath id="clip_2097">
<path transform="matrix(1,0,0,-1,259.314,763.9998)" d="M0-8H57.372V.800049H0Z"/>
</clipPath>
</defs>
<g>
<g clip-path="url(#clip_2096)">
<path transform="matrix(.24,0,0,-.24,-18,802.8)" d="M0 3035.83H2550V3372.705H0Z" fill="#d1d3d4" fill-rule="evenodd"/>
<path transform="matrix(.24,0,0,-.24,-18,802.8)" d="M0 3078.33H2550V3419.998H0Z" fill="#e1ecb6" fill-rule="evenodd"/>
<text fill="#231f20" xml:space="preserve" transform="matrix(1 0 -0 1 -18 802.8)" font-size="11" font-family="Bookman"><tspan y="-730.081" x="84">P</tspan></text>
<text fill="#231f20" xml:space="preserve" transform="matrix(1 0 -0 1 -18 802.8)" font-size="7.7" font-family="Bookman"><tspan y="-730.081" x="90.72 96.8355 102.951007 107.680507 113.796009 118.8335 123.717 129.3705 134.1 140.2155 145.715 150.7525 153.326">HOTOSYNTHESIS</tspan></text>
<text fill="#231f20" xml:space="preserve" transform="matrix(1 0 -0 1 -18 802.8)" font-size="11" font-family="Bookman"><tspan y="-730.081" x="158.4"> </tspan></text>
<text fill="#231f20" xml:space="preserve" transform="matrix(1 0 -0 1 -18 802.8)" font-size="7.7" font-family="Bookman"><tspan y="-730.081" x="160.79999 163.50328">IN</tspan></text>
<text fill="#231f20" xml:space="preserve" transform="matrix(1 0 -0 1 -18 802.8)" font-size="11" font-family="Bookman"><tspan y="-730.081" x="169.19998 171.68129"> H</tspan></text>
<text fill="#231f20" xml:space="preserve" transform="matrix(1 0 -0 1 -18 802.8)" font-size="7.7" font-family="Bookman"><tspan y="-730.081" x="180.47998 183.01218 189.08638 195.16059 200.61879">IGHER</tspan></text>
<text fill="#231f20" xml:space="preserve" transform="matrix(1 0 -0 1 -18 802.8)" font-size="11" font-family="Bookman"><tspan y="-730.081" x="206.15998 208.70128"> P</tspan></text>
<text fill="#231f20" xml:space="preserve" transform="matrix(1 0 -0 1 -18 802.8)" font-size="7.7" font-family="Bookman"><tspan y="-730.081" x="215.51998 220.08818 225.27239 230.91858 235.64078">LANTS</tspan></text>
<path transform="matrix(.24,0,0,-.24,482.6352,53.635194)" d="M0 0C7.32 7.32 16.16 10.98 26.52 10.98H97.35C107.71 10.98 116.55 7.32 123.87 0 131.19-7.33 134.85-16.17 134.85-26.52V-101.52C134.85-111.88 131.19-120.72 123.87-128.04 116.55-135.36 107.71-139.02 97.35-139.02H26.52C16.16-139.02 7.32-135.36 0-128.04-7.32-120.72-10.98-111.88-10.98-101.52V-26.52C-10.98-16.17-7.32-7.33 0 0" fill="#ffffff" fill-rule="evenodd"/>
<text fill="#231f20" xml:space="preserve" transform="matrix(1 0 -0 1 -18 802.8)" font-size="11" font-family="Bookman"><tspan y="-729.361" x="505.92 513.21 520.5">145</tspan></text>
<path transform="matrix(.24,0,0,-.24,-18,802.8)" d="M2 2H2548V214.668H2Z" fill="#cbdf7f" fill-rule="evenodd"/>
<path transform="matrix(.24,0,0,-.24,-18,802.8)" stroke-width="4" stroke-linecap="butt" stroke-miterlimit="1000" stroke-linejoin="miter" fill="none" stroke="#cbdf7f" d="M2 2H2548V214.668H2Z"/>
<path transform="matrix(.24,0,0,-.24,579.6,.11999512)" stroke-width="1" stroke-linecap="butt" stroke-miterlimit="10" stroke-linejoin="miter" fill="none" stroke="#000000" d="M0 0H60"/>
<path transform="matrix(.24,0,0,-.24,576.12,-18)" stroke-width="1" stroke-linecap="butt" stroke-miterlimit="10" stroke-linejoin="miter" fill="none" stroke="#000000" d="M0 0V-60"/>
<path transform="matrix(.24,0,0,-.24,579.6,784.44)" stroke-width="1" stroke-linecap="butt" stroke-miterlimit="10" stroke-linejoin="miter" fill="none" stroke="#000000" d="M0 0H60"/>
<path transform="matrix(.24,0,0,-.24,576.12,788.16)" stroke-width="1" stroke-linecap="butt" stroke-miterlimit="10" stroke-linejoin="miter" fill="none" stroke="#000000" d="M0 0V-59"/>
<path transform="matrix(.24,0,0,-.24,-17.88,-18.23999)" stroke-width="1" stroke-linecap="butt" stroke-miterlimit="10" stroke-linejoin="miter" fill="none" stroke="#000000" d="M0 0V-75"/>
<text fill="#231f20" xml:space="preserve" transform="matrix(1 0 -0 1 -18 802.8)" font-size="10.5" font-family="Bookman"><tspan y="-688.561" x="78.24 86.626499 92.073 98.9895 104.436008 109.88251 112.395709 115.7422 121.6087 126.2152 128.72841 134.17491 139.62142 145.06792 149.67443 155.33092 157.84412 165.60062">Hence for every CO</tspan></text>
<text fill="#231f20" xml:space="preserve" transform="matrix(1 0 -0 1 -18 802.8)" font-size="6.1" font-family="Bookman"><tspan y="-684.961" x="174">2</tspan></text>
<text fill="#231f20" xml:space="preserve" transform="matrix(1 0 -0 1 -18 802.8)" font-size="10.5" font-family="Bookman"><tspan y="-688.561" x="177.6 180.11022 182.62042 192.47812 198.34583 201.48352 206.93122 212.3789 219.5066 222.6443 228.09201 230.60222 236.04993 242.96762 246.94533 252.39304 257.00074 260.13844 267.05613 272.71385 275.22404 279.20173 286.11943 291.5671 294.0773 301.835 307.9127 311.05039 316.49809 319.63578 326.55348 329.06367 334.51136 340.16908 345.61677 348.75447 354.20216 357.54985 360.06004 366.55775 369.06794 378.92564 384.79335 387.93104 393.37873 398.82643 405.9541 409.0918 414.5395">  molecule entering the Calvin cycle, 3 molecules</tspan><tspan y="-674.401" x="60.240007 66.0034 69.2468 71.6536 78.677 85.070407 91.463809 93.870609 99.84401 106.65741 113.05081 115.45761 121.85101 124.25781 130.02121 133.2646 135.6714 143.3248 150.3482 158.6316 165.02501 173.30841 175.71521 181.68862 186.19202 191.53542 193.94222 198.44562 203.78902 209.76242 216.78583 219.81923 224.32263 229.66603 236.05944 239.30283 241.70963 244.11643 247.56983 251.44322 253.85002 256.88343 262.22685 264.63365 271.02705 275.53044 281.29383 287.68724 293.6606 300.05403 303.0874 308.6408 311.0476 314.92103 320.68443 323.09123 332.8446 338.18803 343.53144 347.40486 349.81166 353.68507 360.49848 363.53187 368.87528 371.28208 377.67549 380.70887 383.95228 387.19569 392.5391 397.04249 402.3859 409.19929 414.5427">of ATP and 2 of NADPH are required.  It is probably to meet this difference</tspan><tspan y="-660.481" x="60.240007 63.387807 70.315608 73.39651 80.32431 87.46211 97.32991 103.83771 109.29551 113.91331 116.99421 122.87201 126.22981 129.31072 136.44852 142.95632 149.46411 152.54502 158.63282 165.56061 172.0684 175.1493 182.91712 190.05492 198.45272 204.96051 213.3583 216.43921 223.57701 229.0348 234.4926 241.0004 244.0813 247.2291 254.15689 257.2378 261.2256 268.15339 273.61119 276.69209 283.1999 289.2877 293.9055 300.4133 303.4942 308.112 313.5698 319.6576 325.1154 329.10319 332.25099 338.12879 345.05659 348.13749 352.12528 359.05308 365.14088 369.12867 372.20957 376.19737 383.12516 388.58296 391.66386 397.12165 402.78944 408.24723 411.39503 414.54283">in number of ATP and NADPH used in the dark reaction that the cyclic</tspan><tspan y="-646.56106" x="60.240007 66.722209 73.624408 79.47661 84.908809 91.39101 98.293209 104.14541 108.73761 114.37981 117.50201 123.56421 127.52641 130.64862 136.50083 143.40303 145.91024 149.87244 155.93463 162.41683 167.84903 173.28124 175.78844 182.27063 185.39282 191.45502 196.88722 202.31943">phosphorylation takes place.</tspan><tspan y="-632.40109" x="78.240009 84.745708 90.62141 94.1479 104.0136 110.099308 116.605 122.06071 125.587207 131.4629 138.38861 143.84432 147.37082 157.23653 163.11223 166.25794 171.71364 177.16934 184.30504 187.45075 192.90645 196.43296 202.30866 205.66436 209.19086 214.85655 218.00226 225.13796 230.59366 236.46936 241.92507 247.38077 250.90727 257.41297 260.93949 264.92518 272.06089 276.67658 283.60227 289.05796 292.58448 298.46018 301.8159 305.3424 309.3281 316.25379 321.70948 325.236 330.69169 336.3574 341.81309 344.95878 350.41447 353.94099 360.02668 364.64237 370.09806 373.62458 378.24028 383.69596 389.78166 396.91737 400.06306 404.67875 410.13444 416.64015">To make one molecule of glucose 6 turns of the cycle are required.</tspan></text>
<text fill="#231f20" xml:space="preserve" transform="matrix(1 0 -0 1 -18 802.8)" font-size="10.5" font-family="Bookman" font-style="italic"><tspan y="-618.4811" x="60.240007 69.600009 75.36291 79.65581 86.048709 88.4541 94.217 100.8199 104.4828 106.8882 113.4911 119.254 128.5869 130.99231 140.32521 146.92812 153.53102 159.92392 162.32933 169.68001 176.0608 182.4416 184.83492 191.42572 198.01653 204.81732 207.21063 214.85144 222.28224 230.13304 236.51384 244.99465 247.38796 256.70875 262.45954 265.48036 271.23115 276.35194 282.94273 285.96354 291.71434 297.46513 299.85844 309.17924 312.20005 315.22087 318.24168 320.63499 327.01579 332.76658 335.15989 339.36 345.33 351.50999 358.31999 361.55998 365.52 371.2461 378.0222 380.39079 384.01689 389.74299 392.11158 401.40769 407.9738 414.3299">Work out how many ATP and NADPH molecules will be required to make</tspan><tspan y="-604.5611" x="60.23999 66.04339 72.68679 78.49019 81.73789 91.11129 96.91469 99.98809 105.79149 110.96489 117.60829 120.681697 126.48509 129.73279 135.5362 139.2396 142.48729 148.50069 151.57408 158.21749 163.39089 169.19429 174.9977 180.8011 184.0488 187.7522 194.3956 198.729 204.53241 211.17581 217.18921 223.83261 227.0803 230.7837 237.42711 243.23052 246.47821 254.17162 260.815 263.8884 269.6918 272.7652 279.4086 282.65629 289.0897 295.7331 299.4365 306.0799 315.4533 322.0967 328.53013">one molecule of glucose through the Calvin pathway.</tspan></text>
<text fill="#231f20" xml:space="preserve" transform="matrix(1 0 -0 1 -18 802.8)" font-size="10.5" font-family="Bookman"><tspan y="-590.4011" x="78.23999 81.80959 85.799198 88.718799 98.588397 101.73799 107.40759 114.3372 118.3268 121.2464 128.176 133.63559 136.78519 143.29479 146.21439 151.88399 157.76358 164.90319 167.82279 171.81238 177.69197 180.61157 187.75118 194.68077 201.19037 206.64997 211.26956 216.72916 220.71875 226.80835 233.73795 240.24755 243.16715 249.25675 252.40634 255.55594 258.47554 264.35514 267.71473 270.6343 274.6239 281.5535 284.7031 290.1627 293.08229 296.23188 299.59147 302.51106 310.70066 316.16026 319.07984 322.22944 328.10905 333.98866 340.49827 343.41786 349.50746 353.49705 356.41664 364.60624 371.53584 377.62544 381.61503 384.5346 390.2042 396.0838 401.5434 407.003 409.92259 413.07218">It might help you to understand all of this if we look at what goes in</tspan><tspan y="-576.48117" x="60.23999 66.32289 73.24579 79.74869 82.265888 90.448787 97.37168 103.45458 107.437488 109.95468 115.407588 121.28049 131.14339 136.59629 142.04918 144.56639 150.43929 157.57219 161.55509 164.0723 169.94519 173.2981 175.8153 179.7982 186.7211 192.174 194.69121 202.4541 208.537 211.6799 217.1328 220.2757 227.1986 229.7158 235.1687 240.8316 246.2845 249.4274 254.8803">and what comes out of the Calvin cycle.</tspan></text>
<path transform="matrix(.24,0,0,-.24,-18,802.8)" d="M593.664 2030.33H1339.6641V2342.998H593.664Z" fill="#fedbb4" fill-rule="evenodd"/>
<path transform="matrix(.24,0,0,-.24,-18,802.8)" stroke-width="4" stroke-linecap="butt" stroke-miterlimit="1000" stroke-linejoin="miter" fill="none" stroke="#fcbb76" d="M593.664 2030.33H1339.6641V2342.998H593.664Z"/>
<path transform="matrix(.24,0,0,-.24,124.8,260.39997)" stroke-width="4" stroke-linecap="butt" stroke-miterlimit="10" stroke-linejoin="miter" fill="none" stroke="#ffffff" d="M0 0H742"/>
<path transform="matrix(.24,0,0,-.24,206.16,240.95996)" stroke-width="4" stroke-linecap="butt" stroke-miterlimit="10" stroke-linejoin="miter" fill="none" stroke="#ffffff" d="M0 0V-309"/>
<text fill="#231f20" xml:space="preserve" transform="matrix(1 0 -0 1 -18 802.8)" font-size="10.5" font-family="Bookman"><tspan y="-548.4" x="169.44 173.58 249.6 258.36003 265.65003">InOut</tspan></text>
<text fill="#231f20" xml:space="preserve" transform="matrix(1 0 -0 1 -18 802.8)" font-size="10.5" font-family="Bookman"><tspan y="-526.80007" x="152.88 159.794 162.92801 168.792 171.286 179.04">Six CO</tspan></text>
<text fill="#231f20" xml:space="preserve" transform="matrix(1 0 -0 1 -18 802.8)" font-size="6.1" font-family="Bookman"><tspan y="-523.2001" x="187.44">2</tspan></text>
<text fill="#231f20" xml:space="preserve" transform="matrix(1 0 -0 1 -18 802.8)" font-size="10.5" font-family="Bookman"><tspan y="-526.80007" x="238.08 246.472 253.394 258.846 261.348 267.00999 270.15199 277.28398 282.73597 288.60798 294.05998">One glucose</tspan><tspan y="-511.20005" x="152.88 159.37001 165.86002 170.20001 177.32 183.81002 238.08 244.56 251.04 254.97 262.08 270.44999">18 ATP18 ADP</tspan><tspan y="-495.60005" x="152.88 159.3786 165.8772 169.4258 177.1844 184.313 192.7016 199.2002 238.08 244.5917 251.10341 254.81511 262.58683 269.72853 278.13023">12 NADPH12 NADP</tspan></text>
<text fill="#00aeef" xml:space="preserve" transform="matrix(1 0 -0 1 -18 802.8)" font-size="13" font-family="Bookman"><tspan y="-463.44004" x="60 68.286899 76.57379 80.70069 102">11.8T</tspan></text>
<text fill="#00aeef" xml:space="preserve" transform="matrix(1 0 -0 1 -18 802.8)" font-size="9.1" font-family="Bookman"><tspan y="-463.44004" x="110.64 118.7292">HE</tspan></text>
<text fill="#00aeef" xml:space="preserve" transform="matrix(1 0 -0 1 -18 802.8)" font-size="13" font-family="Bookman"><tspan y="-463.44004" x="125.04 129.5809"> C</tspan></text>
<text fill="#00aeef" xml:space="preserve" transform="matrix(1 0 -0 1 -18 802.8)" font-size="7.6" font-family="Bookman"><tspan y="-459.12004" x="139.2">4</tspan></text>
<text fill="#00aeef" xml:space="preserve" transform="matrix(1 0 -0 1 -18 802.8)" font-size="13" font-family="Bookman"><tspan y="-463.44004" x="144.23999 148.1406"> P</tspan></text>
<text fill="#00aeef" xml:space="preserve" transform="matrix(1 0 -0 1 -18 802.8)" font-size="9.1" font-family="Bookman"><tspan y="-463.44004" x="156.71999 163.30069 169.69939 177.1901 185.7728 192.3535">ATHWAY</tspan></text>
<text fill="#231f20" xml:space="preserve" transform="matrix(1 0 -0 1 -18 802.8)" font-size="10.5" font-family="Bookman"><tspan y="-437.28004" x="59.999986 66.50699 69.65399 75.74099 82.66799 86.65499 92.11199 96.79399 100.78099 107.70799 113.79499 117.78199 122.46399 128.551 133.168 138.625 143.30699 149.394 155.901 161.988 168.49501 172.48201 177.93901 184.44602 189.128 193.115 198.992 203.674 210.181 214.798 220.46501 225.147 229.134 233.751 239.628 246.13501 249.28202 254.73902 260.82603 263.97303 268.65504 273.27204 278.72904 284.39604 287.54304 293.42005 300.34706 305.80406 310.48606 317.41307 323.50007 328.95707 334.41407 339.09608 343.08308 350.01008 355.46708 360.14909">Plants that are adapted to dry tropical regions have the C</tspan></text>
<text fill="#231f20" xml:space="preserve" transform="matrix(1 0 -0 1 -18 802.8)" font-size="6.1" font-family="Bookman"><tspan y="-433.68003" x="367.91999">4</tspan></text>
<text fill="#231f20" xml:space="preserve" transform="matrix(1 0 -0 1 -18 802.8)" font-size="10.5" font-family="Bookman"><tspan y="-437.28004" x="371.75999 376.47859 382.9972 389.0958 393.0944 400.033 408.2316 414.3302"> pathway</tspan><tspan y="-423.60005" x="59.99997 69.86587 75.32177 82.24767 86.233577 89.37947 95.25537 102.181278 107.63718 114.143077 117.23468 122.69058 128.77649 133.3924 136.5383 139.6842 145.1401 149.03998 152.39888 155.49349 162.00238 168.93128 174.81018 181.94908 187.61798 194.54688 197.64148 201.63039 208.55928 214.01819 219.47708 224.93598 228.03058 234.53948 237.68837 243.77727 250.70616 254.69507 260.15397 263.24855 270.17744 276.26634 281.72523 287.1841 290.2787 294.26759 301.19648 306.65538 309.74995">mentioned earlier. Though these plants have the C</tspan></text>
<text fill="#231f20" xml:space="preserve" transform="matrix(1 0 -0 1 -18 802.8)" font-size="6.1" font-family="Bookman"><tspan y="-420.24006" x="317.75999">4</tspan></text>
<text fill="#231f20" xml:space="preserve" transform="matrix(1 0 -0 1 -18 802.8)" font-size="10.5" font-family="Bookman"><tspan y="-423.60005" x="321.36 324.4591 330.3449 336.2307 342.3265 345.4823 351.3681 357.4639 362.9297 368.39549 372.39128 375.54707 381.01286 384.11198 390.20777 395.67356 398.82936 405.34516 408.44429 414.54008"> oxaloacetic acid as</tspan><tspan y="-410.16004" x="60 63.9136 70.767208 76.1508 78.609409 81.893009 84.966609 89.51021 94.89381 98.8074 101.26601 108.95961">the first CO</tspan></text>
<text fill="#231f20" xml:space="preserve" transform="matrix(1 0 -0 1 -18 802.8)" font-size="6.1" font-family="Bookman"><tspan y="-406.80006" x="117.36">2</tspan></text>
<text fill="#231f20" xml:space="preserve" transform="matrix(1 0 -0 1 -18 802.8)" font-size="10.5" font-family="Bookman"><tspan y="-410.16004" x="121.2 123.6635 126.9603 130.0471 135.8639 141.8907 145.8175 148.90431 154.72112 161.58792 164.05142 170.49823 175.05503 180.87183 187.31864 194.39543 199.79224 203.71904 206.18254 210.10935 216.97615 222.37296 227.97975 230.44326 237.52005 242.91686 248.31366 250.77716 254.70397 261.57078 266.96757 269.43107"> fixation product they use the C</tspan></text>
<text fill="#231f20" xml:space="preserve" transform="matrix(1 0 -0 1 -18 802.8)" font-size="6.1" font-family="Bookman"><tspan y="-406.80006" x="277.2">3</tspan></text>
<text fill="#231f20" xml:space="preserve" transform="matrix(1 0 -0 1 -18 802.8)" font-size="10.5" font-family="Bookman"><tspan y="-410.16004" x="280.80003 283.25553 289.70103 295.72654 299.65205 306.51756 314.64305 320.66856 326.27406 328.72956 334.54505 339.10057 341.55607 345.48158 352.34709 357.74259 360.1981 367.9036 373.9291 377.01463 382.41014 385.49565 392.36116 394.81666 400.21217 405.81767 411.21318 414.29869"> pathway or the Calvin cycle</tspan><tspan y="-396.72004" x="60.000017 66.089717 71.549419 74.38182 78.37152 85.30122 90.760929 93.59333 103.46303 109.55273 112.70242 119.632129 122.46453 128.97423 132.12393 138.00363 143.46334 149.13303 156.06273 160.05243 166.98213 172.44184 176.43154 179.58124 185.04094 187.87334 194.38304 200.47275 204.46245 211.39215 219.58185 225.67156 231.34125 234.70095 237.53334 244.04305 250.97275 256.43244 263.36213 266.72184 269.55424 272.70393 279.6336 282.466 290.6557 297.5854 303.67509 307.6648 310.4972 318.6869 324.77659 330.4463 333.2787 339.36839 343.98808 349.44776 352.28016 356.26985 363.19953 368.6592 374.32893 377.16133 383.67103 386.8207 390.18043 393.54014 398.99983 403.6195 409.0792 416.00889">as the main biosynthetic pathway. Then, in what way are they different</tspan><tspan y="-383.28004" x="60.000017 63.324018 67.90802 73.75202 83.58602 86.31002">from C</tspan></text>
<text fill="#231f20" xml:space="preserve" transform="matrix(1 0 -0 1 -18 802.8)" font-size="6.1" font-family="Bookman"><tspan y="-379.68003" x="94.08002">3</tspan></text>
<text fill="#231f20" xml:space="preserve" transform="matrix(1 0 -0 1 -18 802.8)" font-size="10.5" font-family="Bookman"><tspan y="-383.28004" x="97.92001 100.647319 107.15462 110.30192 116.38922 123.31652 127.30382 132.76113 138.42842 141.15572 147.66301 154.59032 157.73761 163.19492 165.92221 169.0695 174.52681 177.2541 183.3414 186.0687 192.15599 199.29329 204.7506 210.2079 214.1952 217.3425 223.2198 230.14711 232.8744 236.86171 243.78902 249.87631 253.86362 256.5909 262.2582 268.1355 275.2728 278.0001 287.8674 293.9547 299.622 302.3493 306.9666 312.42393 318.51124 323.96855 329.84584 336.77314 342.86045 349.36775 352.51506 358.18235 360.90965 366.99696 372.45426 378.96156"> plants? This is a question that you may reasonably ask.</tspan><tspan y="-369.60005" x="78.000019">C</tspan></text>
<text fill="#231f20" xml:space="preserve" transform="matrix(1 0 -0 1 -18 802.8)" font-size="6.1" font-family="Bookman"><tspan y="-366.24006" x="85.680019">4</tspan></text>
<text fill="#231f20" xml:space="preserve" transform="matrix(1 0 -0 1 -18 802.8)" font-size="10.5" font-family="Bookman"><tspan y="-369.60005" x="89.52001 92.43161 98.93901 102.08641 108.17381 115.10121 119.088619 124.54601 127.45761 133.54502 138.16242 143.61981 146.53142 151.98882 158.49622 163.95362 169.41101 172.55841 178.64582 181.79322 185.15062 188.06223 194.56963 201.49703 206.95442 212.62183 215.53343 222.46083 228.54824 234.00563 239.46303 242.37464 248.46204 251.37364 256.83106 263.33845 268.79585 274.25325 277.40065 283.48805 286.63545 289.54704 293.53443 299.2018 305.7092 311.1666 314.0782 319.9556 323.313 326.22459 329.37199 334.82939 340.91679 344.27418 347.18577 353.27317 360.20057 366.28797 370.27537 376.15278 386.02018 391.68757 395.04496 397.95655 401.94395 408.87135 414.32875"> plants are special: They have a special type of leaf anatomy, they</tspan><tspan y="-356.16004" x="60.00001 63.71381 69.31761 72.191417 77.37521 81.71902 87.53282 91.24662 96.43042 98.67922 105.33302 108.206829 113.600627 120.254428 125.438228 129.78203 132.03083 135.74463 140.92844 150.52223 156.75603 161.93984 166.28363 172.09743 175.81124 182.67504 187.01883 192.20264 197.38645 200.47025 202.71904 206.43285 213.08664 218.27045 223.66425 225.91304 231.09685 237.75064 243.35445 251.26825 253.51705 259.33085 261.57966 265.92347 271.10728 276.29109 282.52488 288.12867 294.78248 299.96629 305.1501 307.3989 311.1127 316.7165 318.9653 325.6191 328.49293 333.88673 340.54054 342.78935 345.66316 348.53697 353.93077 360.58457 364.29838 366.54719 369.421 376.0748 379.7886 384.9724 391.62623 396.81004 399.68385 403.39765 406.27146 411.45527 416.63908">tolerate higher temperatures, they show a response to high light intensities,</tspan><tspan y="-342.72004" x="60.00001 63.89741 70.73481 76.10221 81.67961 84.108119 87.16552 93.16292 98.53032 104.94772 107.37623 113.37363 115.80213 122.21953 126.746929 132.53433 137.90174 143.26914 148.63654 154.00394 156.43244 161.79984 167.79724 170.85465 173.91205 179.27945 185.69686 188.12535 194.54276 201.38016 207.16756 211.06496 216.85236 221.37976 226.74716 232.11457 238.53197 241.58937 246.11678 252.11418 256.0116 259.069 264.8564 271.69383 274.1223 280.11973 286.95713 293.3745 295.803 302.6404 308.63783 314.00523 319.37263 321.80113 327.3785 331.9059 337.27333 343.27073 347.16813 352.53553 357.06294 359.49143 365.9088 370.43623 376.22364 382.64103 389.68843 395.05583 398.95323 402.01063 407.37803 410.43544 414.33283">they lack a process called photorespiration and have greater productivity</tspan><tspan y="-329.28004" x="60.00001 65.875919 69.23182 71.81272 78.31862 81.464519 87.340419 97.206317 103.29221 108.748119 114.20402 117.55992 120.14082 126.43672 131.89263 135.87853 138.45943 145.59532 151.05123 153.63213 160.76802 167.69393 174.19983 179.65573 184.27164 189.72754 193.71344 199.79935 206.72525 213.23116 215.81206 219.79796 226.72386 232.17977 237.63567 243.09157 245.67247 251.54837 258.47428 263.93019 266.51109 273.01698 278.68287 281.26377 287.13966 294.06556 299.52146">of biomass. Let us understand these one by one.</tspan><tspan y="-315.60005" x="78.000019 84.716419 88.49281 95.41921 101.715618 107.17201 109.805919 115.052318 120.29871 124.70512 128.48152 131.41793 136.66432 142.54073 145.47713 148.11103 153.35742 158.60382 163.85022 167.62662 170.56302 176.22942 182.94582 188.19222 190.82611 196.49251 199.6389 202.2728 205.2092 210.4556 216.332 221.5784 226.8248 232.0712 235.21759 237.85149 243.51789 250.23429 255.48069 258.11457 263.78099 266.92738 269.56126 275.43766 278.07154">Study vertical sections of leaves, one of a C</tspan></text>
<text fill="#231f20" xml:space="preserve" transform="matrix(1 0 -0 1 -18 802.8)" font-size="6.1" font-family="Bookman"><tspan y="-312.24006" x="285.60005">3</tspan></text>
<text fill="#231f20" xml:space="preserve" transform="matrix(1 0 -0 1 -18 802.8)" font-size="10.5" font-family="Bookman"><tspan y="-315.60005" x="289.44004 292.06825 298.36784 301.30744 307.18705 313.90666 317.68626 320.31446 326.19407 332.91368 339.21327 341.84147 345.62107 352.34068 357.59028 360.21849 365.88807 369.66767 376.38728 381.63688 386.04649 388.67469 394.34428 397.49388 400.12208 406.00169 408.62989"> plant and the other of a C</tspan></text>
<text fill="#231f20" xml:space="preserve" transform="matrix(1 0 -0 1 -18 802.8)" font-size="6.1" font-family="Bookman"><tspan y="-312.24006" x="416.16004">4</tspan></text>
<text fill="#231f20" xml:space="preserve" transform="matrix(1 0 -0 1 -18 802.8)" font-size="10.5" font-family="Bookman"><tspan y="-302.16007" x="60.00003 66.31003 69.260028 75.150028 81.88003 85.67003 88.83003">plant. </tspan></text>
<text fill="#231f20" xml:space="preserve" transform="matrix(1 0 -0 1 -18 802.8)" font-size="10.5" font-family="Bookman" font-style="italic"><tspan y="-302.16007" x="93.60003 102.00003 107.76003 112.50774 118.72363 124.30953 130.73543 135.48313 141.90903 147.49494 150.98084 153.83673 158.79264 164.37854 169.12624 172.61214 179.03804 184.62395 189.37165 196.00754 198.86344 202.34934 205.83524 211.42115 215.53705 221.12296 227.54886 232.50476 238.09067 243.67658 249.26248 254.01018 261.69609 267.28199 272.02967 278.24559 283.83149 287.31739 293.7433 298.49098 304.91688 311.34278 316.92869 322.5146 327.26228 330.74818 337.17408 342.75999 347.50767 353.09358 359.51948 368.67539 374.2613 379.00898 382.49488 388.7108 394.9267 400.5126 406.0985 410.8462 416.4321">Do you notice the differences? Do both have the same types of</tspan><tspan y="-288.72007" x="60.000036 69.04474 74.51944 79.99414 85.46884 91.57354 97.88824 103.992938 106.73763 109.48233 114.95703 120.43173 122.550128 124.66852 132.24323 137.71793 139.83632 143.21102 149.52571 155.00041 161.10512 163.22351 169.53821 175.8529 181.3276 186.8023 188.9207 194.3954 197.1401 206.18482 208.92952 211.67423 217.98892 221.99362 224.11202 228.95671 234.43141 237.17612 239.92082 245.39553 247.51392 253.82862 257.8333 263.308 269.6227 275.9374 282.4621 284.5805 287.9552 294.2699 299.7446 301.863 307.3377 313.6524 319.1271 323.9718 330.2865 333.0312 339.3459 343.3506 345.469 351.5737 357.8884 364.2031 370.72779 373.47248 378.94718 381.06559 386.54029 392.85499 398.32969 404.64439 408.01908 414.33378">mesophylls?  Do they have similar cells around the vascular bundle sheath?</tspan></text>
<text fill="#231f20" xml:space="preserve" transform="matrix(1 0 -0 1 -18 802.8)" font-size="10.5" font-family="Bookman"><tspan y="-275.28007" x="78.00003 84.50663 91.43323 96.88983 100.94643 107.453029 113.53963 118.15623 122.14283 125.28943 130.74604 137.88263 141.02924 147.11583 151.73244 154.87905 160.54564 164.60224 167.74884 173.83544 178.45204 184.11864 189.57524 193.63184 199.08844 204.54505 207.69165 210.83826 216.29486 220.35146 226.43805 231.05466 236.93126 244.06786 250.99446 257.50108 261.55769 265.54429 272.4709 277.9275 281.9841 287.4407 293.5273 298.98393 304.44053 311.57713 314.72373 320.81034 325.42695 329.48356 335.99015 343.12675 350.05335 356.55995 359.70655 365.16316 370.61976 374.67637 380.55296 383.90956 387.96617 391.95277 398.87937 404.33598 408.39259">The particularly large cells around the vascular bundles of the C</tspan></text>
<text fill="#231f20" xml:space="preserve" transform="matrix(1 0 -0 1 -18 802.8)" font-size="6.1" font-family="Bookman"><tspan y="-271.68006" x="416.16004">4</tspan></text>
<text fill="#231f20" xml:space="preserve" transform="matrix(1 0 -0 1 -18 802.8)" font-size="10.5" font-family="Bookman"><tspan y="-261.60008" x="60.00003 66.50123 69.642429 75.723628 82.64483 86.62603 92.07723 94.87843 100.95963 105.57083 111.02203 113.82323 119.27443 125.35563 128.49683 131.63803 137.08924 143.59044">plants are called </tspan></text>
<text fill="#231f20" xml:space="preserve" transform="matrix(1 0 -0 1 -18 802.8)" font-size="10.5" font-family="Bookman"><tspan y="-261.60008" x="146.40003 152.84613 159.92223 167.20833 174.07444 177.79053 184.02663 187.11772 192.72382 200.00992 206.24602 212.48212 217.45822 224.74433 227.83542 234.07152 240.30762 244.02371 247.7398">bundle sheath cells</tspan></text>
<text fill="#231f20" xml:space="preserve" transform="matrix(1 0 -0 1 -18 802.8)" font-size="10.5" font-family="Bookman"><tspan y="-261.60008" x="253.20003 256.56324 259.3597 265.4529 272.3861 278.89933 281.6958 285.689 292.6222 298.0854 300.88188 304.03507 309.49827 315.59147 321.05467 326.51786 331.98106 334.77754 342.97074 349.90394 353.05714 358.52033 365.45353 368.25 375.1832 381.2764 386.7396 392.2028 394.99928 400.46247 407.60566 413.06886">, and the leaves which have such</tspan><tspan y="-248.16007" x="60.00003 66.090038 73.020038 79.11004 83.10004 88.980037 98.85004 104.520038 107.25004 113.34004 117.960048 123.420047 126.15005 131.61005 137.70005 140.85004 147.36003 150.09003 154.08003 159.96004 162.69004 169.62003 175.71002 181.17003 186.63004">anatomy are said to have </tspan></text>
<text fill="#231f20" xml:space="preserve" transform="matrix(1 0 -0 1 -18 802.8)" font-size="10.5" font-family="Bookman"><tspan y="-248.16007" x="189.36003 192.63213 200.94423 205.68633 211.68843 218.74053 224.53263 227.80472 230.53682 236.53893 243.59102 249.59313 254.33522 260.75733 271.16944">&#x2018;Kranz&#x2019; anatomy</tspan></text>
<text fill="#231f20" xml:space="preserve" transform="matrix(1 0 -0 1 -18 802.8)" font-size="10.5" font-family="Bookman"><tspan y="-248.16007" x="277.68003 281.0389 283.76029 286.06919 293.62809 298.24699 304.33589 311.26478 316.30369 318.61259 321.33396 331.20286 336.66175 342.75065 349.67955 355.13844 357.8598 360.1687 368.3576 372.9765 378.4354 384.5243 388.51319 395.44209 397.75099 400.47236 406.56126 413.49015">. &#x2018;Kranz&#x2019; means &#x2018;wreath&#x2019; and</tspan><tspan y="-234.72006" x="60.00003 63.14743 68.60483 71.496829 77.58423 80.47623 85.09363 90.551029 93.908428 97.055828 102.51322 107.97062 111.95802 115.10542 120.98283 127.910228 130.80223 136.67963 140.03704 142.92905 146.91645 153.84384 159.30124 162.19326 168.28066 172.89806 177.51546 183.60286 190.53026 196.19766 201.65506 211.52246 216.97986 223.90726 227.89466 230.78667 236.66407 240.02147 242.91349 248.37088 253.82828 256.97569 260.12309 265.58049 268.93788 271.82987 274.72187 281.22926 288.15666 293.61405 296.50605 303.01344 310.15083 317.07823 323.5856 326.733 332.1904 335.0824 340.5398 347.4672 352.9246 359.012 362.9994 369.9268 372.8188 378.27619 383.73359 386.88099 390.02839 395.48579 398.37779 408.24519 414.33259">is a reflection of the arrangement of cells.  The bundle sheath cells may</tspan><tspan y="-221.28006" x="60.00003 63.267534 69.05503 73.582538 83.36004">form </tspan></text>
<text fill="#231f20" xml:space="preserve" transform="matrix(1 0 -0 1 -18 802.8)" font-size="10.5" font-family="Bookman"><tspan y="-221.28006" x="85.68003 91.09083 97.13163 103.38243 109.42323 114.20403 120.244838 123.76563 126.33643 129.85724 135.89804 142.35884 148.39965 153.18045">several layers</tspan></text>
<text fill="#231f20" xml:space="preserve" transform="matrix(1 0 -0 1 -18 802.8)" font-size="10.5" font-family="Bookman"><tspan y="-221.28006" x="158.64003 161.05294 167.03864 171.55434 177.33003 184.36574 191.19144 197.59714 200.01004 203.89574 210.72144 216.07714 218.49004 223.84574 229.83144 235.18714 240.54283 247.57854 250.62424 256.60993 261.1256 263.5385 269.9442 276.97993 283.80564 290.21134 293.25703 298.61274 303.96846 307.22416 309.63706 313.52278 320.34849 325.7042 331.2699 333.6828 339.6685 344.18418 349.5399 351.9528 357.3085 364.13423 370.1199 374.6356 380.62129 385.977 389.8627 395.2184 399.7341 402.7798 408.1355 413.4912"> around the vascular bundles; they are characterised</tspan><tspan y="-207.60007" x="60.00003 66.50773 72.17543 77.00313 83.93083 90.01853 95.476238 98.62393 105.551639 111.21934 116.047039 122.134738 126.96243 130.11014 136.19785 140.81555 146.48325 151.94095 156.76865 163.69635 170.83405 180.70175 187.20946 192.66716 197.28487 202.11257 207.99027 211.34796 216.17566 221.63336 228.56107 231.70877 237.58647 242.20418 248.08188 254.58959 257.73728 263.82499 269.28269 273.2704 278.7281 282.0858 286.91349 290.90119 297.8289 300.9766 306.4343 312.942 317.76969 325.9574 332.0451 335.1928 338.3405 343.79823 348.62593 351.77363 361.64134 368.14903 373.60673 378.22444 383.68214 386.82984 392.70753 399.8452 405.30293 410.1306 414.11833">by having a large number of chloroplasts, thick walls impervious to</tspan><tspan y="-194.16007" x="60.00003 65.66613 71.75223 77.20833 82.66443 88.54053 95.67663 101.13273 105.39333 110.849437 116.72553 122.18163 129.10773 135.19384 142.11994 147.78604 153.24214 157.50273 163.58884 170.51494 177.02104 181.28163 188.20774 194.08383 198.34442 201.49053 208.41663 212.40273 217.85883 222.72003 228.17594 233.63184 236.77774 239.92365 247.05954 250.20545 256.29136 260.90727 265.16767 270.62358 277.12947 283.21537 288.67127 294.12718 299.58308 302.93898 307.19938 313.20005 319.08045 326.22087 330.48579 340.35618 346.44657 352.11698 356.3819 359.5323 362.68269 369.19309 374.65348 378.9184 382.90879 388.78919 393.0541 398.5145 405.6549 409.6453 413.91023">gaseous exchange and no intercellular spaces. You may like to cut a</tspan><tspan y="-180.72006" x="60.000047 65.45965 70.91925 76.37885 80.368457 83.51805 89.39765 96.327259 100.09686 105.97646 109.33606 113.10567 117.09527 124.02487 129.48447 133.25408 136.40367 141.86327 147.95287 153.41246 158.87206 164.33165 168.10126 173.98085 177.34046 181.11006">section of the leaves of C</tspan></text>
<text fill="#231f20" xml:space="preserve" transform="matrix(1 0 -0 1 -18 802.8)" font-size="6.1" font-family="Bookman"><tspan y="-177.12006" x="188.88005">4</tspan></text>
<text fill="#231f20" xml:space="preserve" transform="matrix(1 0 -0 1 -18 802.8)" font-size="10.5" font-family="Bookman"><tspan y="-180.72006" x="192.72005 196.49825 203.00424 206.15024 212.23624 219.16223 223.14824 228.60424 232.38243 237.62844 241.40663 251.27263 257.35865 260.50465 265.54066 270.99665 274.77485 280.65086 285.26686 289.04505 294.50105 300.37705 304.99305 310.65904 317.58503 324.721 334.587 338.3652 343.6112 347.3894 351.3754 357.2514 361.0296 366.9056 373.41163 378.8676 384.3236 388.9396 394.3956 399.8516 403.6298 407.61579 414.54179"> plants &#x2013; maize or sorghum &#x2013; to observe the</tspan><tspan y="-167.28006" x="60.000047 67.55665 72.17325 78.25985 85.18645 90.223049 92.74394 98.83054 105.75714 111.84374 115.830348 121.70695 131.57355 137.24015 139.76105 145.84764 152.77425 159.28086 161.80176 165.78836 172.71497 178.17157 180.69248 187.19908 190.34569 195.80229 199.7889 204.4055 207.55211 214.05872 221.19532 225.18192 228.32852 234.20513 241.13173 243.65264 249.52924 252.88584 255.40674 265.27336 270.72996 276.18656 282.06315 288.56974 295.49635 301.16294 304.30955 307.45616 309.97706 315.43367 320.89027 324.03688 327.18348 332.64009">Kranz anatomy and the distribution of mesophyll cells.</tspan><tspan y="-153.60007" x="78.000049 81.69734 85.814647 88.46444 96.78174 102.78904 110.056339 113.33363 119.97093 122.62073 129.25803 134.84532 137.49514 140.77243 147.82973 151.94702 157.53432 162.28162 167.86891 173.4562 177.5735 180.8508 187.9081 193.7054 196.35521 199.84252 205.84981 210.5971 213.24692 219.04422 225.05152 232.31882 234.96863 239.08592 245.09322 247.74303 253.33032 259.33763 262.61494 265.89225 271.47956 277.06687 281.18418 283.83399 287.1113 292.6986 298.9159 304.5032 310.0905 315.67784 318.32765 324.33494 327.82225 330.47206 337.10935 340.38667 345.97398 351.56129 356.3086 361.8959 367.48323 370.13304 375.72035 382.35765 387.94496 393.53227 396.80958 402.39689 407.9842 410.634 416.6413">It would be interesting for you to collect leaves of diverse species of</tspan><tspan y="-140.16007" x="60.000047 66.47984 69.59964 75.65944 82.55924 86.51904 91.948848 94.44745 100.50725 105.097049 110.946849 118.05665 124.95645 131.43625 133.93485 139.57465 145.42444 152.53424 155.03284 161.09264 167.99243 174.47223 176.97083 182.40062 189.51042 193.47022 195.96881 201.3986 206.8284 211.4182 215.37799 218.49779 223.92758 229.98738 233.10718 235.60578 241.03557 246.46537 251.89516 255.85495 258.97477 264.82456 271.72438 277.15419 279.65278 285.50257 288.83238 291.36006 295.13337 301.84666 307.08995 309.36006 312.46757 317.88508 323.93257 329.35008 334.76759 340.1851 343.5026 345.9701 354.3276 360.7951 366.21263 371.63014 376.20765 381.62516 387.04267 389.51017 396.60768 403.49519 409.96269 415.3802">plants around you and cut vertical sections of the leaves. Observe under</tspan><tspan y="-126.72006" x="60.000047 64.19945 71.33885 77.008258 82.057659 92.137058 95.49645 101.165859 105.995258 112.084659 117.75406 123.42346 129.51287 136.23227 141.90167 146.95107 152.41046 157.45986 160.81926 166.90866 172.99806 179.71747 184.76686 188.33626 194.42566 199.25507 204.30446 208.50386 215.64327 221.31267 226.36206 233.08147 240.43087 247.57027 254.28968 257.64909 263.31849 268.3679 274.0373 281.1767 286.8461 293.1455 297.3449 304.4843 309.53373 315.83314 320.66255 326.75193 334.10133 341.24073 347.9601 353.00953 357.20893 364.34834 370.01774 375.06715 380.73655 387.03596 392.70536 398.37477 405.72416 409.08357 415.38298">the microscope &#x2013; look for the bundle sheath around the vascular</tspan><tspan y="-113.28006" x="60.000047 66.718349 74.06664 81.20494 87.92324 91.28154 96.949848 102.61815 106.18645 109.254749 112.323047 119.04134 126.17964 131.84795 134.91625 141.63455 146.46286 152.13117 157.79947 163.46778 170.60608 176.27439 181.94269 185.01099 191.09929 194.66759 197.73589 201.93419 209.0725 214.7408 217.8091 224.5274 231.8757 239.014 245.73232 249.09062 254.75893 257.82725 263.49555 270.63386 276.30216 282.60047 286.79878 293.93708 297.00538 305.4037 311.49198 318.84028 322.19859 328.91688 331.98518 339.12348 344.79179 348.1501 354.86839 357.93669 363.81498 369.90327 377.25157 380.31986 383.67817 390.39646 396.06477 403.20307 407.40138 410.75968 414.32798">bundles.  The presence of the bundle sheath would help you identify</tspan><tspan y="-99.60006" x="60.000047 64.10505 71.15005 76.725048 79.350048">the C</tspan></text>
<text fill="#231f20" xml:space="preserve" transform="matrix(1 0 -0 1 -18 802.8)" font-size="6.1" font-family="Bookman"><tspan y="-96.24006" x="87.12005">4</tspan></text>
<text fill="#231f20" xml:space="preserve" transform="matrix(1 0 -0 1 -18 802.8)" font-size="10.5" font-family="Bookman"><tspan y="-99.60006" x="90.960048 93.56145 100.16285 103.40425 109.585659 116.607059 120.68845 126.23985"> plants.</tspan></text>
<g clip-path="url(#clip_2097)">
<text xml:space="preserve" transform="matrix(1 0 -0 1 259.314 763.9998)" font-size="8" font-family="Arial"><tspan y="6.316" x="0"> </tspan></text>
</g>
</g>
</g>
</svg>
