<svg xmlns="http://www.w3.org/2000/svg" xmlns:xlink="http://www.w3.org/1999/xlink" xmlns:inkscape="http://www.inkscape.org/namespaces/inkscape" version="1.1" width="576" height="784.8" viewBox="0 0 576 784.8">
<defs>
<clipPath id="clip_650">
<path transform="matrix(1,0,0,-1,-18,802.8)" d="M18 18H594V802.8H18Z" clip-rule="evenodd"/>
</clipPath>
<clipPath id="clip_651">
<path transform="matrix(1,0,0,-1,259.314,763.9998)" d="M0-8H57.372V.800049H0Z"/>
</clipPath>
</defs>
<g clip-path="url(#clip_650)">
<path transform="matrix(.23999998,0,0,-.23999998,-18,802.8)" d="M0 3035.83H2550V3372.7003H0Z" fill="#d1d3d4" fill-rule="evenodd"/>
<path transform="matrix(.23999998,0,0,-.23999998,-18,802.8)" d="M0 3078.33H2550V3420H0Z" fill="#e1ecb6" fill-rule="evenodd"/>
<text fill="#231f20" xml:space="preserve" transform="matrix(1 0 -0 1 -18 802.8)" font-size="11" font-family="Bookman"><tspan y="-730.081" x="84">P</tspan></text>
<text fill="#231f20" xml:space="preserve" transform="matrix(1 0 -0 1 -18 802.8)" font-size="7.69999" font-family="Bookman"><tspan y="-730.081" x="90.72 95.24619 100.403789 106.03108">LANT</tspan></text>
<text fill="#231f20" xml:space="preserve" transform="matrix(1 0 -0 1 -18 802.8)" font-size="11" font-family="Bookman"><tspan y="-730.081" x="110.88 113.457798"> G</tspan></text>
<text fill="#231f20" xml:space="preserve" transform="matrix(1 0 -0 1 -18 802.8)" font-size="7.69999" font-family="Bookman"><tspan y="-730.081" x="122.16 127.66611 133.79592 141.18082 145.90152">ROWTH</tspan></text>
<text fill="#231f20" xml:space="preserve" transform="matrix(1 0 -0 1 -18 802.8)" font-size="11" font-family="Bookman"><tspan y="-730.081" x="152.16"> </tspan></text>
<text fill="#231f20" xml:space="preserve" transform="matrix(1 0 -0 1 -18 802.8)" font-size="7.69999" font-family="Bookman"><tspan y="-730.081" x="154.56 159.7157 165.3411">AND</tspan></text>
<text fill="#231f20" xml:space="preserve" transform="matrix(1 0 -0 1 -18 802.8)" font-size="11" font-family="Bookman"><tspan y="-730.081" x="171.6 174.17781"> D</tspan></text>
<text fill="#231f20" xml:space="preserve" transform="matrix(1 0 -0 1 -18 802.8)" font-size="7.69999" font-family="Bookman"><tspan y="-730.081" x="182.88 188.3985 193.7553 199.27379 203.84519 209.98738 214.72048 221.80207 227.32056 232.99304">EVELOPMENT</tspan></text>
<path transform="matrix(.23999998,0,0,-.23999998,482.6352,53.635194)" d="M0 0C7.32 7.32 16.16 10.98 26.52 10.98H97.35C107.71 10.98 116.55 7.32 123.87 0 131.19-7.32 134.85-16.16 134.85-26.52V-101.52C134.85-111.88 131.19-120.72 123.87-128.04 116.55-135.36 107.71-139.02 97.35-139.02H26.52C16.16-139.02 7.32-135.36 0-128.04-7.32-120.72-10.98-111.88-10.98-101.52V-26.52C-10.98-16.16-7.32-7.32 0 0" fill="#ffffff" fill-rule="evenodd"/>
<text fill="#231f20" xml:space="preserve" transform="matrix(1 0 -0 1 -18 802.8)" font-size="11" font-family="Bookman,Bold" font-weight="bold"><tspan y="-729.361" x="505.92 513.21 520.5">175</tspan></text>
<path transform="matrix(.23999998,0,0,-.23999998,-18,802.8)" d="M2 2H2548V214.67H2Z" fill="#cbdf7f" fill-rule="evenodd"/>
<path transform="matrix(.23999998,0,0,-.23999998,-18,802.8)" stroke-width="4" stroke-linecap="butt" stroke-miterlimit="1000" stroke-linejoin="miter" fill="none" stroke="#cbdf7f" d="M2 2H2548V214.67H2Z"/>
<path transform="matrix(.23999998,0,0,-.23999998,579.6,.11999512)" stroke-width="1" stroke-linecap="butt" stroke-miterlimit="10" stroke-linejoin="miter" fill="none" stroke="#000000" d="M0 0H60"/>
<path transform="matrix(.23999998,0,0,-.23999998,576.12,-18)" stroke-width="1" stroke-linecap="butt" stroke-miterlimit="10" stroke-linejoin="miter" fill="none" stroke="#000000" d="M0 0V-60"/>
<path transform="matrix(.23999998,0,0,-.23999998,579.6,784.44)" stroke-width="1" stroke-linecap="butt" stroke-miterlimit="10" stroke-linejoin="miter" fill="none" stroke="#000000" d="M0 0H60"/>
<path transform="matrix(.23999998,0,0,-.23999998,576.12,788.16)" stroke-width="1" stroke-linecap="butt" stroke-miterlimit="10" stroke-linejoin="miter" fill="none" stroke="#000000" d="M0 0V-59"/>
<path transform="matrix(.23999998,0,0,-.23999998,-17.88,-18.23999)" stroke-width="1" stroke-linecap="butt" stroke-miterlimit="10" stroke-linejoin="miter" fill="none" stroke="#000000" d="M0 0V-75"/>
<text fill="#231f20" xml:space="preserve" transform="matrix(1 0 -0 1 -18 802.8)" font-size="10.5" font-family="Bookman"><tspan y="-688.561" x="78 84.51111 91.45272 96.89283 99.34094 101.568058 108.07916 114.159778 120.67088 126.751499 133.6931 139.77371 145.21382 147.44094 149.88904 152.97714 156.27526 162.14586 168.01647 171.10457 174.19268 179.63278 186.57439 189.02249 194.4626 199.90271 205.34282 211.85393 214.94203 218.03014 224.97174 230.62186 233.70996 236.15807 242.66918 245.75728 251.19739 256.6375 262.7181 268.15824 273.59837 276.04646 281.91706 285.21516 287.66325 292.24235 295.33045 300.77058 306.2107 308.65879 314.0989 319.53904 324.97917 331.49028 334.57838 337.66648 344.6081 350.2582 355.69834 358.99644 361.44453 369.6671 375.7477 381.18785 383.63594 389.07606 395.15666 402.30827 407.74839 413.1885">The &#x2018;bakanae&#x2019; (foolish seedling) disease of rice seedlings, was caused</tspan><tspan y="-674.4" x="60 66.5856 72.3102 74.8328 80.9879 83.5105 86.883098 94.10919 101.12529 106.84989 113.00499 116.16759 118.690189 125.27579 131.4309 135.444 142.4601 148.4052 154.12979 159.6444 166.66049">by a fungal pathogen </tspan></text>
<text fill="#231f20" xml:space="preserve" transform="matrix(1 0 -0 1 -18 802.8)" font-size="10.5" font-family="Bookman,Italic" font-style="italic"><tspan y="-674.4" x="169.2 177.57302 180.69603 187.17905 193.66207 199.09508 203.6881 209.12111 212.24413 215.36714 221.43015 223.96315 227.29616 234.40917 237.53218 240.6552 247.13822 254.25122 258.84425 264.69725">Gibberella fujikuroi</tspan></text>
<text fill="#231f20" xml:space="preserve" transform="matrix(1 0 -0 1 -18 802.8)" font-size="10.5" font-family="Bookman"><tspan y="-674.4" x="267.6 270.97163 273.48075 281.13636 284.50798 287.0171 294.6727 301.8978 306.5504 312.49455 318.00816 324.16227 332.45838 338.6125 341.1216 344.28324 350.86787 357.45249 364.0371 370.62174 373.78337 376.29249 380.9451 386.4587 393.04335 398.98747 403.64009 407.6522 413.1658">. E. Kurosawa (1926) reported</tspan><tspan y="-660.481" x="60 64.04509 71.09318 76.63977 79.20805 85.39514 92.01273 98.630329 104.17692 110.364009 115.0496 121.23669 128.28478 133.83136 139.37795 141.94623 147.92333 151.32791 153.8962 159.44278 165.19937 175.23996 181.85755 185.90264 191.87973 201.92032 207.4669 210.03519 216.01229 219.41687 221.98516 226.03025 233.07834 238.62493 241.1932 247.81079 251.00539 256.55198 262.09858 268.28569 273.83229 279.37889 281.94718 285.14176 292.18986 294.75816 299.44374 302.6383 308.1849 313.7315 316.2998 321.8464 327.393 332.9396 339.5572 342.75178 345.94636 352.99446 358.75105 364.29765 366.86595 375.19505 382.24314 387.78974 394.83784 397.40614 401.45124 408.49934 414.04594">the appearance of symptoms of the disease in rice seedlings when they</tspan><tspan y="-646.561" x="60 68.331 73.8795 78.567 84.1155 87.197017 91.24401 95.93151 101.48001 107.669017 111.71601 117.26451 123.88401 126.96552 135.29653 138.49303 142.54003 149.59003 152.67153 158.22003 162.26703 167.81552 172.50302 175.69953 178.89603 184.44452 187.52602 190.93251 194.12902 197.32552 201.37252 206.06002 212.24901 216.296 221.84452 227.393 230.4745 236.4535 239.86 242.9415 246.9885 254.0385 259.587 262.66853 266.075 273.33503 280.385 286.14353 293.40354 298.95204 302.35853 305.44004 312.05955 319.10954 324.65803 327.73954 333.92854 339.47703 343.52403 346.72053 352.269 357.8175 360.89903 366.4475 373.70753 380.32704 385.87553 389.92253 396.1115 403.1615 408.71 414.25849">were treated with sterile filtrates of the fungus. The active substances</tspan><tspan y="-632.4" x="60 68.218418 73.65433 78.22924 83.66515 86.10906 89.19297 95.26938 99.20379 104.6397 109.214618 111.65852 114.74243 121.249347 126.68526 133.62267 137.55707 140.64098 143.93489 147.0188 152.45471 158.96163 161.40554 167.48195 172.91786 175.36177 181.00768 184.09159 190.5985 197.10541 202.54132 207.11623 212.55214 215.63605 218.71996 221.80387 227.23978 229.68369 235.7601 241.19602 244.27993 250.78684">were later identified as gibberellic acid.</tspan><tspan y="-618.481" x="78 81.6 85.04809 90.19617 97.28776 103.94885 110.4 116.424198 122.22788 127.37956 133.61376 140.70894 147.37363 152.52532 159.6205 162.86219 168.45587 173.60756 179.20125 185.22544 189.53812 197.9143 203.93849 208.67119 215.33588 220.92957 225.66226 231.25595 236.40764 242.43183 249.09651 254.6902 260.2839 265.0166 270.6103 276.20399 282.86869 288.02037 292.11256 299.20774 305.44194 309.53413 314.6858 318.13749 322.87019 328.89439 338.98207 344.13374 348.22593 355.3211 360.9148 366.06648 369.30818 376.40336 380.49555 386.08924 390.82194 397.9171 403.9413 410.60603 416.8402">F. Skoog and his co-workers observed that from the internodal</tspan><tspan y="-604.561" x="60 65.51691 71.03381 76.76073 86.77164 92.28854 99.30695 103.322368 108.83927 111.36418 117.31159 120.6865 123.21141 127.22682 133.17423 139.76213 145.91954 151.43645 156.95336 162.90076 165.42566 170.94257 174.95798 180.47489 190.4858 196.0027 199.37761 201.90251 205.91793 212.93634 218.45325 220.97815 226.49506 232.65247 235.81739 238.9823 246.21071 251.72762 254.25252 257.41743 263.57484 266.09974 276.11067 282.26808 287.78498 293.30189 295.82679 301.7742 305.1491 307.674 314.90245 321.92085 328.50877 331.67369 335.52 338.90159 344.42518 349.08778 354.61137 361.63645 365.65855 368.83015 374.99424 379.01634 384.53993 391.13453 393.6661 399.1897 404.7133 407.8849 411.0565 416.58009">segments of tobacco stems, the callus (a mass of undifferentiated cells)</tspan><tspan y="-590.4" x="60 66.6168 71.3016 77.2779 80.4717 83.665508 87.069309 92.615108 97.299907 103.486209 107.5305 113.0763 119.6931 123.89189 129.8682 136.9155 140.1093 145.8651 150.06388 153.25768 156.66147 160.06526 164.26404 167.45784 174.50514 178.70392 184.89022 191.50702 198.12383 201.31763 205.36193 208.55573 214.53203 221.57933 225.7781 229.8224 235.7987 239.99748 246.18378 253.44107 259.41737 262.61116 269.65846 275.20426 279.40306 283.44737 290.49467 296.04048 300.23927 307.28657 314.54386 318.58818 323.27299 326.46678 332.01258 339.05989 343.1042 348.65 352.8488 362.88859 368.4344 375.05119 378.24497 385.50227 395.54206 399.74085 408.06916 414.25547">proliferated only if, in addition to auxins the nutrients medium was</tspan><tspan y="-576.481" x="60 65.29881 72.30912 78.67893 85.048748 87.99555 93.294368 103.08717 108.38599 115.186298 118.983608 124.28242 130.65222 132.95903 141.04035 143.98715 147.78447 154.58478 156.89159 162.6209 169.4212 174.72002 177.02683 182.75614 185.91295 188.21976 192.01708 198.81739 204.1162 206.423 209.57982 215.30913 218.25594 221.20275 226.93206 235.01337 237.96018 244.76049 250.26929 253.4261 255.73291 261.0317 266.76103 270.55833 274.99613 280.93544 286.23423 290.03153 295.33033 297.63713 303.36643 306.52323 308.83003 314.1288 320.0681 325.3669 330.6657 337.67604 340.62284 346.56214 350.99995 353.30674 357.10404 360.05085 365.34965 370.64845 377.65876 382.95756 388.25636 391.41316 393.71995 399.22877 404.52757 410.46687 415.76567">supplemented with one of the following: extracts of vascular tissues, yeast</tspan><tspan y="-562.561" x="60 65.5454 71.5213 75.5652 80.2496 86.4355 91.9809 96.0248 99.4282 102.886188 108.43159 114.407489 119.95289 125.92879 132.9757 140.23259 144.27649 147.73448 157.77388 160.96729 164.16069 170.77709 174.23508 180.21099 184.89539 188.35338 196.89128 204.78868 212.04558 215.44898 218.90697 228.72586 231.91927 235.11267 238.30608 243.85147 248.53588 251.99387 257.53929 261.5832 265.0412 271.2271 274.4205 277.8239 281.28193 284.4753 291.0917 297.7081 304.3245 310.9409 314.13429 317.5377 320.9957 324.1891 330.375 334.4189 339.96434 344.6487 348.10673 351.3001 357.9165 363.4619 370.50883 374.55274 377.74613 381.14955 384.34294 389.88835 396.50474 399.96275 406.14866 413.19557">extract, coconut milk or DNA. Miller et al. (1955), later identified and</tspan><tspan y="-548.4" x="60 65.7009 70.540798 76.45169 82.15259 86.35199 92.69339 96.04229 99.39119 102.74009 108.44099 114.141887 120.91379 126.172679 130.37207 137.57447 143.27536 148.53426 154.23516 160.14606 164.34546 170.47686 177.24875 180.59766 187.80005 193.50095 199.20185 202.55075 208.25165 213.51055 220.28244 225.12235 231.25374 241.44864 247.58003 251.77944 255.12834 262.33076 268.24165 273.50053 279.84193 285.54283 289.74223 293.09114 298.79203 304.49293 309.7518 315.4527 322.8651 329.63703 335.33793 339.53733 345.87873 353.08113 358.782 364.4829 369.7418 373.9412 381.1436 387.485 391.6844 396.94328 401.14268 408.34507 414.04597">crystallised the cytokinesis promoting active substance that they</tspan><tspan y="-534.481" x="60 63.8619 69.2253 73.72771 83.585109 88.94851 95.38291 97.75431 104.18871 107.20011 114.06501 119.42841 123.29031 126.30171 133.16661">termed kinetin.</tspan><tspan y="-520.561" x="78 86.6624 94.0438 98.8527 102.1706 109.342 115.2219 120.44979 130.6137 133.9316 140.6725 145.0614 151.8023 158.54322 165.28412 172.02503 177.69493 181.22283 186.45072 190.61911 197.79051 202.59941 208.26932 213.93923 219.16712 222.48502 229.65642 236.39733 242.06723 248.80814 254.47805 261.64945 268.39036 274.06025 281.23164 285.40003 290.6279 295.4368 301.1067 306.77659 312.44648 318.75688 323.56578 329.23567 336.40705 342.07695 347.74684 352.9747 357.7836 363.4535 370.1944 376.2948 381.1037 385.2721 390.942 397.6829 402.91078 407.07917 414.25056">During mid-1960s, three independent researches reported the</tspan><tspan y="-506.4" x="60 66.61809 73.87668 78.56277 81.75786 85.16295 88.35804 93.90513 100.09272 104.13831 107.333408 113.311 120.35959 124.164669 130.35225 137.40084 144.01892 147.824 153.3711 160.41968 165.96677 176.00786 179.20294 184.75003 190.93762 194.1327 197.93779 203.48488 210.53347 216.72106 221.40715 227.59474 233.14183 237.18743 242.73451 247.42061 250.61569 256.16279 262.35038 266.39598 269.59107 275.56867 282.61726 286.42234 292.39994 295.80503 299.6101 303.6557 310.70429 315.39039 320.93748 326.48457 330.28965 336.90776 340.10285 343.50794 346.91304 352.4601 357.1462 362.6933 369.74189 373.78749 377.59257 384.21067 387.40577 394.45436 401.07246 406.61955 410.42463 416.40223">purification and chemical characterisation of three different kinds of</tspan><tspan y="-492.481" x="60 63.0876 70.0287 76.9698 80.0574 86.568 89.6556 93.593708 99.463809 104.042407 109.482 112.7796 115.2272 118.314807 125.255908 132.197 135.2846 141.79521 144.88282 148.8209 154.69101 157.44 161.5446 168.72 172.0106 174.4512 180.5243 187.02791 192.46051 197.89311 200.97371 206.40631 211.83892 214.91951 220.78261 227.7167 230.1573 234 237.4943 239.92859 245.99539 252.92319 259.4205 261.8548 268.3521 274.20893 278.77424 288.69453 291.76884 298.69664 301.98094 304.41523 311.04 317.1261 321.0702 326.51579 331.10038 333.55397 339.64006 342.73365 345.82725 348.28083 352.2249 359.17204 364.6176 367.0712 371.0153 377.9624 382.547 388.08 393.5219 395.9718 404.19624 409.63816 414.21907">inhibitors: inhibitor-B, abscission II and dormin. Later all the three were</tspan><tspan y="-478.561" x="60 66.5381 71.1442 77.0418 82.5089 87.976009 94.51411 96.989208 100.9548 106.8524 109.32751 115.86561 121.33271 123.80781 129.2749 136.2435 141.7106 151.6717 154.7868 160.2539 166.36151 169.47661 172.5917 178.2688 180.7439 183.859 190.3971 195.8642 202.8328 206.7984 209.9135 215.3806 221.4882 224.6033 227.9284 230.4035 233.9386 237.9042 240.3793 248.6289 254.73651 260.2036 262.6787 269.6473 275.7549 285.716 291.1831 297.7212 300.1963 306.3039 312.84199 318.30909 323.77619 326.8913 332.3584 335.4735 340.9406 343.4157 349.52333 354.99043 358.10554 364.64363 367.1187 370.23384 377.4124 385.2315 392.4101 395.5252">proved to be chemically identical. It was named abscisic acid (ABA).</tspan><tspan y="-464.4" x="78 86.28091 89.427318 97.70822 100.85463 103.15104 110.79145 116.51036 123.51027 128.79868 131.73509 138.52501 143.81342 146.10982 149.04624 155.40564 161.76505 168.12445 174.48386 177.42028 179.71668 185.00508 190.724 197.51392 200.66033 203.59674 208.02416 217.80657 223.09497 229.45438 231.75078 235.53769 242.3276 247.61602 249.91242 254.33983 259.62825 262.56465 267.85307 273.78199 279.0704 284.35884 286.65525 292.37416 295.52058 297.817 303.7459 306.04234 311.33076 317.04966 319.98606 325.91499 329.70188 332.63829 335.57469 340.8631 343.15953 348.44795 355.44786 361.80726 367.09568 370.88258 376.8115 383.6014 388.88984 394.17826 396.47468 399.6211 404.0485 409.7674">H.H. Cousins (1910) confirmed the release of a volatile substance from</tspan><tspan y="-450.481" x="60 64.46531 67.43962 73.83693 79.16324 85.99105 91.31736 97.71467 100.04898 105.80579 110.2711 116.237918 123.06573 128.60204 133.92835 139.25466 141.58896 145.41378 152.24158 158.20839 162.0332 164.36751 171.19532 177.16213 182.48844 186.31325 191.63956 198.46736 203.79367 210.19098 212.52529 216.3501 223.1779 228.50421 230.83852 235.30384 238.27814 244.67545 250.00176 256.82957 259.80387 266.63169 272.168 274.5023 280.2591 283.4434 285.77769 291.104 294.9288 300.6856 305.1509 310.47724 316.87455 319.20884 326.24665 333.07447 337.53977 340.51408 346.91139 352.2377 359.06553 364.39186 370.78916 373.12345 379.52076 385.48756 392.31538 398.28218 405.11 411.07679 416.4031">ripened oranges that hastened the ripening of stored unripened bananas.</tspan><tspan y="-436.561" x="60 66.28641 72.362819 76.297229 81.73314 86.30805 88.75196 92.68637 99.62378 102.70769 108.1436 110.58751 116.02342 121.88983 124.97374 131.05016 134.98456 138.06847 141.15238 146.58829 149.0322 154.46811 161.61553 168.12244 173.55835 177.49277 183.56919 190.50659 195.9425 201.37842 203.82233 212.04074 218.11716 223.55307 225.99698 229.08089 235.5878 241.02371 247.96112 251.89554 254.97945 258.27336 261.35728 266.79319 273.30009 275.744 281.8204 287.25633 289.70024 295.13615 299.07057 306.00798 311.65388 314.7378 320.1737 327.1111 332.54704 335.84095 338.28486 344.36128 346.80519 352.45109 358.5275 363.9634 369.39933 375.26576 382.41316 387.84907 390.29298 396.79988 405.22828 412.80619">Later this volatile substance was identified as ethylene, a gaseous PGR.</tspan><tspan y="-422.4" x="78 84.3326 89.814708 93.7953 96.28541 103.47901 108.96111 111.45122 116.93332 120.91392 128.10752 134.66062 140.3527 142.8428 148.3249 154.2375 164.21361 169.69571 172.1858 178.0984 181.4385 183.9286 187.90921 194.8928 200.37491 202.865 209.4181 216.4017 222.0938 227.5759 230.706 236.61859 239.74869 245.66129 251.35338 254.48348 259.96559 266.08818 269.21827 271.70835 277.19044 280.53053 283.8706 289.3527 294.83479 298.81538 304.29747 306.78755 312.70014 316.04023 318.5303 322.5109 329.4945 334.9766 340.45869 345.94078 348.43086 351.77095 354.90104 360.38313 365.8652 368.3553 373.83738 379.95997 383.94056 389.42265 395.11476 401.02735 405.64845 408.77854 414.26063">Let us study some of the physiological effects of these five categories</tspan><tspan y="-408.481" x="60 65.864 69.155498 71.59699 78.101497 86.5275 94.103 99.5365 101.978 105.059497 111.99449 114.43599 118.36799 125.302989 130.73648 133.17798 140.11298 145.54648 151.41048 155.34249 157.78398 163.21749 168.65099 174.08449 178.0165 181.09799 186.96199 193.89699">of PGRs in the next section.</tspan></text>
<text fill="#00aeef" xml:space="preserve" transform="matrix(1 0 -0 1 -18 802.8)" font-size="12" font-family="Bookman,Bold" font-weight="bold"><tspan y="-382.321" x="60 67.91541 75.830829 80.14623 88.061649 92.37705 100.292469 105.22926 110.16606 118.081478 126.47688 133.4323 140.1477 144.22312 151.41852 155.49393 162.68933 169.64475 173.72016 180.43556 187.87097 191.94638 196.88318 205.9986 210.31401 214.62943 221.34484 228.06024 233.09566 239.81107 244.74787 251.94327 256.25868 261.19548 269.11088 273.18629 280.6217 289.01713 294.05253 298.98933 309.06474 314.82014 322.01554 331.85096 336.88636 345.28178 350.21858 359.33399 366.0494 373.00483 381.64024 385.71565 393.15107 398.18647 405.38188 411.13728">13.4.3  Physiological Effects of Plant Growth Regulators</tspan></text>
<text fill="#6d6f71" xml:space="preserve" transform="matrix(1 0 -.20997243 1 -18 802.8)" font-size="10.500472" font-family="Bookman,Bold" font-weight="bold"><tspan y="-361.9203" x="-15.9932789 -9.221519 -2.4497605 1.1718598 7.943619 11.565239 18.336998 21.958619 32.009027 39.557527 47.106027 53.394464 56.95278 64.29127">13.4.3.1Auxins</tspan></text>
<text fill="#231f20" xml:space="preserve" transform="matrix(1 0 -0 1 -18 802.8)" font-size="10.5" font-family="Bookman"><tspan y="-341.7603" x="60 67.2618 74.523609 80.5044 83.702709 90.7545 96.3048 100.067607 103.26591 106.67421 111.36351 117.34431 127.38861 131.15142 139.2 143.97679 149.51999 155.06838 161.68776 165.44866 167.78404 173.97293 181.23282 187.21172 192.7601 195.9565 203.0064 205.34178 209.10268 212.50907 216.26996 220.31685 226.29575 230.05664 235.81504 240.50243 246.48133 254.81221 258.0086 261.7695 270.1004 276.2893 281.8377 285.5986 289.005 292.2014 296.88877 302.43717 306.48405 310.24494 313.4413 318.98973 324.9686 328.16499 334.35389 338.40077 343.94917 350.56855 354.32945 357.73585 362.42323 368.4021 378.4445 382.20539 389.25529 396.51518 406.55757 412.74647">Auxins (from Greek &#x2018;auxein&#x2019; : to grow) was first isolated from human</tspan><tspan y="-327.6003" x="60 67.25659 71.94068 75.13377 82.18037 87.72546 91.12855 93.804439 100.420528 107.46712 113.01221 115.688098 119.73168 125.27677 129.96086 139.99996 142.67584 145.00794 151.19353 158.45012 164.4257 167.61879 174.66538 176.99747 179.67336 182.86644 188.41153 191.08742 197.27301 203.8891 210.50519 213.69828 216.89136 222.43645 229.05254 231.72843 235.77202 241.7476 244.4235 248.46709 255.51367 261.05879 263.73466 266.92774 273.97434 280.59043 286.566 289.7591 295.3042 299.5683 306.1844 310.4485 316.63407 322.17918 327.72428 331.76786 334.96095 340.50605 343.18193 349.3675 354.9126 358.10569 364.72178 367.39765 370.59074 374.88 383.52 390.7547 393.9259 397.3071 399.9611 406.1248 413.1495">urine. The term &#x2018;auxin&#x2019; is applied to the indole-3-acetic acid (IAA), and</tspan><tspan y="-313.68034" x="60 64.1745 70.281 75.514987 81.62148 85.79598 92.97348 98.64948 103.464488 108.69847 115.87597 122.19247 126.36697 133.75447 138.56948 144.88597 148.20998 153.44397 159.76047 166.93798 173.68497 178.91896 184.59496 190.48096 197.65847 201.83296 209.01047 214.68647 218.86096 222.18497 227.86096 233.09496 238.77095 244.87746 255.04746 261.79447 267.90098 275.28849 282.46598 289.21299 294.88899 300.12297 307.30046 313.61695 319.29295 322.61695 329.79444 335.68043 340.9144 346.5904 352.2664 357.0814 361.2559 367.5724 370.8964 378.07389 383.30787 389.19386 394.00886 400.11537 408.57386 412.74836">to other natural and synthetic compounds having certain growth</tspan><tspan y="-299.7603" x="60 64.52651 69.914028 75.511539 82.61055 85.64606 91.674068 95.560077 98.59558 105.48459 111.0821 113.47761 119.93612 124.46263 130.28064 136.73915 142.12667 146.65317 150.53919 153.57469 158.9622 164.34972 167.59523 169.99074 176.44925 183.33826 188.72577 194.32328 196.71878 202.7468 207.2733 212.66082 215.05632 220.65383 226.04134 232.93035 238.31786 242.84436 248.87238 251.90789 254.94339 260.5409 262.9364 269.3949 273.92143 279.73945 286.19795 293.29695 298.68446 304.07197 310.53047 312.92597 319.38447 324.98197 327.37748 331.2635 338.1525 343.54 345.93553 351.53303 356.05955 361.87757 370.04759 373.0831 379.9721 385.5696 387.96513 393.99314 400.45164 403.48716 408.87467 414.26219">regulating properties. They are generally produced by the growing apices</tspan><tspan y="-285.6003" x="60 65.97669 69.38088 72.31588 76.36057 83.408267 88.95445 91.88945 97.43564 101.48033 107.02652 117.06671 122.6129 125.5479 131.73459 138.78227 145.39946 148.33446 153.01966 158.99634 164.97303 169.01772 174.5639 177.9681 180.90309 184.30728 188.99248 194.96916 205.00936 207.94435 216.27304 223.32073 228.86692 233.55211 239.0983 242.0333 246.07799 253.12567 258.67189 264.42808 267.3631 277.4033 280.59748 286.35368 291.03886 297.22554 301.2702 306.8164 309.7514 313.79609 319.77278 322.70777 326.75245 333.80015 339.34635 342.28138 346.96656 352.51277 358.26896 361.46315 367.43983 374.48753 380.03373 382.96876 388.94544 392.3496 395.2846 399.32929 406.37699 411.9232 415.11738">of the stems and roots, from where they migrate to the regions of their</tspan><tspan y="-271.6803" x="60 66.140018 71.63953 75.637538 78.78504 84.71505 91.71606 95.07357 97.581089 104.7921 112.00311 117.93312 121.08063 128.08164 133.58115 136.08866 139.23616 142.38367 148.95418 154.45369 156.9612 161.04001 169.44 176.64992 179.15633 185.29524 192.29515 198.86457 201.37097 204.51738 211.51729 218.0867 224.01561 227.16202 232.66043 235.16684 241.73625 248.94617 252.94309 258.6515 263.2889 266.43534 271.93376 274.44017 280.57908 286.07749 289.2239 295.7933 298.2997 301.44615 305.28 313.1362 320.3519 323.50413 326.01634 333.02204 339.16676 344.67097 350.17518 352.68739 359.26258 364.8 370.2978 377.2971 379.8029 382.9487 388.4465 394.37483 397.52064 403.65895 407.65525 413.15306">action. Auxins like IAA and indole butyric acid (IBA) have been isolated</tspan><tspan y="-257.7603" x="60 63.879899 69.0408 75.4932 86.0091 91.58899 98.68189 102.35179 109.01419 116.53759 121.05799 127.079898 130.9598 136.53969 144.91359 153.84 161.57399 167.15448 170.82498 178.34899 185.01198 192.10549 199.62949 204.15048 211.67449 218.33748 222.00798 228.03049 235.55449 241.577 247.15749 253.82048 259.843 265.86549 270.38648 274.05699 280.07948 285.65995 292.32295 298.34544 302.01594 309.10945 312.77995 318.3604 325.0234 332.5474 339.6409 345.22138 352.31489 356.19538 361.77586 368.86936 373.61085 382.62586 388.20634 391.87684 398.97035 402.85084 408.4313 415.5248">from plants. NAA (naphthalene acetic acid) and 2, 4-D (2, 4-</tspan><tspan y="-243.60031" x="60 66.47951 69.53602 74.94453 81.85454 84.91105 90.75006 95.29757 101.13658 107.61609 114.5261 119.93461 126.84462 132.68363 138.52263 144.14115 150.19016 155.59867 161.00717 164.91419 167.97069 173.3792 176.4357 178.8522 184.90122 189.44873 194.85724 197.27375 202.68225 208.30077 215.21077 219.11779 226.02779 231.4363 235.3433 238.39981 243.80832 246.22483 252.27384 259.39387 265.23289 268.2894 275.1994 280.6079 283.87443 286.29093 294.24 297.2988 300.3576 302.7764 306.6857 313.59803 319.00883 324.41963 329.8304 332.2492 338.3005 345.42283 351.26414 354.32295 361.23527 366.64607 369.06486 375.97718 382.02848 387.43928 392.85008 395.26887 401.75068 407.28 412.7153">dichlorophenoxyacetic) are synthetic auxins. All these auxins have been</tspan><tspan y="-229.68032" x="60 67.2485 72.7855 78.3225 84.930507 87.4755 93.012508 98.98 103.0155 108.552509 115.591 121.128009 124.313 129.85 135.38701 138.572 144.319 146.864 150.049 157.0875 159.63249 165.81 171.55699 176.23299 179.41799 184.95499 192.20349 195.38849 199.424 206.6725 211.3485 217.526 220.711 223.256 229.4335 236.472 243.08 245.625 252.6635 258.631 263.307 267.3425 270.5275 276.06449 283.313 286.498 290.53349 297.78199 302.45799 308.63548 311.82048 314.36546 320.97346 325.64945 331.82695 337.36393 341.3994 344.5844 350.1214 355.6584 361.19538">used extensively in agricultural and horticultural practices.</tspan><tspan y="-215.76032" x="78 84.61719 91.66488 97.21107 102.967258 105.60145 112.64914 118.19533 121.38952 128.00672 130.6409 134.6856 140.66228 143.29647 146.49065 153.53833 156.73252 160.7772 163.97139 170.15808 174.20278 179.74897 182.38315 187.06835 193.04503 199.02172 203.0664 206.26059 213.30828 219.06447 221.69866 224.89284 231.94052 234.5747 240.1209 244.16559 249.71178 259.75196 262.38615 267.93235 275.19004 279.2347 283.2794 286.47358 293.52128 299.27748 304.82368 308.22785 310.86204 317.0487 324.0964 326.73063 332.9173 339.5345 346.15168 349.34587 352.54005 358.08625 364.27293 368.3176 371.51179 377.48847 384.53617 387.17039 395.49909 398.69328 405.31047 410.85667 414.05085">They help to initiate rooting in stem cuttings, an application widely</tspan><tspan y="-201.60031" x="60 67.1286 72.5457 77.9628 84.4509 86.876 90.1511 95.9987 100.5548 102.979907 109.468 112.533107 118.590709 125.50931 129.42491 131.85 138.3381 142.89421 148.7418 155.2299 161.2875 166.91461 172.97222 176.88782 179.95291 185.8005 192.7191 195.9942 198.4193 205.5479 212.6765 218.5241 221.58919 228.50778 233.92488 236.34998 242.83808 247.39418 253.24178 263.15287 269.00047 272.91606 278.33317 280.75825 284.03334 287.09843 292.946 301.14564 306.56275 311.11885 314.18394 321.10255 326.72966 329.15473 334.57185 337.84693 343.47404 346.7491 349.1742 352.2393 359.1579 361.58299 368.07109 371.13618 378.05479 383.4719 389.52949 396.01759 402.50569 405.57078 410.98789 416.405">used for plant propagation. Auxins promote flowering e.g. in pineapples.</tspan><tspan y="-187.68032" x="60 66.615 73.6605 79.2045 84.958499 87.5105 94.556 100.1 103.292 109.907 112.459 116.5015 122.476009 125.02801 131.643 136.326 141.87001 147.41402 152.95803 160.00353 164.04602 166.598 170 174.683 181.93849 185.1305 189.17299 191.72498 197.90947 204.95497 211.56998 214.12197 217.31397 222.85797 229.04247 232.44446 234.99645 241.61145 246.29445 252.26895 258.88395 261.43595 267.62046 271.66297 274.21498 279.75898 285.94349 290.6265 293.81849 299.57249 302.12449 307.6685 311.711 317.8955 323.6495 329.1935 334.73753 337.28953 343.9045 351.16 355.2025 357.75453 364.3695 369.05253 375.027 385.065 391.0395 395.082 400.626 403.178 407.22053 414.26603">They help to prevent fruit and leaf drop at early stages but promote the</tspan><tspan y="-173.76032" x="60 66.0933 72.6171 78.0699 83.5227 86.6235 92.076297 97.52909 100.62989 106.51319 113.46749 115.92829 118.38909 124.27239 127.58319 130.04399 135.92729 139.02809 145.5519 151.0047 155.5965 158.0573 168.00409 174.0974 178.04869 185.213 189.8048 195.2576 197.7184 200.8192 206.272 212.36531 217.81812 223.27092 228.72373 231.18453 237.27783 244.23213 250.75594 253.21674 256.52754 261.11933 268.28364 271.38444 275.33573 280.7885">abscission  of older mature leaves and fruits.</tspan><tspan y="-159.60031" x="78 81.57801 88.58952 91.10754 101.11155 107.05206 112.56207 116.57058 119.08859 126.100109 129.25812 134.97814 141.98964 147.49965 152.14867 154.66667 161.24768 164.40569 170.5562 177.5677 181.57622 187.08623 190.45424 192.97225 196.98076 203.99227 209.50228 212.02028 217.7403 222.38932 228.32982 236.62233 239.78034 246.79184 252.51186 255.02986 261.18037 267.76139 270.9194 276.4294 282.57994 285.73796 288.25596 294.83699 302.05848 308.6395 311.1575 314.31553 321.32704 328.33854 331.49656 338.07759 341.2356 345.2441 350.75413 353.27214 357.28065 364.29216 369.80216 372.32017 378.04017 382.68919 388.6297 396.9222 400.93074 407.94224 410.46025 416.40077">In most higher plants, the growing apical bud inhibits the growth of</tspan><tspan y="-145.68032" x="60 64.0455 71.094 76.641 80.9603 84.1553 90.3428 94.3883 99.935298 104.62129 110.80879 114.00379 118.32309 121.51809 127.70559 133.68309 136.8781 140.0731 143.26811 149.45561 154.14162 159.89862 163.09363 167.41294 174.03093 181.28943 187.90743 193.45442 196.85942 201.17873 207.36623 211.68553 218.30353 225.35202 230.89902 237.94751 243.925 253.966 259.513 266.5615 272.539 279.5875 283.9068 289.4538 295.6413 298.8363 302.0313 307.5783 314.19633">the lateral (axillary) buds, a phenomenon called </tspan></text>
<text fill="#231f20" xml:space="preserve" transform="matrix(1 0 -0 1 -18 802.8)" font-size="10.5" font-family="Bookman,Bold" font-weight="bold"><tspan y="-145.68032" x="318.48 324.9941 331.92823 335.50233 341.3864 347.9005 351.4746 356.3087 363.2428 369.5469 379.841 383.4151 390.7692 397.2833 404.6374 410.52149">apical dominance</tspan></text>
<text fill="#231f20" xml:space="preserve" transform="matrix(1 0 -0 1 -18 802.8)" font-size="10.5" font-family="Bookman"><tspan y="-145.68032" x="416.4">.</tspan><tspan y="-131.76032" x="60 67.4279 72.713809 82.493709 88.210109 93.496 99.4224 102.3563 104.6502 110.3666 113.5105 115.8044 121.0903 127.8777 133.5941 139.3105 143.0949 145.3888 149.17319 152.10709 158.46399 163.7499 166.0438 168.97769 175.3346 180.6205 185.9064 191.83281 198.18972 201.12361 204.908 210.83441 214.6188 217.5527 223.2691 230.0565 232.9904 235.2843 242.28171 247.56761 254.56502 260.49143 263.42533 266.35923 271.85514 274.14903 278.5739 283.8598 289.1457 296.1431 299.077 302.8614 308.14729 310.44117 313.37507 320.16249 322.45637 326.24076 333.02818 338.31407 340.60795 346.10386 350.52876 356.24516 364.31355 368.09794 374.88536 377.17924 382.89564 386.03953 388.3334 391.2673 397.1937 400.9781 406.26399 410.68888 416.61528">Removal of shoot tips (decapitation) usually results in the growth of lateral</tspan><tspan y="-117.60031" x="60 66.91779 74.47608 81.393878 87.24066 92.64544 96.14023 102.96 106.4513 112.5046 120.0594 125.0417 130.88501 136.2863 143.2006 150.11492 153.81621 160.73052 167.64482 171.13613 174.83742 180.23871 183.6 187.94011 193.3397 196.8293 202.6709 208.0705 216.6946 220.18419 227.09679 232.93839 236.42798 242.47959 247.87918 254.36128 261.2739 268.1865 271.6761 275.16569 281.0073 287.9199 293.31947 296.80906 304.15217 309.55174 313.8918 319.73344 326.2155 331.61509 338.52769 342.01728 348.49937 355.84248 360.18257 366.66465 371.00474 374.49433 380.76643 388.10954 393.95115 399.3507 405.8328 413.1759">buds (Figure 13.11). It is widely applied in tea plantations and</tspan><tspan y="-103.68031" x="60 67.0491 72.5967 79.2153 84.9729 90.5205 94.7871 104.828708 111.01681 117.63541 120.83101 127.88011 133.63771 137.0433 140.5489 148.4485 154.6366 161.6857 165.1913 170.9489 176.927 184.1861 187.6917 193.2393 199.2174 205.83602 209.03162 215.21971 218.41532 225.46442 228.97002 237.30011 244.34922 250.10681">hedge-making. Can you explain why?</tspan></text>
<g clip-path="url(#clip_651)">
<text xml:space="preserve" transform="matrix(1 0 -0 1 259.314 763.9998)" font-size="8" font-family="Arial"><tspan y="6.316" x="0"> </tspan></text>
</g>
</g>
</svg>
