<svg xmlns="http://www.w3.org/2000/svg" xmlns:xlink="http://www.w3.org/1999/xlink" xmlns:inkscape="http://www.inkscape.org/namespaces/inkscape" version="1.1" width="576" height="784.8" viewBox="0 0 576 784.8">
<defs>
<clipPath id="clip_2073">
<path transform="matrix(1,0,0,-1,-18,802.8)" d="M18 18H594V802.8H18Z" clip-rule="evenodd"/>
</clipPath>
<clipPath id="clip_2074">
<path transform="matrix(.24,0,0,-.24,-18,802.8)" d="M718 1049H1281V978H718Z"/>
</clipPath>
<clipPath id="clip_2075">
<path transform="matrix(.24,0,0,-.24,-18,802.8)" d="M1252 2857H2225V2045H1252Z"/>
</clipPath>
<clipPath id="clip_2076">
<path transform="matrix(.24,0,0,-.24,-18,802.8)" d="M1305.1 2729.06C1333.27 2729.06 1356.25 2706.09 1356.25 2677.93 1356.25 2649.76 1333.27 2626.79 1305.1 2626.79 1276.92 2626.79 1253.94 2649.76 1253.94 2677.93 1253.94 2706.09 1276.92 2729.06 1305.1 2729.06Z" clip-rule="evenodd"/>
</clipPath>
<clipPath id="clip_2077">
<path transform="matrix(.24,0,0,-.24,-18,802.8)" d="M1252 2857H2225V2045H1252Z"/>
</clipPath>
<clipPath id="clip_2078">
<path transform="matrix(1,0,0,-1,259.314,763.9998)" d="M0-8H57.372V.800049H0Z"/>
</clipPath>
</defs>
<g>
<g clip-path="url(#clip_2073)">
<path transform="matrix(.24,0,0,-.24,-18,802.8)" d="M0 3035.83H2550V3372.705H0Z" fill="#d1d3d4" fill-rule="evenodd"/>
<path transform="matrix(.24,0,0,-.24,-18,802.8)" d="M0 3078.33H2550V3419.998H0Z" fill="#e1ecb6" fill-rule="evenodd"/>
<text fill="#231f20" xml:space="preserve" transform="matrix(1 0 -0 1 -18 802.8)" font-size="11" font-family="Bookman"><tspan y="-730.081" x="84">P</tspan></text>
<text fill="#231f20" xml:space="preserve" transform="matrix(1 0 -0 1 -18 802.8)" font-size="7.7" font-family="Bookman"><tspan y="-730.081" x="90.72 96.8355 102.951007 107.680507 113.796009 118.8335 123.717 129.3705 134.1 140.2155 145.715 150.7525 153.326">HOTOSYNTHESIS</tspan></text>
<text fill="#231f20" xml:space="preserve" transform="matrix(1 0 -0 1 -18 802.8)" font-size="11" font-family="Bookman"><tspan y="-730.081" x="158.4"> </tspan></text>
<text fill="#231f20" xml:space="preserve" transform="matrix(1 0 -0 1 -18 802.8)" font-size="7.7" font-family="Bookman"><tspan y="-730.081" x="160.79999 163.50328">IN</tspan></text>
<text fill="#231f20" xml:space="preserve" transform="matrix(1 0 -0 1 -18 802.8)" font-size="11" font-family="Bookman"><tspan y="-730.081" x="169.19998 171.68129"> H</tspan></text>
<text fill="#231f20" xml:space="preserve" transform="matrix(1 0 -0 1 -18 802.8)" font-size="7.7" font-family="Bookman"><tspan y="-730.081" x="180.47998 183.01218 189.08638 195.16059 200.61879">IGHER</tspan></text>
<text fill="#231f20" xml:space="preserve" transform="matrix(1 0 -0 1 -18 802.8)" font-size="11" font-family="Bookman"><tspan y="-730.081" x="206.15998 208.70128"> P</tspan></text>
<text fill="#231f20" xml:space="preserve" transform="matrix(1 0 -0 1 -18 802.8)" font-size="7.7" font-family="Bookman"><tspan y="-730.081" x="215.51998 220.08818 225.27239 230.91858 235.64078">LANTS</tspan></text>
<path transform="matrix(.24,0,0,-.24,482.6352,53.635194)" d="M0 0C7.32 7.32 16.16 10.98 26.52 10.98H97.35C107.71 10.98 116.55 7.32 123.87 0 131.19-7.33 134.85-16.17 134.85-26.52V-101.52C134.85-111.88 131.19-120.72 123.87-128.04 116.55-135.36 107.71-139.02 97.35-139.02H26.52C16.16-139.02 7.32-135.36 0-128.04-7.32-120.72-10.98-111.88-10.98-101.52V-26.52C-10.98-16.17-7.32-7.33 0 0" fill="#ffffff" fill-rule="evenodd"/>
<text fill="#231f20" xml:space="preserve" transform="matrix(1 0 -0 1 -18 802.8)" font-size="11" font-family="Bookman"><tspan y="-729.361" x="505.92 513.21 520.5">139</tspan></text>
<path transform="matrix(.24,0,0,-.24,-18,802.8)" d="M2 2H2548V214.668H2Z" fill="#cbdf7f" fill-rule="evenodd"/>
<path transform="matrix(.24,0,0,-.24,-18,802.8)" stroke-width="4" stroke-linecap="butt" stroke-miterlimit="1000" stroke-linejoin="miter" fill="none" stroke="#cbdf7f" d="M2 2H2548V214.668H2Z"/>
<path transform="matrix(.24,0,0,-.24,579.6,.11999512)" stroke-width="1" stroke-linecap="butt" stroke-miterlimit="10" stroke-linejoin="miter" fill="none" stroke="#000000" d="M0 0H60"/>
<path transform="matrix(.24,0,0,-.24,576.12,-18)" stroke-width="1" stroke-linecap="butt" stroke-miterlimit="10" stroke-linejoin="miter" fill="none" stroke="#000000" d="M0 0V-60"/>
<path transform="matrix(.24,0,0,-.24,579.6,784.44)" stroke-width="1" stroke-linecap="butt" stroke-miterlimit="10" stroke-linejoin="miter" fill="none" stroke="#000000" d="M0 0H60"/>
<path transform="matrix(.24,0,0,-.24,576.12,788.16)" stroke-width="1" stroke-linecap="butt" stroke-miterlimit="10" stroke-linejoin="miter" fill="none" stroke="#000000" d="M0 0V-59"/>
<path transform="matrix(.24,0,0,-.24,-17.88,-18.23999)" stroke-width="1" stroke-linecap="butt" stroke-miterlimit="10" stroke-linejoin="miter" fill="none" stroke="#000000" d="M0 0V-75"/>
<path transform="matrix(.24,0,0,-.24,-18,802.8)" d="M250 970H1749.16V1065.8359H250Z" fill="#fffac2" fill-rule="evenodd"/>
<text fill="#231f20" xml:space="preserve" transform="matrix(1 0 -0 1 -18 802.8)" font-size="10.5" font-family="Bookman"><tspan y="-688.561" x="60 65.4275 71.905 77.3325 82.13 88.1875 98.655 102.954998 109.0125 115.49 122.597499 128.025 131.77249 137.2 141.9975 145.745 152.8525 158.90999 163.20999 169.68749 173.64499 177.94499 184.00249 190.47998 195.27748 201.75498 207.81247 214.91997 219.71747 226.19496 236.66246 242.71996 248.14746">system consisting of cytochromes </tspan></text>
<text fill="#231f20" xml:space="preserve" transform="matrix(1 0 -0 1 -18 802.8)" font-size="10.5" font-family="Bookman"><tspan y="-688.561" x="252.48 255.605 262.3 265.425 271.06999 278.18498 282.77998">(Figure</tspan><tspan y="-674.401" x="60 66.438 72.87601 76.16401 82.60201 85.680019">11.5).</tspan></text>
<text fill="#231f20" xml:space="preserve" transform="matrix(1 0 -0 1 -18 802.8)" font-size="10.5" font-family="Bookman"><tspan y="-674.401" x="89.04"> </tspan></text>
<text fill="#231f20" xml:space="preserve" transform="matrix(1 0 -0 1 -18 802.8)" font-size="10.5" font-family="Bookman"><tspan y="-674.401" x="91.68 98.1237 104.987407 108.071109 113.464809 115.91851 125.72221 131.53592 136.92963 142.32334 152.12703 157.52074 164.38443 168.30814 170.76184 176.57555 179.86925 182.32295 187.71666 190.80036 196.19406 201.58777 205.51148 210.06517 215.87888 222.74257 228.13628 230.58998 233.67368 239.06739 241.52109 247.96479 253.77849 261.9022 268.7659 275.6296 278.71333 281.79704 284.88075">This movement of electrons is downhill,</tspan><tspan y="-660.481" x="60 63.1531 70.0862 74.582599 78.5757 84.0388 88.6619 98.535 103.99811 108.49451 114.37761 117.74071 122.23711 128.3302 135.2633 139.7597 145.6428 151.52591 154.67902 161.19213 167.28522 171.27832 174.43143 180.31453 187.24764 191.45073 196.07382 201.53693 208.05004 215.19313 220.65624 224.64934 227.80245 233.68555 240.61865 245.11505 250.99816 255.62125 260.11766 264.74076 270.20387 276.71696 282.60005">in terms of an oxidation-reduction or redox</tspan><tspan y="-646.56106" x="60 66.5107 72.391399 76.382099 81.8428 88.7735 92.7642 95.9149 102.0056 105.1563 107.702709 113.16341 118.62411 124.714809 127.86551 133.3262 136.6869 139.2333 145.744 152.6747 158.13539 160.6818 166.14249 169.29319 174.75388 180.21457 184.20528 188.82598 194.70668 201.63738 207.09807 209.64447 215.73517 220.35587 225.81656 228.36296 235.29366 241.17436 245.16507 247.71147 254.85218 260.31288 265.77357 272.28428 274.83067 281.97135">potential scale. The electrons are not used up</tspan><tspan y="-632.40109" x="60 66.0917 71.5534 75.6734 79.6651 86.5968 92.0585 97.7302 101.850208 108.36191 114.453609 119.915309 125.37701 129.49701 133.48871 140.42041 145.04212 150.92382 158.0655 163.73722 170.66892 174.78891 178.78061 185.71231 191.17401 195.294 200.7557 203.90741 209.36911 214.83081 218.82251 223.44422 229.32592 236.25762 240.37761 244.36931 248.99102 255.08272 262.0144 267.4761 273.9878 279.8695 284.4912">as they pass through the electron transport</tspan><tspan y="-618.4811" x="60 65.461 72.392 78.483 81.634 88.565 91.926 95.912 102.423007 109.564 113.555 117.541 123.632 128.253 133.714 137.70001 144.21102 150.30202 155.76302 161.22402 166.68502 173.19602 177.182 183.063 189.994 193.98001 197.97101 203.852 207.83802 211.82901 218.76001 224.22101 228.207 234.718 237.869 243.54001 253.41101 258.872 265.803 269.794 275.255 279.241 285.122">chain, but are passed on to the pigments of</tspan><tspan y="-604.5611" x="60 66.5109 73.4418 79.3227 83.3136 89.194499 94.655399 100.326297 105.78719 109.77809 115.23899 125.10989 128.4083 134.91919 141.85009 145.14849 148.71939 152.08029 155.3787 162.30959 165.46048 175.33138 182.47228 185.62317 189.61408 195.70497 202.63587 208.09677 213.97768 221.11858 226.57949 229.73038 235.40128 238.76218 242.06058 247.52149 250.67238 256.13328 261.59419 265.58509 270.206 276.08689 283.0178">photosystem PS I. Simultaneously, electrons</tspan><tspan y="-590.4011" x="60 63.1504 70.080799 73.368999 77.3594 84.289798 89.7502 93.0384 97.6588 103.1192 109.2096 114.670009 118.66041 121.81081 127.69121 134.62162 137.9098 143.37021 148.83061 155.76102 159.75142 164.37183 169.83223 173.12042 179.00083 182.36122 185.64942 192.15982 199.09023 202.37842 205.94882 209.23702 215.32743 219.94783 225.40824 228.69643 234.78684 237.93724 243.39765 249.27805 252.56624 258.02665 263.90705 269.36744 272.51783 276.5082 281.9686">in the reaction centre of PS I are also excited</tspan><tspan y="-576.48117" x="60 68.1889 75.117809 80.576709 87.50561 90.12171 94.11061 101.03951 106.49841 112.16731 114.78342 119.40231 124.86121 130.32012 135.77902 138.92792 144.38681 149.8457 152.4618 157.0807 162.53961 169.04851 171.66461 174.8135 177.9624 183.6313 190.5602 194.5491 197.1652 203.04412 206.40302 209.01912 217.20803 223.29692 228.75583 234.21472 237.36362 242.82251 249.7514 255.4203 259.4092 266.3381 268.9542 275.4631 281.97203">when they receive red light of wavelength 700</tspan><tspan y="-562.56118" x="60 66.9295 76.798999 81.14179 87.23129 94.16079 100.67029 105.013088 111.102588 115.722087 121.18159 125.52438 129.51389 134.13339 140.2229 147.1524 152.61191 155.9714 161.43091 166.05042 170.66992 176.12943 182.63893 186.98174 190.97124 196.85074 201.19355 207.28305 214.21256 220.09206 224.08156 231.01107 236.47057 241.09008 245.43288 251.52237 256.98188 262.44139 267.90089 274.41038 278.39988 283.85939">nm and are transferred to another accepter</tspan><tspan y="-548.4012" x="60 69.8714 75.7528 78.9042 84.3656 89.827 96.96841 100.119808 105.58121 109.6676 113.659008 120.59041 126.68181 130.6732 134.75962 141.69101 147.78241 153.2438 157.33022 163.42162 167.50803 173.17943 177.80083 183.26222 189.35363 193.34502 198.80641 203.42781 207.51422 212.13562 217.59702 224.10842 229.9898 235.8712 239.95761 246.46901 252.3504 256.3418 261.8032 268.7346 272.72599 275.87739 281.96879 285.12019">molecule that has a greater redox potential.</tspan><tspan y="-534.4812" x="60 66.2711 72.962207 78.183307 83.4044 88.6255 90.91331 96.13441 99.04551 104.26661 109.48771 113.23881 117.61991 123.26101 129.9521 135.1732 137.461 141.2121 147.9032 153.1243 159.8154 162.1032 167.9543 172.3354 177.5565 179.8443 189.4754 195.1165 200.3376 205.5587 211.8298 214.1176 220.3887 226.0298 233.9809 240.672 247.3631 250.2742 253.1853 256.0964 258.3842 264.2353 269.66639 275.5175 278.4286 285.1197">These electrons then are moved downhill again,</tspan><tspan y="-520.5612" x="60 63.984 70.908008 74.052 79.506008 82.4672 86.4512 89.5952 99.4592 104.9132 107.8744 111.8584 117.7324 120.693599 126.777599 129.73879 139.60279 145.47678 148.62078 154.07477 159.52877 166.66277 169.80677 175.26076 178.22196 184.09595 187.44995 190.41115 195.86515 202.78914 208.24314 212.85713 218.52114 224.18514 228.37914 232.99314 236.13713 241.59113 248.51512 251.47632 259.24034 266.37434 274.76835">this time to a molecule of energy-rich NADP</tspan></text>
<text fill="#231f20" xml:space="preserve" transform="matrix(1 0 -0 1 -18 802.8)" font-size="6.1" font-family="Bookman"><tspan y="-523.9212" x="281.28">+</tspan></text>
<text fill="#231f20" xml:space="preserve" transform="matrix(1 0 -0 1 -18 802.8)" font-size="10.5" font-family="Bookman"><tspan y="-520.5612" x="285.12">.</tspan><tspan y="-506.4012" x="60 66.4107 73.2414 78.602108 81.02951 87.02021 93.43091 99.841609 102.8923 106.783008 109.8337 115.6144 122.44511 124.87251 130.65322 133.91391 136.34131 140.23201 147.06272 152.42342 157.78412 163.14482 165.57222 170.93292 173.98363 179.34433 184.70503 188.59574 193.11644 198.89714 205.72785 211.08855 213.51595 218.03665 223.39736 229.80806 236.84876 242.20946 247.57016 252.93087 255.35826 263.02897 270.06968 278.37037">The addition of these electrons reduces NADP</tspan></text>
<text fill="#231f20" xml:space="preserve" transform="matrix(1 0 -0 1 -18 802.8)" font-size="6.1" font-family="Bookman"><tspan y="-510.00123" x="284.64">+</tspan></text>
<text fill="#231f20" xml:space="preserve" transform="matrix(1 0 -0 1 -18 802.8)" font-size="10.5" font-family="Bookman"><tspan y="-492.48124" x="60.000017 63.898218 69.68642 72.12132 79.79952 86.847728 95.15593 101.57413 109.882328 112.31723 118.52543 120.960338">to NADPH + H</tspan></text>
<text fill="#231f20" xml:space="preserve" transform="matrix(1 0 -0 1 -18 802.8)" font-size="6.1" font-family="Bookman"><tspan y="-495.84123" x="129.36002">+</tspan></text>
<text fill="#231f20" xml:space="preserve" transform="matrix(1 0 -0 1 -18 802.8)" font-size="10.5" font-family="Bookman"><tspan y="-492.48124" x="132.96002 136.22103 138.64873 141.07643 147.48743 154.31842 157.36942 162.73043 165.15813 173.24913 180.08013 185.86113 188.91213 194.27313 196.70084 202.06185 207.42285 214.25385 219.61486 229.38585 234.74686 237.17456 242.95557 246.21657 248.64427 252.53528 257.05628 263.04728 269.87828 275.23927 278.50025 283.86125">.  This whole scheme of transfer</tspan><tspan y="-478.56123" x="60.000024 65.87982 69.239627 72.44312 77.90292 81.05273 86.51253 91.97233 95.96213 100.581928 106.46172 113.391529 118.851329 122.21113 125.41463 130.87442 134.86423 140.95403 145.57382 149.56363 152.71343 159.64322 165.31302 168.51653 171.87633 176.49613 182.37593 192.24573 195.44924 199.43904 206.36884 211.82865 215.03215 221.54195 228.47174 231.67525 235.24504 238.81484 242.17464 245.37815 252.51795 259.02775 265.95756 269.10737 272.25718 275.40699 278.61048 282.60029">of electrons, starting from the PS II, uphill to</tspan><tspan y="-464.4012" x="60.000024 63.752126 70.44423 75.66633 77.95513 83.807239 89.029338 94.251438 99.47353 105.745639 109.497737 115.13983 118.80002 121.924419 124.215518 130.48992 136.13431 144.08872 150.78311 153.07422 156.82862 163.52301 168.7474 171.03852 176.26291 179.1773 184.4017 189.6261 193.3805 197.76502 203.40772 210.10042 212.38982 216.14252 220.52523 226.37793 233.07064 238.29334 244.56604 250.20874 254.59145 258.34416 260.63356 265.85624 272.54893 278.4016 281.3143">the acceptor, down the electron transport chain</tspan><tspan y="-450.4812" x="60.000017 64.07142 70.03282 75.15272 81.74412 88.755519 93.87541 97.52681 100.96821 106.088108 111.6295 117.590908 123.1323 126.3637 130.4351 136.6065 140.6779 143.9093 149.8707 156.8821 162.002 167.9634 171.4048 176.5247 182.0661 185.2975 190.8389 196.3803 200.45169 205.15309 211.11449 218.12589 223.66728 227.10869 232.22859 236.29999 241.00139 247.17279 254.18419 259.7256 263.167 268.7084 273.4098 278.5297 282.6011">to PS I, excitation of electrons, transfer to</tspan><tspan y="-436.5612" x="60.000017 66.075717 72.99142 78.85712 82.83282 89.74852 95.19422 99.79992 102.30992 108.38562 113.83132 119.27702 124.722728 131.21843 135.19412 141.05983 144.96002 148.30413 150.81253 156.88663 163.80072 170.29482 172.80323 176.14733 179.28142 186.19551 192.2696 195.4037 198.5378 204.1919 206.7003 213.1944 219.0585 227.2326 234.1467 236.6551 243.5692 246.7033 249.83739 252.97148 255.47989 259.45399 265.31809 267.82649 275.58058 282.70466 291.08876">another acceptor, and finally down hill to NADP</tspan></text>
<text fill="#231f20" xml:space="preserve" transform="matrix(1 0 -0 1 -18 802.8)" font-size="6.1" font-family="Bookman"><tspan y="-439.92118" x="297.60005">+</tspan></text>
<text fill="#231f20" xml:space="preserve" transform="matrix(1 0 -0 1 -18 802.8)" font-size="10.5" font-family="Bookman"><tspan y="-436.5612" x="301.20005 303.78007 308.40007 313.84358 320.33708 327.46058 332.90409 336.0376 342.9511 348.6046 351.10813 354.24165 358.21516 360.71867 364.69218 370.55567 373.05918 380.81269 387.9362 396.3197 402.8132 411.19673 413.70024"> reducing it to NADPH +</tspan><tspan y="-422.40119" x="60.00006">H</tspan></text>
<text fill="#231f20" xml:space="preserve" transform="matrix(1 0 -0 1 -18 802.8)" font-size="6.1" font-family="Bookman"><tspan y="-426.0012" x="68.40006">+</tspan></text>
<text fill="#231f20" xml:space="preserve" transform="matrix(1 0 -0 1 -18 802.8)" font-size="10.5" font-family="Bookman"><tspan y="-422.40119" x="72.00006 75.08866 78.24226 83.705867 86.794467 92.258068 98.35166 101.505268 104.65887 110.12247 116.63607 119.72467 123.71827 130.65187 136.11548"> is called the </tspan></text>
<text fill="#231f20" xml:space="preserve" transform="matrix(1 0 -0 1 -18 802.8)" font-size="10.5" font-family="Bookman"><tspan y="-422.4006" x="139.20401 145.99971 149.29541 154.83112 160.99681 168.21251 174.3782 184.9539">Z scheme</tspan></text>
<text fill="#231f20" xml:space="preserve" transform="matrix(1 0 -0 1 -18 802.8)" font-size="10.5" font-family="Bookman"><tspan y="-422.4006" x="191.04001 194.3939 197.4621 203.966 211.0999 216.5538 219.622 223.6059 229.4798 232.54799 235.6919 239.6758 245.1297 248.19789 253.6518 260.57569 266.65959 271.27348 277.35737 282.81126 286.79515 292.24903 296.8629 302.3168 306.3007 309.44459 314.89848 317.96669 323.42057 330.34446 336.42835 342.93226 348.38615 351.45436 354.59825 361.31214 364.45603 370.11994 377.25386 381.86775 387.32164 390.38984 396.89375 403.39765 406.75157 413.25547 416.39936">, due to its characterstic shape (Figure 11.5).</tspan><tspan y="-408.4806" x="60.000017 66.506717 73.43341 76.58011 82.03681 84.572109 90.02881 96.955509 103.042209 109.548908 115.00561 117.5409 120.6876 126.1443 128.67961 132.03632 137.91301 142.52971 152.39641 157.8531 164.3598 166.89511 175.08182 182.00852 187.46521 194.3919 196.92722 203.01392 206.16062 209.30731 211.84262 215.82932 222.75601 228.2127 230.74802 236.20471 242.29141 246.90811 251.52481 254.67151 260.1282 264.7449 270.2016 272.73689 278.82359 283.44029 288.89698 291.43226 297.93898 301.08567 307.17237 312.62907 318.08576 324.59248 327.12776 330.27445 337.20115 339.73643 345.82313 348.3584 353.8151 359.2718 365.3585 372.49519 377.95188 384.87858 390.33528 395.79197 398.32725 404.20396 411.13066 413.66593">This shape is formed when all the carriers are placed in a sequence on a</tspan><tspan y="-394.56059" x="60.000017 64.572917 69.98582 76.448719 82.28162 88.11452 90.60242 97.065319 102.89822 106.84112 112.25402 119.13692 123.07982 126.18272 132.22562 135.32852 137.81642 143.22933 148.64223 154.68514 157.78804 163.20095">redox potential scale.</tspan></text>
<text fill="#00aeef" xml:space="preserve" transform="matrix(1 0 -0 1 -18 802.8)" font-size="12" font-family="Bookman"><tspan y="-368.16059" x="60.000017 68.35201 76.70401 81.21601 89.56801 94.08001 108.000019 115.93822 123.63641 127.73461 132.07282 137.61101 143.1492 147.4874 155.66559 162.64379 167.06699 174.52519 179.1034 183.5266 194.8248 201.803 207.34119 214.31938">11.6.1Splitting of Water</tspan></text>
<text fill="#231f20" xml:space="preserve" transform="matrix(1 0 -0 1 -18 802.8)" font-size="10.5" font-family="Bookman"><tspan y="-348.00059" x="60.000017 66.000019 71.860019 78.98002 81.495029 89.66502 95.525028 102.64503 105.775028 112.26502 114.78003 118.75003 125.660037 131.10004 138.01004 140.52504 146.59505 152.03505 158.52506 161.86505">You would then ask, </tspan></text>
<text fill="#231f20" xml:space="preserve" transform="matrix(1 0 -0 1 -18 802.8)" font-size="10.5" font-family="Bookman" font-style="italic"><tspan y="-348.00059" x="164.64002 173.09362 178.81722 188.11081 190.47281 197.24642 202.97002 208.69362 214.41722 216.77922 223.13283 229.90644 232.26844 235.68204 239.09564 241.45764 247.18125 253.74485 260.09846 266.45207 269.44566 275.79927 278.16127 283.88487 286.87846 292.60206 297.69566 301.31925 305.52003 311.39073 318.1014 323.9721 326.4812 331.7219 337.5926 344.30329 348.07398 351.21467 357.92536 364.63606 370.50675 377.21745 383.08815 386.22883 392.72953">How does PS II supply electrons continuously?</tspan></text>
<text fill="#231f20" xml:space="preserve" transform="matrix(1 0 -0 1 -18 802.8)" font-size="10.5" font-family="Bookman"><tspan y="-348.00059" x="398.40003 400.8933 407.3866 414.2999"> The</tspan><tspan y="-334.08058" x="60.00003 65.40293 68.495838 73.898738 79.301639 83.234539 87.79744 93.62034 100.49324 105.89614 108.36274 112.29564 119.16854 125.20144 129.13434 131.60094 139.73384 145.13675 149.69965 155.10254 157.56914 167.38204 173.20494 178.60785 184.01074 190.46364 192.93024 196.23314 200.79604 206.61894 216.43184 218.89844 225.35134 232.22423 238.04714 241.98004 247.80295 253.20584 258.81877 264.22166 268.15455 273.55744 283.37034 285.8369 289.34983 292.86274 295.3293 305.1422 312.2251 317.628 321.56089 324.02748 330.48039 335.88328 338.34986 342.91276 348.31565 354.76856 357.86146 363.89436 369.29725 374.70014 381.15306 384.45594 386.92253 393.37544 400.24833 403.34123 408.7441 411.2107 414.3036">electrons that were moved from photosystem II must be replaced. This is</tspan><tspan y="-320.16056" x="60.00003 66.08513 71.54023 78.46533 81.610439 87.06554 92.52064 97.97574 104.480838 107.217739 113.72284 119.38794 122.12484 127.57994 130.72504 136.18013 141.63523 145.62033 150.23543 156.11434 163.04323 168.50214 171.24285 177.33174 182.79065 188.87955 192.02845 195.17734 201.26624 207.77513 210.92403 216.38294 219.12364 225.63254 232.77144 238.23035 240.97106 244.95996 250.83887 253.57958 259.03849 265.5474 268.6963 271.84519 275.83409 279.82298 282.97187 289.90077 295.56968 298.31037 304.18928 307.54817 310.28886 318.47776 324.56666 328.55555 334.01445 338.16004 341.51264 344.24705 350.74964 357.67225 363.12486 365.85926 371.31187 377.81446 380.95707 384.09968 388.08229 392.06489 395.2075 402.1301 407.7927 410.5271 416.3997">achieved by electrons available due to splitting of water. The splitting of</tspan><tspan y="-306.00056" x="60.00003 68.00403 73.90803 77.71203 82.98603 87.42003 89.76223 92.72623 98.00023 100.34243 106.24643 111.52043 116.79443 122.488437 127.762439 130.72644 136.63045 140.43445 145.70845 152.03246 154.37465 162.37865 165.34265 169.14665 175.89066 178.23285 182.03685 188.78086 194.05486 196.39705 202.72106 209.46506 211.80725 215.19126 218.57526 221.74925 224.09145 232.09545 237.99945 241.80345 247.07746 251.51146 253.85366 256.81767 262.09165 264.43388 269.70787 276.03187 278.99586 281.95985 285.76383 288.10606 291.07005 297.81404 301.618 307.312 309.84004 316.80003">water is associated with the PS II; water is split into 2H</tspan></text>
<text fill="#231f20" xml:space="preserve" transform="matrix(1 0 -0 1 -18 802.8)" font-size="6.1" font-family="Bookman"><tspan y="-309.60057" x="324.96003">+</tspan></text>
<text fill="#231f20" xml:space="preserve" transform="matrix(1 0 -0 1 -18 802.8)" font-size="10.5" font-family="Bookman"><tspan y="-306.00056" x="328.56004 331.73844 334.06684 337.03526 345.25367 348.22209 350.55049 356.45887 363.20729 369.53569 371.86408 377.1425 380.1109 385.3893 390.66773 394.47615 398.91456 404.61296 411.36137 416.63978">, [O] and electrons.</tspan><tspan y="-292.08055" x="60.00003 66.508937 73.437839 76.58674 82.04564 86.77954 92.23844 96.857349 102.316249 108.40514 112.39404 117.85294 123.311847 128.04575 133.92465 139.80356 145.47246 151.14136 156.60025 163.52915 166.88805 171.62195 177.50086 184.42975 189.88864 194.62255 200.50145 203.86035 208.59426 212.58316 219.51206 224.97095 229.70485 236.63375 242.09265 246.08156 250.81546 257.32438 261.94328 267.82218 274.3311 281.46998 286.92887 290.91777 296.37666 301.11054 306.98945 310.34834 315.0822 321.59114 328.52003 334.39894 338.38783 344.26673 349.72563 355.39454 362.32344 366.31233 373.2412 378.7001 384.159 387.3079 392.76679 396.12568 400.85957 407.36848 414.29737">This creates oxygen, one of the net products of photosynthesis. The</tspan><tspan y="-278.16053" x="60.00003 65.20313 68.09623 73.29933 78.50243 82.235538 86.59863 92.22173 98.89484 104.09794 106.36604 113.03915 118.24225 123.44535 129.69846 134.90155 141.15465 143.42275 147.15584 152.77893 155.04703 159.41013 164.61322 170.86632 173.75942 179.59252 184.79561 189.9987 192.2668 195.9999 202.67299 208.29608 213.49918 218.70227 220.97037 225.33347 230.53656 240.14966 245.77277 250.97586 256.17897 262.43208 264.70018 267.80326 272.16636 277.78947 287.40257 289.67066 295.92378 302.59687 308.21998 311.95307 317.57618 322.77928 328.19236 333.39546 337.12855 342.33164 351.94474 354.21284 357.52595 359.79405 365.62715 369.99024 375.19334 377.46144 383.71455 388.07765 393.70075 398.90385 401.79695 408.05006 413.25315">electrons needed to replace those removed from photosystem I are provided</tspan><tspan y="-264.00053" x="60.00003 66.50943 72.17883 75.213237 81.72263 88.65203 94.53143 98.520839 104.40024 109.85964 115.529048 120.98845 124.97785 130.43726 140.30666 143.34107 146.91046 150.47986">by photosystem II.</tspan></text>
<g clip-path="url(#clip_2074)">
<text xml:space="preserve" transform="matrix(.9992497 0 -0 1.0007508 -18 802.8)" font-size="10.517102" font-family="Bookman"><tspan y="-239.5813" x="173.89057 237.29595 289.4136">244</tspan></text>
<text xml:space="preserve" transform="matrix(.99924966 0 -0 1.0007508 -18 802.8)" font-size="6.0724408" font-family="Bookman"><tspan y="-236.94329" x="189.02123 275.24247">22</tspan></text>
<text xml:space="preserve" transform="matrix(.9992497 0 -0 1.0007508 -18 802.8)" font-size="10.517102" font-family="Bookman"><tspan y="-239.5813" x="180.6145 193.34487 244.02219 266.59794 296.14067">HOHOe</tspan></text>
<text xml:space="preserve" transform="matrix(.9992497 0 -0 1.0007508 -18 802.8)" font-size="10.517102" font-family="SymbolMT"><tspan y="-239.5813" x="206.31322 225.52869 216.88234 259.39286 281.96955">&#xf8e7;&#x2192;&#xf8e7;++</tspan></text>
<text xml:space="preserve" transform="matrix(.99924966 0 -0 1.0007508 -18 802.8)" font-size="6.0724408" font-family="SymbolMT"><tspan y="-244.3777" x="252.90726 301.9015">+&#x2212;</tspan></text>
</g>
<text fill="#231f20" xml:space="preserve" transform="matrix(1 0 -0 1 -18 802.8)" font-size="10.5" font-family="Bookman"><tspan y="-217.68" x="78 87.12 92.2425 94.428699 101.021198 106.14369 111.26619 117.43869 119.624889 123.27739 128.81989 131.00609 136.12859 145.66109 151.83359 158.42609 164.17859 169.30109 172.11359 177.23609 182.35858 184.54479 191.13729 196.25978 200.4 205.5224 207.7085 211.3609 217.95331 223.7057 227.35811 229.5442 233.19661 239.78902 244.91143 247.09752 254.94992 260.70234 264.35475 269.47715 273.75956 275.94566 281.06806 287.24046 290.05287 292.86528 296.51768 300.17008 302.98249 309.5749 314.9073 317.09339 322.2158 327.75819 337.2906 343.46299 346.2754 351.3978 356.9402 359.12629 361.9387 367.0611 369.2472 374.9996 380.122 385.24443 390.7868 395.9092 398.72163 404.47404 408.12644 413.24885">We need to emphasise here that the water splitting complex is associated</tspan><tspan y="-203.76" x="60 68.0838 71.1276 75.0114 81.8352 85.3676 89.251399 96.075199 101.42899 104.961399 111.3652 118.188999 121.7214 125.185199 128.649 131.9028 135.4352 143.519 150.3428 153.3866 158.7404 165.56421 169.0966 172.1404 176.0242 181.378 186.73181 189.7756 193.0294 196.5618 199.60559 204.9594 208.49179 214.89559 221.71939 227.28319 232.637 235.68079 241.03459 247.01839 250.06218 253.10597 258.66978 262.20219 265.24598 271.01979 276.37358 282.35737 286.24116 291.59495 297.99876 301.53117 307.30497 314.12876 317.66117 321.54496 328.36875 333.72254 337.25495 340.29875 347.12254 353.94633 359.3001 363.8139 367.3463 372.7001 375.7439 382.1477 387.5015 391.0339 396.8077 400.06153 403.59394 407.47773 414.3015">with the PS II, which itself is physically located on the inner side of the</tspan><tspan y="-189.59999" x="60 69.7627 75.1154 84.878108 91.28081 95.79351 101.776218 108.598918 113.951618 117.204319 122.97701 126.22971 129.4824 133.36511 140.1878 145.54051 148.79322 152.67592 159.49863 165.06133 168.10402 174.08672 180.48941 186.26212 189.30481 195.7075 198.9602">membrane of the thylakoid. </tspan></text>
<text fill="#231f20" xml:space="preserve" transform="matrix(1 0 -0 1 -18 802.8)" font-size="10.5" font-family="Bookman" font-style="italic"><tspan y="-189.59999" x="202.08 208.53 215.19 221.01001 227.76001 230.88 233.8513 242.9209 249.2605 254.7601 258.96 264.5228 267.55729 273.96009 278.16 283.9267 287.1651 290.8318 297.43849 303.20518 306.44358 312.84028 317.04 322.7687 326.3974 332.1261 338.6948 344.4235 347.6239 354.1926 360.7613 367.53999 370.7404">Then, where are the protons and O</tspan></text>
<text fill="#231f20" xml:space="preserve" transform="matrix(1 0 -0 1 -18 802.8)" font-size="6.1" font-family="Bookman" font-style="italic"><tspan y="-186.23999" x="378.72 382.7011">2 </tspan></text>
<text fill="#231f20" xml:space="preserve" transform="matrix(1 0 -0 1 -18 802.8)" font-size="10.5" font-family="Bookman" font-style="italic"><tspan y="-189.59999" x="384.24 387.93 393.72 398.16 407.385 413.04">formed</tspan><tspan y="-175.68" x="60 62.8877 65.7754 72.0231 77.6408 80.5285 86.77621 89.03821 92.55591 98.17361 100.43561 106.68331 112.30101 114.56301 118.71071 124.32841 127.21611 132.83382 139.29152 144.90923 150.52693 157.19463 159.45664 164.65433 166.91634 169.80403 176.26174 178.52375 182.04145 188.49915 194.11685 196.37886 199.26656 205.72426 214.91196 220.52967 226.8 232.56 234.8801 240.5577 244.76529 247.08539 252.76299 259.28059 261.60069 265.17829 271.6959 277.3735 279.6936 285.37123 291.88883 295.46644 301.14405 305.35166 307.67176 313.34938 316.29698 323.02458 328.70219 331.02229 336.6999 340.2775 342.5976 346.1752 352.6928 358.37043 360.69053 369.9381 375.61573 384.8633 391.1709 395.3785 401.89613 408.41374 414.09135">likely to be released &#x2013; in the lumen? or on the outer side of the membrane?</tspan></text>
<text fill="#00aeef" xml:space="preserve" transform="matrix(1 0 -0 1 -18 802.8)" font-size="12" font-family="Bookman"><tspan y="-149.51999" x="60 68.352 76.703998 81.215999 89.56799 94.079998 108 116.915 124.39 131.385 135.5 139.855 146.84999 151.11499 158.10999 166.305 174.01999 178.28499 187.19998 194.67499 202.87 207.22499 214.21999 221.69499 228.68999 232.805 237.15999 244.15499 248.41999 256.37498 264.56999 272.04499 277.59999 285.07499 289.43 297.145 305.34 312.815 319.09 326.805 335 342.475 348.03 355.505 359.62 366.615 372.16999 376.525 384">11.6.2Cyclic and Non-cyclic Photo-phosphorylation</tspan></text>
<text fill="#231f20" xml:space="preserve" transform="matrix(1 0 -0 1 -18 802.8)" font-size="10.5" font-family="Bookman"><tspan y="-129.35999" x="60 66.087207 69.02441 74.27161 77.20881 83.92601 89.38321 92.719318 98.38651 102.79372 108.250919 114.12811 120.845317 123.78252 129.02973 138.68692 143.93413 147.27024 153.98743 159.86463 165.11183 170.35904 173.69515 177.47235 184.18955 189.43675 192.77286 198.02007 203.89727 210.19446 216.07166 222.36885 225.30605 228.24324 231.18044 234.95764 240.41484 243.75095 249.41815 252.56536 255.90146 261.14866 266.81587 270.59306 275.00025 280.87745 286.12464 289.90184 292.83903 299.5562 305.01344 308.34953 313.5967 320.3139 325.5611 329.9683 335.4255 340.88273 344.2188 347.366 351.7732 357.4404 367.0976 370.4337 376.1009 381.7681 384.7053 391.0025 393.9397 399.1869 405.0641 411.3613 414.2985">Living organisms have the capability of extracting energy from oxidisable</tspan><tspan y="-115.19998" x="60 65.2192 72.1184 78.3876 83.606807 87.356 93.2052 99.8944 105.1136 110.3328 115.552 116.9962 122.8454 129.53459 135.80379 137.24799 142.4672 146.2164 151.8556 156.2348 161.45401 162.89821 166.64742 173.33661 176.2458 181.46501 182.90921 185.8184 192.5076 193.9518 197.701 204.3902 209.6094 211.0536 214.1728 219.81201 224.19121 233.8204 235.2646 240.90381 244.02301 245.46721 251.7364 257.3756 264.06483 270.334 271.77824 276.99745 283.68666 288.90586 293.28507 298.71427 304.14347 307.26268 308.70689 315.3961 321.66529 326.8845 332.1037 335.0129 340.86213 343.77134 345.21556 350.43476 357.33396 363.60316 368.82237 372.57157 378.42079 385.11 390.3292 395.5484 400.7676 402.21183 405.12104 408.03025 414.29945">substances and store this in the form of bond energy. Special substances like</tspan><tspan y="-101.27998" x="60 66.96 73.17 78.96 82.1081 84.3662 89.6143 95.4924 99.9005 104.30859 109.76669 112.024799 115.802898 122.520999 125.4591 130.7072 132.9653 138.21341 144.9315 150.1796 154.56 160.0191 165.47821 167.7373 170.6764 177.39551 179.6546 183.4337 190.1528 195.4019 198.341 202.7501 205.0092 210.2583 216.9774 222.2265 231.8856 234.8247 240.0738 245.95291 248.89202 251.15111 257.4502 263.1193 269.83839 276.13749 281.3866 284.5357 286.7948 293.0939 299.813 305.0621 307.3212 313.6203 318 323.6537 328.8874 334.1211 339.3548 344.5885 346.83219 350.5959 357.2996 361.91999 367.58 374.5 379.95 386.63999 389.09999 397.28999 404.21998 407.36997 412.82997">ATP, carry this energy in their chemical bonds. The process through which</tspan></text>
<g clip-path="url(#clip_2075)">
<path transform="matrix(.24,0,0,-.24,-18,802.8)" d="M1606.2 2403.01H1804.641V2554.186H1606.2Z" fill="#c7c4e2" fill-rule="evenodd"/>
<path transform="matrix(.24003598,0,0,-.239964,415.11375,189.7951)" stroke-width="2.115" stroke-linecap="butt" stroke-miterlimit="2.613" stroke-linejoin="miter" fill="none" stroke="#231f20" d="M0 0H-198.42V-151.2H0V0Z"/>
<path transform="matrix(.24003598,0,0,-.239964,453.03944,148.35816)" stroke-width="8.46" stroke-linecap="butt" stroke-miterlimit="2.613" stroke-linejoin="miter" fill="none" stroke="#ed1651" d="M0 0 29.79-16.36"/>
<path transform="matrix(.23999997,0,0,-.23999998,462.00959,147.23999)" d="M0 0 24.55-38.66-21.26-38.7 0 0" fill="#ed1651" fill-rule="evenodd"/>
<path transform="matrix(.23999997,0,0,-.23999998,426.04798,136.55039)" d="M0 0C64.91 0 117.85-26.29 117.85-58.53 117.85-90.76 64.91-117.05 0-117.05-64.91-117.05-117.85-90.76-117.85-58.53-117.85-26.29-64.91 0 0 0" fill="#f6adcd" fill-rule="evenodd"/>
<path transform="matrix(.24003595,0,0,-.23996398,426.04737,136.55194)" stroke-width="2.115" stroke-linecap="butt" stroke-miterlimit="2.613" stroke-linejoin="miter" fill="none" stroke="#231f20" d="M0 0C64.9 0 117.84-26.29 117.84-58.53 117.84-90.77 64.9-117.06 0-117.06-64.9-117.06-117.83-90.77-117.83-58.53-117.83-26.29-64.9 0 0 0Z"/>
<path transform="matrix(.23999994,0,0,-.23999997,430.25038,246.18479)" d="M0 0C91.18 0 165.56-25.13 165.56-55.95 165.56-86.77 91.18-111.91 0-111.91-91.19-111.91-165.57-86.77-165.57-55.95-165.57-25.13-91.19 0 0 0" fill="#d2e288" fill-rule="evenodd"/>
<path transform="matrix(.24003592,0,0,-.23996397,430.25044,246.18427)" stroke-width="2.115" stroke-linecap="butt" stroke-miterlimit="2.613" stroke-linejoin="miter" fill="none" stroke="#231f20" d="M0 0C91.17 0 165.53-25.14 165.53-55.96 165.53-86.79 91.17-111.93 0-111.93-91.18-111.93-165.54-86.79-165.54-55.96-165.54-25.14-91.18 0 0 0Z"/>
<path transform="matrix(.2399999,0,0,-.23999995,342.192,280.06556)" d="M0 0C91.19 0 165.57-25.14 165.57-55.96 165.57-86.78 91.19-111.92 0-111.92-91.19-111.92-165.56-86.78-165.56-55.96-165.56-25.14-91.19 0 0 0" fill="#9bd3ae" fill-rule="evenodd"/>
<path transform="matrix(.24003589,0,0,-.23996395,342.1932,280.06483)" stroke-width="2.115" stroke-linecap="butt" stroke-miterlimit="2.613" stroke-linejoin="miter" fill="none" stroke="#231f20" d="M0 0C91.17 0 165.54-25.15 165.54-55.97 165.54-86.8 91.17-111.94 0-111.94-91.18-111.94-165.54-86.8-165.54-55.97-165.54-25.15-91.18 0 0 0Z"/>
<path transform="matrix(.24003589,0,0,-.23996395,298.79713,174.24547)" stroke-width="8.46" stroke-linecap="butt" stroke-dasharray="42.301,8.46" stroke-miterlimit="2.613" stroke-linejoin="miter" fill="none" stroke="#ffcb04" d="M0 0 100.36-368.44"/>
<path transform="matrix(.23999988,0,0,-.23999994,327.78718,260.45759)" d="M0 0-10.77-44.58-42.67-11.62 0 0" fill="#ffcb04" fill-rule="evenodd"/>
</g>
<g clip-path="url(#clip_2076)">
<path transform="matrix(.24,0,0,-.24,295.224,147.82556)" d="M0 0C28.17 0 51.15-22.97 51.15-51.13 51.15-79.3 28.17-102.27 0-102.27-28.18-102.27-51.16-79.3-51.16-51.13-51.16-22.97-28.18 0 0 0ZM51.15-102.27V0H-51.15V-102.27ZM0-51.13H72.34C72.34-11.2 39.95 21.18 0 21.18-39.95 21.18-72.34-11.2-72.34-51.13-72.34-91.07-39.95-123.45 0-123.45 39.95-123.45 72.34-91.07 72.34-51.13" fill="#fff200"/>
<path transform="matrix(.24,0,0,-.24,295.224,160.0968)" d="M0 0H72.34C72.34 39.93 39.95 72.31 0 72.31-39.95 72.31-72.34 39.93-72.34 0-72.34-39.94-39.95-72.32 0-72.32 39.95-72.32 72.34-39.94 72.34 0" fill="#fff200"/>
<path transform="matrix(.24,0,0,-.24,295.224,160.0968)" d="M0 0H72.06C72.06 39.78 39.79 72.03 0 72.03-39.8 72.03-72.06 39.78-72.06 0-72.06-39.79-39.8-72.04 0-72.04 39.79-72.04 72.06-39.79 72.06 0" fill="#fff100"/>
<path transform="matrix(.24,0,0,-.24,295.224,160.0968)" d="M0 0H71.77C71.77 39.62 39.63 71.75 0 71.75-39.64 71.75-71.78 39.62-71.78 0-71.78-39.63-39.64-71.76 0-71.76 39.63-71.76 71.77-39.63 71.77 0" fill="#fff101"/>
<path transform="matrix(.24,0,0,-.24,295.224,160.0968)" d="M0 0H71.49C71.49 39.46 39.48 71.46 0 71.46-39.48 71.46-71.49 39.46-71.49 0-71.49-39.47-39.48-71.47 0-71.47 39.48-71.47 71.49-39.47 71.49 0" fill="#fff101"/>
<path transform="matrix(.24,0,0,-.24,295.224,160.0968)" d="M0 0H71.21C71.21 39.31 39.33 71.18 0 71.18-39.33 71.18-71.21 39.31-71.21 0-71.21-39.32-39.33-71.19 0-71.19 39.33-71.19 71.21-39.32 71.21 0" fill="#fff101"/>
<path transform="matrix(.24,0,0,-.24,295.224,160.0968)" d="M0 0H70.92C70.92 39.16 39.17 70.9 0 70.9-39.17 70.9-70.93 39.16-70.93 0-70.93-39.16-39.17-70.91 0-70.91 39.17-70.91 70.92-39.16 70.92 0" fill="#fff001"/>
<path transform="matrix(.24,0,0,-.24,295.224,160.0968)" d="M0 0H70.64C70.64 39 39.01 70.62 0 70.62-39.02 70.62-70.65 39-70.65 0-70.65-39-39.02-70.63 0-70.63 39.01-70.63 70.64-39 70.64 0" fill="#fff001"/>
<path transform="matrix(.24,0,0,-.24,295.224,160.0968)" d="M0 0H70.36C70.36 38.84 38.85 70.34 0 70.34-38.86 70.34-70.36 38.84-70.36 0-70.36-38.85-38.86-70.34 0-70.34 38.85-70.34 70.36-38.85 70.36 0" fill="#fff001"/>
<path transform="matrix(.24,0,0,-.24,295.224,160.0968)" d="M0 0H70.08C70.08 38.69 38.7 70.05 0 70.05-38.7 70.05-70.08 38.69-70.08 0-70.08-38.7-38.7-70.06 0-70.06 38.7-70.06 70.08-38.7 70.08 0" fill="#ffef01"/>
<path transform="matrix(.24,0,0,-.24,295.224,160.0968)" d="M0 0H69.79C69.79 38.53 38.54 69.77 0 69.77-38.55 69.77-69.8 38.53-69.8 0-69.8-38.54-38.55-69.78 0-69.78 38.54-69.78 69.79-38.54 69.79 0" fill="#ffef01"/>
<path transform="matrix(.24,0,0,-.24,295.224,160.0968)" d="M0 0H69.51C69.51 38.37 38.38 69.49 0 69.49-38.39 69.49-69.51 38.37-69.51 0-69.51-38.38-38.39-69.5 0-69.5 38.38-69.5 69.51-38.38 69.51 0" fill="#ffee02"/>
<path transform="matrix(.24,0,0,-.24,295.224,160.0968)" d="M0 0H69.23C69.23 38.22 38.23 69.21 0 69.21-38.24 69.21-69.23 38.22-69.23 0-69.23-38.23-38.24-69.22 0-69.22 38.23-69.22 69.23-38.23 69.23 0" fill="#ffee02"/>
<path transform="matrix(.24,0,0,-.24,295.224,160.0968)" d="M0 0H68.95C68.95 38.06 38.08 68.93 0 68.93-38.08 68.93-68.95 38.06-68.95 0-68.95-38.07-38.08-68.93 0-68.93 38.08-68.93 68.95-38.07 68.95 0" fill="#ffee02"/>
<path transform="matrix(.24,0,0,-.24,295.224,160.0968)" d="M0 0H68.66C68.66 37.91 37.92 68.64 0 68.64-37.92 68.64-68.67 37.91-68.67 0-68.67-37.91-37.92-68.65 0-68.65 37.92-68.65 68.66-37.91 68.66 0" fill="#ffee02"/>
<path transform="matrix(.24,0,0,-.24,295.224,160.0968)" d="M0 0H68.38C68.38 37.75 37.76 68.36 0 68.36-37.77 68.36-68.39 37.75-68.39 0-68.39-37.76-37.77-68.37 0-68.37 37.76-68.37 68.38-37.76 68.38 0" fill="#ffed02"/>
<path transform="matrix(.24,0,0,-.24,295.224,160.0968)" d="M0 0H68.1C68.1 37.59 37.61 68.08 0 68.08-37.61 68.08-68.1 37.59-68.1 0-68.1-37.6-37.61-68.09 0-68.09 37.61-68.09 68.1-37.6 68.1 0" fill="#ffed02"/>
<path transform="matrix(.24,0,0,-.24,295.224,160.0968)" d="M0 0H67.81C67.81 37.44 37.45 67.79 0 67.79-37.46 67.79-67.82 37.44-67.82 0-67.82-37.45-37.46-67.8 0-67.8 37.45-67.8 67.81-37.45 67.81 0" fill="#ffec02"/>
<path transform="matrix(.24,0,0,-.24,295.224,160.0968)" d="M0 0H67.53C67.53 37.28 37.29 67.51 0 67.51-37.3 67.51-67.54 37.28-67.54 0-67.54-37.29-37.3-67.52 0-67.52 37.29-67.52 67.53-37.29 67.53 0" fill="#ffec03"/>
<path transform="matrix(.24,0,0,-.24,295.224,160.0968)" d="M0 0H67.25C67.25 37.12 37.14 67.23 0 67.23-37.14 67.23-67.26 37.12-67.26 0-67.26-37.13-37.14-67.24 0-67.24 37.14-67.24 67.25-37.13 67.25 0" fill="#ffec03"/>
<path transform="matrix(.24,0,0,-.24,295.224,160.0968)" d="M0 0H66.97C66.97 36.97 36.98 66.95 0 66.95-36.99 66.95-66.97 36.97-66.97 0-66.97-36.98-36.99-66.95 0-66.95 36.98-66.95 66.97-36.98 66.97 0" fill="#ffeb03"/>
<path transform="matrix(.24,0,0,-.24,295.224,160.0968)" d="M0 0H66.69C66.69 36.81 36.83 66.66 0 66.66-36.83 66.66-66.69 36.81-66.69 0-66.69-36.82-36.83-66.67 0-66.67 36.83-66.67 66.69-36.82 66.69 0" fill="#ffeb03"/>
<path transform="matrix(.24,0,0,-.24,295.224,160.0968)" d="M0 0H66.4C66.4 36.66 36.67 66.38 0 66.38-36.67 66.38-66.41 36.66-66.41 0-66.41-36.67-36.67-66.39 0-66.39 36.67-66.39 66.4-36.67 66.4 0" fill="#ffeb03"/>
<path transform="matrix(.24,0,0,-.24,295.224,160.0968)" d="M0 0H66.12C66.12 36.5 36.51 66.1 0 66.1-36.52 66.1-66.12 36.5-66.12 0-66.12-36.51-36.52-66.11 0-66.11 36.51-66.11 66.12-36.51 66.12 0" fill="#ffea03"/>
<path transform="matrix(.24,0,0,-.24,295.224,160.0968)" d="M0 0H65.84C65.84 36.34 36.36 65.82 0 65.82-36.36 65.82-65.84 36.34-65.84 0-65.84-36.35-36.36-65.82 0-65.82 36.36-65.82 65.84-36.35 65.84 0" fill="#ffea03"/>
<path transform="matrix(.24,0,0,-.24,295.224,160.0968)" d="M0 0H65.56C65.56 36.19 36.2 65.53 0 65.53-36.21 65.53-65.56 36.19-65.56 0-65.56-36.2-36.21-65.54 0-65.54 36.2-65.54 65.56-36.2 65.56 0" fill="#ffea03"/>
<path transform="matrix(.24,0,0,-.24,295.224,160.0968)" d="M0 0H65.27C65.27 36.03 36.04 65.25 0 65.25-36.05 65.25-65.28 36.03-65.28 0-65.28-36.04-36.05-65.26 0-65.26 36.04-65.26 65.27-36.04 65.27 0" fill="#ffe904"/>
<path transform="matrix(.24,0,0,-.24,295.224,160.0968)" d="M0 0H64.99C64.99 35.88 35.89 64.97 0 64.97-35.89 64.97-64.99 35.88-64.99 0-64.99-35.89-35.89-64.98 0-64.98 35.89-64.98 64.99-35.89 64.99 0" fill="#ffe904"/>
<path transform="matrix(.24,0,0,-.24,295.224,160.0968)" d="M0 0H64.71C64.71 35.72 35.74 64.69 0 64.69-35.74 64.69-64.71 35.72-64.71 0-64.71-35.73-35.74-64.7 0-64.7 35.74-64.7 64.71-35.73 64.71 0" fill="#ffe904"/>
<path transform="matrix(.24,0,0,-.24,295.224,160.0968)" d="M0 0H64.42C64.42 35.57 35.58 64.4 0 64.4-35.58 64.4-64.43 35.57-64.43 0-64.43-35.57-35.58-64.41 0-64.41 35.58-64.41 64.42-35.57 64.42 0" fill="#ffe804"/>
<path transform="matrix(.24,0,0,-.24,295.224,160.0968)" d="M0 0H64.14C64.14 35.41 35.42 64.12 0 64.12-35.43 64.12-64.15 35.41-64.15 0-64.15-35.42-35.43-64.13 0-64.13 35.42-64.13 64.14-35.42 64.14 0" fill="#ffe804"/>
<path transform="matrix(.24,0,0,-.24,295.224,160.0968)" d="M0 0H63.86C63.86 35.25 35.27 63.84 0 63.84-35.27 63.84-63.87 35.25-63.87 0-63.87-35.26-35.27-63.85 0-63.85 35.27-63.85 63.86-35.26 63.86 0" fill="#ffe804"/>
<path transform="matrix(.24,0,0,-.24,295.224,160.0968)" d="M0 0H63.58C63.58 35.1 35.11 63.55 0 63.55-35.11 63.55-63.58 35.1-63.58 0-63.58-35.11-35.11-63.56 0-63.56 35.11-63.56 63.58-35.11 63.58 0" fill="#ffe705"/>
<path transform="matrix(.24,0,0,-.24,295.224,160.0968)" d="M0 0H63.29C63.29 34.94 34.95 63.27 0 63.27-34.96 63.27-63.3 34.94-63.3 0-63.3-34.95-34.96-63.28 0-63.28 34.95-63.28 63.29-34.95 63.29 0" fill="#ffe705"/>
<path transform="matrix(.24,0,0,-.24,295.224,160.0968)" d="M0 0H63.01C63.01 34.78 34.8 62.99 0 62.99-34.8 62.99-63.02 34.78-63.02 0-63.02-34.79-34.8-63 0-63 34.8-63 63.01-34.79 63.01 0" fill="#ffe706"/>
<path transform="matrix(.24,0,0,-.24,295.224,160.0968)" d="M0 0H62.73C62.73 34.63 34.64 62.71 0 62.71-34.65 62.71-62.73 34.63-62.73 0-62.73-34.64-34.65-62.72 0-62.72 34.64-62.72 62.73-34.64 62.73 0" fill="#ffe606"/>
<path transform="matrix(.24,0,0,-.24,295.224,160.0968)" d="M0 0H62.45C62.45 34.47 34.49 62.43 0 62.43-34.49 62.43-62.45 34.47-62.45 0-62.45-34.48-34.49-62.43 0-62.43 34.49-62.43 62.45-34.48 62.45 0" fill="#ffe607"/>
<path transform="matrix(.24,0,0,-.24,295.224,160.0968)" d="M0 0H62.17C62.17 34.32 34.33 62.14 0 62.14-34.33 62.14-62.17 34.32-62.17 0-62.17-34.32-34.33-62.15 0-62.15 34.33-62.15 62.17-34.32 62.17 0" fill="#ffe608"/>
<path transform="matrix(.24,0,0,-.24,295.224,160.0968)" d="M0 0H61.88C61.88 34.16 34.17 61.86 0 61.86-34.18 61.86-61.89 34.16-61.89 0-61.89-34.17-34.18-61.87 0-61.87 34.17-61.87 61.88-34.17 61.88 0" fill="#ffe508"/>
<path transform="matrix(.24,0,0,-.24,295.224,160.0968)" d="M0 0H61.6C61.6 34 34.02 61.58 0 61.58-34.02 61.58-61.6 34-61.6 0-61.6-34.01-34.02-61.59 0-61.59 34.02-61.59 61.6-34.01 61.6 0" fill="#ffe508"/>
<path transform="matrix(.24,0,0,-.24,295.224,160.0968)" d="M0 0H61.32C61.32 33.85 33.86 61.3 0 61.3-33.87 61.3-61.32 33.85-61.32 0-61.32-33.86-33.87-61.3 0-61.3 33.86-61.3 61.32-33.86 61.32 0" fill="#ffe509"/>
<path transform="matrix(.24,0,0,-.24,295.224,160.0968)" d="M0 0H61.03C61.03 33.7 33.7 61.02 0 61.02-33.71 61.02-61.04 33.7-61.04 0-61.04-33.7-33.71-61.02 0-61.02 33.7-61.02 61.03-33.7 61.03 0" fill="#ffe409"/>
<path transform="matrix(.24,0,0,-.24,295.224,160.0968)" d="M0 0H60.75C60.75 33.53 33.55 60.73 0 60.73-33.55 60.73-60.76 33.53-60.76 0-60.76-33.54-33.55-60.74 0-60.74 33.55-60.74 60.75-33.54 60.75 0" fill="#ffe409"/>
<path transform="matrix(.24,0,0,-.24,295.224,160.0968)" d="M0 0H60.47C60.47 33.38 33.39 60.45 0 60.45-33.4 60.45-60.47 33.38-60.47 0-60.47-33.39-33.4-60.46 0-60.46 33.39-60.46 60.47-33.39 60.47 0" fill="#ffe409"/>
<path transform="matrix(.24,0,0,-.24,295.224,160.0968)" d="M0 0H60.19C60.19 33.23 33.24 60.17 0 60.17-33.24 60.17-60.19 33.23-60.19 0-60.19-33.23-33.24-60.18 0-60.18 33.24-60.18 60.19-33.23 60.19 0" fill="#ffe309"/>
<path transform="matrix(.24,0,0,-.24,295.224,160.0968)" d="M0 0H59.9C59.9 33.07 33.08 59.88 0 59.88-33.08 59.88-59.91 33.07-59.91 0-59.91-33.08-33.08-59.89 0-59.89 33.08-59.89 59.9-33.08 59.9 0" fill="#ffe30a"/>
<path transform="matrix(.24,0,0,-.24,295.224,160.0968)" d="M0 0H59.62C59.62 32.91 32.93 59.6 0 59.6-32.93 59.6-59.63 32.91-59.63 0-59.63-32.92-32.93-59.61 0-59.61 32.93-59.61 59.62-32.92 59.62 0" fill="#ffe30a"/>
<path transform="matrix(.24,0,0,-.24,295.224,160.0968)" d="M0 0H59.34C59.34 32.76 32.77 59.32 0 59.32-32.77 59.32-59.34 32.76-59.34 0-59.34-32.77-32.77-59.33 0-59.33 32.77-59.33 59.34-32.77 59.34 0" fill="#ffe30a"/>
<path transform="matrix(.24,0,0,-.24,295.224,160.0968)" d="M0 0H59.06C59.06 32.6 32.61 59.03 0 59.03-32.62 59.03-59.06 32.6-59.06 0-59.06-32.61-32.62-59.04 0-59.04 32.61-59.04 59.06-32.61 59.06 0" fill="#ffe20a"/>
<path transform="matrix(.24,0,0,-.24,295.224,160.0968)" d="M0 0H58.78C58.78 32.45 32.46 58.75 0 58.75-32.46 58.75-58.78 32.45-58.78 0-58.78-32.45-32.46-58.76 0-58.76 32.46-58.76 58.78-32.45 58.78 0" fill="#ffe20b"/>
<path transform="matrix(.24,0,0,-.24,295.224,160.0968)" d="M0 0H58.49C58.49 32.29 32.3 58.47 0 58.47-32.3 58.47-58.49 32.29-58.49 0-58.49-32.3-32.3-58.48 0-58.48 32.3-58.48 58.49-32.3 58.49 0" fill="#ffe20b"/>
<path transform="matrix(.24,0,0,-.24,295.224,160.0968)" d="M0 0H58.21C58.21 32.13 32.15 58.19 0 58.19-32.15 58.19-58.21 32.13-58.21 0-58.21-32.14-32.15-58.2 0-58.2 32.15-58.2 58.21-32.14 58.21 0" fill="#ffe10b"/>
<path transform="matrix(.24,0,0,-.24,295.224,160.0968)" d="M0 0H57.93C57.93 31.98 31.99 57.91 0 57.91-31.99 57.91-57.93 31.98-57.93 0-57.93-31.98-31.99-57.91 0-57.91 31.99-57.91 57.93-31.98 57.93 0" fill="#ffe10c"/>
<path transform="matrix(.24,0,0,-.24,295.224,160.0968)" d="M0 0H57.64C57.64 31.82 31.83 57.62 0 57.62-31.84 57.62-57.65 31.82-57.65 0-57.65-31.83-31.84-57.63 0-57.63 31.83-57.63 57.64-31.83 57.64 0" fill="#ffe10c"/>
<path transform="matrix(.24,0,0,-.24,295.224,160.0968)" d="M0 0H57.36C57.36 31.66 31.68 57.34 0 57.34-31.68 57.34-57.37 31.66-57.37 0-57.37-31.67-31.68-57.35 0-57.35 31.68-57.35 57.36-31.67 57.36 0" fill="#ffe10c"/>
<path transform="matrix(.24,0,0,-.24,295.224,160.0968)" d="M0 0H57.08C57.08 31.51 31.52 57.06 0 57.06-31.52 57.06-57.08 31.51-57.08 0-57.08-31.52-31.52-57.07 0-57.07 31.52-57.07 57.08-31.52 57.08 0" fill="#ffe00c"/>
<path transform="matrix(.24,0,0,-.24,295.224,160.0968)" d="M0 0H56.79C56.79 31.36 31.36 56.78 0 56.78-31.37 56.78-56.8 31.36-56.8 0-56.8-31.36-31.37-56.79 0-56.79 31.36-56.79 56.79-31.36 56.79 0" fill="#ffe00d"/>
<path transform="matrix(.24,0,0,-.24,295.224,160.0968)" d="M0 0H56.51C56.51 31.2 31.21 56.49 0 56.49-31.21 56.49-56.52 31.2-56.52 0-56.52-31.2-31.21-56.5 0-56.5 31.21-56.5 56.51-31.2 56.51 0" fill="#ffe00d"/>
<path transform="matrix(.24,0,0,-.24,295.224,160.0968)" d="M0 0H56.23C56.23 31.04 31.05 56.21 0 56.21-31.06 56.21-56.23 31.04-56.23 0-56.23-31.05-31.06-56.22 0-56.22 31.05-56.22 56.23-31.05 56.23 0" fill="#ffdf0d"/>
<path transform="matrix(.24,0,0,-.24,295.224,160.0968)" d="M0 0H55.95C55.95 30.89 30.9 55.93 0 55.93-30.9 55.93-55.95 30.89-55.95 0-55.95-30.89-30.9-55.94 0-55.94 30.9-55.94 55.95-30.89 55.95 0" fill="#ffdf0d"/>
<path transform="matrix(.24,0,0,-.24,295.224,160.0968)" d="M0 0H55.67C55.67 30.73 30.74 55.65 0 55.65-30.74 55.65-55.67 30.73-55.67 0-55.67-30.74-30.74-55.66 0-55.66 30.74-55.66 55.67-30.74 55.67 0" fill="#ffdf0e"/>
<path transform="matrix(.24,0,0,-.24,295.224,160.0968)" d="M0 0H55.38C55.38 30.57 30.58 55.36 0 55.36-30.59 55.36-55.39 30.57-55.39 0-55.39-30.58-30.59-55.37 0-55.37 30.58-55.37 55.38-30.58 55.38 0" fill="#ffdf0e"/>
<path transform="matrix(.24,0,0,-.24,295.224,160.0968)" d="M0 0H55.1C55.1 30.42 30.43 55.08 0 55.08-30.43 55.08-55.1 30.42-55.1 0-55.1-30.43-30.43-55.09 0-55.09 30.43-55.09 55.1-30.43 55.1 0" fill="#ffde0e"/>
<path transform="matrix(.24,0,0,-.24,295.224,160.0968)" d="M0 0H54.82C54.82 30.26 30.27 54.8 0 54.8-30.28 54.8-54.82 30.26-54.82 0-54.82-30.27-30.28-54.81 0-54.81 30.27-54.81 54.82-30.27 54.82 0" fill="#ffde0e"/>
<path transform="matrix(.24,0,0,-.24,295.224,160.0968)" d="M0 0H54.53C54.53 30.11 30.11 54.52 0 54.52-30.12 54.52-54.54 30.11-54.54 0-54.54-30.11-30.12-54.52 0-54.52 30.11-54.52 54.53-30.11 54.53 0" fill="#ffde0f"/>
<path transform="matrix(.24,0,0,-.24,295.224,160.0968)" d="M0 0H54.25C54.25 29.95 29.96 54.23 0 54.23-29.96 54.23-54.26 29.95-54.26 0-54.26-29.96-29.96-54.24 0-54.24 29.96-54.24 54.25-29.96 54.25 0" fill="#ffde0f"/>
<path transform="matrix(.24,0,0,-.24,295.224,160.0968)" d="M0 0H53.97C53.97 29.79 29.8 53.95 0 53.95-29.81 53.95-53.97 29.79-53.97 0-53.97-29.8-29.81-53.96 0-53.96 29.8-53.96 53.97-29.8 53.97 0" fill="#ffdd0f"/>
<path transform="matrix(.24,0,0,-.24,295.224,160.0968)" d="M0 0H53.69C53.69 29.64 29.65 53.67 0 53.67-29.65 53.67-53.69 29.64-53.69 0-53.69-29.64-29.65-53.68 0-53.68 29.65-53.68 53.69-29.64 53.69 0" fill="#ffdd10"/>
<path transform="matrix(.24,0,0,-.24,295.224,160.0968)" d="M0 0H53.4C53.4 29.48 29.49 53.39 0 53.39-29.49 53.39-53.41 29.48-53.41 0-53.41-29.49-29.49-53.39 0-53.39 29.49-53.39 53.4-29.49 53.4 0" fill="#ffdd10"/>
<path transform="matrix(.24,0,0,-.24,295.224,160.0968)" d="M0 0H53.12C53.12 29.32 29.34 53.11 0 53.11-29.34 53.11-53.13 29.32-53.13 0-53.13-29.33-29.34-53.11 0-53.11 29.34-53.11 53.12-29.33 53.12 0" fill="#ffdc11"/>
<path transform="matrix(.24,0,0,-.24,295.224,160.0968)" d="M0 0H52.84C52.84 29.17 29.18 52.82 0 52.82-29.18 52.82-52.84 29.17-52.84 0-52.84-29.18-29.18-52.83 0-52.83 29.18-52.83 52.84-29.18 52.84 0" fill="#ffdc11"/>
<path transform="matrix(.24,0,0,-.24,295.224,160.0968)" d="M0 0H52.56C52.56 29.01 29.02 52.54 0 52.54-29.03 52.54-52.56 29.01-52.56 0-52.56-29.02-29.03-52.55 0-52.55 29.02-52.55 52.56-29.02 52.56 0" fill="#ffdc12"/>
<path transform="matrix(.24,0,0,-.24,295.224,160.0968)" d="M0 0H52.28C52.28 28.86 28.87 52.26 0 52.26-28.87 52.26-52.28 28.86-52.28 0-52.28-28.87-28.87-52.27 0-52.27 28.87-52.27 52.28-28.87 52.28 0" fill="#ffdc12"/>
<path transform="matrix(.24,0,0,-.24,295.224,160.0968)" d="M0 0H51.99C51.99 28.7 28.71 51.97 0 51.97-28.71 51.97-51.99 28.7-51.99 0-51.99-28.71-28.71-51.98 0-51.98 28.71-51.98 51.99-28.71 51.99 0" fill="#ffdb12"/>
<path transform="matrix(.24,0,0,-.24,295.224,160.0968)" d="M0 0H51.71C51.71 28.54 28.56 51.69 0 51.69-28.56 51.69-51.71 28.54-51.71 0-51.71-28.55-28.56-51.7 0-51.7 28.56-51.7 51.71-28.55 51.71 0" fill="#ffdb12"/>
<path transform="matrix(.24,0,0,-.24,295.224,160.0968)" d="M0 0H51.43C51.43 28.39 28.4 51.41 0 51.41-28.4 51.41-51.43 28.39-51.43 0-51.43-28.4-28.4-51.42 0-51.42 28.4-51.42 51.43-28.4 51.43 0" fill="#ffdb13"/>
<path transform="matrix(.24,0,0,-.24,295.224,160.0968)" d="M0 0H51.14C51.14 28.23 28.24 51.12 0 51.12-28.25 51.12-51.15 28.23-51.15 0-51.15-28.24-28.25-51.13 0-51.13 28.24-51.13 51.14-28.24 51.14 0" fill="#ffda13"/>
<path transform="matrix(.24,0,0,-.24,295.224,160.0968)" d="M0 0H50.86C50.86 28.08 28.09 50.84 0 50.84-28.09 50.84-50.87 28.08-50.87 0-50.87-28.09-28.09-50.85 0-50.85 28.09-50.85 50.86-28.09 50.86 0" fill="#ffda13"/>
<path transform="matrix(.24,0,0,-.24,295.224,160.0968)" d="M0 0H50.58C50.58 27.92 27.93 50.56 0 50.56-27.94 50.56-50.58 27.92-50.58 0-50.58-27.93-27.94-50.57 0-50.57 27.93-50.57 50.58-27.93 50.58 0" fill="#ffda14"/>
<path transform="matrix(.24,0,0,-.24,295.224,160.0968)" d="M0 0H50.29C50.29 27.77 27.78 50.28 0 50.28-27.78 50.28-50.3 27.77-50.3 0-50.3-27.77-27.78-50.29 0-50.29 27.78-50.29 50.29-27.77 50.29 0" fill="#ffda15"/>
<path transform="matrix(.24,0,0,-.24,295.224,160.0968)" d="M0 0H50.01C50.01 27.61 27.62 50 0 50-27.62 50-50.02 27.61-50.02 0-50.02-27.62-27.62-50 0-50 27.62-50 50.01-27.62 50.01 0" fill="#ffd915"/>
<path transform="matrix(.24,0,0,-.24,295.224,160.0968)" d="M0 0H49.73C49.73 27.45 27.46 49.71 0 49.71-27.47 49.71-49.74 27.45-49.74 0-49.74-27.46-27.47-49.72 0-49.72 27.46-49.72 49.73-27.46 49.73 0" fill="#ffd915"/>
<path transform="matrix(.24,0,0,-.24,295.224,160.0968)" d="M0 0H49.45C49.45 27.3 27.31 49.43 0 49.43-27.31 49.43-49.45 27.3-49.45 0-49.45-27.3-27.31-49.44 0-49.44 27.31-49.44 49.45-27.3 49.45 0" fill="#ffd915"/>
<path transform="matrix(.24,0,0,-.24,295.224,160.0968)" d="M0 0H49.17C49.17 27.14 27.15 49.15 0 49.15-27.15 49.15-49.17 27.14-49.17 0-49.17-27.15-27.15-49.16 0-49.16 27.15-49.16 49.17-27.15 49.17 0" fill="#ffd916"/>
<path transform="matrix(.24,0,0,-.24,295.224,160.0968)" d="M0 0H48.88C48.88 26.98 26.99 48.87 0 48.87-27 48.87-48.89 26.98-48.89 0-48.89-26.99-27-48.88 0-48.88 26.99-48.88 48.88-26.99 48.88 0" fill="#ffd816"/>
<path transform="matrix(.24,0,0,-.24,295.224,160.0968)" d="M0 0H48.6C48.6 26.83 26.84 48.59 0 48.59-26.84 48.59-48.6 26.83-48.6 0-48.6-26.84-26.84-48.59 0-48.59 26.84-48.59 48.6-26.84 48.6 0" fill="#ffd816"/>
<path transform="matrix(.24,0,0,-.24,295.224,160.0968)" d="M0 0H48.32C48.32 26.67 26.68 48.3 0 48.3-26.69 48.3-48.32 26.67-48.32 0-48.32-26.68-26.69-48.31 0-48.31 26.68-48.31 48.32-26.68 48.32 0" fill="#ffd817"/>
<path transform="matrix(.24,0,0,-.24,295.224,160.0968)" d="M0 0H48.04C48.04 26.52 26.53 48.02 0 48.02-26.53 48.02-48.04 26.52-48.04 0-48.04-26.52-26.53-48.03 0-48.03 26.53-48.03 48.04-26.52 48.04 0" fill="#ffd717"/>
<path transform="matrix(.24,0,0,-.24,295.224,160.0968)" d="M0 0H47.75C47.75 26.36 26.37 47.74 0 47.74-26.37 47.74-47.76 26.36-47.76 0-47.76-26.37-26.37-47.75 0-47.75 26.37-47.75 47.75-26.37 47.75 0" fill="#ffd717"/>
<path transform="matrix(.24,0,0,-.24,295.224,160.0968)" d="M0 0H47.47C47.47 26.2 26.21 47.45 0 47.45-26.22 47.45-47.47 26.2-47.47 0-47.47-26.21-26.22-47.46 0-47.46 26.21-47.46 47.47-26.21 47.47 0" fill="#ffd717"/>
<path transform="matrix(.24,0,0,-.24,295.224,160.0968)" d="M0 0H47.19C47.19 26.05 26.06 47.17 0 47.17-26.06 47.17-47.19 26.05-47.19 0-47.19-26.05-26.06-47.18 0-47.18 26.06-47.18 47.19-26.05 47.19 0" fill="#ffd718"/>
<path transform="matrix(.24,0,0,-.24,295.224,160.0968)" d="M0 0H46.9C46.9 25.89 25.9 46.89 0 46.89-25.9 46.89-46.91 25.89-46.91 0-46.91-25.9-25.9-46.9 0-46.9 25.9-46.9 46.9-25.9 46.9 0" fill="#ffd618"/>
<path transform="matrix(.24,0,0,-.24,295.224,160.0968)" d="M0 0H46.62C46.62 25.73 25.75 46.61 0 46.61-25.75 46.61-46.63 25.73-46.63 0-46.63-25.74-25.75-46.61 0-46.61 25.75-46.61 46.62-25.74 46.62 0" fill="#ffd618"/>
<path transform="matrix(.24,0,0,-.24,295.224,160.0968)" d="M0 0H46.34C46.34 25.58 25.59 46.32 0 46.32-25.6 46.32-46.35 25.58-46.35 0-46.35-25.59-25.6-46.33 0-46.33 25.59-46.33 46.34-25.59 46.34 0" fill="#ffd619"/>
<path transform="matrix(.24,0,0,-.24,295.224,160.0968)" d="M0 0H46.06C46.06 25.43 25.43 46.04 0 46.04-25.44 46.04-46.06 25.43-46.06 0-46.06-25.43-25.44-46.05 0-46.05 25.43-46.05 46.06-25.43 46.06 0" fill="#ffd51a"/>
<path transform="matrix(.24,0,0,-.24,295.224,160.0968)" d="M0 0H45.78C45.78 25.27 25.28 45.76 0 45.76-25.28 45.76-45.78 25.27-45.78 0-45.78-25.28-25.28-45.77 0-45.77 25.28-45.77 45.78-25.28 45.78 0" fill="#ffd51a"/>
<path transform="matrix(.24,0,0,-.24,295.224,160.0968)" d="M0 0H45.49C45.49 25.11 25.12 45.48 0 45.48-25.13 45.48-45.5 25.11-45.5 0-45.5-25.12-25.13-45.48 0-45.48 25.12-45.48 45.49-25.12 45.49 0" fill="#ffd51a"/>
<path transform="matrix(.24,0,0,-.24,295.224,160.0968)" d="M0 0H45.21C45.21 24.96 24.97 45.2 0 45.2-24.97 45.2-45.21 24.96-45.21 0-45.21-24.97-24.97-45.2 0-45.2 24.97-45.2 45.21-24.97 45.21 0" fill="#ffd51a"/>
<path transform="matrix(.24,0,0,-.24,295.224,160.0968)" d="M0 0H44.93C44.93 24.8 24.81 44.91 0 44.91-24.81 44.91-44.93 24.8-44.93 0-44.93-24.81-24.81-44.92 0-44.92 24.81-44.92 44.93-24.81 44.93 0" fill="#ffd41b"/>
<path transform="matrix(.24,0,0,-.24,295.224,160.0968)" d="M0 0H44.64C44.64 24.64 24.65 44.63 0 44.63-24.66 44.63-44.65 24.64-44.65 0-44.65-24.65-24.66-44.64 0-44.64 24.65-44.64 44.64-24.65 44.64 0" fill="#ffd41b"/>
<path transform="matrix(.24,0,0,-.24,295.224,160.0968)" d="M0 0H44.36C44.36 24.49 24.5 44.35 0 44.35-24.5 44.35-44.37 24.49-44.37 0-44.37-24.5-24.5-44.36 0-44.36 24.5-44.36 44.36-24.5 44.36 0" fill="#ffd41c"/>
<path transform="matrix(.24,0,0,-.24,295.224,160.0968)" d="M0 0H44.08C44.08 24.33 24.34 44.06 0 44.06-24.35 44.06-44.08 24.33-44.08 0-44.08-24.34-24.35-44.07 0-44.07 24.34-44.07 44.08-24.34 44.08 0" fill="#ffd31d"/>
<path transform="matrix(.24,0,0,-.24,295.224,160.0968)" d="M0 0H43.79C43.79 24.18 24.19 43.78 0 43.78-24.19 43.78-43.8 24.18-43.8 0-43.8-24.18-24.19-43.79 0-43.79 24.19-43.79 43.79-24.18 43.79 0" fill="#ffd31d"/>
<path transform="matrix(.24,0,0,-.24,295.224,160.0968)" d="M0 0H43.51C43.51 24.02 24.03 43.5 0 43.5-24.03 43.5-43.52 24.02-43.52 0-43.52-24.03-24.03-43.51 0-43.51 24.03-43.51 43.51-24.03 43.51 0" fill="#ffd31d"/>
<path transform="matrix(.24,0,0,-.24,295.224,160.0968)" d="M0 0H43.23C43.23 23.86 23.87 43.21 0 43.21-23.88 43.21-43.24 23.86-43.24 0-43.24-23.87-23.88-43.22 0-43.22 23.87-43.22 43.23-23.87 43.23 0" fill="#ffd31d"/>
<path transform="matrix(.24,0,0,-.24,295.224,160.0968)" d="M0 0H42.95C42.95 23.71 23.72 42.93 0 42.93-23.72 42.93-42.95 23.71-42.95 0-42.95-23.72-23.72-42.94 0-42.94 23.72-42.94 42.95-23.72 42.95 0" fill="#ffd21e"/>
<path transform="matrix(.24,0,0,-.24,295.224,160.0968)" d="M0 0H42.67C42.67 23.55 23.56 42.65 0 42.65-23.56 42.65-42.67 23.55-42.67 0-42.67-23.56-23.56-42.66 0-42.66 23.56-42.66 42.67-23.56 42.67 0" fill="#ffd21e"/>
<path transform="matrix(.24,0,0,-.24,295.224,160.0968)" d="M0 0H42.38C42.38 23.4 23.4 42.37 0 42.37-23.41 42.37-42.39 23.4-42.39 0-42.39-23.41-23.41-42.38 0-42.38 23.4-42.38 42.38-23.41 42.38 0" fill="#ffd21e"/>
<path transform="matrix(.24,0,0,-.24,295.224,160.0968)" d="M0 0H42.1C42.1 23.24 23.25 42.09 0 42.09-23.25 42.09-42.1 23.24-42.1 0-42.1-23.25-23.25-42.09 0-42.09 23.25-42.09 42.1-23.25 42.1 0" fill="#ffd21f"/>
<path transform="matrix(.24,0,0,-.24,295.224,160.0968)" d="M0 0H41.82C41.82 23.09 23.09 41.8 0 41.8-23.1 41.8-41.82 23.09-41.82 0-41.82-23.09-23.1-41.81 0-41.81 23.09-41.81 41.82-23.09 41.82 0" fill="#ffd120"/>
<path transform="matrix(.24,0,0,-.24,295.224,160.0968)" d="M0 0H41.54C41.54 22.93 22.94 41.52 0 41.52-22.94 41.52-41.54 22.93-41.54 0-41.54-22.94-22.94-41.53 0-41.53 22.94-41.53 41.54-22.94 41.54 0" fill="#ffd120"/>
<path transform="matrix(.24,0,0,-.24,295.224,160.0968)" d="M0 0H41.25C41.25 22.77 22.78 41.24 0 41.24-22.78 41.24-41.26 22.77-41.26 0-41.26-22.78-22.78-41.25 0-41.25 22.78-41.25 41.25-22.78 41.25 0" fill="#ffd120"/>
<path transform="matrix(.24,0,0,-.24,295.224,160.0968)" d="M0 0H40.97C40.97 22.62 22.62 40.96 0 40.96-22.63 40.96-40.97 22.62-40.97 0-40.97-22.63-22.63-40.97 0-40.97 22.62-40.97 40.97-22.63 40.97 0" fill="#ffd020"/>
<path transform="matrix(.24,0,0,-.24,295.224,160.0968)" d="M0 0H40.69C40.69 22.46 22.47 40.68 0 40.68-22.47 40.68-40.69 22.46-40.69 0-40.69-22.47-22.47-40.68 0-40.68 22.47-40.68 40.69-22.47 40.69 0" fill="#ffd021"/>
<path transform="matrix(.24,0,0,-.24,295.224,160.0968)" d="M0 0H40.4C40.4 22.3 22.31 40.39 0 40.39-22.31 40.39-40.41 22.3-40.41 0-40.41-22.31-22.31-40.4 0-40.4 22.31-40.4 40.4-22.31 40.4 0" fill="#ffd021"/>
<path transform="matrix(.24,0,0,-.24,295.224,160.0968)" d="M0 0H40.12C40.12 22.15 22.16 40.11 0 40.11-22.16 40.11-40.13 22.15-40.13 0-40.13-22.16-22.16-40.12 0-40.12 22.16-40.12 40.12-22.16 40.12 0" fill="#ffd022"/>
<path transform="matrix(.24,0,0,-.24,295.224,160.0968)" d="M0 0H39.84C39.84 21.99 22 39.83 0 39.83-22.01 39.83-39.85 21.99-39.85 0-39.85-22-22.01-39.84 0-39.84 22-39.84 39.84-22 39.84 0" fill="#ffcf23"/>
<path transform="matrix(.24,0,0,-.24,295.224,160.0968)" d="M0 0H39.56C39.56 21.84 21.84 39.54 0 39.54-21.85 39.54-39.56 21.84-39.56 0-39.56-21.84-21.85-39.55 0-39.55 21.84-39.55 39.56-21.84 39.56 0" fill="#ffcf23"/>
<path transform="matrix(.24,0,0,-.24,295.224,160.0968)" d="M0 0H39.28C39.28 21.68 21.69 39.26 0 39.26-21.69 39.26-39.28 21.68-39.28 0-39.28-21.69-21.69-39.27 0-39.27 21.69-39.27 39.28-21.69 39.28 0" fill="#ffcf23"/>
<path transform="matrix(.24,0,0,-.24,295.224,160.0968)" d="M0 0H38.99C38.99 21.52 21.53 38.98 0 38.98-21.54 38.98-39 21.52-39 0-39-21.53-21.54-38.99 0-38.99 21.53-38.99 38.99-21.53 38.99 0" fill="#ffcf23"/>
<path transform="matrix(.24,0,0,-.24,295.224,160.0968)" d="M0 0H38.71C38.71 21.37 21.38 38.7 0 38.7-21.38 38.7-38.71 21.37-38.71 0-38.71-21.38-21.38-38.7 0-38.7 21.38-38.7 38.71-21.38 38.71 0" fill="#ffce24"/>
<path transform="matrix(.24,0,0,-.24,295.224,160.0968)" d="M0 0H38.43C38.43 21.21 21.22 38.41 0 38.41-21.22 38.41-38.43 21.21-38.43 0-38.43-21.22-21.22-38.42 0-38.42 21.22-38.42 38.43-21.22 38.43 0" fill="#ffce24"/>
<path transform="matrix(.24,0,0,-.24,295.224,160.0968)" d="M0 0H38.15C38.15 21.05 21.06 38.13 0 38.13-21.07 38.13-38.15 21.05-38.15 0-38.15-21.06-21.07-38.14 0-38.14 21.06-38.14 38.15-21.06 38.15 0" fill="#ffce24"/>
<path transform="matrix(.24,0,0,-.24,295.224,160.0968)" d="M0 0H37.86C37.86 20.9 20.91 37.85 0 37.85-20.91 37.85-37.87 20.9-37.87 0-37.87-20.91-20.91-37.86 0-37.86 20.91-37.86 37.86-20.91 37.86 0" fill="#ffcd24"/>
<path transform="matrix(.24,0,0,-.24,295.224,160.0968)" d="M0 0H37.58C37.58 20.74 20.75 37.57 0 37.57-20.76 37.57-37.58 20.74-37.58 0-37.58-20.75-20.76-37.57 0-37.57 20.75-37.57 37.58-20.75 37.58 0" fill="#ffcd25"/>
<path transform="matrix(.24,0,0,-.24,295.224,160.0968)" d="M0 0H37.3C37.3 20.59 20.6 37.28 0 37.28-20.6 37.28-37.3 20.59-37.3 0-37.3-20.6-20.6-37.29 0-37.29 20.6-37.29 37.3-20.6 37.3 0" fill="#ffcd25"/>
<path transform="matrix(.24,0,0,-.24,295.224,160.0968)" d="M0 0H37.01C37.01 20.43 20.44 37 0 37-20.44 37-37.02 20.43-37.02 0-37.02-20.44-20.44-37.01 0-37.01 20.44-37.01 37.01-20.44 37.01 0" fill="#ffcd25"/>
<path transform="matrix(.24,0,0,-.24,295.224,160.0968)" d="M0 0H36.73C36.73 20.28 20.28 36.72 0 36.72-20.29 36.72-36.74 20.28-36.74 0-36.74-20.29-20.29-36.73 0-36.73 20.28-36.73 36.73-20.29 36.73 0" fill="#ffcc25"/>
<path transform="matrix(.24,0,0,-.24,295.224,160.0968)" d="M0 0H36.45C36.45 20.12 20.13 36.44 0 36.44-20.13 36.44-36.46 20.12-36.46 0-36.46-20.13-20.13-36.45 0-36.45 20.13-36.45 36.45-20.13 36.45 0" fill="#ffcc26"/>
<path transform="matrix(.24,0,0,-.24,295.224,160.0968)" d="M0 0H36.17C36.17 19.96 19.97 36.15 0 36.15-19.97 36.15-36.17 19.96-36.17 0-36.17-19.97-19.97-36.16 0-36.16 19.97-36.16 36.17-19.97 36.17 0" fill="#ffcc26"/>
<path transform="matrix(.24,0,0,-.24,295.224,160.0968)" d="M0 0H35.88C35.88 19.81 19.81 35.87 0 35.87-19.82 35.87-35.89 19.81-35.89 0-35.89-19.82-19.82-35.88 0-35.88 19.81-35.88 35.88-19.82 35.88 0" fill="#ffcb26"/>
<path transform="matrix(.24,0,0,-.24,295.224,160.0968)" d="M0 0H35.6C35.6 19.65 19.66 35.59 0 35.59-19.67 35.59-35.61 19.65-35.61 0-35.61-19.66-19.67-35.6 0-35.6 19.66-35.6 35.6-19.66 35.6 0" fill="#ffcb26"/>
<path transform="matrix(.24,0,0,-.24,295.224,160.0968)" d="M0 0H35.32C35.32 19.5 19.5 35.31 0 35.31-19.51 35.31-35.32 19.5-35.32 0-35.32-19.5-19.51-35.32 0-35.32 19.5-35.32 35.32-19.5 35.32 0" fill="#ffcb27"/>
<path transform="matrix(.24,0,0,-.24,295.224,160.0968)" d="M0 0H35.04C35.04 19.34 19.35 35.02 0 35.02-19.35 35.02-35.04 19.34-35.04 0-35.04-19.35-19.35-35.03 0-35.03 19.35-35.03 35.04-19.35 35.04 0" fill="#ffcb27"/>
<path transform="matrix(.24,0,0,-.24,295.224,160.0968)" d="M0 0H34.76C34.76 19.18 19.19 34.74 0 34.74-19.2 34.74-34.76 19.18-34.76 0-34.76-19.19-19.2-34.75 0-34.75 19.19-34.75 34.76-19.19 34.76 0" fill="#ffca27"/>
<path transform="matrix(.24,0,0,-.24,295.224,160.0968)" d="M0 0H34.47C34.47 19.03 19.03 34.46 0 34.46-19.04 34.46-34.47 19.03-34.47 0-34.47-19.04-19.04-34.47 0-34.47 19.03-34.47 34.47-19.04 34.47 0" fill="#ffca27"/>
<path transform="matrix(.24,0,0,-.24,295.224,160.0968)" d="M0 0H34.19C34.19 18.87 18.88 34.18 0 34.18-18.89 34.18-34.19 18.87-34.19 0-34.19-18.88-18.89-34.18 0-34.18 18.88-34.18 34.19-18.88 34.19 0" fill="#ffca27"/>
<path transform="matrix(.24,0,0,-.24,295.224,160.0968)" d="M0 0H33.91C33.91 18.71 18.72 33.89 0 33.89-18.73 33.89-33.91 18.71-33.91 0-33.91-18.72-18.73-33.9 0-33.9 18.72-33.9 33.91-18.72 33.91 0" fill="#ffc927"/>
<path transform="matrix(.24,0,0,-.24,295.224,160.0968)" d="M0 0H33.62C33.62 18.56 18.57 33.61 0 33.61-18.57 33.61-33.63 18.56-33.63 0-33.63-18.57-18.57-33.62 0-33.62 18.57-33.62 33.62-18.57 33.62 0" fill="#ffc928"/>
<path transform="matrix(.24,0,0,-.24,295.224,160.0968)" d="M0 0H33.34C33.34 18.4 18.41 33.33 0 33.33-18.42 33.33-33.35 18.4-33.35 0-33.35-18.41-18.42-33.34 0-33.34 18.41-33.34 33.34-18.41 33.34 0" fill="#ffc928"/>
<path transform="matrix(.24,0,0,-.24,295.224,160.0968)" d="M0 0H33.06C33.06 18.25 18.26 33.05 0 33.05-18.26 33.05-33.06 18.25-33.06 0-33.06-18.25-18.26-33.05 0-33.05 18.26-33.05 33.06-18.25 33.06 0" fill="#ffc828"/>
<path transform="matrix(.24,0,0,-.24,295.224,160.0968)" d="M0 0H32.78C32.78 18.09 18.1 32.77 0 32.77-18.1 32.77-32.78 18.09-32.78 0-32.78-18.1-18.1-32.77 0-32.77 18.1-32.77 32.78-18.1 32.78 0" fill="#ffc828"/>
<path transform="matrix(.24,0,0,-.24,295.224,160.0968)" d="M0 0H32.49C32.49 17.93 17.94 32.48 0 32.48-17.95 32.48-32.5 17.93-32.5 0-32.5-17.94-17.95-32.49 0-32.49 17.94-32.49 32.49-17.94 32.49 0" fill="#ffc828"/>
<path transform="matrix(.24,0,0,-.24,295.224,160.0968)" d="M0 0H32.21C32.21 17.78 17.79 32.2 0 32.2-17.79 32.2-32.21 17.78-32.21 0-32.21-17.79-17.79-32.21 0-32.21 17.79-32.21 32.21-17.79 32.21 0" fill="#ffc829"/>
<path transform="matrix(.24,0,0,-.24,295.224,160.0968)" d="M0 0H31.93C31.93 17.62 17.63 31.92 0 31.92-17.64 31.92-31.93 17.62-31.93 0-31.93-17.63-17.64-31.93 0-31.93 17.63-31.93 31.93-17.63 31.93 0" fill="#ffc729"/>
<path transform="matrix(.24,0,0,-.24,295.224,160.0968)" d="M0 0H31.65C31.65 17.46 17.47 31.63 0 31.63-17.48 31.63-31.65 17.46-31.65 0-31.65-17.47-17.48-31.64 0-31.64 17.47-31.64 31.65-17.47 31.65 0" fill="#ffc729"/>
<path transform="matrix(.24,0,0,-.24,295.224,160.0968)" d="M0 0H31.36C31.36 17.31 17.32 31.35 0 31.35-17.32 31.35-31.37 17.31-31.37 0-31.37-17.32-17.32-31.36 0-31.36 17.32-31.36 31.36-17.32 31.36 0" fill="#ffc729"/>
<path transform="matrix(.24,0,0,-.24,295.224,160.0968)" d="M0 0H31.08C31.08 17.16 17.16 31.07 0 31.07-17.17 31.07-31.08 17.16-31.08 0-31.08-17.16-17.17-31.08 0-31.08 17.16-31.08 31.08-17.16 31.08 0" fill="#ffc62a"/>
<path transform="matrix(.24,0,0,-.24,295.224,160.0968)" d="M0 0H30.8C30.8 17 17.01 30.78 0 30.78-17.01 30.78-30.8 17-30.8 0-30.8-17.01-17.01-30.79 0-30.79 17.01-30.79 30.8-17.01 30.8 0" fill="#ffc62a"/>
<path transform="matrix(.24,0,0,-.24,295.224,160.0968)" d="M0 0H30.51C30.51 16.84 16.85 30.5 0 30.5-16.85 30.5-30.52 16.84-30.52 0-30.52-16.85-16.85-30.51 0-30.51 16.85-30.51 30.51-16.85 30.51 0" fill="#ffc62a"/>
<path transform="matrix(.24,0,0,-.24,295.224,160.0968)" d="M0 0H30.23C30.23 16.69 16.69 30.22 0 30.22-16.7 30.22-30.24 16.69-30.24 0-30.24-16.7-16.7-30.23 0-30.23 16.69-30.23 30.23-16.7 30.23 0" fill="#ffc62b"/>
<path transform="matrix(.24,0,0,-.24,295.224,160.0968)" d="M0 0H29.95C29.95 16.53 16.54 29.94 0 29.94-16.54 29.94-29.96 16.53-29.96 0-29.96-16.54-16.54-29.95 0-29.95 16.54-29.95 29.95-16.54 29.95 0" fill="#ffc52b"/>
<path transform="matrix(.24,0,0,-.24,295.224,160.0968)" d="M0 0H29.67C29.67 16.37 16.38 29.66 0 29.66-16.39 29.66-29.67 16.37-29.67 0-29.67-16.38-16.39-29.66 0-29.66 16.38-29.66 29.67-16.38 29.67 0" fill="#ffc52b"/>
<path transform="matrix(.24,0,0,-.24,295.224,160.0968)" d="M0 0H29.38C29.38 16.22 16.22 29.37 0 29.37-16.23 29.37-29.39 16.22-29.39 0-29.39-16.23-16.23-29.38 0-29.38 16.22-29.38 29.38-16.23 29.38 0" fill="#ffc52b"/>
<path transform="matrix(.24,0,0,-.24,295.224,160.0968)" d="M0 0H29.1C29.1 16.06 16.07 29.09 0 29.09-16.08 29.09-29.11 16.06-29.11 0-29.11-16.07-16.08-29.1 0-29.1 16.07-29.1 29.1-16.07 29.1 0" fill="#ffc42c"/>
<path transform="matrix(.24,0,0,-.24,295.224,160.0968)" d="M0 0H28.82C28.82 15.91 15.91 28.81 0 28.81-15.92 28.81-28.82 15.91-28.82 0-28.82-15.91-15.92-28.82 0-28.82 15.91-28.82 28.82-15.91 28.82 0" fill="#ffc42c"/>
<path transform="matrix(.24,0,0,-.24,295.224,160.0968)" d="M0 0H28.54C28.54 15.75 15.76 28.53 0 28.53-15.76 28.53-28.54 15.75-28.54 0-28.54-15.76-15.76-28.54 0-28.54 15.76-28.54 28.54-15.76 28.54 0" fill="#ffc42c"/>
<path transform="matrix(.24,0,0,-.24,295.224,160.0968)" d="M0 0H28.26C28.26 15.6 15.6 28.25 0 28.25-15.61 28.25-28.26 15.6-28.26 0-28.26-15.61-15.61-28.25 0-28.25 15.6-28.25 28.26-15.61 28.26 0" fill="#ffc42c"/>
<path transform="matrix(.24,0,0,-.24,295.224,160.0968)" d="M0 0H27.97C27.97 15.44 15.44 27.96 0 27.96-15.45 27.96-27.97 15.44-27.97 0-27.97-15.45-15.45-27.97 0-27.97 15.44-27.97 27.97-15.45 27.97 0" fill="#ffc32c"/>
<path transform="matrix(.24,0,0,-.24,295.224,160.0968)" d="M0 0H27.69C27.69 15.28 15.29 27.68 0 27.68-15.3 27.68-27.69 15.28-27.69 0-27.69-15.29-15.3-27.69 0-27.69 15.29-27.69 27.69-15.29 27.69 0" fill="#ffc32c"/>
<path transform="matrix(.24,0,0,-.24,295.224,160.0968)" d="M0 0H27.41C27.41 15.13 15.13 27.4 0 27.4-15.14 27.4-27.41 15.13-27.41 0-27.41-15.14-15.14-27.41 0-27.41 15.13-27.41 27.41-15.14 27.41 0" fill="#ffc32c"/>
<path transform="matrix(.24,0,0,-.24,295.224,160.0968)" d="M0 0H27.12C27.12 14.97 14.98 27.11 0 27.11-14.98 27.11-27.13 14.97-27.13 0-27.13-14.98-14.98-27.12 0-27.12 14.98-27.12 27.12-14.98 27.12 0" fill="#ffc22c"/>
<path transform="matrix(.24,0,0,-.24,295.224,160.0968)" d="M0 0H26.84C26.84 14.82 14.82 26.83 0 26.83-14.83 26.83-26.85 14.82-26.85 0-26.85-14.82-14.83-26.84 0-26.84 14.82-26.84 26.84-14.82 26.84 0" fill="#ffc22d"/>
<path transform="matrix(.24,0,0,-.24,295.224,160.0968)" d="M0 0H26.56C26.56 14.66 14.67 26.55 0 26.55-14.67 26.55-26.56 14.66-26.56 0-26.56-14.67-14.67-26.56 0-26.56 14.67-26.56 26.56-14.67 26.56 0" fill="#fec22d"/>
<path transform="matrix(.24,0,0,-.24,295.224,160.0968)" d="M0 0H26.28C26.28 14.5 14.51 26.27 0 26.27-14.51 26.27-26.28 14.5-26.28 0-26.28-14.51-14.51-26.27 0-26.27 14.51-26.27 26.28-14.51 26.28 0" fill="#fec22d"/>
<path transform="matrix(.24,0,0,-.24,295.224,160.0968)" d="M0 0H25.99C25.99 14.35 14.35 25.98 0 25.98-14.36 25.98-26 14.35-26 0-26-14.36-14.36-25.99 0-25.99 14.35-25.99 25.99-14.36 25.99 0" fill="#fec12e"/>
<path transform="matrix(.24,0,0,-.24,295.224,160.0968)" d="M0 0H25.71C25.71 14.19 14.2 25.7 0 25.7-14.2 25.7-25.72 14.19-25.72 0-25.72-14.2-14.2-25.71 0-25.71 14.2-25.71 25.71-14.2 25.71 0" fill="#fec12e"/>
<path transform="matrix(.24,0,0,-.24,295.224,160.0968)" d="M0 0H25.43C25.43 14.03 14.04 25.42 0 25.42-14.05 25.42-25.43 14.03-25.43 0-25.43-14.04-14.05-25.43 0-25.43 14.04-25.43 25.43-14.04 25.43 0" fill="#fec12e"/>
<path transform="matrix(.24,0,0,-.24,295.224,160.0968)" d="M0 0H25.15C25.15 13.88 13.88 25.14 0 25.14-13.89 25.14-25.15 13.88-25.15 0-25.15-13.89-13.89-25.14 0-25.14 13.88-25.14 25.15-13.89 25.15 0" fill="#fec02e"/>
<path transform="matrix(.24,0,0,-.24,295.224,160.0968)" d="M0 0H24.86C24.86 13.72 13.73 24.86 0 24.86-13.73 24.86-24.87 13.72-24.87 0-24.87-13.73-13.73-24.86 0-24.86 13.73-24.86 24.86-13.73 24.86 0" fill="#fec02f"/>
<path transform="matrix(.24,0,0,-.24,295.224,160.0968)" d="M0 0H24.58C24.58 13.57 13.57 24.57 0 24.57-13.58 24.57-24.58 13.57-24.58 0-24.58-13.57-13.58-24.58 0-24.58 13.57-24.58 24.58-13.57 24.58 0" fill="#fec02f"/>
<path transform="matrix(.24,0,0,-.24,295.224,160.0968)" d="M0 0H24.3C24.3 13.41 13.42 24.29 0 24.29-13.42 24.29-24.3 13.41-24.3 0-24.3-13.42-13.42-24.3 0-24.3 13.42-24.3 24.3-13.42 24.3 0" fill="#fec02f"/>
<path transform="matrix(.24,0,0,-.24,295.224,160.0968)" d="M0 0H24.02C24.02 13.25 13.26 24.01 0 24.01-13.26 24.01-24.02 13.25-24.02 0-24.02-13.26-13.26-24.02 0-24.02 13.26-24.02 24.02-13.26 24.02 0" fill="#febf2f"/>
<path transform="matrix(.24,0,0,-.24,295.224,160.0968)" d="M0 0H23.73C23.73 13.1 13.1 23.72 0 23.72-13.11 23.72-23.74 13.1-23.74 0-23.74-13.11-13.11-23.73 0-23.73 13.1-23.73 23.73-13.11 23.73 0" fill="#febf2f"/>
<path transform="matrix(.24,0,0,-.24,295.224,160.0968)" d="M0 0H23.45C23.45 12.94 12.95 23.44 0 23.44-12.95 23.44-23.46 12.94-23.46 0-23.46-12.95-12.95-23.45 0-23.45 12.95-23.45 23.45-12.95 23.45 0" fill="#febf30"/>
<path transform="matrix(.24,0,0,-.24,295.224,160.0968)" d="M0 0H23.17C23.17 12.79 12.79 23.16 0 23.16-12.8 23.16-23.17 12.79-23.17 0-23.17-12.8-12.8-23.17 0-23.17 12.79-23.17 23.17-12.8 23.17 0" fill="#febe30"/>
<path transform="matrix(.24,0,0,-.24,295.224,160.0968)" d="M0 0H22.88C22.88 12.63 12.63 22.87 0 22.87-12.64 22.87-22.89 12.63-22.89 0-22.89-12.64-12.64-22.88 0-22.88 12.63-22.88 22.88-12.64 22.88 0" fill="#febe30"/>
<path transform="matrix(.24,0,0,-.24,295.224,160.0968)" d="M0 0H22.6C22.6 12.47 12.48 22.59 0 22.59-12.49 22.59-22.61 12.47-22.61 0-22.61-12.48-12.49-22.6 0-22.6 12.48-22.6 22.6-12.48 22.6 0" fill="#febe30"/>
<path transform="matrix(.24,0,0,-.24,295.224,160.0968)" d="M0 0H22.32C22.32 12.32 12.33 22.31 0 22.31-12.33 22.31-22.33 12.32-22.33 0-22.33-12.33-12.33-22.32 0-22.32 12.33-22.32 22.32-12.33 22.32 0" fill="#febe30"/>
<path transform="matrix(.24,0,0,-.24,295.224,160.0968)" d="M0 0H22.04C22.04 12.16 12.17 22.03 0 22.03-12.17 22.03-22.04 12.16-22.04 0-22.04-12.17-12.17-22.04 0-22.04 12.17-22.04 22.04-12.17 22.04 0" fill="#febd30"/>
<path transform="matrix(.24,0,0,-.24,295.224,160.0968)" d="M0 0H21.76C21.76 12.01 12.01 21.75 0 21.75-12.02 21.75-21.76 12.01-21.76 0-21.76-12.02-12.02-21.75 0-21.75 12.01-21.75 21.76-12.02 21.76 0" fill="#febd31"/>
<path transform="matrix(.24,0,0,-.24,295.224,160.0968)" d="M0 0H21.47C21.47 11.85 11.86 21.46 0 21.46-11.86 21.46-21.48 11.85-21.48 0-21.48-11.86-11.86-21.47 0-21.47 11.86-21.47 21.47-11.86 21.47 0" fill="#febd31"/>
<path transform="matrix(.24,0,0,-.24,295.224,160.0968)" d="M0 0H21.19C21.19 11.7 11.7 21.18 0 21.18-11.71 21.18-21.19 11.7-21.19 0-21.19-11.7-11.71-21.19 0-21.19 11.7-21.19 21.19-11.7 21.19 0" fill="#febd31"/>
<path transform="matrix(.24,0,0,-.24,295.224,160.0968)" d="M0 0H20.91C20.91 11.54 11.54 20.9 0 20.9-11.55 20.9-20.91 11.54-20.91 0-20.91-11.55-11.55-20.91 0-20.91 11.54-20.91 20.91-11.55 20.91 0" fill="#febc31"/>
<path transform="matrix(.24,0,0,-.24,295.224,160.0968)" d="M0 0H20.62C20.62 11.38 11.39 20.62 0 20.62-11.39 20.62-20.63 11.38-20.63 0-20.63-11.39-11.39-20.63 0-20.63 11.39-20.63 20.62-11.39 20.62 0" fill="#fdbc32"/>
<path transform="matrix(.24,0,0,-.24,295.224,160.0968)" d="M0 0H20.34C20.34 11.23 11.23 20.34 0 20.34-11.24 20.34-20.35 11.23-20.35 0-20.35-11.23-11.24-20.34 0-20.34 11.23-20.34 20.34-11.23 20.34 0" fill="#fdbc32"/>
<path transform="matrix(.24,0,0,-.24,295.224,160.0968)" d="M0 0H20.06C20.06 11.07 11.08 20.05 0 20.05-11.08 20.05-20.06 11.07-20.06 0-20.06-11.08-11.08-20.06 0-20.06 11.08-20.06 20.06-11.08 20.06 0" fill="#fdbb32"/>
<path transform="matrix(.24,0,0,-.24,295.224,160.0968)" d="M0 0H19.78C19.78 10.91 10.92 19.77 0 19.77-10.92 19.77-19.78 10.91-19.78 0-19.78-10.92-10.92-19.78 0-19.78 10.92-19.78 19.78-10.92 19.78 0" fill="#fdbb32"/>
<path transform="matrix(.24,0,0,-.24,295.224,160.0968)" d="M0 0H19.49C19.49 10.76 10.76 19.49 0 19.49-10.77 19.49-19.5 10.76-19.5 0-19.5-10.77-10.77-19.5 0-19.5 10.76-19.5 19.49-10.77 19.49 0" fill="#fdbb32"/>
<path transform="matrix(.24,0,0,-.24,295.224,160.0968)" d="M0 0H19.21C19.21 10.6 10.61 19.2 0 19.2-10.61 19.2-19.22 10.6-19.22 0-19.22-10.61-10.61-19.21 0-19.21 10.61-19.21 19.21-10.61 19.21 0" fill="#fdba32"/>
<path transform="matrix(.24,0,0,-.24,295.224,160.0968)" d="M0 0H18.93C18.93 10.45 10.45 18.92 0 18.92-10.46 18.92-18.93 10.45-18.93 0-18.93-10.45-10.46-18.93 0-18.93 10.45-18.93 18.93-10.45 18.93 0" fill="#fdba32"/>
<path transform="matrix(.24,0,0,-.24,295.224,160.0968)" d="M0 0H18.65C18.65 10.29 10.29 18.64 0 18.64-10.3 18.64-18.65 10.29-18.65 0-18.65-10.3-10.3-18.65 0-18.65 10.29-18.65 18.65-10.3 18.65 0" fill="#fdba32"/>
<path transform="matrix(.24,0,0,-.24,295.224,160.0968)" d="M0 0H18.36C18.36 10.13 10.14 18.36 0 18.36-10.14 18.36-18.37 10.13-18.37 0-18.37-10.14-10.14-18.36 0-18.36 10.14-18.36 18.36-10.14 18.36 0" fill="#fdba33"/>
<path transform="matrix(.24,0,0,-.24,295.224,160.0968)" d="M0 0H18.08C18.08 9.98 9.98 18.07 0 18.07-9.99 18.07-18.08 9.98-18.08 0-18.08-9.98-9.99-18.08 0-18.08 9.98-18.08 18.08-9.98 18.08 0" fill="#fdb933"/>
<path transform="matrix(.24,0,0,-.24,295.224,160.0968)" d="M0 0H17.8C17.8 9.82 9.83 17.79 0 17.79-9.83 17.79-17.8 9.82-17.8 0-17.8-9.83-9.83-17.8 0-17.8 9.83-17.8 17.8-9.83 17.8 0" fill="#fdb833"/>
<path transform="matrix(.24,0,0,-.24,295.224,160.0968)" d="M0 0H17.52C17.52 9.66 9.67 17.51 0 17.51-9.67 17.51-17.52 9.66-17.52 0-17.52-9.67-9.67-17.52 0-17.52 9.67-17.52 17.52-9.67 17.52 0" fill="#fdb834"/>
<path transform="matrix(.24,0,0,-.24,295.224,160.0968)" d="M0 0H17.23C17.23 9.51 9.51 17.23 0 17.23-9.52 17.23-17.24 9.51-17.24 0-17.24-9.52-9.52-17.23 0-17.23 9.51-17.23 17.23-9.52 17.23 0" fill="#fdb734"/>
<path transform="matrix(.24,0,0,-.24,295.224,160.0968)" d="M0 0H16.95C16.95 9.36 9.36 16.95 0 16.95-9.36 16.95-16.96 9.36-16.96 0-16.96-9.36-9.36-16.95 0-16.95 9.36-16.95 16.95-9.36 16.95 0" fill="#fcb634"/>
<path transform="matrix(.24,0,0,-.24,295.224,160.0968)" d="M0 0H16.67C16.67 9.2 9.2 16.66 0 16.66-9.21 16.66-16.67 9.2-16.67 0-16.67-9.21-9.21-16.67 0-16.67 9.2-16.67 16.67-9.21 16.67 0" fill="#fcb535"/>
<path transform="matrix(.24,0,0,-.24,295.224,160.0968)" d="M0 0H16.38C16.38 9.04 9.04 16.38 0 16.38-9.05 16.38-16.39 9.04-16.39 0-16.39-9.05-9.05-16.39 0-16.39 9.04-16.39 16.38-9.05 16.38 0" fill="#fcb436"/>
<path transform="matrix(.24,0,0,-.24,295.224,160.0968)" d="M0 0H16.1C16.1 8.89 8.89 16.1 0 16.1-8.9 16.1-16.11 8.89-16.11 0-16.11-8.89-8.9-16.11 0-16.11 8.89-16.11 16.1-8.89 16.1 0" fill="#fcb336"/>
<path transform="matrix(.24,0,0,-.24,295.224,160.0968)" d="M0 0H15.82C15.82 8.73 8.74 15.81 0 15.81-8.74 15.81-15.83 8.73-15.83 0-15.83-8.74-8.74-15.82 0-15.82 8.74-15.82 15.82-8.74 15.82 0" fill="#fcb236"/>
<path transform="matrix(.24,0,0,-.24,295.224,160.0968)" d="M0 0H15.54C15.54 8.57 8.58 15.53 0 15.53-8.58 15.53-15.54 8.57-15.54 0-15.54-8.58-8.58-15.54 0-15.54 8.58-15.54 15.54-8.58 15.54 0" fill="#fcb137"/>
<path transform="matrix(.24,0,0,-.24,295.224,160.0968)" d="M0 0H15.26C15.26 8.42 8.42 15.25 0 15.25-8.43 15.25-15.26 8.42-15.26 0-15.26-8.43-8.43-15.26 0-15.26 8.42-15.26 15.26-8.43 15.26 0" fill="#fcb037"/>
<path transform="matrix(.24,0,0,-.24,295.224,160.0968)" d="M0 0H14.97C14.97 8.26 8.27 14.97 0 14.97-8.27 14.97-14.98 8.26-14.98 0-14.98-8.27-8.27-14.98 0-14.98 8.27-14.98 14.97-8.27 14.97 0" fill="#fbaf38"/>
<path transform="matrix(.24,0,0,-.24,295.224,160.0968)" d="M0 0H14.69C14.69 8.11 8.11 14.68 0 14.68-8.12 14.68-14.69 8.11-14.69 0-14.69-8.11-8.12-14.69 0-14.69 8.11-14.69 14.69-8.11 14.69 0" fill="#fbaf38"/>
<path transform="matrix(.24,0,0,-.24,295.224,160.0968)" d="M0 0H14.41C14.41 7.95 7.95 14.4 0 14.4-7.96 14.4-14.41 7.95-14.41 0-14.41-7.96-7.96-14.41 0-14.41 7.95-14.41 14.41-7.96 14.41 0" fill="#fbae39"/>
<path transform="matrix(.24,0,0,-.24,295.224,160.0968)" d="M0 0H14.13C14.13 7.8 7.8 14.12 0 14.12-7.8 14.12-14.13 7.8-14.13 0-14.13-7.8-7.8-14.13 0-14.13 7.8-14.13 14.13-7.8 14.13 0" fill="#fbad39"/>
<path transform="matrix(.24,0,0,-.24,295.224,160.0968)" d="M0 0H13.84C13.84 7.64 7.64 13.84 0 13.84-7.65 13.84-13.85 7.64-13.85 0-13.85-7.64-7.65-13.84 0-13.84 7.64-13.84 13.84-7.64 13.84 0" fill="#fbac39"/>
<path transform="matrix(.24,0,0,-.24,295.224,160.0968)" d="M0 0H13.56C13.56 7.48 7.49 13.55 0 13.55-7.49 13.55-13.56 7.48-13.56 0-13.56-7.49-7.49-13.56 0-13.56 7.49-13.56 13.56-7.49 13.56 0" fill="#fbab3a"/>
<path transform="matrix(.24,0,0,-.24,295.224,160.0968)" d="M0 0H13.28C13.28 7.33 7.33 13.27 0 13.27-7.33 13.27-13.28 7.33-13.28 0-13.28-7.34-7.33-13.28 0-13.28 7.33-13.28 13.28-7.34 13.28 0" fill="#fbaa3a"/>
<path transform="matrix(.24,0,0,-.24,295.224,160.0968)" d="M0 0H12.99C12.99 7.17 7.17 12.99 0 12.99-7.18 12.99-13 7.17-13 0-13-7.18-7.18-13 0-13 7.17-13 12.99-7.18 12.99 0" fill="#faa93a"/>
<path transform="matrix(.24,0,0,-.24,295.224,160.0968)" d="M0 0H12.71C12.71 7.02 7.02 12.71 0 12.71-7.02 12.71-12.72 7.02-12.72 0-12.72-7.02-7.02-12.72 0-12.72 7.02-12.72 12.71-7.02 12.71 0" fill="#faa83a"/>
<path transform="matrix(.24,0,0,-.24,295.224,160.0968)" d="M0 0H12.43C12.43 6.86 6.86 12.43 0 12.43-6.87 12.43-12.44 6.86-12.44 0-12.44-6.87-6.87-12.43 0-12.43 6.86-12.43 12.43-6.87 12.43 0" fill="#faa83b"/>
<path transform="matrix(.24,0,0,-.24,295.224,160.0968)" d="M0 0H12.15C12.15 6.7 6.7 12.14 0 12.14-6.71 12.14-12.15 6.7-12.15 0-12.15-6.71-6.71-12.15 0-12.15 6.7-12.15 12.15-6.71 12.15 0" fill="#faa73b"/>
<path transform="matrix(.24,0,0,-.24,295.224,160.0968)" d="M0 0H11.86C11.86 6.55 6.55 11.86 0 11.86-6.55 11.86-11.87 6.55-11.87 0-11.87-6.55-6.55-11.87 0-11.87 6.55-11.87 11.86-6.55 11.86 0" fill="#faa63c"/>
<path transform="matrix(.24,0,0,-.24,295.224,160.0968)" d="M0 0H11.58C11.58 6.39 6.4 11.58 0 11.58-6.4 11.58-11.59 6.39-11.59 0-11.59-6.4-6.4-11.59 0-11.59 6.4-11.59 11.58-6.4 11.58 0" fill="#faa53c"/>
<path transform="matrix(.24,0,0,-.24,295.224,160.0968)" d="M0 0H11.3C11.3 6.23 6.24 11.29 0 11.29-6.24 11.29-11.3 6.23-11.3 0-11.3-6.24-6.24-11.3 0-11.3 6.24-11.3 11.3-6.24 11.3 0" fill="#faa43c"/>
<path transform="matrix(.24,0,0,-.24,295.224,160.0968)" d="M0 0H11.02C11.02 6.08 6.08 11.01 0 11.01-6.08 11.01-11.02 6.08-11.02 0-11.02-6.09-6.08-11.02 0-11.02 6.08-11.02 11.02-6.09 11.02 0" fill="#faa33d"/>
<path transform="matrix(.24,0,0,-.24,295.224,160.0968)" d="M0 0H10.74C10.74 5.92 5.93 10.73 0 10.73-5.93 10.73-10.74 5.92-10.74 0-10.74-5.93-5.93-10.74 0-10.74 5.93-10.74 10.74-5.93 10.74 0" fill="#f9a23d"/>
<path transform="matrix(.24,0,0,-.24,295.224,160.0968)" d="M0 0H10.45C10.45 5.77 5.77 10.45 0 10.45-5.77 10.45-10.46 5.77-10.46 0-10.46-5.77-5.77-10.45 0-10.45 5.77-10.45 10.45-5.77 10.45 0" fill="#f9a23d"/>
<path transform="matrix(.24,0,0,-.24,295.224,160.0968)" d="M0 0H10.17C10.17 5.61 5.61 10.16 0 10.16-5.62 10.16-10.17 5.61-10.17 0-10.17-5.62-5.62-10.17 0-10.17 5.61-10.17 10.17-5.62 10.17 0" fill="#f9a13e"/>
<path transform="matrix(.24,0,0,-.24,295.224,160.0968)" d="M0 0H9.89C9.89 5.45 5.46 9.88 0 9.88-5.46 9.88-9.89 5.45-9.89 0-9.89-5.46-5.46-9.89 0-9.89 5.46-9.89 9.89-5.46 9.89 0" fill="#f9a03e"/>
<path transform="matrix(.24,0,0,-.24,295.224,160.0968)" d="M0 0H9.6C9.6 5.3 5.3 9.6 0 9.6-5.31 9.6-9.61 5.3-9.61 0-9.61-5.3-5.31-9.61 0-9.61 5.3-9.61 9.6-5.3 9.6 0" fill="#f99f3e"/>
<path transform="matrix(.24,0,0,-.24,295.224,160.0968)" d="M0 0H9.32C9.32 5.14 5.15 9.32 0 9.32-5.15 9.32-9.33 5.14-9.33 0-9.33-5.15-5.15-9.32 0-9.32 5.15-9.32 9.32-5.15 9.32 0" fill="#f99e3e"/>
<path transform="matrix(.24,0,0,-.24,295.224,160.0968)" d="M0 0H9.04C9.04 4.98 4.99 9.03 0 9.03-4.99 9.03-9.04 4.98-9.04 0-9.04-4.99-4.99-9.04 0-9.04 4.99-9.04 9.04-4.99 9.04 0" fill="#f99d3f"/>
<path transform="matrix(.24,0,0,-.24,295.224,160.0968)" d="M0 0H8.76C8.76 4.83 4.83 8.75 0 8.75-4.84 8.75-8.76 4.83-8.76 0-8.76-4.84-4.84-8.76 0-8.76 4.83-8.76 8.76-4.84 8.76 0" fill="#f89c3f"/>
<path transform="matrix(.24,0,0,-.24,295.224,160.0968)" d="M0 0H8.47C8.47 4.67 4.68 8.47 0 8.47-4.68 8.47-8.48 4.67-8.48 0-8.48-4.68-4.68-8.48 0-8.48 4.68-8.48 8.47-4.68 8.47 0" fill="#f89c3f"/>
<path transform="matrix(.24,0,0,-.24,295.224,160.0968)" d="M0 0H8.19C8.19 4.52 4.52 8.19 0 8.19-4.53 8.19-8.19 4.52-8.19 0-8.19-4.53-4.53-8.2 0-8.2 4.52-8.2 8.19-4.53 8.19 0" fill="#f89b3f"/>
<path transform="matrix(.24,0,0,-.24,295.224,160.0968)" d="M0 0H7.91C7.91 4.36 4.36 7.91 0 7.91-4.37 7.91-7.91 4.36-7.91 0-7.91-4.37-4.37-7.91 0-7.91 4.36-7.91 7.91-4.37 7.91 0" fill="#f89a40"/>
<path transform="matrix(.24,0,0,-.24,295.224,160.0968)" d="M0 0H7.63C7.63 4.21 4.21 7.62 0 7.62-4.21 7.62-7.63 4.21-7.63 0-7.63-4.22-4.21-7.63 0-7.63 4.21-7.63 7.63-4.22 7.63 0" fill="#f89940"/>
<path transform="matrix(.24,0,0,-.24,295.224,160.0968)" d="M0 0H7.34C7.34 4.05 4.05 7.34 0 7.34-4.06 7.34-7.35 4.05-7.35 0-7.35-4.06-4.06-7.35 0-7.35 4.05-7.35 7.34-4.06 7.34 0" fill="#f89840"/>
<path transform="matrix(.24,0,0,-.24,295.224,160.0968)" d="M0 0H7.06C7.06 3.89 3.9 7.06 0 7.06-3.9 7.06-7.06 3.89-7.06 0-7.06-3.9-3.9-7.07 0-7.07 3.9-7.07 7.06-3.9 7.06 0" fill="#f89741"/>
<path transform="matrix(.24,0,0,-.24,295.224,160.0968)" d="M0 0H6.78C6.78 3.74 3.74 6.77 0 6.77-3.74 6.77-6.78 3.74-6.78 0-6.78-3.75-3.74-6.78 0-6.78 3.74-6.78 6.78-3.75 6.78 0" fill="#f89640"/>
<path transform="matrix(.24,0,0,-.24,295.224,160.0968)" d="M0 0H6.49C6.49 3.58 3.58 6.49 0 6.49-3.59 6.49-6.5 3.58-6.5 0-6.5-3.59-3.59-6.5 0-6.5 3.58-6.5 6.49-3.59 6.49 0" fill="#f79541"/>
<path transform="matrix(.24,0,0,-.24,295.224,160.0968)" d="M0 0H6.21C6.21 3.43 3.43 6.21 0 6.21-3.43 6.21-6.22 3.43-6.22 0-6.22-3.43-3.43-6.22 0-6.22 3.43-6.22 6.21-3.43 6.21 0" fill="#f79541"/>
<path transform="matrix(.24,0,0,-.24,295.224,160.0968)" d="M0 0H5.93C5.93 3.27 3.27 5.93 0 5.93-3.28 5.93-5.94 3.27-5.94 0-5.94-3.28-3.28-5.93 0-5.93 3.27-5.93 5.93-3.28 5.93 0" fill="#f79441"/>
<path transform="matrix(.24,0,0,-.24,295.224,160.0968)" d="M0 0H5.65C5.65 3.11 3.11 5.64 0 5.64-3.12 5.64-5.65 3.11-5.65 0-5.65-3.12-3.12-5.65 0-5.65 3.11-5.65 5.65-3.12 5.65 0" fill="#f79342"/>
<path transform="matrix(.24,0,0,-.24,295.224,160.0968)" d="M0 0H5.36C5.36 2.96 2.96 5.36 0 5.36-2.96 5.36-5.37 2.96-5.37 0-5.37-2.97-2.96-5.37 0-5.37 2.96-5.37 5.36-2.97 5.36 0" fill="#f79242"/>
<path transform="matrix(.24,0,0,-.24,295.224,160.0968)" d="M0 0H5.08C5.08 2.8 2.81 5.08 0 5.08-2.81 5.08-5.09 2.8-5.09 0-5.09-2.81-2.81-5.09 0-5.09 2.81-5.09 5.08-2.81 5.08 0" fill="#f79142"/>
<path transform="matrix(.24,0,0,-.24,295.224,160.0968)" d="M0 0H4.8C4.8 2.64 2.65 4.8 0 4.8-2.65 4.8-4.8 2.64-4.8 0-4.8-2.65-2.65-4.8 0-4.8 2.65-4.8 4.8-2.65 4.8 0" fill="#f79142"/>
<path transform="matrix(.24,0,0,-.24,295.224,160.0968)" d="M0 0H4.52C4.52 2.49 2.49 4.52 0 4.52-2.49 4.52-4.52 2.49-4.52 0-4.52-2.5-2.49-4.52 0-4.52 2.49-4.52 4.52-2.5 4.52 0" fill="#f79042"/>
<path transform="matrix(.24,0,0,-.24,295.224,160.0968)" d="M0 0H4.24C4.24 2.33 2.34 4.23 0 4.23-2.34 4.23-4.24 2.33-4.24 0-4.24-2.34-2.34-4.24 0-4.24 2.34-4.24 4.24-2.34 4.24 0" fill="#f78f43"/>
<path transform="matrix(.24,0,0,-.24,295.224,160.0968)" d="M0 0H3.95C3.95 2.18 2.18 3.95 0 3.95-2.18 3.95-3.96 2.18-3.96 0-3.96-2.18-2.18-3.96 0-3.96 2.18-3.96 3.95-2.18 3.95 0" fill="#f68e43"/>
<path transform="matrix(.24,0,0,-.24,295.224,160.0968)" d="M0 0H3.67C3.67 2.02 2.03 3.67 0 3.67-2.03 3.67-3.67 2.02-3.67 0-3.67-2.03-2.03-3.68 0-3.68 2.03-3.68 3.67-2.03 3.67 0" fill="#f68d43"/>
<path transform="matrix(.24,0,0,-.24,295.224,160.0968)" d="M0 0H3.39C3.39 1.86 1.87 3.38 0 3.38-1.87 3.38-3.39 1.86-3.39 0-3.39-1.87-1.87-3.39 0-3.39 1.87-3.39 3.39-1.87 3.39 0" fill="#f68c43"/>
<path transform="matrix(.24,0,0,-.24,295.224,160.0968)" d="M0 0H3.1C3.1 1.71 1.71 3.1 0 3.1-1.72 3.1-3.11 1.71-3.11 0-3.11-1.72-1.72-3.11 0-3.11 1.71-3.11 3.1-1.72 3.1 0" fill="#f68c44"/>
<path transform="matrix(.24,0,0,-.24,295.224,160.0968)" d="M0 0H2.82C2.82 1.55 1.56 2.82 0 2.82-1.56 2.82-2.83 1.55-2.83 0-2.83-1.56-1.56-2.83 0-2.83 1.56-2.83 2.82-1.56 2.82 0" fill="#f68b44"/>
<path transform="matrix(.24,0,0,-.24,295.224,160.0968)" d="M0 0H2.54C2.54 1.39 1.4 2.53 0 2.53-1.4 2.53-2.55 1.39-2.55 0-2.55-1.4-1.4-2.54 0-2.54 1.4-2.54 2.54-1.4 2.54 0" fill="#f68a44"/>
<path transform="matrix(.24,0,0,-.24,295.224,160.0968)" d="M0 0H2.26C2.26 1.24 1.24 2.25 0 2.25-1.25 2.25-2.26 1.24-2.26 0-2.26-1.25-1.25-2.26 0-2.26 1.24-2.26 2.26-1.25 2.26 0" fill="#f68944"/>
<path transform="matrix(.24,0,0,-.24,295.224,160.0968)" d="M0 0H1.97C1.97 1.09 1.09 1.97 0 1.97-1.09 1.97-1.98 1.09-1.98 0-1.98-1.09-1.09-1.98 0-1.98 1.09-1.98 1.97-1.09 1.97 0" fill="#f68844"/>
<path transform="matrix(.24,0,0,-.24,295.224,160.0968)" d="M0 0H1.69C1.69 .93 .93 1.69 0 1.69-.94 1.69-1.7 .93-1.7 0-1.7-.94-.94-1.7 0-1.7 .93-1.7 1.69-.94 1.69 0" fill="#f68744"/>
<path transform="matrix(.24,0,0,-.24,295.224,160.0968)" d="M0 0H1.41C1.41 .77 .78 1.41 0 1.41-.78 1.41-1.41 .77-1.41 0-1.41-.78-.78-1.41 0-1.41 .78-1.41 1.41-.78 1.41 0" fill="#f58645"/>
<path transform="matrix(.24,0,0,-.24,295.224,160.0968)" d="M0 0H1.13C1.13 .62 .62 1.12 0 1.12-.62 1.12-1.13 .62-1.13 0-1.13-.63-.62-1.13 0-1.13 .62-1.13 1.13-.63 1.13 0" fill="#f58645"/>
<path transform="matrix(.24,0,0,-.24,295.224,160.0968)" d="M0 0H.85C.85 .46 .46 .84 0 .84-.47 .84-.85 .46-.85 0-.85-.47-.47-.85 0-.85 .46-.85 .85-.47 .85 0" fill="#f58545"/>
<path transform="matrix(.24,0,0,-.24,295.224,160.0968)" d="M0 0H.56C.56 .3 .31 .56 0 .56-.31 .56-.56 .3-.56 0-.56-.31-.31-.57 0-.57 .31-.57 .56-.31 .56 0" fill="#f58445"/>
<path transform="matrix(.24,0,0,-.24,295.224,160.0968)" d="M0 0H.28C.28 .15 .15 .28 0 .28-.15 .28-.28 .15-.28 0-.28-.16-.15-.29 0-.29 .15-.29 .28-.16 .28 0" fill="#f58345"/>
</g>
<g clip-path="url(#clip_2077)">
<path transform="matrix(.24003598,0,0,-.239964,295.22297,147.8255)" stroke-width="2.115" stroke-linecap="butt" stroke-miterlimit="2.613" stroke-linejoin="miter" fill="none" stroke="#231f20" d="M0 0C28.17 0 51.15-22.97 51.15-51.14 51.15-79.32 28.17-102.29 0-102.29-28.17-102.29-51.15-79.32-51.15-51.14-51.15-22.97-28.17 0 0 0Z"/>
<path transform="matrix(.24003598,0,0,-.239964,342.1932,280.06489)" stroke-width="8.46" stroke-linecap="butt" stroke-miterlimit="2.613" stroke-linejoin="miter" fill="none" stroke="#ed1651" d="M0 0-.46 397.13"/>
<path transform="matrix(.23999997,0,0,-.23999998,336.77519,185.61124)" d="M0 0 22.07 40.22 44.23 .05 0 0" fill="#ed1651" fill-rule="evenodd"/>
<path transform="matrix(.24003595,0,0,-.23996398,430.70887,247.01462)" stroke-width="8.46" stroke-linecap="butt" stroke-miterlimit="2.613" stroke-linejoin="miter" fill="none" stroke="#ed1651" d="M0 0-.89 297.61"/>
<path transform="matrix(.23999994,0,0,-.23999997,425.21037,176.44809)" d="M0 0 21.91 40.1 44.06 .13 0 0" fill="#ed1651" fill-rule="evenodd"/>
<path transform="matrix(.24003592,0,0,-.23996397,358.48927,171.61795)" stroke-width="8.46" stroke-linecap="butt" stroke-miterlimit="2.613" stroke-linejoin="miter" fill="none" stroke="#ed1651" d="M0 0 41.76-46.72"/>
<path transform="matrix(.2399999,0,0,-.23999995,371.89918,178.68489)" d="M0 0 10.26-44.53-32.85-29.35 0 0" fill="#ed1651" fill-rule="evenodd"/>
<path transform="matrix(.24003589,0,0,-.23996395,402.5286,228.30225)" stroke-width="8.46" stroke-linecap="butt" stroke-miterlimit="2.613" stroke-linejoin="miter" fill="none" stroke="#ed1651" d="M0 0 35-45.06"/>
<path transform="matrix(.23999988,0,0,-.23999994,414.60716,235.2025)" d="M0 0 7.19-45.28-34.92-27.11 0 0" fill="#ed1651" fill-rule="evenodd"/>
<path transform="matrix(.24003586,0,0,-.23996394,307.4168,169.25919)" stroke-width="8.46" stroke-linecap="butt" stroke-dasharray="42.301,8.46" stroke-miterlimit="2.613" stroke-linejoin="miter" fill="none" stroke="#ffcb04" d="M0 0 326.26-328.2"/>
<path transform="matrix(.23999985,0,0,-.23999992,388.89595,243.69129)" d="M0 0 12.63-43.98-31.28-31.1 0 0" fill="#ffcb04" fill-rule="evenodd"/>
<path transform="matrix(.23999985,0,0,-.23999992,343.65116,147.06974)" d="M0 0C71.27 0 129.39-26.81 129.39-59.68 129.39-92.55 71.27-119.36 0-119.36-71.27-119.36-129.39-92.55-129.39-59.68-129.39-26.81-71.27 0 0 0" fill="#f6adcd" fill-rule="evenodd"/>
<path transform="matrix(.24003583,0,0,-.23996392,343.6526,147.06969)" stroke-width="2.115" stroke-linecap="butt" stroke-miterlimit="2.613" stroke-linejoin="miter" fill="none" stroke="#231f20" d="M0 0C71.25 0 129.37-26.82 129.37-59.69 129.37-92.56 71.25-119.38 0-119.38-71.26-119.38-129.38-92.56-129.38-59.69-129.38-26.82-71.26 0 0 0Z"/>
<path transform="matrix(.24003583,0,0,-.23996392,315.20835,137.47113)" stroke-width="2.115" stroke-linecap="butt" stroke-miterlimit="2.613" stroke-linejoin="miter" fill="none" stroke="#231f20" d="M0 0V31.71H239.94L240.39 0"/>
<path transform="matrix(.24003583,0,0,-.23996392,399.3385,137.85269)" stroke-width="2.115" stroke-linecap="butt" stroke-miterlimit="2.613" stroke-linejoin="miter" fill="none" stroke="#231f20" d="M0 0V31.71H239.94L240.39 0"/>
<path transform="matrix(.24003583,0,0,-.23996392,478.78553,166.65796)" stroke-width="2.115" stroke-linecap="butt" stroke-miterlimit="2.613" stroke-linejoin="miter" fill="none" stroke="#231f20" d="M0 0C-61.29-2.77-56.1 71.55-7 72.14"/>
<path transform="matrix(.23999982,0,0,-.2399999,476.65184,146.67853)" d="M0 0 20.39-10.89 .26-22.28 0 0" fill="#231f20" fill-rule="evenodd"/>
<path transform="matrix(.2400358,0,0,-.2399639,386.11494,293.50053)" stroke-width="2.115" stroke-linecap="butt" stroke-miterlimit="2.613" stroke-linejoin="miter" fill="none" stroke="#231f20" d="M0 0C100.18 .77 109.53-13.71 125.84-30.41"/>
<path transform="matrix(.23999979,0,0,-.23999989,386.5175,290.8249)" d="M0 0-20.18-11.3 .17-22.28 0 0" fill="#231f20" fill-rule="evenodd"/>
<text fill="#231f20" xml:space="preserve" transform="matrix(1.0001493 0 -0 .99984976 -17.999756 802.79989)" font-size="9.136371" font-family="Bookman"><tspan y="-602.9989" x="390.66365 397.2418 399.98274 404.73365 409.48454 412.95637 417.0489 422.16526">Electron</tspan><tspan y="-592.2283" x="388.5073 391.97914 395.99916 401.29823 407.32826 412.07917 417.7437 422.86009 426.88008">transport</tspan><tspan y="-581.45669" x="393.8061 398.557 403.49067 408.24156 411.71339 416.4643">system</tspan></text>
<text fill="#231f20" xml:space="preserve" transform="matrix(1.0001494 0 -0 .99984988 -17.999756 802.79989)" font-size="10.151522" font-family="Bookman"><tspan y="-642.4907" x="338.57579">-</tspan><tspan y="-653.52737" x="421.71629">-</tspan><tspan y="-639.2242" x="335.64738">e</tspan><tspan y="-639.64926" x="344.19166 350.07954 355.3583 360.6371 365.91587 372.2098 376.06739 381.75224">acceptor</tspan><tspan y="-649.55276" x="419.11088">e</tspan><tspan y="-649.9778" x="427.65617 433.54405 438.8228 444.1016 449.3804 455.67436 459.53193 465.21678">acceptor</tspan></text>
<text fill="#231f20" xml:space="preserve" transform="matrix(1.0001493 0 -0 .99984976 -17.999756 802.79989)" font-size="9.136371" font-family="Bookman"><tspan y="-639.3893" x="302.56446 308.04627 310.78718 315.72084 321.75083">Light</tspan><tspan y="-678.23019" x="330.16859 335.83314 341.86314 346.9795 350.45133 355.5677 360.3186 365.25227 370.00315 373.47499 378.2259 386.8141 389.7377 392.8441">Photosystem II</tspan><tspan y="-677.092" x="413.7401 419.4047 425.4347 430.55107 434.0229 439.13926 443.89015 448.8238 453.5747 457.04655 461.79743 470.38563 473.30928">Photosystem I</tspan><tspan y="-649.7959" x="500.34614 507.10707 513.31979 520.62887 526.2934">NADPH</tspan><tspan y="-632.1472" x="497.51673 504.27766 510.49037 517.79946">NADP</tspan></text>
<text fill="#231f20" xml:space="preserve" transform="matrix(1.0001493 0 -0 .99984976 -17.999756 802.79989)" font-size="7.106066" font-family="Bookman"><tspan y="-635.3407" x="524.1107">+</tspan></text>
<text fill="#231f20" xml:space="preserve" transform="matrix(1.0001493 0 -0 .99984976 -17.999756 802.79989)" font-size="9.136371" font-family="Bookman"><tspan y="-506.44535" x="350.52565 356.00746 363.31654">LHC</tspan><tspan y="-539.18728" x="436.80158 442.2834 449.59248">LHC</tspan><tspan y="-492.85026" x="402.65147 414.3642 421.67329 424.59693 427.52058 430.44419 433.36784 436.29148 439.2151 442.13874 445.06236 450.72694 455.4778 458.40147 463.88328 466.80693 472.47148 479.78056 482.7042 485.6278 491.10963 494.03327 496.77418 504.08329">HO        2e + 2H  + [O]</tspan></text>
<text fill="#231f20" xml:space="preserve" transform="matrix(1.0001493 0 -0 .99984976 -17.999756 802.79989)" font-size="7.106066" font-family="Bookman"><tspan y="-492.85026" x="409.95857">2</tspan></text>
<path transform="matrix(.24003582,0,0,-.23996394,405.71144,306.99607)" stroke-width="2.115" stroke-linecap="butt" stroke-miterlimit="2.613" stroke-linejoin="miter" fill="none" stroke="#231f20" d="M0 0H52.2"/>
<path transform="matrix(.23999982,0,0,-.23999994,417.82069,304.32008)" d="M0 0 20.26-11.15 0-22.29V0" fill="#231f20" fill-rule="evenodd"/>
<text fill="#231f20" xml:space="preserve" transform="matrix(1.0001493 0 -0 .99984976 -17.999756 802.79989)" font-size="7.106066" font-family="Arial"><tspan y="-495.8467" x="455.444">-</tspan><tspan y="-496.61985" x="479.9797">+</tspan></text>
<text fill="#231f20" xml:space="preserve" transform="matrix(1.0001493 0 -0 .99984976 -17.999756 802.79989)" font-size="7.106066" font-family="Bookman"><tspan y="-628.3386" x="389.20307 394.0352 399.72004 404.12583">ADP+</tspan></text>
<text fill="#231f20" xml:space="preserve" transform="matrix(1.0001493 0 -0 .99984976 -17.999756 802.79989)" font-size="7.106066" font-family="Bookman" font-style="italic"><tspan y="-628.3386" x="408.38948 410.37916">iP</tspan></text>
<text fill="#231f20" xml:space="preserve" transform="matrix(1.0001493 0 -0 .99984976 -17.999756 802.79989)" font-size="7.106066" font-family="Bookman"><tspan y="-628.7217" x="429.55915 434.39799 438.80375">ATP</tspan></text>
<path transform="matrix(.24003582,0,0,-.23996394,385.71165,178.03699)" stroke-width="2.115" stroke-linecap="butt" stroke-miterlimit="2.613" stroke-linejoin="miter" fill="none" stroke="#231f20" d="M0 0C8.47-55 102.25-63.58 128.53-15.82"/>
<path transform="matrix(.23999982,0,0,-.23999994,414.01667,180.91211)" d="M0 0 19.54 12.38 19.53-10.74 0 0" fill="#231f20" fill-rule="evenodd"/>
</g>
<text fill="#6d6f71" xml:space="preserve" transform="matrix(1 0 -0 1 -18 802.8)" font-size="9.5" font-family="Bookman"><tspan y="-462.24" x="320.4 326.9434 330.44679 336.0402 342.3936 346.847 352.4404 357.0788 363.4322 369.78559 373.09898 379.45237">Figure 11.5 </tspan></text>
<text fill="#6d6f71" xml:space="preserve" transform="matrix(1 0 -0 1 -18 802.8)" font-size="9.5" font-family="Bookman"><tspan y="-462.24" x="384 390.085 394.33003 399.27503 404.22004 410.49504 415.44004 424.37504 429.32005 433.56507 438.89009 441.9351 446.1801 449.03514 451.89015 457.02516 463.30015 466.91514 471.16017 475.34516 480.29017 485.80519 490.75019 494.36518 497.22019 502.5452">Z scheme of light reaction</tspan></text>
<g clip-path="url(#clip_2078)">
<text xml:space="preserve" transform="matrix(1 0 -0 1 259.314 763.9998)" font-size="8" font-family="Arial"><tspan y="6.316" x="0"> </tspan></text>
</g>
</g>
</g>
</svg>
