<svg xmlns="http://www.w3.org/2000/svg" xmlns:xlink="http://www.w3.org/1999/xlink" xmlns:inkscape="http://www.inkscape.org/namespaces/inkscape" version="1.1" width="576" height="784.8" viewBox="0 0 576 784.8">
<defs>
<clipPath id="clip_2079">
<path transform="matrix(1,0,0,-1,-18,802.8)" d="M18 18H594V802.8H18Z" clip-rule="evenodd"/>
</clipPath>
<clipPath id="clip_2080">
<path transform="matrix(.24,0,0,-.24,-18,802.8)" d="M344 2845H1190V2095H344Z"/>
</clipPath>
<clipPath id="clip_2081">
<path transform="matrix(.24,0,0,-.24,-18,802.8)" d="M405.938 2654.86C437.605 2654.86 463.434 2629.03 463.434 2597.37 463.434 2565.71 437.605 2539.88 405.938 2539.88 374.27 2539.88 348.438 2565.71 348.438 2597.37 348.438 2629.03 374.27 2654.86 405.938 2654.86Z" clip-rule="evenodd"/>
</clipPath>
<clipPath id="clip_2082">
<path transform="matrix(.24,0,0,-.24,-18,802.8)" d="M344 2845H1190V2095H344Z"/>
</clipPath>
<clipPath id="clip_2083">
<path transform="matrix(1,0,0,-1,259.314,763.9998)" d="M0-8H57.372V.800049H0Z"/>
</clipPath>
</defs>
<g>
<g clip-path="url(#clip_2079)">
<path transform="matrix(.24,0,0,-.24,-18,802.8)" d="M2 2H2548V214.668H2Z" fill="#cbdf7f" fill-rule="evenodd"/>
<path transform="matrix(.24,0,0,-.24,-18,802.8)" stroke-width="4" stroke-linecap="butt" stroke-miterlimit="1000" stroke-linejoin="miter" fill="none" stroke="#cbdf7f" d="M2 2H2548V214.668H2Z"/>
<path transform="matrix(.24,0,0,-.24,-18,802.8)" d="M0 3035.83H2550V3372.705H0Z" fill="#d1d3d4" fill-rule="evenodd"/>
<path transform="matrix(.24,0,0,-.24,-18,802.8)" d="M0 3078.33H2550V3419.998H0Z" fill="#e1ecb6" fill-rule="evenodd"/>
<path transform="matrix(.24,0,0,-.24,62.63616,53.635194)" d="M0 0C7.325 7.32 16.164 10.98 26.516 10.98H97.352C107.707 10.98 116.547 7.32 123.868 0 131.192-7.33 134.852-16.17 134.852-26.52V-101.52C134.852-111.88 131.192-120.72 123.868-128.04 116.547-135.36 107.707-139.02 97.352-139.02H26.516C16.164-139.02 7.325-135.36 0-128.04-7.32-120.72-10.984-111.88-10.984-101.52V-26.52C-10.984-16.17-7.32-7.33 0 0" fill="#ffffff" fill-rule="evenodd"/>
<text fill="#231f20" xml:space="preserve" transform="matrix(1 0 -0 1 -18 802.8)" font-size="11" font-family="Bookman"><tspan y="-729.361" x="87.12 94.41 101.700008">140</tspan></text>
<text fill="#231f20" xml:space="preserve" transform="matrix(1 0 -0 1 -18 802.8)" font-size="11" font-family="Bookman"><tspan y="-729.361" x="513.12">B</tspan></text>
<text fill="#231f20" xml:space="preserve" transform="matrix(1 0 -0 1 -18 802.8)" font-size="7.7" font-family="Bookman"><tspan y="-729.361" x="521.04 523.4336 529.3692 533.76486 539.70046 545.63607">IOLOGY</tspan></text>
<path transform="matrix(.24,0,0,-.24,-18,.35998536)" stroke-width="1" stroke-linecap="butt" stroke-miterlimit="10" stroke-linejoin="miter" fill="none" stroke="#000000" d="M0 0H60"/>
<path transform="matrix(.24,0,0,-.24,.12000084,-18)" stroke-width="1" stroke-linecap="butt" stroke-miterlimit="10" stroke-linejoin="miter" fill="none" stroke="#000000" d="M0 0V-60"/>
<path transform="matrix(.24,0,0,-.24,-18,784.68)" stroke-width="1" stroke-linecap="butt" stroke-miterlimit="10" stroke-linejoin="miter" fill="none" stroke="#000000" d="M0 0H60"/>
<path transform="matrix(.24,0,0,-.24,.12000084,788.16)" stroke-width="1" stroke-linecap="butt" stroke-miterlimit="10" stroke-linejoin="miter" fill="none" stroke="#000000" d="M0 0V-60"/>
<path transform="matrix(.24,0,0,-.24,593.64,784.56)" stroke-width="1" stroke-linecap="butt" stroke-miterlimit="10" stroke-linejoin="miter" fill="none" stroke="#000000" d="M0 0V-75"/>
<text fill="#231f20" xml:space="preserve" transform="matrix(1 0 -0 1 -18 802.8)" font-size="10.5" font-family="Bookman"><tspan y="-689.521" x="318.24 325.3079 331.7458 338.1837 339.8002 342.8781 348.26603 349.88255 355.27046 360.86836 367.72627 371.64418 378.50209 383.88999 389.2779 392.3558 397.7437 403.13163 409.56953 411.18605 417.62394 423.22184 424.83836 430.22627 435.61418 438.69209 441.77 447.1579 448.7744 451.85234 454.93025 461.78816 463.40467 473.20259 476.2805 480.1984 486.0063 491.3942 498.2521 504.06 510.9179 517.35586 521.90377 524.9816 530.9995 532.616 538.6339 545.4918">ATP is synthesised by cells (in mitochondria and</tspan><tspan y="-675.361" x="318.24 323.6442 330.5184 333.6126 339.4368 344.001 349.8252 356.2794 359.3736 365.4078 370.812 374.74623 380.15043 383.24464 384.87385 387.96806 393.37226 395.00148 401.87568 407.90989 417.7241 423.1283 429.5825 431.2117 437.6659 444.5401 450.3643 455.7685 462.2227 469.0969 474.92109 479.4853 485.0995 488.1937 494.2279 498.1621 501.25633 507.0805 513.9547 517.2589 518.8881 525.34237 532.21658 538.0408 541.975 547.7992">chloroplasts) is named phosphorylation. Photo-</tspan><tspan y="-661.44107" x="318.24 324.7498 331.6796 337.5594 343.0192 349.529 356.4588 362.3386 366.9584 372.6282 375.778 381.86784 385.85765 389.00746 394.88725 401.81706 405.74357 408.89338 414.35319 418.2797 422.2695 429.1993 434.65913 438.58564 444.04545 449.71525 456.64506 460.63487 467.56468 473.02449 478.48429 481.6341 487.0939 491.02043 496.9002 500.26 504.18653 511.32633 517.8361 524.34597 528.27249 531.63229 536.2521 542.1319">phosphorylation is the synthesis of ATP from</tspan><tspan y="-647.52108" x="318.24 325.328 333.676 340.134 341.77064 347.80863 354.6866 361.14463 362.78126 365.87925 372.75724 378.58525 383.15324 388.77125 394.80924 401.68724 404.78523 410.1932 411.82984 418.28785 425.16584 430.99385 436.40184 442.85984 449.73783 455.77583 459.7138 465.1218 466.75843 469.8564 476.7344 478.37104 482.30903 489.187 494.595 496.23164 502.68965 507.25764 512.66567 518.07369 523.4817 530.3597 535.7677 541.1757 542.8123 548.6403">ADP and inorganic phosphate in the presence of</tspan><tspan y="-633.3611" x="318.24 321.44779 324.65559 330.3834 337.3712 341.41899 344.83677 349.09025 359.22804 366.21583 371.7336 378.7214 382.97489 387.02268 394.01048 399.52827 403.78175 407.82954 416.07734 422.01515 426.26863 432.83644 439.82423 445.76203 449.8098 455.74763 461.2654 466.99324 472.51103 476.5588 482.0766 492.0044 497.5222 501.77568 510.02348 515.96127 520.63906 527.20687 531.4603 534.66818 541.65597 545.9094">light. When the two photosystems work in a</tspan><tspan y="-619.4411" x="318.24 323.4541 328.6682 333.04234 335.94645 341.16056 346.37467 349.48878 350.93019 354.04429 356.9484 361.3225 366.53663 370.28074 371.72215 377.98625 384.67036 386.11177 389.43586 392.75996 394.20137 400.04545 406.72956 412.99366 414.43507 418.17918 424.86329 430.0774 436.7615 438.2029 441.94703 448.63114 453.84526 455.28666 461.55076 468.23487 469.67628 473.00038 476.11448 477.55589 483.39997 484.84138 491.10548 495.47959 501.11369 506.3278 511.5419 516.756 521.9701 523.41146 528.62557 534.46969 537.3738 540.2779 545.492">series, first PS II and then the PS I, a process called</tspan><tspan y="-605.5211" x="318.24 325.1721 331.0542 337.9863 342.1884 347.65049 353.32258 358.78468 361.93678 365.08888 370.55097 373.26307 379.77516 386.70726 392.58937 396.58146 402.46357 406.66566 413.17774 420.10984 425.99195 431.45405 437.96614 444.89823 450.78034 455.40245 461.07453 464.22663 470.31874 474.31083 477.46293 483.34504 490.27714 492.98924 498.87135 504.33345 509.79554 516.9376 521.5597 527.0218 530.3839 533.096 539.6081 546.5402">non-cyclic photo-phosphorylation occurs. The</tspan><tspan y="-591.36117" x="318.24 322.2728 330.50559 336.42839 340.67118 347.22398 354.19679 360.11958 364.15238 370.07518 375.57798 381.29078 386.79359 390.8264 396.3292 406.242 411.7448 415.9876 422.12043 426.78324 432.28605 436.52885 442.03166 447.95445 454.92726 461.90007 467.40287 472.90568 476.93849 482.44129 488.99409 493.23689 497.26969 504.2425 508.9053 514.8281 522.0109 527.72378 534.69656 538.93936 545.07217">two photosystems are connected through an</tspan><tspan y="-577.44119" x="318.24 323.699 326.848 332.307 337.76603 341.75505 346.37403 352.25303 359.182 360.8973 364.88633 369.5053 375.5943 382.5233 387.9823 394.4913 400.3703 404.9893 408.9783 410.6936 416.15263 423.0816 429.1706 432.31959 439.24858 442.60758 444.32289 450.41188 455.87089 457.58619 463.0452 468.5042 473.96324 480.8922 482.6075 488.06654 494.15553 498.7745 501.9235 505.07249 510.5315 515.1505 516.86587 522.11489 523.8302 526.9792 533.9082 535.62356 539.61257 546.54159">electron transport chain, as seen earlier &#x2013; in the</tspan><tspan y="-563.5212" x="318.24 325.2881 329.8119 335.59999 341.38807 348.64616 354.43424 364.63233 370.4204 374.10853 378.63233 386.73045 392.93855 397.25666 404.51475 409.03855 416.50666 423.34477 430.18287 434.70668 441.12477 448.38285 455.22096 459.74476 467.84288 475.31098 484.03907 490.87718 499.60527 504.12907 510.75718 515.28097">Z scheme. Both ATP and NADPH + H</tspan></text>
<text fill="#231f20" xml:space="preserve" transform="matrix(1 0 -0 1 -18 802.8)" font-size="6.1" font-family="Bookman"><tspan y="-566.88119" x="524.16 527.9491">+ </tspan></text>
<text fill="#231f20" xml:space="preserve" transform="matrix(1 0 -0 1 -18 802.8)" font-size="10.5" font-family="Bookman"><tspan y="-563.5212" x="530.63998 535.17666 541.5933 546.54006"> are</tspan><tspan y="-549.3612" x="318.23997 323.69728 329.36457 336.29188 340.27919 347.20649 352.6638 358.1211 361.2684 366.7257 372.183 378.6903 380.3905 386.8978 392.5651 394.2653 398.2526 405.1799 408.3272 413.78453 415.4847 421.992 425.1393 432.06663 438.5739 440.2741 446.1514 449.5087 451.2089 456.6662 459.8135 465.2708 470.72813 474.71543 479.33274 485.21003 492.13734 493.83753 497.19483 500.34214 506.21943 514.40676 516.10696 519.2542 525.9715 529.1188 534.7861 541.9234 546.5407">synthesised by this kind of electron flow (Figure</tspan><tspan y="-535.4412" x="318.23997 324.72596 331.21195 334.54795 341.03395 344.15995">11.5).</tspan><tspan y="-521.52127" x="336.23997 346.26426 353.13856 358.54286 365.41716 367.88395 373.70826 380.58256 383.67686 389.29115 391.75794 398.21226 405.08656 407.55335 411.06767 413.53446 416.62876 422.03306 424.49986 427.80415 434.88844 441.76274 447.16703 451.10133 454.19563 460.01994 466.89424 472.92854 476.02284 479.32713 481.7939 485.7282 492.6025 498.0068 500.4736 505.8779 508.9722 514.3765 519.7808 523.71517 528.2794 534.1037 540.978 543.4448 546.5391">When only PS I is functional, the electron is</tspan><tspan y="-507.36125" x="318.23997 323.89497 327.23997 332.05497 337.70997 345.04496 348.38996 354.67497 358.85997 364.51496 371.21995 376.45494 384.83995 388.18495 392.36994 399.49494 402.83995 409.96495 415.19993 419.38493 426.50993 432.16493 437.3999 444.1049 451.2299 457.3049 461.4899 467.5649 473.2199 479.0849 484.7399 488.9249 494.5799 504.6449 509.87989 516.16488 523.28988 529.9949 535.22988 539.41488 546.53988">circulated within the photosystem and the</tspan><tspan y="-493.44123" x="318.23997 324.74998 331.67997 337.55998 343.01997 349.52998 356.45997 362.33998 366.95997 372.62998 375.77998 381.86997 385.85997 389.00996 394.88996 401.81996 406.65495 412.53495 417.99494 423.45494 430.59495 435.21495 440.67494 445.50993 452.01994 459.15995 464.61994 469.45494 473.44493 479.32493 484.1599 489.6199 495.28993 500.7499 503.8999 507.0499 512.5099 517.34487 520.70486 523.85488 529.73489 537.92489 542.7598 548.63986">phosphorylation occurs due to cyclic flow of</tspan><tspan y="-479.5212" x="318.23997 323.87648 327.20298 332.83949 338.47599 342.6425 347.439 353.49549 360.602 366.2385 371.455 374.7815 381.678 385.00453 390.851 398.1675 402.96403 408.60054 413.81703 420.5035 427.19 430.7265 437.413 440.7395 444.276 449.4925 456.809 462.02549 468.71199 474.76847 480.40498 486.04148 489.36799 496.05448 499.38099 505.0175 510.23399 513.5605 519.617 525.2535 531.51998 535.68649 539.01296 545.06948">electrons (Figure 11.6). A possible location</tspan><tspan y="-465.3612" x="318.23997 326.38816 333.27638 338.69459 343.27278 348.69099 351.1717 355.1199 362.00813 365.11634 370.53456 373.01527 378.43348 384.27168 391.36988 394.4781 400.9463 403.427 409.8952 415.31343 417.79414 424.68235 430.73054 437.19874 443.66694 449.08515 455.97337 459.08155 465.96977 471.59797 474.07868 477.1869 482.6051 485.08583 488.19404 495.08226 497.56297 501.51118 508.39939 513.81759 516.2982 521.71646 525.6646 530.2428 536.081 545.9092">where this could be happening is in the stroma</tspan><tspan y="-451.4412" x="191.99997 195.14817 201.23636 211.10456 216.56276 219.71096 222.85915 228.94734 234.40555 237.76375 241.00655 244.24935 254.32755 261.25575 264.40394 267.55213 273.0103 276.25315 280.24134 287.16954 292.62773 295.8705 305.7387 311.1969 321.0651 327.5733 332.1915 338.2797 345.2079 350.66609 353.9089 359.7871 364.4053 367.6481 370.7963 376.8845 386.7527 392.21089 395.35908 398.50727 404.59547 410.05366 413.29649 419.17469 422.5329 425.77574 429.76393 436.6921 442.1503 445.3931 451.0613 455.6795 461.7677 468.6959 474.7841 478.0269 484.95509 491.04328 496.50148 501.95967 505.20249 511.7107 517.58889 521.5771 528.5053 531.7481 538.2563 545.1845 548.4273">lamellae.  While the membrane or lamellae of the grana have both PS I</tspan><tspan y="-437.52119" x="191.99997 198.08567 205.01137 211.51708 215.39968 221.90538 228.83109 232.71369 236.27939 239.8451 243.72769 247.7134 254.6391 260.0948 263.9774 269.43309 273.41877 278.03446 283.91017 293.77586 299.86155 303.74415 306.88984 312.97554 322.84123 328.2969 331.4426 334.5883 340.67399 346.12968 350.01228 359.87797 365.33366 375.19935 381.70506 386.32075 392.40644 399.33213 404.7878 410.2435 414.1261 417.2718 423.35749 428.81318 435.31889 439.20149 445.70719 452.63288 456.51548 460.08119 463.64689 467.52949 473.61518 479.07087 482.95347 491.13917 496.59486 499.74055 502.88624 506.76884 512.85458 518.31027 522.1929 529.95858 537.09426 545.4899">and PS II the stroma lamellae membranes lack PS II as well as NADP</tspan><tspan y="-423.36119" x="191.99997 196.57607 201.99217 208.45827 215.55437 220.97048 224.91658 230.96268 236.37879 241.79489 244.27599 249.6921 256.5782 261.57429 267.20039 277.0265 282.4426 285.7587 288.2398 294.7059 301.592 307.00813 309.48924 314.90534 320.74143 326.15754 329.26365 333.20976 338.62586 345.09196 347.57307 352.98918 356.09529 361.51139 366.9275 370.8736 375.4497 381.2858 388.1719 390.653 397.1191 402.9552 408.3713 413.7874 416.26853 423.15464 428.99073 432.93684 435.41795 441.88404 447.93016 453.34626 458.76237 461.24348 467.07957 473.96568 476.44679 480.39289 486.22898 488.71009 496.4362 503.5323 511.8884">reductase enzyme. The excited electron does not pass on to NADP</tspan></text>
<text fill="#231f20" xml:space="preserve" transform="matrix(1 0 -0 1 -18 802.8)" font-size="6.1" font-family="Bookman"><tspan y="-426.96119" x="518.39999 521.98898">+ </tspan></text>
<text fill="#231f20" xml:space="preserve" transform="matrix(1 0 -0 1 -18 802.8)" font-size="10.5" font-family="Bookman"><tspan y="-423.36119" x="523.43997 529.9099 537.0099 540.9599 543.42996 546.5399">but is</tspan><tspan y="-409.44117" x="191.99994 197.45925 203.12854 208.58785 211.73715 217.19646 223.70575 227.62865 234.13794 240.22724 245.68654 252.19583 256.11875 260.10804 265.98735 269.91026 273.89955 280.82884 286.28813 290.21104 296.72035 303.64964 307.57255 311.14186 315.06477 320.52406 326.40336 336.27265 342.78196 345.93125 351.39054 357.26985 361.19276 365.18205 372.11134 376.73063 382.60993 389.74925 395.41856 402.34785 406.27076 410.26005 417.18934 422.64863 426.57154 432.03083 435.1801 440.6394 446.0987 450.08799 454.70729 460.58659 467.51588 471.43879 475.42808 480.04737 486.13667 493.06596 498.52525 505.03456 510.91386 515.53317 519.52249 523.4454 528.90469 535.834 541.9233 545.0726">cycled back to the PS I complex through the electron transport chain</tspan><tspan y="-395.52116" x="191.99994 195.10794 201.78594 204.89394 210.52194 217.61995 222.23995 227.65145 230.12454 236.58605 243.04755 246.35904 252.82054 255.92205 259.23356 261.70664 264.17973 270.6412 277.5227 282.9342 285.4073 290.8188 296.44029 301.85179 304.95329 308.05479 313.46629 315.93937 319.25086 322.35237 328.18388 336.32539 338.79847 345.67997 351.09147 357.97297 363.38447 368.79597 372.10746 374.58055 379.19996 384.61097 390.02198 397.11299 400.214 404.155 409.566 412.0386 417.8696 424.7506 427.85163 433.47264 435.94523 439.04624 445.92726 448.39985 452.34086 459.22187 464.63288 467.10548 472.51649 478.13749 485.0185 488.9595 495.8405 501.25154 506.66255 509.76356 515.17459 517.64718 523.47817 526.7891 529.2617 536.39999 542.85 548.63998">(Figure 11.6).  The cyclic flow hence, results only in the synthesis of ATP,</tspan><tspan y="-381.36116" x="191.99994 198.51415 205.65834 209.65254 212.73674 219.67095 225.55515 229.54935 232.63355 238.51775 241.88195 244.96614 252.74034 259.88456 268.28877 274.80296 283.20716 286.29136 292.59556 295.67976">but not of NADPH + H</tspan></text>
<text fill="#231f20" xml:space="preserve" transform="matrix(1 0 -0 1 -18 802.8)" font-size="6.1" font-family="Bookman"><tspan y="-384.96116" x="304.07997">+</tspan></text>
<text fill="#231f20" xml:space="preserve" transform="matrix(1 0 -0 1 -18 802.8)" font-size="10.5" font-family="Bookman"><tspan y="-381.36116" x="307.67997 311.04039 314.1208 321.89118 327.56159 333.02198 336.17237 339.32276 344.78315 347.86357 354.37397 361.30436 367.18476 371.17515 377.05555 383.56596 390.49635 396.37675 401.83714 408.34754 415.27793 421.15834 425.77873 431.44914 434.59953 440.6899 444.6803 447.8307 453.7111 460.64149 463.7219 469.8123 472.96269 478.42308 484.30348 487.38389 493.26429 498.72468 504.18507 511.32548 515.94589 521.40628 524.48666 532.67709 539.6075 545.0679">. Cyclic photophosphorylation also occurs when</tspan><tspan y="-367.44114" x="191.99997 197.87778 204.80558 207.95337 213.62117 216.21398 219.36177 222.50957 228.17737 235.10517 239.09296 241.68576 247.56357 250.92137 253.51418 261.70198 267.78977 273.24757 278.70536 281.85316 287.31095 294.23875 299.90653 303.89433 310.8221 316.2799 318.87269 325.3805 330.8383 336.50608 342.38389 349.31169 355.8195 358.41227 364.92008 371.4279 377.9357 380.52848 387.45628 397.32408 399.91685 406.00465 410.62245 416.08024 418.673 424.7608 430.2186 436.3064 439.4542 442.602 448.6898 455.1976 458.3454 463.8032 466.39598 469.75376 475.63157 480.24937 482.84214 488.29994 494.17774 499.63554 502.78334 506.77113 512.85897 516.84677 519.99459 525.8724 532.8002">only light of wavelengths beyond 680 nm are available for excitation.</tspan></text>
<text fill="#00aeef" xml:space="preserve" transform="matrix(1 0 -0 1 -18 802.8)" font-size="12" font-family="Bookman"><tspan y="-341.28114" x="191.99997 200.35198 208.70398 213.21598 221.56798 226.07997 239.99997 248.82907 256.93818 263.84727 275.79637 280.06547 287.45457 293.64366 305.59275 312.98185 318.45094 322.72004 329.62913 334.05824 343.84733 351.23643 358.8655 366.2546 371.7237 379.8328 386.74189 392.93098 397.20008">11.6.3Chemiosmotic Hypothesis</tspan></text>
<text fill="#231f20" xml:space="preserve" transform="matrix(1 0 -0 1 -18 802.8)" font-size="10.5" font-family="Bookman"><tspan y="-318.72114" x="191.99997 198.08997 203.33997 207.11997 211.39496 218.32495 223.57495 227.84995 234.56995 240.23995 248.21994 252.49494 256.27494 260.68495 266.14494 270.41993 276.29994 283.01994 289.31993 293.5949 300.5249 307.2449 313.5449 318.7949 323.2049 328.4549 332.2349 338.1149 344.8349 351.1349 355.40989 362.12989 367.7999 375.7799 380.0549 385.9349 391.1849 394.9649 401.8949 407.7749 410.7149 413.6549 419.1149 423.3899 430.3199 436.61988 442.91987 447.19486 450.13487 455.38487 459.65986 464.90986 470.36985 477.08985 480.86985 487.58985 492.83985 498.08985 501.02986 506.27986 511.52986 517.82986 522.10488 525.04489 531.76486 536.03988 539.8199 546.53988">Let us now try and understand how actually ATP is synthesised in the</tspan><tspan y="-304.32115" x="191.99997 197.24997 203.96997 206.90998 212.57997 216.98998 222.65998 228.95998 231.89998 237.77999 243.02999 246.80998 249.95998 252.27667 258.57667 265.29667 270.54667 272.86335 278.11335 284.83335 290.08335 299.74336 302.68336 308.35337 313.60337 323.26338 328.93339 332.71339 335.65339 340.90339 343.22007 349.94007 355.40007 361.70005 367.37007 371.15007 377.87007 383.12007 388.37007 391.31007 396.56007 398.87675 405.59675 411.47676 416.72676 419.04344 425.3434 430.5934 435.8434 442.56343 444.8801 451.18009 458.11009 461.89009 464.20677 467.35676 473.02677 477.43678 485.41679 491.29679 495.7068 502.00679 504.32347 508.10346 513.77346 516.09017 521.34017 527.01016 533.3101 536.2501 542.1301 545.0701">chloroplast. The chemiosmotic hypothesis has been put forward to explain</tspan><tspan y="-289.68113" x="191.99997 195.73188 202.40378 207.60569 209.87258 219.48448 224.68639 229.88829 236.5602 242.39209 249.064 251.9559 257.1578 266.7697 269.8716 272.13853 278.18043 281.07234 287.32423 292.52613 294.79304 297.68495 304.35685 306.62376 310.98567 316.18757 321.38948 327.64137 330.53327 334.89518 340.72709 344.45899 347.3509 352.97279 359.64469 362.74659 365.0135 367.9054 374.5773 376.8442 383.0961 389.768 395.3899 399.1218 404.74369 409.9456 415.35749 422.0294 425.7613 432.4332 437.6351 442.837 445.7289 450.93083 453.19773 456.92964 462.5515 468.1734 471.2753 473.5422 480.4241 486.676 492.9279 495.1948 500.3967 505.8086 512.48049 516.21237 522.8842 528.0861 533.288 536.17996 541.38186 543.64877 546.54067">the mechanism. Like in respiration, in photosynthesis too, ATP synthesis is</tspan><tspan y="-275.28114" x="191.99997 194.93737 197.87476 204.59217 210.88956 216.13697 222.43436 225.43177 229.20917 234.87657 237.87398 244.17137 249.41878 254.66619 259.91358 262.85099 268.51838 274.81578 284.47319 289.72059 296.438 300.2154 303.2128 308.8802 312.0276 315.025 320.9024 323.8998 330.1972 334.6046 340.272 344.0494 349.7168 356.4342 359.4316 364.889 369.29643 375.17384 381.47123 384.40864 389.65605 396.37345 400.15086 403.14826 409.02568 414.27308 418.68049 424.34788 429.59529 434.84269 437.8401 443.7175 446.7149 456.3723 461.61973 471.27714 477.57453 481.98194 487.85935 494.57676 499.82417 502.97157 505.96897 512.26638 518.98379 521.92117 527.1685 530.1659 533.9433 536.8807 546.5381">linked to development of a proton gradient across a membrane. This time</tspan><tspan y="-260.6411" x="191.99997 195.76587 202.47177 207.70767 212.94358 218.17948 220.47907 226.34497 230.74088 235.97678 238.27637 242.04227 248.74817 253.98407 256.28367 265.92958 271.16548 280.81138 287.09727 291.49317 297.35908 304.06498 309.30088 314.53678 316.83638 322.49229 325.62818 327.92778 331.69367 338.39958 343.84547 346.77137 352.63728 358.92317 364.57908 367.50498 373.79087 376.92677 379.22636 385.51225 392.21815 397.45405 401.84996 407.08586 409.38545 412.31135 417.54725 419.84684 425.50276 432.20866 437.44456 439.74415 446.03004 448.95594 452.09184 455.22773 460.46363 464.85954 470.09544 476.80134 482.03724 487.27314 489.57273 493.33863 500.04454 505.70045 512.61636 518.06228 524.7681 527.90408 530.2037 536.90957 542.14547 546.5413">these are the membranes of thylakoid. There is one difference though, here</tspan><tspan y="-246.24112" x="191.99997 195.77187 202.48377 207.72566 210.03008 216.32198 220.72388 226.38578 230.15767 235.81957 242.53147 244.83588 250.70778 255.94968 261.1916 268.1135 277.76539 284.6873 287.6192 293.4911 297.263 300.1949 305.85679 312.5687 314.8731 317.805 323.0469 325.35133 329.12324 334.78514 342.75703 348.6289 353.0308 359.3227 364.5646 366.86903 370.64094 377.35285 382.59477 384.89918 387.83106 394.54298 399.78489 402.7168 409.0087 414.2506 416.55503 422.21693 425.35884 427.66325 431.43516 438.14707 443.38899 445.6934 455.34529 460.5872 470.23908 476.53099 480.93287 486.80476 493.51667 498.75859 501.90049 504.2049 507.13679 510.2787 515.52059 518.6625 521.8044 524.10879 527.04067 533.75259 536.05697 539.82888 546.5408">the proton accumulation is towards the inside of the membrane, i.e., in the</tspan><tspan y="-231.84113" x="191.99997 194.93807 201.86617 211.52426 216.77237 223.49047 226.63857 229.36447 232.72257 239.44066 242.16657 246.57466 251.82276 257.07087 263.36897 266.30708 270.71519 276.5933 280.3714 283.3095 288.9776 295.6957 298.8438 301.5697 307.8678 312.2759 317.944 321.7221 327.3902 334.1083 339.3564 342.0823 347.96043 353.20854 358.45664 365.38475 375.04286 381.97096 384.90907 390.78718 394.56529 399.8134 402.53929 405.4774 412.1955 414.9214 418.6995 425.4176 430.6657 433.3916 436.3297 443.04783 446.82594 452.07405 456.48216 466.14027 471.38838 481.04649 487.34458 491.7527 497.6308 504.3489 509.59703 512.32296 517.57107 523.86917 529.74728 534.99539 540.24349 542.96939 548.63748">lumen. In respiration, protons accumulate in the intermembrane space of</tspan><tspan y="-217.20113" x="191.99997 195.77938 202.49878 207.74819 212.57529 222.23468 225.17409 228.95349 234.6229 239.8723 246.5917 252.26111 258.9805 265.2799 269.6893 272.6287 278.5081 283.3352 291.3146 298.034 303.2834 310.00279 314.8299 320.07929 323.01869 328.26808 333.51747 337.29685 341.70625 347.37565 354.09504 359.34443 364.17155 373.83094 379.50035 384.74974 389.9991 394.82624 398.60563 405.325 409.7344 415.4038 422.33323 427.79264 434.51203 439.33915 443.11854 449.83793 455.0873 459.91444 467.26383 473.56324 480.28263 485.10975 488.04914 495.60853 502.3279 508.2073 514.5067 518.28616 523.5355 527.94497 532.77206 539.04 545.75997 548.63998">the mitochondria when electrons move through the ETS (Chapter 12).</tspan><tspan y="-202.80113" x="209.99994 216.40914 221.97834 226.07753 231.22443 238.47364 244.04283 249.18973 256.43894 263.47816 270.09736 275.66658 280.39576 285.96498 290.06419 296.26338 303.30259 309.92179 315.0687 323.3679 330.4071 336.6063 340.7055 345.85243 351.42164 357.62083 364.87004 370.43925 376.00846 381.57768 386.72459 390.8238 397.863 403.43223 408.57914 415.19834 419.92753 425.91673 430.01594 436.00514 443.04435 448.19126 453.97047 458.69966 464.89884 471.51805 474.77723 480.34645 487.38566 491.48487 496.63179 502.83097 508.40019 513.1294 519.1186 524.6878 530.257 535.4039 539.50308 546.54226">Let us understand what causes the proton gradient across the</tspan><tspan y="-188.16114" x="191.99994 201.63254 206.85514 216.48773 222.76033 227.14293 232.99553 239.68813 244.91072 248.03333 250.31963 259.43995 264.67124 266.96623 273.6675 278.8988 284.1301 290.4114 292.7064 296.46769 302.119 304.41398 309.64527 315.29658 321.99787 327.22917 330.15046 336.43177 341.66307 346.05436 348.34934 354.21064 359.65196 365.51325 368.43455 375.13584 377.43083 381.1921 387.8934 393.1247 395.41969 401.701 406.31996 411.96565 417.19136 422.41706 427.64277 432.86848 438.09419 443.3199 445.60929 449.365 456.0607 461.9164 465.67213 467.96153 471.71723 477.57295 483.84864 489.07435 491.36375 497.63945 500.55516 506.41087 511.63658 516.86227 519.1516 525.4273 532.333 536.7187 539.6344 546.3301">membrane. We need to consider again the processes that take place during</tspan><tspan y="-173.76114" x="191.99994 195.89084 202.72174 208.08264 210.50724 216.49814 221.85904 225.74994 228.80084 234.16175 240.15265 244.04355 247.09445 252.87535 259.70625 262.13084 267.91175 271.17265 273.59724 278.95814 282.00904 287.36994 292.73085 296.62174 301.14265 306.92356 313.75447 319.11537 321.53996 327.53086 334.36177 340.77265 343.19725 347.08815 353.91905 359.27995 362.33085 366.85176 369.27635 373.16725 377.68815 383.67906 390.50996 395.87086 402.28175 408.06266 412.58357 416.47447 418.89906 422.78996 428.57087 430.99546 437.40635 442.76725 446.65815 452.01905 456.53996 466.31086 469.36177 476.19267 481.55357 483.97816 487.86906 494.69996 500.06086 502.48545 507.84635 511.73725 517.09817 523.50906 528.86996 531.29458 535.1855 542.01638 548.00729">the activation of electrons and their transport to determine the steps that</tspan><tspan y="-159.36115" x="191.99994 197.45725 203.54454 210.68184 216.13915 221.59645 224.43236 230.51966 233.35556 239.86286 244.48015 250.35746 254.34476 260.22206 267.14936 269.98527 275.65257 280.26988 286.35719 292.86448 296.01179 301.4691 308.3964 312.3837 315.2196 319.2069 325.0842 327.9201 334.4274 339.8847 345.342 350.79933 353.94664 359.8239 366.3312 369.1671 372.31443 379.03175 382.17906 387.84635 394.98365 399.60096 405.05827 407.89418 414.40147 420.90876 424.26606 430.77336 433.92066">cause a proton gradient to develop (Figure 11.7).</tspan><tspan y="-140.64115" x="191.99994 194.95494 200.84995 209.99994 216.92894 220.07794 227.00695 232.46595 237.92494 240.61734 246.07634 252.58535 255.73435 258.88334 262.87236 266.86137 270.01036 276.93934 282.60835 285.30076 291.17976 294.53877 297.23118 301.22019 308.14918 313.6082 316.3006 324.4896 330.57859 334.5676 340.0266 344.6456 347.338 357.207 363.086 366.235 371.694 377.153 384.29203 387.441 392.90003 395.59245 399.58146 405.67045 412.17945 417.63847 423.09748 425.7899 432.2989 435.44789 441.53688 446.99589 452.4549 455.1473 461.0263 467.9553 470.6477 474.63673 481.5657 487.02473 489.71714 492.86613 499.7951 506.7241 512.1831 516.8021 519.4945 524.9535 528.1025 534.61148 540.07046 542.7628 548.64187">(a)Since splitting of the water molecule takes place on the inner side of</tspan><tspan y="-126.24114" x="209.99994 213.98784 220.91574 226.37364 229.86154 239.72945 245.18735 255.05525 261.56315 266.18104 272.26893 279.1968 284.6547 288.0126 291.50053 295.48844 302.41633 307.8742 311.36213 317.87004 322.4879 328.3658 332.35374 338.23164 345.15953 350.6174 354.10533 359.98323 364.6011 368.08903 375.0169 380.6848 387.19273 391.8106 397.6885 403.3564 408.8143 415.7422 419.2301 422.378 428.2559 435.18379 440.64167 444.12959 448.1175 455.04539 461.13328 465.1212 468.6091 474.697 479.31489 484.77278 488.26069 494.7686 499.38648 505.26438 511.77229 518.91018 524.36807 529.8259 536.3338 539.8217 546.3296">the membrane, the protons or hydrogen ions that are produced by</tspan><tspan y="-111.84114" x="209.99994 213.95084 220.84174 226.26264 228.74854 234.16944 240.64034 243.75124 246.86214 250.81304 254.76393 257.87483 264.76573 270.3966 272.8825 278.72343 282.0443 284.5302 292.68113 298.73204 302.68293 308.10383 312.68473 315.17063 321.22154 326.64244 332.06333 339.1642 348.99513 356.096 359.2069 365.2578 369.2087 374.6296 377.1155 385.26643 388.37733 392.32823 399.21913 402.33003 409.22093 411.70683 415.6577 422.5486 427.9695 430.4554 433.5663 440.6672 450.4981 455.919 462.8099 465.2958 471.13673 474.4576 476.9435 480.8944 487.7853 493.2062 495.6921 499.643 506.5339 512.1648 515.2757 521.3266 527.7975 533.63839 536.74929 543.22018 548.64108">the splitting of water accumulate within the lumen of the thylakoids.</tspan></text>
<text fill="#6d6f71" xml:space="preserve" transform="matrix(1 0 -0 1 -18 802.8)" font-size="9.5" font-family="Bookman"><tspan y="-483.12117" x="91.199939 97.827838 101.41573 107.093639 113.53154 118.06944 123.747348 128.84525 135.28314 141.72104 145.11894 151.55684">Figure 11.6 </tspan></text>
<text fill="#6d6f71" xml:space="preserve" transform="matrix(1 0 -0 1 -18 802.8)" font-size="9.5" font-family="Bookman"><tspan y="-483.12117" x="156.47994 163.59523 168.81053 173.83583 176.77114 179.70644 184.73174 189.40705 195.38234 201.73764 207.14295 210.83824 216.24355 222.21884 228.57415 233.97945 239.00475 244.98004 251.33535 256.74064 261.00593 266.22123 269.15653 274.75184 278.44715 281.38246 286.78776">Cyclic photophosphorylation</tspan></text>
<g clip-path="url(#clip_2080)">
<text fill="#231f20" xml:space="preserve" transform="matrix(1.0000999 0 -0 .99989989 -18 802.8)" font-size="9.500951" font-family="Bookman"><tspan y="-675.9402" x="206.37958 212.27016 218.54079 223.86132 227.47168 232.7922 237.73271 242.86322 247.80373 251.41408 256.35456 265.28547 268.32579">Photosystem I</tspan></text>
<path transform="matrix(.24002399,0,0,-.23997619,186.39218,143.40546)" stroke-width="2.084" stroke-linecap="butt" stroke-miterlimit="2.613" stroke-linejoin="miter" fill="none" stroke="#231f20" d="M0 0V36.59H276.851L277.371 0"/>
<path transform="matrix(.24002399,0,0,-.23997619,188.25597,246.39362)" stroke-width="8.335" stroke-linecap="butt" stroke-miterlimit="2.613" stroke-linejoin="miter" fill="none" stroke="#ed1651" d="M0 0 47.968-61.75"/>
<path transform="matrix(.23999998,0,0,-.23999998,203.39063,257.35688)" d="M0 0 7.086-44.61-34.395-26.71 0 0" fill="#ed1651" fill-rule="evenodd"/>
<path transform="matrix(.23999998,0,0,-.23999998,221.14679,268.19526)" d="M0 0C105.205 0 191.015-29 191.015-64.57 191.015-100.13 105.205-129.14 0-129.14-105.211-129.14-191.023-100.13-191.023-64.57-191.023-29-105.211 0 0 0" fill="#d2e288" fill-rule="evenodd"/>
<path transform="matrix(.24002399,0,0,-.23997619,221.14719,268.19544)" stroke-width="2.084" stroke-linecap="butt" stroke-miterlimit="2.613" stroke-linejoin="miter" fill="none" stroke="#231f20" d="M0 0C105.193 0 191.003-29.01 191.003-64.57 191.003-100.14 105.193-129.15 0-129.15-105.2-129.15-191.004-100.14-191.004-64.57-191.004-29.01-105.2 0 0 0Z"/>
</g>
<g clip-path="url(#clip_2081)">
<path transform="matrix(.24,0,0,-.24,79.42512,165.6336)" d="M0 0C31.667 0 57.496-25.83 57.496-57.49 57.496-89.15 31.667-114.98 0-114.98-31.668-114.98-57.5-89.15-57.5-57.49-57.5-25.83-31.668 0 0 0ZM57.496-114.98V0H-57.5V-114.98ZM0-57.49H81.312C81.312-12.59 44.906 23.81 0 23.81-44.907 23.81-81.313-12.59-81.313-57.49-81.313-102.39-44.907-138.79 0-138.79 44.906-138.79 81.312-102.39 81.312-57.49" fill="#fff200"/>
<path transform="matrix(.24,0,0,-.24,79.42512,179.43122)" d="M0 0H81.312C81.312 44.9 44.906 81.3 0 81.3-44.907 81.3-81.313 44.9-81.313 0-81.313-44.9-44.907-81.3 0-81.3 44.906-81.3 81.312-44.9 81.312 0" fill="#fff200"/>
<path transform="matrix(.24,0,0,-.24,79.42512,179.43122)" d="M0 0H80.996C80.996 44.72 44.73 80.98 0 80.98-44.731 80.98-80.997 44.72-80.997 0-80.997-44.72-44.731-80.98 0-80.98 44.73-80.98 80.996-44.72 80.996 0" fill="#fff100"/>
<path transform="matrix(.24,0,0,-.24,79.42512,179.43122)" d="M0 0H80.675C80.675 44.55 44.554 80.66 0 80.66-44.555 80.66-80.676 44.55-80.676 0-80.676-44.55-44.555-80.66 0-80.66 44.554-80.66 80.675-44.55 80.675 0" fill="#fff101"/>
<path transform="matrix(.24,0,0,-.24,79.42512,179.43122)" d="M0 0H80.359C80.359 44.37 44.378 80.34 0 80.34-44.379 80.34-80.36 44.37-80.36 0-80.36-44.37-44.379-80.34 0-80.34 44.378-80.34 80.359-44.37 80.359 0" fill="#fff101"/>
<path transform="matrix(.24,0,0,-.24,79.42512,179.43122)" d="M0 0H80.042C80.042 44.2 44.203 80.03 0 80.03-44.204 80.03-80.043 44.2-80.043 0-80.043-44.19-44.204-80.03 0-80.03 44.203-80.03 80.042-44.19 80.042 0" fill="#fff101"/>
<path transform="matrix(.24,0,0,-.24,79.42512,179.43122)" d="M0 0H79.722C79.722 44.02 44.027 79.71 0 79.71-44.028 79.71-79.723 44.02-79.723 0-79.723-44.02-44.028-79.71 0-79.71 44.027-79.71 79.722-44.02 79.722 0" fill="#fff001"/>
<path transform="matrix(.24,0,0,-.24,79.42512,179.43122)" d="M0 0H79.406C79.406 43.84 43.851 79.39 0 79.39-43.852 79.39-79.407 43.84-79.407 0-79.407-43.84-43.852-79.39 0-79.39 43.851-79.39 79.406-43.84 79.406 0" fill="#fff001"/>
<path transform="matrix(.24,0,0,-.24,79.42512,179.43122)" d="M0 0H79.089C79.089 43.67 43.679 79.08 0 79.08-43.68 79.08-79.09 43.67-79.09 0-79.09-43.67-43.68-79.07 0-79.07 43.679-79.07 79.089-43.67 79.089 0" fill="#fff001"/>
<path transform="matrix(.24,0,0,-.24,79.42512,179.43122)" d="M0 0H78.769C78.769 43.49 43.5 78.76 0 78.76-43.5 78.76-78.77 43.49-78.77 0-78.77-43.49-43.5-78.75 0-78.75 43.5-78.75 78.769-43.49 78.769 0" fill="#ffef01"/>
<path transform="matrix(.24,0,0,-.24,79.42512,179.43122)" d="M0 0H78.453C78.453 43.32 43.328 78.44 0 78.44-43.329 78.44-78.454 43.32-78.454 0-78.454-43.32-43.329-78.44 0-78.44 43.328-78.44 78.453-43.32 78.453 0" fill="#ffef01"/>
<path transform="matrix(.24,0,0,-.24,79.42512,179.43122)" d="M0 0H78.136C78.136 43.15 43.152 78.12 0 78.12-43.153 78.12-78.137 43.15-78.137 0-78.137-43.14-43.153-78.12 0-78.12 43.152-78.12 78.136-43.14 78.136 0" fill="#ffee02"/>
<path transform="matrix(.24,0,0,-.24,79.42512,179.43122)" d="M0 0H77.82C77.82 42.97 42.976 77.81 0 77.81-42.977 77.81-77.821 42.97-77.821 0-77.821-42.97-42.977-77.8 0-77.8 42.976-77.8 77.82-42.97 77.82 0" fill="#ffee02"/>
<path transform="matrix(.24,0,0,-.24,79.42512,179.43122)" d="M0 0H77.5C77.5 42.79 42.8 77.49 0 77.49-42.801 77.49-77.5 42.79-77.5 0-77.5-42.79-42.801-77.48 0-77.48 42.8-77.48 77.5-42.79 77.5 0" fill="#ffee02"/>
<path transform="matrix(.24,0,0,-.24,79.42512,179.43122)" d="M0 0H77.183C77.183 42.62 42.625 77.17 0 77.17-42.625 77.17-77.184 42.62-77.184 0-77.184-42.62-42.625-77.17 0-77.17 42.625-77.17 77.183-42.62 77.183 0" fill="#ffee02"/>
<path transform="matrix(.24,0,0,-.24,79.42512,179.43122)" d="M0 0H76.867C76.867 42.44 42.449 76.85 0 76.85-42.45 76.85-76.868 42.44-76.868 0-76.868-42.44-42.45-76.85 0-76.85 42.449-76.85 76.867-42.44 76.867 0" fill="#ffed02"/>
<path transform="matrix(.24,0,0,-.24,79.42512,179.43122)" d="M0 0H76.546C76.546 42.27 42.273 76.53 0 76.53-42.274 76.53-76.547 42.27-76.547 0-76.547-42.26-42.274-76.53 0-76.53 42.273-76.53 76.546-42.26 76.546 0" fill="#ffed02"/>
<path transform="matrix(.24,0,0,-.24,79.42512,179.43122)" d="M0 0H76.23C76.23 42.09 42.097 76.22 0 76.22-42.098 76.22-76.231 42.09-76.231 0-76.231-42.09-42.098-76.21 0-76.21 42.097-76.21 76.23-42.09 76.23 0" fill="#ffec02"/>
<path transform="matrix(.24,0,0,-.24,79.42512,179.43122)" d="M0 0H75.914C75.914 41.92 41.925 75.9 0 75.9-41.926 75.9-75.915 41.92-75.915 0-75.915-41.91-41.926-75.9 0-75.9 41.925-75.9 75.914-41.91 75.914 0" fill="#ffec03"/>
<path transform="matrix(.24,0,0,-.24,79.42512,179.43122)" d="M0 0H75.593C75.593 41.74 41.746 75.58 0 75.58-41.747 75.58-75.594 41.74-75.594 0-75.594-41.74-41.747-75.58 0-75.58 41.746-75.58 75.593-41.74 75.593 0" fill="#ffec03"/>
<path transform="matrix(.24,0,0,-.24,79.42512,179.43122)" d="M0 0H75.277C75.277 41.56 41.574 75.26 0 75.26-41.575 75.26-75.278 41.56-75.278 0-75.278-41.56-41.575-75.26 0-75.26 41.574-75.26 75.277-41.56 75.277 0" fill="#ffeb03"/>
<path transform="matrix(.24,0,0,-.24,79.42512,179.43122)" d="M0 0H74.96C74.96 41.39 41.398 74.95 0 74.95-41.399 74.95-74.961 41.39-74.961 0-74.961-41.39-41.399-74.94 0-74.94 41.398-74.94 74.96-41.39 74.96 0" fill="#ffeb03"/>
<path transform="matrix(.24,0,0,-.24,79.42512,179.43122)" d="M0 0H74.64C74.64 41.22 41.222 74.63 0 74.63-41.223 74.63-74.641 41.22-74.641 0-74.641-41.21-41.223-74.63 0-74.63 41.222-74.63 74.64-41.21 74.64 0" fill="#ffeb03"/>
<path transform="matrix(.24,0,0,-.24,79.42512,179.43122)" d="M0 0H74.324C74.324 41.04 41.046 74.31 0 74.31-41.047 74.31-74.325 41.04-74.325 0-74.325-41.04-41.047-74.31 0-74.31 41.046-74.31 74.324-41.04 74.324 0" fill="#ffea03"/>
<path transform="matrix(.24,0,0,-.24,79.42512,179.43122)" d="M0 0H74.007C74.007 40.86 40.871 73.99 0 73.99-40.872 73.99-74.008 40.86-74.008 0-74.008-40.86-40.872-73.99 0-73.99 40.871-73.99 74.007-40.86 74.007 0" fill="#ffea03"/>
<path transform="matrix(.24,0,0,-.24,79.42512,179.43122)" d="M0 0H73.687C73.687 40.69 40.695 73.68 0 73.68-40.696 73.68-73.688 40.69-73.688 0-73.688-40.69-40.696-73.67 0-73.67 40.695-73.67 73.687-40.69 73.687 0" fill="#ffea03"/>
<path transform="matrix(.24,0,0,-.24,79.42512,179.43122)" d="M0 0H73.371C73.371 40.51 40.519 73.36 0 73.36-40.52 73.36-73.372 40.51-73.372 0-73.372-40.51-40.52-73.35 0-73.35 40.519-73.35 73.371-40.51 73.371 0" fill="#ffe904"/>
<path transform="matrix(.24,0,0,-.24,79.42512,179.43122)" d="M0 0H73.054C73.054 40.34 40.343 73.04 0 73.04-40.344 73.04-73.055 40.34-73.055 0-73.055-40.33-40.344-73.04 0-73.04 40.343-73.04 73.054-40.33 73.054 0" fill="#ffe904"/>
<path transform="matrix(.24,0,0,-.24,79.42512,179.43122)" d="M0 0H72.734C72.734 40.16 40.167 72.72 0 72.72-40.168 72.72-72.735 40.16-72.735 0-72.735-40.16-40.168-72.72 0-72.72 40.167-72.72 72.734-40.16 72.734 0" fill="#ffe904"/>
<path transform="matrix(.24,0,0,-.24,79.42512,179.43122)" d="M0 0H72.417C72.417 39.99 39.992 72.41 0 72.41-39.993 72.41-72.418 39.99-72.418 0-72.418-39.99-39.993-72.41 0-72.41 39.992-72.41 72.417-39.99 72.417 0" fill="#ffe804"/>
<path transform="matrix(.24,0,0,-.24,79.42512,179.43122)" d="M0 0H72.101C72.101 39.81 39.82 72.09 0 72.09-39.821 72.09-72.102 39.81-72.102 0-72.102-39.81-39.821-72.08 0-72.08 39.82-72.08 72.101-39.81 72.101 0" fill="#ffe804"/>
<path transform="matrix(.24,0,0,-.24,79.42512,179.43122)" d="M0 0H71.785C71.785 39.64 39.644 71.77 0 71.77-39.645 71.77-71.786 39.64-71.786 0-71.786-39.64-39.645-71.77 0-71.77 39.644-71.77 71.785-39.64 71.785 0" fill="#ffe804"/>
<path transform="matrix(.24,0,0,-.24,79.42512,179.43122)" d="M0 0H71.464C71.464 39.46 39.468 71.45 0 71.45-39.469 71.45-71.465 39.46-71.465 0-71.465-39.46-39.469-71.45 0-71.45 39.468-71.45 71.464-39.46 71.464 0" fill="#ffe705"/>
<path transform="matrix(.24,0,0,-.24,79.42512,179.43122)" d="M0 0H71.148C71.148 39.29 39.292 71.13 0 71.13-39.293 71.13-71.149 39.29-71.149 0-71.149-39.28-39.293-71.13 0-71.13 39.292-71.13 71.148-39.28 71.148 0" fill="#ffe705"/>
<path transform="matrix(.24,0,0,-.24,79.42512,179.43122)" d="M0 0H70.832C70.832 39.11 39.117 70.82 0 70.82-39.118 70.82-70.833 39.11-70.833 0-70.833-39.11-39.118-70.82 0-70.82 39.117-70.82 70.832-39.11 70.832 0" fill="#ffe706"/>
<path transform="matrix(.24,0,0,-.24,79.42512,179.43122)" d="M0 0H70.511C70.511 38.93 38.941 70.5 0 70.5-38.942 70.5-70.512 38.93-70.512 0-70.512-38.93-38.942-70.5 0-70.5 38.941-70.5 70.511-38.93 70.511 0" fill="#ffe606"/>
<path transform="matrix(.24,0,0,-.24,79.42512,179.43122)" d="M0 0H70.195C70.195 38.76 38.765 70.18 0 70.18-38.766 70.18-70.196 38.76-70.196 0-70.196-38.76-38.766-70.18 0-70.18 38.765-70.18 70.195-38.76 70.195 0" fill="#ffe607"/>
<path transform="matrix(.24,0,0,-.24,79.42512,179.43122)" d="M0 0H69.878C69.878 38.58 38.589 69.86 0 69.86-38.59 69.86-69.879 38.58-69.879 0-69.879-38.58-38.59-69.86 0-69.86 38.589-69.86 69.878-38.58 69.878 0" fill="#ffe608"/>
<path transform="matrix(.24,0,0,-.24,79.42512,179.43122)" d="M0 0H69.558C69.558 38.41 38.414 69.55 0 69.55-38.415 69.55-69.559 38.41-69.559 0-69.559-38.41-38.415-69.55 0-69.55 38.414-69.55 69.558-38.41 69.558 0" fill="#ffe508"/>
<path transform="matrix(.24,0,0,-.24,79.42512,179.43122)" d="M0 0H69.242C69.242 38.24 38.238 69.23 0 69.23-38.239 69.23-69.243 38.24-69.243 0-69.243-38.23-38.239-69.23 0-69.23 38.238-69.23 69.242-38.23 69.242 0" fill="#ffe508"/>
<path transform="matrix(.24,0,0,-.24,79.42512,179.43122)" d="M0 0H68.925C68.925 38.06 38.066 68.91 0 68.91-38.067 68.91-68.926 38.06-68.926 0-68.926-38.05-38.067-68.91 0-68.91 38.066-68.91 68.925-38.05 68.925 0" fill="#ffe509"/>
<path transform="matrix(.24,0,0,-.24,79.42512,179.43122)" d="M0 0H68.605C68.605 37.88 37.886 68.59 0 68.59-37.887 68.59-68.606 37.88-68.606 0-68.606-37.88-37.887-68.59 0-68.59 37.886-68.59 68.605-37.88 68.605 0" fill="#ffe409"/>
<path transform="matrix(.24,0,0,-.24,79.42512,179.43122)" d="M0 0H68.289C68.289 37.71 37.714 68.28 0 68.28-37.715 68.28-68.29 37.71-68.29 0-68.29-37.71-37.715-68.28 0-68.28 37.714-68.28 68.289-37.71 68.289 0" fill="#ffe409"/>
<path transform="matrix(.24,0,0,-.24,79.42512,179.43122)" d="M0 0H67.972C67.972 37.53 37.539 67.96 0 67.96-37.54 67.96-67.973 37.53-67.973 0-67.973-37.53-37.54-67.96 0-67.96 37.539-67.96 67.972-37.53 67.972 0" fill="#ffe409"/>
<path transform="matrix(.24,0,0,-.24,79.42512,179.43122)" d="M0 0H67.652C67.652 37.36 37.363 67.64 0 67.64-37.364 67.64-67.653 37.36-67.653 0-67.653-37.35-37.364-67.64 0-67.64 37.363-67.64 67.652-37.35 67.652 0" fill="#ffe309"/>
<path transform="matrix(.24,0,0,-.24,79.42512,179.43122)" d="M0 0H67.335C67.335 37.18 37.187 67.33 0 67.33-37.188 67.33-67.336 37.18-67.336 0-67.336-37.18-37.188-67.32 0-67.32 37.187-67.32 67.335-37.18 67.335 0" fill="#ffe30a"/>
<path transform="matrix(.24,0,0,-.24,79.42512,179.43122)" d="M0 0H67.019C67.019 37.01 37.011 67.01 0 67.01-37.012 67.01-67.02 37.01-67.02 0-67.02-37-37.012-67 0-67 37.011-67 67.019-37 67.019 0" fill="#ffe30a"/>
<path transform="matrix(.24,0,0,-.24,79.42512,179.43122)" d="M0 0H66.699C66.699 36.83 36.835 66.69 0 66.69-36.836 66.69-66.7 36.83-66.7 0-66.7-36.83-36.836-66.69 0-66.69 36.835-66.69 66.699-36.83 66.699 0" fill="#ffe30a"/>
<path transform="matrix(.24,0,0,-.24,79.42512,179.43122)" d="M0 0H66.382C66.382 36.65 36.66 66.37 0 66.37-36.661 66.37-66.383 36.65-66.383 0-66.383-36.65-36.661-66.37 0-66.37 36.66-66.37 66.382-36.65 66.382 0" fill="#ffe20a"/>
<path transform="matrix(.24,0,0,-.24,79.42512,179.43122)" d="M0 0H66.066C66.066 36.48 36.484 66.06 0 66.06-36.485 66.06-66.067 36.48-66.067 0-66.067-36.48-36.485-66.05 0-66.05 36.484-66.05 66.066-36.48 66.066 0" fill="#ffe20b"/>
<path transform="matrix(.24,0,0,-.24,79.42512,179.43122)" d="M0 0H65.75C65.75 36.3 36.312 65.74 0 65.74-36.313 65.74-65.75 36.3-65.75 0-65.75-36.3-36.313-65.73 0-65.73 36.312-65.73 65.75-36.3 65.75 0" fill="#ffe20b"/>
<path transform="matrix(.24,0,0,-.24,79.42512,179.43122)" d="M0 0H65.429C65.429 36.13 36.132 65.42 0 65.42-36.133 65.42-65.43 36.13-65.43 0-65.43-36.13-36.133-65.42 0-65.42 36.132-65.42 65.429-36.13 65.429 0" fill="#ffe10b"/>
<path transform="matrix(.24,0,0,-.24,79.42512,179.43122)" d="M0 0H65.113C65.113 35.95 35.96 65.1 0 65.1-35.961 65.1-65.114 35.95-65.114 0-65.114-35.95-35.961-65.1 0-65.1 35.96-65.1 65.113-35.95 65.113 0" fill="#ffe10c"/>
<path transform="matrix(.24,0,0,-.24,79.42512,179.43122)" d="M0 0H64.796C64.796 35.78 35.785 64.78 0 64.78-35.786 64.78-64.797 35.78-64.797 0-64.797-35.78-35.786-64.78 0-64.78 35.785-64.78 64.796-35.78 64.796 0" fill="#ffe10c"/>
<path transform="matrix(.24,0,0,-.24,79.42512,179.43122)" d="M0 0H64.476C64.476 35.6 35.609 64.47 0 64.47-35.61 64.47-64.477 35.6-64.477 0-64.477-35.6-35.61-64.46 0-64.46 35.609-64.46 64.476-35.6 64.476 0" fill="#ffe10c"/>
<path transform="matrix(.24,0,0,-.24,79.42512,179.43122)" d="M0 0H64.16C64.16 35.43 35.433 64.15 0 64.15-35.434 64.15-64.161 35.43-64.161 0-64.161-35.42-35.434-64.15 0-64.15 35.433-64.15 64.16-35.42 64.16 0" fill="#ffe00c"/>
<path transform="matrix(.24,0,0,-.24,79.42512,179.43122)" d="M0 0H63.843C63.843 35.25 35.257 63.83 0 63.83-35.258 63.83-63.844 35.25-63.844 0-63.844-35.25-35.258-63.83 0-63.83 35.257-63.83 63.843-35.25 63.843 0" fill="#ffe00d"/>
<path transform="matrix(.24,0,0,-.24,79.42512,179.43122)" d="M0 0H63.523C63.523 35.08 35.082 63.51 0 63.51-35.083 63.51-63.524 35.08-63.524 0-63.524-35.07-35.083-63.51 0-63.51 35.082-63.51 63.523-35.07 63.523 0" fill="#ffe00d"/>
<path transform="matrix(.24,0,0,-.24,79.42512,179.43122)" d="M0 0H63.207C63.207 34.9 34.906 63.2 0 63.2-34.907 63.2-63.208 34.9-63.208 0-63.208-34.9-34.907-63.19 0-63.19 34.906-63.19 63.207-34.9 63.207 0" fill="#ffdf0d"/>
<path transform="matrix(.24,0,0,-.24,79.42512,179.43122)" d="M0 0H62.89C62.89 34.73 34.73 62.88 0 62.88-34.731 62.88-62.891 34.73-62.891 0-62.891-34.73-34.731-62.88 0-62.88 34.73-62.88 62.89-34.73 62.89 0" fill="#ffdf0d"/>
<path transform="matrix(.24,0,0,-.24,79.42512,179.43122)" d="M0 0H62.57C62.57 34.55 34.554 62.56 0 62.56-34.555 62.56-62.571 34.55-62.571 0-62.571-34.55-34.555-62.56 0-62.56 34.554-62.56 62.57-34.55 62.57 0" fill="#ffdf0e"/>
<path transform="matrix(.24,0,0,-.24,79.42512,179.43122)" d="M0 0H62.253C62.253 34.38 34.378 62.24 0 62.24-34.379 62.24-62.254 34.38-62.254 0-62.254-34.37-34.379-62.24 0-62.24 34.378-62.24 62.253-34.37 62.253 0" fill="#ffdf0e"/>
<path transform="matrix(.24,0,0,-.24,79.42512,179.43122)" d="M0 0H61.937C61.937 34.2 34.207 61.93 0 61.93-34.208 61.93-61.938 34.2-61.938 0-61.938-34.2-34.208-61.92 0-61.92 34.207-61.92 61.937-34.2 61.937 0" fill="#ffde0e"/>
<path transform="matrix(.24,0,0,-.24,79.42512,179.43122)" d="M0 0H61.617C61.617 34.02 34.027 61.61 0 61.61-34.028 61.61-61.618 34.02-61.618 0-61.618-34.02-34.028-61.6 0-61.6 34.027-61.6 61.617-34.02 61.617 0" fill="#ffde0e"/>
<path transform="matrix(.24,0,0,-.24,79.42512,179.43122)" d="M0 0H61.3C61.3 33.85 33.855 61.29 0 61.29-33.856 61.29-61.301 33.85-61.301 0-61.301-33.85-33.856-61.29 0-61.29 33.855-61.29 61.3-33.85 61.3 0" fill="#ffde0f"/>
<path transform="matrix(.24,0,0,-.24,79.42512,179.43122)" d="M0 0H60.984C60.984 33.67 33.679 60.97 0 60.97-33.68 60.97-60.985 33.67-60.985 0-60.985-33.67-33.68-60.97 0-60.97 33.679-60.97 60.984-33.67 60.984 0" fill="#ffde0f"/>
<path transform="matrix(.24,0,0,-.24,79.42512,179.43122)" d="M0 0H60.667C60.667 33.5 33.503 60.65 0 60.65-33.504 60.65-60.668 33.5-60.668 0-60.668-33.49-33.504-60.65 0-60.65 33.503-60.65 60.667-33.49 60.667 0" fill="#ffdd0f"/>
<path transform="matrix(.24,0,0,-.24,79.42512,179.43122)" d="M0 0H60.347C60.347 33.32 33.328 60.34 0 60.34-33.329 60.34-60.348 33.32-60.348 0-60.348-33.32-33.329-60.33 0-60.33 33.328-60.33 60.347-33.32 60.347 0" fill="#ffdd10"/>
<path transform="matrix(.24,0,0,-.24,79.42512,179.43122)" d="M0 0H60.031C60.031 33.15 33.152 60.02 0 60.02-33.153 60.02-60.032 33.15-60.032 0-60.032-33.14-33.153-60.02 0-60.02 33.152-60.02 60.031-33.14 60.031 0" fill="#ffdd10"/>
<path transform="matrix(.24,0,0,-.24,79.42512,179.43122)" d="M0 0H59.714C59.714 32.97 32.976 59.7 0 59.7-32.977 59.7-59.715 32.97-59.715 0-59.715-32.97-32.977-59.7 0-59.7 32.976-59.7 59.714-32.97 59.714 0" fill="#ffdc11"/>
<path transform="matrix(.24,0,0,-.24,79.42512,179.43122)" d="M0 0H59.394C59.394 32.79 32.8 59.38 0 59.38-32.801 59.38-59.395 32.79-59.395 0-59.395-32.79-32.801-59.38 0-59.38 32.8-59.38 59.394-32.79 59.394 0" fill="#ffdc11"/>
<path transform="matrix(.24,0,0,-.24,79.42512,179.43122)" d="M0 0H59.078C59.078 32.62 32.625 59.07 0 59.07-32.625 59.07-59.079 32.62-59.079 0-59.079-32.62-32.625-59.07 0-59.07 32.625-59.07 59.078-32.62 59.078 0" fill="#ffdc12"/>
<path transform="matrix(.24,0,0,-.24,79.42512,179.43122)" d="M0 0H58.761C58.761 32.45 32.453 58.75 0 58.75-32.454 58.75-58.762 32.45-58.762 0-58.762-32.44-32.454-58.75 0-58.75 32.453-58.75 58.761-32.44 58.761 0" fill="#ffdc12"/>
<path transform="matrix(.24,0,0,-.24,79.42512,179.43122)" d="M0 0H58.441C58.441 32.27 32.273 58.43 0 58.43-32.274 58.43-58.442 32.27-58.442 0-58.442-32.27-32.274-58.43 0-58.43 32.273-58.43 58.441-32.27 58.441 0" fill="#ffdb12"/>
<path transform="matrix(.24,0,0,-.24,79.42512,179.43122)" d="M0 0H58.125C58.125 32.09 32.097 58.11 0 58.11-32.098 58.11-58.125 32.09-58.125 0-58.125-32.09-32.098-58.11 0-58.11 32.097-58.11 58.125-32.09 58.125 0" fill="#ffdb12"/>
<path transform="matrix(.24,0,0,-.24,79.42512,179.43122)" d="M0 0H57.808C57.808 31.92 31.925 57.8 0 57.8-31.926 57.8-57.809 31.92-57.809 0-57.809-31.92-31.926-57.8 0-57.8 31.925-57.8 57.808-31.92 57.808 0" fill="#ffdb13"/>
<path transform="matrix(.24,0,0,-.24,79.42512,179.43122)" d="M0 0H57.488C57.488 31.74 31.746 57.48 0 57.48-31.747 57.48-57.489 31.74-57.489 0-57.489-31.74-31.747-57.48 0-57.48 31.746-57.48 57.488-31.74 57.488 0" fill="#ffda13"/>
<path transform="matrix(.24,0,0,-.24,79.42512,179.43122)" d="M0 0H57.171C57.171 31.57 31.574 57.16 0 57.16-31.575 57.16-57.172 31.57-57.172 0-57.172-31.57-31.575-57.16 0-57.16 31.574-57.16 57.171-31.57 57.171 0" fill="#ffda13"/>
<path transform="matrix(.24,0,0,-.24,79.42512,179.43122)" d="M0 0H56.855C56.855 31.39 31.398 56.84 0 56.84-31.399 56.84-56.856 31.39-56.856 0-56.856-31.39-31.399-56.84 0-56.84 31.398-56.84 56.855-31.39 56.855 0" fill="#ffda14"/>
<path transform="matrix(.24,0,0,-.24,79.42512,179.43122)" d="M0 0H56.535C56.535 31.22 31.222 56.53 0 56.53-31.223 56.53-56.536 31.22-56.536 0-56.536-31.22-31.223-56.53 0-56.53 31.222-56.53 56.535-31.22 56.535 0" fill="#ffda15"/>
<path transform="matrix(.24,0,0,-.24,79.42512,179.43122)" d="M0 0H56.218C56.218 31.04 31.046 56.21 0 56.21-31.047 56.21-56.219 31.04-56.219 0-56.219-31.04-31.047-56.21 0-56.21 31.046-56.21 56.218-31.04 56.218 0" fill="#ffd915"/>
<path transform="matrix(.24,0,0,-.24,79.42512,179.43122)" d="M0 0H55.902C55.902 30.87 30.871 55.89 0 55.89-30.872 55.89-55.903 30.87-55.903 0-55.903-30.87-30.872-55.89 0-55.89 30.871-55.89 55.902-30.87 55.902 0" fill="#ffd915"/>
<path transform="matrix(.24,0,0,-.24,79.42512,179.43122)" d="M0 0H55.582C55.582 30.69 30.695 55.58 0 55.58-30.696 55.58-55.583 30.69-55.583 0-55.583-30.69-30.696-55.57 0-55.57 30.695-55.57 55.582-30.69 55.582 0" fill="#ffd915"/>
<path transform="matrix(.24,0,0,-.24,79.42512,179.43122)" d="M0 0H55.265C55.265 30.52 30.519 55.26 0 55.26-30.52 55.26-55.266 30.52-55.266 0-55.266-30.51-30.52-55.25 0-55.25 30.519-55.25 55.265-30.51 55.265 0" fill="#ffd916"/>
<path transform="matrix(.24,0,0,-.24,79.42512,179.43122)" d="M0 0H54.949C54.949 30.34 30.343 54.94 0 54.94-30.344 54.94-54.95 30.34-54.95 0-54.95-30.34-30.344-54.94 0-54.94 30.343-54.94 54.949-30.34 54.949 0" fill="#ffd816"/>
<path transform="matrix(.24,0,0,-.24,79.42512,179.43122)" d="M0 0H54.632C54.632 30.17 30.171 54.62 0 54.62-30.172 54.62-54.633 30.17-54.633 0-54.633-30.16-30.172-54.62 0-54.62 30.171-54.62 54.632-30.16 54.632 0" fill="#ffd816"/>
<path transform="matrix(.24,0,0,-.24,79.42512,179.43122)" d="M0 0H54.312C54.312 29.99 29.992 54.3 0 54.3-29.993 54.3-54.313 29.99-54.313 0-54.313-29.99-29.993-54.3 0-54.3 29.992-54.3 54.312-29.99 54.312 0" fill="#ffd817"/>
<path transform="matrix(.24,0,0,-.24,79.42512,179.43122)" d="M0 0H53.996C53.996 29.81 29.82 53.99 0 53.99-29.821 53.99-53.997 29.81-53.997 0-53.997-29.81-29.821-53.98 0-53.98 29.82-53.98 53.996-29.81 53.996 0" fill="#ffd717"/>
<path transform="matrix(.24,0,0,-.24,79.42512,179.43122)" d="M0 0H53.679C53.679 29.64 29.644 53.67 0 53.67-29.645 53.67-53.68 29.64-53.68 0-53.68-29.64-29.645-53.67 0-53.67 29.644-53.67 53.679-29.64 53.679 0" fill="#ffd717"/>
<path transform="matrix(.24,0,0,-.24,79.42512,179.43122)" d="M0 0H53.359C53.359 29.47 29.468 53.35 0 53.35-29.469 53.35-53.36 29.47-53.36 0-53.36-29.46-29.469-53.35 0-53.35 29.468-53.35 53.359-29.46 53.359 0" fill="#ffd717"/>
<path transform="matrix(.24,0,0,-.24,79.42512,179.43122)" d="M0 0H53.042C53.042 29.29 29.292 53.03 0 53.03-29.293 53.03-53.043 29.29-53.043 0-53.043-29.28-29.293-53.03 0-53.03 29.292-53.03 53.042-29.28 53.042 0" fill="#ffd718"/>
<path transform="matrix(.24,0,0,-.24,79.42512,179.43122)" d="M0 0H52.726C52.726 29.11 29.117 52.72 0 52.72-29.118 52.72-52.727 29.11-52.727 0-52.727-29.11-29.118-52.71 0-52.71 29.117-52.71 52.726-29.11 52.726 0" fill="#ffd618"/>
<path transform="matrix(.24,0,0,-.24,79.42512,179.43122)" d="M0 0H52.406C52.406 28.94 28.941 52.4 0 52.4-28.942 52.4-52.407 28.94-52.407 0-52.407-28.94-28.942-52.4 0-52.4 28.941-52.4 52.406-28.94 52.406 0" fill="#ffd618"/>
<path transform="matrix(.24,0,0,-.24,79.42512,179.43122)" d="M0 0H52.089C52.089 28.76 28.765 52.08 0 52.08-28.766 52.08-52.09 28.76-52.09 0-52.09-28.76-28.766-52.08 0-52.08 28.765-52.08 52.089-28.76 52.089 0" fill="#ffd619"/>
<path transform="matrix(.24,0,0,-.24,79.42512,179.43122)" d="M0 0H51.773C51.773 28.59 28.589 51.76 0 51.76-28.59 51.76-51.774 28.59-51.774 0-51.774-28.58-28.59-51.76 0-51.76 28.589-51.76 51.773-28.58 51.773 0" fill="#ffd51a"/>
<path transform="matrix(.24,0,0,-.24,79.42512,179.43122)" d="M0 0H51.453C51.453 28.41 28.414 51.45 0 51.45-28.415 51.45-51.454 28.41-51.454 0-51.454-28.41-28.415-51.44 0-51.44 28.414-51.44 51.453-28.41 51.453 0" fill="#ffd51a"/>
<path transform="matrix(.24,0,0,-.24,79.42512,179.43122)" d="M0 0H51.136C51.136 28.24 28.238 51.13 0 51.13-28.239 51.13-51.137 28.24-51.137 0-51.137-28.23-28.239-51.12 0-51.12 28.238-51.12 51.136-28.23 51.136 0" fill="#ffd51a"/>
<path transform="matrix(.24,0,0,-.24,79.42512,179.43122)" d="M0 0H50.82C50.82 28.06 28.066 50.81 0 50.81-28.067 50.81-50.821 28.06-50.821 0-50.821-28.06-28.067-50.81 0-50.81 28.066-50.81 50.82-28.06 50.82 0" fill="#ffd51a"/>
<path transform="matrix(.24,0,0,-.24,79.42512,179.43122)" d="M0 0H50.5C50.5 27.88 27.886 50.49 0 50.49-27.887 50.49-50.5 27.88-50.5 0-50.5-27.88-27.887-50.49 0-50.49 27.886-50.49 50.5-27.88 50.5 0" fill="#ffd41b"/>
<path transform="matrix(.24,0,0,-.24,79.42512,179.43122)" d="M0 0H50.183C50.183 27.71 27.714 50.18 0 50.18-27.715 50.18-50.184 27.71-50.184 0-50.184-27.71-27.715-50.17 0-50.17 27.714-50.17 50.183-27.71 50.183 0" fill="#ffd41b"/>
<path transform="matrix(.24,0,0,-.24,79.42512,179.43122)" d="M0 0H49.867C49.867 27.53 27.539 49.86 0 49.86-27.54 49.86-49.868 27.53-49.868 0-49.868-27.53-27.54-49.85 0-49.85 27.539-49.85 49.867-27.53 49.867 0" fill="#ffd41c"/>
<path transform="matrix(.24,0,0,-.24,79.42512,179.43122)" d="M0 0H49.546C49.546 27.36 27.363 49.54 0 49.54-27.364 49.54-49.547 27.36-49.547 0-49.547-27.36-27.364-49.54 0-49.54 27.363-49.54 49.546-27.36 49.546 0" fill="#ffd31d"/>
<path transform="matrix(.24,0,0,-.24,79.42512,179.43122)" d="M0 0H49.23C49.23 27.18 27.187 49.22 0 49.22-27.188 49.22-49.231 27.18-49.231 0-49.231-27.18-27.188-49.22 0-49.22 27.187-49.22 49.23-27.18 49.23 0" fill="#ffd31d"/>
<path transform="matrix(.24,0,0,-.24,79.42512,179.43122)" d="M0 0H48.914C48.914 27.01 27.011 48.9 0 48.9-27.012 48.9-48.915 27.01-48.915 0-48.915-27.01-27.012-48.9 0-48.9 27.011-48.9 48.914-27.01 48.914 0" fill="#ffd31d"/>
<path transform="matrix(.24,0,0,-.24,79.42512,179.43122)" d="M0 0H48.597C48.597 26.83 26.835 48.59 0 48.59-26.836 48.59-48.598 26.83-48.598 0-48.598-26.83-26.836-48.58 0-48.58 26.835-48.58 48.597-26.83 48.597 0" fill="#ffd31d"/>
<path transform="matrix(.24,0,0,-.24,79.42512,179.43122)" d="M0 0H48.277C48.277 26.66 26.66 48.27 0 48.27-26.661 48.27-48.278 26.66-48.278 0-48.278-26.66-26.661-48.27 0-48.27 26.66-48.27 48.277-26.66 48.277 0" fill="#ffd21e"/>
<path transform="matrix(.24,0,0,-.24,79.42512,179.43122)" d="M0 0H47.96C47.96 26.48 26.484 47.95 0 47.95-26.485 47.95-47.961 26.48-47.961 0-47.961-26.48-26.485-47.95 0-47.95 26.484-47.95 47.96-26.48 47.96 0" fill="#ffd21e"/>
<path transform="matrix(.24,0,0,-.24,79.42512,179.43122)" d="M0 0H47.644C47.644 26.31 26.312 47.63 0 47.63-26.313 47.63-47.645 26.31-47.645 0-47.645-26.3-26.313-47.63 0-47.63 26.312-47.63 47.644-26.3 47.644 0" fill="#ffd21e"/>
<path transform="matrix(.24,0,0,-.24,79.42512,179.43122)" d="M0 0H47.324C47.324 26.13 26.132 47.32 0 47.32-26.133 47.32-47.325 26.13-47.325 0-47.325-26.13-26.133-47.32 0-47.32 26.132-47.32 47.324-26.13 47.324 0" fill="#ffd21f"/>
<path transform="matrix(.24,0,0,-.24,79.42512,179.43122)" d="M0 0H47.007C47.007 25.96 25.96 47 0 47-25.961 47-47.008 25.96-47.008 0-47.008-25.96-25.961-47 0-47 25.96-47 47.007-25.96 47.007 0" fill="#ffd120"/>
<path transform="matrix(.24,0,0,-.24,79.42512,179.43122)" d="M0 0H46.691C46.691 25.78 25.785 46.68 0 46.68-25.786 46.68-46.692 25.78-46.692 0-46.692-25.78-25.786-46.68 0-46.68 25.785-46.68 46.691-25.78 46.691 0" fill="#ffd120"/>
<path transform="matrix(.24,0,0,-.24,79.42512,179.43122)" d="M0 0H46.371C46.371 25.61 25.609 46.36 0 46.36-25.61 46.36-46.372 25.61-46.372 0-46.372-25.6-25.61-46.36 0-46.36 25.609-46.36 46.371-25.6 46.371 0" fill="#ffd120"/>
<path transform="matrix(.24,0,0,-.24,79.42512,179.43122)" d="M0 0H46.054C46.054 25.43 25.433 46.05 0 46.05-25.434 46.05-46.055 25.43-46.055 0-46.055-25.43-25.434-46.05 0-46.05 25.433-46.05 46.054-25.43 46.054 0" fill="#ffd020"/>
<path transform="matrix(.24,0,0,-.24,79.42512,179.43122)" d="M0 0H45.738C45.738 25.26 25.257 45.73 0 45.73-25.258 45.73-45.739 25.26-45.739 0-45.739-25.25-25.258-45.73 0-45.73 25.257-45.73 45.738-25.25 45.738 0" fill="#ffd021"/>
<path transform="matrix(.24,0,0,-.24,79.42512,179.43122)" d="M0 0H45.417C45.417 25.08 25.082 45.41 0 45.41-25.083 45.41-45.418 25.08-45.418 0-45.418-25.08-25.083-45.41 0-45.41 25.082-45.41 45.417-25.08 45.417 0" fill="#ffd021"/>
<path transform="matrix(.24,0,0,-.24,79.42512,179.43122)" d="M0 0H45.101C45.101 24.9 24.906 45.09 0 45.09-24.907 45.09-45.102 24.9-45.102 0-45.102-24.9-24.907-45.09 0-45.09 24.906-45.09 45.101-24.9 45.101 0" fill="#ffd022"/>
<path transform="matrix(.24,0,0,-.24,79.42512,179.43122)" d="M0 0H44.785C44.785 24.73 24.73 44.78 0 44.78-24.731 44.78-44.786 24.73-44.786 0-44.786-24.73-24.731-44.78 0-44.78 24.73-44.78 44.785-24.73 44.785 0" fill="#ffcf23"/>
<path transform="matrix(.24,0,0,-.24,79.42512,179.43122)" d="M0 0H44.464C44.464 24.55 24.554 44.46 0 44.46-24.555 44.46-44.465 24.55-44.465 0-44.465-24.55-24.555-44.46 0-44.46 24.554-44.46 44.464-24.55 44.464 0" fill="#ffcf23"/>
<path transform="matrix(.24,0,0,-.24,79.42512,179.43122)" d="M0 0H44.148C44.148 24.38 24.378 44.14 0 44.14-24.379 44.14-44.149 24.38-44.149 0-44.149-24.37-24.379-44.14 0-44.14 24.378-44.14 44.148-24.37 44.148 0" fill="#ffcf23"/>
<path transform="matrix(.24,0,0,-.24,79.42512,179.43122)" d="M0 0H43.832C43.832 24.2 24.207 43.83 0 43.83-24.208 43.83-43.833 24.2-43.833 0-43.833-24.2-24.208-43.82 0-43.82 24.207-43.82 43.832-24.2 43.832 0" fill="#ffcf23"/>
<path transform="matrix(.24,0,0,-.24,79.42512,179.43122)" d="M0 0H43.515C43.515 24.02 24.031 43.51 0 43.51-24.032 43.51-43.516 24.02-43.516 0-43.516-24.02-24.032-43.5 0-43.5 24.031-43.5 43.515-24.02 43.515 0" fill="#ffce24"/>
<path transform="matrix(.24,0,0,-.24,79.42512,179.43122)" d="M0 0H43.195C43.195 23.85 23.855 43.19 0 43.19-23.856 43.19-43.196 23.85-43.196 0-43.196-23.85-23.856-43.19 0-43.19 23.855-43.19 43.195-23.85 43.195 0" fill="#ffce24"/>
<path transform="matrix(.24,0,0,-.24,79.42512,179.43122)" d="M0 0H42.878C42.878 23.68 23.679 42.87 0 42.87-23.68 42.87-42.879 23.68-42.879 0-42.879-23.67-23.68-42.87 0-42.87 23.679-42.87 42.878-23.67 42.878 0" fill="#ffce24"/>
<path transform="matrix(.24,0,0,-.24,79.42512,179.43122)" d="M0 0H42.562C42.562 23.5 23.503 42.55 0 42.55-23.504 42.55-42.563 23.5-42.563 0-42.563-23.5-23.504-42.55 0-42.55 23.503-42.55 42.562-23.5 42.562 0" fill="#ffcd24"/>
<path transform="matrix(.24,0,0,-.24,79.42512,179.43122)" d="M0 0H42.242C42.242 23.33 23.328 42.24 0 42.24-23.329 42.24-42.243 23.33-42.243 0-42.243-23.32-23.329-42.23 0-42.23 23.328-42.23 42.242-23.32 42.242 0" fill="#ffcd25"/>
<path transform="matrix(.24,0,0,-.24,79.42512,179.43122)" d="M0 0H41.925C41.925 23.15 23.152 41.92 0 41.92-23.153 41.92-41.926 23.15-41.926 0-41.926-23.15-23.153-41.92 0-41.92 23.152-41.92 41.925-23.15 41.925 0" fill="#ffcd25"/>
<path transform="matrix(.24,0,0,-.24,79.42512,179.43122)" d="M0 0H41.609C41.609 22.97 22.976 41.6 0 41.6-22.977 41.6-41.61 22.97-41.61 0-41.61-22.97-22.977-41.6 0-41.6 22.976-41.6 41.609-22.97 41.609 0" fill="#ffcd25"/>
<path transform="matrix(.24,0,0,-.24,79.42512,179.43122)" d="M0 0H41.289C41.289 22.8 22.8 41.28 0 41.28-22.801 41.28-41.29 22.8-41.29 0-41.29-22.8-22.801-41.28 0-41.28 22.8-41.28 41.289-22.8 41.289 0" fill="#ffcc25"/>
<path transform="matrix(.24,0,0,-.24,79.42512,179.43122)" d="M0 0H40.972C40.972 22.62 22.625 40.97 0 40.97-22.625 40.97-40.973 22.62-40.973 0-40.973-22.62-22.625-40.96 0-40.96 22.625-40.96 40.972-22.62 40.972 0" fill="#ffcc26"/>
<path transform="matrix(.24,0,0,-.24,79.42512,179.43122)" d="M0 0H40.656C40.656 22.45 22.453 40.65 0 40.65-22.454 40.65-40.657 22.45-40.657 0-40.657-22.45-22.454-40.65 0-40.65 22.453-40.65 40.656-22.45 40.656 0" fill="#ffcc26"/>
<path transform="matrix(.24,0,0,-.24,79.42512,179.43122)" d="M0 0H40.335C40.335 22.27 22.273 40.33 0 40.33-22.274 40.33-40.336 22.27-40.336 0-40.336-22.27-22.274-40.33 0-40.33 22.273-40.33 40.335-22.27 40.335 0" fill="#ffcb26"/>
<path transform="matrix(.24,0,0,-.24,79.42512,179.43122)" d="M0 0H40.019C40.019 22.1 22.101 40.01 0 40.01-22.102 40.01-40.02 22.1-40.02 0-40.02-22.1-22.102-40.01 0-40.01 22.101-40.01 40.019-22.1 40.019 0" fill="#ffcb26"/>
<path transform="matrix(.24,0,0,-.24,79.42512,179.43122)" d="M0 0H39.703C39.703 21.92 21.925 39.7 0 39.7-21.926 39.7-39.704 21.92-39.704 0-39.704-21.92-21.926-39.69 0-39.69 21.925-39.69 39.703-21.92 39.703 0" fill="#ffcb27"/>
<path transform="matrix(.24,0,0,-.24,79.42512,179.43122)" d="M0 0H39.382C39.382 21.75 21.75 39.38 0 39.38-21.75 39.38-39.383 21.75-39.383 0-39.383-21.74-21.75-39.37 0-39.37 21.75-39.37 39.382-21.74 39.382 0" fill="#ffcb27"/>
<path transform="matrix(.24,0,0,-.24,79.42512,179.43122)" d="M0 0H39.066C39.066 21.57 21.574 39.06 0 39.06-21.575 39.06-39.067 21.57-39.067 0-39.067-21.57-21.575-39.06 0-39.06 21.574-39.06 39.066-21.57 39.066 0" fill="#ffca27"/>
<path transform="matrix(.24,0,0,-.24,79.42512,179.43122)" d="M0 0H38.75C38.75 21.4 21.398 38.74 0 38.74-21.399 38.74-38.75 21.4-38.75 0-38.75-21.39-21.399-38.74 0-38.74 21.398-38.74 38.75-21.39 38.75 0" fill="#ffca27"/>
<path transform="matrix(.24,0,0,-.24,79.42512,179.43122)" d="M0 0H38.429C38.429 21.22 21.222 38.43 0 38.43-21.223 38.43-38.43 21.22-38.43 0-38.43-21.22-21.223-38.42 0-38.42 21.222-38.42 38.429-21.22 38.429 0" fill="#ffca27"/>
<path transform="matrix(.24,0,0,-.24,79.42512,179.43122)" d="M0 0H38.113C38.113 21.04 21.046 38.11 0 38.11-21.047 38.11-38.114 21.04-38.114 0-38.114-21.04-21.047-38.1 0-38.1 21.046-38.1 38.113-21.04 38.113 0" fill="#ffc927"/>
<path transform="matrix(.24,0,0,-.24,79.42512,179.43122)" d="M0 0H37.796C37.796 20.87 20.871 37.79 0 37.79-20.872 37.79-37.797 20.87-37.797 0-37.797-20.87-20.872-37.79 0-37.79 20.871-37.79 37.796-20.87 37.796 0" fill="#ffc928"/>
<path transform="matrix(.24,0,0,-.24,79.42512,179.43122)" d="M0 0H37.48C37.48 20.7 20.699 37.47 0 37.47-20.7 37.47-37.481 20.7-37.481 0-37.481-20.69-20.7-37.47 0-37.47 20.699-37.47 37.48-20.69 37.48 0" fill="#ffc928"/>
<path transform="matrix(.24,0,0,-.24,79.42512,179.43122)" d="M0 0H37.16C37.16 20.52 20.519 37.15 0 37.15-20.52 37.15-37.161 20.52-37.161 0-37.161-20.51-20.52-37.15 0-37.15 20.519-37.15 37.16-20.51 37.16 0" fill="#ffc828"/>
<path transform="matrix(.24,0,0,-.24,79.42512,179.43122)" d="M0 0H36.843C36.843 20.34 20.347 36.84 0 36.84-20.348 36.84-36.844 20.34-36.844 0-36.844-20.34-20.348-36.83 0-36.83 20.347-36.83 36.843-20.34 36.843 0" fill="#ffc828"/>
<path transform="matrix(.24,0,0,-.24,79.42512,179.43122)" d="M0 0H36.527C36.527 20.17 20.171 36.52 0 36.52-20.172 36.52-36.528 20.17-36.528 0-36.528-20.17-20.172-36.52 0-36.52 20.171-36.52 36.527-20.17 36.527 0" fill="#ffc828"/>
<path transform="matrix(.24,0,0,-.24,79.42512,179.43122)" d="M0 0H36.207C36.207 19.99 19.996 36.2 0 36.2-19.997 36.2-36.208 19.99-36.208 0-36.208-19.99-19.997-36.2 0-36.2 19.996-36.2 36.207-19.99 36.207 0" fill="#ffc829"/>
<path transform="matrix(.24,0,0,-.24,79.42512,179.43122)" d="M0 0H35.89C35.89 19.82 19.82 35.88 0 35.88-19.821 35.88-35.891 19.82-35.891 0-35.891-19.82-19.821-35.88 0-35.88 19.82-35.88 35.89-19.82 35.89 0" fill="#ffc729"/>
<path transform="matrix(.24,0,0,-.24,79.42512,179.43122)" d="M0 0H35.574C35.574 19.64 19.644 35.57 0 35.57-19.645 35.57-35.575 19.64-35.575 0-35.575-19.64-19.645-35.57 0-35.57 19.644-35.57 35.574-19.64 35.574 0" fill="#ffc729"/>
<path transform="matrix(.24,0,0,-.24,79.42512,179.43122)" d="M0 0H35.253C35.253 19.47 19.468 35.25 0 35.25-19.469 35.25-35.254 19.47-35.254 0-35.254-19.46-19.469-35.25 0-35.25 19.468-35.25 35.253-19.46 35.253 0" fill="#ffc729"/>
<path transform="matrix(.24,0,0,-.24,79.42512,179.43122)" d="M0 0H34.937C34.937 19.29 19.292 34.93 0 34.93-19.293 34.93-34.938 19.29-34.938 0-34.938-19.29-19.293-34.93 0-34.93 19.292-34.93 34.937-19.29 34.937 0" fill="#ffc62a"/>
<path transform="matrix(.24,0,0,-.24,79.42512,179.43122)" d="M0 0H34.621C34.621 19.11 19.117 34.61 0 34.61-19.118 34.61-34.622 19.11-34.622 0-34.622-19.11-19.118-34.61 0-34.61 19.117-34.61 34.621-19.11 34.621 0" fill="#ffc62a"/>
<path transform="matrix(.24,0,0,-.24,79.42512,179.43122)" d="M0 0H34.3C34.3 18.94 18.941 34.3 0 34.3-18.942 34.3-34.301 18.94-34.301 0-34.301-18.94-18.942-34.3 0-34.3 18.941-34.3 34.3-18.94 34.3 0" fill="#ffc62a"/>
<path transform="matrix(.24,0,0,-.24,79.42512,179.43122)" d="M0 0H33.984C33.984 18.76 18.765 33.98 0 33.98-18.766 33.98-33.985 18.76-33.985 0-33.985-18.76-18.766-33.98 0-33.98 18.765-33.98 33.984-18.76 33.984 0" fill="#ffc62b"/>
<path transform="matrix(.24,0,0,-.24,79.42512,179.43122)" d="M0 0H33.667C33.667 18.59 18.593 33.66 0 33.66-18.594 33.66-33.668 18.59-33.668 0-33.668-18.59-18.594-33.66 0-33.66 18.593-33.66 33.667-18.59 33.667 0" fill="#ffc52b"/>
<path transform="matrix(.24,0,0,-.24,79.42512,179.43122)" d="M0 0H33.347C33.347 18.42 18.414 33.34 0 33.34-18.415 33.34-33.348 18.42-33.348 0-33.348-18.41-18.415-33.34 0-33.34 18.414-33.34 33.347-18.41 33.347 0" fill="#ffc52b"/>
<path transform="matrix(.24,0,0,-.24,79.42512,179.43122)" d="M0 0H33.031C33.031 18.24 18.242 33.02 0 33.02-18.243 33.02-33.032 18.24-33.032 0-33.032-18.24-18.243-33.02 0-33.02 18.242-33.02 33.031-18.24 33.031 0" fill="#ffc52b"/>
<path transform="matrix(.24,0,0,-.24,79.42512,179.43122)" d="M0 0H32.714C32.714 18.06 18.066 32.71 0 32.71-18.067 32.71-32.715 18.06-32.715 0-32.715-18.06-18.067-32.71 0-32.71 18.066-32.71 32.714-18.06 32.714 0" fill="#ffc42c"/>
<path transform="matrix(.24,0,0,-.24,79.42512,179.43122)" d="M0 0H32.394C32.394 17.89 17.89 32.39 0 32.39-17.891 32.39-32.395 17.89-32.395 0-32.395-17.89-17.891-32.39 0-32.39 17.89-32.39 32.394-17.89 32.394 0" fill="#ffc42c"/>
<path transform="matrix(.24,0,0,-.24,79.42512,179.43122)" d="M0 0H32.078C32.078 17.71 17.714 32.08 0 32.08-17.715 32.08-32.079 17.71-32.079 0-32.079-17.71-17.715-32.07 0-32.07 17.714-32.07 32.078-17.71 32.078 0" fill="#ffc42c"/>
<path transform="matrix(.24,0,0,-.24,79.42512,179.43122)" d="M0 0H31.761C31.761 17.54 17.539 31.76 0 31.76-17.54 31.76-31.762 17.54-31.762 0-31.762-17.53-17.54-31.75 0-31.75 17.539-31.75 31.761-17.53 31.761 0" fill="#ffc42c"/>
<path transform="matrix(.24,0,0,-.24,79.42512,179.43122)" d="M0 0H31.445C31.445 17.36 17.363 31.44 0 31.44-17.364 31.44-31.446 17.36-31.446 0-31.446-17.36-17.364-31.44 0-31.44 17.363-31.44 31.445-17.36 31.445 0" fill="#ffc32c"/>
<path transform="matrix(.24,0,0,-.24,79.42512,179.43122)" d="M0 0H31.125C31.125 17.19 17.187 31.12 0 31.12-17.188 31.12-31.125 17.19-31.125 0-31.125-17.19-17.188-31.12 0-31.12 17.187-31.12 31.125-17.19 31.125 0" fill="#ffc32c"/>
<path transform="matrix(.24,0,0,-.24,79.42512,179.43122)" d="M0 0H30.808C30.808 17.01 17.011 30.8 0 30.8-17.012 30.8-30.809 17.01-30.809 0-30.809-17.01-17.012-30.8 0-30.8 17.011-30.8 30.808-17.01 30.808 0" fill="#ffc32c"/>
<path transform="matrix(.24,0,0,-.24,79.42512,179.43122)" d="M0 0H30.492C30.492 16.84 16.839 30.49 0 30.49-16.84 30.49-30.493 16.84-30.493 0-30.493-16.83-16.84-30.48 0-30.48 16.839-30.48 30.492-16.83 30.492 0" fill="#ffc22c"/>
<path transform="matrix(.24,0,0,-.24,79.42512,179.43122)" d="M0 0H30.171C30.171 16.66 16.66 30.17 0 30.17-16.661 30.17-30.172 16.66-30.172 0-30.172-16.66-16.661-30.17 0-30.17 16.66-30.17 30.171-16.66 30.171 0" fill="#ffc22d"/>
<path transform="matrix(.24,0,0,-.24,79.42512,179.43122)" d="M0 0H29.855C29.855 16.49 16.488 29.85 0 29.85-16.489 29.85-29.856 16.49-29.856 0-29.856-16.48-16.489-29.85 0-29.85 16.488-29.85 29.855-16.48 29.855 0" fill="#fec22d"/>
<path transform="matrix(.24,0,0,-.24,79.42512,179.43122)" d="M0 0H29.539C29.539 16.31 16.312 29.53 0 29.53-16.313 29.53-29.54 16.31-29.54 0-29.54-16.31-16.313-29.53 0-29.53 16.312-29.53 29.539-16.31 29.539 0" fill="#fec22d"/>
<path transform="matrix(.24,0,0,-.24,79.42512,179.43122)" d="M0 0H29.218C29.218 16.13 16.136 29.22 0 29.22-16.137 29.22-29.219 16.13-29.219 0-29.219-16.13-16.137-29.21 0-29.21 16.136-29.21 29.218-16.13 29.218 0" fill="#fec12e"/>
<path transform="matrix(.24,0,0,-.24,79.42512,179.43122)" d="M0 0H28.902C28.902 15.96 15.96 28.9 0 28.9-15.961 28.9-28.903 15.96-28.903 0-28.903-15.96-15.961-28.9 0-28.9 15.96-28.9 28.902-15.96 28.902 0" fill="#fec12e"/>
<path transform="matrix(.24,0,0,-.24,79.42512,179.43122)" d="M0 0H28.585C28.585 15.78 15.785 28.58 0 28.58-15.786 28.58-28.586 15.78-28.586 0-28.586-15.78-15.786-28.58 0-28.58 15.785-28.58 28.585-15.78 28.585 0" fill="#fec12e"/>
<path transform="matrix(.24,0,0,-.24,79.42512,179.43122)" d="M0 0H28.265C28.265 15.61 15.609 28.26 0 28.26-15.61 28.26-28.266 15.61-28.266 0-28.266-15.6-15.61-28.26 0-28.26 15.609-28.26 28.265-15.6 28.265 0" fill="#fec02e"/>
<path transform="matrix(.24,0,0,-.24,79.42512,179.43122)" d="M0 0H27.949C27.949 15.43 15.433 27.95 0 27.95-15.434 27.95-27.95 15.43-27.95 0-27.95-15.43-15.434-27.94 0-27.94 15.433-27.94 27.949-15.43 27.949 0" fill="#fec02f"/>
<path transform="matrix(.24,0,0,-.24,79.42512,179.43122)" d="M0 0H27.632C27.632 15.26 15.257 27.63 0 27.63-15.258 27.63-27.633 15.26-27.633 0-27.633-15.25-15.258-27.62 0-27.62 15.257-27.62 27.632-15.25 27.632 0" fill="#fec02f"/>
<path transform="matrix(.24,0,0,-.24,79.42512,179.43122)" d="M0 0H27.312C27.312 15.08 15.082 27.31 0 27.31-15.083 27.31-27.313 15.08-27.313 0-27.313-15.08-15.083-27.31 0-27.31 15.082-27.31 27.312-15.08 27.312 0" fill="#fec02f"/>
<path transform="matrix(.24,0,0,-.24,79.42512,179.43122)" d="M0 0H26.996C26.996 14.91 14.906 26.99 0 26.99-14.907 26.99-26.997 14.91-26.997 0-26.997-14.91-14.907-26.99 0-26.99 14.906-26.99 26.996-14.91 26.996 0" fill="#febf2f"/>
<path transform="matrix(.24,0,0,-.24,79.42512,179.43122)" d="M0 0H26.679C26.679 14.73 14.734 26.67 0 26.67-14.735 26.67-26.68 14.73-26.68 0-26.68-14.73-14.735-26.67 0-26.67 14.734-26.67 26.679-14.73 26.679 0" fill="#febf2f"/>
<path transform="matrix(.24,0,0,-.24,79.42512,179.43122)" d="M0 0H26.363C26.363 14.56 14.558 26.36 0 26.36-14.559 26.36-26.364 14.56-26.364 0-26.364-14.55-14.559-26.35 0-26.35 14.558-26.35 26.363-14.55 26.363 0" fill="#febf30"/>
<path transform="matrix(.24,0,0,-.24,79.42512,179.43122)" d="M0 0H26.042C26.042 14.38 14.382 26.04 0 26.04-14.383 26.04-26.043 14.38-26.043 0-26.043-14.38-14.383-26.04 0-26.04 14.382-26.04 26.042-14.38 26.042 0" fill="#febe30"/>
<path transform="matrix(.24,0,0,-.24,79.42512,179.43122)" d="M0 0H25.726C25.726 14.2 14.207 25.72 0 25.72-14.208 25.72-25.727 14.2-25.727 0-25.727-14.2-14.208-25.72 0-25.72 14.207-25.72 25.726-14.2 25.726 0" fill="#febe30"/>
<path transform="matrix(.24,0,0,-.24,79.42512,179.43122)" d="M0 0H25.41C25.41 14.03 14.031 25.4 0 25.4-14.032 25.4-25.411 14.03-25.411 0-25.411-14.03-14.032-25.4 0-25.4 14.031-25.4 25.41-14.03 25.41 0" fill="#febe30"/>
<path transform="matrix(.24,0,0,-.24,79.42512,179.43122)" d="M0 0H25.089C25.089 13.85 13.855 25.09 0 25.09-13.856 25.09-25.09 13.85-25.09 0-25.09-13.85-13.856-25.08 0-25.08 13.855-25.08 25.089-13.85 25.089 0" fill="#febe30"/>
<path transform="matrix(.24,0,0,-.24,79.42512,179.43122)" d="M0 0H24.773C24.773 13.68 13.679 24.77 0 24.77-13.68 24.77-24.774 13.68-24.774 0-24.774-13.68-13.68-24.77 0-24.77 13.679-24.77 24.773-13.68 24.773 0" fill="#febd30"/>
<path transform="matrix(.24,0,0,-.24,79.42512,179.43122)" d="M0 0H24.457C24.457 13.5 13.503 24.45 0 24.45-13.504 24.45-24.458 13.5-24.458 0-24.458-13.5-13.504-24.45 0-24.45 13.503-24.45 24.457-13.5 24.457 0" fill="#febd31"/>
<path transform="matrix(.24,0,0,-.24,79.42512,179.43122)" d="M0 0H24.136C24.136 13.33 13.328 24.13 0 24.13-13.329 24.13-24.137 13.33-24.137 0-24.137-13.33-13.329-24.13 0-24.13 13.328-24.13 24.136-13.33 24.136 0" fill="#febd31"/>
<path transform="matrix(.24,0,0,-.24,79.42512,179.43122)" d="M0 0H23.82C23.82 13.15 13.152 23.82 0 23.82-13.153 23.82-23.821 13.15-23.821 0-23.821-13.15-13.153-23.82 0-23.82 13.152-23.82 23.82-13.15 23.82 0" fill="#febd31"/>
<path transform="matrix(.24,0,0,-.24,79.42512,179.43122)" d="M0 0H23.503C23.503 12.98 12.98 23.5 0 23.5-12.981 23.5-23.504 12.98-23.504 0-23.504-12.98-12.981-23.5 0-23.5 12.98-23.5 23.503-12.98 23.503 0" fill="#febc31"/>
<path transform="matrix(.24,0,0,-.24,79.42512,179.43122)" d="M0 0H23.183C23.183 12.8 12.8 23.18 0 23.18-12.801 23.18-23.184 12.8-23.184 0-23.184-12.8-12.801-23.18 0-23.18 12.8-23.18 23.183-12.8 23.183 0" fill="#fdbc32"/>
<path transform="matrix(.24,0,0,-.24,79.42512,179.43122)" d="M0 0H22.867C22.867 12.63 12.628 22.86 0 22.86-12.629 22.86-22.868 12.63-22.868 0-22.868-12.62-12.629-22.86 0-22.86 12.628-22.86 22.867-12.62 22.867 0" fill="#fdbc32"/>
<path transform="matrix(.24,0,0,-.24,79.42512,179.43122)" d="M0 0H22.55C22.55 12.45 12.453 22.55 0 22.55-12.454 22.55-22.551 12.45-22.551 0-22.551-12.45-12.454-22.55 0-22.55 12.453-22.55 22.55-12.45 22.55 0" fill="#fdbb32"/>
<path transform="matrix(.24,0,0,-.24,79.42512,179.43122)" d="M0 0H22.23C22.23 12.27 12.277 22.23 0 22.23-12.278 22.23-22.231 12.27-22.231 0-22.231-12.27-12.278-22.23 0-22.23 12.277-22.23 22.23-12.27 22.23 0" fill="#fdbb32"/>
<path transform="matrix(.24,0,0,-.24,79.42512,179.43122)" d="M0 0H21.914C21.914 12.1 12.101 21.91 0 21.91-12.102 21.91-21.915 12.1-21.915 0-21.915-12.1-12.102-21.91 0-21.91 12.101-21.91 21.914-12.1 21.914 0" fill="#fdbb32"/>
<path transform="matrix(.24,0,0,-.24,79.42512,179.43122)" d="M0 0H21.597C21.597 11.93 11.925 21.59 0 21.59-11.926 21.59-21.598 11.93-21.598 0-21.598-11.92-11.926-21.59 0-21.59 11.925-21.59 21.597-11.92 21.597 0" fill="#fdba32"/>
<path transform="matrix(.24,0,0,-.24,79.42512,179.43122)" d="M0 0H21.277C21.277 11.75 11.75 21.27 0 21.27-11.75 21.27-21.278 11.75-21.278 0-21.278-11.74-11.75-21.27 0-21.27 11.75-21.27 21.277-11.74 21.277 0" fill="#fdba32"/>
<path transform="matrix(.24,0,0,-.24,79.42512,179.43122)" d="M0 0H20.96C20.96 11.58 11.574 20.96 0 20.96-11.575 20.96-20.961 11.58-20.961 0-20.961-11.57-11.575-20.96 0-20.96 11.574-20.96 20.96-11.57 20.96 0" fill="#fdba32"/>
<path transform="matrix(.24,0,0,-.24,79.42512,179.43122)" d="M0 0H20.644C20.644 11.4 11.398 20.64 0 20.64-11.399 20.64-20.645 11.4-20.645 0-20.645-11.4-11.399-20.64 0-20.64 11.398-20.64 20.644-11.4 20.644 0" fill="#fdba33"/>
<path transform="matrix(.24,0,0,-.24,79.42512,179.43122)" d="M0 0H20.328C20.328 11.22 11.226 20.33 0 20.33-11.227 20.33-20.329 11.22-20.329 0-20.329-11.22-11.227-20.32 0-20.32 11.226-20.32 20.328-11.22 20.328 0" fill="#fdb933"/>
<path transform="matrix(.24,0,0,-.24,79.42512,179.43122)" d="M0 0H20.007C20.007 11.05 11.046 20.01 0 20.01-11.047 20.01-20.008 11.05-20.008 0-20.008-11.05-11.047-20 0-20 11.046-20 20.007-11.05 20.007 0" fill="#fdb833"/>
<path transform="matrix(.24,0,0,-.24,79.42512,179.43122)" d="M0 0H19.691C19.691 10.87 10.875 19.69 0 19.69-10.875 19.69-19.692 10.87-19.692 0-19.692-10.87-10.875-19.69 0-19.69 10.875-19.69 19.691-10.87 19.691 0" fill="#fdb834"/>
<path transform="matrix(.24,0,0,-.24,79.42512,179.43122)" d="M0 0H19.375C19.375 10.7 10.699 19.37 0 19.37-10.7 19.37-19.375 10.7-19.375 0-19.375-10.69-10.7-19.37 0-19.37 10.699-19.37 19.375-10.69 19.375 0" fill="#fdb734"/>
<path transform="matrix(.24,0,0,-.24,79.42512,179.43122)" d="M0 0H19.054C19.054 10.52 10.523 19.05 0 19.05-10.524 19.05-19.055 10.52-19.055 0-19.055-10.52-10.524-19.05 0-19.05 10.523-19.05 19.054-10.52 19.054 0" fill="#fcb634"/>
<path transform="matrix(.24,0,0,-.24,79.42512,179.43122)" d="M0 0H18.738C18.738 10.34 10.347 18.74 0 18.74-10.348 18.74-18.739 10.34-18.739 0-18.739-10.34-10.348-18.73 0-18.73 10.347-18.73 18.738-10.34 18.738 0" fill="#fcb535"/>
<path transform="matrix(.24,0,0,-.24,79.42512,179.43122)" d="M0 0H18.421C18.421 10.17 10.171 18.42 0 18.42-10.172 18.42-18.422 10.17-18.422 0-18.422-10.17-10.172-18.42 0-18.42 10.171-18.42 18.421-10.17 18.421 0" fill="#fcb436"/>
<path transform="matrix(.24,0,0,-.24,79.42512,179.43122)" d="M0 0H18.101C18.101 9.99 9.996 18.1 0 18.1-9.997 18.1-18.102 9.99-18.102 0-18.102-9.99-9.997-18.1 0-18.1 9.996-18.1 18.101-9.99 18.101 0" fill="#fcb336"/>
<path transform="matrix(.24,0,0,-.24,79.42512,179.43122)" d="M0 0H17.785C17.785 9.82 9.82 17.78 0 17.78-9.821 17.78-17.786 9.82-17.786 0-17.786-9.82-9.821-17.78 0-17.78 9.82-17.78 17.785-9.82 17.785 0" fill="#fcb236"/>
<path transform="matrix(.24,0,0,-.24,79.42512,179.43122)" d="M0 0H17.468C17.468 9.65 9.644 17.47 0 17.47-9.645 17.47-17.469 9.65-17.469 0-17.469-9.64-9.645-17.46 0-17.46 9.644-17.46 17.468-9.64 17.468 0" fill="#fcb137"/>
<path transform="matrix(.24,0,0,-.24,79.42512,179.43122)" d="M0 0H17.148C17.148 9.47 9.468 17.15 0 17.15-9.469 17.15-17.149 9.47-17.149 0-17.149-9.47-9.469-17.15 0-17.15 9.468-17.15 17.148-9.47 17.148 0" fill="#fcb037"/>
<path transform="matrix(.24,0,0,-.24,79.42512,179.43122)" d="M0 0H16.832C16.832 9.29 9.292 16.83 0 16.83-9.293 16.83-16.833 9.29-16.833 0-16.833-9.29-9.293-16.83 0-16.83 9.292-16.83 16.832-9.29 16.832 0" fill="#fbaf38"/>
<path transform="matrix(.24,0,0,-.24,79.42512,179.43122)" d="M0 0H16.515C16.515 9.12 9.121 16.51 0 16.51-9.122 16.51-16.516 9.12-16.516 0-16.516-9.12-9.122-16.51 0-16.51 9.121-16.51 16.515-9.12 16.515 0" fill="#fbaf38"/>
<path transform="matrix(.24,0,0,-.24,79.42512,179.43122)" d="M0 0H16.195C16.195 8.94 8.941 16.2 0 16.2-8.942 16.2-16.196 8.94-16.196 0-16.196-8.94-8.942-16.19 0-16.19 8.941-16.19 16.195-8.94 16.195 0" fill="#fbae39"/>
<path transform="matrix(.24,0,0,-.24,79.42512,179.43122)" d="M0 0H15.878C15.878 8.77 8.769 15.88 0 15.88-8.77 15.88-15.879 8.77-15.879 0-15.879-8.76-8.77-15.87 0-15.87 8.769-15.87 15.878-8.76 15.878 0" fill="#fbad39"/>
<path transform="matrix(.24,0,0,-.24,79.42512,179.43122)" d="M0 0H15.562C15.562 8.59 8.593 15.56 0 15.56-8.594 15.56-15.563 8.59-15.563 0-15.563-8.59-8.594-15.56 0-15.56 8.593-15.56 15.562-8.59 15.562 0" fill="#fbac39"/>
<path transform="matrix(.24,0,0,-.24,79.42512,179.43122)" d="M0 0H15.246C15.246 8.42 8.417 15.24 0 15.24-8.418 15.24-15.247 8.42-15.247 0-15.247-8.42-8.418-15.24 0-15.24 8.417-15.24 15.246-8.42 15.246 0" fill="#fbab3a"/>
<path transform="matrix(.24,0,0,-.24,79.42512,179.43122)" d="M0 0H14.925C14.925 8.24 8.242 14.92 0 14.92-8.243 14.92-14.926 8.24-14.926 0-14.926-8.24-8.243-14.92 0-14.92 8.242-14.92 14.925-8.24 14.925 0" fill="#fbaa3a"/>
<path transform="matrix(.24,0,0,-.24,79.42512,179.43122)" d="M0 0H14.609C14.609 8.06 8.066 14.61 0 14.61-8.067 14.61-14.61 8.06-14.61 0-14.61-8.06-8.067-14.6 0-14.6 8.066-14.6 14.609-8.06 14.609 0" fill="#faa93a"/>
<path transform="matrix(.24,0,0,-.24,79.42512,179.43122)" d="M0 0H14.292C14.292 7.89 7.89 14.29 0 14.29-7.891 14.29-14.293 7.89-14.293 0-14.293-7.89-7.891-14.29 0-14.29 7.89-14.29 14.292-7.89 14.292 0" fill="#faa83a"/>
<path transform="matrix(.24,0,0,-.24,79.42512,179.43122)" d="M0 0H13.972C13.972 7.72 7.714 13.97 0 13.97-7.715 13.97-13.973 7.72-13.973 0-13.973-7.71-7.715-13.97 0-13.97 7.714-13.97 13.972-7.71 13.972 0" fill="#faa83b"/>
<path transform="matrix(.24,0,0,-.24,79.42512,179.43122)" d="M0 0H13.656C13.656 7.54 7.539 13.65 0 13.65-7.54 13.65-13.657 7.54-13.657 0-13.657-7.54-7.54-13.65 0-13.65 7.539-13.65 13.656-7.54 13.656 0" fill="#faa73b"/>
<path transform="matrix(.24,0,0,-.24,79.42512,179.43122)" d="M0 0H13.339C13.339 7.36 7.367 13.34 0 13.34-7.368 13.34-13.34 7.36-13.34 0-13.34-7.36-7.368-13.33 0-13.33 7.367-13.33 13.339-7.36 13.339 0" fill="#faa63c"/>
<path transform="matrix(.24,0,0,-.24,79.42512,179.43122)" d="M0 0H13.019C13.019 7.19 7.187 13.02 0 13.02-7.188 13.02-13.02 7.19-13.02 0-13.02-7.19-7.188-13.02 0-13.02 7.187-13.02 13.019-7.19 13.019 0" fill="#faa53c"/>
<path transform="matrix(.24,0,0,-.24,79.42512,179.43122)" d="M0 0H12.703C12.703 7.01 7.015 12.7 0 12.7-7.016 12.7-12.704 7.01-12.704 0-12.704-7.01-7.016-12.7 0-12.7 7.015-12.7 12.703-7.01 12.703 0" fill="#faa43c"/>
<path transform="matrix(.24,0,0,-.24,79.42512,179.43122)" d="M0 0H12.386C12.386 6.84 6.839 12.38 0 12.38-6.84 12.38-12.387 6.84-12.387 0-12.387-6.83-6.84-12.38 0-12.38 6.839-12.38 12.386-6.83 12.386 0" fill="#faa33d"/>
<path transform="matrix(.24,0,0,-.24,79.42512,179.43122)" d="M0 0H12.066C12.066 6.67 6.664 12.07 0 12.07-6.665 12.07-12.067 6.67-12.067 0-12.067-6.66-6.665-12.07 0-12.07 6.664-12.07 12.066-6.66 12.066 0" fill="#f9a23d"/>
<path transform="matrix(.24,0,0,-.24,79.42512,179.43122)" d="M0 0H11.75C11.75 6.49 6.488 11.75 0 11.75-6.489 11.75-11.75 6.49-11.75 0-11.75-6.48-6.489-11.74 0-11.74 6.488-11.74 11.75-6.48 11.75 0" fill="#f9a23d"/>
<path transform="matrix(.24,0,0,-.24,79.42512,179.43122)" d="M0 0H11.433C11.433 6.31 6.312 11.43 0 11.43-6.313 11.43-11.434 6.31-11.434 0-11.434-6.31-6.313-11.43 0-11.43 6.312-11.43 11.433-6.31 11.433 0" fill="#f9a13e"/>
<path transform="matrix(.24,0,0,-.24,79.42512,179.43122)" d="M0 0H11.113C11.113 6.14 6.136 11.11 0 11.11-6.137 11.11-11.114 6.14-11.114 0-11.114-6.14-6.137-11.11 0-11.11 6.136-11.11 11.113-6.14 11.113 0" fill="#f9a03e"/>
<path transform="matrix(.24,0,0,-.24,79.42512,179.43122)" d="M0 0H10.796C10.796 5.96 5.96 10.8 0 10.8-5.961 10.8-10.797 5.96-10.797 0-10.797-5.96-5.961-10.8 0-10.8 5.96-10.8 10.796-5.96 10.796 0" fill="#f99f3e"/>
<path transform="matrix(.24,0,0,-.24,79.42512,179.43122)" d="M0 0H10.48C10.48 5.79 5.785 10.48 0 10.48-5.786 10.48-10.481 5.79-10.481 0-10.481-5.78-5.786-10.48 0-10.48 5.785-10.48 10.48-5.78 10.48 0" fill="#f99e3e"/>
<path transform="matrix(.24,0,0,-.24,79.42512,179.43122)" d="M0 0H10.16C10.16 5.61 5.609 10.16 0 10.16-5.61 10.16-10.161 5.61-10.161 0-10.161-5.61-5.61-10.16 0-10.16 5.609-10.16 10.16-5.61 10.16 0" fill="#f99d3f"/>
<path transform="matrix(.24,0,0,-.24,79.42512,179.43122)" d="M0 0H9.843C9.843 5.43 5.433 9.84 0 9.84-5.434 9.84-9.844 5.43-9.844 0-9.844-5.43-5.434-9.84 0-9.84 5.433-9.84 9.843-5.43 9.843 0" fill="#f89c3f"/>
<path transform="matrix(.24,0,0,-.24,79.42512,179.43122)" d="M0 0H9.527C9.527 5.26 5.261 9.52 0 9.52-5.262 9.52-9.528 5.26-9.528 0-9.528-5.26-5.262-9.52 0-9.52 5.261-9.52 9.527-5.26 9.527 0" fill="#f89c3f"/>
<path transform="matrix(.24,0,0,-.24,79.42512,179.43122)" d="M0 0H9.21C9.21 5.08 5.085 9.21 0 9.21-5.086 9.21-9.211 5.08-9.211 0-9.211-5.08-5.086-9.21 0-9.21 5.085-9.21 9.21-5.08 9.21 0" fill="#f89b3f"/>
<path transform="matrix(.24,0,0,-.24,79.42512,179.43122)" d="M0 0H8.89C8.89 4.91 4.91 8.89 0 8.89-4.911 8.89-8.891 4.91-8.891 0-8.891-4.91-4.911-8.89 0-8.89 4.91-8.89 8.89-4.91 8.89 0" fill="#f89a40"/>
<path transform="matrix(.24,0,0,-.24,79.42512,179.43122)" d="M0 0H8.574C8.574 4.73 4.734 8.57 0 8.57-4.735 8.57-8.575 4.73-8.575 0-8.575-4.73-4.735-8.57 0-8.57 4.734-8.57 8.574-4.73 8.574 0" fill="#f89940"/>
<path transform="matrix(.24,0,0,-.24,79.42512,179.43122)" d="M0 0H8.257C8.257 4.56 4.558 8.26 0 8.26-4.559 8.26-8.258 4.56-8.258 0-8.258-4.55-4.559-8.25 0-8.25 4.558-8.25 8.257-4.55 8.257 0" fill="#f89840"/>
<path transform="matrix(.24,0,0,-.24,79.42512,179.43122)" d="M0 0H7.937C7.937 4.38 4.382 7.94 0 7.94-4.383 7.94-7.938 4.38-7.938 0-7.938-4.38-4.383-7.94 0-7.94 4.382-7.94 7.937-4.38 7.937 0" fill="#f89741"/>
<path transform="matrix(.24,0,0,-.24,79.42512,179.43122)" d="M0 0H7.621C7.621 4.21 4.207 7.62 0 7.62-4.208 7.62-7.622 4.21-7.622 0-7.622-4.21-4.208-7.62 0-7.62 4.207-7.62 7.621-4.21 7.621 0" fill="#f89640"/>
<path transform="matrix(.24,0,0,-.24,79.42512,179.43122)" d="M0 0H7.304C7.304 4.03 4.031 7.3 0 7.3-4.032 7.3-7.305 4.03-7.305 0-7.305-4.03-4.032-7.3 0-7.3 4.031-7.3 7.304-4.03 7.304 0" fill="#f79541"/>
<path transform="matrix(.24,0,0,-.24,79.42512,179.43122)" d="M0 0H6.984C6.984 3.86 3.855 6.99 0 6.99-3.856 6.99-6.985 3.86-6.985 0-6.985-3.85-3.856-6.98 0-6.98 3.855-6.98 6.984-3.85 6.984 0" fill="#f79541"/>
<path transform="matrix(.24,0,0,-.24,79.42512,179.43122)" d="M0 0H6.667C6.667 3.68 3.679 6.67 0 6.67-3.68 6.67-6.668 3.68-6.668 0-6.668-3.68-3.68-6.67 0-6.67 3.679-6.67 6.667-3.68 6.667 0" fill="#f79441"/>
<path transform="matrix(.24,0,0,-.24,79.42512,179.43122)" d="M0 0H6.351C6.351 3.51 3.507 6.35 0 6.35-3.508 6.35-6.352 3.51-6.352 0-6.352-3.5-3.508-6.35 0-6.35 3.507-6.35 6.351-3.5 6.351 0" fill="#f79342"/>
<path transform="matrix(.24,0,0,-.24,79.42512,179.43122)" d="M0 0H6.031C6.031 3.33 3.328 6.03 0 6.03-3.329 6.03-6.032 3.33-6.032 0-6.032-3.33-3.329-6.03 0-6.03 3.328-6.03 6.031-3.33 6.031 0" fill="#f79242"/>
<path transform="matrix(.24,0,0,-.24,79.42512,179.43122)" d="M0 0H5.714C5.714 3.15 3.152 5.72 0 5.72-3.153 5.72-5.715 3.15-5.715 0-5.715-3.15-3.153-5.71 0-5.71 3.152-5.71 5.714-3.15 5.714 0" fill="#f79142"/>
<path transform="matrix(.24,0,0,-.24,79.42512,179.43122)" d="M0 0H5.398C5.398 2.98 2.98 5.4 0 5.4-2.981 5.4-5.399 2.98-5.399 0-5.399-2.98-2.981-5.4 0-5.4 2.98-5.4 5.398-2.98 5.398 0" fill="#f79142"/>
<path transform="matrix(.24,0,0,-.24,79.42512,179.43122)" d="M0 0H5.078C5.078 2.8 2.8 5.08 0 5.08-2.801 5.08-5.079 2.8-5.079 0-5.079-2.8-2.801-5.08 0-5.08 2.8-5.08 5.078-2.8 5.078 0" fill="#f79042"/>
<path transform="matrix(.24,0,0,-.24,79.42512,179.43122)" d="M0 0H4.761C4.761 2.63 2.628 4.76 0 4.76-2.629 4.76-4.762 2.63-4.762 0-4.762-2.63-2.629-4.76 0-4.76 2.628-4.76 4.761-2.63 4.761 0" fill="#f78f43"/>
<path transform="matrix(.24,0,0,-.24,79.42512,179.43122)" d="M0 0H4.445C4.445 2.45 2.453 4.45 0 4.45-2.454 4.45-4.446 2.45-4.446 0-4.446-2.45-2.454-4.44 0-4.44 2.453-4.44 4.445-2.45 4.445 0" fill="#f68e43"/>
<path transform="matrix(.24,0,0,-.24,79.42512,179.43122)" d="M0 0H4.128C4.128 2.28 2.277 4.13 0 4.13-2.278 4.13-4.129 2.28-4.129 0-4.129-2.28-2.278-4.12 0-4.12 2.277-4.12 4.128-2.28 4.128 0" fill="#f68d43"/>
<path transform="matrix(.24,0,0,-.24,79.42512,179.43122)" d="M0 0H3.808C3.808 2.1 2.101 3.81 0 3.81-2.102 3.81-3.809 2.1-3.809 0-3.809-2.1-2.102-3.81 0-3.81 2.101-3.81 3.808-2.1 3.808 0" fill="#f68c43"/>
<path transform="matrix(.24,0,0,-.24,79.42512,179.43122)" d="M0 0H3.492C3.492 1.93 1.925 3.49 0 3.49-1.926 3.49-3.493 1.93-3.493 0-3.493-1.92-1.926-3.49 0-3.49 1.925-3.49 3.492-1.92 3.492 0" fill="#f68c44"/>
<path transform="matrix(.24,0,0,-.24,79.42512,179.43122)" d="M0 0H3.175C3.175 1.75 1.753 3.17 0 3.17-1.754 3.17-3.176 1.75-3.176 0-3.176-1.75-1.754-3.17 0-3.17 1.753-3.17 3.175-1.75 3.175 0" fill="#f68b44"/>
<path transform="matrix(.24,0,0,-.24,79.42512,179.43122)" d="M0 0H2.855C2.855 1.58 1.574 2.86 0 2.86-1.575 2.86-2.856 1.58-2.856 0-2.856-1.57-1.575-2.85 0-2.85 1.574-2.85 2.855-1.57 2.855 0" fill="#f68a44"/>
<path transform="matrix(.24,0,0,-.24,79.42512,179.43122)" d="M0 0H2.539C2.539 1.4 1.398 2.54 0 2.54-1.399 2.54-2.54 1.4-2.54 0-2.54-1.4-1.399-2.54 0-2.54 1.398-2.54 2.539-1.4 2.539 0" fill="#f68944"/>
<path transform="matrix(.24,0,0,-.24,79.42512,179.43122)" d="M0 0H2.222C2.222 1.23 1.226 2.22 0 2.22-1.227 2.22-2.223 1.23-2.223 0-2.223-1.23-1.227-2.22 0-2.22 1.226-2.22 2.222-1.23 2.222 0" fill="#f68844"/>
<path transform="matrix(.24,0,0,-.24,79.42512,179.43122)" d="M0 0H1.902C1.902 1.05 1.046 1.9 0 1.9-1.047 1.9-1.903 1.05-1.903 0-1.903-1.05-1.047-1.9 0-1.9 1.046-1.9 1.902-1.05 1.902 0" fill="#f68744"/>
<path transform="matrix(.24,0,0,-.24,79.42512,179.43122)" d="M0 0H1.585C1.585 .88 .875 1.59 0 1.59-.875 1.59-1.586 .88-1.586 0-1.586-.87-.875-1.58 0-1.58 .875-1.58 1.585-.87 1.585 0" fill="#f58645"/>
<path transform="matrix(.24,0,0,-.24,79.42512,179.43122)" d="M0 0H1.269C1.269 .7 .699 1.27 0 1.27-.7 1.27-1.27 .7-1.27 0-1.27-.7-.7-1.27 0-1.27 .699-1.27 1.269-.7 1.269 0" fill="#f58645"/>
<path transform="matrix(.24,0,0,-.24,79.42512,179.43122)" d="M0 0H.949C.949 .52 .523 .95 0 .95-.524 .95-.95 .52-.95 0-.95-.52-.524-.95 0-.95 .523-.95 .949-.52 .949 0" fill="#f58545"/>
<path transform="matrix(.24,0,0,-.24,79.42512,179.43122)" d="M0 0H.632C.632 .35 .347 .63 0 .63-.348 .63-.633 .35-.633 0-.633-.35-.348-.63 0-.63 .347-.63 .632-.35 .632 0" fill="#f58445"/>
<path transform="matrix(.24,0,0,-.24,79.42512,179.43122)" d="M0 0H.316C.316 .17 .171 .32 0 .32-.172 .32-.317 .17-.317 0-.317-.17-.172-.32 0-.32 .171-.32 .316-.17 .316 0" fill="#f58345"/>
</g>
<g clip-path="url(#clip_2082)">
<path transform="matrix(.240024,0,0,-.23997623,79.42526,165.63428)" stroke-width="2.084" stroke-linecap="butt" stroke-miterlimit="2.613" stroke-linejoin="miter" fill="none" stroke="#231f20" d="M0 0C31.664 0 57.49-25.83 57.49-57.49 57.49-89.16 31.664-114.99 0-114.99-31.665-114.99-57.495-89.16-57.495-57.49-57.495-25.83-31.665 0 0 0Z"/>
<path transform="matrix(.240024,0,0,-.23997623,221.67885,269.15525)" stroke-width="8.335" stroke-linecap="butt" stroke-miterlimit="2.613" stroke-linejoin="miter" fill="none" stroke="#ed1651" d="M0 0-1.055 349.56"/>
<path transform="matrix(.24,0,0,-.23999997,216.21936,186.10559)" d="M0 0 21.586 39.51 43.406 .14 0 0" fill="#ed1651" fill-rule="evenodd"/>
<path transform="matrix(.240024,0,0,-.2399762,79.42526,179.43056)" stroke-width="8.335" stroke-linecap="butt" stroke-dasharray="41.674,8.335" stroke-miterlimit="2.613" stroke-linejoin="miter" fill="none" stroke="#ffcb04" d="M0 0 380.638-377.85"/>
<path transform="matrix(.24,0,0,-.23999994,173.8771,265.82643)" d="M0 0 12.727-43.24-30.613-30.83 0 0" fill="#ffcb04" fill-rule="evenodd"/>
<path transform="matrix(.240024,0,0,-.23997617,189.4549,164.44159)" stroke-width="8.335" stroke-linecap="butt" stroke-miterlimit="2.613" stroke-linejoin="miter" fill="none" stroke="#ed1651" d="M0 0C-59.959-24.38-100.693-63.36-87.229-144.41"/>
<path transform="matrix(.24,0,0,-.2399999,173.52744,197.43119)" d="M0 0-14.965-42.52-42.875-7.12 0 0" fill="#ed1651" fill-rule="evenodd"/>
<text fill="#231f20" xml:space="preserve" transform="matrix(1.0001 0 -0 .9998996 -18 802.7998)" font-size="9.500951" font-family="Bookman"><tspan y="-621.29769" x="86.21808 91.918659 94.768939 99.89945 106.17008">Light</tspan></text>
<path transform="matrix(.24,0,0,-.23999992,220.31711,142.88404)" d="M0 0C65.902 0 119.662-30.33 119.662-67.53 119.662-104.72 65.902-135.06 0-135.06-65.906-135.06-119.66-104.72-119.66-67.53-119.66-30.33-65.906 0 0 0" fill="#f6adcd" fill-rule="evenodd"/>
<path transform="matrix(.240024,0,0,-.23997613,220.31766,142.88465)" stroke-width="2.084" stroke-linecap="butt" stroke-miterlimit="2.613" stroke-linejoin="miter" fill="none" stroke="#231f20" d="M0 0C65.899 0 119.649-30.34 119.649-67.53 119.649-104.73 65.899-135.07 0-135.07-65.9-135.07-119.649-104.73-119.649-67.53-119.649-30.34-65.9 0 0 0Z"/>
<path transform="matrix(.24,0,0,-.23999992,-18,802.7998)" d="M727.363 2329.36H933.953V2474.6612H727.363Z" fill="#c7c4e2" fill-rule="evenodd"/>
<path transform="matrix(.240024,0,0,-.23997613,206.14905,208.88294)" stroke-width="2.084" stroke-linecap="butt" stroke-miterlimit="2.613" stroke-linejoin="miter" fill="none" stroke="#231f20" d="M0 0H-206.569V-145.31H0V0Z"/>
<text fill="#231f20" xml:space="preserve" transform="matrix(1.0001 0 -0 .9998996 -18 802.7998)" font-size="9.500951" font-family="Bookman"><tspan y="-640.87667" x="213.84783">e</tspan><tspan y="-643.1239" x="219.09535">-</tspan><tspan y="-641.1527" x="224.6479 230.15847 235.09897 240.03946 244.97997 250.87055 254.48091 259.80146">acceptor</tspan><tspan y="-585.1751" x="179.78842 186.6291 189.4794 194.41989 199.3604 202.97075 207.22718 212.54772">Electron</tspan><tspan y="-574.56307" x="177.5462 181.15656 185.33698 190.84754 197.11817 202.05866 207.94925 213.26978 217.45018">transport</tspan><tspan y="-563.94998" x="183.05677 187.99726 193.12778 198.06827 201.67864 206.61913">system</tspan><tspan y="-521.31369" x="213.58782 220.61852 226.88915 229.73943 235.05995 239.31638 244.6369 250.5275 256.79814 261.92863 264.7789">Chlorophyll</tspan><tspan y="-510.11256" x="225.74803 231.63861 234.67893 240.5695 246.46009">P 700</tspan></text>
<text fill="#231f20" xml:space="preserve" transform="matrix(.35782255 -.9337585 .93385878 .3577224 -18 802.7998)" font-size="7.0005595" font-family="Bookman"><tspan y="-63.346757" x="594.8452">A</tspan><tspan y="-63.347749" x="599.60488">D</tspan><tspan y="-63.346757" x="605.20449 609.54489">P+</tspan></text>
<text fill="#231f20" xml:space="preserve" transform="matrix(.35782255 -.9337585 .93385878 .3577224 -18 802.7998)" font-size="7.0005595" font-family="Bookman" font-style="italic"><tspan y="-63.346757" x="613.74526">i</tspan><tspan y="-63.34677" x="615.7054">P</tspan></text>
<text fill="#231f20" xml:space="preserve" transform="matrix(.35782255 -.9337585 .93385878 .3577224 -18 802.7998)" font-size="7.0005595" font-family="Bookman"><tspan y="-62.946763" x="628.20809">A</tspan><tspan y="-62.946779" x="632.97549">T</tspan><tspan y="-62.946794" x="637.3158">P</tspan></text>
<path transform="matrix(.240024,0,0,-.23997613,140.43865,218.88269)" stroke-width="2.084" stroke-linecap="butt" stroke-miterlimit="2.613" stroke-linejoin="miter" fill="none" stroke="#231f20" d="M0 0C53.581-11.59 94.526 71.66 59.846 112.67"/>
<path transform="matrix(.24,0,0,-.23999992,153.05808,193.86243)" d="M0 0-4.504 22.33 16.77 14.18 0 0" fill="#231f20" fill-rule="evenodd"/>
</g>
<g clip-path="url(#clip_2083)">
<text xml:space="preserve" transform="matrix(1 0 -0 1 259.314 763.9998)" font-size="8" font-family="Arial"><tspan y="6.316" x="0"> </tspan></text>
</g>
</g>
</g>
</svg>
