<svg xmlns="http://www.w3.org/2000/svg" xmlns:xlink="http://www.w3.org/1999/xlink" xmlns:inkscape="http://www.inkscape.org/namespaces/inkscape" version="1.1" width="571.68008" height="780.48007" viewBox="0 0 571.68008 780.48007">
<defs>
<clipPath id="clip_45">
<path transform="matrix(1,0,0,-1,-20.16,800.64)" d="M20.16 20.16H591.84V800.64H20.16Z" clip-rule="evenodd"/>
</clipPath>
<clipPath id="clip_46">
<path transform="matrix(.23999998,0,0,-.23999998,-20.16,800.64)" d="M784 429H1833V1478H784Z"/>
</clipPath>
<clipPath id="clip_47">
<path transform="matrix(.23999998,0,0,-.23999998,-20.16,800.64)" d="M1084 2784H2026V2863H1084Z"/>
</clipPath>
<clipPath id="clip_48">
<path transform="matrix(.23999998,0,0,-.23999998,-20.16,800.64)" d="M1367 2652H1742V2777H1367Z"/>
</clipPath>
<clipPath id="clip_49">
<path transform="matrix(.23999998,0,0,-.23999998,-20.16,800.64)" d="M1009 2379H2101V2449H1009Z"/>
</clipPath>
<clipPath id="clip_50">
<path transform="matrix(.23999998,0,0,-.23999998,-20.16,800.64)" d="M1341 2177H1770V2302H1341Z"/>
</clipPath>
<clipPath id="clip_51">
<path transform="matrix(1,0,0,-1,257.15403,766.8803)" d="M0-8H57.372V.800049H0Z"/>
</clipPath>
</defs>
<g clip-path="url(#clip_45)">
<path transform="matrix(.23999998,0,0,-.23999998,-20.16,800.64)" d="M2 2H2548V214.67H2Z" fill="#cbdf7f" fill-rule="evenodd"/>
<path transform="matrix(.23999998,0,0,-.23999998,-20.16,800.64)" stroke-width="4" stroke-linecap="butt" stroke-miterlimit="1000" stroke-linejoin="miter" fill="none" stroke="#cbdf7f" d="M2 2H2548V214.67H2Z"/>
<path transform="matrix(.23999998,0,0,-.23999998,-20.16,800.64)" d="M0 3035.83H2550V3372.7003H0Z" fill="#d1d3d4" fill-rule="evenodd"/>
<path transform="matrix(.23999998,0,0,-.23999998,-20.16,800.64)" d="M0 3078.33H2550V3420H0Z" fill="#e1ecb6" fill-rule="evenodd"/>
<path transform="matrix(.23999998,0,0,-.23999998,60.476163,51.47522)" d="M0 0C7.32 7.32 16.16 10.98 26.52 10.98H97.35C107.7 10.98 116.54 7.32 123.87 0 131.19-7.32 134.85-16.16 134.85-26.52V-101.52C134.85-111.88 131.19-120.72 123.87-128.04 116.54-135.36 107.7-139.02 97.35-139.02H26.52C16.16-139.02 7.32-135.36 0-128.04-7.32-120.72-10.98-111.88-10.98-101.52V-26.52C-10.98-16.16-7.32-7.32 0 0" fill="#ffffff" fill-rule="evenodd"/>
<text fill="#231f20" xml:space="preserve" transform="matrix(1 0 -0 1 -20.16 800.64)" font-size="11" font-family="Bookman,Bold" font-weight="bold"><tspan y="-729.361" x="87.12 94.409999 101.69999">164</tspan></text>
<text fill="#231f20" xml:space="preserve" transform="matrix(1 0 -0 1 -20.16 800.64)" font-size="11" font-family="Bookman"><tspan y="-729.361" x="513.12">B</tspan></text>
<text fill="#231f20" xml:space="preserve" transform="matrix(1 0 -0 1 -20.16 800.64)" font-size="7.69999" font-family="Bookman"><tspan y="-729.361" x="521.04 523.3687 529.3087 533.6779 539.6179 545.5579">IOLOGY</tspan></text>
<path transform="matrix(.23999998,0,0,-.23999998,-20.16,-1.7999878)" stroke-width="1" stroke-linecap="butt" stroke-miterlimit="10" stroke-linejoin="miter" fill="none" stroke="#000000" d="M0 0H60"/>
<path transform="matrix(.23999998,0,0,-.23999998,-2.039999,-20.159974)" stroke-width="1" stroke-linecap="butt" stroke-miterlimit="10" stroke-linejoin="miter" fill="none" stroke="#000000" d="M0 0V-60"/>
<path transform="matrix(.23999998,0,0,-.23999998,-20.16,782.52)" stroke-width="1" stroke-linecap="butt" stroke-miterlimit="10" stroke-linejoin="miter" fill="none" stroke="#000000" d="M0 0H60"/>
<path transform="matrix(.23999998,0,0,-.23999998,-2.039999,786)" stroke-width="1" stroke-linecap="butt" stroke-miterlimit="10" stroke-linejoin="miter" fill="none" stroke="#000000" d="M0 0V-60"/>
<path transform="matrix(.23999998,0,0,-.23999998,591.48007,782.4)" stroke-width="1" stroke-linecap="butt" stroke-miterlimit="10" stroke-linejoin="miter" fill="none" stroke="#000000" d="M0 0V-75"/>
<g clip-path="url(#clip_46)">
<path transform="matrix(.23999998,0,0,-.23999998,294.18959,446.51286)" d="M0 0C287.8 0 522.53-234.72 522.53-522.52 522.53-810.31 287.8-1045.04 0-1045.04-287.79-1045.04-522.52-810.31-522.52-522.52-522.52-234.72-287.79 0 0 0" fill="#fffcd5" fill-rule="evenodd"/>
</g>
<path transform="matrix(.23999998,0,0,-.23999998,-20.16,800.64)" d="M805 2165.83H2300V2478.33H805Z" fill="#fffac2" fill-rule="evenodd"/>
<path transform="matrix(.23999998,0,0,-.23999998,-20.16,800.64)" d="M805 2636.67H2300V2886.67H805Z" fill="#fffac2" fill-rule="evenodd"/>
<g clip-path="url(#clip_47)">
<text xml:space="preserve" transform="matrix(1.0124656 0 -0 .9876845 -20.16 800.64)" font-size="10.608631" font-family="Bookman"><tspan y="-683.53738" x="258.6159 270.23237 285.88008 319.29725 375.9473 383.53254 412.45167 425.0123 442.31495 449.9001 456.54109 461.99397 466.50263 471.9555">CHOOCOHOEnergy</tspan></text>
<text xml:space="preserve" transform="matrix(1.0124655 0 -0 .9876845 -20.16 800.64)" font-size="6.1254274" font-family="Bookman"><tspan y="-680.86459" x="266.2014 278.29298 281.84574 294.1701 327.59043 391.82835 420.98539">6126222</tspan></text>
<text xml:space="preserve" transform="matrix(1.0124655 0 -0 .9876845 -20.16 800.64)" font-size="10.608632" font-family="Bookman"><tspan y="-683.5375" x="312.8964 369.5465 406.05079">666</tspan></text>
<text xml:space="preserve" transform="matrix(1.0124655 0 -0 .9876845 -20.16 800.64)" font-size="10.608632" font-family="Symbol"><tspan y="-683.5375" x="303.1777 337.07234 355.56315 347.74464 398.47514 434.74604">+&#xf8e7;&#x2192;&#xf8e7;++</tspan></text>
</g>
<g clip-path="url(#clip_48)">
<path transform="matrix(.24269758,0,0,.23730336,339.6003,148.56122)" stroke-width="2.10699" stroke-linecap="butt" stroke-miterlimit="10" stroke-linejoin="miter" fill="none" stroke="#000000" d="M0 0H116.94"/>
<text xml:space="preserve" transform="matrix(1.0112803 0 -0 .98884317 -20.160004 800.64)" font-size="10.618455" font-family="Bookman"><tspan y="-656.7671" x="326.08164 333.67384">RQ</tspan><tspan y="-663.56289" x="362.62837 370.22053">CO</tspan><tspan y="-648.515" x="366.42573">O</tspan></text>
<text xml:space="preserve" transform="matrix(1.0112803 0 -0 .98884317 -20.160004 800.64)" font-size="10.618455" font-family="Symbol"><tspan y="-656.7671" x="345.7794 387.0746">==</tspan></text>
<text xml:space="preserve" transform="matrix(1.0112803 0 -0 .98884317 -20.160004 800.64)" font-size="10.618455" font-family="Bookman"><tspan y="-663.56289" x="356.21784">6</tspan><tspan y="-648.515" x="360.01823">6</tspan><tspan y="-656.7671" x="395.3777 404.8706">10</tspan></text>
<text xml:space="preserve" transform="matrix(1.0112803 0 -0 .9888431 -20.160004 800.64)" font-size="6.1313998" font-family="Bookman"><tspan y="-660.8932" x="378.52876">2</tspan><tspan y="-645.84536" x="374.72434">2</tspan></text>
<text xml:space="preserve" transform="matrix(1.0112803 0 -0 .98884317 -20.160004 800.64)" font-size="10.618455" font-family="Bookman"><tspan y="-656.7671" x="401.54753">.</tspan></text>
</g>
<text fill="#231f20" xml:space="preserve" transform="matrix(1 0 -0 1 -20.16 800.64)" font-size="10.5" font-family="Bookman"><tspan y="-618.48" x="212.16 222.2236 229.0847 234.4443 241.3054 243.673 246.89061 252.89072 256.7488 262.1084 264.47599 270.47608 274.97468 280.33427 282.70185 289.77296 295.13255 300.49214 306.92274 309.2903 312.2979 319.15904 321.5266 326.0252 331.3848 336.7444 343.175 346.1826 350.68119 356.68128 360.53938 363.54698 369.33708 376.19819 379.41578 381.78337 385.64146 392.50257 397.86216 400.22975 407.73133 416.30393 418.6715 421.6791 427.0387 429.40629 432.41389 437.77348 443.13307 448.49266 450.86024 454.71833 461.57945 467.57954 474.44065 476.80824 483.23884 486.45643 488.824 496.5356 502.5357 505.5433 510.9029 517.974 520.9816 526.98178 530.83987 533.8475 539.6376 546.49868">When fats are used in respiration, the RQ is less than 1. Calculations</tspan><tspan y="-604.56" x="194.16 197.48111 203.37471 207.9768 210.4479 216.55152 219.02262 222.34372 228.44733 232.40892 236.37052 242.04361 244.51471 250.61832 256.08143 259.19255 265.72663 269.04774 271.51884 275.48045 280.08256 283.19367 289.72776 295.83137 298.94248 308.89958 312.01069 315.9723 319.0834 326.048 329.3691 331.8402 334.95133 338.27244 340.74354 347.91813 353.38124 358.84434 365.37843 367.84953 373.95314 379.41624 381.88734 387.99095 390.46205 395.92515 403.09974 409.63383 415.09693 419.05854 423.66065 429.76426 433.72587 439.18898 441.66007 444.77119 450.23429 452.70539 458.1685 465.1331 471.02668 479.27229 486.23689">for a fatty acid, tripalmitin, if used as a substrate is shown:</tspan></text>
<g clip-path="url(#clip_49)">
<text xml:space="preserve" transform="matrix(1.0218055 0 -0 .9786564 -20.16 800.64)" font-size="10.602272" font-family="Bookman"><tspan y="-588.56149" x="238.63616">2</tspan></text>
<text xml:space="preserve" transform="matrix(1.0218103 0 -0 .97865179 -20.16 800.64)" font-size="10.602324" font-family="Bookman"><tspan y="-588.56436" x="302.75685 308.86378 315.20399 365.93614 372.2763 378.61653 414.78105 421.12126">14510298</tspan></text>
<text xml:space="preserve" transform="matrix(1.0218104 0 -0 .9786518 -20.16 800.64)" font-size="6.1216666" font-family="Bookman"><tspan y="-585.86666" x="255.07599 258.6021 270.81486 274.34098 286.78633 329.76737 400.6944 435.93263">51986222</tspan></text>
<text xml:space="preserve" transform="matrix(1.0218103 0 -0 .97865179 -20.16 800.64)" font-size="10.602324" font-family="Bookman"><tspan y="-588.56436" x="244.2714 291.95005 247.5581 262.11509 278.5593 321.5411 384.7287 392.24574 427.47727 439.9244 458.01197 463.17527 469.98197 475.38917 479.85273 485.25993">()CHOOCOHOenergy</tspan></text>
<text xml:space="preserve" transform="matrix(1.0218103 0 -0 .97865179 -20.16 800.64)" font-size="10.602324" font-family="Symbol"><tspan y="-588.56436" x="296.41447 337.04258 355.36338 347.6131 407.27238 449.7877">+&#xf8e7;&#x2192;&#xf8e7;++</tspan></text>
</g>
<text fill="#231f20" xml:space="preserve" transform="matrix(1 0 -0 1 -20.16 800.64)" font-size="10.5" font-family="Bookman"><tspan y="-559.44" x="248.16 251.7139 255.26779 258.8217 262.37559 265.92948 269.48338 273.03727 276.59117 282.24 286.9219 290.11283 296.72676 302.91017 306.10108 316.13798 319.3289 323.3703 326.56123">        Tripalmitin</tspan></text>
<g clip-path="url(#clip_50)">
<path transform="matrix(.24349919,0,0,.23649982,333.59806,262.56037)" stroke-width="2.11399" stroke-linecap="butt" stroke-miterlimit="10" stroke-linejoin="miter" fill="none" stroke="#000000" d="M0 0H163.59"/>
<text xml:space="preserve" transform="matrix(1.0146898 0 -0 .9855199 -20.160035 800.6401)" font-size="10.654266" font-family="Bookman"><tspan y="-543.30728" x="318.8359 326.40046">RQ</tspan></text>
<text xml:space="preserve" transform="matrix(1.0146897 0 -0 .9855199 -20.160035 800.6401)" font-size="10.654267" font-family="Bookman"><tspan y="-550.126" x="366.61375 374.17829">CO</tspan><tspan y="-535.0274" x="370.39857">O</tspan></text>
<text xml:space="preserve" transform="matrix(1.0146897 0 -0 .9855199 -20.160035 800.6401)" font-size="10.654267" font-family="Symbol"><tspan y="-543.3073" x="338.4682 390.97245">==</tspan></text>
<text xml:space="preserve" transform="matrix(1.0146897 0 -0 .9855199 -20.160035 800.6401)" font-size="10.654267" font-family="Bookman"><tspan y="-550.126" x="347.9292 354.07673 360.45863">102</tspan><tspan y="-535.0274" x="351.47758 357.8595 364.2414">145</tspan><tspan y="-543.3073" x="400.67494 410.3703">07</tspan></text>
<text xml:space="preserve" transform="matrix(1.0146897 0 -0 .98551997 -20.160035 800.6401)" font-size="6.152078" font-family="Bookman"><tspan y="-547.4472" x="382.45716">2</tspan><tspan y="-532.3486" x="378.90574">2</tspan></text>
<text xml:space="preserve" transform="matrix(1.0146897 0 -0 .9855199 -20.160035 800.6401)" font-size="10.654267" font-family="Bookman"><tspan y="-543.3073" x="407.0604">.</tspan></text>
</g>
<text fill="#231f20" xml:space="preserve" transform="matrix(1 0 -0 1 -20.16 800.64)" font-size="10.5" font-family="Bookman"><tspan y="-501.36" x="212.16 222.4115 229.4605 235.00798 242.05698 244.78467 251.40316 256.08964 262.06764 266.11363 271.6611 274.8566 281.90559 287.45307 290.18077 296.36875 301.05525 306.60273 309.3304 314.0169 319.5644 325.11189 331.73039 334.92588 339.61238 345.80036 349.84635 355.82435 360.51084 366.2683 368.996 374.5435 381.8025 388.421 393.96849 398.01448 402.70097 408.88896 412.93495 418.48243 424.0299 426.7576 430.8036 437.85258 443.40007 446.12776 450.81425 457.00224 461.04823 464.2437 470.2217 472.9494 481.2794 487.2574 494.5164 497.71189 504.33039 507.05809 513.6766 519.22409 521.9518 528.1398 534.75827 540.7362 547.9952">When proteins are respiratory substrates the ratio would be about</tspan><tspan y="-487.44" x="194.16 200.57811 203.78322 210.20133">0.9.</tspan><tspan y="-473.52" x="212.16 222.19342 229.02433 234.99423 238.82215 241.15955 244.13697 249.46637 251.80377 254.78119 264.6046 271.00505 276.76496 281.23338 285.06129 291.0312 297.8621 301.69 304.0274 307.85533 313.61524 315.95265 320.42106 325.75047 331.07987 336.83979 342.37919 349.21009 352.1875 357.5169 362.8463 365.18373 368.16114 373.49055 375.82795 379.65586 386.48677 392.45668 396.28459 398.62199 401.5994 408.4303 410.7677 413.74513 416.72254 422.05195 425.02937 431.86027 437.39967 439.73707 445.49699 449.9654 455.5048 461.4747 468.3056 471.28303 476.61244 486.43586 491.76527 494.95268 497.29008 501.75849 507.0879 512.4173 518.8177 521.7951 526.2635 532.2334 536.0613 541.82119 546.28958">What is important to recognise is that in living organisms, respiratory</tspan><tspan y="-459.36" x="194.16 199.70819 206.96788 213.58707 219.13526 223.18195 227.86914 234.05783 238.10453 243.65271 249.2009 253.41619 259.6049 264.29209 269.84028 274.05555 280.03425 283.44044 287.48713 293.0353 300.085 304.30027 314.34248 320.32118 325.00837 330.55656 334.77183 338.8185 345.8682 352.0569 359.10658 363.32185 369.30055 376.35023 381.8984 385.3046 389.51988 396.13908 403.39878 408.08598 413.63417 417.84944 424.46864 429.15583 435.13453 439.1812 444.7294 447.9256 454.97529 460.52348 464.73875 470.71745 475.40464 479.6199 483.0261 489.21479 493.26148 498.80967 503.02494 509.21363 513.9008 519.44906 523.6643 530.714 536.2622 541.8104 547.35867">substrates are often more than one; pure proteins or fats are never</tspan><tspan y="-445.44" x="194.16 201.4227 206.97389 212.52509 219.1473 221.70648 227.89818 233.44937 236.00856 240.69876 246.24996 251.80115 258.42335 261.62254 266.3127 272.50444 276.55415 282.53584 287.226 292.9872 295.54643 301.09764 308.36033 314.9825 320.53373 324.58345 329.27363 335.46534 339.51506 345.06626 350.61747">used as respiratory substrates.</tspan></text>
<text fill="#00aeef" xml:space="preserve" transform="matrix(1 0 -0 1 -20.16 800.64)" font-size="13" font-family="Bookman,Bold" font-weight="bold"><tspan y="-392.4" x="296.4">S</tspan></text>
<text fill="#00aeef" xml:space="preserve" transform="matrix(1 0 -0 1 -20.16 800.64)" font-size="9.1" font-family="Bookman,Bold" font-weight="bold"><tspan y="-392.4" x="305.52 313.0405 321.835 330.6295 337.24 344.21449">UMMARY</tspan></text>
<text fill="#231f20" xml:space="preserve" transform="matrix(1 0 -0 1 -20.16 800.64)" font-size="10.5" font-family="Bookman"><tspan y="-353.76" x="113.04 119.4558 122.4486 128.4339 135.2802 139.1235 144.4683 146.8211 153.87741 160.72371 163.7165 166.7093 173.1251 178.46991 180.82271 186.80802 193.65431 196.64711 206.48592 212.47122 215.46402 220.80883 223.16162 230.00792 235.99323 241.33803 246.68283 249.03563 255.88193 261.65724 264.01 269.3548 275.7706 281.1154 286.46018 289.45298 295.43827 298.43107 300.78385 306.12864 311.68345 317.02824 320.87153 326.2163 336.0551 341.3999 343.7527 346.95549 352.73078 357.21458 359.56736 365.98316 370.46696 375.81175 381.79704 385.64033 392.48664 395.47944 402.32575 407.88056 410.23335 416.00865 420.49244 422.8452 428.40003 434.3853 439.7301 445.0749 450.8502 457.9065 463.25129 465.60408 470.94886 476.72416 482.06895 488.91526 494.90055 501.74687 507.30168 512.6465">Plants unlike animals have no special systems for breathing or gaseous exchange.</tspan><tspan y="-339.84" x="113.04 119.9681 123.8932 129.7503 139.6709 145.738 149.6631 155.7302 158.1648 164.2319 171.16 177.65761 180.09221 183.16681 188.59342 195.52152 199.44661 202.52121 207.94782 213.37442 216.44902 221.87563 224.31023 230.37732 233.45192 236.52652 242.38362 250.59273 253.02733 258.66395 264.73106 270.15766 275.58427 281.44136 288.57945 294.00605 296.44065 301.86726 307.72434 313.15095 320.07905 326.14616 333.07426 338.71086 344.13746 346.57206 353.06965 358.70625 361.14085 367.63844 370.713 373.99763 377.28224 384.42033 389.84693 392.9215 398.7786 405.7067 408.9913 411.4259 418.564 421.6386 431.5592 437.4163 442.8429 446.768 449.2026 455.2697 458.3443 461.41889 463.8535 466.9281 470.0027 475.4293 478.5039 485.432 491.0686 493.5032 498.9298 504.3564 507.43104 510.5056">Stomata and lenticels allow gaseous exchange by diffusion. Almost all living cells</tspan><tspan y="-325.92" x="113.04 116.16511 123.143718 125.62883 131.74645 134.23155 140.77967 143.90477 150.02239 157.00099 160.97661 163.46172 170.44033 176.55794 182.03505 187.51216 189.99727 193.97289 200.95149 206.4286 209.55371 214.16982 216.65493 222.13204 229.32065 233.93675 237.27187 243.38948 248.8666 254.3437 259.8208 262.3059 267.78303 273.69065 280.23878 286.1464 291.6235 297.10063 303.64875 306.13386 310.10948 316.0171 318.5022 324.6198 327.74494 330.96">in a plant have their surfaces exposed to air.</tspan><tspan y="-311.76" x="131.04 137.5953 144.58112 150.06543 152.55774 159.11305 163.73636 169.22068 175.34549 181.9008 185.03311 192.01892 197.71323 200.20554 206.12035 209.46266 211.95497 214.56 218.7625 226.59799 229.0895 235.644 241.558 248.543 255.0975 260.581 263.07249 268.98649 272.32798 274.81947 280.30296 286.21696 296.19447 302.74897 305.88047 311.36396 317.27796 319.76945 325.68345 330.30595 335.99946 342.12345 349.10844 352.23994 357.72343 360.2149 370.1924 376.1064 379.2379 384.7214 390.2049 397.3999 400.5314 406.0149 411.49839 413.98988 420.54438 426.23789 428.72938 434.64338 440.55738 443.68888 450.24339 456.36738 460.34938 463.48088 469.39488 476.37986 478.87135 482.00285 487.48634 493.61033 500.16484 503.29634 510.2813">The breaking of C-C bonds of complex organic molecules by oxidation leading</tspan><tspan y="-297.84" x="113.04 117.08599 123.06398 127.569469 131.61545 138.66445 144.21193 148.71743 153.40392 158.9514 162.1469 167.69438 173.88237 179.42986 184.97734 189.48284 195.46083 198.86632 203.37181 209.5598 214.06529 217.26079 223.23879 227.28478 231.79027 237.76827 241.17375 245.67925 251.22673 258.27574 263.8232 268.5097 274.26719 280.02467 284.53016 287.72566 293.27314 297.77864 303.3261 309.5141 312.7096 315.9051 321.45259 328.07109 332.57658 338.12406 343.67155 346.86705 350.06254 357.32154 360.51704 366.70503 371.3915 375.897 380.5835 386.13099 391.67848 398.29698 401.49247 406.17897 412.36695 416.41294 419.60844 425.58644 432.6354 436.0409 440.5464 448.56 451.75379 459.01109 464.5569 470.53318 476.07899 481.6248 486.1286 489.3224 494.8682 499.372 503.41633 510.46363">to the release of a lot of energy is called cellular respiration. Glucose is the</tspan><tspan y="-283.92" x="113.04 116.34331 122.429119 127.87443 133.75025 140.90706 145.49137 150.93668 157.45299 159.9063 165.35161 172.50843 179.02474 184.47005 188.41387 192.99817 199.08399 203.0278 208.47312 210.92642 214.22974 220.10555 224.68985 227.14316 231.72747 237.17278 242.61809 249.1344 252.2277 256.812 262.89784 266.84165 269.93498 275.8108 282.7576 286.0609 288.51423 295.24055 301.32637 305.27018 310.71549 313.1688 319.2546 326.20143 332.7177 335.17103 341.68733 346.27165 352.14747 356.09129 361.5366 364.6299 371.57673 377.02204 379.47535 384.92066 391.00648 397.95329 400.4066 406.4924 409.58573 415.03105 420.90687 423.36018 429.87648 435.32179 437.7751 444.29139 448.8757 454.75154 461.26783 466.71315 473.65995 476.11326 482.62956 488.50538 496.7332 503.68 506.1333 510.07713">favoured substrate for respiration. Fats and proteins can also be broken down to</tspan><tspan y="-269.76" x="113.04 118.6871 121.7722 127.209308 130.2944 136.8025 139.2476 144.68471 151.6233 157.06041 161.6365 167.2836 172.9307 176.2258 178.6709 185.179 192.1176 197.5547 199.9998 203.0849 210.0235 213.1086 217.04419 220.12929 226.2069 229.29199 231.73709 237.1742 241.10979 247.1874 252.83449 258.27159 260.71669 266.5843 269.8794 272.3245 277.7616 283.1987 286.2838 289.36894 296.51753 299.60264 305.68025 310.25636 312.70146 317.27757 322.71467 328.15177 334.65986 337.74497 342.32109 348.39869 352.3343 355.4194 361.28703 368.22563 370.67073 374.60633 380.68394 387.19203 392.62913 398.06623 400.51133 407.0194 410.10453 416.18214 421.61924 427.05635 429.50144 432.58656 439.52516 441.97026 445.90586 452.84446 458.28157 460.72666 466.16377 471.81086 475.74647 481.61408 488.12217 491.20729 497.28489 502.722 512.6531">yield energy. The initial stage of cellular respiration takes place in the cytoplasm.</tspan><tspan y="-255.84" x="113.04 120.6657 126.7899 132.2736 139.2588 141.7505 147.4442 150.5759 157.7711 163.2548 169.169 174.65271 180.13642 182.62812 192.60582 198.52002 201.65172 207.13542 212.61913 219.81433 222.94603 228.42974 230.92144 234.05313 239.53684 242.02854 248.58324 253.20594 259.12016 265.67485 271.15855 278.14375 280.63545 284.61766 291.60285 296.22557 302.13978 309.33497 315.02867 322.01387 324.50556 330.62977 333.12147 338.60517 344.08888 348.71159 351.8433 357.327 362.8107 365.3024 371.2166 374.55833 377.05003 382.53373 389.51893 394.5721 400.2658 410.2435 415.7272 418.2189 423.7026 429.8268 433.80903 439.93324 443.06495 448.75865 454.24235 459.72605 466.28074 468.77244 473.39515 478.87886 485.00306 490.48677 494.46897 497.60069 503.5149 510.5001">Each glucose molecule is broken through a series of enzyme catalysed reactions</tspan><tspan y="-241.92" x="113.04 116.06581 122.94512 126.821437 132.62975 135.01555 138.89186 147.05217 152.86048 155.24628 165.11809 170.92639 173.95221 179.33002 184.70783 191.79714 194.82294 200.20075 205.57855 207.96436 213.77266 217.00847 219.39427 225.84308 231.4309 235.94771 243.03702 248.41483 251.44065 256.81846 259.20426 265.22257 270.60038 273.6262 280.075 283.31083 285.69664 292.14546 299.02476 302.05058 307.42839 309.81419 316.263 320.77983 326.58815 331.96595 337.34376 342.72157 348.09938 350.48518 353.511 358.8888 361.2746 366.6524 372.67073 375.69654 378.72236 384.10017 390.54899 392.93479 398.52259 401.5484 407.1362 412.514 418.32234 421.34815 426.93595 432.31376 435.33958 440.71739 443.9532 446.339 452.7878 459.6671 465.04493 467.43074 470.66654 476.68486 480.56117 485.93898 488.32478 494.1331 497.3689 499.7547 503.631 510.5103">into two molecules of pyruvic acid. This process is called glycolysis. The fate of the</tspan><tspan y="-227.76" x="113.04 119.43691 124.972827 129.43773 136.47515 141.80106 147.76747 151.59189 156.9178 159.25171 165.64862 170.97454 177.37145 182.69736 189.52477 195.92168 201.24759 203.5815 209.3379 216.16532 218.49922 222.32364 229.15105 234.47696 236.81087 242.77729 248.1032 254.06961 257.04353 260.01744 265.98384 272.38075 275.35466 278.32856 281.30247 285.12687 290.66279 292.99668 298.75309 301.93699 304.27088 310.02729 315.7837 321.3196 326.85554 332.18144 339.00886 341.34275 347.30915 354.13658 360.53349 362.86738 366.69178 373.5192 378.8451 381.179 386.9354 391.4003 396.93623 402.90263 409.73005 412.70396 418.02986 427.84977 431.03367 433.36756 441.47596 448.30339 454.7003 460.02619 464.4911 466.82499 472.79139 479.6188 485.5852 490.9111 495.376 501.13243 507.52934 510.50325">pyruvate depends on the availability of oxygen and the organism. Under anaerobic</tspan><tspan y="-213.84" x="113.04 118.71479 124.82008 131.99637 138.74216 142.06494 146.23824 149.56102 155.6663 162.84259 168.51738 173.75017 179.42496 182.74774 186.92104 194.09732 199.77211 204.5859 209.8187 213.14148 219.45677 225.13156 229.30486 232.62764 238.30243 243.53522 249.85051 255.5253 258.84809 265.59388 270.82664 274.3594 280.0342 284.848 295.01679 300.6916 307.8679 312.04118 318.35646 322.52973 325.8525 331.9578 339.1341 344.36686 350.47215 355.28593 360.51869 366.83396 370.15675 375.83155 381.93684 389.11314 395.2184 398.5412 403.77397 407.30674 412.98155 417.79533 427.9641 433.63893 440.81523 444.9885 451.30378 455.47706 458.79985 464.90513 472.08143 477.31419 483.41947 489.09428 494.76908 502.15538 506.96916 512.6439">conditions either lactic acid fermentation or alcohol fermentation occurs.</tspan><tspan y="-199.92" x="113.04 119.8673 125.413608 130.0989 140.1392 145.6855 152.7333 156.7781 162.9649 167.0097 170.20401 176.18082 183.22863 187.87042 191.91522 198.10202 204.71932 210.26561 215.8119 220.4537 227.071 230.2653 236.4521 241.9984 247.5447 252.1865 259.4443 266.4921 273.1094 278.6557 283.341 287.9828 294.1696 301.21739 307.40419 312.95048 317.63578 323.61259 330.2299 333.4242 338.9705 343.61228 349.15858 355.13539 362.18318 368.80049 371.99479 376.03959 379.2339 385.2107 392.25849 397.80479 402.44657 405.64088 412.68867 417.33045 427.37077 433.55757 440.60536 446.36164 451.00343 457.62074 462.30604 468.28285 474.90016 481.08695 485.77226 491.52854 497.50535 501.55015 507.09645 512.64279">Fermentation takes place under anaerobic conditions in many prokaryotes,</tspan><tspan y="-185.76" x="113.04 120.102108 126.9542 129.9528 135.3034 140.654 143.6526 146.6512 153.7133 156.7119 162.703 167.1926 169.5512 174.9018 181.9639 188.3855 194.3766 198.8662 204.42679 210.20789 214.05699 219.4076 224.7582 227.11679 233.1079 239.95999 246.38159 248.74019 251.73879 258.59089 260.94947 266.51008 271.86067 276.35026 286.19486 289.19346 296.04557 302.03666 305.88575 308.88435 315.73646 321.29707 323.65565 329.00624 334.3568 339.7074 346.129 351.47959 354.68818 357.04676 360.46537 367.31748 369.67607 375.02665 382.08876 388.51036 394.50144 398.99104 404.55165 410.33274 414.18183 417.18043 422.531 424.8896 430.6707 435.16029 440.7209 446.71199 453.5641 456.56269 461.91328 471.75788 477.10847 479.46705 485.45814 490.80873 495.2983 501.0794 507.501 510.4996">unicellular eukaryotes and in germinating seeds. In eukaryotic organisms aerobic</tspan><tspan y="-171.84" x="113.04 117.6024 123.0258 128.4492 134.9436 138.015 142.5774 148.6413 152.5632 155.6346 161.4885 168.41339 170.84479 176.69869 182.12209 187.54549 194.68039 199.24279 204.66619 207.09758 209.52898 212.60037 219.52527 221.95667 225.87857 232.80347 238.22687 240.65827 247.15267 251.71506 257.13847 262.56187 267.98527 274.91017 280.33357 285.75697 288.18836 294.04228 297.32368 299.75508 305.60899 311.4629 317.09629 322.72969 328.15309 335.07798 338.35939 340.79078 347.2852 352.91859 357.481 364.61589 370.03929 373.1107 378.5341 380.96549 387.0294 392.4528 395.5242 402.01863 404.45 407.52143 412.94483 415.37623 419.29814 423.86054 429.92445 436.84934 442.27275 448.76716 454.62107 459.18348 463.10539 468.52879 475.0232 477.4546 480.526 487.4509 491.3728 497.2267 499.6581 503.58003 510.5049">respiration occurs  in the presence of oxygen. Pyruvic acid is transported into the</tspan><tspan y="-157.92" x="113.04 122.96961 126.05322 129.98734 135.85344 141.28905 148.22615 154.09226 161.02936 167.53597 172.11058 175.19419 181.2703 183.7139 191.932 198.86911 204.30472 208.87934 214.31494 216.75855 219.84215 223.77626 226.21987 229.30347 234.73908 237.18268 242.61829 248.48439 255.4215 260.85713 266.29273 270.86735 274.80146 280.23707 286.74369 289.1873 292.2709 299.208 303.14213 309.00825 311.45185 317.52796 322.96357 328.39918 332.33329 337.97889 341.0625 343.5061 351.2937 357.15983 364.30696 366.75056 374.96867 378.05229 381.9864 388.9235 391.3671 395.3012 402.2383 407.67393 410.11753 414.69215 420.12776 423.21138 428.64698 434.72309 440.1587 445.5943 448.0379 453.90403 457.19764 459.64125 467.42884">mitochondria where it is converted into acetyl CoA with the release of CO</tspan></text>
<text fill="#231f20" xml:space="preserve" transform="matrix(1 0 -0 1 -20.16 800.64)" font-size="6.1" font-family="Bookman"><tspan y="-154.32" x="475.68">2</tspan></text>
<text fill="#231f20" xml:space="preserve" transform="matrix(1 0 -0 1 -20.16 800.64)" font-size="10.5" font-family="Bookman"><tspan y="-157.92" x="479.52 482.8076 485.24519 492.3863 497.8159 503.24549 507.17359 512.8132">. Acetyl</tspan><tspan y="-143.76" x="113.04 120.939098 126.91669 134.17528 137.02207 141.06766 148.11624 153.66333 160.71192 163.5587 169.10579 176.15438 180.19997 185.74706 190.43315 195.98024 198.82703 202.87262 209.9212 215.46829 218.31508 222.36067 227.04677 230.24185 235.78894 241.97653 246.66263 253.28072 259.2583 265.2359 270.99299 274.18809 277.38319 282.93028 285.77708 291.96467 297.51176 300.70686 307.32496 310.17176 316.78987 322.97746 327.02305 334.07164 342.4012 348.5888 354.3459 357.1927 363.1703 367.85639 370.7032 378.39228 383.07838 388.62547 395.24357 400.79066 403.12474 405.97154 411.51863 417.2757 422.82279 426.01789 431.56498 434.41178 440.38938 447.00749 452.55458 457.24067 463.42826 467.47386 470.66896 477.71754 483.4746 486.3214 489.5165 496.5651 499.4119 503.4575 510.50608">CoA then enters the tricarboxylic acid pathway or Krebs&#x2019; cycle operating in the</tspan><tspan y="-129.84" x="113.04 123.079998 129.26648 133.31098 137.99597 141.18996 147.16645 150.04544 156.02193 159.42592 162.30492 166.34941 173.3969 178.94289 181.82189 191.86188 195.05587 199.10036 205.07685 210.62284 217.67032 223.6468 230.69429 237.31128 241.99628 245.19026 251.37676 254.78075 257.65974 265.5577 272.8152 281.35368 289.89216 292.77116 299.16764 302.04664">matrix of the mitochondria. NADH + H</tspan></text>
<text fill="#231f20" xml:space="preserve" transform="matrix(1 0 -0 1 -20.16 800.64)" font-size="6.1" font-family="Bookman"><tspan y="-133.44" x="310.56">+</tspan></text>
<text fill="#231f20" xml:space="preserve" transform="matrix(1 0 -0 1 -20.16 800.64)" font-size="10.5" font-family="Bookman"><tspan y="-129.84" x="314.16 317.05363 323.25474 330.31684 336.94844 339.84205 346.68367 353.95576 362.50886"> and FADH</tspan></text>
<text fill="#231f20" xml:space="preserve" transform="matrix(1 0 -0 1 -20.16 800.64)" font-size="6.1" font-family="Bookman"><tspan y="-126.24" x="371.04">2</tspan></text>
<text fill="#231f20" xml:space="preserve" transform="matrix(1 0 -0 1 -20.16 800.64)" font-size="10.5" font-family="Bookman"><tspan y="-129.84" x="374.88 377.74894 383.9403 388.6302 394.1811 397.05003 402.8109 408.36183 415.4142 420.96513 425.655 431.84638 435.89576 441.44667 448.06855 450.93748 454.13636 461.18876 464.05769 468.10707 475.15946 480.71037 483.57929 491.2722 495.96208 501.51298 508.13487 513.6857"> are generated in the Krebs&#x2019;</tspan><tspan y="-115.92" x="113.04 118.433 124.035999 129.429 132.47 137.863 141.11402 143.51502 149.97902 156.87352 162.26653 164.66753 170.06053 176.95503 182.34804 186.88004 192.48303 198.08603 200.48703 203.52803 210.42253 212.82353 216.71503 223.60953 229.00254 234.39554 239.78855 242.18955 252.07654 257.90003 260.941 266.334 271.72703 278.8315 281.8725 287.2655 292.6585 295.0595 301.09303 306.48603 308.88703 317.06254 322.45555 325.49653 328.5375 330.9385 336.97203 342.36503 344.76603 348.65754 355.55204 361.58555 365.47706 367.87806 370.91905 377.81355 380.21455 384.10606 391.00056 396.39356 398.79457 406.53956 414.24 422.16">cycle. The energy in these molecules as well as that in the NADH</tspan></text>
<text fill="#231f20" xml:space="preserve" transform="matrix(1 0 -0 1 -20.16 800.64)" font-size="6.1" font-family="Bookman"><tspan y="-119.28" x="430.56"> </tspan></text>
<text fill="#231f20" xml:space="preserve" transform="matrix(1 0 -0 1 -20.16 800.64)" font-size="10.5" font-family="Bookman"><tspan y="-115.92" x="431.76 439.44 441.9448">+ H</tspan></text>
<text fill="#231f20" xml:space="preserve" transform="matrix(1 0 -0 1 -20.16 800.64)" font-size="6.1" font-family="Bookman"><tspan y="-119.28" x="450.24">+</tspan></text>
<text fill="#231f20" xml:space="preserve" transform="matrix(1 0 -0 1 -20.16 800.64)" font-size="10.5" font-family="Bookman"><tspan y="-115.92" x="453.84 456.2284 461.6088 467.1992 474.0811 477.96 484.8419 490.2223 495.6027 498.6311 504.0115 509.3919"> synthesised</tspan><tspan y="-101.76" x="113.04 119.6593 126.919109 131.6064 134.8027 141.85251 147.61081 151.44441 157.20272 160.39902 166.15732 171.70561 177.68442 180.88072 186.63903 192.18732 195.38362 200.93192 204.76552 210.95432 215.64162 221.18991 225.02352 232.28331 237.8316 243.3799 249.9992 253.83281 257.8796 263.8584 267.69203 273.24034 278.99864 286.04844 290.09526 297.14506 302.69337 308.24168 311.43797 316.98628 322.53459 326.3682 333.12 339.7069 343.2 346.60594 350.43916 357.05805 364.10746 367.30335 372.85127 376.68449 379.88038 385.42829 389.2615 395.44993 400.99784 406.54576 412.52415 422.56605 429.18495 432.38084 435.57673 441.12464 448.17405 453.72196 460.34086 464.17408 468.22047 475.26988 479.95677 485.93516 493.19456 498.95246 506.00187 509.83509">during glycolysis are used to synthesise ATP. This is accomplished through a</tspan></text>
<g clip-path="url(#clip_51)">
<text xml:space="preserve" transform="matrix(1 0 -0 1 257.15403 766.8803)" font-size="8" font-family="Arial"><tspan y="6.316" x="0"> </tspan></text>
</g>
</g>
</svg>
