<svg xmlns="http://www.w3.org/2000/svg" xmlns:xlink="http://www.w3.org/1999/xlink" xmlns:inkscape="http://www.inkscape.org/namespaces/inkscape" version="1.1" width="576" height="784.8" viewBox="0 0 576 784.8">
<defs>
<clipPath id="clip_2361">
<path transform="matrix(1,0,0,-1,-18,802.8)" d="M18 18H594V802.8H18Z" clip-rule="evenodd"/>
</clipPath>
<clipPath id="clip_2362">
<path transform="matrix(1,0,0,-1,259.314,763.9998)" d="M0-8H57.372V.800049H0Z"/>
</clipPath>
</defs>
<g clip-path="url(#clip_2361)">
<path transform="matrix(.23999998,0,0,-.23999998,-18,802.8)" d="M2 2H2548V214.67H2Z" fill="#cbdf7f" fill-rule="evenodd"/>
<path transform="matrix(.23999998,0,0,-.23999998,-18,802.8)" stroke-width="4" stroke-linecap="butt" stroke-miterlimit="1000" stroke-linejoin="miter" fill="none" stroke="#cbdf7f" d="M2 2H2548V214.67H2Z"/>
<path transform="matrix(.23999998,0,0,-.23999998,-18,802.8)" d="M0 3035.83H2550V3372.7003H0Z" fill="#d1d3d4" fill-rule="evenodd"/>
<path transform="matrix(.23999998,0,0,-.23999998,-18,802.8)" d="M0 3078.33H2550V3420H0Z" fill="#e1ecb6" fill-rule="evenodd"/>
<path transform="matrix(.23999998,0,0,-.23999998,62.63616,53.635194)" d="M0 0C7.32 7.32 16.16 10.98 26.52 10.98H97.35C107.71 10.98 116.55 7.32 123.87 0 131.19-7.33 134.85-16.17 134.85-26.52V-101.52C134.85-111.88 131.19-120.72 123.87-128.04 116.55-135.36 107.71-139.02 97.35-139.02H26.52C16.16-139.02 7.32-135.36 0-128.04-7.32-120.72-10.98-111.88-10.98-101.52V-26.52C-10.98-16.17-7.32-7.33 0 0" fill="#ffffff" fill-rule="evenodd"/>
<text fill="#231f20" xml:space="preserve" transform="matrix(1 0 -0 1 -18 802.8)" font-size="11" font-family="Bookman"><tspan y="-729.361" x="87.12 94.26001">78</tspan></text>
<text fill="#231f20" xml:space="preserve" transform="matrix(1 0 -0 1 -18 802.8)" font-size="11" font-family="Bookman"><tspan y="-729.361" x="513.12">B</tspan></text>
<text fill="#231f20" xml:space="preserve" transform="matrix(1 0 -0 1 -18 802.8)" font-size="7.69999" font-family="Bookman"><tspan y="-729.361" x="521.04 523.4336 529.3692 533.76486 539.70046 545.63607">IOLOGY</tspan></text>
<path transform="matrix(.23999998,0,0,-.23999998,-18,.35998536)" stroke-width="1" stroke-linecap="butt" stroke-miterlimit="10" stroke-linejoin="miter" fill="none" stroke="#000000" d="M0 0H60"/>
<path transform="matrix(.23999998,0,0,-.23999998,.12000084,-18)" stroke-width="1" stroke-linecap="butt" stroke-miterlimit="10" stroke-linejoin="miter" fill="none" stroke="#000000" d="M0 0V-60"/>
<path transform="matrix(.23999998,0,0,-.23999998,-18,784.68)" stroke-width="1" stroke-linecap="butt" stroke-miterlimit="10" stroke-linejoin="miter" fill="none" stroke="#000000" d="M0 0H60"/>
<path transform="matrix(.23999998,0,0,-.23999998,.12000084,788.16)" stroke-width="1" stroke-linecap="butt" stroke-miterlimit="10" stroke-linejoin="miter" fill="none" stroke="#000000" d="M0 0V-60"/>
<path transform="matrix(.23999998,0,0,-.23999998,593.64,784.56)" stroke-width="1" stroke-linecap="butt" stroke-miterlimit="10" stroke-linejoin="miter" fill="none" stroke="#000000" d="M0 0V-75"/>
<text fill="#00aeef" xml:space="preserve" transform="matrix(1 0 -0 1 -18 802.8)" font-size="13" font-family="Bookman"><tspan y="-688.561" x="293.52">E</tspan></text>
<text fill="#00aeef" xml:space="preserve" transform="matrix(1 0 -0 1 -18 802.8)" font-size="9.1" font-family="Bookman"><tspan y="-688.561" x="303.12 310.21769 316.76939 323.86708 330.60078 334.24049 340.2462 346.79789">XERCISES</tspan></text>
<text fill="#231f20" xml:space="preserve" transform="matrix(1 0 -0 1 -18 802.8)" font-size="10" font-family="Bookman"><tspan y="-650.4" x="119.04 124.72061 139.92 147.92169 152.32338 158.12508 165.92678 168.72226 171.72396 174.72565 177.72734 184.52904 189.73073 193.53243 197.93412 203.73581 207.5375 210.5392 216.14089 222.74257 227.94426 230.73975 234.54145 240.14313 242.93862 249.1403 253.54199 256.54368 263.14537 268.54707 271.34257 276.94425 283.74595 287.54765 290.34315 294.14485 300.74653 305.9482 308.7437 314.5454 321.1471 326.9488 330.7505 336.35218 345.75389 348.75556 353.95726 359.75895 362.76063 365.55613 371.7578 374.7595 377.96119 381.16288 386.36457 390.76628 395.96797 402.56965 407.77134 412.97303 415.76853 421.9702 427.1719 430.9736 438.7753 443.977 449.17869">1.Draw illustrations to bring out the anatomical difference between</tspan><tspan y="-633.361" x="139.92 142.9223 148.72461 151.72692 154.14923 163.35153 168.95383 175.55612 181.15842 186.36072 191.96302 195.76532 198.18764 202.58994 208.19223 213.79453 217.59683 220.01915 225.82146 232.42375 238.62606 241.04837 249.05068 252.05298 257.25529 262.85758 266.65989 269.08219 273.4845 279.0868 284.6891">(a) Monocot root and Dicot root</tspan><tspan y="-616.561" x="139.92 142.9184 149.11679 152.11519 154.57358 163.77198 169.37038 175.96878 181.56719 186.76558 192.36399 196.16239 198.62078 203.81917 207.61757 212.81597 222.21437 224.67276 230.47116 237.06957 243.26796 245.72635 253.72475 256.72315 261.92155 267.51994 271.31834 273.77674 278.97514 282.77354 287.97193">(b) Monocot stem and Dicot stem</tspan><tspan y="-599.521" x="119.04 124.72061 139.92 147.3188 154.1176 157.9164 160.42952 166.22832 168.74144 172.54024 176.93904 182.73784 189.33664 194.53545 199.73426 204.93306 209.33187 214.53067 219.72948 222.2426 227.4414 232.64022 237.83902 241.63782 244.63661 250.23542 256.8342 259.3473 264.94609 268.14488 270.65797 276.05677 281.65556 288.45436 295.05314 300.45195 302.96504 308.16383 311.96263 317.1614 326.5602 329.0733 334.6721 337.87089 340.38398 346.18278 348.69587 354.89466 357.89347 363.69227 370.29106 374.08985 376.60295 379.80174 384.20054 389.79933 399.19813 401.7112 407.11003 412.7088 419.5076 423.9064 426.4195 431.6183 436.81709 443.41587 449.01466 454.61344 457.61225 460.12535 465.52415 471.32295 475.72175 481.92054 487.11933 493.7181 496.2312 502.03 508.62879">2.Cut a transverse section of young stem of a plant from your school garden and</tspan><tspan y="-585.361" x="139.92 145.5187 151.71743 156.91614 162.11486 166.51357 171.71228 176.911 181.42632 184.42502 188.22373 192.73905 199.53775 206.13646 212.33518 217.53389 221.9326 226.44792 230.24663 236.84534 242.04405 246.55937 255.95809 258.9568 264.1555 268.5542 274.15293 279.35163 284.55033 290.14906 296.34776 301.54646 304.74516 309.26045 317.25917 322.85789 330.6566 335.17189 342.97059 348.5693 355.368 358.36674 364.56544 369.08073 374.47944 380.07817 386.87687 391.39216 397.19087 402.38957 407.58827 412.78697 417.18568 420.98439 426.78309 429.7818 436.38053 440.8958 448.69453 455.29325 460.49195 464.29066 470.88938 476.08808 480.4868 485.00209 488.0008 491.7995 496.3148 499.3135 504.5122 509.0275">observe it under the microscope. How would you ascertain whether it is a</tspan><tspan y="-571.441" x="139.92 149.3218 154.9236 161.5254 167.12722 172.32901 177.93082 181.73262 184.29161 189.49341 193.29521 198.49701 207.8988 210.4578 216.0596 220.4614 223.02039 228.82219 231.38118 237.58298 240.58478 245.78658 251.38838 255.19019 257.7492 262.95103 266.7528 271.95463 281.3564 286.7582 289.31724 297.31904 300.32084 305.52265 310.72447 313.28349 317.68528 322.8871 328.68888 333.8907 339.4925 346.0943 351.2961">monocot stem or a dicot stem? Give reasons.</tspan><tspan y="-554.4" x="119.04 124.72061 139.92 146.11872 152.71743 157.91614 162.69486 166.49356 170.89228 176.69098 183.28969 188.4884 193.68712 198.88584 203.28455 208.48326 213.68198 218.4607 223.65941 228.85813 234.05684 237.85555 240.85425 246.45296 253.05167 257.83036 263.42909 266.62779 271.40647 277.20518 281.98387 288.18257 291.18128 296.97999 303.5787 307.3774 312.1561 321.5548 327.35353 331.15223 336.35093 340.74964 343.74836 349.54707 352.54579 357.32447 362.52317 369.1219 374.7206 382.51933 387.71803 392.4967 396.2954 402.89414 408.09284 412.87153 416.07023 421.66896 424.66767 427.66639 433.2651 441.0638 444.06254 450.66127 456.05998 460.83866 466.63737 473.23609 479.0348 482.8335 488.43223 497.83094 500.82966 506.02836 511.82707">3.The transverse section of a plant material shows the following anatomical</tspan><tspan y="-540.481" x="139.92 143.09832 148.27663 154.05493 157.83324 164.61154 168.98986 174.16817 179.34648 181.7248 185.70311 188.08142 191.05974 196.83805 199.81636 202.19467 205.97298 212.55129 217.7296 220.10791 225.28623 231.06453 236.24285 241.42116 248.19947 251.17778 256.9561 261.33439 263.7127 269.89103 276.66935 283.24766 289.42597 292.40428 297.58259 302.7609 305.13923 310.91755 315.29585 320.47416 322.85249 328.0308 333.6091 340.1874 343.1657 348.74403 351.72233 358.30064 362.07896 365.25727 367.6356 372.8139 377.99223 383.77055 387.54887 391.32719 396.5055 400.8838 406.0621 412.24043 414.61875 420.39707 426.97538 433.1537 435.532 440.71034 447.48866 451.86695 456.24525 461.82356 468.60188 475.18019 481.3585 486.5368 492.71513 495.09346 501.27177 506.65007 509.02839">features - (a) the vascular bundles are conjoint, scattered and surrounded by a</tspan><tspan y="-526.561" x="139.92 145.11859 150.31719 153.31578 158.51438 162.91298 168.11157 174.71018 179.90877 186.50737 191.90598 201.30458 207.10318 210.90178 216.50038 223.29898 228.49758 232.49617 238.69477 245.49337 252.09197 258.29057 261.28916 266.48777 270.48637 275.68498 282.28358 287.48219 293.2808 297.0794 303.678 308.87663 312.07524 316.07383 319.07243 325.27104 328.26963 332.26823 338.46684 345.06544 348.06404 353.66264 358.86125 368.25984 372.25843 378.45704 384.25566 388.65425 393.85285 400.45146 405.65007 412.24867 417.64726 427.04585 432.84446 436.84306 439.84165 445.04026 449.03886 454.83747 461.03608 466.23469 471.4333 478.0319 481.8305 485.0291 489.0277 498.6263 505.2249 511.02354">sclerenchymatous bundle sheaths. (b) phloem parenchyma is absent. What</tspan><tspan y="-512.4" x="139.92 147.715 150.70999 153.70499 156.69998 159.39499 164.79 170.385 177.18 179.875 182.87 189.065 194.26001 200.85501 204.65001 207.645 210.84001 216.23502 218.93003 221.92502 225.72002 228.41503 234.21002 239.40503">will you identify it as?</tspan><tspan y="-495.361" x="119.04 124.72061 139.92 149.5187 156.11742 161.91613 165.71483 168.60445 171.60315 176.80187 179.69149 184.8902 188.6889 194.28762 203.68633 209.48503 213.28374 219.08245 222.08115 224.97077 230.76947 236.96819 243.1669 248.9656 253.36432 259.16304 262.96174 269.76045 274.95915 280.35786 283.24748 290.44618 296.0449 302.2436 305.2423 311.04103 314.03974 320.63847 323.52809 327.32679 333.9255 339.1242 342.01383 347.21253 351.01124 355.40995 362.20866 367.40736 371.20606 378.00477 382.40348 387.60218 390.4918 396.0905 399.2892 402.17884 407.37754 411.17625 416.77497 426.17369 431.97239 435.7711 441.5698 444.4594 452.25813 455.25685 459.05555 465.65428 468.54389 474.3426 477.2322 480.23094 486.02964 492.22834 497.42704 500.42576 503.42448 508.62318">4.What is stomatal apparatus? Explain the structure of stomata with a labelled</tspan><tspan y="-481.441" x="139.92 146.0518 148.9836 154.7154 160.0472 164.379 170.1108 179.4426">diagram.</tspan><tspan y="-464.4" x="119.04 124.72061 139.92 147.31871 153.11742 162.51613 167.71485 171.29686 175.09557 181.69428 186.89299 190.475 194.27371 200.87242 205.27114 210.46985 215.66857 219.25058 225.4493 231.248 236.44672 239.44542 244.64414 248.22615 252.02486 255.02356 260.22227 265.42097 272.21968 277.41838 281.00038 286.19908 291.59779 296.79649 300.59519 305.79389 315.1926 320.3913 323.9733 326.97203 333.57075 337.15275 340.95146 347.55018 352.74888 356.33088 359.52958 362.5283 368.127 375.92573 381.12443 385.52314 388.52186 395.12059 400.5193 404.1013 410.3 413.2987 419.0974 425.69615 429.49485 434.69355 437.89225 441.47425 449.47297 452.47169 457.67039 462.86909 466.45109 470.2498 476.8485 482.0472 485.6292 489.42793 492.42665 497.62535 502.82405 509.62275">5.Name the three basic tissue systems in the flowering plants. Give the tissue</tspan><tspan y="-450.481" x="139.92 146.523 152.32599 161.72899 166.93199 172.135 175.10469 181.90769 188.51068 194.71369 199.91669 204.31969 207.28939 212.49239 218.29538 223.49839 230.10138 233.07108 238.27408 243.67708 248.88008 252.68308 257.88609 267.2891">names under each system.</tspan><tspan y="-433.441" x="119.04 124.72061 139.92 147.9184 153.5168 161.3152 163.9858 166.98419 172.18259 174.85318 178.65158 185.24999 190.44838 193.11898 198.31737 202.11577 208.91417 215.11257 220.51097 223.18157 228.77997 231.97837 234.64896 240.84735 243.84575 249.64415 256.24256 260.04096 262.71156 268.50996 275.10835 280.90675 284.70515 290.30354 299.70195 305.10035 307.77095 314.56935 319.76774 324.96614 328.16453 334.96293 337.96134 340.63194 344.43034 350.02873 352.6993 359.4977 364.6961">6.How is the study of plant anatomy useful to us?</tspan><tspan y="-416.4" x="119.04 124.72061 139.92 147.9188 153.1176 158.3164 163.51522 167.91402 170.91281 177.11162 182.31043 185.52593 189.32472 195.92353 201.12233 204.33783 207.33663 213.93543 217.73423 222.93303 227.33184 233.93064 239.72943 242.72823 245.94373 251.14253 254.94133 259.34013 266.13893 271.3377 275.1365 281.9353 286.3341 291.5329 294.74839 300.34718 303.54597 306.76145 312.56025 315.77574 321.97453 327.5733 331.9721 337.1709 340.1697 345.3685 350.5673 357.16609 360.96488 365.36369 371.16249 374.1613 377.37678 380.37559 385.57438 391.37318 394.57197 397.78746 405.58625 408.58506 412.38386 418.98265 422.19813 425.99693 432.5957 437.7945 441.00999 447.60877 452.80757 455.80638 462.00517 465.22065 470.81944 474.01823 477.2337 480.2325 486.0313 492.2301 497.4289 500.4277 503.4265 508.6253">7.Describe the internal structure of a dorsiventral leaf with the help of labelled</tspan><tspan y="-402.481" x="139.92 146.0704 149.0208 154.7712 160.1216 164.472 170.2224 179.5728 184.7232">diagrams.</tspan></text>
<g clip-path="url(#clip_2362)">
<text xml:space="preserve" transform="matrix(1 0 -0 1 259.314 763.9998)" font-size="8" font-family="Arial"><tspan y="6.316" x="0"> </tspan></text>
</g>
</g>
</svg>
