<svg xmlns="http://www.w3.org/2000/svg" xmlns:xlink="http://www.w3.org/1999/xlink" xmlns:inkscape="http://www.inkscape.org/namespaces/inkscape" version="1.1" width="571.68008" height="780.48007" viewBox="0 0 571.68008 780.48007">
<defs>
<clipPath id="clip_52">
<path transform="matrix(1,0,0,-1,-20.16,800.64)" d="M20.16 20.16H591.84V800.64H20.16Z" clip-rule="evenodd"/>
</clipPath>
<clipPath id="clip_53">
<path transform="matrix(1,0,0,-1,257.15403,766.8803)" d="M0-8H57.372V.800049H0Z"/>
</clipPath>
</defs>
<g clip-path="url(#clip_52)">
<path transform="matrix(.23999998,0,0,-.23999998,-20.16,800.64)" d="M0 3035.83H2550V3372.7003H0Z" fill="#d1d3d4" fill-rule="evenodd"/>
<path transform="matrix(.23999998,0,0,-.23999998,-20.16,800.64)" d="M0 3078.33H2550V3420H0Z" fill="#e1ecb6" fill-rule="evenodd"/>
<text fill="#231f20" xml:space="preserve" transform="matrix(1 0 -0 1 -20.16 800.64)" font-size="11" font-family="Bookman"><tspan y="-730.081" x="84">R</tspan></text>
<text fill="#231f20" xml:space="preserve" transform="matrix(1 0 -0 1 -20.16 800.64)" font-size="7.69999" font-family="Bookman"><tspan y="-730.081" x="91.92 97.40589 102.42979 107.14568 109.70558 115.191478 120.36937 125.085269 127.645168 133.74706">ESPIRATION</tspan></text>
<text fill="#231f20" xml:space="preserve" transform="matrix(1 0 -0 1 -20.16 800.64)" font-size="11" font-family="Bookman"><tspan y="-730.081" x="139.2"> </tspan></text>
<text fill="#231f20" xml:space="preserve" transform="matrix(1 0 -0 1 -20.16 800.64)" font-size="7.69999" font-family="Bookman"><tspan y="-730.081" x="141.84 144.3033">IN</tspan></text>
<text fill="#231f20" xml:space="preserve" transform="matrix(1 0 -0 1 -20.16 800.64)" font-size="11" font-family="Bookman"><tspan y="-730.081" x="150 152.5412"> P</tspan></text>
<text fill="#231f20" xml:space="preserve" transform="matrix(1 0 -0 1 -20.16 800.64)" font-size="7.69999" font-family="Bookman"><tspan y="-730.081" x="159.36 163.92819 169.11238 174.75858 179.48078">LANTS</tspan></text>
<path transform="matrix(.23999998,0,0,-.23999998,480.4752,51.47522)" d="M0 0C7.32 7.32 16.16 10.98 26.52 10.98H97.35C107.71 10.98 116.55 7.32 123.87 0 131.19-7.33 134.85-16.17 134.85-26.52V-101.52C134.85-111.88 131.19-120.72 123.87-128.04 116.55-135.36 107.71-139.02 97.35-139.02H26.52C16.16-139.02 7.32-135.36 0-128.04-7.32-120.72-10.98-111.88-10.98-101.52V-26.52C-10.98-16.17-7.32-7.33 0 0" fill="#ffffff" fill-rule="evenodd"/>
<text fill="#231f20" xml:space="preserve" transform="matrix(1 0 -0 1 -20.16 800.64)" font-size="11" font-family="Bookman"><tspan y="-729.361" x="505.92 513.21 520.5">165</tspan></text>
<path transform="matrix(.23999998,0,0,-.23999998,-20.16,800.64)" d="M2 2H2548V214.67H2Z" fill="#cbdf7f" fill-rule="evenodd"/>
<path transform="matrix(.23999998,0,0,-.23999998,-20.16,800.64)" stroke-width="4" stroke-linecap="butt" stroke-miterlimit="1000" stroke-linejoin="miter" fill="none" stroke="#cbdf7f" d="M2 2H2548V214.67H2Z"/>
<path transform="matrix(.23999998,0,0,-.23999998,577.44,-2.039978)" stroke-width="1" stroke-linecap="butt" stroke-miterlimit="10" stroke-linejoin="miter" fill="none" stroke="#000000" d="M0 0H60"/>
<path transform="matrix(.23999998,0,0,-.23999998,573.96,-20.159974)" stroke-width="1" stroke-linecap="butt" stroke-miterlimit="10" stroke-linejoin="miter" fill="none" stroke="#000000" d="M0 0V-60"/>
<path transform="matrix(.23999998,0,0,-.23999998,577.44,782.28)" stroke-width="1" stroke-linecap="butt" stroke-miterlimit="10" stroke-linejoin="miter" fill="none" stroke="#000000" d="M0 0H60"/>
<path transform="matrix(.23999998,0,0,-.23999998,573.96,786)" stroke-width="1" stroke-linecap="butt" stroke-miterlimit="10" stroke-linejoin="miter" fill="none" stroke="#000000" d="M0 0V-59"/>
<path transform="matrix(.23999998,0,0,-.23999998,-20.039999,-20.399964)" stroke-width="1" stroke-linecap="butt" stroke-miterlimit="10" stroke-linejoin="miter" fill="none" stroke="#000000" d="M0 0V-75"/>
<text fill="#231f20" xml:space="preserve" transform="matrix(1 0 -0 1 -20.16 800.64)" font-size="10.5" font-family="Bookman"><tspan y="-688.561" x="95.04 100.4867 106.1434 111.5901 115.5668 121.013507 130.87021 133.3806 139.2473 142.594 145.10439 150.55109 153.68779 159.13449 164.58119 168.55789 173.1646 179.0313 185.948 188.45839 193.90509 199.9818 204.5885 209.1952 212.33191 217.77861 222.38532 227.83202 230.3424 235.78911 241.86582 245.00252 248.13922 253.58592 260.0826 262.59303 268.0397 271.1764 276.62309 282.06977 286.04649 290.65318 296.51988 303.43656 305.94697 309.92369 314.53038 320.60707 327.52375 332.97044 339.46714 345.33384 349.94053 353.91725 356.42765 361.87434 367.53105 372.97773 376.95445 382.40113 392.2578 394.76823 397.9049 405.4516 411.9483 418.865 422.00169 424.5121 427.64878 433.51548 438.96217 445.03886 449.01557 454.46226 460.95896 463.46937 469.33607 476.25276 478.76316 482.73988 489.65657">system of electron carriers called electron transport system (ETS) located on the</tspan><tspan y="-674.4" x="95.04 98.19 105.12 112.05 117.51 122.130008 125.244518 135.11452 140.57453 150.44452 156.95452 161.57451 167.6645 174.59452 180.05452 183.16904 189.04904 192.40904 195.52356 199.51357 206.44358 211.90358 215.0181 224.88809 228.03809 232.02809 237.9081 243.3681 250.2981 256.1781 263.1081 269.6181 274.2381 277.3881 283.4781 286.83808 289.95259 296.4626 303.39259 308.85258 311.96708 317.42707 320.57707 326.03706 331.49705 335.48704 340.10704 345.98704 352.91703 358.377 361.737 364.8515 370.9415 376.4015 379.516 383.50599 390.43598 395.89598 401.56599 404.68049 414.55049 420.43049 425.89048 431.35047 434.46498 438.45497 445.38496 450.00495 455.88496 463.02497 468.69499 475.62498 478.73948 482.72947 489.65946">inner membrane of the mitochondria. The electrons, as they move through the</tspan><tspan y="-660.481" x="95.04 100.45841 106.08682 111.50523 115.45364 120.872058 130.70047 134.01888 136.49979 141.36 146.8126 149.9552 155.4078 161.4904 166.94301 172.39562 174.91072 180.36333 187.28594 193.15854 200.29114 205.95374 212.87635 215.39145 220.84406 227.76667 233.21927 237.6 243.2594 248.9188 251.4307 255.4101 262.3295 268.4089 272.3883 274.9002 280.9796 285.6 291.0508 293.56413 297.54493 302.15574 308.23655 314.73735 321.23814 326.68894 333.18974 335.70304 339.68385 345.55464 348.06794 353.51875 359.17955 366.10035 370.08116 377.00196 382.45277 387.90357 391.04438 396.49519 401.94599 404.4593 411.6 418.05003 423.84 427.1915 429.7055 436.207 443.1285 446.27003 451.72154 454.23554 457.37705 462.82856 465.34257 470.79408 476.87559 480.0171 483.1586 488.6101">system, release enough energy that are trapped to synthesise ATP. This is called</tspan><tspan y="-646.561" x="95.04 100.8205 106.601009 109.651508 116.062007 122.052509 125.94301 128.99352 134.35402 139.71453 142.14502 148.55553 155.38603 161.16654 166.52704 172.93755 179.76805 185.54856 190.06906 195.63956 198.69007 204.68056 208.57106 211.62157 217.40207 224.23258 227.49308 229.92357 233.39408 240.22458 242.65508 246.54558 253.37609 256.42658 261.78709 264.2176 270.62809 275.1486 280.92909 286.28959 291.6501 297.0106 302.3711 304.8016">oxidative phosphorylation. In this process O</tspan></text>
<text fill="#231f20" xml:space="preserve" transform="matrix(1 0 -0 1 -20.16 800.64)" font-size="6.1" font-family="Bookman"><tspan y="-642.961" x="312.96">2</tspan></text>
<text fill="#231f20" xml:space="preserve" transform="matrix(1 0 -0 1 -20.16 800.64)" font-size="10.5" font-family="Bookman"><tspan y="-646.561" x="316.8 319.21733 322.2662 327.6251 330.04243 333.9313 340.7602 346.11909 348.5364 355.57533 358.6242 362.5131 365.56199 375.33088 381.31977 385.20866 390.56755 392.98487 398.97377 404.33265 409.69154 415.0504 421.45933 425.3482 431.1271 435.646 438.06333 443.84223 447.10115 449.51847 454.87736 457.92625 463.28514 468.644 472.5329 477.0518 482.8307 489.65959"> is the ultimate acceptor of electrons</tspan><tspan y="-632.4" x="95.04 101.1275 108.055 114.5625 117.2 120.347499 124.335 126.972499 132.64 138.0975 142.085 147.54251 150.18001 154.797 160.2484 166.7498 173.8812 179.3326 184.784 191.2854 193.9168 197.8982 203.76959 206.40099 214.58238 220.66379 224.64519 230.09659 234.24">and it gets reduced to water.</tspan><tspan y="-618.481" x="113.04 119.2643 125.9086 131.0829 133.32089 137.6552 142.8295 148.0038 154.2281 157.0924 161.42671 167.23102 170.93532 176.52962 180.86392 186.24823 188.48622 194.71053 200.51483 204.21913 210.86344 218.76773 224.57204 229.95633 232.19432 235.05863 240.23293 242.47092 248.27523 254.91953 257.15754 262.96183 272.5461 278.77043 285.4147 288.279 294.5033 300.0976 302.96189 305.82618 311.00047 313.23847 319.46278 325.26707 328.97138 335.61567 343.51997 349.32426 354.70857 356.94657 362.75086 367.92515 370.16316 373.02745 376.73176 378.96977 381.83406 388.47834 393.65263 399.24693 402.1112 407.2855 412.45979 417.63407 419.87208 426.09638 431.69068 435.395 442.03929 444.27729 450.08158 456.72587 462.53016 468.75447 474.34877 477.21305 480.07734 485.25163">The respiratory pathway is an amphibolic pathway as it involves both anabolism</tspan><tspan y="-604.561" x="95.04 101.128917 108.05782 114.566738 117.70564 123.16455 129.25347 133.24237 139.33129 145.8402 151.7191 154.86801 158.01692 163.47583 173.34474 176.70366 179.84258 186.35149 193.2804 198.7393 201.87822 206.49713 211.95604 217.41495 223.92386 227.07277 231.69168 237.7806 241.7695 247.6484 252.26732 257.93623 261.07514 267.16404 274.30296 280.18186 284.17079 287.31968 292.7786 299.70753 303.69645 306.83537 313.34428 318.8032 325.3121 330.77104 337.69996 344.20887 349.6678 352.8067 359.94563 366.45454 372.33345 379.26237 382.40129 386.3902 393.31913 398.77806 401.91697 405.90589 411.5748 418.0837 423.54264 426.68156 432.56047 435.91938 439.0583 443.6772 449.1361 454.59504 461.10395 464.25285 468.87174 474.96064 478.94956 484.82847 489.44737">and catabolism. The respiratory quotient depends upon the type of respiratory</tspan><tspan y="-590.4" x="95.04 100.49851 107.637027 114.14553 119.60404 123.59255 129.68106 136.60958 142.06809 147.5266 150.05182 157.19033 162.64884 168.10735 174.61586 177.14109 183.6496 190.7881 195.40662 198.55513 205.48365 211.15215 213.67737 218.29589 223.7544 229.2129 235.72142 238.86994 243.48845 249.57697 253.56548 256.714 262.5925 269.521">substance used during respiration.</tspan></text>
<text fill="#00aeef" xml:space="preserve" transform="matrix(1 0 -0 1 -20.16 800.64)" font-size="13" font-family="Bookman"><tspan y="-539.281" x="274.8">E</tspan></text>
<text fill="#00aeef" xml:space="preserve" transform="matrix(1 0 -0 1 -20.16 800.64)" font-size="9.1" font-family="Bookman"><tspan y="-539.281" x="284.4 291.3949 297.8438 304.8387 311.4696 315.0065 320.9094 327.3583">XERCISES</tspan></text>
<text fill="#231f20" xml:space="preserve" transform="matrix(1 0 -0 1 -20.16 800.64)" font-size="10" font-family="Bookman"><tspan y="-500.881" x="101.04 106.72061 119.04 127.0364 130.0328 133.2292 136.4256 141.622 146.01839 151.21479 157.81119 161.60759 164.60399 170.40039 174.1968 179.39319 181.78958 187.98598 193.18238 196.97878 204.77518 209.97158 215.16797">1.Differentiate between</tspan><tspan y="-486.961" x="119.04 122.0434 127.8468 130.8502 133.43692 140.64032 145.84372 151.04712 157.25052 160.25392 164.65732 170.46073 174.26413 177.26753 182.87093 189.47432 192.06104 197.86444 204.46784 210.67124 213.25795 220.66135 226.26474 235.66814 241.87154 248.67494 253.87834 257.68174 260.68513 266.2885">(a) Respiration and Combustion</tspan><tspan y="-472.8" x="119.04 122.0393 128.2386 131.2379 133.8747 141.874 144.87329 150.2726 155.4719 161.0712 164.0705 169.4698 174.6691 177.6684 182.86769 185.50449 191.30379 197.90309 204.10239 206.73918 213.93848 218.33779 223.53708 229.73638 234.93567 237.13497 239.77176 244.97106 250.37036 255.56966 258.56898">(b) Glycolysis and Krebs&#x2019; cycle</tspan><tspan y="-458.881" x="119.04 122.0419 127.243808 130.24571 133.07262 139.87451 145.07642 149.47832 155.08022 161.28212 164.28403 169.48593 172.31284 176.71474 181.91664 187.11855 193.32045 196.32236 200.72426 206.52616 210.32805 213.32996 218.93186 225.53376 228.36066 234.16255 240.76445 246.96636 249.79326 256.19517 261.39707 265.79896 275.20085 280.40275 287.00465 290.80656 296.60847 300.41038 303.41227 309.01417">(c) Aerobic respiration and Fermentation</tspan><tspan y="-441.841" x="101.04 106.72061 119.04 128.5161 134.9922 140.6683 144.3444 146.6205 152.2966 156.5727 161.64879 163.92488 168.20099 173.27709 178.35318 184.42928 187.30538 191.58148 197.25759 200.93369 206.40979 210.68589 215.96198 218.23807 223.31417 229.99027 236.06636 241.14246 244.81856 249.09467 254.77077 258.44688 263.52299 268.5991 273.87519 276.1513 283.4274 289.1035 298.37959 303.4557 305.7318 309.4079 315.884 320.9601 323.23625 332.51234 337.98844 343.06455 346.74064 349.01676 354.09288 359.56898 368.84507 378.12117 383.59727 390.07337 392.3495 396.62559 401.7017 406.7778 412.8539 415.73 420.0061 425.6822 429.35829 434.83439 439.11048 444.38658 446.6627 451.7388 458.4149 464.491 469.5671 473.2432 477.5193 483.19538 486.87147 491.94758">2.What are respiratory substrates? Name the most common respiratory substrate.</tspan><tspan y="-427.921" x="101.04 106.72061 119.04 127.0423 130.0446 135.2469 140.4492 143.2015 147.00382 153.60611 158.80841 161.56072 166.76302 171.96532 178.56761 183.76992 193.17221 198.97452 202.77683 205.77913 210.98143 213.73374 218.13603 223.33834 229.54064 233.94293 239.14524 244.34754 249.54984 256.15214 259.95445 265.75675 269.55906 272.56135 278.16365 284.76594 287.51826 293.12055 296.32286 299.07518 304.47749 307.47978 312.88209 318.08439 323.68669 326.68898 332.09129 337.29359 340.29588 345.49818">3.Give the schematic representation of glycolysis?</tspan><tspan y="-410.881" x="101.04 106.72061 119.04 128.6416 135.2432 141.0448 144.8464 147.77722 153.57883 157.98043 163.18202 166.11284 169.91445 176.51604 181.71764 184.64846 194.05005 199.85166 202.85326 209.45485 212.38567 217.58727 221.38887 226.59047 232.79207 237.99367 240.92449 243.92609 250.52768 253.4585 259.2601 264.4617 268.8633 274.4649 280.6665 283.6681 288.8697 291.8005 296.20213 301.40373 306.60533 312.80693 315.8085 320.2101 326.01173 329.81333 332.8149 338.4165 345.0181 350.4197 353.35054 362.95213 369.5537 374.7553 379.15693 384.35853 387.28935 393.49095 399.09254 404.29414 409.49574 412.42655 415.42814 419.22975 422.16056 425.96217 431.76377 437.96537 443.16697 446.09779 452.29939 455.30097 461.10258 466.30418 471.50578">4.What are the main steps in aerobic respiration? Where does it take place?</tspan><tspan y="-393.841" x="101.04 106.72061 119.04 127.038608 130.0372 135.2358 140.43439 143.29299 147.09159 153.69019 158.88878 161.74738 166.94597 172.14456 178.74317 183.94176 193.34037 199.13896 202.93756 205.93616 211.13475 213.99335 218.39196 223.59055 229.78914 234.18775 239.38634 244.58493 249.78353 256.3821 260.18074 265.97935 269.77796 272.77656 278.37516 284.97377 287.83238 293.43098 296.62959 299.4882 305.2868 311.8854 314.74403 320.34263 325.54124 330.73985 335.13844 340.93705 343.93565 346.93424 349.79286 354.99147 357.99006 363.18867 370.98728 373.8459 379.4445 382.6431 385.5017 392.70033 397.0989 402.29753 408.49613 413.69474 415.89335 418.75196 423.95057 429.34916 434.54777 437.54637 442.74497">5.Give the schematic representation of an overall view of Krebs&#x2019; cycle.</tspan><tspan y="-376.8" x="101.04 106.72061 119.04 126.1638 131.6876 137.8114 140.7352 146.459 149.3828 155.9066 158.2304 165.35419 171.47798 178.00179">6.Explain ETS.</tspan><tspan y="-359.761" x="101.04 106.72061 119.04 127.0414 130.0428 135.2442 139.04561 142.04701 148.6484 154.0498 160.85121 163.85262 169.05402 175.65541 178.05681 184.25821 189.45961 193.26102 201.06243 206.26383 211.46523 218.06662 220.46802 224.26943 230.87082 236.07222 238.47362 241.67502 247.27642 250.27782 253.27922 258.8806 266.682 269.6834 276.28483 281.68623">7.Distinguish between the following:</tspan><tspan y="-345.841" x="119.04 122.03781 127.835628 130.83344 133.83126 140.62906 145.82688 150.22469 155.8225 162.02031 165.01811 170.21593 173.21375 177.61156 182.80937 188.00719 194.205 197.2028 201.60062 207.39842 211.19623 214.19403 219.79184 226.38965 229.38747 235.18527 241.78308 247.9809 250.97872 257.77653 264.37434 270.17216 275.36997 279.76777 285.36558 291.5634 294.5612 299.759 302.75685 307.15464 312.35246 317.55027 323.74809 326.74589 331.14369 336.9415 340.73933 343.73713 349.33494">(a) Aerobic respiration and Anaerobic respiration</tspan><tspan y="-331.921" x="119.04 122.03631 128.23262 131.22893 133.69193 141.68824 144.68454 150.08086 155.27716 160.87348 163.86978 169.2661 174.4624 177.45871 182.65502 185.11801 190.91432 197.51064 203.70694 206.16994 212.56626 217.76256 222.15888 231.55519 236.7515 243.34781 247.14412 252.94043 256.73674 259.73304 265.32936">(b) Glycolysis and Fermentation</tspan><tspan y="-317.761" x="119.04 122.04199 127.24398 130.24597 133.14797 141.14995 144.15193 149.55393 154.75592 160.35791 163.3599 168.76189 173.96389 176.96587 182.16786 185.06986 190.87184 197.47383 203.67583 206.57782 213.97982 216.9818 220.78379 225.18578 228.18776 233.38976 236.29175 242.09374 247.29573 250.29772 256.4997 259.4017 266.80369 272.20567 277.40766 280.40965">(c) Glycolysis and Citric acid Cycle</tspan><tspan y="-303.841" x="101.04 106.72061 119.04 128.63991 135.2398 141.0397 144.8396 147.6853 153.4852 157.8851 163.085 165.93071 169.7306 176.3305 181.53041 184.37612 190.17601 195.37592 200.57582 207.37572 216.77562 222.97553 226.77542 229.77532 235.37522 241.97512 247.17502 250.02072 259.42063 265.22053 271.4204 276.6203 279.466 285.6659 292.4658 296.8657 299.8656 306.4655 311.86543 314.71113 318.51103 325.11094 330.31083 333.15653 338.3564 344.1563 347.15623 352.3561 359.156 362.1559 367.9558 371.7557 374.7556 380.35554 386.95545 389.80116 395.40107 398.60096 401.44667 408.04658 413.24647 417.04637 419.89207 425.29197 431.09187 434.09178 440.69169 443.53739 449.1373 452.3372 455.1829 461.9828 468.18269 474.38258">8.What are the assumptions made during the calculation of net gain of ATP?</tspan><tspan y="-286.8" x="101.04 106.72061 119.04 127.0419 130.04381 135.24571 140.44762 147.24951 152.45142 157.65332 160.39093 164.39284 170.59474 177.19664 182.39855 185.13616 189.53806 194.73996 199.94187 206.14377 209.14568 213.54758 219.34947 223.15137 228.75327 233.15517 238.55707 241.29468 247.49658 253.29848 257.10038 263.70228 271.50419 277.3061 282.70799 285.4456 288.44749 293.64939 296.387 302.1889 308.7908 311.5284 317.33033 326.7322 332.9341 339.536 342.5379 348.7398 354.3417 357.3436 360.3455 365.5474 368.285 374.4869 380.28883 384.09074 390.69264 398.49455 404.29646 409.69834 412.90025">9.Discuss &#x201c;The respiratory pathway is an amphibolic pathway.&#x201d;</tspan><tspan y="-269.761" x="95.04 100.88051 106.721019 119.04 127.0428 132.2456 135.44841 138.4512 145.054 150.2568 153.02393 160.22673 168.42954 171.63234 174.39946 184.00226 190.60506 196.40785 200.21065 202.97777 205.98056 211.18337 213.95049 216.95328 220.75608 225.95888 228.726 233.9288 239.7316 242.7344 249.5372 254.74 257.5071 260.7099 266.3127 270.7155 273.4826 276.6854 282.4882 286.291 291.49378">10.Define RQ. What is its value for fats?</tspan><tspan y="-252.961" x="95.04 100.88051 106.721019 119.04 128.6354 135.23082 141.02623 144.82164 147.21704 150.21245 155.40785 157.80326 163.39867 168.99408 171.98949 178.18489 183.9803 187.77571 190.77112 195.96652 201.16193 203.55733 209.75273 216.34815 221.94356 227.13896 233.33437 239.92978 245.52519 249.92061 255.31603 258.31144 264.10685 267.90226 270.89768 276.49308 283.08848">11.What is oxidative phosphorylation?</tspan><tspan y="-235.921" x="95.04 100.88051 106.721019 119.04 128.6416 135.2432 141.0448 144.8464 147.763 150.7646 155.9662 158.8828 162.6844 169.286 174.4876 177.40419 182.60579 185.60739 191.00899 197.61058 200.61219 203.81378 206.81539 212.01699 217.81859 224.42018 229.62178 234.82338 237.73998 243.34157 246.54317 249.45977 254.66136 258.46296 263.66456 269.86616 273.86775 281.66935 284.67094 289.87254 295.07414 297.99073 302.39234 307.59394 310.59553 315.79713 321.59873 326.80033 332.00193 334.91853 340.5201 343.7217 346.6383 351.8399 358.4415 363.6431 368.0447 373.44633 378.84794 381.76454 384.7661 391.3677 394.2843 398.6859 403.8875 409.0891 415.2907 418.2923 422.6939 428.4955 432.29713 435.2987 440.9003 447.5019">12.What is the significance of step-wise release of energy in respiration?</tspan></text>
<g clip-path="url(#clip_53)">
<text xml:space="preserve" transform="matrix(1 0 -0 1 257.15403 766.8803)" font-size="8" font-family="Arial"><tspan y="6.316" x="0"> </tspan></text>
</g>
</g>
</svg>
