<svg xmlns="http://www.w3.org/2000/svg" xmlns:xlink="http://www.w3.org/1999/xlink" xmlns:inkscape="http://www.inkscape.org/namespaces/inkscape" version="1.1" width="576" height="784.8" viewBox="0 0 576 784.8">
<defs>
<clipPath id="clip_1179">
<path transform="matrix(1,0,0,-1,-18,802.8)" d="M18 18H594V802.8H18Z" clip-rule="evenodd"/>
</clipPath>
<clipPath id="clip_1180">
<path transform="matrix(.23999998,0,0,-.23999998,-18,802.8)" d="M596 2582H1875V1303H596Z"/>
</clipPath>
<clipPath id="clip_1181">
<path transform="matrix(1,0,0,-1,259.314,763.9998)" d="M0-8H57.372V.800049H0Z"/>
</clipPath>
</defs>
<g clip-path="url(#clip_1179)">
<path transform="matrix(.23999998,0,0,-.23999998,-18,802.8)" d="M0 3035.83H2550V3372.7003H0Z" fill="#d1d3d4" fill-rule="evenodd"/>
<path transform="matrix(.23999998,0,0,-.23999998,-18,802.8)" d="M0 3078.33H2550V3420H0Z" fill="#e1ecb6" fill-rule="evenodd"/>
<path transform="matrix(.23999998,0,0,-.23999998,-18,802.8)" d="M2 2H2548V214.67H2Z" fill="#cbdf7f" fill-rule="evenodd"/>
<path transform="matrix(.23999998,0,0,-.23999998,-18,802.8)" stroke-width="4" stroke-linecap="butt" stroke-miterlimit="1000" stroke-linejoin="miter" fill="none" stroke="#cbdf7f" d="M2 2H2548V214.67H2Z"/>
<path transform="matrix(.23999998,0,0,-.23999998,482.6352,53.635194)" d="M0 0C7.32 7.32 16.16 10.98 26.52 10.98H97.35C107.71 10.98 116.55 7.32 123.87 0 131.19-7.33 134.85-16.17 134.85-26.52V-101.52C134.85-111.88 131.19-120.72 123.87-128.04 116.55-135.36 107.71-139.02 97.35-139.02H26.52C16.16-139.02 7.32-135.36 0-128.04-7.32-120.72-10.98-111.88-10.98-101.52V-26.52C-10.98-16.17-7.32-7.33 0 0" fill="#ffffff" fill-rule="evenodd"/>
<text fill="#231f20" xml:space="preserve" transform="matrix(1 0 -0 1 -18 802.8)" font-size="11" font-family="Bookman"><tspan y="-730.081" x="84">C</tspan></text>
<text fill="#231f20" xml:space="preserve" transform="matrix(1 0 -0 1 -18 802.8)" font-size="7.69999" font-family="Bookman"><tspan y="-730.081" x="92.16 97.633197 102.18239">ELL</tspan></text>
<text fill="#231f20" xml:space="preserve" transform="matrix(1 0 -0 1 -18 802.8)" font-size="11" font-family="Bookman"><tspan y="-730.081" x="106.8 109.46123"> C</tspan></text>
<text fill="#231f20" xml:space="preserve" transform="matrix(1 0 -0 1 -18 802.8)" font-size="7.69999" font-family="Bookman"><tspan y="-730.081" x="117.84 122.79888 128.52777 133.17865">YCLE</tspan></text>
<text fill="#231f20" xml:space="preserve" transform="matrix(1 0 -0 1 -18 802.8)" font-size="11" font-family="Bookman"><tspan y="-730.081" x="138.48"> </tspan></text>
<text fill="#231f20" xml:space="preserve" transform="matrix(1 0 -0 1 -18 802.8)" font-size="7.69999" font-family="Bookman"><tspan y="-730.081" x="141.36 146.56981 152.24161">AND</tspan></text>
<text fill="#231f20" xml:space="preserve" transform="matrix(1 0 -0 1 -18 802.8)" font-size="11" font-family="Bookman"><tspan y="-730.081" x="158.4 161.0612"> C</tspan></text>
<text fill="#231f20" xml:space="preserve" transform="matrix(1 0 -0 1 -18 802.8)" font-size="7.69999" font-family="Bookman"><tspan y="-730.081" x="169.2 174.67319 179.22238">ELL</tspan></text>
<text fill="#231f20" xml:space="preserve" transform="matrix(1 0 -0 1 -18 802.8)" font-size="11" font-family="Bookman"><tspan y="-730.081" x="184.08 186.80121"> D</tspan></text>
<text fill="#231f20" xml:space="preserve" transform="matrix(1 0 -0 1 -18 802.8)" font-size="7.69999" font-family="Bookman"><tspan y="-730.081" x="195.6 198.228 203.62798 206.25597 211.34795 213.97594 220.14592">IVISION</tspan></text>
<text fill="#231f20" xml:space="preserve" transform="matrix(1 0 -0 1 -18 802.8)" font-size="11" font-family="Bookman"><tspan y="-729.361" x="505.92 513.21 520.5">129</tspan></text>
<path transform="matrix(.23999998,0,0,-.23999998,579.6,.11999512)" stroke-width="1" stroke-linecap="butt" stroke-miterlimit="10" stroke-linejoin="miter" fill="none" stroke="#000000" d="M0 0H60"/>
<path transform="matrix(.23999998,0,0,-.23999998,576.12,-18)" stroke-width="1" stroke-linecap="butt" stroke-miterlimit="10" stroke-linejoin="miter" fill="none" stroke="#000000" d="M0 0V-60"/>
<path transform="matrix(.23999998,0,0,-.23999998,579.6,784.44)" stroke-width="1" stroke-linecap="butt" stroke-miterlimit="10" stroke-linejoin="miter" fill="none" stroke="#000000" d="M0 0H60"/>
<path transform="matrix(.23999998,0,0,-.23999998,576.12,788.16)" stroke-width="1" stroke-linecap="butt" stroke-miterlimit="10" stroke-linejoin="miter" fill="none" stroke="#000000" d="M0 0V-59"/>
<path transform="matrix(.23999998,0,0,-.23999998,-17.88,-18.23999)" stroke-width="1" stroke-linecap="butt" stroke-miterlimit="10" stroke-linejoin="miter" fill="none" stroke="#000000" d="M0 0V-75"/>
<g clip-path="url(#clip_1180)">
<path transform="matrix(.23999998,0,0,-.23999998,278.89918,183.84247)" d="M0 0C350.89 0 637.08-286.19 637.08-637.08 637.08-987.98 350.89-1274.17 0-1274.17-350.9-1274.17-637.09-987.98-637.09-637.08-637.09-286.19-350.9 0 0 0" fill="#fffcd5" fill-rule="evenodd"/>
</g>
<text fill="#231f20" xml:space="preserve" transform="matrix(1 0 -0 1 -18 802.8)" font-size="10.5" font-family="Bookman"><tspan y="-688.561" x="95.04 101.7888 108.9576 114.6564 117.41951 123.11831 127.34711 133.6759 139.5847 145.28351 150.98232 153.74542 157.97423 165.14304 170.00183 176.12064 183.49944 189.40824 196.57703 199.34014 207.76894 214.93775 218.32654 224.02535 231.19416 233.95726 240.28606 243.04917 248.74797 254.44678 257.83558 261.22438 263.98747 270.73628 277.06507 282.76387 288.46266 294.16145 299.86024 302.62333 306.2221 311.0809 317.1997 327.3085 330.0716 336.1904 343.3592 349.05799 351.82109 358.5699 361.95869 367.65748 371.04627 376.74507 380.13386 386.25267 393.42146 396.18455 400.41334 406.53215 409.29524 413.52403 420.6928 426.3916 429.1547 436.3235 442.02229 448.14109 452.36988 455.13298 458.52177 464.22056 466.98365 472.68244 479.01124 482.40003 485.78883 491.4876">The stages through which a cell passes from one division to the next is called</tspan><tspan y="-674.4" x="95.04 99.34159 106.58318 112.354778 116.059658 121.831249 127.60284 131.06443 134.52602 138.2309 144.00249 149.98407 155.75566 159.21726 164.98885 168.66043 172.36531 180.4469 186.21849 189.68009 193.14168 196.84656 202.61815 208.59973 214.37133 217.83292 223.6045 227.30939 230.77098 236.54257 240.24745 247.06905 250.53064 256.30223 259.7638 266.5854 272.35697 279.17857 282.88346 286.34504 293.5866 297.8882 304.0798 307.7847 312.0863 320.5879 326.77949 330.48439 337.30598 344.54756 350.94914 356.7207 362.49229 368.26387 371.96876 377.74034 384.1419 387.6035 391.06507 396.83665 403.65824 407.36314 410.8247 414.2863 417.74787 421.45277 425.33436 432.57594 436.87754 442.6491 447.5807 454.40229 461.64387 468.04545 473.81703 479.52 482.90998 488.16 491.90998">the cell cycle. Cell cycle is divided into two phases called (i) Interphase &#x2013; a</tspan><tspan y="-660.481" x="95.04 101.86059 107.63118 112.56177 116.022357 122.212947 129.03354 131.99054 138.18112 141.85172 144.80872 151.6293 156.55989 162.33048 169.15106 175.55165 180.48224 186.88283 191.18341 194.644 200.8346 208.07518 211.03218 214.70278 220.89337 225.82396 228.78096 234.55155 240.32213 243.78272 247.2433 250.2003 257.0209 260.4815 266.2521 269.7127 275.4833 278.9439 285.1345 292.3751 296.0457 299.0027 305.4033 312.6439 319.46449 322.42149 325.88209 329.34269 332.80329 336.2639 339.2209 349.19148 352.65208 356.95268 363.14326 368.91386 372.37446 378.14506 381.10206 384.56266 394.53324 397.49024 404.31083 411.55143 417.95204 423.72264 429.49324 432.95384 436.08 441.12 444.06199 448.35899 455.59599 461.36299 464.30497 470.70198 476.46897 480.76597 488.21296 494.60997">period of preparation for cell division, and (ii) Mitosis (M phase) &#x2013; the actual</tspan><tspan y="-646.561" x="95.04 101.85189 107.613788 112.535678 115.987567 122.16946 128.98136 131.80997 137.99185 141.65375 144.48236 150.24425 156.00614 159.45803 162.90991 165.73853 172.55042 176.0023 181.76419 185.21608 190.97797 194.42986 200.61174 207.84363 211.50553 214.33414 218.20603 225.43791 229.7298 235.49169 240.41358 247.22547 254.45735 260.84925 266.61116 272.37306 275.20167 278.65357 284.41548 287.24409 290.90599 298.34788 303.26979 307.56169 314.79359 320.55549 325.47737 328.30598 334.06788 341.50978 348.32167 355.13356 358.58546 364.34736 367.79927 374.61116 380.37306 387.18495 390.01356 393.46546 400.69737 404.98927 411.17115 413.99977">period of cell division. Interphase is further subdivided into G</tspan></text>
<text fill="#231f20" xml:space="preserve" transform="matrix(1 0 -0 1 -18 802.8)" font-size="6.1" font-family="Bookman"><tspan y="-642.961" x="422.64">1</tspan></text>
<text fill="#231f20" xml:space="preserve" transform="matrix(1 0 -0 1 -18 802.8)" font-size="10.5" font-family="Bookman"><tspan y="-646.561" x="426.48 430.1512 432.9724 440.21363 443.03483 449.43605 456.67726 463.49845 466.31965">, S and G</tspan></text>
<text fill="#231f20" xml:space="preserve" transform="matrix(1 0 -0 1 -18 802.8)" font-size="6.1" font-family="Bookman"><tspan y="-642.961" x="474.96">2</tspan></text>
<text fill="#231f20" xml:space="preserve" transform="matrix(1 0 -0 1 -18 802.8)" font-size="10.5" font-family="Bookman"><tspan y="-646.561" x="479.04 482.705 485.51997">. G</tspan></text>
<text fill="#231f20" xml:space="preserve" transform="matrix(1 0 -0 1 -18 802.8)" font-size="6.1" font-family="Bookman"><tspan y="-642.961" x="494.16">1</tspan></text>
<text fill="#231f20" xml:space="preserve" transform="matrix(1 0 -0 1 -18 802.8)" font-size="10.5" font-family="Bookman"><tspan y="-632.4" x="95.04 101.8646 109.1092 115.5138 121.2884 127.062999 130.06761 133.53221 139.30681 142.31143 146.61603 153.86063 159.63523 162.63985 169.46445 175.23905 180.17365 183.63825 189.83284 196.65744 199.66207 208.16666 215.41126 221.18585 228.43045 231.36 235.3233 242.22661 247.65991 250.56 256.32929 262.09858 265.55787 269.01716 272.00315 277.98243 282.9117 289.101 297.6003 303.3696 306.3556 312.75489 319.99418 326.81349 329.79948 335.56877 341.96806 346.89735 351.82664 355.28593 361.0552 366.8245 369.8105 375.9998 383.44908 387.74836 390.73435 397.97364 404.16294 409.09223 419.2715 425.6708 429.1301 432.1161 442.29539 448.06468 452.36396 458.76325 465.58253 471.77183 475.2311 478.6904 484.4597 494.63899">phase is the period when the cell grows and carries out normal metabolism.</tspan><tspan y="-618.481" x="95.04 104.775608 110.7312 116.2668 120.3324 122.93051 128.88611 132.3217 134.9198 138.9854 145.991 151.5266 154.1247 160.08029 164.7759 170.5215 176.6871 183.6927 189.2283 192.4539 195.6795 201.2151 203.8132 210.3988 217.61441 224.20001 227.42562 230.65122 236.18682 242.35242 246.41802 249.64362 255.59922 262.60484 265.20295 271.36854 274.59413 280.12974 286.08534 288.68345 294.63905 300.17466 305.71028 312.92588 317.62147 323.15708 325.7552 332.3408 339.5564 344.25199 347.47758 354.4832 360.2288 362.8269 366.89253 373.89814 377.12373 382.65934 385.25746 391.84306 398.84867 405.01426 410.54988 416.08549 419.5211 422.1192 429.12483 431.72294 438.30854 445.31416 451.47975 457.01536 462.55097 465.14909 475.09468 481.26026 485.95585 492.54145">Most of the organelle duplication also occurs during this phase. S phase marks</tspan><tspan y="-604.561" x="95.04 99.3453 106.5906 112.3659 115.70371 122.529018 129.77433 136.17963 141.95493 147.73023 151.06803 157.26332 160.93862 164.27642 172.99172 181.07701 188.53232 191.87012 196.80542 202.58072 209.40602 212.87133 216.33663 222.11193 228.51723 232.82253 236.28783 242.48313 249.72843 253.06623 259.47154 266.71684 273.5421 276.8799 282.6552 289.9005 294.83583 301.03114 311.21644 317.41175 323.18705 329.38236 339.56767 345.34297 348.68077 355.50605 362.96134 369.78663 373.25193 376.71723 382.49253 388.89784 393.20314 396.66844 402.86375 410.10905 413.78434 417.12214">the phase of DNA replication and chromosome duplication. G</tspan></text>
<text fill="#231f20" xml:space="preserve" transform="matrix(1 0 -0 1 -18 802.8)" font-size="6.1" font-family="Bookman"><tspan y="-600.961" x="425.76">2</tspan></text>
<text fill="#231f20" xml:space="preserve" transform="matrix(1 0 -0 1 -18 802.8)" font-size="10.5" font-family="Bookman"><tspan y="-604.561" x="429.84 433.15748 439.97499 447.21247 453.60997 459.37745 465.14494 468.4624 471.9199 477.68739 481.00486 485.30235 492.53984"> phase is the</tspan><tspan y="-590.4" x="95.04 101.8337 107.5774 112.4811 115.9148 122.07851 128.87221 131.67961 137.8433 141.48702 144.29442 150.03812 155.99182 160.26552 166.42922 173.22292 176.65662 183.03032 188.77402 198.92772 202.36142 208.10512 210.91252 216.86623 221.76993 227.93363 236.40732 240.68102 247.89472 251.53842 254.34583 264.28953 267.7232 271.99693 278.1606 283.90434 287.338 293.08174 295.88914 299.3228 305.06654 307.87394 314.24763 317.6813 323.42503 329.5887 332.39613 339.18983 342.6235 348.36723 351.8009 358.5946 364.33833 371.13203 373.93943 377.3731 384.58683 388.86054 395.02424 397.83164 401.47535 407.63905 415.06275 419.96644 422.77384 428.51756 432.79127 439.16496 445.11866 450.86238 456.60609 459.41349 466.6272 473.0009 483.15458 488.8983 492.33198">period of cytoplasmic growth. Mitosis is also divided into four stages namely</tspan><tspan y="-576.481" x="95.04 101.84989 106.76978 112.94968 119.75957 126.989459 133.37935 139.13924 144.89913 148.55902 151.38564 161.55553 167.31542 171.6053 177.9952 184.80509 192.03498 198.42487 204.18476 209.94464 213.60454 216.43115 222.82105 230.05094 236.44083 243.25072 250.4806 256.87049 262.63038 268.39027 271.21687 277.60676 284.83665 291.6465 294.4731 298.763 304.5229 307.97279 314.15269 320.96257 328.19245 334.58235 340.34223 346.1021 349.762 352.5886 360.65849 367.88838 372.80827 378.98817 389.15806 395.33796 401.09785 407.27775 417.44764 423.20753 426.03413 431.794 437.9739 445.2038 452.01368 457.77357 465.00346 470.76335 477.15324 481.4431 484.893 491.0729">prophase, metaphase, anaphase and telophase. Chromosome condensation</tspan><tspan y="-562.561" x="95.04 101.14079 106.82159 112.50238 119.86317 124.70396 130.38475 133.12667 139.85746 147.21825 152.05904 155.42983 162.58061 168.4714 171.21332 177.9441 182.7849 188.88568 195.61647 202.76726 209.07805 214.75884 220.43962 224.02042 226.76233 233.91312 237.2839 247.3747 254.73549 258.1063 262.31709 268.62788 275.77867 281.45945 287.56025 294.92103 300.6018 303.9726 309.86338 313.44416 316.18605 320.39683 327.5476 333.2284 335.97029 341.65107 347.33186 354.48265 358.69343 363.5342 366.905 373.0058 376.3766 382.05738 387.73817 390.48005 400.57084 406.67164 412.35243 418.0332 420.7751 424.98588 431.08668 433.82856 438.03935 445.19013 450.8709 453.6128 459.7136 466.4444 473.1752 479.276 484.9568 488.32759 492.53837">occurs during prophase. Simultaneously, the centrioles move to the opposite</tspan><tspan y="-548.4" x="95.04 101.86309 108.05618 111.51927 117.29236 123.065448 126.73853 131.0516 137.8747 145.11779 150.89087 155.20395 162.44704 169.90013 175.67322 179.1363 184.9094 191.31249 196.24558 200.55866 206.33174 213.57483 219.34792 225.121 228.58409 234.77718 241.60027 247.37335 251.68643 258.0895 265.3326 272.1557 276.46879 280.77189 288.01499 293.7881 298.10118 305.34428 312.79737 318.57048 322.03358 327.80668 333.99977 337.46287 344.91596 350.68907 355.00215 361.82524 365.28834 371.06144 377.4645 384.2876 391.1107 396.8838 403.28688 408.21998 412.53306 418.93614 426.17924 433.00233 437.3154 441.6185 448.8616 454.6347 458.94779 464.7209 471.54399 475.00709 482.25019 489.07328 492.53639">poles. The nuclear envelope and the nucleolus disappear and the spindle</tspan><tspan y="-534.481" x="95.04 98.5011 101.7522 108.3633 113.0844 118.6455 124.206607 126.8327 132.3938 136.4849 142.676 147.3971 151.48819 154.11429 160.30539 166.91649 173.52759 179.08869 185.27979 190.00089 193.25199 200.28308 206.05419 209.51529 212.14139 221.90248 227.46358 231.55467 237.74578 244.35688 251.38797 257.57908 263.14018 268.70127 271.32737 274.57847 280.13957 282.76567 292.73677 298.92787 303.64897 310.26008 315.82118 322.43229 325.05839 331.6695 337.44059 340.06669 344.15779 351.18888 356.74998 359.37608 365.56718 368.81828 372.06938 377.84046 384.87156 394.84266 400.40376 407.43486 411.52595 414.15205 420.13316 423.59425 426.22035 431.78144 438.81254 443.53364 449.51475 459.48585 465.46696 471.02806 477.00917 486.98027 492.54136">fibres start appearing. Metaphase is marked by the alignment of chromosomes</tspan><tspan y="-520.561" x="95.04 101.4439 105.7478 110.37169 114.67559 121.919498 127.6934 132.31729 138.09119 144.49509 151.94899 158.35289 162.65679 168.85068 173.78458 177.24848 183.65238 187.11627 191.74018 198.56407 202.02797 208.43187 212.73577 218.50966 222.18357 226.80747 235.52136 242.97527 247.90917 251.37306 258.61698 264.60087 269.22474 275.62864 282.87254 289.27644 296.10035 303.34425 309.74815 315.52204 321.29594 325.9198 330.2237 337.4676 343.2415 347.86537 353.63926 359.41316 366.65705 370.96095 375.89485 382.08876 392.27265 398.04655 402.98045 408.75434 414.52824 419.1521 425.976 429.4399 435.2138 438.6777 445.50163 451.2755 455.89939 462.30329 469.54719 476.3711 480.99497 485.29887 492.54277">at the equatorial plate. During anaphase the centromeres divide and the</tspan><tspan y="-506.4" x="95.04 100.638 107.706 112.464008 118.482 128.49 134.718 138.84601 142.134 148.782 154.38 157.043 162.641 166.76902 172.99701 177.755 181.88301 184.546 194.554 200.572 206.17002 209.45801 216.526 222.334 224.997 229.125 235.143 243.47101 249.699 254.457 261.105 266.703 269.366 273.494 280.56199 286.15998 288.82298 292.95097 301.27897 307.29698 309.95997 315.97798 322.62599 329.274 335.292 340.88999 344.17799 348.30598 353.90397 356.56697 363.21498 369.23298 372.52098 378.11897 383.71696 387.21495 389.87794 398.41593 405.48393 411.0819 416.6799 419.3429 423.4709 430.53889 436.13688 438.79988 444.39787 451.46586 456.22386 462.24186 472.24986 478.47785 482.60585 485.89384 492.54185">chromatids start moving towards the two opposite poles. Once the chromatids</tspan><tspan y="-492.481" x="95.04 99.97579 105.75158 112.15737 117.93316 125.17895 128.50974 132.81552 140.06131 145.8371 149.1679 153.47368 161.97946 168.17525 171.50605 178.33184 184.52762 187.99341 193.7692 199.54499 203.22078 206.55158 210.85736 218.10315 223.87894 227.20973 232.98552 240.23131 245.1671 251.36289 261.54869 267.74449 273.52027 279.71607 289.90187 296.30766 299.77345 303.10423 308.88 312.3458 318.5416 325.78739 331.77317 338.17897 342.48475 345.95054 352.14634 359.39213 362.7229 368.4987 372.80448 379.21028 384.14607 388.45185 394.22764 397.9034 401.2342 408.47999 415.93577 421.71156 425.17735 430.95314 437.14894 440.61473 448.0705 453.84629 457.17707 463.58287 470.82865 477.65443 480.9852 485.291 492.53678">reach the two poles, the chromosomal elongation starts, nucleolus and the</tspan><tspan y="-478.561" x="95.04 102.2788 109.7276 115.4964 118.9552 124.724 131.1228 136.0516 140.7554 150.9342 156.703 166.8818 173.7006 178.62941 185.02822 192.26702 198.03582 202.73961 207.6 213.34999 219.72998 226.52997 233.32996 239.07994 245.45993 249.84 253.51399 258.223 265.047 272.291 275.75498 281.52897 286.23796 292.01194 296.31593 302.7199 308.7039 314.47789 319.18687 322.65086 328.42485 333.13383 338.9078 345.3118 348.7758 352.23979 358.01377 364.83778 369.54676 373.85075 381.09474 386.8687 391.5777 395.88169 401.65568 405.11967 411.31367 418.13768 425.38166 431.78565 437.55964 443.33363 447.0076 451.71659 456.42558 464.50956 471.96354 477.73753 481.2015 486.9755 493.3795">nuclear membrane reappear. This stage is called the telophase.  Nuclear</tspan><tspan y="-464.4" x="95.04 101.73519 105.07038 110.71557 114.05076 119.695949 123.031139 129.09633 136.21152 138.92041 142.2556 147.90079 150.60968 154.78487 161.90006 167.54524 174.66043 177.36933 180.91452 186.9797 190.3149 193.65009 199.71527 208.09046 213.73564 220.43083 223.13973 229.83492 235.69011 238.399 242.57419 249.68938 255.33457 258.04347 263.68867 269.54386 273.71907 279.78425 286.47944 289.81465 296.0898 301.73503 311.79023 315.12544 320.77064 323.47953 330.1747 333.50993 339.15513 342.49034 348.13554 351.47074 357.53593 364.65113 367.36003 373.6352 380.7504 387.4456 390.15449 393.4897 399.1349 401.84379 407.48899 413.76417 417.09938 420.43458 426.07978 432.77497 435.48387 441.12907 446.98426 451.15946 457.22465 463.91984 467.25505 474.37025 480.01545 485.66065 488.99586 494.64106">division is then followed by the cytoplasmic division and is called cytokinesis.</tspan><tspan y="-450.481" x="95.04 104.98819 108.42638 112.70457 118.87276 124.62095 128.05915 133.80733 136.65552 140.9337 148.15189 155.58008 161.28 164.64 167.44849 170.88698 176.63547 179.44396 183.72245 190.94094 196.68943 199.49791 205.2464 211.6249 219.05338 225.43187 229.71036 233.14885 239.31734 246.53583 252.91432 256.3528 259.16133 265.9598 269.3983 275.1468 278.58528 284.33378 287.77226 293.94075 301.1592 303.9677 307.4062 314.62467 317.43318 325.91166 333.13014 336.5686 342.3171 349.53559 352.3441 356.6226 363.84107 369.58958 372.39808 378.14659 385.36506 390.27354 396.44203 406.6005 412.76899 418.5175 424.68598 434.84446 440.59297 443.40147 450.61994 458.04844 468.2069 475.0054 480.7539 485.66239 488.4709 494.63938">Mitosis thus, is the equational division in which the chromosome number of</tspan><tspan y="-436.561" x="95.04 99.31019 106.52038 112.26057 115.06506 121.855258 128.22545 133.12564 138.86583 146.07602 150.3462 153.1507 156.58089 162.32108 165.12558 170.86577 177.02596 184.23615 189.97634 195.71652 200.61672 206.3569 212.09709 218.88729 221.69178 225.12197 232.33216 235.13666 239.40685 246.61704 252.35723 255.16172 261.9519 268.32209 275.74229 281.69248 288.90269 293.17289 298.9131 303.81327 306.61778 312.35798 318.09819 321.52836 324.95854">the parent is conserved in the daughter cell.</tspan><tspan y="-422.4" x="113.04 116.4753 123.27061 125.657527 130.98282 136.72812 143.52342 147.37873 151.86403 157.81934 163.14464 166.99994 169.38684 173.24214 178.98744 181.37435 191.10965 194.12496 197.98026 203.72556 209.05086 212.06616 217.39147 220.61676 223.00366 232.73897 238.06427 241.07958 246.82488 252.15018 255.16548 260.49079 262.87773 268.62303 273.9483 279.2736 286.2789 290.7642 296.08949 298.4764 301.4917 308.287 310.67393 314.5292 321.3245 326.64979 329.0367 335.41203 338.4273 344.8026 347.8179 353.5632 356.5785 362.9538 365.34074 370.66603 375.9913 379.0066 382.02189 387.34718 390.57249 392.9594 401.0147 407.81 410.8253 416.15058 422.94587 425.3328 431.2881 435.77339 441.09867 443.4856 449.8609 455.1862 460.51148 464.36677 467.38206 474.17735 479.50263 485.87794 488.26487 492.12016">In contrast to mitosis, meiosis occurs in the diploid cells, which are destined to</tspan><tspan y="-408.481" x="95.04 98.3625 104.205 108.787509 118.62001 121.10503 126.737529 132.79003 142.62253 148.04503 151.99753 157.42003 162.84253 166.16503 168.65003 172.18253 176.13503 178.62003 181.73253 187.15503 189.64003 195.06253 201.11504 204.22754 207.34004 212.76255 219.23505 221.72005 225.67255 232.56505 237.98755 240.47255 245.05506 250.47756 256.95005 264.05256 269.47505 273.42756 276.54005 282.38255 289.27503 291.76005 298.23255 301.34504 306.76753 309.88 315.3025 318.41499 324.25749 331.14997 333.63499 339.0575 342.16999 349.06248 354.485 359.90748 362.3925 365.50498 369.4575 371.9425 376.525 381.9475 388.42 395.52253 400.945 406.3675 411.78999 414.275 418.2275 425.12 430.54249 433.0275 438.45 445.3425 449.925 455.7675 465.59999 471.44248 476.865 482.7075 492.53999">form gametes. It is called the reduction division since it reduces the chromosome</tspan><tspan y="-394.561" x="95.04 101.9684 109.1068 118.9752 125.4836 130.942 135.5604 138.24379 144.7522 150.4206 153.10399 160.0324 166.12079 169.2692 172.6276 175.31099 183.49939 190.4278 193.5762 196.72461 202.18302 204.86641 214.7348 220.8232 227.3316 230.48001 237.40842 243.07682 245.76021 249.74861 256.677 262.1354 264.81883 270.4872 276.57563 286.44404 291.90245 295.89085 301.34925 306.80766 310.16606 312.84947 316.41786 323.34626 326.02967 331.48808 336.94648 342.82487 349.96327 356.05168 359.20008 361.88349 366.5019 371.9603 378.4687 383.0871 388.96549 395.47389 402.61228 408.07069 412.05909 415.2075 421.08589 428.01429 430.6977 438.8861 445.8145 451.27293 458.20133 460.88475 464.87315 471.80155 477.25996 479.94337 483.93177 492.12019">number by half while making the gametes. In sexual reproduction when the two</tspan><tspan y="-380.4" x="95.04 100.70691 106.79382 116.660739 122.117649 126.10455 131.56147 137.01837 141.17937 144.53627 151.67319 157.1301 162.587 166.748 170.73491 177.66182 183.11873 187.27973 192.73664 199.66355 204.28046 210.15737 220.02428 225.90119 231.3581 237.235 247.10192 252.55883 256.71983 263.64674 270.78364 280.65055 287.15745 292.61436 297.23127 301.39225 304.53916 309.99607 314.15705 318.77397 324.23088 329.68778 333.67469 339.5516 344.16853 349.62544 356.13233 360.2933 364.2802 370.15715 374.3181 378.30503 385.23194 390.68885 394.84983 400.30674 406.39366 409.54057 416.67747 422.13438 426.29536 429.44227 436.36918 440.53016 444.51707 451.44398 456.90089 461.06187 467.56877 473.65568 478.27259 483.7295 490.6564 494.6433">gametes fuse the chromosome number is restored to the value in the parent.</tspan><tspan y="-366.481" x="95.04 104.6961 110.1522 113.2983 119.1744 124.6305 127.7766 133.2327 136.2721 139.4182 144.8743 147.9137 154.4198 157.5659 163.022 166.1681 172.67421 178.13031 184.63642 187.67581 190.82192 197.74802 201.73412 207.61022 210.64962 214.63571 222.82181 228.6979 231.7373 238.24341 245.16951 251.25562 256.71174 262.16786 267.62397 270.6634 275.9095 278.9489 288.815 294.27113 297.4172 303.2933 308.7494 311.89549 317.35157 320.391 323.9571 326.99653 333.0826 340.0087 346.5148 349.55424 359.42033 364.8764 368.0225 373.8986 379.35469 382.50077 387.95686 390.99629 394.56239 398.12849 401.4846 404.52403 408.09013 415.0162 418.05564 422.04176 428.96784 434.42396 437.46339 440.8195 443.96559 448.58168 454.03779 458.0239 461.06333 470.9294 476.3855 479.5316 485.40769 489.3938 492.5399">Meiosis is divided into two phases &#x2013; meiosis I and meiosis II. In the first meiotic</tspan><tspan y="-352.561" x="95.04 101.31241 104.224819 109.44723 112.359638 117.58205 120.49445 126.13686 132.82927 135.11667 138.86908 145.5615 150.7839 153.0713 159.76372 165.40613 175.03855 180.68096 183.59337 189.23578 194.66819 200.3106 207.213 212.43541 214.72281 219.94522 226.63764 231.02005 236.66246 246.29488 251.93729 257.1597 262.80213 272.43455 277.65696 282.87937 285.16679 291.43919 297.2916 300.204 304.58644 306.87385 310.62626 316.26869 318.5561 321.6785 327.32093 331.70335 341.33576 343.62318 349.89558 352.80799 358.0304 363.8828 366.79524 372.01765 378.71006 382.46247 387.68489 390.80729 393.0947 398.9471 405.63954 411.91194 414.19935 421.10176 427.79417 434.06657 439.28898 443.6714 449.1038 454.74623 457.03364 462.25605 466.63847 472.28089 477.5033 482.7257 485.63813 492.33055">division the homologous chromosomes pair to form bivalents, and undergo crossing</tspan><tspan y="-338.4" x="95.04 100.9 106.340007 111.78001 115.68 119.0319 122.9761 132.62799 138.0799 141.2218 147.0937 152.54561 155.68752 161.13942 165.08362 168.64553 172.58972 179.51163 185.59352 191.04543 194.98963 201.07152 205.01572 208.15763 214.02953 220.95143 226.61333 230.55753 237.05944 241.92 247.7987 254.30742 261.2361 267.32484 272.78355 278.24226 281.60096 285.55195 293.74067 300.66938 303.81809 309.2768 316.2055 320.1565 323.3052 328.76393 332.7149 339.2236 342.3723 347.83103 350.97975 357.48844 362.94715 369.45585 373.40684 376.76554 383.90425 388.52296 392.51167 399.44038 404.89909 409.5178 413.46879 416.6175 423.5462 427.5349 433.41365 437.36463 440.72334 443.87205 449.33076 454.78947 458.74046 465.24916 472.17787 478.26658 483.72529 489.184 494.6427">over. Meiosis I has a long prophase, which is divided further into five phases.</tspan><tspan y="-324.481" x="95.04 101.6249 108.6298 114.1647 119.6996 125.2345 130.3444 136.50931 141.20421 146.7391 151.84902 155.07392 160.60881 167.19371 171.2586 177.2135 181.2784 186.8133 193.81819 199.35309 202.788 207.8979 213.0128 218.7577 224.50261 230.4575 234.5224 240.0573 247.0622 252.59709 256.03199 261.14189 267.72679 273.89167 279.42658 286.4315 292.1764 296.2413 301.7762 308.78114 314.31605 317.75096 322.86085 329.44575 332.67066 339.25556 342.48048 348.43537 352.50028 358.0352 365.0401 370.575 375.6849 381.8498 388.8547 395.4396 400.5495 407.1344 410.3593 416.5242 423.1091 426.334 433.33894 438.87385 444.40876 447.63368 453.16859 456.6035 461.71339 470.1883 477.4032 482.09809 485.323 492.3279">These are leptotene, zygotene, pachytene, diplotene and diakinesis. During</tspan><tspan y="-310.561" x="95.04 104.90831 110.36662 114.354938 120.443248 126.95155 133.87987 139.96819 145.4265 150.88481 154.86392 158.43224 162.41135 166.39966 173.32798 178.78629 182.7654 189.27371 192.42203 197.88034 203.96866 207.11698 212.57529 219.5036 223.49192 228.95023 232.92934 239.01766 243.63597 248.25429 254.3426 261.2709 266.9392 272.39753 276.37663 282.2549 289.18324 293.16233 297.15065 304.07896 309.53727 313.51637 318.97468 325.063 332.2013 338.2896 342.27793 348.15623 352.77455 355.92286 362.01118 365.1595 369.13859 375.64689 378.7952 384.8835 388.87184 394.33015 397.68846 401.66755 408.17585 415.10417 418.25248 423.7108 427.68989 430.8382 436.2965 440.2756 443.6339 449.5122 452.66053 455.80885 461.68714 469.87547 475.33378 481.84208 485.82118 492.32948">metaphase I the bivalents arrange on the equatorial plate. This is followed by</tspan><tspan y="-296.4" x="95.04 101.1305 108.061008 114.151508 120.662 127.59251 133.68302 139.14351 144.604 147.5191 151.0896 154.0047 157.1552 164.0857 167.0008 175.1913 182.1218 185.2723 190.73279 197.66329 200.57839 207.50888 213.38938 223.25988 229.14037 232.29087 238.17136 243.84186 249.72235 256.86286 262.32337 265.23847 270.69898 277.6295 282.25 288.1305 298.001 303.8815 309.342 315.2225 325.09303 330.55354 336.01405 338.92915 348.79966 354.68016 360.14067 365.60118 368.51628 372.50679 378.38728 381.30238 385.29289 392.2234 397.6839 400.599 406.4795 412.99 419.5005 425.38099 430.8415 433.992 437.9825 443.44303 446.35813 452.86863 458.7491 461.89964 467.36015 472.82066 475.73576 483.92625 487.07676 491.06727">anaphase I in which homologous chromosomes move to the opposite poles with</tspan><tspan y="-282.481" x="95.04 101.5477 107.4254 111.4131 118.340808 121.9212 125.908908 132.83661 138.29431 141.44202 146.05973 149.64012 155.09783 162.02553 166.64324 172.52094 182.38864 188.47635 192.46405 195.61176 202.11946 207.57717 210.93486 214.51526 222.07295 228.16066 233.61837 240.54607 244.12647 250.63417 256.51188 259.65959 265.11729 268.69767 273.31538 278.77308 284.23078 289.68849 292.83619 298.29389 303.7516 309.2093 312.78968 319.71739 325.80509 328.9528 332.3105 335.89088 339.87858 346.80628 352.26399 355.84437 361.30207 368.22978 372.84748 378.72517 388.59288 394.47056 399.92826 405.80595 415.67366 421.13136 424.71174 431.63945 438.77714 448.64485 455.15254 460.61024 465.22795 468.80833 474.686 478.0437 481.62409 485.6118 492.5395">both their chromatids. Each pole receives half the chromosome number of the</tspan><tspan y="-268.561" x="95.04 101.460018 107.46002 111.84 117.1617 123.9534 127.8051 130.19049 135.51219 140.8339 143.8456 146.8573 150.079 152.46439 155.89609 162.68779 165.07318 168.92488 174.24658 177.25829 182.99999 189.37169 196.16339 202.1151 207.4368 212.7585 215.14389 218.57559 221.79729 224.18268 228.03438 234.82608 240.14778 242.53318 249.32488 256.32658 261.64826 264.65995 269.98164 275.93333 280.415 282.8004 292.5321 297.8538 307.58549 313.95719 318.43888 324.39057 331.18226 336.50395 338.88935 344.84104 351.63273 358.00444 360.38984 367.18153 374.18324 379.5049 382.5166 387.8383 393.58 396.59169 403.59339 408.91508 411.30049 415.92 421.23 427.17 433.53004 439.89006 445.20005 451.14006 455.04 458.25703 460.63774 470.15473 475.4717 478.4787 484.2157 489.53269 492.53968">parent cell. In telophase I, the nuclear membrane and nucleolus reappear. Meiosis</tspan><tspan y="-254.4" x="95.04 98.4955 101.951 104.35811 107.39361 112.739109 115.14622 120.491718 123.527217 133.28272 136.31822 139.35373 145.32923 149.83472 152.24182 156.11733 161.88283 164.28993 174.04544 177.08095 180.95645 186.72196 192.06746 195.10297 200.44847 203.69397 206.10108 214.38658 221.41208 225.91757 228.95308 235.76859 241.32408 243.73119 249.70668 256.5222 262.49769 268.8932 275.70869 281.68418 287.02967 292.37516 294.7823 298.2378 301.6933 304.10044 307.97593 314.7914 320.1369 322.54405 327.88954 330.92503 336.2705 340.146 345.4915 349.99699 352.4041 357.7496 364.5651 369.0706 374.8361 384.59159 390.56709 394.44258 397.47807 403.87358 409.21907 411.6262 416.97169 422.31718 428.71269 434.68818 439.19367 445.16917 449.04466 454.39015 457.63566 460.0428 466.4383 473.25379 480.2793 485.6248 488.03193 494.00743">II is similar to mitosis. During anaphase II the sister chromatids separate. Thus at</tspan><tspan y="-240.481" x="95.04 99.024608 105.9492 111.4038 113.92091 119.37551 126.30011 132.8047 135.32181 141.19641 144.55101 147.06812 156.93271 162.38732 165.53192 171.40653 176.86113 180.00574 185.46035 187.97745 191.33205 197.20665 204.34125 208.95584 211.47295 218.39756 224.48215 230.98674 234.13135 240.00595 243.15056 249.65515 252.17226 257.62687 263.08146 266.22605 269.37065 274.82524 277.34236 283.42695 288.04154 293.49613 296.01325 299.36787 305.24247 309.85707 319.72166 325.17625 331.68086">the end of meiosis four haploid cells are formed.</tspan></text>
<text fill="#00aeef" xml:space="preserve" transform="matrix(1 0 -0 1 -18 802.8)" font-size="13" font-family="Bookman"><tspan y="-189.361" x="267.36">E</tspan></text>
<text fill="#00aeef" xml:space="preserve" transform="matrix(1 0 -0 1 -18 802.8)" font-size="9.1" font-family="Bookman"><tspan y="-189.361" x="276.72 283.7149 290.16383 297.15873 303.7896 307.3265 313.2294 319.6783">XERCISES</tspan></text>
<text fill="#231f20" xml:space="preserve" transform="matrix(1 0 -0 1 -18 802.8)" font-size="10" font-family="Bookman"><tspan y="-152.161" x="101.04 106.72061 119.04 128.642 135.24399 141.04598 144.84796 147.84496 150.84694 156.04894 159.04593 162.84792 169.4499 174.6519 177.6489 183.45088 188.65288 193.85488 198.25687 204.05886 209.46085 214.66284 217.65984 222.86183 228.06383 231.06581 234.0678 237.06479 242.26679 247.66878 252.87078 255.87276 261.07475 264.07176 269.27375 275.47575 281.27775 287.87974 290.87675 294.07875 299.68074 304.0827 307.0797 312.8817 315.87873 325.2807 331.0827 340.48469 349.88667 355.68867 358.69065 361.69264 367.49464 374.09663 377.09364 382.29563 387.49763 390.4996 393.5016">1.What is the average cell cycle span for a mammalian cell?</tspan><tspan y="-136.321" x="101.04 106.72061 119.04 127.03151 130.02303 135.21454 139.00605 141.99756 148.58907 153.98058 160.77208 163.7636 168.95511 175.54662 177.93813 183.12964 188.52115 192.31266 197.90416 204.09568 207.08719 213.6787 218.87021 224.06172 227.05324 232.24475 234.63626 237.82778 242.21929 247.81079 257.2023 259.5938 265.7853 271.5768 275.96833 281.35984 286.95137 293.14286 296.13438 302.7259 307.9174 313.1089 316.1004 321.2919">2.Distinguish cytokinesis from karyokinesis.</tspan><tspan y="-120.241" x="101.04 106.72061 119.04 127.0409 132.2418 137.4427 142.6436 147.0445 150.0454 156.24629 161.44719 164.48979 168.2907 174.8916 180.0925 183.1351 188.336 193.5369 198.7378 205.3387 209.1396 214.3405 217.3831 221.184 226.98491 233.1858 236.1867 242.78762 248.1885 251.23111 257.432 260.4329 266.2338 271.4347 276.6356 279.6782 285.8791 292.68 297.0809 300.0818 306.68269 312.0836 315.1262 318.12709 324.72798 328.52888 333.72978 338.13069 344.33158 350.93247 356.73338 361.93428 367.13517">3.Describe the events taking place during interphase.</tspan><tspan y="-104.161" x="101.04 106.72061 119.04 128.646 135.25199 141.05797 144.86396 147.76995 150.77594 155.98194 158.88">4.What is G</tspan></text>
<text fill="#231f20" xml:space="preserve" transform="matrix(1 0 -0 1 -18 802.8)" font-size="7" font-family="Bookman"><tspan y="-100.8" x="166.8">o</tspan></text>
<text fill="#231f20" xml:space="preserve" transform="matrix(1 0 -0 1 -18 802.8)" font-size="10" font-family="Bookman"><tspan y="-104.161" x="170.64 173.5178 176.51561 182.31342 189.11122 192.10903 197.30684 202.50466 207.70247 212.90029 219.4981 223.2959 226.1737 232.37152 238.96933 244.76714 249.96495 255.16277 258.16059 261.0384 266.6362 269.834 272.71183 277.90965 283.10746 286.10527 289.10307 291.98088 297.17869 302.57649 307.7743 310.7721 315.9699"> (quiescent phase) of cell cycle?</tspan></text>
<g clip-path="url(#clip_1181)">
<text xml:space="preserve" transform="matrix(1 0 -0 1 259.314 763.9998)" font-size="8" font-family="Arial"><tspan y="6.316" x="0"> </tspan></text>
</g>
</g>
</svg>
