<svg xmlns="http://www.w3.org/2000/svg" xmlns:xlink="http://www.w3.org/1999/xlink" xmlns:inkscape="http://www.inkscape.org/namespaces/inkscape" version="1.1" width="576" height="784.8" viewBox="0 0 576 784.8">
<defs>
<clipPath id="clip_3380">
<path transform="matrix(1,0,0,-1,-18,802.8)" d="M18 18H594V802.8H18Z" clip-rule="evenodd"/>
</clipPath>
<clipPath id="clip_3381">
<path transform="matrix(.23999998,0,0,-.23999998,-18,802.8)" d="M1044 1451H2073V476H1044Z"/>
</clipPath>
<clipPath id="clip_3382">
<path transform="matrix(1,0,0,-1,259.314,763.9998)" d="M0-8H57.372V.800049H0Z"/>
</clipPath>
</defs>
<g clip-path="url(#clip_3380)">
<path transform="matrix(.23999998,0,0,-.23999998,-18,802.8)" d="M2 2H2548V214.67H2Z" fill="#cbdf7f" fill-rule="evenodd"/>
<path transform="matrix(.23999998,0,0,-.23999998,-18,802.8)" stroke-width="4" stroke-linecap="butt" stroke-miterlimit="1000" stroke-linejoin="miter" fill="none" stroke="#cbdf7f" d="M2 2H2548V214.67H2Z"/>
<path transform="matrix(.23999998,0,0,-.23999998,-18,802.8)" d="M0 3035.83H2550V3372.7003H0Z" fill="#d1d3d4" fill-rule="evenodd"/>
<path transform="matrix(.23999998,0,0,-.23999998,-18,802.8)" d="M0 3078.33H2550V3420H0Z" fill="#e1ecb6" fill-rule="evenodd"/>
<path transform="matrix(.23999998,0,0,-.23999998,62.63616,53.635194)" d="M0 0C7.32 7.32 16.16 10.98 26.52 10.98H97.35C107.71 10.98 116.55 7.32 123.87 0 131.19-7.33 134.85-16.17 134.85-26.52V-101.52C134.85-111.88 131.19-120.72 123.87-128.04 116.55-135.36 107.71-139.02 97.35-139.02H26.52C16.16-139.02 7.32-135.36 0-128.04-7.32-120.72-10.98-111.88-10.98-101.52V-26.52C-10.98-16.17-7.32-7.33 0 0" fill="#ffffff" fill-rule="evenodd"/>
<text fill="#231f20" xml:space="preserve" transform="matrix(1 0 -0 1 -18 802.8)" font-size="11" font-family="Bookman"><tspan y="-729.361" x="87.12 94.409999 101.69999">178</tspan></text>
<text fill="#231f20" xml:space="preserve" transform="matrix(1 0 -0 1 -18 802.8)" font-size="11" font-family="Bookman"><tspan y="-729.361" x="513.12">B</tspan></text>
<text fill="#231f20" xml:space="preserve" transform="matrix(1 0 -0 1 -18 802.8)" font-size="7.69999" font-family="Bookman"><tspan y="-729.361" x="521.04 523.4336 529.3692 533.76486 539.70046 545.63607">IOLOGY</tspan></text>
<path transform="matrix(.23999998,0,0,-.23999998,-18,.35998536)" stroke-width="1" stroke-linecap="butt" stroke-miterlimit="10" stroke-linejoin="miter" fill="none" stroke="#000000" d="M0 0H60"/>
<path transform="matrix(.23999998,0,0,-.23999998,.12000084,-18)" stroke-width="1" stroke-linecap="butt" stroke-miterlimit="10" stroke-linejoin="miter" fill="none" stroke="#000000" d="M0 0V-60"/>
<path transform="matrix(.23999998,0,0,-.23999998,-18,784.68)" stroke-width="1" stroke-linecap="butt" stroke-miterlimit="10" stroke-linejoin="miter" fill="none" stroke="#000000" d="M0 0H60"/>
<path transform="matrix(.23999998,0,0,-.23999998,.12000084,788.16)" stroke-width="1" stroke-linecap="butt" stroke-miterlimit="10" stroke-linejoin="miter" fill="none" stroke="#000000" d="M0 0V-60"/>
<path transform="matrix(.23999998,0,0,-.23999998,593.64,784.56)" stroke-width="1" stroke-linecap="butt" stroke-miterlimit="10" stroke-linejoin="miter" fill="none" stroke="#000000" d="M0 0V-75"/>
<g clip-path="url(#clip_3381)">
<path transform="matrix(.23999998,0,0,-.23999998,356.3448,455.11204)" d="M0 0C282.3 0 512.55-219 512.55-487.5 512.55-756.01 282.3-975 0-975-282.31-975-512.56-756.01-512.56-487.5-512.56-219-282.31 0 0 0" fill="#fffcd5" fill-rule="evenodd"/>
</g>
<text fill="#231f20" xml:space="preserve" transform="matrix(1 0 -0 1 -18 802.8)" font-size="10.5" font-family="Bookman"><tspan y="-689.761" x="193.44 198.2166 204.2532 207.5598 213.1764 218.36801 221.6746 228.7612 233.9528 239.56941 245.18602 250.80263 257.46925 262.66084 269.32743 274.94404 280.56065 286.17726 289.48387 295.52046 302.18705 312.21366 317.83027 324.91688 329.06349 332.58009 337.77168 347.79829 354.0449 358.1915 365.4881 370.2647 376.51133 380.65794 383.96455 390.00114 397.08775 402.27934 408.52595 415.61256 422.27915 427.47074 434.13734 440.17393 444.95054 454.97715 461.22377 468.31037 473.92698 479.75358 483.27018 488.46177 496.38838 502.21498 507.40657 510.71318 517.79977 524.4664 531.76296 537.3795 540.6861 547.7727">role in seed development, maturation and dormancy. By inducing</tspan><tspan y="-674.161" x="193.44 200.026 205.982 210.678 220.624 226.79 233.79599 239.33199 245.07799 248.51399 251.11112 258.32713 266.17314 273.38914 275.98625 282.99226 288.52827 291.75428 298.34028 303.87629 306.4734 312.0094 317.5454 323.08143 329.66743 335.20344 337.80055 341.86656 347.82255 350.41966 358.68565 361.91166 365.97767 372.98368 378.51969 382.5857 388.7517 395.75773 402.34373 404.94084 411.52684 417.06285 422.59886 425.82487 431.36088 436.89689 443.0629 447.1289 450.35493 456.3109 463.31694 465.91404 472.08006 479.08607 485.67207 488.26918 494.22517 498.29118 505.29719 510.8332 515.5292 518.1263 521.56228 527.7283 533.2643 537.33029 543.28628 547.98226">dormancy, ABA helps seeds to withstand desiccation and other factors</tspan><tspan y="-658.561" x="193.44 200.61359 207.57718 210.97077 217.09436 222.58795 228.50154 235.67513 240.32872 246.45232 252.99591 256.1795 261.6731 264.2317 267.62528 273.53889 278.19248 280.75108 286.45466 291.10826 297.02186 305.24546 309.26905 316.23265 319.62623 322.1848 325.7884 332.75199 335.31059 345.21418 351.12779 356.62138 360.64497 363.20356 368.69715 371.88075 375.90434 383.0779 389.2015 393.2251 396.4087 402.3223 409.2859 414.77949 418.17308 420.73167 427.90525 435.70884 442.88243 445.441 451.5646 457.0582 461.0818 466.57539 469.13398 475.25758 480.75117 483.30976 489.43336 496.39695 498.95555 505.07914 512.0427 516.0663 522.1899 527.8935 533.80709 540.7706 543.9542 549.4478">unfavourable for growth. In most situations, ABA acts as an antagonist</tspan><tspan y="-642.961" x="193.44 197.53 203.51 206.22 214.72 221.96 227.52">to GAs.</tspan><tspan y="-628.321" x="211.44 221.28 227.0998 232.4946 242.7244 249.1742 255.204 260.5988 266.41859 273.91838 284.14817 294.37797 300.82777 305.80757 309.31736 315.13716 320.95695 326.3517 330.7015 337.9913 344.4411 348.7909 354.18568 357.90547 364.14527 369.12507 374.51985 380.96965 388.25944 394.2892 399.684 406.1338 413.42359 420.2934 425.68818 431.50798 437.32777 443.14756 448.12736 454.15715 459.5519 466.42173 473.71153 480.16133 485.9811 491.8009 497.19569 503.4355 507.15528 512.55007 518.57986 523.68 529.9125 538.45498 542.7974 550.0799">We may summarise that for any and every phase of growth,</tspan><tspan y="-614.4" x="193.44 199.83202 202.86403 206.10604 209.34804 214.69005 219.19207 224.53408 231.34609 235.2181 238.2501 244.22212 248.09413 251.12615 256.88816 263.70018 266.10588 272.07789 278.8899 285.2819 287.6876 294.0796 299.4216 304.7636 310.10563 313.13764 318.89967 325.29167 335.04368 340.38569 347.1977 351.0697 353.4754 359.23744 362.47944 364.88514 371.27714 374.30915 380.28117 387.09318 390.96519 396.3072 399.5492 401.9549 407.71693 414.52894 419.87095 422.27665 428.03868 432.54069 434.94639 438.8184 445.6304 450.9724 453.3781 459.14015 463.01216 469.82417 475.16618 479.66819 482.07389 488.46589 496.7479 504.1899 506.5956 513.4076 519.3796 524.72158 527.12728 532.46926 538.23129 547.9833">differentiation and development of plants, one or the other PGR has some</tspan><tspan y="-600.241" x="193.44 198.05832 203.93663 207.08495 212.54326 215.75157 219.73989 225.6182 228.8265 235.33483 238.48314 244.57146 250.23976 253.59807 256.8064 263.7347 270.87303 276.33134 283.25965 286.46797 291.08628 296.96458 300.11289 305.5712 311.0295 314.23783 319.69615 325.57444 332.71275 335.86106 342.36936 345.57768 352.08598 357.54429 360.7526 366.2109 372.0892 381.95753 388.46583 391.61415 394.76246 404.63078 410.08909 417.0174 421.0057 427.09403 431.71235 437.38066 440.58897 446.46726 451.08558 454.29389 460.3822 467.31053 471.29884 477.38716 483.05546 488.93376 495.86207 499.01039 504.4687 508.457 511.60533 517.0636 520.42196 523.6303 530.1386 537.0669 542.5252 547.9835">role to play. Such roles could be complimentary or antagonistic. These</tspan><tspan y="-586.321" x="193.44 198.89362 204.76723 211.90084 215.04445 221.54807 224.06418 230.5678 236.02141 238.53752 241.68114 248.60475 255.10837 258.25199 263.7056 266.8492 273.3528 280.48643 286.57005 289.71366 292.85728 298.31089 302.2945 305.4381 310.89173 313.40785 319.28144 323.89506 326.41117 331.86479 337.52839 344.452 349.9056 354.51924 360.18284 363.32646 368.78007 372.76368 375.9073 381.3609">could be individualistic or synergistic.</tspan><tspan y="-572.4" x="211.44 218.36762 221.51523 231.38285 234.53046 237.67807 243.76569 248.3833 251.53092 257.19853 260.55613 264.2098 268.19743 275.12504 280.58265 285.20027 290.65788 294.31156 300.39918 305.01679 310.4744 314.12809 320.2157 323.8694 330.797 337.9346 347.80223 354.3098 359.76744 364.38505 368.03874 373.91636 377.27397 380.92765 386.38526 391.84288 397.30049 404.2281 408.2157 413.6733 417.327 420.4746 427.40223 431.0559 435.04353 441.97114 447.42875 451.08244 454.23005 457.37767 460.73527 466.19288 469.84657 475.72419 479.0818 482.73548 488.8231 492.47679 498.98439 502.132 508.2196 515.1472 519.1348 522.7885 530.97616 537.90377 543.3613 547.97897">Similarly, there are a number of events in the life of a plant where</tspan><tspan y="-558.241" x="193.44 203.21712 209.00423 213.53134 218.89846 221.32807 225.22518 232.06229 238.0594 244.89652 247.32613 253.11324 259.95036 265.31745 267.74708 274.16419 282.47129 289.9384 292.368 295.4251 302.2622 306.15934 311.52644 316.05354 322.05064 327.41773 331.31486 333.74449 337.6416 343.4287 345.85835 351.85545 355.12257 358.38969 363.75679 369.12388 373.021 375.45063 379.34776 386.18486 392.18196 396.07908 398.5087 403.8758 409.2429 414.61 421.44709 425.3442 428.61134 431.04096 436.40806 439.67518 445.2523 448.5194 451.78654 454.21617 460.63328 466.42039 470.94749 480.72459 486.72169 493.55879 498.92588 504.503 506.93263 509.98973 516.82687 519.2565 524.6236 529.9907 535.35787 541.77499 547.1421">more than one PGR interact to affect that event, e.g., dormancy in seeds/</tspan><tspan y="-544.321" x="193.44 199.8765 206.943 213.37949 218.76599 222.05249 224.499 230.51549 236.95198 242.33849 247.72499 250.8015 256.188 261.5745 264.651 270.4575 277.314 280.6005 283.047 288.4335 293.82 300.6765 306.06303 311.44953 316.83604 322.22254 329.07905 334.46556 339.85206 343.13856 345.58506 351.60157 358.03807 361.11457 366.50108 372.51759 375.5941 378.0406 384.47709 390.28358 400.08009 403.1566 410.0131 416.0296 422.8861 428.2726 433.65913 436.94563 439.39213 444.77864 448.69514 454.08164">buds, abscission, senescence, apical dominance, etc.</tspan><tspan y="-530.4" x="211.44 218.9871 224.43422 234.29134 239.73845 249.59557 256.09269 261.5398 265.68 269.0108 272.7291 276.68989 283.59068 289.02146 292.73976 297.6 303.4824 306.6348 312.0972 315.84709 321.72947 325.09187 328.84175 335.35414 343.75654 351.3189 355.0688 358.2212 363.6836 367.43348 373.31587 376.67826 380.42814 386.31053 393.24293 396.39533 402.06773 405.8176 411.69999 418.6324 424.0948 427.84468 434.35707 437.50947 444.44187 450.95426 454.70414 460.58653 463.9489 467.6988 470.8512 477.7836 481.776 486.39839 489.55079 496.4832 501.9456 505.098 510.5604 514.3103 519.7727 525.6551 532.58749 536.57986 541.2 547.125 550.32">Remember, the role of PGR is of only one kind of intrinsic control.</tspan><tspan y="-516.241" x="193.44 200.5239 203.6178 209.4417 216.3156 221.9295 224.39839 232.53229 235.62619 239.56009 246.43399 248.90288 254.51679 259.9207 266.7946 272.6185 282.4324 285.5263 290.9302 293.3991 298.803 304.62693 311.50083 315.43473 319.99864 325.82255 328.91645 331.38536 337.41926 344.29316 350.74705 353.21595 358.61985 364.44377 368.37767 372.94157 376.03547 382.90937 388.31327 391.40718 396.81108 399.27998 402.58387 408.61778 414.02168 417.95558 423.77949 428.34339 433.74729 437.05119 439.52009 443.45399 450.32789 455.73179 461.34568 463.81459 470.26847 473.36238 479.39628 485.01017 487.47908 493.51298 500.38688 502.85578 505.94969 515.76358 522.21749 528.0414 532.6053 536.5392 542.57308 549.44699">Along with genomic control and extrinsic factors, they play an important</tspan><tspan y="-502.321" x="193.44 197.99822 203.81642 206.90464 212.30284 214.76474 217.85295 224.72116 227.18308 233.63129 236.7195 242.74771 249.61592 253.54413 256.00605 261.61427 266.17247 271.99067 280.11888 284.0471 290.9153 293.37724 299.40544 306.27366 312.72187 315.18379 321.632 327.0302 332.42845 337.82667 340.91487 346.73307 353.18128 362.98948 368.3877 375.25593 379.18415 382.48237 384.94429 394.54249 400.57069 407.4389 413.04713 415.50904 421.32725 424.62547 427.08738 431.0156 437.88383 443.28205 445.74397 451.14219 456.9604 460.8886 465.4468 468.535 475.40324 480.80146 483.88966 489.28788 491.7498 495.048 501.0762 506.47444 510.40266 516.2209 520.7791 526.1773 528.6392 534.0374 541.1156 546.5138">role in plant growth and development. Many of the extrinsic factors such</tspan><tspan y="-488.4" x="193.44 199.4101 204.7502 207.15529 211.02539 216.3655 226.1156 232.5057 237.84581 242.34592 248.31601 252.18611 259.2062 263.7063 269.0464 271.4515 277.4216 284.2317 290.6218 293.02693 296.057 299.0871 304.6372 311.4473 315.31739 318.5575 320.96263 326.3027 332.0628 338.8729 342.74299 347.24308 353.00318 356.03327 358.4384 364.8285 367.85859 373.82868 380.63877 384.50886 386.91398 392.46409 396.96418 402.72428 410.79438 414.66447 421.47456 423.87968 429.84977 436.65986 443.04997 445.45509 451.84519 457.18528 462.52537 467.86546 470.89555 476.65565 483.04576 492.79585 498.13594 504.946 508.8161 511.22123 516.56137 519.59146 525.5615 527.9666 534.3567 542.6368 550.0769">as temperature and light, control plant growth and development via PGR.</tspan><tspan y="-474.241" x="193.44 200.3677 206.2454 216.11312 221.57082 224.32303 230.20073 233.55843 236.31064 241.76834 248.90604 254.36374 261.29145 264.04365 269.50135 274.95906 280.41676 287.34446 291.33216 296.78987 299.54206 304.99977 310.87745 318.01515 321.16285 327.67054 330.42274 336.93043 342.38813 345.74583 348.49803 353.95573 359.41343 364.03114 370.95884 377.04655 380.19425 383.34196 388.79966 394.88737 398.87507 402.02278 407.90046 414.82817 418.18586 420.93806 424.29576 427.44346 433.32115 441.50886 446.96656 451.58427 454.73197 461.65968 467.32737 470.68507 473.43727 479.94496 485.82264 490.44035 500.30805 506.39576 513.3234 518.7811 524.44888 527.8066 530.55886 536.01657 541.47427 546.93197">Some of such events could be: vernalisation, flowering, dormancy, seed</tspan><tspan y="-460.321" x="193.44 199.013 204.376 208.899 218.672 221.72499 228.55799 234.55098 238.44399 241.49698 247.27999 254.11298 257.37599 259.8057 266.2187 269.2717 275.2647 282.09773 285.99073 288.42045 298.19346 303.97645 309.33946 314.70246 324.47547 329.83848 336.67149 340.56449 345.9275 349.1905 351.6202 356.98323 360.87623 366.23924">germination, plant movements, etc.</tspan><tspan y="-446.4" x="211.44 220.8 226.0538 228.3701 233.6239 240.3477 246.2315 249.17531 252.11911 254.43541 260.7392 263.68299 268.9368 274.1906 281.12443 286.37825 291.63206 293.94837 300.25218 304.66596 307.60975 312.86357 316.01737 318.96116 324.42497 326.74128 330.5251 337.24888 342.5027 344.819 349.44 355.1235 358.077 363.34049 365.6665 371.35 374.51353 376.83955 379.79304 382.74653 388.22004 394.95353 398.747 401.07304 406.96653 413.7 420.01353 422.33955 426.13304 431.3965 441.07 447.3835 452.647 457.0705 462.964 466.75749 473.701 478.08 483.3415 485.6655 488.617 494.9285 500.61 504.4015 511.133 513.45706 519.13858 522.30007 524.6241 528.4156 535.1471 540.40859 550.0801">We shall discuss briefly the role of light and temperature (both of them,</tspan><tspan y="-432.241" x="193.44 197.36551 204.23102 209.62653 212.08876 217.48427 223.29978 227.22528 231.78079 234.8663 241.73181 247.12732 250.21283 255.60834 258.07057 261.36607 267.39158 272.78709 276.7126 282.5281 287.08363 292.47914 295.56465 298.02687 303.84239 310.7079 313.1701 316.2556 323.12113 326.20664 330.13215 333.21766 339.24317 343.16868 346.25419 352.0697 358.9352 361.39744 367.21296 370.50846 372.97068 376.26618 379.35169 385.1672 393.29273 398.68824 403.24375 406.32926 413.19477 418.80027">the extrinsic factors) on initiation of flowering.</tspan></text>
<text fill="#00aeef" xml:space="preserve" transform="matrix(1 0 -0 1 -18 802.8)" font-size="13" font-family="Bookman"><tspan y="-384.961" x="346.56">S</tspan></text>
<text fill="#00aeef" xml:space="preserve" transform="matrix(1 0 -0 1 -18 802.8)" font-size="9.1" font-family="Bookman"><tspan y="-384.961" x="355.68 362.6182 371.37638 380.13456 386.89076 394.19294">UMMARY</tspan></text>
<text fill="#231f20" xml:space="preserve" transform="matrix(1 0 -0 1 -18 802.8)" font-size="10.5" font-family="Bookman"><tspan y="-346.321" x="193.44 201.714 206.20801 211.962 220.026 223.89 230.694 233.0896 236.1136 241.4476 243.8432 249.5972 256.40119 261.7352 264.13084 269.88484 273.11885 275.51448 279.37849 286.18247 291.51649 293.9121 303.6561 309.4101 314.7441 318.60813 321.00376 326.33778 332.09178 338.89576 344.22978 350.61378 353.63777 358.97178 365.98579 371.73979 378.75379 384.0878 386.48344 391.81745 397.15147 402.48548 409.28947 413.15348 418.4875 420.88313 423.9071 430.7111 433.10673 439.0707 445.8747 451.4187 453.81434 456.83833 459.8623 465.19633 468.2203 475.0243 480.5683 482.96394 488.71794 493.2119 498.75593 504.7199 511.5239 514.5479 519.8819 529.6259 532.8599 535.25558 538.6995 542.56356 544.95919 547.98318">Growth is one of the most conspicuous events in any living organism. It is</tspan><tspan y="-332.4" x="193.44 199.3005 206.001 208.2965 211.217 215.6075 219.998 225.2285 230.459 235.6895 240.08 245.3105 248.231 254.5115 257.432 262.6625 264.958 267.8785 274.579 279.8095 284.2 289.4305 295.29103 300.5215 305.752 308.04753 313.278 318.92854 325.209 329.59953 334.83003 340.06053 345.29103 350.5215 356.802 359.0975 362.018 368.7185 371.014 377.2945 383.155 387.5455 393.406 403.0465 408.277 412.0375 417.268 421.6585 426.889 429.1845 434.415 441.3255 446.556 453.2565 455.552 461.4125 466.643 468.9385 474.169 477.0895 481.9 487.1305 490.261 492.5565 498.417 502.8075 508.038 513.8985 517.029 519.32449 522.24496 527.47549 534.17599 539.61648 543.37698 550.07748">an irreversible increase expressed in parameters such as size, area, length,</tspan><tspan y="-318.241" x="193.44 200.367 205.824 208.97101 214.63802 221.56502 225.55202 228.90901 233.5847 239.0417 244.9187 248.0657 255.2027 265.0697 270.5267 273.8837 278.5594 284.0164 289.4734 292.6204 295.7674 300.44309 307.3701 314.50709 324.37409 330.88108 336.33808 340.95509 345.63078 351.08778 355.07478 360.53178 363.88877 368.56446 372.13145 376.11845 380.79414 386.25114 392.12815 399.05516 404.51216 411.01914 414.16615 419.62315 426.76014 432.63716 439.77415 445.23115 448.37815 454.04515 458.72084 461.86784 468.79484 474.25184 480.12886 483.27586 488.73286 494.18986 499.64686 504.32255 507.46955 514.39657 519.8535 524.4705 529.9275 536.01449 541.47146 546.92849">height, volume, cell number etc. It conspicuously involves increased</tspan><tspan y="-304.321" x="193.44 199.89182 204.45363 210.27544 214.20725 220.02906 226.48087 229.57268 235.60449 241.0063 250.81812 253.90993 259.31175 261.77857 271.59037 277.62217 281.554 286.9558 291.5176 294.6094 300.6412 303.733 307.03483 309.50166 313.01347 319.88526 322.35209 328.8039 331.8957 337.9275 344.7993 348.7311 354.13294 357.43476 359.90159 369.71339 375.1152 379.677 382.7688 388.17063 392.10246 397.50428 407.31608 412.7179 415.18473 421.21653 425.77833 431.18016 433.64698 437.5788 444.4506 449.85243 452.31925 457.72108 460.81288 464.7447 470.1465 475.54835 478.01518 483.83699 487.1388 489.60563 495.21745 499.77925 505.60105 513.73287 517.6647 524.5365 527.8383 530.3051 537.80697 543.6288 549.4506">protoplasmic material. In plants, meristems are the sites of growth. Root</tspan><tspan y="-290.4" x="193.44 199.5273 206.4546 212.9619 215.4835 220.94081 227.86812 233.74542 239.62273 243.61003 246.13164 252.21894 258.72624 261.87355 267.33085 273.41816 276.56547 279.08708 288.95439 294.41169 299.029 302.1763 307.6336 311.6209 317.07823 326.94554 332.40284 334.92445 340.38175 346.25904 356.12635 361.58366 365.57096 368.71827 378.58558 384.04289 389.50019 392.0218 398.1091 401.2564 407.1337 414.061 419.7283 427.9156 431.0629 435.0502 441.9775 444.4991 447.64643 454.57374 458.56105 464.01835 468.63566 474.09297 480.18028 483.32759 489.4149 494.0322 499.6995 502.2211 512.0884 517.54568 522.16299 525.31027 530.7675 534.7548 540.2121 550.0794">and shoot apical meristems sometimes alongwith intercalary meristem,</tspan><tspan y="-276.241" x="193.44 198.716 204.412 211.158 214.964 219.40001 222.36602 228.69202 235.64801 239.45401 244.73001 247.071 250.877 256.573 258.914 262.72 269.466 274.742 277.083 282.359 285.325 291.02104 297.76704 303.25303 309.15904 312.96504 315.93104 321.62705 328.37306 330.71406 336.20005 340.63606 346.33207 354.33808 358.14408 364.89009 367.23109 372.9271 376.1031 378.4441 384.77009 387.73609 393.6421 400.3881 404.1941 406.5351 412.4411 418.13713 423.41313 428.68913 431.8651 434.20613 442.42213 446.85813 452.55415 460.56016 464.36616 471.11216 473.45317 476.41917 481.69517 484.03617 487.00218 493.74818 500.07417 505.35017 509.15617 514.4321 518.8681 528.5541 531.5201 538.26608 544.17208 547.9781">contribute to the elongation growth of plant axes. Growth is indeterminate</tspan><tspan y="-262.321" x="193.44 196.47962 203.29923 205.71253 212.53214 215.57175 221.13137 227.95098 233.30059 237.8102 240.2235 246.62311 249.66272 255.64234 262.46195 266.34156 271.69117 274.94078 277.35408 283.96369 289.7333 292.77293 295.81254 301.58216 309.66178 312.7014 319.521 325.0806 327.4939 332.8435 338.1931 341.23274 344.27235 346.68565 353.08525 356.12486 361.47447 364.51408 369.86369 372.9033 378.6729 385.49253 387.90583 390.94544 397.76506 400.17835 404.68797 410.45759 416.2272 420.1068 422.5201 428.49974 435.31935 441.71894 444.13224 449.48185 456.30146 462.07109 467.8407 471.7203 474.1336 480.11323 486.51283 489.55244 494.90205 500.88166 503.92127 506.33457 516.0942 521.4438 525.95339 528.993 534.3426 538.2222 543.57186">in higher plants. Following cell division in root and shoot apical meristem</tspan><tspan y="-248.4" x="193.44 198.89781 204.35562 207.50344 210.65125 216.10906 219.46686 222.06107 226.04888 232.97669 238.4345 241.0287 246.69652 251.31433 257.19215 265.37995 269.36778 276.29557 278.8898 284.34764 290.22544 297.36326 300.51106 307.01887 309.6131 316.1209 321.57875 324.17298 330.26078 334.87858 338.02638 342.0142 348.942 358.80979 364.2676 368.25544 371.40324 376.86106 379.4553 385.3331 389.9509 392.54515 398.21296 403.67079 409.54859 419.41639 424.8742 428.86204 433.47984 436.62763 442.08546 448.17326 451.32106 454.67887 457.2731 465.6709 470.2887 476.1665 484.3543 488.34214 495.26994 497.86418 507.73197 513.81979 519.48757 522.0817 529.0095 534.8873 538.8751 541.4693 547.9771">cells, the growth could be arithmetic or geometrical. Growth may not be</tspan><tspan y="-234.241" x="193.44 199.53 206.45999 212.96999 215.8339 221.50389 226.9639 233.89389 239.3539 243.97389 250.06389 253.21389 256.3639 262.0339 264.8978 268.0478 273.50779 276.37168 283.30168 289.18168 293.17167 296.03556 301.49555 308.63557 314.09556 318.08555 324.17555 327.32554 334.25553 339.7155 346.22554 349.08943 355.1794 359.1694 362.0333 368.1233 370.98719 377.91719 381.06718 386.73719 393.66719 396.53108 401.15107 407.24107 411.23106 416.69105 419.55494 423.54493 430.4749 435.0949 440.9749 448.11494 453.78495 460.71495 466.59495 473.73497 477.72496 480.58885 484.57884 491.50883 496.9688 499.8327 502.9827 506.1327 509.49269 514.9527 517.8166 523.6966 527.0566 529.9205 535.3805 540.8405 543.99057 547.14059">and generally is not sustained at a high rate throughout the life of cell/</tspan><tspan y="-220.321" x="193.44 197.3484 200.41681 205.79521 211.17362 218.23201 223.61042 229.82881 235.62722 240.16562 245.75402 251.76242 258.6108 264.82923 270.62763 275.16603 280.75444 286.76283 293.6112 296.6796 302.05799 311.84638 315.1248 317.5657 325.8841 332.73249 338.11088 340.5518 345.93019 351.93858 358.78697 361.22789 367.65629 373.03468 376.31309 379.38148 386.22987 391.60826 394.04917 397.95756 404.80595 409.34434 414.72273 420.1011 422.54203 428.97044 433.50883 436.5772 443.4256 448.804 451.87239 458.30079 461.36918 466.74757 469.18849 475.61689 482.46528 488.47367 493.85206 499.23045 504.60884 507.04975 512.84817 516.1265 518.56747 524.1558 528.6942 534.4926 542.601 546.5094">tissue/organ/organism. One can define three principle phases of growth</tspan><tspan y="-206.4" x="193.44 198.6411 201.1165 205.0576 211.9387 217.34981 219.82521 222.92632 228.96743 234.58852 237.89962 240.37502 244.31612 251.19722 256.6083 259.0837 262.1848 268.0159 273.637 276.1124 282.1535 289.0346 295.4957 297.9711 301.9122 308.7933 314.2044 316.6798 322.0909 327.502 334.38313 339.79423 345.20533 350.61643 356.02754 362.90864 366.84974 369.32514 375.78623 382.66734 388.70845 394.11955 399.53065 402.84175 405.31715 415.34825 422.22935 427.64045 434.52156 436.99696 443.03807 445.51347 450.92457 456.33567 459.43678 462.53788 465.01329 468.11439 473.94548 479.35658 484.76768 490.17878 492.65419 496.59529 503.47639 508.88749 511.3629 516.774 522.81509 529.2762 535.31729 540.72836 543.8294 547.7705">&#x2013; the lag, the log and the senescent phase. When a cell loses the capacity</tspan><tspan y="-192.241" x="193.44 197.31061 203.07122 205.47293 211.86353 214.89412 220.23473 223.26532 229.65592 234.99652 238.23712 240.63884 243.66944 247.54004 249.94176 252.97235 258.31297 264.28358 270.67417 276.01478 278.41648 282.28709 288.04768 290.44938 296.83998 299.87059 303.11119 306.35179 311.69239 316.193 321.5336 328.3442 332.2148 335.24543 341.21604 345.08665 348.11726 353.87785 360.68846 363.92906 366.33076 374.61137 377.64198 380.88258 384.12318 389.46379 393.9644 399.305 406.1156 409.9862 413.0168 418.98744 422.85804 425.88865 431.64924 438.45985 440.86155 445.36216 450.70277 456.04338 463.06398 466.09458 469.96519 475.3058 477.7075 480.7381 487.5487 489.9504 496.341 501.6816 507.02223 512.3628 515.3934 521.154 527.5446 537.2952 542.6358 549.4464">to divide, it leads to differentiation. Differentiation results in development</tspan><tspan y="-178.321" x="193.44 199.22821 202.49642 204.92832 210.29653 214.19474 218.72295 225.77115 231.13936 235.03757 242.08577 246.61399 251.9822 257.3504 259.78233 263.68055 270.51875 276.51695 280.41517 282.84709 285.90528 291.2735 293.7054 299.07365 304.86186 314.64006 324.41825 329.78648 336.62467 341.9929 349.0411 353.5693 359.5675 363.46574 368.83396 371.26588 379.36408 382.42228 386.3205 393.1587 395.5906 399.48884 406.32704 411.69526 414.12718 417.3954 424.4436 431.2818 436.65003 440.54826 443.60646 449.39466 456.23286 458.66477 462.563 469.40119 474.7694 477.20133 482.56956 487.93778 490.99598 494.05418 499.4224 501.8543 505.12254 508.18074 515.0189 521.01718 524.0754 527.1336 532.7118 535.1437 541.9819 547.9801">of structures that is commensurate with the function the cells finally has</tspan><tspan y="-164.4" x="193.44 197.17441 202.79882 205.06822 211.32263 216.52704 220.89145 223.99587 229.62027 233.98468 243.59909 246.7035 248.97292 257.11735 262.32176 268.99617 274.20057 278.56498 284.39939 287.2938 289.5632 295.81764 300.18205 303.07646 309.75086 314.95527 317.84968 324.1041 326.9985 332.2029 337.40733 339.67674 342.78114 348.40556 352.76997 355.03938 361.2938 364.1882 367.2926 370.397 375.6014 379.96583 385.17024 391.84465 395.57905 398.47346 404.30787 408.04228 410.93669 416.5611 423.2355 425.5049 428.6093 434.23374 438.59815 440.86756 446.07197 451.27638 454.17079 457.0652 460.1696 462.439 466.1734 469.0678 474.27223 479.47663 486.36103 491.56544 496.76985 499.03926 504.87367 511.54808 517.8025 520.0719 525.6963 530.06069 535.4751 541.3095 547.98397">to perform. General principles for differentiation for cell, tissues and organs</tspan><tspan y="-150.241" x="193.44 199.14002 203.76 208.9161 211.13333 216.28945 219.13556 228.70168 231.54779 234.3939 240.18003 243.84 246.9196 249.16033 256.01994 258.26066 264.49028 267.35987 270.48 273.48 278.58003 283.2 288.35713 294.98423 298.67134 301.51844 307.30555 310.99266 316.14976 322.35685 324.57505 329.73216 334.88926 337.73637 340.58348 342.80168 352.36878 358.15589 363.52299 365.74119 371.94828 377.10539 383.31248 386.15959 389.52 392.52 397.62 402 407.1722 413.81443 417.51664 420.37886 426.18107 429.88328 435.05549 437.2888 443.091 449.73323 455.9554 458.18873 461.89094 468.53315 473.70536 480.34757 482.58088 486.96 492.1 498.29 501.12 504.48 507.48 512.58 517.2 522.3814 529.03286 532.74429 535.61569 541.42709 545.1385 550.3199">are similar. A differentiated cell may dedifferentiate and then redifferentiate.</tspan><tspan y="-136.321" x="193.44 200.3697 203.51941 210.44911 215.90882 221.36852 225.3032 231.81291 234.96262 238.32231 241.682 247.14171 251.76142 257.2211 264.1508 268.1405 271.2902 277.37989 281.36958 284.51927 290.39897 297.32865 301.26335 304.41304 311.3427 315.2774 321.7871 324.9368 331.0265 337.95619 341.94587 347.40556 351.34025 354.48994 359.94963 363.8843 369.764 376.2737 381.7334 388.6631 392.0228 395.9575 399.9472 406.8769 412.33659 416.27128 422.78099 428.24067 433.70036 439.16004 442.30973 448.18943 454.69914 464.56883 470.0285 476.9582 480.94789 484.88258 490.34226 496.22196 503.36167 506.51136 513.02108 516.95578 523.0455 526.1952 531.6549 537.5346 541.4693 547.979">Since differentiation in plants is open, the development could also be</tspan><tspan y="-122.4" x="193.44 196.7982 199.9464 205.4046 211.2828 214.431 220.9392 224.08739 229.5456 232.9038 236.30199 239.45018 242.80838 248.26659 251.62479 254.98299 258.38117 262.36936 269.29756 274.75575 278.15394 284.66215 290.12034 295.57853 301.0367 304.1849 310.0631 316.57133 326.4395 331.8977 338.8259 342.8141 346.21229 349.36048 354.81867 358.21687 362.20506 369.13325 374.59144 377.98963 383.4478 390.58604 400.45423 403.85243 409.73063 413.0888 416.487 422.1552 426.7734 432.6516 440.8398 444.828 451.7562 455.15437 461.24256 468.17076 474.67897 478.07716 484.58537 487.73356 491.09175 494.44996 499.90815 504.52635 509.98454 516.9127 520.90097 524.04916 530.1373 534.12557 537.27377 543.1519 550.08016">flexible, i.e., the development is the sum of growth and differentiation.</tspan><tspan y="-108.241" x="193.44 199.90671 203.01342 209.06012 215.94683 219.89353 222.37273 227.78943 233.62613 240.51284 243.61954 250.08625 253.19295 257.13966 259.61888 266.08558 269.19227 275.23896 280.65565 284.60234 287.709 293.1257 296.2324 300.17909 305.8058 308.285 311.3917 318.27839 320.7576 327.2243 332.641 338.05769 343.47438 346.58106 352.41777 358.88447 368.71116 374.12785 381.01454 384.9612">Plant exhibit plasticity in development.</tspan></text>
<g clip-path="url(#clip_3382)">
<text xml:space="preserve" transform="matrix(1 0 -0 1 259.314 763.9998)" font-size="8" font-family="Arial"><tspan y="6.316" x="0"> </tspan></text>
</g>
</g>
</svg>
