<svg xmlns="http://www.w3.org/2000/svg" xmlns:xlink="http://www.w3.org/1999/xlink" xmlns:inkscape="http://www.inkscape.org/namespaces/inkscape" version="1.1" width="576" height="784.8" viewBox="0 0 576 784.8">
<defs>
<clipPath id="clip_2112">
<path transform="matrix(1,0,0,-1,-18,802.8)" d="M18 18H594V802.8H18Z" clip-rule="evenodd"/>
</clipPath>
<clipPath id="clip_2113">
<path transform="matrix(1,0,0,-1,259.314,763.9998)" d="M0-8H57.372V.800049H0Z"/>
</clipPath>
</defs>
<g>
<g clip-path="url(#clip_2112)">
<path transform="matrix(.24,0,0,-.24,-18,802.8)" d="M2 2H2548V214.668H2Z" fill="#cbdf7f" fill-rule="evenodd"/>
<path transform="matrix(.24,0,0,-.24,-18,802.8)" stroke-width="4" stroke-linecap="butt" stroke-miterlimit="1000" stroke-linejoin="miter" fill="none" stroke="#cbdf7f" d="M2 2H2548V214.668H2Z"/>
<path transform="matrix(.24,0,0,-.24,-18,802.8)" d="M0 3035.83H2550V3372.705H0Z" fill="#d1d3d4" fill-rule="evenodd"/>
<path transform="matrix(.24,0,0,-.24,-18,802.8)" d="M0 3078.33H2550V3419.998H0Z" fill="#e1ecb6" fill-rule="evenodd"/>
<path transform="matrix(.24,0,0,-.24,62.63616,53.635194)" d="M0 0C7.325 7.32 16.164 10.98 26.516 10.98H97.352C107.707 10.98 116.547 7.32 123.868 0 131.192-7.33 134.852-16.17 134.852-26.52V-101.52C134.852-111.88 131.192-120.72 123.868-128.04 116.547-135.36 107.707-139.02 97.352-139.02H26.516C16.164-139.02 7.325-135.36 0-128.04-7.32-120.72-10.984-111.88-10.984-101.52V-26.52C-10.984-16.17-7.32-7.33 0 0" fill="#ffffff" fill-rule="evenodd"/>
<text fill="#231f20" xml:space="preserve" transform="matrix(1 0 -0 1 -18 802.8)" font-size="11" font-family="Bookman"><tspan y="-729.361" x="87.12 94.41 101.700008">150</tspan></text>
<text fill="#231f20" xml:space="preserve" transform="matrix(1 0 -0 1 -18 802.8)" font-size="11" font-family="Bookman"><tspan y="-729.361" x="513.12">B</tspan></text>
<text fill="#231f20" xml:space="preserve" transform="matrix(1 0 -0 1 -18 802.8)" font-size="7.7" font-family="Bookman"><tspan y="-729.361" x="521.04 523.4336 529.3692 533.76486 539.70046 545.63607">IOLOGY</tspan></text>
<path transform="matrix(.24,0,0,-.24,-18,.35998536)" stroke-width="1" stroke-linecap="butt" stroke-miterlimit="10" stroke-linejoin="miter" fill="none" stroke="#000000" d="M0 0H60"/>
<path transform="matrix(.24,0,0,-.24,.12000084,-18)" stroke-width="1" stroke-linecap="butt" stroke-miterlimit="10" stroke-linejoin="miter" fill="none" stroke="#000000" d="M0 0V-60"/>
<path transform="matrix(.24,0,0,-.24,-18,784.68)" stroke-width="1" stroke-linecap="butt" stroke-miterlimit="10" stroke-linejoin="miter" fill="none" stroke="#000000" d="M0 0H60"/>
<path transform="matrix(.24,0,0,-.24,.12000084,788.16)" stroke-width="1" stroke-linecap="butt" stroke-miterlimit="10" stroke-linejoin="miter" fill="none" stroke="#000000" d="M0 0V-60"/>
<path transform="matrix(.24,0,0,-.24,593.64,784.56)" stroke-width="1" stroke-linecap="butt" stroke-miterlimit="10" stroke-linejoin="miter" fill="none" stroke="#000000" d="M0 0V-75"/>
<text fill="#231f20" xml:space="preserve" transform="matrix(1 0 -0 1 -18 802.8)" font-size="10.5" font-family="Bookman"><tspan y="-688.561" x="192.24 195.3569 202.2538 207.6807 210.79759 217.27449 222.70139 229.59828 233.55518 236.04578 239.16268 242.27957 247.91648 254.81337 258.77027 261.26087 267.73777 273.16468 278.80158 284.64848 291.54539 298.02229 300.51289 306.5698 309.0604 315.5373 321.3842 324.5011 331.398 335.35493 337.84553 343.27244 349.32936 356.43626 361.86317 367.29008 372.71699 375.20759 379.1645 386.0614 391.4883 393.9789 400.4558 405.04273 410.46965 416.52656 423.00346 429.48036 435.32725 443.48414 450.38105 452.87165 458.71855 462.04545 464.53605 469.96296 476.85987 479.97679 485.82368 490.41059 496.25749 502.73439 509.6313 515.2682 518.3851 521.50198 523.99258 530.04946 536.94638 543.4233 545.9139">incident light beyond a point causes the breakdown of chlorophyll and a</tspan><tspan y="-674.401" x="192.24 198.6727 204.0554 209.43811 213.9808 219.36351 225.3762 230.75891 236.14162 238.59932 241.67201 248.52472 250.98242 257.41514 264.26783 270.07054 273.98323 279.78593 285.1686 290.76133 297.614 301.5267 308.3794 313.7621 319.14479 322.21748 327.60017">decrease in photosynthesis.</tspan></text>
<text fill="#00aeef" xml:space="preserve" transform="matrix(1 0 -0 1 -18 802.8)" font-size="12" font-family="Bookman"><tspan y="-648.241" x="192.24 200.40001 208.56002 212.94002 221.16002 229.38002 233.76003 246.24002 255.33832 262.51664 268.25495 275.67326 283.33155 291.70985 296.64 304.56004 308.69004 315.94004 322.95005 327.08006 334.57005 341.34004 346.08003 355.44 362.7055 370.691 377.4765 384.262 392.2475 397.593 402.93849 409.72398 415.06947 419.21498 426.48048">11.10.2Carbon dioxide Concentration</tspan></text>
<text fill="#231f20" xml:space="preserve" transform="matrix(1 0 -0 1 -18 802.8)" font-size="10.5" font-family="Bookman"><tspan y="-625.44107" x="192.24 200.0084 206.0968 210.71521 217.22362 223.10202 230.03043 234.89383 241.40224 244.55065 250.42905 256.30744 259.45585 265.96424 271.42265 276.28605 279.43446 284.89286 289.75627 293.74467 300.67308 306.13148 310.99488 320.86329 326.9517 330.1001 335.9785 340.5969 345.4603 348.6087 351.7571 361.62553 364.77394 368.76234 371.91075 378.83915 384.50755 389.37095 392.72935 398.81776 404.27616 408.26457 414.14295 418.76136 423.62477 426.98316 432.86155 437.47996 442.34336 448.85176 455.78016 461.65855 465.64695 471.52534 476.98374 482.65214 489.58055 493.56895 500.49736 505.95576 511.41416 514.56259 520.02096 523.37936 528.24276 533.10617 539.61459 546.54299">Carbon dioxide is the major limiting factor for photosynthesis.  The</tspan><tspan y="-610.32107" x="192.24 197.7028 203.5856 210.5184 215.9812 221.444 228.3768 232.3696 236.9924 243.0852 247.078 250.2308 256.11363 263.04643 266.5342 272.41703 275.77983 279.2676 287.0404">concentration of CO</tspan></text>
<text fill="#231f20" xml:space="preserve" transform="matrix(1 0 -0 1 -18 802.8)" font-size="6.1" font-family="Bookman"><tspan y="-606.96109" x="295.44">2</tspan></text>
<text fill="#231f20" xml:space="preserve" transform="matrix(1 0 -0 1 -18 802.8)" font-size="10.5" font-family="Bookman"><tspan y="-610.32107" x="299.28 302.7855 305.931 311.3865 314.892 320.3475 325.803 330.41853 336.084 339.5895 342.73503 348.6105 356.796 360.30149 363.447 370.3725 373.878 377.8635 384.789 390.2445 393.75 399.8355 403.821 413.68653 419.562 425.01753 431.523 438.44853 443.90403 448.51954 453.97505 457.48054 460.62605 467.13154 472.58705 476.57255 484.75804 490.21354 495.66905 502.59455 506.10005 512.6055 515.96109 522.46658 528.97207 532.4776 538.5631 545.4886"> is very low in the atmosphere (between 0.03 and</tspan><tspan y="-595.44107" x="192.23999 198.63619 201.88239 208.27858 214.67478 217.08348 223.47968 228.82588 233.33208 235.74079 241.08699 246.4332 253.24939 257.12559 260.16178 263.40797 265.81666 269.27287 276.08906 281.43525 285.94145 291.28764 297.26383 302.61003 307.9562 310.3649 313.4011 320.2173 322.62599 327.97218 333.73838 340.55458 345.90077 351.24696 358.06315 361.93934 366.44554 372.42173 376.2979 379.3341 385.1003 391.9165 394.3252 401.3514 407.74763 411.6238 417.39 419.7987 426.19493 429.4411 435.8373 442.23353 444.6422 451.03843 456.3846 460.8908 463.2995 468.6457 473.99189 480.80809 484.68428 487.09297 492.43916 498.41535 505.23155 507.64024 512.98648 518.96267 525.98886 531.335 536.6812 539.0899 545.0661">0.04 per cent). Increase in concentration upto 0.05 per cent can cause an</tspan><tspan y="-580.32107" x="192.23999 195.16619 201.87239 207.1086 211.50479 216.741 222.6072 227.8434 233.0796 235.39081 238.317 245.02321 247.33441 254.88062">increase in CO</tspan></text>
<text fill="#231f20" xml:space="preserve" transform="matrix(1 0 -0 1 -18 802.8)" font-size="6.1" font-family="Bookman"><tspan y="-576.96109" x="263.03999">2</tspan></text>
<text fill="#231f20" xml:space="preserve" transform="matrix(1 0 -0 1 -18 802.8)" font-size="10.5" font-family="Bookman"><tspan y="-580.32107" x="266.63999 268.93949 272.07789 275.0063 280.66468 286.53309 290.30149 293.2299 298.88829 305.59669 307.89619 312.2946 318.163 321.9314 327.1698 332.4082 335.5466 337.8461 344.1345 349.3729 354.8213 360.47969 367.18809 373.47648 375.77598 379.54438 386.25279 389.18119 394.4196 396.7191 400.4875 407.1959 412.4343 414.7338 417.6622 422.9006 428.139 433.3774 436.30583 441.54423 443.84373 449.08213 454.95054 461.65895 463.95845 470.24684 475.48524 480.72364 486.38203 496.03044 501.26884 503.56834 509.85673 515.7251 525.3735 531.2419 536.6903 539.6187 546.3271"> fixation rates; beyond this the levels can become damaging</tspan><tspan y="-565.44107" x="192.23999 198.10579 203.55159 208.99739 213.6032 216.124 219.2598 225.1256 232.0414 237.6972 243.143 247.74881 250.2696 256.7654 262.2112 266.81703 269.95283 275.81864 282.31443 287.76023">over longer periods.</tspan><tspan y="-550.32107" x="210.23999 216.73249 223.64499 229.0875 232.23">The C</tspan></text>
<text fill="#231f20" xml:space="preserve" transform="matrix(1 0 -0 1 -18 802.8)" font-size="6.1" font-family="Bookman"><tspan y="-546.96109" x="239.99999">3</tspan></text>
<text fill="#231f20" xml:space="preserve" transform="matrix(1 0 -0 1 -18 802.8)" font-size="10.5" font-family="Bookman"><tspan y="-550.32107" x="243.83998 246.99599 253.08199 260.008 266.514 269.66999"> and C</tspan></text>
<text fill="#231f20" xml:space="preserve" transform="matrix(1 0 -0 1 -18 802.8)" font-size="6.1" font-family="Bookman"><tspan y="-546.96109" x="277.43998">4</tspan></text>
<text fill="#231f20" xml:space="preserve" transform="matrix(1 0 -0 1 -18 802.8)" font-size="10.5" font-family="Bookman"><tspan y="-550.32107" x="281.27998 284.41688 290.92378 294.07069 300.1576 307.0845 311.0714 316.52833 319.66523 324.28215 329.73905 335.19596 341.70286 347.57975 354.50666 361.01356 364.15046 370.65736 373.80427 377.16117 380.51808 385.97499 390.5919 396.0488 402.9757 406.96263 410.10954 415.77644 418.91334 422.90025 428.77714 431.91404 439.68095"> plants respond differently to CO</tspan></text>
<text fill="#231f20" xml:space="preserve" transform="matrix(1 0 -0 1 -18 802.8)" font-size="6.1" font-family="Bookman"><tspan y="-546.96109" x="448.07997">2</tspan></text>
<text fill="#231f20" xml:space="preserve" transform="matrix(1 0 -0 1 -18 802.8)" font-size="10.5" font-family="Bookman"><tspan y="-550.32107" x="451.91996 455.05955 460.51585 466.39216 473.31846 478.77476 484.23106 491.15736 495.14366 499.75996 505.84626 509.83256 512.9788 518.8551 525.78146 531.23776 534.59408 537.7337 540.87338 548.00967"> concentrations.  At</tspan><tspan y="-535.44107" x="192.23996 195.38866 201.26737 209.45607 212.43358 215.58228 218.73097 224.39968 231.32837 235.31707 238.29457 243.75327 249.63196 256.56068 263.06938 266.21809 270.2068 273.3555 279.2342 286.1629 291.6216 294.59913 301.52784 306.98655 310.13526 314.12397 321.05268 326.51139 331.1301 334.1076 339.7763 344.39503 350.2737 357.4124 363.9211 366.89863 371.51734 376.97605 382.43476 388.94346 394.82215 401.75086 408.25956 413.71827 416.69578 420.68449 426.56318 429.54069 436.4694 439.6181 445.2868 452.2155 455.19303 462.96174">low light conditions neither group responds to high CO</tspan></text>
<text fill="#231f20" xml:space="preserve" transform="matrix(1 0 -0 1 -18 802.8)" font-size="6.1" font-family="Bookman"><tspan y="-531.84109" x="471.35997">2</tspan></text>
<text fill="#231f20" xml:space="preserve" transform="matrix(1 0 -0 1 -18 802.8)" font-size="10.5" font-family="Bookman"><tspan y="-535.44107" x="475.19996 478.17936 483.64207 489.52476 496.45747 502.97016 506.12287 510.11558 513.26828 519.15097 526.0836 531.5463 534.909 537.88839 540.86776 548.01046"> conditions.  At</tspan><tspan y="-520.32107" x="192.23996 199.13686 202.25376 207.89066 214.78755 217.28946 220.40636 223.52326 229.16016 236.05706 240.01395 242.51586 245.63275 252.52965 256.48655 261.91346 268.81037 274.23728 277.3542 281.3111 284.428 289.85493 295.28184 298.60874 301.11064 307.58753 313.43443 317.39134 324.28825 326.79014">high light intensities, both C</tspan></text>
<text fill="#231f20" xml:space="preserve" transform="matrix(1 0 -0 1 -18 802.8)" font-size="6.1" font-family="Bookman"><tspan y="-516.96109" x="334.55998">3</tspan></text>
<text fill="#231f20" xml:space="preserve" transform="matrix(1 0 -0 1 -18 802.8)" font-size="10.5" font-family="Bookman"><tspan y="-520.32107" x="338.15998 340.63798 346.69599 353.594 360.072 362.55"> and C</tspan></text>
<text fill="#231f20" xml:space="preserve" transform="matrix(1 0 -0 1 -18 802.8)" font-size="6.1" font-family="Bookman"><tspan y="-516.96109" x="370.31999 374.09819">4 </tspan></text>
<text fill="#231f20" xml:space="preserve" transform="matrix(1 0 -0 1 -18 802.8)" font-size="10.5" font-family="Bookman"><tspan y="-520.32107" x="375.59999 382.07429 385.18858 391.24287 398.13716 402.09147 407.51576 409.99845 415.42274 422.31703 428.16133 436.3156 438.7983 441.9126 448.8069 454.23118 458.81547 464.23976 470.29405 475.71833 481.1426 483.6253 486.7396 493.63389 496.11659 500.0709 506.96519 512.38949 514.87216 519.4564 525.51077 529.465 534.88937 540.31369 542.7963 548.6406">plants show increase in the rates of</tspan><tspan y="-505.44105" x="192.23998 198.75218 205.68439 211.56659 215.55879 221.441 226.9032 232.5754 239.5076 243.4998 250.432 255.89421 261.3564 264.5086 269.9708 273.333 277.29524 287.37745 294.30964 300.40184 304.394 308.35624 311.50843 316.9706 320.93284 324.08503 333.9572 340.46943 346.35163 350.97383 354.966 361.0582 367.9904 371.98258 375.9448 379.93699 385.81919 389.7814 396.7136 402.5958 406.58799 412.05018 416.0124 419.16459 424.62678 428.589 432.58119 439.51338 445.60557 449.59776 453.55998 457.55216 464.48435 469.94654 473.90876">photosynthesis. What is important to note is that the C</tspan></text>
<text fill="#231f20" xml:space="preserve" transform="matrix(1 0 -0 1 -18 802.8)" font-size="6.1" font-family="Bookman"><tspan y="-501.84104" x="481.68">4</tspan></text>
<text fill="#231f20" xml:space="preserve" transform="matrix(1 0 -0 1 -18 802.8)" font-size="10.5" font-family="Bookman"><tspan y="-505.44105" x="485.52 489.4773 495.9846 499.1319 505.2192 512.1465 516.1338 521.59109 525.54837 531.0056 537.9329 543.81027"> plants show</tspan><tspan y="-490.32106" x="192.23999 197.85739 204.1048 208.2522 215.54959 220.327 226.5744 230.7218 234.0292 240.0666 247.154 252.3464 258.5938 262.7412 267.9336 274.181 280.8484 286.8858 294.1832 298.3306 303.52299 310.19038 316.85777 323.52516">saturation at about 360 </tspan></text>
<text fill="#231f20" xml:space="preserve" transform="matrix(1 0 -0 1 -18 802.8)" font-size="10.5" font-family="Symbol"><tspan y="-490.32106" x="328.8">&#x00b5;</tspan></text>
<text fill="#231f20" xml:space="preserve" transform="matrix(1 0 -0 1 -18 802.8)" font-size="10.5" font-family="Bookman"><tspan y="-490.32106" x="334.8 338.09999">lL</tspan></text>
<text fill="#231f20" xml:space="preserve" transform="matrix(1 0 -0 1 -18 802.8)" font-size="7.4" font-family="Bookman"><tspan y="-493.92106" x="344.63999 347.7331">-1</tspan></text>
<text fill="#231f20" xml:space="preserve" transform="matrix(1 0 -0 1 -18 802.8)" font-size="10.5" font-family="Bookman"><tspan y="-490.32106" x="352.31999 357.51496 365.86497 372.95497 376.26496 379.57496 385.19496 390.38993"> while C</tspan></text>
<text fill="#231f20" xml:space="preserve" transform="matrix(1 0 -0 1 -18 802.8)" font-size="6.1" font-family="Bookman"><tspan y="-486.96107" x="398.39997">3</tspan></text>
<text fill="#231f20" xml:space="preserve" transform="matrix(1 0 -0 1 -18 802.8)" font-size="10.5" font-family="Bookman"><tspan y="-490.32106" x="402.23997 407.43205 412.20915 417.82624 423.44334 430.11045 436.14756 443.23466 449.90177 455.51887 460.71095 464.85804 470.89515 476.08723 479.39433 486.4814 492.0985 496.8756 502.4927 508.7398 514.35696 519.97409 526.6412 531.83328 539.7604"> responds to increased CO</tspan></text>
<text fill="#231f20" xml:space="preserve" transform="matrix(1 0 -0 1 -18 802.8)" font-size="6.1" font-family="Bookman"><tspan y="-486.96107" x="548.16">2</tspan></text>
<text fill="#231f20" xml:space="preserve" transform="matrix(1 0 -0 1 -18 802.8)" font-size="10.5" font-family="Bookman"><tspan y="-475.44108" x="192.23996 197.48627 203.15258 209.86887 215.11518 220.36148 227.07778 230.85408 235.26038 241.13668 244.91298 247.84928 253.51558 260.23188 262.54698 268.42329 275.1396 281.43589 283.75099 288.99729 294.8736 298.6499 305.5762 309.9825 315.85884 319.63514 322.57145 328.23774 334.95405 337.26914 340.20545 345.45176 347.76686 353.01316 358.25947 363.50578 370.22209 372.53718 378.20347 384.91978 387.85609 393.31239 395.62748 401.92378 407.17008 412.62638 418.29267 425.00898 431.30528 433.62037 439.91667 446.21296 452.50926">concentration and saturation is seen only beyond 450 </tspan></text>
<text fill="#231f20" xml:space="preserve" transform="matrix(1 0 -0 1 -18 802.8)" font-size="10.5" font-family="Symbol"><tspan y="-475.44108" x="454.79997">&#x00b5;</tspan></text>
<text fill="#231f20" xml:space="preserve" transform="matrix(1 0 -0 1 -18 802.8)" font-size="10.5" font-family="Bookman"><tspan y="-475.44108" x="460.55998 463.37998">lL</tspan></text>
<text fill="#231f20" xml:space="preserve" transform="matrix(1 0 -0 1 -18 802.8)" font-size="7.4" font-family="Bookman"><tspan y="-478.80107" x="469.43998 472.29307">-1</tspan></text>
<text fill="#231f20" xml:space="preserve" transform="matrix(1 0 -0 1 -18 802.8)" font-size="10.5" font-family="Bookman"><tspan y="-475.44108" x="476.87998 479.99998 482.28498 484.56999 490.85499 497.55998 504.47499 509.70997 512.845 515.13 520.365 527.27999 531.675 536.07 541.305 548.01">.  Thus, current</tspan><tspan y="-460.32109" x="192.23996 198.30347 203.73697 209.80048 212.92398 216.04749 222.111 228.5945 231.718 234.8415 237.96501 241.92852 247.572 250.0805 255.934 259.26753 261.776 269.5195">availability of CO</tspan></text>
<text fill="#231f20" xml:space="preserve" transform="matrix(1 0 -0 1 -18 802.8)" font-size="6.1" font-family="Bookman"><tspan y="-456.9611" x="277.91996">2</tspan></text>
<text fill="#231f20" xml:space="preserve" transform="matrix(1 0 -0 1 -18 802.8)" font-size="10.5" font-family="Bookman"><tspan y="-460.32109" x="281.51997 284.01295 287.12925 292.55555 297.98185 303.40815 306.52445 311.95075 314.44374 317.56004 322.98634 325.4793 328.5956 331.7119 341.54823 344.66453 348.62083 351.73713 358.63343 364.2697 366.7627 370.719 376.5653 379.0583 383.0146 389.9109 395.3372 397.83018"> levels is limiting to the C</tspan></text>
<text fill="#231f20" xml:space="preserve" transform="matrix(1 0 -0 1 -18 802.8)" font-size="6.1" font-family="Bookman"><tspan y="-456.9611" x="405.59999">3</tspan></text>
<text fill="#231f20" xml:space="preserve" transform="matrix(1 0 -0 1 -18 802.8)" font-size="10.5" font-family="Bookman"><tspan y="-460.32109" x="409.43998 411.90428 418.36857 421.47288 427.51719 434.4015 438.3458 443.7601"> plants.</tspan><tspan y="-445.44108" x="210.23998 216.47998 223.44538 228.94078 234.00278 237.39818 243.52358 249.01898 253.04439 258.10639 262.13179 269.09718 275.22257 279.24797 284.30995">The fact that C</tspan></text>
<text fill="#231f20" xml:space="preserve" transform="matrix(1 0 -0 1 -18 802.8)" font-size="6.1" font-family="Bookman"><tspan y="-441.84107" x="292.08">3</tspan></text>
<text fill="#231f20" xml:space="preserve" transform="matrix(1 0 -0 1 -18 802.8)" font-size="10.5" font-family="Bookman"><tspan y="-445.44108" x="295.91999 300.9933 307.5366 310.71989 316.84318 323.80647 327.82978 333.32307 338.39637 343.04966 348.54295 354.03623 360.57954 366.49284 373.45613 379.99943 385.07273 389.096 395.0093 400.0826 407.0459 410.2292 415.9325 422.89579 428.38908 433.04237 438.11567 445.91899"> plants respond to higher CO</tspan></text>
<text fill="#231f20" xml:space="preserve" transform="matrix(1 0 -0 1 -18 802.8)" font-size="6.1" font-family="Bookman"><tspan y="-441.84107" x="454.56">2</tspan></text>
<text fill="#231f20" xml:space="preserve" transform="matrix(1 0 -0 1 -18 802.8)" font-size="10.5" font-family="Bookman"><tspan y="-445.44108" x="458.16 463.26814 468.7762 474.7043 481.6824 487.1905 492.69859 499.67668 503.71476 508.38285 514.52096 518.559 521.75717 527.68527 534.6633 539.7714 546.3295"> concentration by</tspan><tspan y="-430.32109" x="192.23999 197.62319 204.47638 210.27959 218.39279 221.46599 228.31919 233.91239 236.3581 239.43129 246.28449 251.66768 256.21089 261.5941 267.6073 272.9905 278.37373 284.80693 287.25263 291.79585 297.80906 301.72227 307.10548 312.48869 314.9344 320.73759 324.02079 326.4665 332.8997 339.7529 345.5561 349.4693 355.2725 360.6557 366.2489 373.1021 377.01533 383.86854 389.25175 394.63496 397.70817 403.09138 405.53709 408.6103 413.9935 420.0067 426.4399 429.51313 436.36634 441.95954 444.40525 448.31846 454.12165 456.56736 463.42057 466.49378 472.08699 478.9402 484.3234 488.8666 491.31233 497.7455 502.28874 508.09193 514.52517 521.5883 526.9715 530.8847 533.9579 539.34109 542.41427 546.32748">showing increased rates of photosynthesis leading to higher productivity</tspan><tspan y="-415.44108" x="192.23999 199.16699 205.254 210.711 214.71799 221.22499 226.68199 232.13899 239.066 243.07299 250.20998 255.66698 261.12397 267.63096 271.63795 274.99494 280.87196 285.48896 289.49595 294.95295 300.82997 310.69697 316.15397 320.16096 325.82795 330.44496 335.90196 341.35896 348.28596 355.21296 361.08998 368.22697 373.68397 379.14097 383.14796 388.60496 393.22196 399.09898 405.60597 411.06297 415.06996 420.52696 427.66395 433.12095 440.04795 444.05494 450.14195 455.59895 459.60594 463.59294 469.46995 479.33695 485.42396 489.41096 495.28797 500.74497 506.20198 510.20896 516.29598 523.22299 529.73 533.737 540.244 545.70108 548.848">has been used for some greenhouse crops such as tomatoes and bell</tspan><tspan y="-400.32109" x="192.23999 198.69599 204.10199 210.55799 217.01398 222.41999 226.31999 229.61879 232.08258 238.53139 245.40019 250.799 256.4078 258.8716 264.90043 269.52 274.92109 277.38719 283.41828 286.50938 289.60047 295.42158 303.55268 308.95378 315.40489 317.87098 321.80207 327.62318 330.08927 335.70039 340.32 346.148 354.286 356.75904 359.85704 366.73503 369.20805 374.61604 380.65403 385.22203 391.68003 397.50804 404.38603 406.85905 413.31706 416.41505 422.24305 428.07106 431.16905 437.62705 443.03504 445.50807 450.91606 457.79405 462.36204 465.46003 470.868 477.746 483.154 489.612 492.08503 498.12303 502.061 511.879 517.707 523.115 529.573 536.451 541.859 546.48">pepper. They are allowed to grow in carbon dioxide enriched atmosphere</tspan><tspan y="-385.44108" x="192.23999 196.2141 203.12819 209.20229 213.17639 215.683 218.8171 224.2612 230.3353 236.82939 242.2735 244.7801 248.75421 254.61832 257.1249 264.039 267.1731 272.8272 279.7413 285.1854 289.7895 292.29609 297.9502 301.0843 306.52839 309.66249 316.1566 321.60069">that leads to higher yields.</tspan></text>
<text fill="#00aeef" xml:space="preserve" transform="matrix(1 0 -0 1 -18 802.8)" font-size="12" font-family="Bookman"><tspan y="-358.8011" x="192.23999 200.2242 208.2084 212.3526 220.3368 228.32102 232.46521 240.44942 246.74352 253.03762 261.5018 268.526 280.5902 288.3344 295.3586 300.9428 307.967 313.5512 321.5354 327.1196">11.10.3  Temperature</tspan></text>
<text fill="#231f20" xml:space="preserve" transform="matrix(1 0 -0 1 -18 802.8)" font-size="10.5" font-family="Bookman"><tspan y="-336.0011" x="192.23999 198.71619 205.61238 211.03858 213.52729 220.00348 226.05968 230.64588 237.12207 239.61078 244.19698 249.62317 255.67937 261.10557 265.06178 268.17799 274.02418 280.92039 286.3466 288.8353 295.3115 300.7377 303.8539 310.75013 316.38633 318.87504 324.30125 331.19746 336.20365 341.83985 351.67607 357.73228 361.68849 364.8047 370.2309 372.7196 378.77583 383.36204 388.78825 391.27696 395.23316 400.65937 410.49559 416.97178 422.39799 426.9842 433.0404 436.9966 444.1028 448.68904 454.11524 456.60395 462.03016 467.87635 474.77256 478.72877 483.31498 489.16117 492.27738 495.3936 500.8198 507.296 510.6222 513.11087 519.58706 526.4832 532.3294 539.4356 545.0718">The dark reactions being enzymatic are temperature controlled. Though</tspan><tspan y="-321.1211" x="192.23999 196.2271 203.15419 208.6113 211.8184 214.9655 218.1126 223.7797 230.70679 234.6939 237.901 242.5181 247.9752 254.0623 259.5194 263.5065 266.6536 272.5307 279.4578 284.9149 288.12199 294.20909 298.82618 304.28327 307.49037 313.57746 316.72456 322.18165 328.05876 331.26585 335.25294 340.71003 350.57713 357.08424 362.54133 367.15843 373.2455 377.2326 384.3697 388.9868 394.44389 397.65098 403.10807 408.56517 415.49226 420.94935 424.09645 428.08354 431.23063 436.6877 442.1448 445.3519 449.339 456.26609 461.72319 467.3903 470.59739 476.68449 481.30158 486.75868 489.96577 496.05287 499.40995 502.76704 508.22413 513.6812 517.66836 523.1254 529.6325 532.8396 536.8267 542.7038 545.9109">the light reactions are also temperature sensitive they are affected to a</tspan><tspan y="-306.0011" x="192.23999 202.1104 209.2508 214.7112 221.6416 224.752 227.9024 233.36281 238.82321 244.28362 249.74402 254.36443 257.47483 262.9352 268.8156 272.806 278.2664 285.19679 289.18717 292.54759 295.658 302.1684 309.0988 314.55918 317.6696">much lesser extent. The C</tspan></text>
<text fill="#231f20" xml:space="preserve" transform="matrix(1 0 -0 1 -18 802.8)" font-size="6.1" font-family="Bookman"><tspan y="-302.4011" x="325.2">4</tspan></text>
<text fill="#231f20" xml:space="preserve" transform="matrix(1 0 -0 1 -18 802.8)" font-size="10.5" font-family="Bookman"><tspan y="-306.0011" x="329.04 332.14933 338.65864 341.80793 347.89723 354.8265 358.8158 364.2751 367.3844 372.0037 377.46299 382.92228 389.43159 395.31089 402.24018 408.74949 411.8588 415.84809 421.7274 424.8367 431.766 434.91529 440.5846 447.5139 452.97319 457.59248 460.70179 464.69108 470.15037 480.01966 486.52897 491.98826 496.60755 502.69685 506.68614 513.82546 518.44479 523.90408 529.36337 532.47268 538.56198 545.4913"> plants respond to higher temperatures and</tspan><tspan y="-291.1211" x="192.24 197.7017 204.6334 210.5151 218.7068 222.0018 228.9335 232.0852 237.75691 244.68862 250.15032 254.77202 258.06703 262.68873 268.78044 272.77214 278.23384 281.5288 287.41053 290.77223 294.0672 300.5789 307.5106 313.3923 317.384 323.26573 328.72743 334.3991 341.3308 345.3225 352.2542 357.7159 363.1776 366.3293 371.79103 375.086 383.2777 390.2094 393.3611 396.51283 401.97453 405.2695">show higher rate of photosynthesis while C</tspan></text>
<text fill="#231f20" xml:space="preserve" transform="matrix(1 0 -0 1 -18 802.8)" font-size="6.1" font-family="Bookman"><tspan y="-287.5211" x="413.04">3</tspan></text>
<text fill="#231f20" xml:space="preserve" transform="matrix(1 0 -0 1 -18 802.8)" font-size="10.5" font-family="Bookman"><tspan y="-291.1211" x="416.64 419.92424 426.43843 429.59263 435.68684 442.62104 446.61524 452.07945 455.36366 462.29786 468.39207 473.85627 479.32048 482.60469 488.69889 491.9831 501.8573 509.0015 514.4657 521.3999 524.6841 527.83828 533.7225 541.9167 547.38088"> plants have a much lower</tspan><tspan y="-276.0011" x="192.24002 196.18952 201.60901 211.4385 217.908 223.3275 227.907 233.9565 237.90599 245.0055 249.58499 255.00449 257.47398 263.31349 269.783 273.73249 276.84199 286.67149 293.77098 303.60047">temperature optimum.</tspan><tspan y="-261.1211" x="210.24002 216.70012 223.58022 228.99031 231.46292 235.40302 240.81311 250.63321 257.09333 262.50343 267.07353 273.11363 277.0537 284.1438 288.7139 294.124 296.5966 302.4267 308.8868 312.8269 315.927 325.7471 332.8372 342.6573 345.12989 348.43998 354.27009 358.84019 361.31278 367.7729 374.65299 380.4831 384.4232 390.2533 395.6634 401.28349 408.16358 412.10368 418.98377 424.39387 429.80397 432.90406 438.31416 440.78675 446.61686 449.92695 452.39955 458.85966 461.95976 465.26985 468.57994 473.99003 478.56013 483.9702 490.8503 494.7904 497.263 503.7231 506.8232 512.86337 519.74349 523.6836 529.0937 531.5663 537.6064 540.7065 546.1166">The temperature optimum for photosynthesis of different plants also</tspan><tspan y="-246.0011" x="192.24002 198.74762 204.20522 210.71282 216.17041 223.098 229.6056 235.0632 237.62471 243.5023 250.4299 252.99141 256.979 263.90663 269.36424 271.92573 278.85334 284.94093 291.44853 294.59614 298.58375 304.67134 308.65895 311.22044 315.20805 322.13566 328.22328 332.21089 334.77238 338.75999 345.6876 351.1452 356.8128 359.3743 365.4619 370.32 375.7763 378.3365 384.4228 390.92909 397.01539 403.52168 407.50798 412.96427 419.47056 422.03074 426.01704 431.89335 435.24964 437.8098 440.37 447.12 451.91999 457.79939 464.30879 467.4582 472.9176 479.007 482.1564 484.7197 491.2291 494.3785 500.4679 507.3973 511.38673 516.8461 519.4094 526.3388 532.4282 537.88766 543.34707 545.91036">depends on the habitat that they are adapted to.  Tropical plants have a</tspan><tspan y="-231.1211" x="192.23999 199.20499 202.38999 208.09499 215.05998 220.55498 225.20998 230.27999 234.30498 239.79998 249.70497 256.24998 261.74497 266.39997 272.52497 276.54997 283.72496 288.37995 293.87495 298.94493 304.85993 311.40495 315.42994 318.61494 328.51994 335.69493 345.5999 350.6699 354.6949 361.65989 367.78489 374.74989 379.81986 383.84486 390.80986 396.30485 401.37483 407.91984 411.10484 417.22984 424.19483 428.21983 433.7148 438.7848 444.9098 451.4548 457.5798 464.12483 468.1498 473.6448 480.18983 485.2598 489.2848 495.1998 500.26979 504.29478 509.78977 519.69479 526.23977 531.73477 536.3898 542.5148 546.5398">higher temperature optimum than the plants adapted to temperate</tspan><tspan y="-216.0011" x="192.23999 197.47129 200.39258 203.31388 212.95517 218.81647 222.57778 227.80908 233.04038">climates.</tspan></text>
<text fill="#00aeef" xml:space="preserve" transform="matrix(1 0 -0 1 -18 802.8)" font-size="12" font-family="Bookman"><tspan y="-189.3611" x="192.23999 200.2723 208.3046 212.4969 220.5292 228.56151 232.75382 240.78612 246.52843 252.27074 263.66304 270.73533 276.3676 283.4399">11.10.4  Water</tspan></text>
<text fill="#231f20" xml:space="preserve" transform="matrix(1 0 -0 1 -18 802.8)" font-size="10.5" font-family="Bookman"><tspan y="-166.5611" x="192.23999 199.68 204.9643 210.2486 217.0029 219.3515 223.1658 229.9201 235.6244 242.5887 248.083 254.8373 257.1859 265.20024 271.11454 274.92884 280.21315 284.65745 287.00605 289.98036 295.26466 297.61326 303.31758 310.07188 315.35618 317.70478 323.40907 326.59336 328.94197 332.75627 339.51057 344.79487 347.14347 351.58778 356.87208 362.78639 368.07069 371.88499 377.7993 384.5536 388.3679 393.6522 396.0008 398.9751 405.7294 408.078 411.8923 418.6466 423.9309 426.2795 429.2538 432.22813 437.7224 444.4767 448.29103 450.63963 455.08393 460.36824 466.28254 471.56684 475.38114 478.35545 484.05976 490.81407 493.99836 496.34696 500.16127 506.91557 512.1998 514.54849 519.83279 523.0171 526.2014 531.4857 536.77 540.5843 542.9329 548.6372">Even though water is one of the reactants in the light reaction, the effect of</tspan><tspan y="-151.68109" x="192.23999 200.18459 206.02919 209.77379 214.98839 219.36299 221.64189 227.4865 232.7011 234.98 240.8246 243.1035 246.2181 252.0627 257.2773 261.0219 266.65653 271.03114 273.31004 276.21464 281.42924 283.70814 293.33274 298.96736 303.34196 308.55656 310.83546 314.58006 321.26466 325.63926 331.27388 338.16847 343.59306 350.27766 352.55656 355.46116 359.20576 364.42036 366.69926 371.91386 375.02845 378.14305 383.35765 388.57225 392.31684 394.59574 400.23036 406.91496 409.19386 412.93846 419.62306 424.83766 427.11656 433.38114 436.28575 442.13035 448.81495 452.55955 455.67414 457.95304 462.32765 468.17225 471.91685 478.60145 483.81605 488.19065 490.46955 494.21415 500.89875 506.74336 513.4279 515.70687 521.97146 524.87606 529.2506 534.4652 539.6798 543.42446 546.32907">water as a factor is more through its effect on the plant, rather than directly</tspan><tspan y="-136.5611" x="192.23999 197.8147 204.43939 206.65909 212.86379 219.48848 225.06319 228.7479 234.3226 239.4773 244.842 251.46669 255.1514 261.7761 266.9308 272.08549 274.93019 280.08488 283.13957 285.35926 294.47999 300.25639 303.93278 309.07917 313.38557 315.59696 320.74336 324.41975 328.56 333.7049 338.8498 343.9947 346.2046 351.3495 357.1244 363.94929 369.09419 374.23908 379.38398 381.59388 385.26878 391.88368 397.02857 399.23847 404.38337 408.05827 413.62318 423.17808 428.95298 432.62788 438.40278 440.61268 444.28758 449.85249 452.06239 457.20729 460.04219 465.6071 470.75199 475.89689 478.10679 484.72169 489.86659 496.48149 501.62638 506.77128 508.98118 513.6 518.74 524.93 531.75 536.89 539.72006 546.33">on photosynthesis. Water stress causes the stomata to close hence reducing</tspan><tspan y="-121.6811" x="192.23999 196.13999 202.97998 208.34998 211.91999 219.59998">the CO</tspan></text>
<text fill="#231f20" xml:space="preserve" transform="matrix(1 0 -0 1 -18 802.8)" font-size="6.1" font-family="Bookman"><tspan y="-118.0811" x="227.76">2</tspan></text>
<text fill="#231f20" xml:space="preserve" transform="matrix(1 0 -0 1 -18 802.8)" font-size="10.5" font-family="Bookman"><tspan y="-121.6811" x="231.59999 235.1992 241.1784 246.5276 252.5068 255.546 258.5852 264.5644 270.9636 274.0028 277.04203 280.08125 283.96046 289.51966 292.76887 296.36808 304.02729 309.3765 314.7257 317.76493 324.16413 329.51335 334.86256 338.11177 341.71098 349.79017 355.76936 359.64857 364.99778 369.50697 373.10618 378.45539 382.3346 386.84379 392.193 397.5422 402.89143 406.49064 412.46983 415.50904 420.85826 426.62745 430.22666 439.98585 445.96504 452.36424 457.71345 463.06266 466.66188 469.70109 475.0503 481.02949 486.3787 491.7279 497.07713 500.67634 508.75553 511.79475 514.8339 518.71316 521.96237 525.5615 529.44076 536.25997 543.2891 548.6383"> availability. Besides, water stress also makes leaves wilt, thus,</tspan><tspan y="-106.5611" x="192.23999 196.67929 201.95859 208.28789 215.2472 220.52649 223.49579 230.24509 235.73439 238.0837 241.89299 248.64229 253.92159 256.2709 261.5502 268.5095 272.9488 276.12809 282.03739 287.31669 292.59599 294.94529 300.85459 305.29389 310.57319 316.48249 318.8318 324.5311 327.7104 330 333.7917 340.52339 345.78507 348.09678 351.04847 356.31016 362.4 367.71 373.02 378.47999 380.81867 386.72898 393.47929 399.80958 402.14826 405.95857 412.70887 417.98918 420.95948 425.39979 427.73847 437.42878 442.70909 446.51939 452.4297 458.75999 464.46028 467.43058 470.40089 475.68119 478.01988 483.93019 489.21049 493.02079 495.9911 501.2714 504.2417 508.052 513.5423 515.881 521.79129 527.07156 529.4102 537.42056 542.7008 545.6711 548.64138">reducing the surface area of the leaves and their metabolic activity as well.</tspan></text>
<g clip-path="url(#clip_2113)">
<text xml:space="preserve" transform="matrix(1 0 -0 1 259.314 763.9998)" font-size="8" font-family="Arial"><tspan y="6.316" x="0"> </tspan></text>
</g>
</g>
</g>
</svg>
