<svg xmlns="http://www.w3.org/2000/svg" xmlns:xlink="http://www.w3.org/1999/xlink" xmlns:inkscape="http://www.inkscape.org/namespaces/inkscape" version="1.1" width="576" height="784.8" viewBox="0 0 576 784.8">
<defs>
<clipPath id="clip_2107">
<path transform="matrix(1,0,0,-1,-18,802.8)" d="M18 18H594V802.8H18Z" clip-rule="evenodd"/>
</clipPath>
<clipPath id="clip_2108">
<path transform="matrix(1,0,0,-1,259.314,763.9998)" d="M0-8H57.372V.800049H0Z"/>
</clipPath>
</defs>
<g>
<g clip-path="url(#clip_2107)">
<path transform="matrix(.24,0,0,-.24,-18,802.8)" d="M2 2H2548V214.668H2Z" fill="#cbdf7f" fill-rule="evenodd"/>
<path transform="matrix(.24,0,0,-.24,-18,802.8)" stroke-width="4" stroke-linecap="butt" stroke-miterlimit="1000" stroke-linejoin="miter" fill="none" stroke="#cbdf7f" d="M2 2H2548V214.668H2Z"/>
<path transform="matrix(.24,0,0,-.24,-18,802.8)" d="M0 3035.83H2550V3372.705H0Z" fill="#d1d3d4" fill-rule="evenodd"/>
<path transform="matrix(.24,0,0,-.24,-18,802.8)" d="M0 3078.33H2550V3419.998H0Z" fill="#e1ecb6" fill-rule="evenodd"/>
<path transform="matrix(.24,0,0,-.24,62.63616,53.635194)" d="M0 0C7.321 7.32 16.161 10.98 26.516 10.98H97.348C107.704 10.98 116.543 7.32 123.868 0 131.188-7.32 134.848-16.16 134.848-26.52V-101.52C134.848-111.88 131.188-120.72 123.868-128.04 116.543-135.36 107.704-139.02 97.348-139.02H26.516C16.161-139.02 7.321-135.36 0-128.04-7.324-120.72-10.984-111.88-10.984-101.52V-26.52C-10.984-16.16-7.324-7.32 0 0" fill="#ffffff" fill-rule="evenodd"/>
<text fill="#231f20" xml:space="preserve" transform="matrix(1 0 -0 1 -18 802.8)" font-size="11" font-family="Bookman,Bold" font-weight="bold"><tspan y="-729.361" x="87.12 94.41 101.700008">148</tspan></text>
<text fill="#231f20" xml:space="preserve" transform="matrix(1 0 -0 1 -18 802.8)" font-size="11" font-family="Bookman"><tspan y="-729.361" x="513.12">B</tspan></text>
<text fill="#231f20" xml:space="preserve" transform="matrix(1 0 -0 1 -18 802.8)" font-size="7.7" font-family="Bookman"><tspan y="-729.361" x="521.04 523.36868 529.30868 533.67788 539.61788 545.55789">IOLOGY</tspan></text>
<path transform="matrix(.24,0,0,-.24,-18,.35998536)" stroke-width="1" stroke-linecap="butt" stroke-miterlimit="10" stroke-linejoin="miter" fill="none" stroke="#000000" d="M0 0H60"/>
<path transform="matrix(.24,0,0,-.24,.12000084,-18)" stroke-width="1" stroke-linecap="butt" stroke-miterlimit="10" stroke-linejoin="miter" fill="none" stroke="#000000" d="M0 0V-60"/>
<path transform="matrix(.24,0,0,-.24,-18,784.68)" stroke-width="1" stroke-linecap="butt" stroke-miterlimit="10" stroke-linejoin="miter" fill="none" stroke="#000000" d="M0 0H60"/>
<path transform="matrix(.24,0,0,-.24,.12000084,788.16)" stroke-width="1" stroke-linecap="butt" stroke-miterlimit="10" stroke-linejoin="miter" fill="none" stroke="#000000" d="M0 0V-60"/>
<path transform="matrix(.24,0,0,-.24,593.64,784.56)" stroke-width="1" stroke-linecap="butt" stroke-miterlimit="10" stroke-linejoin="miter" fill="none" stroke="#000000" d="M0 0V-75"/>
<text fill="#231f20" xml:space="preserve" transform="matrix(1 0 -0 1 -18 802.8)" font-size="11" font-family="Bookman,Bold" font-weight="bold"><tspan y="-689.041" x="120">T</tspan></text>
<text fill="#231f20" xml:space="preserve" transform="matrix(1 0 -0 1 -18 802.8)" font-size="7.7" font-family="Bookman,Bold" font-weight="bold"><tspan y="-689.041" x="127.2 132.7412 138.7444 143.6696">ABLE</tspan></text>
<text fill="#231f20" xml:space="preserve" transform="matrix(1 0 -0 1 -18 802.8)" font-size="11" font-family="Bookman,Bold" font-weight="bold"><tspan y="-689.041" x="149.5188 153.4938 160.7688 168.0438 172.0188"> 11.1</tspan></text>
<text fill="#231f20" xml:space="preserve" transform="matrix(1 0 -0 1 -18 802.8)" font-size="9.5" font-family="Bookman,Bold" font-weight="bold"><tspan y="-689.041" x="186 192.4556 195.6812 198.9068 202.1324 204.7673 207.9929 214.6385 217.2734 221.259 227.9046 233.2202 235.8551 243.2607 248.9563 252.1819 259.0175 268.3231 274.9687 280.2843 282.9192 289.18479 291.81968 297.70527 304.35087 310.61647 313.25135 319.51695 322.15184 325.3774 332.023 334.6579 338.6435 345.2891 348.51469 353.8303 356.46519 360.45079 366.33638 372.60197 375.82756 381.14317 383.77806 387.76365 393.45924 396.09413 402.73973 405.9653 411.47093 418.11653 421.3421 424.5677 430.0733 436.7189 440.7045 443.3394 447.32499 453.97059 459.2862 461.92109 468.18669 471.41227 474.82786 478.24345 483.55906 488.11466 493.43028 500.07588 505.39149 510.7071">Fill in the Columns 2 and 3 in this table to highlight the differences</tspan><tspan y="-677.041" x="186 192.2581 197.56621 201.54431 209.32242 214.63053 219.93863 226.57674 230.43483">between C</tspan></text>
<text fill="#231f20" xml:space="preserve" transform="matrix(1 0 -0 1 -18 802.8)" font-size="5.5" font-family="Bookman,Bold" font-weight="bold"><tspan y="-673.921" x="237.84">3</tspan></text>
<text fill="#231f20" xml:space="preserve" transform="matrix(1 0 -0 1 -18 802.8)" font-size="9.5" font-family="Bookman,Bold" font-weight="bold"><tspan y="-677.041" x="241.44 245.28639 251.15279 257.77919 264.02558 267.87199"> and C</tspan></text>
<text fill="#231f20" xml:space="preserve" transform="matrix(1 0 -0 1 -18 802.8)" font-size="5.5" font-family="Bookman,Bold" font-weight="bold"><tspan y="-673.921" x="275.52003">4</tspan></text>
<text fill="#231f20" xml:space="preserve" transform="matrix(1 0 -0 1 -18 802.8)" font-size="9.5" font-family="Bookman,Bold" font-weight="bold"><tspan y="-677.041" x="279.12004 283.00056 289.28105 292.52156 298.42207 305.08256 309.08305"> Plants</tspan></text>
<path transform="matrix(.24,0,0,-.24,-18,802.8)" d="M328.668 543.875H2301.748V2780.505H328.668Z" fill="#fedbb4" fill-rule="evenodd"/>
<path transform="matrix(.24,0,0,-.24,-18,802.8)" stroke-width="4" stroke-linecap="butt" stroke-miterlimit="1000" stroke-linejoin="miter" fill="none" stroke="#fcbb76" d="M328.668 543.875H2301.748V2780.505H328.668Z"/>
<text fill="#231f20" xml:space="preserve" transform="matrix(1 0 -0 1 -18 802.8)" font-size="9.5" font-family="Bookman,Bold" font-weight="bold"><tspan y="-654.24" x="84 91.3307 97.901409 103.712108 108.1928 114.0035 119.2442 123.1549 128.3956 132.8763 136.027 141.2677 145.1784 148.3291 153.56981 264">CharacteristicsC</tspan></text>
<text fill="#231f20" xml:space="preserve" transform="matrix(1 0 -0 1 -18 802.8)" font-size="5.5" font-family="Bookman,Bold" font-weight="bold"><tspan y="-651.12" x="271.44">3</tspan></text>
<text fill="#231f20" xml:space="preserve" transform="matrix(1 0 -0 1 -18 802.8)" font-size="9.5" font-family="Bookman,Bold" font-weight="bold"><tspan y="-654.24" x="275.04 279.16883 285.44764 288.68644 294.58525 301.24406 305.24287 321.12"> PlantsC</tspan></text>
<text fill="#231f20" xml:space="preserve" transform="matrix(1 0 -0 1 -18 802.8)" font-size="5.5" font-family="Bookman,Bold" font-weight="bold"><tspan y="-651.12" x="328.32">4</tspan></text>
<text fill="#231f20" xml:space="preserve" transform="matrix(1 0 -0 1 -18 802.8)" font-size="9.5" font-family="Bookman,Bold" font-weight="bold"><tspan y="-654.24" x="332.16 336.28883 342.56764 345.80644 351.70524 358.36405 362.36286 384 391.4454 398.1308 403.8662 409.60163 414.95704 420.31245 425.46788 428.92329 433.51869 439.2541"> PlantsChoose from</tspan></text>
<text fill="#231f20" xml:space="preserve" transform="matrix(1 0 -0 1 -18 802.8)" font-size="9.5" font-family="Bookman"><tspan y="-636.72" x="84 91.1414 96.1548 99.0402 101.9256 105.931 109.5859 114.7893 120.7717 125.785099 129.79048 132.67589 139.04779 143.05318 150.58408 156.95598 159.84139 164.85478 171.22669 175.23207 178.88698 185.25888 190.27228 194.27767 201.41907 207.01197 209.89737 214.91077 217.79618 384 393.0041 398.1417 403.2793 408.8064 414.913 421.4091 426.7367 429.7463 432.75593 438.66304 445.92863 452.61473 459.1108 465.2174 468.22703 473.36463 478.1142 483.2518 489.7479 494.8855 500.6026 504.3817 510.8778 516.7849 522.89157 528.41867 532.19778">Cell type in which the CalvinMesophyll/Bundle sheath/both</tspan><tspan y="-625.43997" x="84 89.0209 94.2318 99.25269 102.14559 107.16649 111.59939 115.26179 120.86219 126.85209 131.87299 136.89389 141.3268 147.3167 150.2096 155.81 160.8309">cycle takes place</tspan><tspan y="-607.9199" x="84 91.1466 96.1652 99.0558 101.9464 105.897 109.557109 114.76571 120.75331 125.77191 129.7225 132.6131 138.9902 142.9408 150.4769 156.854 159.7446 164.7632 171.1403 175.0909 178.75099 185.1281 190.1467 194.09729 196.98789 203.36499 206.25559 209.91568 212.80628 218.40438 384 392.9374 398.0083 403.0792 408.53959 414.57948 421.00889 426.26979 429.21269 432.15559 437.99598 445.1949 451.8143 458.2437 464.2836 467.2265 472.2974 476.9803 482.05119 488.4806 493.55149 499.20188 502.91429 509.3437 514.02658 519.86697 525.90689 531.36727 535.07968">Cell type in which the initialMesophyll/Bundle sheath /both</tspan><tspan y="-596.6399" x="84 89.0493 94.6781 98.9484 104.966709 110.4055 115.8443 121.0836 124.004909 129.63372 133.32451 136.2458 141.6846 148.0924 152.75371 157.024 162.0733 167.7021 172.7514 176.4422 179.3635 184.80229 191.2101 195.8714 201.3102 206.3595 211.4088 218.00659 222.27689">carboxylation reaction occurs</tspan><tspan y="-579.1199" x="84 91.7266 97.1352 104.6718 108.2129 117.298 122.8966 129.2742 134.4833 138.02442 143.04352 148.06262 150.95372 153.84482 157.38593 161.04653 166.25563 172.24373 177.26284 182.28194 185.82305 191.81114 197.21974 202.23885 207.25795 210.79906 214.45966 220.83725 384 389.9885 397.52549 402.93449 406.016 410.1975 417.345 423.913 430.291 436.27949 439.171 444.1905 448.372 453.3915 459.7695 464.789 470.388 474.049 480.427 484.60853 490.20753 496.5855">How many cell types does theTwo: Bundle sheath and</tspan><tspan y="-567.83987" x="84 86.8876 91.903209 97.49831 100.575908 104.1535 110.5276 116.1227 121.138309 126.15391 129.7315 133.38861 139.76271 145.35782 149.01493 152.59253 155.67014 158.55774 163.96285 167.54045 174.68405">leaf have that fix CO</tspan></text>
<text fill="#231f20" xml:space="preserve" transform="matrix(1 0 -0 1 -18 802.8)" font-size="5.5" font-family="Bookman"><tspan y="-564.71987" x="182.4">2</tspan></text>
<text fill="#231f20" xml:space="preserve" transform="matrix(1 0 -0 1 -18 802.8)" font-size="9.5" font-family="Bookman"><tspan y="-567.83987" x="186 384 393.1899 398.3138 403.4377 408.9511 415.044 421.5264 426.8403 429.8362">.mesophyll</tspan><tspan y="-556.3198" x="384 391.7146 398.0802 403.0873 406.1564 410.5755 419.4491 424.4562 429.46333 434.85993 440.83604 447.20164 452.39875 455.27784">One: Mesophyll</tspan><tspan y="-545.0398" x="384 390.0041 396.3977 400.6538 405.6889 410.724 413.8211 418.4682 425.6313 432.21488 438.60847 444.61256 447.51966 452.55476 457.20185 462.23695 468.63056 473.66566 479.28025 482.95686 489.35047 492.44758 497.09468 503.09877 508.71336 511.62046 514.5275 519.5626 525.17727 531.18136 536.21646">Three: Bundle sheath, palisade,</tspan><tspan y="-533.5198" x="384 389.0104 394.9898 400.3897 406.7586 411.959 417.15943 421.6318 430.7082 435.7186 440.729 446.1289 452.1083 458.4772 463.6776 466.56">spongy mesophyll</tspan><tspan y="-516.23977" x="84 93.2684 99.639308 102.523708 107.5361 113.907009 117.681407 120.5658 125.5782 129.3526 133.0065 139.3774 144.3898 148.1642 154.1456 158.379 161.2634 170.3418 175.9337 180.1671 185.3695 189.1439 196.2843">Which is the primary CO</tspan></text>
<text fill="#231f20" xml:space="preserve" transform="matrix(1 0 -0 1 -18 802.8)" font-size="5.5" font-family="Bookman"><tspan y="-513.11978" x="204">2</tspan></text>
<text fill="#231f20" xml:space="preserve" transform="matrix(1 0 -0 1 -18 802.8)" font-size="9.5" font-family="Bookman"><tspan y="-516.23977" x="207.6 211.3752 216.9679 221.9811 226.9943 232.00749 237.98969 241.64438 247.04708 384 391.0077 397.6259 404.82359 410.86228 416.70149 422.74018 429.74787 435.78657 441.62577 447.66447 455.44166"> acceptorRuBP/PEP/PGA</tspan><tspan y="-498.71977" x="84 91.1456 97.7117 106.7953 112.781909 117.79951 122.03811 125.687709 131.0948 134.17441 137.82402 142.84162 148.43872 152.67733 158.66393 164.07103 170.44713 175.46472 179.11434 182.76395 185.65355 192.02965 195.67926 199.33837 205.71446 384 390.0057 393.1044 398.9106 402.0093 408.015 411.1137 416.91993 420.01863">Number of carbons  in the5 / 4 / 3</tspan><tspan y="-487.43977" x="84 89.9948 94.2416 97.1394 106.2312 111.8365 116.083309 121.2991 125.2869 132.4407">primary CO</tspan></text>
<text fill="#231f20" xml:space="preserve" transform="matrix(1 0 -0 1 -18 802.8)" font-size="5.5" font-family="Bookman"><tspan y="-484.31977" x="140.16">2</tspan></text>
<text fill="#231f20" xml:space="preserve" transform="matrix(1 0 -0 1 -18 802.8)" font-size="9.5" font-family="Bookman"><tspan y="-487.43977" x="143.52 147.5002 153.0979 158.1161 163.13431 168.15251 174.13971 177.79941 183.2071"> acceptor</tspan><tspan y="-469.91978" x="84 93.2716 99.6457 102.5333 107.548908 113.923007 117.5631 120.45071 125.46631 129.10642 132.76352 139.13762 144.15322 147.79332 153.77793 158.01453 160.90213 169.98374 175.57883 179.81543 185.02103 188.66114 195.80474">Which is the primary CO</tspan></text>
<text fill="#231f20" xml:space="preserve" transform="matrix(1 0 -0 1 -18 802.8)" font-size="5.5" font-family="Bookman"><tspan y="-466.79978" x="203.51999">2</tspan></text>
<text fill="#231f20" xml:space="preserve" transform="matrix(1 0 -0 1 -18 802.8)" font-size="9.5" font-family="Bookman"><tspan y="-469.91978" x="384 390.0406 397.8197 404.4398 410.28089 418.06 424.68009 431.30018 437.14128 444.15089 450.77098 457.97059 464.01118 469.85227 475.89286 482.90248">PGA/OAA/RuBP/PEP</tspan><tspan y="-458.63978" x="84 87.0845 89.979007 95.39101 100.993007 104.657009 107.551509 112.96351 119.344509 123.67901 129.6705 133.914 139.326 145.3175 151.8885 156.91101">fixation product</tspan><tspan y="-441.11979" x="84 91.1523 96.5661 99.652408 103.328708 108.74251 111.82881 115.50511 120.52941 126.13321 130.37851 136.37181 141.78562 148.16841 153.19272 156.86902 159.76532 166.14812 169.82442 173.49022 179.87302 184.89731 188.57361 194.56691 198.81221 201.70851 210.79882 216.40262 220.64792 384 390.0057 393.1044 398.9106 402.0093 408.015 411.1137 416.91993 420.01863">No. of carbons in the primary3 / 4 / 5</tspan><tspan y="-429.83979" x="84 91.157108">CO</tspan></text>
<text fill="#231f20" xml:space="preserve" transform="matrix(1 0 -0 1 -18 802.8)" font-size="5.5" font-family="Bookman"><tspan y="-426.7198" x="98.88">2</tspan></text>
<text fill="#231f20" xml:space="preserve" transform="matrix(1 0 -0 1 -18 802.8)" font-size="9.5" font-family="Bookman"><tspan y="-429.83979" x="102.24 105.746707 108.82841 111.72011 117.12931 122.72851 126.38971 129.2814 134.6906 141.0688 144.5755 150.5642 154.8049 160.2141 166.20279 172.771 177.7907"> fixation product</tspan><tspan y="-410.8798" x="84 91.7153 97.1126 102.1204 107.1282 111.123 114.7723 121.1386 126.1464 130.1412 136.11801 138.99782 144.58512 150.95142 154.60073 158.59552 164.96183 170.54912 175.55692 180.56472">Does the plant have </tspan><tspan y="-410.8808" x="184.56 191.5154 198.0813 205.2267 208.1161 213.1335 220.2789">RuBisCO</tspan><tspan y="-410.8798" x="228.004 384 388.8 393.92259 399.04518 404.93727 411.84 417.4386 423.4172 430.32 435.85533 439.6426 444.4004 450.1257 453.1435 460.8068 466.5321 471.86793">?Yes/No/Not always</tspan><tspan y="-392.8798" x="84 91.721 97.124 102.1375 107.15099 110.986499 114.641498 121.0135 126.02699 129.86249 135.84499 138.73049 144.32349 150.69548 154.35048 158.18598 164.55797 170.15097 175.16448 180.17798 184.01348 189.99597 196.94748 202.92998 206.76548 213.90697 219.49997 224.51348 229.52698 384 388.8 393.92259 399.04518 404.93727 411.84 417.4386 423.4172 430.32 435.85533 439.6426 444.4004 450.1257 453.1435 460.8068 466.5321 471.86793">Does the plant have PEP Case?Yes/No/Not always</tspan><tspan y="-375.5998" x="84 93.272 99.6465 102.5345 107.5505 113.925 117.98301 122.99901 128.01502 130.90302 133.79102 138.80702 142.86502 145.75302 152.12752 156.18552 159.84302 166.21752 171.23352 175.29152 181.27652 184.16452 189.76003 196.13452 199.79203 203.85002 210.22452 215.82003 220.83603 384 393.0194 398.1723 403.3252 408.86759 414.98948 421.5009 426.84379 429.86869 432.8936 438.81599 446.0969 452.79829 459.3097 465.43159 468.45649 473.60939 478.37428 483.52717 490.03858 495.19148 500.92387 504.71827 511.22969 517.1521 523.6635 529.20596 535.71737">Which cells in the plant haveMesophyll/Bundle sheath/none</tspan><tspan y="-364.0798" x="84 91.0124 97.6353 103.6787 106.62511 111.69951 116.77391 122.23781">Rubisco?</tspan><tspan y="-346.7998" x="84 91.157108">CO</tspan></text>
<text fill="#231f20" xml:space="preserve" transform="matrix(1 0 -0 1 -18 802.8)" font-size="5.5" font-family="Bookman"><tspan y="-343.43983" x="98.88">2</tspan></text>
<text fill="#231f20" xml:space="preserve" transform="matrix(1 0 -0 1 -18 802.8)" font-size="9.5" font-family="Bookman"><tspan y="-346.7998" x="102.24 106.0767 109.1509 112.0351 117.436809 123.0285 126.682209 129.5664 134.96811 141.3388 145.1755 149.4087 155.00041 158.65412 163.66632 167.50302 174.06372 180.43442 186.41562 191.42783 195.66103 199.49773 205.86843 208.75263 213.95482 384 389.7877 395.1954 402.7311 408.5188 412.349 418.7257 421.6159 426.8241 433.2008 438.9885 442.8187 451.9029 456.92109 462.9083 465.7985 472.3652"> fixation rate under highLow/ high/ medium</tspan><tspan y="-335.27983" x="84 86.9037 89.8074 95.029109 101.419307 105.09251 109.736209 114.76791 120.1891 126.5793 132.58 135.4837 139.1569 142.06061 147.48181 153.87201">light conditions</tspan><tspan y="-317.99983" x="84 93.2957 99.6939 104.733608 108.4148 114.813 119.85271 124.1134 128.7651 134.7738 141.172 146.6012 150.2824 155.7116 159.97229 165.012 170.0517 176.0604 178.97209 183.23279 188.85199 192.53319 195.44489 200.87409 207.27228 211.92398 214.83568 384 391.8482 394.8609 400.1916 406.6908 412.60099 419.1002 424.24089 429.57157 432.58427 435.59696 440.92765 443.94035 450.05006 453.06275 458.20344 464.11363 469.2543 474.78453 483.9912 489.1319 492.9141 495.9268 505.13349 510.27418">Whether photorespiration isHigh/negligible/sometimes</tspan><tspan y="-306.47984" x="84 89.979907 94.21181 99.22271 104.23361 109.244518 115.613918 119.26631 123.47671 129.06711 132.71952 136.92992 139.81282 145.21323 152.74163 156.95203 159.83493 162.71784 167.91873 174.28813 177.94054 182.15094 185.03385 191.40325 195.05565 200.06655 206.43595 211.44684 214.32975 217.98215 220.86505 225.87595">present at low light intensities</tspan><tspan y="-289.19984" x="84 93.2957 99.6939 104.733608 108.4148 114.813 119.85271 124.1134 128.7651 134.7738 141.172 146.6012 150.2824 155.7116 159.97229 165.012 170.0517 176.0604 178.97209 183.23279 188.85199 192.53319 195.44489 200.87409 207.27228 211.92398 214.83568 384 391.8482 394.8609 400.1916 406.6908 412.60099 419.1002 424.24089 429.57157 432.58427 435.59696 440.92765 443.94035 450.05006 453.06275 458.20344 464.11363 469.2543 474.78453 483.9912 489.1319 492.9141 495.9268 505.13349 510.27418">Whether photorespiration isHigh/negligible/sometimes</tspan><tspan y="-277.67985" x="84 89.978 94.208 99.217 104.226009 109.23501 115.60251 119.253009 123.72401 129.3125 132.963 137.43399 143.80149 146.68248 151.88149 158.249 162.71999 165.60099 168.48198 173.68099 180.0485 183.69899 188.16999 191.05098 197.41849 201.06899 206.07799 212.4455 217.4545 220.3355 223.986 226.86699 231.87599">present at high light intensities</tspan><tspan y="-260.39985" x="84 93.2686 99.6397 104.6523 108.3064 114.6775 119.690097 123.92369 128.19829 134.17989 140.55098 145.95308 149.60718 155.00928 159.24288 164.25548 169.26808 175.24968 178.13428 182.36788 187.95998 191.61408 194.49868 199.90077 206.27187 210.54647 218.07657 223.47867 230.03977 232.92436 238.90596 243.18056 249.16216 384 391.8482 394.8609 400.1916 406.6908 412.60099 419.1002 424.24089 429.57157 432.58427 435.59696 440.92765 443.94035 450.05006 453.06275 458.20344 464.11363 469.2543 474.78453 483.9912 489.1319 492.9141 495.9268 505.13349 510.27418">Whether photorespiration would beHigh/negligible/sometimes</tspan><tspan y="-248.87984" x="84 89.9927 94.2374 99.26109 104.28479 109.30849 115.69069 119.35589 123.44159 129.04479 132.70999 136.79569 139.69139 145.10459 152.64579 156.73148 163.88318">present at low CO</tspan></text>
<text fill="#231f20" xml:space="preserve" transform="matrix(1 0 -0 1 -18 802.8)" font-size="5.5" font-family="Bookman"><tspan y="-245.75984" x="171.6">2</tspan></text>
<text fill="#231f20" xml:space="preserve" transform="matrix(1 0 -0 1 -18 802.8)" font-size="9.5" font-family="Bookman"><tspan y="-248.87984" x="174.96 179.0883 184.1046 189.5104 195.88521 200.9015 205.9178 212.2926 215.95041 220.18772 225.78351 229.44132 232.32962 237.73542 244.11022"> concentrations</tspan><tspan y="-231.59984" x="84.00001 93.26861 99.63971 104.65231 108.30641 114.67751 119.69011 123.923709 128.1983 134.1799 140.551 145.9531 149.6072 155.0093 159.24289 164.2555 169.2681 175.2497 178.1343 182.36789 187.95999 191.61409 194.49869 199.90079 206.27188 210.54648 218.07659 223.47869 230.03978 232.92438 238.90598 243.18058 249.16217 384 391.8482 394.8609 400.1916 406.6908 412.60099 419.1002 424.24089 429.57157 432.58427 435.59696 440.92765 443.94035 450.05006 453.06275 458.20344 464.11363 469.2543 474.78453 483.9912 489.1319 492.9141 495.9268 505.13349 510.27418">Whether photorespiration would beHigh/negligible/sometimes</tspan><tspan y="-220.07984" x="84 89.989 94.229999 99.24999 104.26999 109.289989 115.66849 119.32999 123.67859 129.27809 132.93959 137.2882 143.66669 146.55869 151.76869 158.14719 162.49579 169.64379">present at high CO</tspan></text>
<text fill="#231f20" xml:space="preserve" transform="matrix(1 0 -0 1 -18 802.8)" font-size="5.5" font-family="Bookman"><tspan y="-216.95984" x="177.36">2</tspan></text>
<text fill="#231f20" xml:space="preserve" transform="matrix(1 0 -0 1 -18 802.8)" font-size="9.5" font-family="Bookman"><tspan y="-220.07984" x="180.72 185.09761 190.1132 195.51831 201.89241 206.908 211.9236 218.2977 221.9548 226.1914 231.7865 235.4436 238.3312 243.73632 250.11042"> concentrations</tspan><tspan y="-202.79984" x="84 89.28 94.3142 103.4144 109.4176 114.451808 118.70701 124.32071 127.99641 134.5791 138.8343 143.8685 148.51471 153.93842 159.94162 163.61733 166.52353 175.62374 182.20644 384 389.9926 395.98524 399.84983 405.84245 411.83506 415.69966 422.85127 428.64436 434.63697 440.62959 442.56 448.5532 454.5464 458.4116 465.56379 471.35749 476.96119 482.95439 488.36808 493.39228 498.41648 502.8527 508.8459 514.8391 518.7043">Temperature optimum30-40&#x00b0;C/20-25&#x00b0;C/above 40&#x00b0;C</tspan><tspan y="-181.43984" x="84 91.1458 96.743099 102.530399 111.8042 117.981 121.06081 126.26861 384 391.1855 397.79148 401.49049 406.15998 411.21748 416.27497 420.55348 424.25248 427.18199 432.23948 437.87648 440.80598 445.47547 450.53297 455.59046 460.64796 464.34696 467.27647 472.72346 479.13948 484.19697 488.86647 494.31346 497.43296 502.10246 505.03196 510.08946 515.72647 520.78396 525.84146 530.8989 535.5684 541.01547">ExamplesCut vertical sections of leaves of</tspan><tspan y="-169.91983" x="384 390.0103 392.9236 396.48 399.54743 404.55284 408.77925 413.78465 420.14854 423.79545 426.08787 432.06227 434.93968 440.52458 446.88847 450.53538 455.54078 457.8332 463.4181 469.78199 475.75639 478.0488 483.4437 489.4181 494.4235 499.4289 503.6553 508.6607 513.6661 515.95846 522.5123 528.8762 534.85067 539.856">different plants and observe under</tspan><tspan y="-158.63983" x="384 387.6582 394.03343 399.0501 401.4663 410.549 413.4377 418.4544 422.6921 428.0983 433.115 438.13169 443.53788 449.52357 454.54026 456.95646 460.03517 465.44136 469.67906 472.09526 479.76 483.98973 489.5779 495.9451 500.5643 502.9725 508.5607 514.9279 520.5161 524.1663 529.5645 538.6392">the microscope for Kranz anatomy</tspan><tspan y="-147.11983" x="384 389.6446 396.0682 402.1023 406.7794 409.7165 412.6536 417.7187 421.4253 426.1024 429.809 436.2326 441.2977 450.4288 455.1059 458.043 464.4666 469.1437 472.8503 479.27394 484.33903 489.0161 494.6607 500.6948 506.72889 511.01499 516.4696 522.5037 526.7898 529.72689 535.37149 539.07809">and list them in the appropriate</tspan><tspan y="-135.83983" x="384 389.1215 394.63249 397.62599 404.296 413.4835 419.9635 425.085">columns.</tspan></text>
<path transform="matrix(.24,0,0,-.24,239.51999,136.08002)" stroke-width="4" stroke-linecap="butt" stroke-miterlimit="10" stroke-linejoin="miter" fill="none" stroke="#ffffff" d="M0 0V-2236"/>
<path transform="matrix(.24,0,0,-.24,295.44,136.08002)" stroke-width="4" stroke-linecap="butt" stroke-miterlimit="10" stroke-linejoin="miter" fill="none" stroke="#ffffff" d="M0 0V-2236"/>
<path transform="matrix(.24,0,0,-.24,358.56,136.08002)" stroke-width="4" stroke-linecap="butt" stroke-miterlimit="10" stroke-linejoin="miter" fill="none" stroke="#ffffff" d="M0 0V-2236"/>
<path transform="matrix(.24,0,0,-.24,60.96,153.59998)" stroke-width="4" stroke-linecap="butt" stroke-miterlimit="10" stroke-linejoin="miter" fill="none" stroke="#ffffff" d="M0 0H1971"/>
<path transform="matrix(.24,0,0,-.24,60,182.39997)" stroke-width="4" stroke-linecap="butt" stroke-miterlimit="10" stroke-linejoin="miter" fill="none" stroke="#ffffff" d="M0 0H1975"/>
<path transform="matrix(.24,0,0,-.24,60,212.39997)" stroke-width="4" stroke-linecap="butt" stroke-miterlimit="10" stroke-linejoin="miter" fill="none" stroke="#ffffff" d="M0 0H1975"/>
<path transform="matrix(.24,0,0,-.24,60.96,291.36)" stroke-width="4" stroke-linecap="butt" stroke-miterlimit="10" stroke-linejoin="miter" fill="none" stroke="#ffffff" d="M0 0H1971"/>
<path transform="matrix(.24,0,0,-.24,60.96,319.44)" stroke-width="4" stroke-linecap="butt" stroke-miterlimit="10" stroke-linejoin="miter" fill="none" stroke="#ffffff" d="M0 0H1971"/>
<path transform="matrix(.24,0,0,-.24,60.96,394.31999)" stroke-width="4" stroke-linecap="butt" stroke-miterlimit="10" stroke-linejoin="miter" fill="none" stroke="#ffffff" d="M0 0H1971"/>
<path transform="matrix(.24,0,0,-.24,61.92,411.36)" stroke-width="4" stroke-linecap="butt" stroke-miterlimit="10" stroke-linejoin="miter" fill="none" stroke="#ffffff" d="M0 0H1967"/>
<path transform="matrix(.24,0,0,-.24,61.92,442.31999)" stroke-width="4" stroke-linecap="butt" stroke-miterlimit="10" stroke-linejoin="miter" fill="none" stroke="#ffffff" d="M0 0H1967"/>
<path transform="matrix(.24,0,0,-.24,61.92,470.4)" stroke-width="4" stroke-linecap="butt" stroke-miterlimit="10" stroke-linejoin="miter" fill="none" stroke="#ffffff" d="M0 0H1967"/>
<path transform="matrix(.24,0,0,-.24,61.92,497.28)" stroke-width="4" stroke-linecap="butt" stroke-miterlimit="10" stroke-linejoin="miter" fill="none" stroke="#ffffff" d="M0 0H1967"/>
<path transform="matrix(.24,0,0,-.24,61.92,527.28)" stroke-width="4" stroke-linecap="butt" stroke-miterlimit="10" stroke-linejoin="miter" fill="none" stroke="#ffffff" d="M0 0H1967"/>
<path transform="matrix(.24,0,0,-.24,61.92,557.27999)" stroke-width="4" stroke-linecap="butt" stroke-miterlimit="10" stroke-linejoin="miter" fill="none" stroke="#ffffff" d="M0 0H1967"/>
<path transform="matrix(.24,0,0,-.24,60.96,585.36)" stroke-width="4" stroke-linecap="butt" stroke-miterlimit="10" stroke-linejoin="miter" fill="none" stroke="#ffffff" d="M0 0H1971"/>
<path transform="matrix(.24,0,0,-.24,61.92,349.44)" stroke-width="4" stroke-linecap="butt" stroke-miterlimit="10" stroke-linejoin="miter" fill="none" stroke="#ffffff" d="M0 0H1967"/>
<path transform="matrix(.24,0,0,-.24,61.92,377.52)" stroke-width="4" stroke-linecap="butt" stroke-miterlimit="10" stroke-linejoin="miter" fill="none" stroke="#ffffff" d="M0 0H1967"/>
<path transform="matrix(.24,0,0,-.24,60.96,274.56)" stroke-width="4" stroke-linecap="butt" stroke-miterlimit="10" stroke-linejoin="miter" fill="none" stroke="#ffffff" d="M0 0H1971"/>
<path transform="matrix(.24,0,0,-.24,60.96,603.6)" stroke-width="4" stroke-linecap="butt" stroke-miterlimit="10" stroke-linejoin="miter" fill="none" stroke="#ffffff" d="M0 0H1971"/>
<g clip-path="url(#clip_2108)">
<text xml:space="preserve" transform="matrix(1 0 -0 1 259.314 763.9998)" font-size="8" font-family="Arial"><tspan y="6.316" x="0"> </tspan></text>
</g>
</g>
</g>
</svg>
