<svg xmlns="http://www.w3.org/2000/svg" xmlns:xlink="http://www.w3.org/1999/xlink" xmlns:inkscape="http://www.inkscape.org/namespaces/inkscape" version="1.1" width="576" height="784.8" viewBox="0 0 576 784.8">
<defs>
<clipPath id="clip_2358">
<path transform="matrix(1,0,0,-1,-18,802.8)" d="M18 18H594V802.8H18Z" clip-rule="evenodd"/>
</clipPath>
<clipPath id="clip_2359">
<path transform="matrix(.23999998,0,0,-.23999998,-18,802.8)" d="M925 1195H1675V433H925Z"/>
</clipPath>
<clipPath id="clip_2360">
<path transform="matrix(1,0,0,-1,259.314,763.9998)" d="M0-8H57.372V.800049H0Z"/>
</clipPath>
</defs>
<g clip-path="url(#clip_2358)">
<path transform="matrix(.23999998,0,0,-.23999998,-18,802.8)" d="M0 3035.83H2550V3372.7003H0Z" fill="#d1d3d4" fill-rule="evenodd"/>
<path transform="matrix(.23999998,0,0,-.23999998,-18,802.8)" d="M0 3078.33H2550V3420H0Z" fill="#e1ecb6" fill-rule="evenodd"/>
<text fill="#231f20" xml:space="preserve" transform="matrix(1 0 -0 1 -18 802.8)" font-size="11" font-family="Bookman"><tspan y="-730.081" x="84">A</tspan></text>
<text fill="#231f20" xml:space="preserve" transform="matrix(1 0 -0 1 -18 802.8)" font-size="7.69999" font-family="Bookman"><tspan y="-730.081" x="91.44 97.13049 102.358989 107.12548 113.27797 120.35446">NATOMY</tspan></text>
<text fill="#231f20" xml:space="preserve" transform="matrix(1 0 -0 1 -18 802.8)" font-size="11" font-family="Bookman"><tspan y="-730.081" x="125.04"> </tspan></text>
<text fill="#231f20" xml:space="preserve" transform="matrix(1 0 -0 1 -18 802.8)" font-size="7.69999" font-family="Bookman"><tspan y="-730.081" x="127.68 133.79309">OF</tspan></text>
<text fill="#231f20" xml:space="preserve" transform="matrix(1 0 -0 1 -18 802.8)" font-size="11" font-family="Bookman"><tspan y="-730.081" x="138.72 141.281"> F</tspan></text>
<text fill="#231f20" xml:space="preserve" transform="matrix(1 0 -0 1 -18 802.8)" font-size="7.69999" font-family="Bookman"><tspan y="-730.081" x="148.32 152.8985 159.01699 166.36748 171.86997 177.37245 179.94895 185.60544">LOWERING</tspan></text>
<text fill="#231f20" xml:space="preserve" transform="matrix(1 0 -0 1 -18 802.8)" font-size="11" font-family="Bookman"><tspan y="-730.081" x="191.76 194.3013"> P</tspan></text>
<text fill="#231f20" xml:space="preserve" transform="matrix(1 0 -0 1 -18 802.8)" font-size="7.69999" font-family="Bookman"><tspan y="-730.081" x="201.36 205.92819 211.11238 216.75858 221.48078">LANTS</tspan></text>
<path transform="matrix(.23999998,0,0,-.23999998,482.6352,53.635194)" d="M0 0C7.32 7.32 16.16 10.98 26.52 10.98H97.35C107.71 10.98 116.55 7.32 123.87 0 131.19-7.33 134.85-16.17 134.85-26.52V-101.52C134.85-111.88 131.19-120.72 123.87-128.04 116.55-135.36 107.71-139.02 97.35-139.02H26.52C16.16-139.02 7.32-135.36 0-128.04-7.32-120.72-10.98-111.88-10.98-101.52V-26.52C-10.98-16.17-7.32-7.33 0 0" fill="#ffffff" fill-rule="evenodd"/>
<text fill="#231f20" xml:space="preserve" transform="matrix(1 0 -0 1 -18 802.8)" font-size="11" font-family="Bookman"><tspan y="-729.361" x="505.92 513.06">77</tspan></text>
<path transform="matrix(.23999998,0,0,-.23999998,-18,802.8)" d="M2 2H2548V214.67H2Z" fill="#cbdf7f" fill-rule="evenodd"/>
<path transform="matrix(.23999998,0,0,-.23999998,-18,802.8)" stroke-width="4" stroke-linecap="butt" stroke-miterlimit="1000" stroke-linejoin="miter" fill="none" stroke="#cbdf7f" d="M2 2H2548V214.67H2Z"/>
<path transform="matrix(.23999998,0,0,-.23999998,579.6,.11999512)" stroke-width="1" stroke-linecap="butt" stroke-miterlimit="10" stroke-linejoin="miter" fill="none" stroke="#000000" d="M0 0H60"/>
<path transform="matrix(.23999998,0,0,-.23999998,576.12,-18)" stroke-width="1" stroke-linecap="butt" stroke-miterlimit="10" stroke-linejoin="miter" fill="none" stroke="#000000" d="M0 0V-60"/>
<path transform="matrix(.23999998,0,0,-.23999998,579.6,784.44)" stroke-width="1" stroke-linecap="butt" stroke-miterlimit="10" stroke-linejoin="miter" fill="none" stroke="#000000" d="M0 0H60"/>
<path transform="matrix(.23999998,0,0,-.23999998,576.12,788.16)" stroke-width="1" stroke-linecap="butt" stroke-miterlimit="10" stroke-linejoin="miter" fill="none" stroke="#000000" d="M0 0V-59"/>
<path transform="matrix(.23999998,0,0,-.23999998,-17.88,-18.23999)" stroke-width="1" stroke-linecap="butt" stroke-miterlimit="10" stroke-linejoin="miter" fill="none" stroke="#000000" d="M0 0V-75"/>
<g clip-path="url(#clip_2359)">
<path transform="matrix(.23999998,0,0,-.23999998,294.2208,516.4296)" d="M0 0C205.76 0 373.59-170.51 373.59-379.56 373.59-588.62 205.76-759.13 0-759.13-205.76-759.13-373.58-588.62-373.58-379.56-373.58-170.51-205.76 0 0 0" fill="#fffcd5" fill-rule="evenodd"/>
</g>
<text fill="#231f20" xml:space="preserve" transform="matrix(1 0 -0 1 -18 802.8)" font-size="10.5" font-family="Bookman"><tspan y="-685.681" x="60 65.20961 70.41922 74.78883 78.52844 81.428058 86.637668 92.47727 95.376888 98.2765 103.696109 105.96823 111.80784 118.48745 124.74706 127.01919 133.2788 139.11841 143.48802 149.32764 152.22725 155.12686 160.33647 163.23609 165.5082 169.2478 174.87741 177.14952 182.35913 188.19875 193.40836 200.08797 202.36008 207.98969 211.7293 218.4089 223.61852 227.28 230.39072 232.66394 238.92465 245.60536 250.81607 253.0893 258.72 263.93074 269.77143 272.67213 274.94535 280.57606 284.94676 287.21998 291.6 297.2284 304.1168 310.7952 317.0536 319.3245 325.1629 331.8413 338.0997 340.3706 343.269 348.8974 354.5258 359.7342 364.9426 367.841 373.2594 375.5303 381.3687 385.73713 390.10554 395.94395 402.62236 408.04075 413.24916">vertically and parallel to each other. The oval or round and loosely arranged</tspan><tspan y="-671.761" x="60 65.457508 71.965007 77.84251 84.770008 90.43751 96.10501 99.11251 105.62001 111.70751 116.32501 121.78252 128.71002 134.16753 141.09503 146.76253 156.63004">spongy parenchyma</tspan></text>
<text fill="#231f20" xml:space="preserve" transform="matrix(1 0 -0 1 -18 802.8)" font-size="10.5" font-family="Bookman"><tspan y="-671.76" x="162.717"> </tspan></text>
<text fill="#231f20" xml:space="preserve" transform="matrix(1 0 -0 1 -18 802.8)" font-size="10.5" font-family="Bookman"><tspan y="-671.76" x="166.08 169.2268 174.68361 177.64041 183.09722 186.24402 190.23082 197.36762 203.45442 207.44123 212.89803 219.40483 222.36164 228.86844 234.32524 237.47205 243.34885 251.53565 254.49245 258.47926 265.40605 270.86283 273.81965 280.32646 286.41325 289.56004 292.70683 298.1636 304.2504 310.7572 316.214 319.1708 324.6276 330.08439 333.23118 336.37797 341.83476 344.79158 350.87837 357.80516 364.31196 367.26878 372.72557 378.60237 382.58915 388.04594 394.97273 401.47953 406.9363 409.89314 413.8799">is situated below the palisade cells and extends to</tspan><tspan y="-657.6" x="60 63.98471 70.909427 76.364139 79.77884 82.923549 88.798259 96.98296 102.437679 107.05238 110.46709 115.9218 122.426509 125.57121 132.07593 137.53064 142.14536 152.01007 155.15479 160.6095 163.9642 167.3789 173.88362 180.80834 186.26305 190.87776 196.33248 199.74718 205.8319 210.44661 215.90132 219.31603 226.24074 233.37545 243.24016 248.69487 253.30959 259.1843 266.319 271.7737 275.18843 278.33314 284.41786 289.03257 294.69728 300.15199 303.56669 309.0214 315.5261 321.6108 327.06553 332.52024 337.97496 341.38966 347.47438 354.39909 360.90379 364.31849 370.4032 373.5479 378.16264 381.57734 387.03205 393.11677 398.57148 401.7162 405.7009 408.8456 414.30033">the lower epidermis. There are numerous large spaces and air cavities</tspan><tspan y="-643.68" x="60 66.4038 71.7576 75.641399 83.7252 89.078998 94.43279 101.25659 103.672908 107.5567 114.3805 119.7343 125.0881 130.4419 132.8582 138.212 143.56581 146.6096 149.6534 155.0072 158.261 160.6773">between these cells.  </tspan></text>
<text fill="#231f20" xml:space="preserve" transform="matrix(1 0 -0 1 -18 802.8)" font-size="10.5" font-family="Bookman"><tspan y="-643.68" x="162.96 170.5364 176.6428 182.1192 188.2256 195.172 198.75839 204.86479 209.7112 212.3476 217.82399 224.35039 229.82678 234.67319 240.77959">Vascular system</tspan></text>
<text fill="#231f20" xml:space="preserve" transform="matrix(1 0 -0 1 -18 802.8)" font-size="10.5" font-family="Bookman"><tspan y="-643.68" x="251.28 253.6925 256.7325 263.55253 268.90254 271.94255 278.97254 285.37254 290.72254 296.07255 298.48506 303.83506 309.81507 315.16508 320.51509 327.54508 330.58509 336.5651 341.0751 343.4876 349.8876 356.9176 363.7376 370.1376 373.1776 378.52763 383.87763 387.12763 389.54014 397.62013 404.44013 407.48014 412.83015"> includes vascular bundles, which</tspan><tspan y="-629.76" x="60 65.41 71.450008 78.33 80.804309 87.264308 92.67431 95.14861 100.55862 105.96862 111.378627 118.25862 120.732929 123.832927 130.71292 133.18723 137.12723 144.00724 149.41724 151.89154 157.30155 162.71155 165.81156 172.69156 178.10157 180.57587 186.61586 193.49587 199.95587 202.43018 206.37018 213.25019 218.66019 221.13449 230.9545 234.0545 240.51451 245.08452 248.18453 254.64453 257.95454 260.42884 266.88883 273.76884 279.17884 281.65315 287.06315 290.16316 295.15315 300.56315 303.03746 308.86744 312.17744 314.65174 318.59175 325.47175 330.88175 333.35606 338.76606 344.80607 350.21607 355.62608 362.71607 365.81608 371.85609 376.4261 378.9004 385.36039 392.45039 399.33039 405.79039 408.89039 414.30039">can be seen in the veins and the midrib. The size of the vascular bundles</tspan><tspan y="-615.6" x="60 66.0579 70.6458 76.0737 78.56591 85.04381 90.47171 96.94961 102.37751 109.27541 115.75331 121.18121 128.07912 132.03702 134.52922 140.37712 147.27503 149.76723 153.72513 160.62303 166.05094 168.54314 173.97104 177.08895 182.09685 187.52475 190.01696 195.86486 199.19275 201.68495 205.64286 212.54076 217.96866 220.46086 225.88877 231.31667 234.43457 241.33248 246.76038 250.08827 252.58048 259.05839 265.95628 271.38417 273.87638 279.30427 284.73216 287.85005 294.74794 300.1758 302.66804 308.09593 314.1538 318.7417 324.3796 326.87184 329.98973 336.8876 339.37983 343.3377 350.2356 353.3535 358.78138 365.25929 372.15718 377.58506 383.01295 388.44084 390.93305 394.05094 400.94883 403.44105 407.39894 414.2968">are dependent on the size of the veins. The veins vary in thickness in the</tspan><tspan y="-601.68" x="60 64.88989 70.61978 74.87967 78.29956 84.02945 91.43934 94.85923 101.219127 105.47901 111.2089 116.516498 122.24638 127.97627 135.17617 141.53606 145.79595 149.21584 155.36573 162.56562 167.8732 174.02309 177.65297 182.96056 187.22045 194.42034 200.15023 205.45781 212.2377 215.6576 221.38748 227.53737 231.79726 237.10485 240.52474 246.25463 252.61452 258.34443 264.0743 269.8042 273.43409 278.74168 285.52156 292.72145 298.45133 303.7589 309.4888 315.8487 321.57859 327.30848 334.71836 338.13825 344.49815 349.38804 354.69563 361.4755 368.88539 376.08528 382.86515 386.28504 392.01493 397.7448 403.0524 409.4123 414.3022">reticulate venation of the dicot leaves. The vascular bundles are</tspan><tspan y="-587.76" x="60 65.4557 72.5914 77.2071 81.8228 87.6985 94.8342 101.759899 108.265598 113.7213 120.227 124.66839 131.17409 136.83979 141.28118 147.36687 151.80826 154.95397 161.03966 166.70536 172.16106 176.77677 181.21816 187.09386 190.44956 194.89095 198.87665 205.80236 208.94806 214.40377 220.90947 225.35086 233.53656 239.62226 242.76796 245.91367 251.36937 257.87507">surrounded by a layer of thick walled </tspan></text>
<text fill="#231f20" xml:space="preserve" transform="matrix(1 0 -0 1 -18 802.8)" font-size="10.5" font-family="Bookman"><tspan y="-587.761" x="262.316 268.7566 275.82719 283.10777 289.96836 293.67897 299.90956 304.84516 310.44575 317.72633 323.9569 330.1875 335.15809 342.43867 347.37428 353.60487 359.83546 363.54606 367.25666">bundle sheath cells</tspan></text>
<text fill="#231f20" xml:space="preserve" transform="matrix(1 0 -0 1 -18 802.8)" font-size="10.5" font-family="Bookman"><tspan y="-587.761" x="372.96 376.33378 380.80757 387.12135 393.01515 398.90895 405.43275 409.90653 416.0103">. Look at</tspan><tspan y="-573.6" x="60 66.71651 69.863018 75.529529 82.66604 87.28255 92.73906 95.44558 101.95209 105.30859 111.8151 114.52163 117.66814 123.75465 126.90115 129.60767 135.69419 142.6207 149.12722 151.83373 155.19023 158.33675 165.26326 171.76978 174.47629 178.4628 185.38932 190.84583 193.55234 200.05886 205.93537 211.39188 214.53839 218.5249 221.67142 227.54793 234.47444 237.18096 243.05747 246.41397 249.12049 254.997 260.6635 263.81004 269.26655 279.13307 281.83958 284.98609 291.9126 294.6191 298.60563 305.53215 310.98866 313.69517 319.15168 325.2382 330.6947 336.1512 343.28773 346.43424 352.52076 357.13728 359.84379 366.35029 373.4868 380.4133 386.9198 390.0663 395.52284">Figure 6.5 (a) and find the position of xylem in the vascular bundle.</tspan></text>
<text fill="#00aeef" xml:space="preserve" transform="matrix(1 0 -0 1 -18 802.8)" font-size="12" font-family="Bookman"><tspan y="-547.681" x="60 68.399997 72.959987 81.35997 85.91996 104.88 109.72089 116.00178 123.482669 130.72356 135.08444 139.20534 146.20623 151.76712 158.768 164.32889 171.32978 175.45067 180.29657 184.17746 195.49835 202.97925 211.18015 218.66104 225.66193 233.14282 238.7037 246.1846 250.3055 257.3064 265.02729 272.50819 280.70909 288.18998 296.15086 302.43174 306.31263 311.1585 318.8794 325.88029 332.88117">6.2.6Isobilateral (Monocotyledonous) Leaf</tspan></text>
<text fill="#231f20" xml:space="preserve" transform="matrix(1 0 -0 1 -18 802.8)" font-size="10.5" font-family="Bookman"><tspan y="-527.761" x="60 66.3755 73.171009 78.496509 80.88362 86.83912 93.63462 99.59012 103.44562 109.19112 118.92662 124.46212 126.849239 132.59474 135.82024 138.20734 141.22284 146.54834 152.29384 158.66934 161.68485 164.70035 170.65586 174.51136 179.83686 184.32236 190.27787 193.29337 195.68047 198.69597 204.02147 209.97698 213.20247 215.58957 218.60507 223.93058 226.31768 231.64318 234.65868 244.39418 247.40969 250.42519 256.38069 260.86619 263.2533 267.1088 272.8543 275.24143 279.09693 285.89244 291.84794 295.70344 298.09056 303.83607 307.06156 309.44868 313.30418 320.09968 325.42518 327.8123 334.18778 339.9333 344.4188 349.7443 352.7598 358.0853 363.4108 370.2063 374.0618 378.5473 384.5028 387.5183 389.90544 392.92094 398.24644 404.20195 407.42744 409.81455 412.83006">The anatomy of isobilateral leaf is similar to that of the dorsiventral leaf in</tspan><tspan y="-513.6" x="60 69.92799 76.07598 83.06397 88.79196 93.88765 102.13564 108.28363 114.01162 119.52961 122.9476 128.04329 131.67128 135.71927 140.81496 146.33295 153.32094 159.25893 167.50691 173.0249 178.12059 182.16858 189.15657 194.67456 199.77025 203.18824 209.12622 212.33422 215.5422 221.4802 229.72818 232.93618 239.92417 245.65216 250.74785 256.26585 263.2538 269.4018 274.07978 280.22776 285.74577 289.79377 295.31178 299.98976 303.19773 308.71574 312.76374 315.9717 321.48973 326.58543 333.1534 336.3614 339.7794 343.1974 348.7154 353.39338 358.91139 365.89936 371.41737 376.93537 382.45338 385.87138 390.96708 394.59507 401.58305 406.67875 412.82673">many ways. It shows the following characteristic differences. In an</tspan><tspan y="-499.681" x="60 63.14871 68.60742 74.48613 80.99484 84.143558 87.29227 93.38098 97.36969 102.8284 107.44711 113.53583 116.68454 121.06595 124.21466 129.67337 135.76209 139.12079 142.47949 146.8609 150.84961 157.77832 163.23703 167.61844 173.07715 177.06586 182.94457 192.81328 198.902 202.8907 208.97942 213.36083 219.44954 224.06826 229.52696 233.90837 240.41709 245.0358 250.4945 255.95322 261.41194 268.34065 272.32936 276.71076 282.58949 289.5182 293.8996 300.4083 306.28703 310.27574 317.20445 321.58586 325.57456 332.50328 337.96199 342.34339 347.8021 354.9408 359.5595 362.9182 369.00694 374.46565 379.92436 385.38307 389.76448 395.6432 399.0019 403.3833 407.372 414.30073">isobilateral leaf, the stomata are present on both the surfaces of the</tspan><tspan y="-485.761" x="60 65.21 71.47 74.37 80.630008 85.840007 90.21001 99.83001 102.73001 107.94001 111.05001 113.32501 119.165019 125.84502 132.10501 134.38 138.12001 144.80002 150.01003 152.28502 161.90502 167.11502 172.32503 177.95503 184.21503 190.89502 196.31502 199.21501 202.115 204.39 207.29 212.5 214.775 221.45499 227.08499 230.825 233.09999 239.35999 242.25998 245.36998 248.47998 253.68999 258.06 263.27 269.94999 273.68998 276.58998 282.42997 286.16996 291.37995 297.63996 299.91496 302.81495 309.49494 313.23493 318.86494 321.13993 327.39994 333.23994 336.13993 339.03993 344.2499 350.0899 356.3499 361.5599 363.8349 369.6749 376.3549 382.6149 384.8899 390.09989 396.3599 401.9899 408.6699 414.0899">epidermis; and the mesophyll is not differentiated into palisade and spongy</tspan><tspan y="-471.6" x="60 66.50441 72.58882 77.20323 82.65764 89.58205 95.03645 101.96086 107.625278 117.489688 123.5741 126.39522 129.53963 136.25405 139.39846 145.06287 152.19728 156.81169 162.2661 165.08722 171.59163 174.94605 181.45046 184.27158 190.77599 193.9204">parenchyma (Figure 6.5 b).</tspan><tspan y="-457.681" x="78 81.56581 88.49162 92.797428 98.463237 103.07904 109.16485 114.62066 120.07647 125.53228 130.9881 134.3439 138.6497 144.10552 149.56133 154.17714 158.16295 164.24877 167.39458 174.32039 178.62619 184.712 191.21782 197.30364 203.17945 206.32526 212.41107 215.55689 219.86269 225.3185 231.82431 234.97013 241.47594 246.93175 251.54756 261.41337 267.49919 270.645 274.95079 280.4066 285.8624 289.0082 292.15403 297.60984 301.91563 308.00144 311.14726 317.02308 323.94889 329.6147 333.92048 337.90629 344.8321 350.2879 354.5937 360.0495 365.5053 368.65113 375.57695 381.03276 385.33854 395.20436 401.08018 407.58598 410.73179 414.0876">In grasses, certain adaxial epidermal cells along the veins modify</tspan><tspan y="-443.761" x="60 63.89661 70.73322 76.09983 85.87644 91.24305 96.60966 99.66627 105.032878 110.39948 115.76609 118.19381 121.25042 128.08704 131.98365 137.77025 140.19799 143.2546 149.2512 153.77782 159.35443 164.72104 167.98766 170.41539 175.782 185.55861 191.97522 195.87183 201.44844 204.71506 207.14279 212.5094 218.296 221.35262 227.13922 234.18584 238.71245 241.76906 247.13567 252.50228 257.8689 260.2966 265.6632 271.02983 274.08644 277.14305 282.50965 285.77626 288.20396 294.62055 301.45716 306.82377 312.19038 317.55699 319.98469 325.9813 330.5079 335.8745 338.30223 343.66883 349.66545 352.72206 355.77867 361.14527 367.56187">themselves into large, empty, colourless cells. These are called </tspan></text>
<text fill="#231f20" xml:space="preserve" transform="matrix(1 0 -0 1 -18 802.8)" font-size="10.5" font-family="Bookman"><tspan y="-443.761" x="370.08 376.3425 383.235 386.7675 390.3 394.04249 397.995 404.4675 409.26">bulliform</tspan><tspan y="-429.6" x="60 66.08001 72.16002 75.72003 79.280048 84.73006 88.29007">cells. </tspan></text>
<text fill="#231f20" xml:space="preserve" transform="matrix(1 0 -0 1 -18 802.8)" font-size="10.5" font-family="Bookman"><tspan y="-429.6" x="90.72 100.69951 107.52902 112.888538 119.71805 122.136669 126.02618 132.85569 138.2152 140.6338 147.04332 154.08283 157.13234 160.18186 163.23137 166.49088 172.27039 176.7899 186.55942 188.97803 194.33754 199.69705 202.74657 205.79608 211.1556 213.5742 216.62372 223.45323 225.87184 229.76136 236.59087 241.95038 244.36899 247.4185 252.77802 258.76753 264.127 269.4865 274.846 277.26466 284.09416 290.08366 295.44316 300.80265 303.22129 309.2108 315.6203 320.9798 326.7593 331.2788 337.68833 343.04783 349.45735 351.87599 359.96549 365.955 369.84449 375.20399 379.72349 382.14213 388.13163 394.96113 401.37065 403.78929 409.77879 414.29829">When the bulliform cells in the leaves have absorbed water and are</tspan><tspan y="-415.681" x="60 63.9866 71.1232 75.7398 81.4064 84.553 91.0596 94.4162 97.935298 101.9219 108.848499 114.3051 117.824199 120.970798 126.4274 132.51399 135.87059 139.3897 144.8463 151.9829 156.5995 159.9561 166.0427 171.4993 176.9559 180.475 183.62162 189.07822 192.59732 198.05393 203.93053 210.43714 216.31374 221.77034 227.22695 233.73355 237.09015 240.60926 250.68585 257.61247 263.06907 269.99568 273.51478 277.50138 284.42799 289.88459 295.55119 299.07029 305.1569 309.7735 315.2301 318.7492 322.1058 325.2524 331.33903 336.79563 342.25224 345.39884 351.90544 355.42454 361.93113 369.06773 374.52433 378.04344 382.03004 387.90663 391.42573 399.61235 405.69895 409.68556 415.14216">turgid, the leaf surface is exposed. When they are flaccid due to water</tspan><tspan y="-401.761" x="60 65.42261 69.37522 73.95783 79.38044 84.80305 90.225658 93.54826 96.03587 99.98849 106.881099 112.3037 117.93631 120.42392 130.25653 136.30915 142.78176 148.20436 150.69197 154.64458 161.53719 166.9598 169.4474 172.56002 177.98262 184.03524 189.45784 194.88045 200.30306 202.79067 208.21327 215.31589 219.8985 223.01111 225.49872 228.61133 235.50394 243.65656 249.70917 254.29178 260.76438 266.18699 268.6746 272.6272 278.46983 280.95744 290.79005 293.90266 300.79527 303.90788 313.74049 316.8531 322.2757 327.6983 330.1859 338.33854 344.39115 348.34376 353.76637 358.34898 360.83659 363.9492 369.7918 375.21443 380.63703">stress, they make the leaves curl inwards to minimise water loss.</tspan><tspan y="-387.6" x="78 84.38061 91.18122 96.51183 98.90614 105.28675 111.24736 115.73797 121.69858 124.719188 127.73979 133.0704 136.09102 138.48532 143.81594 149.14655 155.94716 161.90778 165.76839 168.789 174.53961 181.34023 183.73453 186.75514 193.55576 195.95006 205.69068 211.44129 218.2419 223.99251 229.32312 235.07373 238.93434 241.32865 244.34926 249.67987 255.64049 260.9711 266.3017 271.6323 274.0266 277.0472 282.3778 284.77214 289.26274 294.59333 297.82395 300.84455 306.17515 311.50575 315.36634 320.69694 327.07756 329.47187 332.49247 339.29307 341.68739 345.54798 352.34858 357.67918 360.0735 366.87409 372.20469 378.16529 382.65589 385.0502 390.3808 393.4014 403.142 406.1626 409.1832 415.1438">The parallel venation in monocot leaves is reflected in the near similar</tspan><tspan y="-373.681" x="60 65.2666 68.223209 73.06981 78.33641 83.60301 85.93213 91.61873 94.78533 97.11445 102.38105 108.27765 113.54425 118.81085 125.757457 128.71405 134.61066 139.03726 141.36637 147.68297 154.62957 161.36617 167.68277 170.63938 175.90598 181.17258 183.50168 186.45829 191.72489 197.41149 202.67809 207.94469 214.26129 218.05789 220.387 223.3436 230.0802 232.4093 242.0859 247.98252 250.93912 257.67573 260.00483 265.27143 270.53804 273.49464 280.23124 285.49784 288.45445 290.78355 296.68016 301.94676 304.27586 309.54246 314.80906 320.07566 326.81227 329.14137 332.09797 338.83457 341.16368 346.43028 351.69688 356.12348 359.92008 362.87669 368.14329 374.0399 376.9965 379.3256 384.5922 389.8588 395.1254 398.922 401.8786 407.56523 414.30183">sizes of vascular bundles (except in main veins) as seen in vertical sections</tspan><tspan y="-359.761" x="60 65.78081 69.04162 71.47744 75.36825 82.19906 87.55987 89.99569 93.0465 98.40731 104.39812 109.75893 115.119739 120.480548">of the leaves.</tspan></text>
<text fill="#00aeef" xml:space="preserve" transform="matrix(1 0 -0 1 -18 802.8)" font-size="13" font-family="Bookman"><tspan y="-328.561" x="277.92">S</tspan></text>
<text fill="#00aeef" xml:space="preserve" transform="matrix(1 0 -0 1 -18 802.8)" font-size="9.1" font-family="Bookman"><tspan y="-328.561" x="287.04 293.9782 302.7364 311.49458 318.25077 325.55296">UMMARY</tspan></text>
<text fill="#231f20" xml:space="preserve" transform="matrix(1 0 -0 1 -18 802.8)" font-size="10.5" font-family="Bookman"><tspan y="-290.4" x="97.92 105.020099 111.910198 117.9603 121.9104 127.7505 137.5806 140.6907 146.11081 152.1609 155.27101 158.38112 164.01122 167.33132 169.81302 175.86312 178.34482 184.81491 187.92502 193.97512 200.86522 204.81533 207.29703 210.40714 215.82724 218.30895 228.13904 234.18914 240.65924 246.07935 248.56105 254.40116 257.72126 260.20298 266.67308 269.78318 273.10328 276.42338 281.84349 286.42359 291.8437 298.7338 302.6839 305.16563 311.6357 314.74583 321.63594 328.10603 333.52613 336.00785 341.84794 345.16804 347.64976 351.59986 354.70997 360.13008 365.55018 372.65028 378.07038 383.49049 386.81059 389.2923 395.7624 402.6525 408.0726 410.55433 417.0244 420.13453 426.18464 433.07475 437.02485 439.50657 443.45668 446.56678 451.98689 457.40699 464.50709 469.9272 475.3473 477.829 483.87913 488.45924">Anatomically, a plant is made of different kinds of tissues. The plant tissues are</tspan><tspan y="-276.481" x="97.92 104.16861 108.52722 114.14583 119.97444 126.22305 129.11167 134.52028 136.78002 141.97863 144.86724 150.69585 155.89446 161.09307 163.98168 167.08029 169.9689 175.16751 181.41613 183.67586 186.56447 193.23308 196.96169 202.58029 204.84003 214.44864 219.64725 224.00586 226.89447 232.09308 235.82169 241.0203 250.6289 256.45753 260.18614 263.07475 268.27336 270.53306 273.42167 279.25028 285.49888 288.38749 293.5861 299.4147 302.3033 305.40193 307.66163 310.55024 316.37886 320.10746 325.30607 329.66468 335.4933 338.3819 340.6416 346.4702 353.13883 359.38743 361.64714 364.53575 371.20436 374.93296 380.13157 384.49018 389.68879 395.5174 398.406 404.23463 408.59324 414.00184 416.89045 419.15016 424.97877 431.64738 437.89598 440.15568 446.40428 451.60289 455.9615 465.5701 471.3987 478.06733 483.26594 489.93455">broadly classified into meristematic (apical, lateral and intercalary) and permanent</tspan><tspan y="-262.561" x="97.92 100.84961 106.08922 109.01883 118.66844 124.95805 127.887668 133.12728 135.43058 141.30019 148.0098 154.29941 156.6027 161.84232 167.50193 177.15154 183.44115 186.37076 191.61037 197.26998 200.19959 203.33919 205.64249 212.5621 217.80171 223.04132 225.97093 235.62055 238.55016 241.47977 247.34938 251.11899 254.0486 259.70823 266.41786 268.72117 274.38078 277.5204 279.8237 282.96333 288.62294 294.28254 300.57215 302.87547 308.74507 315.45469 321.7443 324.0476 326.9772 330.74684 335.98646 338.28977 343.5294 347.299 352.95863 357.35823 363.2278 368.67744 373.91706 377.05668 379.36 383.1296 387.5292 393.3988 400.10844 405.34806 411.63768 417.29728 421.69688 425.4665 431.3361 435.1057 438.0353 443.69493 450.40455 452.70787 458.36747 461.50709 463.8104 471.78 477.6496 481.41923 486.65885 490.56">(simple and complex). Assimilation of food and its storage, transportation of water,</tspan><tspan y="-248.4" x="97.92 107.790699 110.9414 117.8721 123.3328 127.9535 134.0442 137.1949 142.6556 145.3274 151.41809 158.34879 164.85948 167.53128 174.04198 180.97267 186.85338 190.84409 196.7248 202.18549 207.85619 214.78688 218.77759 225.70829 231.79898 235.78969 241.25038 246.71108 250.07178 252.74358 258.8343 265.76499 272.2757 274.94749 284.81819 290.27888 295.73957 302.67027 308.76097 315.69166 318.84236 324.30305 330.39375 333.54444 336.21623 341.6769 348.8176 355.3283 361.83903 367.71974 372.34043 376.33113 379.0029 385.0936 389.7143 395.175 397.84678 401.83747 408.76817 414.22886 416.90065 426.77134 432.86204 436.01274 442.94343 445.6152 448.9759 456.11659 463.04728 468.50798 472.49867 475.64936 481.53007 488.46076">minerals and photosynthates, and mechanical support are the main functions</tspan><tspan y="-234.481" x="97.92 103.79491 107.14982 111.14312 115.12803 118.27294 123.72785 129.18277 136.31768 141.77259 147.2275 150.5824 154.5757 161.08061 168.00553 173.46044 178.07535 183.53026 187.52356 193.60848 198.22339 203.6783 207.6716 211.65651 218.58142 223.19634 228.65125 234.10616 238.09946 242.08437 247.74929 254.2542 259.7091 265.164 269.15733 275.03224 278.38716 282.38047 286.3654 289.51029 294.9652 300.4201 307.55503 313.00996 317.00328 320.99659 326.45149 332.1164 337.5713 341.5562 347.0111 356.876 362.33094 366.32426 371.56916 375.56248 381.0174 387.5223 390.6672 397.17213 402.627 407.2419 417.1068 423.1917 426.3366 429.69154 433.68486 439.34977 443.96467 449.83958 456.9745 463.89939 470.4043 474.3976 480.4825 487.4074">of tissues. There are three types of tissue  systems &#x2013; epidermal, ground and</tspan><tspan y="-220.561" x="97.92 103.3757 109.4614 114.91711 120.37281 127.50851 130.6542 136.7399 140.88 144.24 147.85501 154.365 161.29502 166.75502 170.37003 175.83003 182.34003 185.49002 192.00002 197.46002 202.32 212.18332 218.26663 221.40995 225.01827 229.00157 232.14488 237.59819 243.0515 250.18482 255.63813 259.24644 264.69975 270.36305 275.81636 279.79966 285.25297 295.11628 300.56959 304.1779 310.2612 314.88 320.341 323.957 333.828 339.919 346.43 351.891 355.507 361.388 364.749 368.365 373.826 380.33699 383.48799 389.99897 395.45997 400.32 410.1812 416.26243 419.40364 423.00984 428.46104 433.91224 437.05345 440.19465 445.64585 448.99705 452.60325 458.05445 462.03565 467.90684 477.76805 483.84925 487.83045">vascular. The epidermal tissue systems are made of epidermal cells, stomata</tspan><tspan y="-206.4" x="97.92 104.00621 110.93242 117.43863 120.01305 123.99926 130.92548 136.38169 138.95612 144.41233 150.91854 154.06475 160.57096 166.02716 170.64337 180.50959 186.5958 189.742 192.31644 198.40265 204.90886 211.41507 216.87128 223.79749 230.3037 236.38991 242.05612 247.51233 252.96854 256.32475 258.89915 265.40534 272.33155 277.78776 280.36216 286.02836 290.64457 296.52079 303.65699 310.5832 317.08943 319.66383 323.65003 326.79624 332.25245 337.70866 344.84486 350.30107 352.87547 358.33168 363.99787 369.45408 373.44029 378.89649 388.7627 391.3371 394.6933 400.56953 405.18574 415.05195 420.50816 423.08256 427.06877 433.99497 439.45118 442.02558 451.89179 457.978 461.1242 468.0504 470.62483 477.13105 484.26725 487.41346">and the epidermal appendages. The ground tissue system forms the main bulk</tspan><tspan y="-192.481" x="97.92 103.610698 106.781398 109.1155 112.9162 119.6569 124.9276 127.2617 133.5824 136.54309 142.44379 149.1845 152.9852 156.1559 158.49 161.87071 165.67142 168.00553 170.96622 176.23693 178.57103 184.89173 187.85242 193.12313 196.08382 202.40451 207.67522 213.99591 216.33002 219.29071 226.03142 229.83213 235.52283 237.85694 241.65764 248.39835 252.82904 258.09974 263.37043 265.70457 270.55528 276.24598 282.98667 288.25736 293.52806 295.86216 300.92286 303.257 308.52769 314.21839 318.64909 322.44978 327.72047 333.41117 336.58186 338.916 345.2367 350.5074 354.93809 357.89878 363.16947 368.65019 373.92088 376.88157 382.15226 384.48637 390.38706 397.12776 403.44847 405.78257 412.10328 415.06398 418.86466 425.60536 428.77607 431.1102 437.4309 444.1716 449.4423 451.7764 457.0471 462.94779 468.21849 473.48918 480.43989 483.40058 489.30128">of the plant. It is divided into three zones &#x2013; cortex, pericycle and pith. The vascular</tspan><tspan y="-178.561" x="97.92 101.9057 105.0514 110.5071 115.96281 123.0985 128.5542 131.68849 137.1442 142.80989 148.2656 152.2513 157.707 167.57271 170.707 173.8527 179.30841 182.4427 185.7984 191.6741 196.28981 206.15552 211.61122 218.11693 221.25122 227.75693 233.42263 236.55692 240.54262 247.46833 252.92403 256.05833 261.93403 267.59974 270.74543 276.2011 286.0668 289.2011 295.2868 302.2125 308.7182 311.8525 318.35823 325.2839 328.4296 334.3053 339.761 349.62669 352.9824 356.1167 364.5124 371.43809 374.5724 378.55809 385.48377 390.93946 394.07377 400.57948 406.66517 412.12086 415.26655 420.72224 423.85655 429.73225 433.08796 436.22227 442.72798 447.34367 452.79936 458.25505 463.71073 470.6364 476.0921 481.5478 484.6821 490.5578">tissue system is formed by the xylem and phloem. On the basis of presence of</tspan><tspan y="-164.4" x="97.92 103.3779 109.4658 119.333698 125.8416 128.9895 136.1274 145.9953 149.3532 152.5293 155.6772 161.5551 167.013 173.1009 177.0888 180.23671 186.11461 193.04251 196.21862 202.09651 205.4544 208.63051 214.5084 220.1763 223.3242 228.7821 238.65001 241.82611 247.91402 254.84192 261.34983 264.52595 271.03385 277.96174 281.10963 286.98753 292.4454 302.3133 305.6712 308.84733 312.83525 319.76313 325.221 328.39714 333.855 339.9429 345.4008 350.85868 357.99659 361.14448 367.23237 371.85026 375.02638 381.53428 388.67219 395.60008 402.10798 405.25587 410.71376 416.17164 419.34776 425.43565 430.05354 435.5114 438.68754 444.56544 447.92335 451.09947 457.60737 460.75526 464.11317 467.47108 472.92897 477.54685 483.00474 489.93263">cambium, location of xylem and phloem, the vascular bundles are of different</tspan><tspan y="-150.481" x="97.92 101.90531 107.57062 114.07593 119.531238 124.98654 128.34186 130.95218 137.45749 144.3828 149.8381 152.44843 157.90373 163.98905 169.44435 174.89966 182.03498 185.18029 191.2656 195.8809 198.49123 204.99654 212.13185 219.05716 225.56247 228.70778 234.16309 239.6184 242.22872 245.58403 251.45934 256.56 266.43 269.04499 273.03498 279.96498 285.42497 288.03996 293.49995 299.37995 306.30995 312.81996 319.95997 325.41996 329.40995 332.55995 339.48994 345.15995 347.77494 351.76493 354.91493 360.3749 365.8349 372.9749 378.4349 381.0499 387.1399 394.0699 400.5799 403.1949 407.18489 411.80488 417.89488 424.82487 430.28486 433.43486 439.31486 444.77485 450.86485 454.85484 460.31483 462.9298 471.1198 477.2098 481.1998 486.6598">types. The vascular bundles form the conducting tissue and translocate water</tspan><tspan y="-150.48047" x="490.556">,</tspan><tspan y="-136.56049" x="97.92 107.74191 110.84383 117.72574 123.13765 127.70956 133.75147 136.85338 142.26529 144.74391 150.78583 157.66774 164.12966 166.60828 169.92018 175.75209 181.584 188.04592 190.52454 200.34645 206.38837 210.33028 215.74219 220.3141 223.41602 229.45793 232.55985">minerals and food material.</tspan><tspan y="-122.40045" x="115.92 125.4164 131.1328 137.8992 143.6156 148.912 154.6284 158.4548 163.9612 166.9476 172.244 178.59041 184.30681 191.07321 196.78961 203.766 209.06241 211.42131 217.34772 224.11412 230.46053 232.81943 239.16584 242.15224 247.44864 253.16504 256.99143 262.49784 265.48423 270.7806 277.127 282.8434 289.6098 295.3262 302.3026 307.599 309.95793 316.30433 319.2907 325.2171 331.9835 335.80989 341.10627 343.46519 348.76158 355.52796 361.24436 369.27076 371.62968 381.33607 387.26246 391.71885 398.06526 403.36164 409.70805 412.06697 417.36335 423.28974 427.74613 430.7325 436.6589 440.4853 443.47169 449.18809 455.95448 458.3134 461.29978 468.06617 470.42509 474.25148 481.01786 486.31425 489.30064">Monocotyledonous and dicotyledonous plants show marked variation in their</tspan><tspan y="-108.48047" x="97.92 100.91321 107.68642 111.51963 116.82284 121.28605 128.05927 133.99248 136.98569 139.3526 144.6558 148.48902 152.95223 159.93544 165.23865 169.07186 176.05507 180.51828 185.82149 191.1247 194.32791 196.69483 203.04804 209.82125 215.12445 220.63767 223.00458 229.35779 232.351 235.55422 238.75743 244.06064 248.52385 250.89076 253.88397 260.6572 263.0241 266.85734 272.37055 278.72377 284.02699 287.2302 289.5971 296.37034 303.35356 313.06678 319.41999 324.7232 329.1864 331.5533 337.4865 344.25975 350.61296 352.97987 355.97309 361.6963 366.9995 372.9327 376.76594 379.75917 385.48237 392.25559 394.6225 400.3457 403.54893 405.91584 411.21907 417.15226 422.45549 427.7587 434.7419 437.73515 443.66835 448.13154 450.49845 456.85166 463.83488 470.6081 476.9613 479.95454 485.25776 490.56098">internal structures. They differ in type, number and location of vascular bundles.</tspan><tspan y="-94.560489" x="97.92 104.42781 111.35562 116.81343 119.45765 124.91546 130.37328 135.83109 141.7089 148.6367 155.14452 161.23233 165.85015 171.51796 174.16217 179.82999 184.4478 190.3256 198.51342 202.50122 209.42903 212.07324 217.95105 223.40886 228.86667 236.00449 240.6223 246.08011 248.72432 251.87213 258.79994 261.44416 271.31196 277.18977 282.64759 286.6354 289.27964 295.15745 298.51527 301.1595 305.1473 312.0751 317.53294 320.17716 326.68498 329.83277 335.2906 341.1684 345.15623 350.82405 353.97184 359.42967 365.93748 371.81529 378.74308 384.62089 391.7587 397.21653 399.86076 404.47856 410.35636 416.23417 420.222 425.6798 428.32405 434.41184 441.33964 447.84745 450.49168 455.9495 459.93733 465.39515 475.26295 480.72077">The secondary growth occurs in most of the dicotyledonous roots and stems.</tspan></text>
<g clip-path="url(#clip_2360)">
<text xml:space="preserve" transform="matrix(1 0 -0 1 259.314 763.9998)" font-size="8" font-family="Arial"><tspan y="6.316" x="0"> </tspan></text>
</g>
</g>
</svg>
