<svg xmlns="http://www.w3.org/2000/svg" xmlns:xlink="http://www.w3.org/1999/xlink" xmlns:inkscape="http://www.inkscape.org/namespaces/inkscape" version="1.1" width="576" height="784.8" viewBox="0 0 576 784.8">
<defs>
<clipPath id="clip_527">
<path transform="matrix(1,0,0,-1,-18,802.8)" d="M18 18H594V802.8H18Z" clip-rule="evenodd"/>
</clipPath>
<clipPath id="clip_528">
<path transform="matrix(1,0,0,-1,259.314,763.9998)" d="M0-8H57.372V.800049H0Z"/>
</clipPath>
</defs>
<g clip-path="url(#clip_527)">
<path transform="matrix(.23999998,0,0,-.23999998,-18,802.8)" d="M0 3035.83H2550V3372.7003H0Z" fill="#d1d3d4" fill-rule="evenodd"/>
<path transform="matrix(.23999998,0,0,-.23999998,-18,802.8)" d="M0 3078.33H2550V3420H0Z" fill="#e1ecb6" fill-rule="evenodd"/>
<path transform="matrix(.23999998,0,0,-.23999998,-18,802.8)" d="M2 2H2548V214.67H2Z" fill="#cbdf7f" fill-rule="evenodd"/>
<path transform="matrix(.23999998,0,0,-.23999998,-18,802.8)" stroke-width="4" stroke-linecap="butt" stroke-miterlimit="1000" stroke-linejoin="miter" fill="none" stroke="#cbdf7f" d="M2 2H2548V214.67H2Z"/>
<text fill="#231f20" xml:space="preserve" transform="matrix(1 0 -0 1 -18 802.8)" font-size="11" font-family="Bookman"><tspan y="-730.081" x="84">C</tspan></text>
<text fill="#231f20" xml:space="preserve" transform="matrix(1 0 -0 1 -18 802.8)" font-size="7.69999" font-family="Bookman"><tspan y="-730.081" x="92.16 97.633197 102.18239">ELL</tspan></text>
<text fill="#231f20" xml:space="preserve" transform="matrix(1 0 -0 1 -18 802.8)" font-size="11" font-family="Bookman"><tspan y="-730.081" x="106.8 110.3422 113.42191">: T</tspan></text>
<text fill="#231f20" xml:space="preserve" transform="matrix(1 0 -0 1 -18 802.8)" font-size="7.69999" font-family="Bookman"><tspan y="-730.081" x="120.24 126.45719">HE</tspan></text>
<text fill="#231f20" xml:space="preserve" transform="matrix(1 0 -0 1 -18 802.8)" font-size="11" font-family="Bookman"><tspan y="-730.081" x="132 134.94062"> U</tspan></text>
<text fill="#231f20" xml:space="preserve" transform="matrix(1 0 -0 1 -18 802.8)" font-size="7.69999" font-family="Bookman"><tspan y="-730.081" x="143.52 149.15381 151.70761">NIT</tspan></text>
<text fill="#231f20" xml:space="preserve" transform="matrix(1 0 -0 1 -18 802.8)" font-size="11" font-family="Bookman"><tspan y="-730.081" x="156.48"> </tspan></text>
<text fill="#231f20" xml:space="preserve" transform="matrix(1 0 -0 1 -18 802.8)" font-size="7.69999" font-family="Bookman"><tspan y="-730.081" x="159.6 165.7131">OF</tspan></text>
<text fill="#231f20" xml:space="preserve" transform="matrix(1 0 -0 1 -18 802.8)" font-size="11" font-family="Bookman"><tspan y="-730.081" x="170.64 173.64061"> L</tspan></text>
<text fill="#231f20" xml:space="preserve" transform="matrix(1 0 -0 1 -18 802.8)" font-size="7.69999" font-family="Bookman"><tspan y="-730.081" x="180.48 183.1538 188.13759">IFE</tspan></text>
<path transform="matrix(.23999998,0,0,-.23999998,482.6352,53.635194)" d="M0 0C7.32 7.32 16.16 10.98 26.52 10.98H97.35C107.71 10.98 116.55 7.32 123.87 0 131.19-7.33 134.85-16.17 134.85-26.52V-101.52C134.85-111.88 131.19-120.72 123.87-128.04 116.55-135.36 107.71-139.02 97.35-139.02H26.52C16.16-139.02 7.32-135.36 0-128.04-7.32-120.72-10.98-111.88-10.98-101.52V-26.52C-10.98-16.17-7.32-7.33 0 0" fill="#ffffff" fill-rule="evenodd"/>
<text fill="#231f20" xml:space="preserve" transform="matrix(1 0 -0 1 -18 802.8)" font-size="11" font-family="Bookman"><tspan y="-729.361" x="505.92 513.06">91</tspan></text>
<path transform="matrix(.23999998,0,0,-.23999998,579.6,.11999512)" stroke-width="1" stroke-linecap="butt" stroke-miterlimit="10" stroke-linejoin="miter" fill="none" stroke="#000000" d="M0 0H60"/>
<path transform="matrix(.23999998,0,0,-.23999998,576.12,-18)" stroke-width="1" stroke-linecap="butt" stroke-miterlimit="10" stroke-linejoin="miter" fill="none" stroke="#000000" d="M0 0V-60"/>
<path transform="matrix(.23999998,0,0,-.23999998,579.6,784.44)" stroke-width="1" stroke-linecap="butt" stroke-miterlimit="10" stroke-linejoin="miter" fill="none" stroke="#000000" d="M0 0H60"/>
<path transform="matrix(.23999998,0,0,-.23999998,576.12,788.16)" stroke-width="1" stroke-linecap="butt" stroke-miterlimit="10" stroke-linejoin="miter" fill="none" stroke="#000000" d="M0 0V-59"/>
<path transform="matrix(.23999998,0,0,-.23999998,-17.88,-18.23999)" stroke-width="1" stroke-linecap="butt" stroke-miterlimit="10" stroke-linejoin="miter" fill="none" stroke="#000000" d="M0 0V-75"/>
<text fill="#231f20" xml:space="preserve" transform="matrix(1 0 -0 1 -18 802.8)" font-size="10.5" font-family="Bookman"><tspan y="-688.561" x="60 63.3425 69.205 73.8075 83.66 89.732509 93.70501 96.83751 102.70001 109.61251 112.95501 115.45862 123.84112 131.59362 138.71611 141.21973 145.82222 151.26473 157.75724 160.88974 164.02225 169.46475 175.53725 179.50975 182.64226 188.50476 195.41727 197.92089 203.99338 210.90589 217.39838 219.902 226.3945 229.52701 234.96952 238.94202 243.54451 246.67702 253.16953 260.29203 264.26454 267.39704 273.25953 280.17204 282.67564 286.64814 292.51063 295.01423 301.5067 307.57923 314.70173 320.35423 327.26673 331.23924 336.68174 341.28425 343.78785 349.23036 354.67286 357.80537 360.93788 366.38038 369.72288 372.22648 378.71897 385.63148 391.07398 396.72648 399.23008 405.30259 408.4351 413.8776">formation, DNA replication and distribution to daughter cells. They also</tspan><tspan y="-674.4" x="60 66.92651 72.383029 75.52953 82.03604 85.14756 88.29407 95.22058 98.3321 102.94861 108.40512 113.86163 120.36814 123.51465 128.13117 134.21768 138.2042 141.35071 147.22722 154.15373 157.51024 160.62175 166.07826 171.53478 176.99129 181.6078 187.06432 191.05083 194.19734 200.07386 207.00037 210.11188 216.6184 221.23491 227.11142 232.56793 238.02445 243.48096 248.93747 254.39398 259.8505 263.207 266.3185 270.30503 276.18153 279.29304 282.43955 289.36607 294.82258 299.4391 304.8956 310.98213 316.43864 321.89515 325.00666 328.99317 335.91969 341.3762 344.4877 349.9442 357.08073 361.69725 365.05375 371.14027 376.59678 382.05329 385.1648 391.2513 395.86784 401.32435 407.41087 410.52238 416.39888">help in respiration, secretion processes, to increase the surface area of</tspan><tspan y="-660.481" x="60 63.9808 70.9016 76.3524 78.86431 85.36511 88.50591 94.586719 100.03751 109.898319 115.97912 118.49103 128.35182 133.80263 143.66342 150.16422 154.77501 160.8558 167.77661 173.22742 175.73934 181.82013 188.74094 195.24173 197.75365 203.20446 210.12526 215.15607 220.81687 230.67766 236.75846 240.73926 243.88005 249.33086 251.84278 257.29359 263.16438 270.08518 274.06599 279.51679 286.4376 290.4184 293.7692 296.2811 299.8419 306.7627 309.2746 314.7254 320.5962 330.457 335.9078 338.4197 344.9205 349.5313 355.4021 361.9029 367.9837 372.5945 378.2553 384.1261 388.1069 393.5577 399.0085 401.52043 404.66123 407.80204 414.30284">the plasma membrane and enzymatic content. In some prokaryotes like</tspan><tspan y="-646.561" x="60 65.23811 70.686229 76.55434 83.26244 88.920558 95.208667 101.076778 106.31489 110.083 115.32111 119.71922 122.64733 128.51544 131.65355 133.95417 137.72228 144.43039 149.6685 154.06662 159.30474 161.60535 167.47345 171.87157 177.10968 179.4103 185.0684 188.83652 195.54463 200.78275 205.18087 207.48148 217.1296 222.3677 232.01583 238.30394 242.70206 248.57016 255.27828 260.93638 267.8545 273.0926 275.39323 280.63133 286.28944 290.05754 295.29563 302.00373 307.24183 310.16993 315.82804 322.53614 327.77424 330.07487 333.00297 339.71107 343.47917 349.13728 351.4379 355.206 361.9141 367.1522 369.45283 374.69093 380.13905 383.90715 389.56526 395.85337 398.78147 404.64958 409.88768">cyanobacteria, there are other membranous extensions into the cytoplasm</tspan><tspan y="-632.4" x="60 65.4086 71.4472 74.5458 77.6444 83.053 89.511608 91.98272 97.39132 104.26992 108.838527 114.66712 124.485729 130.52433 134.46292 140.29152 146.75012 153.62873 159.45732 164.02593 169.43453 174.84313 177.31423 185.45282 192.33142 195.43003 200.83863 207.71723 210.18833 215.59693 221.42552 228.30413 232.24272 238.28133 241.37993 248.25853 250.72963 257.18824 260.28684 265.90544 275.72404 281.13264 288.01124 291.94984 297.35844">called chromatophores which contain pigments.</tspan><tspan y="-618.481" x="78 85.7672 91.8544 97.3116 101.2988 106.756 111.3732 114.5204 120.607608 123.75481 126.50751 131.9647 137.4219 140.5691 143.71631 149.17351 151.9262 161.7934 167.8806 173.5478 176.30049 182.8077 188.2649 191.01758 200.88478 206.76198 210.74918 213.89638 217.04358 222.50078 225.25347 231.13066 235.74787 238.50055 245.42775 251.30495 258.23216 262.42936 272.29655 278.17375 282.16096 285.30815 288.45533 293.91255 297.26976 300.02247 303.58967 306.94688 309.6996 319.56678 325.44398 329.43119 332.57838 335.72557 341.18278 344.53999 347.2927 351.2799 358.2071 363.6643 369.3315 372.08424 379.0114 385.0986 390.55583 396.01304 398.76576 402.75297 409.68019 412.82737">Bacterial cells may be motile or non-motile. If motile, they have thin</tspan><tspan y="-604.561" x="60 63.21691 66.22382 69.230739 75.17764 84.90456 90.221469 97.00838 100.855289 106.59219 113.5891 118.90601 121.287929 126.604839 132.34175 136.18866 141.50557 148.29248 153.60939 156.6163 162.35321 169.14012 174.45703 176.83893 180.05583 184.53275 190.26966 199.99657 202.37847 206.22537 213.01229 218.3292 221.3361 225.81302 228.19492 233.51183 238.82874 241.83565 244.84256 247.22446 255.27136 261.21827 264.22517 267.23207 269.61399 274.9309 280.8778 283.8847 286.8916 292.20854 298.57545 300.95738 304.1743 307.18119 313.12809 318.655 323.97193 326.97883 329.98573 335.93263 339.14955 341.53147 349.1584 355.1053 360.4222 364.26914 369.58607 374.06297 377.06986 383.01676 385.39869 390.7156 397.5025 403.2394 411.28633 413.66825">filamentous extensions from their cell wall called flagella. Bacteria show a</tspan><tspan y="-590.4" x="60 64.61631 70.70262 77.62893 83.29524 88.75156 91.632869 94.779178 101.70548 104.58679 108.573108 115.49941 120.95573 123.837039 130.76335 137.89966 147.76598 154.2723 159.7286 164.34493 167.22623 173.31253 180.23885 186.74517 189.62647 195.71277 200.32909 204.9454 211.03171 217.95803 223.62433 229.08065 238.94696 244.40328 251.32959 255.3159 258.1972 264.07353 267.42985 270.31117 273.66749 276.81379 282.9001 288.5664 294.0227 297.169 300.3153 306.4016 309.75794 312.63926 320.40556 326.49186 331.94816 335.93446 341.39076 346.00706 349.15336 355.23966 358.38597 361.26728 364.6236 367.7699 373.8562 379.52253 384.97883 388.12513 391.27143 398.40776 408.27406 411.15538 414.30168">range in the number and arrangement of flagella. Bacterial flagellum is</tspan><tspan y="-576.481" x="60 65.41121 71.24242 81.06363 87.52484 93.35605 98.76726 104.17847 110.63968 113.12089 118.952098 122.263309 124.744518 128.68573 135.56694 140.13816 145.54936 150.96057 153.44178 159.90299 165.9442 170.51541 174.45662 179.86783 182.34903 187.55023">composed of three parts &#x2013; </tspan></text>
<text fill="#231f20" xml:space="preserve" transform="matrix(1 0 -0 1 -18 802.8)" font-size="10.5" font-family="Bookman"><tspan y="-576.481" x="190.08 194.01502 197.74002 201.25504 207.29004 217.73505 223.77005 230.85506 235.63007 239.14508 241.7101 248.7951 255.25012 261.70515 268.58015">filament, hook </tspan></text>
<text fill="#231f20" xml:space="preserve" transform="matrix(1 0 -0 1 -18 802.8)" font-size="10.5" font-family="Bookman"><tspan y="-576.481" x="271.2 277.22334 284.08665 290.52995">and </tspan></text>
<text fill="#231f20" xml:space="preserve" transform="matrix(1 0 -0 1 -18 802.8)" font-size="10.5" font-family="Bookman"><tspan y="-576.481" x="293.04 299.55223 305.85444 311.52665 317.82887 321.61106 324.44328 330.95549 337.67768 344.60987">basal body</tspan></text>
<text fill="#231f20" xml:space="preserve" transform="matrix(1 0 -0 1 -18 802.8)" font-size="10.5" font-family="Bookman"><tspan y="-576.481" x="351.12 354.43083 356.89164 363.35246 370.23326 375.64405 378.10487 381.41569 384.51649 387.61729 393.65809 403.47889 408.88969 415.77049">. The filament</tspan><tspan y="-562.561" x="60 63.14071 68.591419 71.10464 75.08535 82.00606 87.45677 89.96999 93.1107 98.981418 105.90212 111.562839 117.01355 122.464267 126.44498 128.95819 135.45891 141.32962 145.94034 149.92105 153.06177 158.93248 165.8532 168.36641 174.44712 181.36783 187.86855 190.38176 195.83248 201.70319 205.6839 211.13462 218.05533 224.55605 230.00676 232.51998 235.87068 240.48139 246.3521 256.2128 258.726 262.70674 269.62745 275.07817 277.59138 283.04209 288.4928 291.6335 294.77424 297.28746 302.73817 309.86888 314.47959 317.8303 323.911 329.36174 334.81245 337.32566 341.30638 347.17707 349.69029 353.671 360.5917 366.04243 368.55564 374.42634 381.55705 385.53776 390.98847 394.12919 400.62989 406.0806">is the longest portion and extends from the cell surface to the outside.</tspan><tspan y="-548.4" x="78 85.76491 91.21982 96.67473 99.81964 106.324558 111.779468 117.234378 120.12929 123.4842 126.62911 132.71402 138.37894 143.83385 146.97876 150.12368 156.20859 159.56349 162.45839 168.9633 172.10822 175.25313 178.39804 181.29294 187.37786 194.30277 200.80768 203.70258 210.41748 213.5624 223.4273 229.93222 234.54714 237.69205 243.77696 249.23188 252.12677 258.21168 262.82658 268.2815 271.17643 277.26133 280.40623 285.86116 291.73606 294.63099 300.08589 307.2208 311.8357 315.1906 321.2755 326.7304 332.1853 335.08024 340.53517 344.52009 349.13499 356.2699 361.7248 365.70973 372.84465 377.45954 382.91444 388.36933 391.26426 397.13917 400.49409 403.389 407.37394 414.29884">Besides flagella, Pili and Fimbriae are also surface structures of the</tspan><tspan y="-534.481" x="60 66.501 72.582 78.033008 82.01401 87.46501 92.07601 95.21701 101.29801 103.81901 110.32001 117.451007 121.43201 123.953 130.45401 136.32501 138.84601 145.76702 151.63802 155.61902 158.14002 164.64102 167.78203 173.86302 179.52402 182.04502 188.126 190.647 195.25801 201.12902 204.27002 209.72103 212.24202 215.38303 222.30403 224.82503 234.68604 240.55704 244.53804 247.67905 250.82006 253.96106 257.94206 263.60307 266.95408 269.4751 275.9761 282.8971 288.34809">bacteria but do not play a role in motility. The </tspan></text>
<text fill="#231f20" xml:space="preserve" transform="matrix(1 0 -0 1 -18 802.8)" font-size="10.5" font-family="Bookman"><tspan y="-534.481" x="290.88 297.49 301.16 304.62">pili</tspan></text>
<text fill="#231f20" xml:space="preserve" transform="matrix(1 0 -0 1 -18 802.8)" font-size="10.5" font-family="Bookman"><tspan y="-534.481" x="308.4 310.9043 316.9886 321.60289 327.0572 329.5615 335.0158 338.1601 344.0344 350.95869 356.623 362.70729 366.6916 372.1459 378.6502 381.1545 385.13883 392.27314 398.77745 405.91175 409.05604 415.14033"> are elongated tubular</tspan><tspan y="-520.561" x="60 65.45831 69.446628 74.06493 81.20325 86.66156 90.64987 97.788188 102.406497 107.86481 113.32312 115.98864 125.85695 131.94527 138.45359 143.9119 146.57741 152.45572 155.81403 158.47954 164.56786 167.23337 172.69168 179.2 184.65831 190.11663 193.26494 199.35326 202.50157 205.16709 211.6754 216.29372 222.17203 226.16034 231.61865 234.76697 241.69528 245.05359 247.7191 254.22742 261.15574 266.61405">structures made of a special protein. The </tspan></text>
<text fill="#231f20" xml:space="preserve" transform="matrix(1 0 -0 1 -18 802.8)" font-size="10.5" font-family="Bookman"><tspan y="-520.561" x="269.279 273.30329 277.11759 287.6519 293.98619 298.85047 302.66477 308.78907">fimbriae</tspan></text>
<text fill="#231f20" xml:space="preserve" transform="matrix(1 0 -0 1 -18 802.8)" font-size="10.5" font-family="Bookman"><tspan y="-520.561" x="314.88 317.52824 323.60646 328.21467 333.66288 336.3111 341.7593 351.61753 357.69575 360.83396 363.97218 366.6204 373.1186 377.7268 380.86503 386.31324 390.29145 393.42967 398.87788 401.5261 404.6643 407.80253 414.30073"> are small bristle like</tspan><tspan y="-506.4" x="60 63.35151 66.49302 72.99453 77.60604 83.05755 88.509059 91.02218 96.47369 102.9752 107.58671 113.45822 120.58973 124.57124 127.71275 134.63426 140.29578 142.8089 148.6804 155.81192 159.79343 162.30655 168.17806 171.52957 174.0427 178.0242 184.94571 190.39722 192.91034 198.36185 203.81336 206.95487 210.09638 213.44789 215.96102 219.52252 226.44403 228.95716 234.40866 240.28017 250.14168 255.59319 258.10633 264.60783 270.68934 276.14085 280.12236 285.57386 290.18537 293.32688 299.4084 302.7599 305.273 309.25453 316.17604 321.62754 327.28904 329.80216 335.88368 340.49519 345.9467 348.4598 354.9613 361.8828 367.75434 375.93586 382.85737 385.37049 389.352 395.2235 397.73664 404.65815 410.10966 413.25117">fibres sprouting out of the cell. In some bacteria, they are known to help</tspan><tspan y="-492.481" x="60 66.0736 70.0472 74.020809 80.094409 85.53801 92.45161 94.95682 98.93042 105.84402 111.28762 113.79283 120.28643 126.36003 131.80364 135.77724 141.22084 145.82445 148.95806 155.03165 157.53685 160.04206 164.01566 169.87926 172.38446 176.98807 182.85167 188.29528 194.78888 200.23249 202.73769 205.87129 212.7849 215.2901 220.7337 224.7073 229.31092 234.75452 240.82813 250.68173 256.12535 258.63056 264.70417 271.61778 278.11137 280.61659 286.6902 289.8238 295.2674 301.13099 303.6362 307.6098 313.4734 315.9786 319.9522 326.8658 332.30943 334.81465 341.72825 347.59184 353.03544 357.00904 359.51426 363.48786 366.62147 372.06507 377.50868 384.63227 390.07588 395.51948">attach the bacteria  to rocks in streams and also to the host tissues.</tspan></text>
<text fill="#00aeef" xml:space="preserve" transform="matrix(1 0 -0 1 -18 802.8)" font-size="12" font-family="Bookman"><tspan y="-464.161" x="60 67.97999 72.11998 80.09997 84.23996 102 111.395908 115.75181 122.98771 130.46361 136.7395 144.21541 156.25131 163.24721 169.5231 172.5724 179.5683 187.76419 195.48009 198.52939 203.3653 211.56119 218.55709 222.67299 230.62889 236.90479 241.26068 248.73659 256.9325 259.9818 268.6577 276.1336 283.84953 288.2054 295.20133">8.4.2Ribosomes and Inclusion Bodies</tspan></text>
<text fill="#231f20" xml:space="preserve" transform="matrix(1 0 -0 1 -18 802.8)" font-size="10.5" font-family="Bookman"><tspan y="-444" x="60 63.56631 70.49262 73.11003 79.61634 84.23265 90.10896 96.61527 102.701587 107.317897 112.98421 118.86052 122.84683 128.30315 133.75946 137.11577 139.73317 144.34949 147.4958 154.00212 159.87844 165.33475 171.21106 181.07738 186.53369 191.99 194.6074 200.69371 205.31003 210.76634 213.38375 219.47005 224.92636 230.38268 236.25899 241.7153 244.86162 250.94792 254.93424 260.39054 266.89686 269.51429 277.7006 280.8469 284.8332 291.7595 294.37693 298.36323 305.28953 310.74583 313.36326 319.86958 323.01588 329.10218 334.55848 344.42478 350.51109 353.1285 362.9948 368.4511 378.3174 384.82374 389.44004 395.52635 402.45265 407.90895 410.52638 416.40269">In prokaryotes, ribosomes are associated with the plasma membrane of</tspan><tspan y="-430.081" x="60 63.98621 70.91242 76.36863 80.16234 85.618549 91.07475 94.22096 97.36717 100.72338 104.51709 111.0233 117.94951 123.405719 129.07193 132.86565 138.95186 143.56807 149.02428 152.818 158.9042 165.41042 171.28662 178.42284 182.40904 186.20276 192.70897 199.21518 203.0089 209.9351 219.80132 223.59503 230.10124 235.76746 239.56118 246.06739 252.5736 256.3673 263.29353 273.15974 276.95344 280.09965 287.02586 290.81956 296.27577 299.42198 304.4582 309.9144 313.7081 319.7943 326.72053 333.22676 337.02046 343.10667 347.72288 353.17909 356.97279 366.839 372.9252 379.4314 384.8876 388.6813 394.55754 397.91374 401.70744 405.69364 413.87986">the cell. They are about 15 nm by 20 nm in size and are made of two</tspan><tspan y="-416.161" x="60 65.4591 72.5982 79.1073 86.2464 93.1755 96.3246 100.3137 105.7728 109.541 113.7401 117.5083 124.0174 130.5265 137.45561 141.22382 147.31291 154.24202 160.75112 164.51932 171.02841 177.5375 184.46662 188.23482 195.37392 202.30303 205.45212 209.44123 214.90033 218.66854 226.85764 233.78675 236.93584 242.39495 249.32405 253.09226 261.28135 268.21046 273.66957 280.59867 284.36686 290.87596 295.49507 300.95417 306.41328 311.87239 318.80149 322.7906 326.55879 330.54789 336.42698 342.09608 347.55519 351.54429 358.4734 363.9325 368.5516 372.3198 375.6789 381.55799 386.1771 396.0462 399.8144 406.3235 412.83259">subunits - 50S and 30S units which when present together form 70S</tspan><tspan y="-402" x="60 66.27191 70.653827 76.29573 82.56764 88.419559 92.80147 98.233379 103.87528 107.62719 110.5391 115.76101 118.04403 122.42594 125.33785 131.60976 137.25167 142.47357 148.11548 157.74739 162.9693 168.19121 171.31311 173.59615 180.91806 183.82997 190.10189 195.74379 200.9657 206.6076 216.23952 221.46143 226.68334 228.96636 234.81827 239.20018 244.42209 246.70513 250.45703 257.14897 262.37089 264.6539 269.87583 272.78773 276.53965 281.76158 284.0446 289.6865 292.8084 295.09144 301.36335 305.74525 311.38716 315.13908 320.361 323.2729 329.9648 332.24784 337.46977 342.90168 349.5936 353.34553 360.03746 365.25938 370.4813 373.3932 378.6151 381.73704 384.02006 390.71199 395.9339 401.15583 406.37776 410.75965 416.61155">prokaryotic ribosomes. Ribosomes are the site of protein synthesis. Several</tspan><tspan y="-388.081" x="60 64.8205 68.171009 74.88151 80.962009 86.622509 92.703 102.773509 108.434009 114.094509 119.33221 129.40271 135.6932 141.5637 146.8014 153.0919 157.28241 161.47292 167.76342 173.42392 180.55442 185.79212 189.98262 196.06313 201.30083 207.59133 212.82903 218.48954 221.84003 228.97052 234.84102 238.19152 243.85202 249.08972 259.16023 266.92073 274.8912 282.2317 287.46937 293.75987 300.89036 307.60087 312.83854 316.39903 322.47953 327.30003 337.3705 342.6082 348.89869 354.13636 359.79685 366.92735 373.21784 376.56834 383.69883 388.9365 394.597 400.88749 404.23799 407.58848 413.24897">ribosomes may attach to a single mRNA and form a chain called</tspan></text>
<text fill="#231f20" xml:space="preserve" transform="matrix(1 0 -0 1 -18 802.8)" font-size="10.5" font-family="Bookman"><tspan y="-374.161" x="60 66.67751 73.14502 76.67253 83.140048 87.92755 91.66506 97.92257 104.390079 109.80759 116.2751 126.73261 132.78012">polyribosomes</tspan></text>
<text fill="#231f20" xml:space="preserve" transform="matrix(1 0 -0 1 -18 802.8)" font-size="10.5" font-family="Bookman"><tspan y="-374.161" x="138.24 140.705 146.515 151.065"> or </tspan></text>
<text fill="#231f20" xml:space="preserve" transform="matrix(1 0 -0 1 -18 802.8)" font-size="10.5" font-family="Bookman"><tspan y="-374.161" x="153.6 160.1786 166.54721 169.97582 176.34442 181.66303 188.03163 198.39023">polysome</tspan></text>
<text fill="#231f20" xml:space="preserve" transform="matrix(1 0 -0 1 -18 802.8)" font-size="10.5" font-family="Bookman"><tspan y="-374.161" x="204.48 207.785 210.25432 216.70934 223.58435 228.98937 231.45868 236.0237 239.11872 245.57373 251.39875 256.80375 262.62876 272.44377 277.84877 283.25376 285.72309 291.5481 294.85313 297.32246 303.35746 305.82679 312.2818 318.1068 321.2018 326.81684 332.22184 338.04685 347.86186 353.26686 355.73619 359.67118 364.23619 370.27119 377.14619 382.55119 385.64619 391.68119 395.61619 401.02119 403.4905 407.4255 414.3005">. The ribosomes of a polysome translate the</tspan><tspan y="-360" x="60 69.83001 77.35002 85.08003 92.18004 94.67506 97.785068 104.67507 108.625087 114.465099 116.96011 123.43012 128.01013 133.85015 137.80016 143.22017 146.33019 153.2202 158.64022">mRNA into proteins.</tspan></text>
<text fill="#231f20" xml:space="preserve" transform="matrix(1 0 -0 1 -18 802.8)" font-size="10.5" font-family="Bookman"><tspan y="-346.081" x="78 82.26309 89.46618 95.61927 99.25236 106.245449 111.76854 115.61163 122.18472 129.38782 132.0709 138.43399 145.00708 151.79018 155.63327 161.78636 167.30945">Inclusion bodies:</tspan></text>
<text fill="#231f20" xml:space="preserve" transform="matrix(1 0 -0 1 -18 802.8)" font-size="10.5" font-family="Bookman"><tspan y="-346.081" x="170.88 173.35332 180.86412 186.27494 191.68575 197.09656 201.66738 207.07819 212.489 214.96231 224.78313 230.82395 234.76476 240.17557 244.74639 247.8472 253.88802 256.98884 259.46217 262.56297 269.44377 271.91709 278.3779 282.9487 288.7795 295.24034 301.28114 305.85194 311.47276 317.30357 321.24436 324.34516 329.75596 332.22929 337.64009 343.05088 346.15168 349.25248 354.66328 357.1366 363.1774 367.7482 373.159 375.63233 381.04313 384.98393 390.81474 395.38554 400.79634 407.25715 409.73048 412.83128"> Reserve material in prokaryotic cells are stored in</tspan><tspan y="-332.161" x="60 63.9882 70.916408 76.3746 79.74529 85.20349 90.87169 94.859889 100.73808 107.246288 110.394489 116.48269 121.94089 131.80908 135.17978 138.32798 145.25618 148.62688 152.61508 159.54329 165.0015 168.3722 171.7304 177.6086 182.22679 192.09499 195.46569 201.34389 204.70209 208.07279 211.22098 218.14919 223.60739 226.75559 233.89379 239.35199 242.50019 248.37839 255.3066 258.67729 265.1855 271.0637 277.5719 280.7201 286.17829 291.63648 294.9947 298.3654 304.8736 311.8018 317.25999 322.71818 328.17637 331.54704 337.63523 342.25343 347.7116 351.0823 358.0105 363.8887 367.8769 371.2476 377.7558 383.634 390.77223 397.7004 404.20863 407.5793 414.08753">the cytoplasm in the form of inclusion bodies. These are not bound by</tspan><tspan y="-318" x="60 66.0852 73.0104 78.6756 83.0308 92.896 98.351207 108.21641 114.72161 119.336818 125.42201 132.34722 137.80242 142.15761 147.61281 153.27802 158.73322 162.71842 168.17362 178.03882 182.39402 188.47922 195.40442 201.90962 206.26482 209.41002 212.55522 218.01042 222.36562 225.72081 230.33602 235.79122 241.24642 245.60161 248.74681 255.67201 260.02723 264.01243 270.93763 276.39283 280.74803 286.20323 291.8684 295.8536 301.72883 308.234 311.3792 317.46443 322.91963 332.78483 336.14 340.4952 345.9504 349.3056 354.9708 358.326 361.68119 366.03639 372.54158 379.46678 385.34199 390.79719 397.30238 404.22758 410.31278 414.29798">any membrane system and lie free in the cytoplasm, e.g., phosphate</tspan><tspan y="-304.081" x="60 65.66711 70.28422 76.37133 83.29844 90.43555 93.58266 99.039768 104.49687 107.85398 110.58249 116.0396 121.7067 127.793819 134.72093 140.59804 147.10515 154.03226 159.69937 165.15648 170.61359 176.7007 183.6278 186.35633 192.02344 196.64055 202.72766 209.65477 216.79189 219.939 225.3961 230.85321 233.58173 239.66884 246.59595 253.10306 255.83158 261.4987 264.6458 270.31294 275.77006 281.64717 287.31428 292.7714 299.69853 302.42704 308.09416 312.71125 318.79835 325.72547 332.86259 336.0097 341.46684 346.92396 350.28108 353.00959 361.4067 367.4938 372.95094 375.67945 381.13658 387.22367 392.6808 399.8179 405.695 408.8421 414.29924">granules, cyanophycean granules and glycogen granules. Gas vacuoles</tspan><tspan y="-290.161" x="60 66.087818 70.70563 76.16344 78.846248 82.204059 88.08186 95.21967 102.147487 108.6553 111.338108 114.485919 121.41373 124.096538 130.60434 133.75215 140.88996 146.34777 149.03057 154.69838 159.3162 164.774 170.23181 177.15962 179.84243 185.93024 192.85805 199.36586 202.04866 208.55648 215.69428 220.31209 226.8199 229.96772 235.42552 238.10832 244.19614 251.12395 257.63175 260.31459 265.9824 270.6002 276.058 281.51585 288.44364 291.12648 297.63429 304.56208 310.43989 314.4277 320.3055 325.76335 331.43116 338.35896 342.34678 349.27458 354.7324 358.7202 361.868 367.32585 370.00868 376.51649 382.60429 388.0621 392.04994 397.50776 402.12556 405.27336 411.36116">are found in blue green and purple and green photosynthetic bacteria.</tspan></text>
<text fill="#00aeef" xml:space="preserve" transform="matrix(1 0 -0 1 -18 802.8)" font-size="13" font-family="Bookman"><tspan y="-257.041" x="60 68.2303 72.3006 96">8.5E</tspan></text>
<text fill="#00aeef" xml:space="preserve" transform="matrix(1 0 -0 1 -18 802.8)" font-size="9.1" font-family="Bookman"><tspan y="-257.041" x="105.84 112.54741 119.80082 126.32623 133.39765 139.74106 146.99448 153.33789 156.9513">UKARYOTIC</tspan></text>
<text fill="#00aeef" xml:space="preserve" transform="matrix(1 0 -0 1 -18 802.8)" font-size="13" font-family="Bookman"><tspan y="-257.041" x="163.44 167.26091"> C</tspan></text>
<text fill="#00aeef" xml:space="preserve" transform="matrix(1 0 -0 1 -18 802.8)" font-size="9.1" font-family="Bookman"><tspan y="-257.041" x="177.12 183.8439 189.8398 195.8357">ELLS</tspan></text>
<text fill="#231f20" xml:space="preserve" transform="matrix(1 0 -0 1 -18 802.8)" font-size="10.5" font-family="Bookman"><tspan y="-230.4" x="60 66.5081 73.4362 78.8943 82.8774 88.3355 95.4736 101.981708 108.06981 112.68791 118.35601 124.23411 128.22222 133.68032 139.13842 143.1215 146.2696 153.19771 158.6558 161.80391 168.94202 175.45012 180.90822 184.89131 190.97942 194.12752 197.27562 201.25872 205.24681 212.17491 217.63301 221.6161 228.1242 232.74231 238.6204 242.6085 245.7566 251.2147 255.2028 260.66093 264.019 268.0021 274.5102 277.6583 283.7464 290.6745 294.6626 300.1207 303.4788 307.46189 313.55 320.4781 323.6262 333.4943 339.5824 342.7305 348.1886 352.1717 358.2598 365.1879 371.69599 375.67909 379.03718 386.17527 393.10337 398.77146 401.91957 405.27766 409.26075 412.82887">The eukaryotes include all the protists, plants, animals and fungi. In</tspan><tspan y="-216.481" x="60 65.371417 72.42282 78.84423 84.84564 89.37705 94.958469 100.74988 104.65129 107.7127 113.08411 115.51803 120.889438 126.26085 129.32227 132.38368 137.7551 140.18901 144.09043 150.93184 156.30326 160.83466 166.20607 168.63999 171.7014 177.07282 179.50673 185.50814 192.34955 194.78347 200.15488 205.94629 209.8477 215.21912 222.06053 227.43195 230.49337 235.86478 241.23619 243.6701 249.04152 254.83293 264.61436 271.03578 277.03718 281.56858 285.46998 295.25138 300.62278 307.46418 311.36558 317.36698 320.42839 323.48979 328.86119 334.86259 338.76399 341.82539 347.6168 354.4582 356.89213 362.68354 365.95497 368.3889 373.76029 379.3417 383.2431 389.03453 395.45594 398.51734 404.51875 409.89015">eukaryotic cells there is an extensive compartmentalisation of cytoplasm</tspan><tspan y="-202.561" x="60 63.98671 70.91342 75.53013 81.40684 88.54355 94.21026 101.13697 104.393688 108.380397 115.307109 120.76382 124.02053 130.52724 135.14395 140.60066 146.05738 151.51409 158.4408 163.8975 169.35422 172.61092 178.48763 181.84433 185.10103 194.96775 200.42446 210.29117 216.79788 221.4146 227.50131 234.42803 239.88474 243.14144 249.64815 255.52486 262.66157 269.58827 276.09498 279.35169 285.2284 289.8451 295.5118 301.5985 308.5252 313.9819 317.1286 320.2753 325.732 331.1887 334.5454 337.80213 345.35884 352.49555 359.00227 365.08897 369.70567 375.37239 381.24909 385.2358 388.3825 393.8392 397.09593 402.5526 408.0093 411.156 414.3027">through the presence of membrane bound organelles. Eukaryotic cells</tspan><tspan y="-188.4" x="60 66.51399 72.39798 77.86197 83.32596 88.78995 94.25394 99.717929 104.75961 110.85361 117.7876 122.829288 128.71327 133.33727 139.01126 145.10526 152.03925 155.19324 160.65723 166.12122 172.63521 177.6769 184.61089 191.75489 197.21887 200.37287 205.83686 212.98085 218.44484 223.48653 231.68051 234.8345 238.82849 245.76248 250.80417 256.89817 261.93986 268.87385 276.01783 281.4818 284.6358 290.0998 296.1938 300.81779 305.85948 311.32347 318.25746 323.72145 329.18544 332.33943 338.22343 344.7374 350.2014 353.56538 358.60707 362.18104 369.11503 374.1567 380.2507 386.76469 393.27867 396.43266 400.42665 403.58064 409.46464 416.39863">possess an organised nucleus with a nuclear envelope. In addition,</tspan><tspan y="-174.481" x="60 65.45741 72.594829 79.102237 85.189647 89.80705 95.474468 101.351879 105.33929 108.486698 113.94411 117.418209 122.87562 128.33303 131.48044 134.62786 140.08527 143.55936 150.48677 156.57419 162.0316 167.48902 170.9631 177.05052 180.52462 185.98203 192.06945 196.68686 199.83428 205.29169 209.2791 214.9465 218.4206 224.298 227.65541 231.1295 236.58692 242.46433 252.33174 258.83915 261.98655 267.44395 273.32136 276.79548 279.94288 285.82029 291.27769 297.1551 307.0225 312.8999 316.8873 322.7647 327.3821 333.04954 336.52366 342.61106 349.53846 356.04588 359.52 364.9774 370.6448 374.6322 380.5096 385.967 392.47444 397.93183 401.07923 406.53663 410.52403 416.61143">eukaryotic cells have a variety of complex locomotory and cytoskeletal</tspan><tspan y="-160.561" x="60 65.4169 69.3638 73.940708 81.037609 86.454509 90.401409 97.49831 102.07521 107.49211 112.90901 116.225917 118.70712 125.17403 132.06093 137.47783 140.58473 145.16164 147.64284 153.26975 158.68665 165.57355 170.99045 174.93735 178.04425 183.46115 185.94235 195.76926 201.81616 205.76306 211.17996 215.75687 218.86377 224.91068 228.01758 230.49878 233.60569 239.02259 241.50379 247.34069 251.91759 257.5445 263.5914 270.4783 273.5852 279.0021 284.419 290.8859 293.3671 296.474 303.3609 307.3078 313.1447 315.62593 321.04283 327.92973 332.50663 338.34355 348.17045 354.00736 359.42427 365.26118 375.08808 380.50498 385.92189">structures. Their genetic material is organised into chromosomes.</tspan><tspan y="-146.4" x="78 84.8803 87.7706 90.6609 92.9249 98.1252 105.0055 111.2558 117.0861 121.446399 126.8567 132.47699 136.20729 139.0976 144.2979 146.56189 151.76219 156.9625 159.8528 162.7431 167.9434 170.2074 176.0377 180.39801 185.59832 187.8623 194.53261 200.15291 203.88321 206.1472 209.0375 215.28781 220.48812 227.15842 230.88872 233.77902 238.97933 244.80963 247.69994 250.80023 253.06423 259.3145 262.2048 268.0351 274.70539 278.43568 280.69969 286.52998 293.20027 299.45057 301.71458 307.54487 314.21516 317.10545 326.71574 332.54603 335.4363 337.70033 342.9006 348.1009 350.99119 353.88148 359.08177 361.34577 367.17607 371.53636 376.73664 379.00065 385.25096 388.14125 391.24156 394.34187 399.54216 403.90245 409.10273 415.773">All eukaryotic cells are not identical. Plant and animal cells are different</tspan><tspan y="-132.481" x="60 65.8968 71.1636 73.49291 77.28971 84.02651 89.29331 91.62263 94.78943 100.47623 104.90303 114.579837 119.846637 124.27344 126.60275 132.91956 138.60636 143.87316 149.13996 154.40676 159.67356 164.94036 167.26966 172.53646 177.80326 180.76006 183.71686 186.04616 194.04296 199.93976 202.89656 205.85337 211.12017 214.28696 216.61626 222.93306 225.88986 231.78667 237.05347 240.85027 243.80707 250.12387 255.39067 257.71998 263.61677 270.35356 276.67036 278.99967 284.89646 287.22578 290.18257 296.07936 300.50614 305.98295 311.24977 313.57908 318.8459 324.1127 330.8495 334.6463 339.0731 344.96989 347.92668 350.25599 355.5228 361.4196 366.6864 373.6332 379.32 382.2768 387.5436 389.87294 397.86973 404.6065 407.5633 412.8301">as the former possess cell walls, plastids and a large central vacuole which</tspan><tspan y="-118.561" x="60 65.92581 70.38162 75.67743 78.03575 83.96156 90.30737 95.60318 100.89899 107.664798 111.49061 113.84893 116.83474 123.60055 125.95887 131.88468 138.65048 141.63629 151.3421 157.26792 160.25373 162.61205 167.90785 173.20366 176.18947 179.17528 184.47109 187.6669 190.02523 198.26103 205.02684 207.38516 211.21097 217.97678 223.27259 225.6309 231.34671 235.17252 241.93833 247.23413 251.68994 254.04827 260.8141 266.7399 273.5057 279.85154 283.04734 285.40565 291.33146 298.09727 301.08308 310.78889 316.7147 319.7005 322.0588 327.3546 332.65043 335.63624 338.62205 343.91786 346.27616 353.04197 358.96778 364.26359 369.5594 371.9177 377.2135 382.5093 389.27513 393.10093 397.55674 400.54255 406.25837 409.24418 414.53999">are absent in animal cells. On the other hand, animal cells have centrioles</tspan><tspan y="-104.4" x="60 68.1816 75.1032 78.244808 83.6964 90.618007 93.130718 99.21232 103.82392 109.27552 111.78823 117.869838 124.37144 129.82305 135.27465 142.19625 146.17784 148.69055 151.83216 158.75376 161.26647 167.34807 170.48967 180.35128 186.22287 191.67447 195.65607 198.16878 204.25038 207.39199 210.53359 213.0463 219.5479 222.6895 228.7711 235.6927 239.6743 242.18701 247.63861 253.09021 256.2318 259.3734 264.825 267.3377 270.4793 277.19093 280.33253 285.9941 293.1257 297.7373 303.1889 305.7016 312.2032 315.55479 322.05638 325.19798">which are absent in almost all plant cells (Figure 8.3).</tspan></text>
<g clip-path="url(#clip_528)">
<text xml:space="preserve" transform="matrix(1 0 -0 1 259.314 763.9998)" font-size="8" font-family="Arial"><tspan y="6.316" x="0"> </tspan></text>
</g>
</g>
</svg>
