<svg xmlns="http://www.w3.org/2000/svg" xmlns:xlink="http://www.w3.org/1999/xlink" xmlns:inkscape="http://www.inkscape.org/namespaces/inkscape" version="1.1" width="576" height="784.8" viewBox="0 0 576 784.8">
<defs>
<clipPath id="clip_2114">
<path transform="matrix(1,0,0,-1,-18,802.8)" d="M18 18H594V802.8H18Z" clip-rule="evenodd"/>
</clipPath>
<clipPath id="clip_2115">
<path transform="matrix(.24,0,0,-.24,-18,802.8)" d="M692 1383H1796V2487H692Z"/>
</clipPath>
<clipPath id="clip_2116">
<path transform="matrix(1,0,0,-1,259.314,763.9998)" d="M0-8H57.372V.800049H0Z"/>
</clipPath>
</defs>
<g>
<g clip-path="url(#clip_2114)">
<path transform="matrix(.24,0,0,-.24,-18,802.8)" d="M0 3035.83H2550V3372.705H0Z" fill="#d1d3d4" fill-rule="evenodd"/>
<path transform="matrix(.24,0,0,-.24,-18,802.8)" d="M0 3078.33H2550V3419.998H0Z" fill="#e1ecb6" fill-rule="evenodd"/>
<text fill="#231f20" xml:space="preserve" transform="matrix(1 0 -0 1 -18 802.8)" font-size="11" font-family="Bookman"><tspan y="-730.081" x="84">P</tspan></text>
<text fill="#231f20" xml:space="preserve" transform="matrix(1 0 -0 1 -18 802.8)" font-size="7.7" font-family="Bookman"><tspan y="-730.081" x="90.72 96.8435 102.966999 107.6814 113.80489 118.83499 123.70339 129.3572 134.0716 140.1951 145.6949 150.725 153.23722">HOTOSYNTHESIS</tspan></text>
<text fill="#231f20" xml:space="preserve" transform="matrix(1 0 -0 1 -18 802.8)" font-size="11" font-family="Bookman"><tspan y="-730.081" x="158.4"> </tspan></text>
<text fill="#231f20" xml:space="preserve" transform="matrix(1 0 -0 1 -18 802.8)" font-size="7.7" font-family="Bookman"><tspan y="-730.081" x="160.79999 163.41039">IN</tspan></text>
<text fill="#231f20" xml:space="preserve" transform="matrix(1 0 -0 1 -18 802.8)" font-size="11" font-family="Bookman"><tspan y="-730.081" x="168.95999 171.5378"> H</tspan></text>
<text fill="#231f20" xml:space="preserve" transform="matrix(1 0 -0 1 -18 802.8)" font-size="7.7" font-family="Bookman"><tspan y="-730.081" x="180.48 182.9987 189.12871 195.25872 200.76502">IGHER</tspan></text>
<text fill="#231f20" xml:space="preserve" transform="matrix(1 0 -0 1 -18 802.8)" font-size="11" font-family="Bookman"><tspan y="-730.081" x="206.16 208.5915"> P</tspan></text>
<text fill="#231f20" xml:space="preserve" transform="matrix(1 0 -0 1 -18 802.8)" font-size="7.7" font-family="Bookman"><tspan y="-730.081" x="215.52 220.0553 225.222 230.8584 235.5554">LANTS</tspan></text>
<path transform="matrix(.24,0,0,-.24,482.6352,53.635194)" d="M0 0C7.32 7.32 16.16 10.98 26.52 10.98H97.35C107.71 10.98 116.55 7.32 123.87 0 131.19-7.32 134.85-16.16 134.85-26.52V-101.52C134.85-111.88 131.19-120.72 123.87-128.04 116.55-135.36 107.71-139.02 97.35-139.02H26.52C16.16-139.02 7.32-135.36 0-128.04-7.32-120.72-10.98-111.88-10.98-101.52V-26.52C-10.98-16.16-7.32-7.32 0 0" fill="#ffffff" fill-rule="evenodd"/>
<text fill="#231f20" xml:space="preserve" transform="matrix(1 0 -0 1 -18 802.8)" font-size="11" font-family="Bookman,Bold" font-weight="bold"><tspan y="-729.361" x="505.92 513.21 520.5">151</tspan></text>
<path transform="matrix(.24,0,0,-.24,-18,802.8)" d="M2 2H2548V214.668H2Z" fill="#cbdf7f" fill-rule="evenodd"/>
<path transform="matrix(.24,0,0,-.24,-18,802.8)" stroke-width="4" stroke-linecap="butt" stroke-miterlimit="1000" stroke-linejoin="miter" fill="none" stroke="#cbdf7f" d="M2 2H2548V214.668H2Z"/>
<path transform="matrix(.24,0,0,-.24,579.6,.11999512)" stroke-width="1" stroke-linecap="butt" stroke-miterlimit="10" stroke-linejoin="miter" fill="none" stroke="#000000" d="M0 0H60"/>
<path transform="matrix(.24,0,0,-.24,576.12,-18)" stroke-width="1" stroke-linecap="butt" stroke-miterlimit="10" stroke-linejoin="miter" fill="none" stroke="#000000" d="M0 0V-60"/>
<path transform="matrix(.24,0,0,-.24,579.6,784.44)" stroke-width="1" stroke-linecap="butt" stroke-miterlimit="10" stroke-linejoin="miter" fill="none" stroke="#000000" d="M0 0H60"/>
<path transform="matrix(.24,0,0,-.24,576.12,788.16)" stroke-width="1" stroke-linecap="butt" stroke-miterlimit="10" stroke-linejoin="miter" fill="none" stroke="#000000" d="M0 0V-59"/>
<path transform="matrix(.24,0,0,-.24,-17.88,-18.23999)" stroke-width="1" stroke-linecap="butt" stroke-miterlimit="10" stroke-linejoin="miter" fill="none" stroke="#000000" d="M0 0V-75"/>
<g clip-path="url(#clip_2115)">
<path transform="matrix(.24,0,0,-.24,280.88639,206.544)" d="M0 0C302.89 0 549.92-247.03 549.92-549.91 549.92-852.8 302.89-1099.83 0-1099.83-302.883-1099.83-549.915-852.8-549.915-549.91-549.915-247.03-302.883 0 0 0" fill="#fffcd5" fill-rule="evenodd"/>
</g>
<text fill="#00aeef" xml:space="preserve" transform="matrix(1 0 -0 1 -18 802.8)" font-size="13" font-family="Bookman,Bold" font-weight="bold"><tspan y="-687.36" x="278.88">S</tspan></text>
<text fill="#00aeef" xml:space="preserve" transform="matrix(1 0 -0 1 -18 802.8)" font-size="9.1" font-family="Bookman,Bold" font-weight="bold"><tspan y="-687.36" x="288 295.5205 304.315 313.1095 319.72 326.6945">UMMARY</tspan></text>
<text fill="#231f20" xml:space="preserve" transform="matrix(1 0 -0 1 -18 802.8)" font-size="10.5" font-family="Bookman"><tspan y="-648.95999" x="96 103.92 108.456699 114 119.3791 126.2597 128.64679 135.0969 138.124 144.1436 151.0242 154.9018 160.2809 162.668 172.5411 178.56072 185.01082 190.38993 192.77703 196.65462 203.53522 208.91432 211.94142 216.45952 218.84662 224.65622 232.81783 239.69843 242.08553 245.32263 251.52 257.3273 263.77513 266.1599 272.60774 278.19453 280.5793 287.02714 293.90544 299.71275 303.58805 309.39537 314.77217 320.35896 327.23725 331.11256 337.99085 343.36766 348.74446 351.76927 357.14607 360.38087 362.76567 371.13496 378.22325 382.73905 385.76387 392.64216 398.22895 400.61375 404.48905 411.36735 414.39216 419.76896 422.15376 428.60157 433.11738 438.92469 444.30149 449.67829 455.05509 460.4319 462.81669 468.19349 474.2108 478.7266 485.1744 490.98173">Green plants make their own food by photosynthesis. During this process carbon</tspan><tspan y="-634.8" x="96 102.5477 105.6724 111.579608 117.48681 120.61151 127.15921 132.63591 135.1206 138.4553 143.07102 148.97821 158.94892 161.43361 165.40882 172.38701 177.86371 180.3484 186.4656 190.44081 200.41152 206.31871 211.79541 218.34311 225.3213 230.798 235.41371 240.89041 243.3751 246.4998 251.9765 254.4612 258.4364 264.5536 271.1013 276.578 283.5562 286.0409 289.1656 296.1438 298.62849 305.17619 310.86289 313.34757 316.47227 321.94898 328.06617 333.54289 339.0196 344.4963 346.981 350.95619 357.9344 362.55009 368.45729 375.64549 381.33219 388.3104 390.79508 396.2718 400.24699 406.15419 416.12489 422.24208 426.21726 432.33445 434.81913 440.9363 447.91453 454.46223 456.9469 464.1351 469.61183 475.08854 481.63624 484.1209 487.4556 493.3628">dioxide from the atmosphere is taken in by leaves through stomata and used for</tspan><tspan y="-620.88" x="96 105.7657 111.6779 118.0206 120.9403 127.7135 133.1952 135.4749 140.7466 146.6588 151.0695 157.4122 163.1144 169.88759 175.3693 181.71199 186.1227 192.0349 195.8051 201.0768 206.3485 209.4782 211.75789 218.10059 222.51129 225.43099 232.20418 237.47588 240.39557 246.73827 252.65047 255.57016 258.48988 263.97157 266.25126 271.73295 274.65266 281.63587 286.90757 292.60978 297.88148 303.15318 305.43287 311.34507 318.11827 324.46098 326.74067 332.01237 335.78257 341.69477 346.10548 351.37718 358.15037 361.28007 363.55976 365.83946 372.18217 378.95536 384.65757 388.42778 394.12998 399.40168 404.88337 411.65657 415.42677 422.19996 427.47166 432.74336 435.66307 440.93476 443.21446 446.98466 452.89686 459.23957 464.51127 469.78297 472.06266 478.40538 481.32508 487.23728 492.50898">making carbohydrates, principally glucose and starch.  Photosynthesis takes place</tspan><tspan y="-606.96" x="96 101.9787 109.0284 112.224597 117.982799 121.21759 124.41379 131.46349 134.69829 138.745 145.7947 151.3429 154.5777 160.33589 165.02309 170.57129 176.11949 183.16919 186.40399 193.0232 199.2119 203.8991 207.9458 213.494 216.7288 222.7075 226.11371 229.34851 233.39522 240.44492 245.99312 249.22792 255.84712 259.04335 265.23204 272.28175 276.32844 281.87663 285.2828 288.5176 298.5598 304.7485 307.9447 314.99443 318.1906 323.94883 327.18363 331.23033 338.28004 343.82823 347.06303 350.25923 355.8074 361.9961 367.54429 373.09248 378.64067 382.04685 385.28166 395.53385 398.73005 402.77674 409.82646 413.02265 420.07237 423.30717 427.35386 434.40357 439.95176 443.18656 446.38276 451.93095 458.11964 463.66783 469.216 474.7642 478.17039 481.40519 485.45188 492.5016">only in the green parts of the plants, mainly the leaves. Within the leaves, the</tspan><tspan y="-592.80007" x="96 105.9611 111.4282 116.8953 122.7929 129.331 136.29959 141.97669 145.09178 148.20688 150.68198 156.14908 161.61618 164.73128 167.84638 173.31348 175.78858 182.75717 188.86478 194.33188 199.79898 202.27408 208.38169 210.85678 213.97188 220.07949 224.68558 230.36267 235.82978 238.30487 245.27347 252.45207 262.41319 268.95127 274.41838 279.02449 281.49958 287.3972 290.7223 293.1974 298.6645 305.6331 308.7482 314.6458 319.25193 325.14955 331.68763 334.80274 340.91035 346.37745 350.34306 355.81016 358.28526 362.25086 369.21946 375.32707 379.29267 381.76777 387.87538 392.48149 397.94859 400.42369 405.0298 410.4969 415.964 422.50209 428.3997 435.3683 440.8354 443.9505 450.4886 453.6037 459.0708 461.5459 464.871 470.76863 475.37474 477.84983 485.6689">mesophyll cells have a large number of chloroplasts that are responsible for CO</tspan></text>
<text fill="#231f20" xml:space="preserve" transform="matrix(1 0 -0 1 -18 802.8)" font-size="6.1" font-family="Bookman"><tspan y="-589.44009" x="494.16">2</tspan></text>
<text fill="#231f20" xml:space="preserve" transform="matrix(1 0 -0 1 -18 802.8)" font-size="10.5" font-family="Bookman"><tspan y="-578.88009" x="96 99.316699 102.42339 108.31259 114.41179 118.36899 121.475688 127.36488 134.32509 137.64179 140.10848 142.57517 152.73787 155.84458 159.80178 166.76198 169.86869 176.82889 179.29558 183.25278 190.21298 195.67168 198.13837 203.59706 210.55727 213.66397 219.55318 224.15088 230.04009 236.56978 239.67649 245.77568 251.23438 255.19158 260.65028 263.96699 266.4337 270.3909 277.3511 282.8098 285.27653 295.22923 300.68794 310.64064 317.17033 321.768 327.86723 334.82743 340.28614 345.74485 348.21156 354.31077 358.90846 364.36717 366.83387 372.29258 375.39927 379.35649 384.8152 390.2739 392.7406 396.0573 401.9465 406.5442 409.0109 412.9681 419.9283 425.38703 427.85374 430.96043 434.0671 439.7358 446.696 450.65324 453.11994 457.71763 463.17634 469.27555 474.73426 478.69148 481.79817 487.68736 494.64756">fixation.  Within the chloroplasts, the membranes are sites for the light reaction,</tspan><tspan y="-564.9601" x="96 104.1535 111.026 114.045 117.063999 122.435 124.813999 128.6835 135.556 140.927 143.306 148.677 155.5495 160.9205 170.7855 176.587 181.95801 187.539 194.4115 198.281 205.1535 210.5245 214.39402 217.41301 222.78401 225.16301 231.60501 237.61652 241.48603 248.35852 256.51203 262.52354 268.10453 270.48353 276.28504 281.65605 287.02705 294.10954 298.61955 303.99055 306.36955 309.38856 316.26106 318.64006 322.50956 329.38206 334.75306 337.13206 342.50306 346.37257 350.88258 356.68409 366.54908 372.56059 375.78959 378.16859 380.54759 386.98957 393.86207 399.66358 403.53309 409.3346 414.7056 420.2866 427.1591 431.0286 437.9011 443.2721 448.6431 451.6621 457.0331 459.4121 466.2846 472.2961 477.6671 480.0461 483.91563 492.06913">while the chemosynthetic pathway occurs in the stroma.  Photosynthesis has two</tspan><tspan y="-550.8001" x="96 101.4154 105.3293 111.3852 117.0106 122.425998 127.84139 131.11479 133.5382 137.45209 144.36899 149.7844 152.2078 155.2712 158.3346 163.95999 170.87689 174.79079 177.21419 181.76859 187.18399 193.2399 198.6553 202.5692 205.6326 211.4785 218.3954 220.8188 226.8747 233.7916 240.278 242.7014 246.6153 253.5322 258.9476 261.371 266.7864 272.84233 277.39674 283.88313 289.729 296.6459 299.0693 302.3427 305.40614 311.252 314.31544 321.23234 326.85774 329.28114 333.83555 339.25096 345.30686 350.72227 354.63618 357.6996 363.54548 370.46238 375.87779 379.15119 381.5746 385.05799 391.97489 394.3983 398.3122 405.2291 410.6445 413.0679 416.1313 419.1947 424.8201 431.737 435.6509 438.0743 442.62873 448.04414 454.10005 459.51545 463.42936 466.49275 472.33863 479.25553 481.67893 485.59284 492.50975">stages: the light reaction and the carbon fixing reactions. In the light reaction the</tspan><tspan y="-536.8801" x="96 99.029 102.058 107.649 114.5315 118.411 120.8 126.181 133.0635 138.4445 142.96451 148.55551 154.14652 156.5355 159.56452 164.94551 167.3345 173.356 179.808 185.189 191.00049 195.5205 201.97249 207.35349 213.80548 216.19448 222.64647 228.23748 230.62647 234.50597 241.38846 246.76946 249.15845 255.61045 258.63945 264.23045 274.10545 279.48646 286.36897 290.24845 295.62947 298.01847 304.47047 308.99046 314.37147 319.75248 325.13349 332.016 335.89549 338.2845 341.31349 348.19599 350.585 354.46449 361.347 366.728 369.117 375.13853 382.02104 385.9005 391.28153 398.16404 405.04655 411.06806 414.30708 416.69609 422.7176 429.6001 436.0521 438.4411 441.6801 448.7726 455.65513 462.53764 467.91865 470.94764 473.97663 479.35765 485.80964 488.19865 492.07814">light energy is absorbed by the pigments present in the antenna, and funnelled to</tspan><tspan y="-522.96017" x="96 101.4051 107.881198 113.28629 118.69139 121.74449 127.79009 130.84319 133.25629 138.66139 145.568 148.6211 154.4567 159.0008 164.8364 171.3125 178.2191 183.8342 186.8873 189.9404">special chlorophyll </tspan></text>
<text fill="#231f20" xml:space="preserve" transform="matrix(1 0 -0 1 -18 802.8)" font-size="10.5" font-family="Bookman,Italic" font-style="italic"><tspan y="-522.96017" x="192.23999 198.0819">a </tspan></text>
<text fill="#231f20" xml:space="preserve" transform="matrix(1 0 -0 1 -18 802.8)" font-size="10.5" font-family="Bookman"><tspan y="-522.96017" x="200.63999 210.53438 216.36528 219.41368 224.81409 230.2145 237.32639 240.37479 245.77519 251.1756 253.57689 258.9773 265.0182 268.0666 271.115 276.51539 282.9868 285.3881 289.9275 295.32789 301.36878 306.76918 310.66807 313.71647 319.54737 326.44926 328.85057 334.25096 339.65135 346.55323 350.45213 354.99153 360.3919 362.7932 368.1936 375.0955 378.1439 383.9748 388.5142 394.3451 400.8165 407.71839 413.3288 416.3772 419.4256 424.826 428.08439 430.4857 436.9571 443.85899 449.25938 453.79878 459.19917 461.60047 467.64137 472.18077 477.58116 479.98246 483.88136 492.06425">molecules called reaction centre chlorophylls. There are two</tspan><tspan y="-508.80015" x="95.999988 102.61208 109.654689 115.62629 119.665889 125.63749 131.17859 136.92969 142.4708 146.51039 152.0515 162.0866 167.6277 171.0268 173.97229 180.5844 187.627 190.5725 194.1816 197.12709 203.30869 210.35129 216.9634 219.90889 226.521 233.5636 236.5091 240.1182 243.7273 247.12639 250.07189 256.684 263.7266 266.6721 270.2812 273.22669 280.2693 286.4509 291.992 294.9375 301.1191 304.0646 310.6767 317.2888 323.90089 326.84638 333.88899 343.92408 346.86958 353.05119 359.66328 365.20439 371.17597 375.85609 382.46818 385.65727 392.69987 398.45097 401.39646 406.93757 413.98017 417.16926 423.14085 427.82096 433.79255 440.40464 447.44725 453.19834 456.38743 459.5765">photosystems, PS I and PS II. PS I has a 700 nm absorbing chlorophyll </tspan></text>
<text fill="#231f20" xml:space="preserve" transform="matrix(1 0 -0 1 -18 802.8)" font-size="10.5" font-family="Bookman,Italic" font-style="italic"><tspan y="-508.80015" x="462.47999">a</tspan></text>
<text fill="#231f20" xml:space="preserve" transform="matrix(1 0 -0 1 -18 802.8)" font-size="10.5" font-family="Bookman"><tspan y="-508.80015" x="468.71998 471.60258 478.19819 484.7938 491.3894"> P700</tspan><tspan y="-494.88014" x="95.99997 105.82507 111.58667 114.56577 119.89687 125.227977 132.27057 135.24967 140.58077 142.91986 148.89147 152.72107 155.06017 158.03926 161.86887 167.19997 169.53907 174.00916 179.34026 185.31186 190.64296 194.47257 197.45166 203.21326 210.04586 212.38495 217.71605 223.04715 229.87975 233.70935 238.17945 243.51055 246.69965 249.03874 257.15235 263.98497 266.96406 269.94316 275.27424 277.6133 284.0154 290.84803 293.1871 296.5862 299.98533 302.3244 309.157 315.1286 320.4597 322.79878 328.77037 331.10945 337.51155 343.91365 350.31575 356.71784 359.05693 363.527 368.8581 374.82969 380.16078 383.99037 386.96946 392.73106 399.56367 401.90275 407.23384 412.5649 419.39753 423.2271 427.6972 433.0283 435.36738 439.19697 446.02958 452.00117 455.83076 458.16984 464.14143 470.54353 475.8746 481.6362 486.1063 492.5084">molecule at its reaction centre, while PS II has a P680 reaction centre that absorbs</tspan><tspan y="-480.9601" x="95.99997 100.64957 106.160167 112.74177 115.26037 118.41897 121.57757 127.29817 134.31027 138.31937 140.83797 146.98908 150.99817 153.51677 160.09838 166.67998 173.26158 175.78018 182.79228 192.79688 196.16548 198.68408 201.20269 208.42479 211.7934 215.80249 221.3131 225.96269 228.4813 234.6324 241.214 246.72461 252.66571 257.3153 263.8969 267.0555 274.0676 279.7882 282.3068 285.4654 288.624 294.3446 301.3567 305.36579 308.73439 311.25297 316.76356 319.92216 325.43275 330.94334 334.95243 339.60203 345.54313 352.5552 358.0658 360.58439 366.73548 371.38508 376.89567 379.41426 384.92485 390.86595 396.37654 399.53514 403.54423 409.0548 415.6364 418.155 424.3061 431.31819 437.89979 440.41838 444.42747 449.07707 455.22816 462.24024 467.75083 471.11943 476.63 481.2796 485.9292 491.4398">red light at 680 nm.  After absorbing light, electrons are excited and transferred</tspan><tspan y="-466.8001" x="95.99997 100.04397 107.090969 111.77547 117.751468 125.00847 130.76396 137.81096 140.41117 147.02767 154.07466 156.67487 160.28836 163.90186 166.50206 172.68807 179.73506 186.35157 188.95177 195.56827 202.61527 205.21547 208.82897 211.42917 217.61518 224.66217 231.27867 233.87888 237.28238 240.47588 247.52288 253.70888 256.90238 260.0959 265.85139 268.45158 272.49559 278.4716 281.07179 288.96928 296.22627 304.76426 307.36445 310.76795 316.74397 321.42848 331.46797 334.66148 341.70848 347.46397 350.06416 357.96165 365.21864 373.75663 382.29463 385.69813 388.2983 396.8363 404.0933 408.7778 411.9713 419.0183 424.7738 427.374 431.418 438.465 441.6585 447.204 449.8042 456.42073 461.10523 467.08125 472.62675 478.17225 483.71775 489.26325 491.86344">through PS II and PS I and finally to NAD forming NADH. During this process a</tspan><tspan y="-452.8801" x="95.99997 102.47287 107.01377 112.84617 116.74657 122.578968 129.48236 131.89226 137.50415 142.04505 148.08745 154.56035 157.61025 163.01215 169.91555 173.81595 176.22585 179.27574 184.67765 187.08754 192.48944 197.03034 202.43224 208.47464 212.37505 217.77695 224.24985 226.65975 232.70215 238.10405 242.64495 248.47734 253.87924 259.28114 261.691 265.5914 272.4948 277.8967 280.30659 290.20249 295.60438 305.50028 311.97319 316.51408 322.55647 329.45988 334.86177 337.27165 343.10404 346.36393 348.7738 352.6742 359.5776 364.9795 367.38938 371.28977 378.19319 383.80509 386.85499 392.89738 399.37028 405.20268 408.25257 414.72547 417.98536 420.39524 426.86814 433.77156 439.17344 441.5833 448.0562 452.5971 457.999 464.04139 470.51429 476.98719 482.81959 491.00398">proton gradient is created across the membrane of the thylakoid. The breakdown</tspan><tspan y="-438.96009" x="95.99997 101.72937 104.88627 107.19317 110.99057 117.79097 123.08987 125.39677 131.76667 136.20456 141.93396 145.73136 151.46076 158.26116 163.56006 165.86696 171.37586 175.81375 181.75316 188.12306 191.06996 196.36887 203.16927 206.96666 209.27356 215.64347 222.65387 227.95278 230.25968 234.05707 239.78647 242.09337 251.88626 257.61567 262.91456 268.21345 278.00636 283.30525 290.10566 293.90306 296.20994 300.00733 306.80775 311.24565 316.97505 323.98545 329.49436 336.29475 338.60163 342.39903 349.1994 354.4983 356.80519">of the protons gradient due to movement through the F</tspan></text>
<text fill="#231f20" xml:space="preserve" transform="matrix(1 0 -0 1 -18 802.8)" font-size="6.1" font-family="Bookman"><tspan y="-435.36009" x="363.35997">0</tspan></text>
<text fill="#231f20" xml:space="preserve" transform="matrix(1 0 -0 1 -18 802.8)" font-size="10.5" font-family="Bookman"><tspan y="-438.96009" x="367.19996 369.50096 375.86497 381.79847 386.23048 390.02198 392.32298 398.04649 401.19749 403.49848 407.28999 414.08448 419.37748 421.67848 428.68296 435.04698 441.41099 447.34449 452.63749 457.93049 460.23149 465.52449 472.31898 477.18147 482.68446 492.47145"> part of the ATPase enzyme</tspan><tspan y="-424.80009" x="95.99994 100.68574 106.23254 109.42734 114.97414 121.16144 126.70824 132.25504 137.80184 142.06494 147.61174 154.66004 160.63733 167.89563 173.65244 180.70073 184.96384 190.51064 197.55893 203.10573 207.79154 213.54834 219.30515 223.56826 226.97306 232.95035 237.63616 241.89926 247.44606 253.20287 260.25117 264.29646 271.34477 276.89158 282.4384 285.63319 291.18 295.44309 301.42039 304.82518 309.08827 315.83995 322.42686 326.15995 329.56364 333.82563 338.08763 345.13484 351.75154 354.94523 358.13893 362.1831 366.2273 369.421 376.4682 382.2239 386.4859 392.4621 395.86579 400.12779 408.456 414.64219 418.68638 424.23207 428.91676 433.17875 443.21846 449.19465 452.38835 457.93403 463.47975 470.73695 473.93064 479.47633 485.02204 489.28404 492.47773">releases enough energy for synthesis of ATP.  Splitting of water molecules is</tspan><tspan y="-410.88008" x="95.99994 101.91274 107.18504 112.457347 118.16014 123.43244 126.352748 132.26555 136.03635 141.30864 147.65195 149.93224 157.98703 160.90734 164.67813 171.45194 173.73223 180.07553 186.84934 189.12963 192.46993 195.81023 198.09052 202.50182 207.77411 213.0464 220.0302 222.9505 226.7213 229.6416 236.4154 241.8977 244.178 247.0983 253.8721 256.1524 259.92323 266.69703 271.96934 274.24964 278.66093 283.93324 286.85353 292.12583 298.03865 303.31095 308.58326 310.86357 316.56636 319.69667 321.97697">associated with PS II resulting in the release of O</tspan></text>
<text fill="#231f20" xml:space="preserve" transform="matrix(1 0 -0 1 -18 802.8)" font-size="6.1" font-family="Bookman"><tspan y="-407.28007" x="330.23994">2</tspan></text>
<text fill="#231f20" xml:space="preserve" transform="matrix(1 0 -0 1 -18 802.8)" font-size="10.5" font-family="Bookman"><tspan y="-410.88008" x="333.83995 336.96775 339.24555 345.58634 349.99516 355.69544 359.46376 365.16404 371.93534 377.20515 379.48295 385.39326 392.16456 398.50535 400.78315 404.55146 408.96028 414.87059 421.64189 426.91169 430.0395 435.3093 439.7181 441.9959 447.6962 450.824 453.1018 458.3716 461.2894 466.5592 471.829 475.59733 480.00614 485.70643 492.47773">, protons and transfer of electrons</tspan><tspan y="-396.96006" x="95.99994 100.04734 106.02674 108.78364 115.40354 122.45394 125.21084 128.82775 132.44464">to PS II.</tspan><tspan y="-382.80006" x="113.99994 117.61304 124.65964 127.84274 131.88634 138.93294 144.47805 147.66115 153.20626 159.39186 164.07596 170.69207 176.66767 183.71427 186.89737 190.30048 193.49358 199.46918 205.65479 209.69838 212.89148 218.86708 225.91368 229.09679 234.64189 240.39699 245.9421 249.1352 254.6803 258.0834 261.2665 269.1636">In the carbon fixation cycle, CO</tspan></text>
<text fill="#231f20" xml:space="preserve" transform="matrix(1 0 -0 1 -18 802.8)" font-size="6.1" font-family="Bookman"><tspan y="-379.44007" x="277.67994">2</tspan></text>
<text fill="#231f20" xml:space="preserve" transform="matrix(1 0 -0 1 -18 802.8)" font-size="10.5" font-family="Bookman"><tspan y="-382.80006" x="281.51994 284.69703 287.88914 293.43324 296.61033 302.79493 309.41004 316.02516 321.56925 328.18437 331.36146 337.97657 343.73066 346.90776 350.95036 357.99595 363.54005 366.71714 372.26124 379.30683 384.4204 390.1745 400.2126 405.75669 409.15879"> is added by the enzyme, </tspan></text>
<text fill="#231f20" xml:space="preserve" transform="matrix(1 0 -0 1 -18 802.8)" font-size="10" font-family="Bookman"><tspan y="-382.80006" x="412.31996 419.62077 426.51158 434.01237 437.03318 442.29399 449.79478">RuBisCO</tspan></text>
<text fill="#231f20" xml:space="preserve" transform="matrix(1 0 -0 1 -18 802.8)" font-size="10.5" font-family="Bookman"><tspan y="-382.80006" x="457.91996 461.30436 464.45545 468.48036 474.43727 477.58836 483.75526 486.90635 493.50376">, to a 5-</tspan><tspan y="-368.88005" x="95.99994 101.50754 107.65564 112.30224 118.88084 124.81894 131.82804 134.34363 139.85123 145.78932 155.79093 162.36952 168.30762 175.52672 182.53582 189.11441 191.63 199.2796 206.4987 214.3583 220.9369 223.4525 227.4586 234.4677 240.6158 244.6219 247.1375 250.29309 255.80069 258.31629 263.82389 269.762 276.7711 282.2787 287.7863 292.4329 296.439 301.9466 308.5252 311.0408 315.0469 320.98503 323.5006 330.07923 332.59483 342.5964 348.53453 351.69013 357.19773 362.70533 369.9244 373.08003 378.58763 384.0952 386.6108 392.54893 395.91453 398.4301 405.00874 409.23533 414.74293 420.89103 425.53764 432.11625 438.05436 445.06346 447.57905 454.15766 462.65776 469.87684 473.24244 475.75804 482.33665 489.34574 492.50135">carbon compound RuBP that is converted to 2 molecules of 3-carbon PGA. This</tspan><tspan y="-354.96003" x="95.99994 98.913639 104.17934 106.45304 110.21724 116.984439 122.25014 129.01734 131.29103 136.55673 142.25293 149.02013 154.28583 159.55153 163.95623 167.72043 172.98613 179.32283 181.59653 185.36074 191.05693 193.33063 198.59633 205.57353 211.04923 216.95543 221.36013 223.63382 229.97052 235.44623 237.71993 241.48413 248.25133 253.51703 255.79071 263.40843 269.3146 272.2283 277.494 280.40769 287.1749 289.44859 294.71427 300.18998 305.45567 308.36936 313.63505 316.75874 319.0324 324.9386 331.7058 338.0425 340.3162 344.08039 350.8476 356.11329 358.38697 365.79469 372.77189 380.3896 386.7263 388.99998 391.91368 397.17936 399.45304 403.85774 409.1234 414.59913 419.8648 426.63203 431.8977 436.3024 442.2086 445.97279 451.23847 457.57518 460.69886 462.97254 471.23075 478.20796 482.61265 485.52635 492.29356">is then converted to sugar by the Calvin cycle, and the RuBP is regenerated. During</tspan><tspan y="-340.80003" x="95.99994 99.70824 106.41954 109.27734 114.487148 116.70495 122.98575 127.33455 132.97486 138.18465 143.39444 148.60424 153.81403 156.03182 162.95311 169.23392 175.51473 177.73252 183.58281 190.29412 196.57492 198.79271 206.3545 213.2758 221.4781 227.75891 235.96121 238.179 243.3888 248.8086 255.5199 259.2282 265.9395 271.14933 276.35914 279.21693 284.42674 289.63655 295.91734 298.13514 300.99293 307.70423 309.92204 313.63035 320.34165 325.55146 327.76927 330.62705 333.48484 338.90464 345.61595 349.32426 351.54206 355.89085 361.10066 366.95097 372.16078 375.86909 378.72688 384.36717 391.07847 393.29627 399.14659 403.49537 408.70518 410.92298 417.84428 421.55259 424.41038 427.26817 430.12596 435.33576 440.54557 446.82637 449.89418 451.91996 459.28547 466.22047 473.79597 476.66746 481.89097 489.46647">this process ATP and NADPH synthesised in the light reaction are utilised. RuBisCO</tspan><tspan y="-326.88" x="95.99994 102.08274 105.17304 110.61534 116.488147 118.938449 124.380748 130.46355 134.40435 140.48714 143.57744 149.22974 154.67205 160.11435 165.55666 168.00695 174.08974 176.54003 184.76483 190.84763 196.28993 200.23073 205.67304 208.97333 216.12712 219.21743 221.66771 227.54051 233.41332 239.06562 244.71791 250.16022 257.104 263.1868 267.1276 270.2179 276.0907 283.0345 285.48478 290.06608 295.50837 301.59117 307.03346 310.97425 314.06455 319.93736 326.88114 329.33143 332.42173 339.3655 341.8158">also catalyses a wasteful oxygenation reaction in C</tspan></text>
<text fill="#231f20" xml:space="preserve" transform="matrix(1 0 -0 1 -18 802.8)" font-size="6.1" font-family="Bookman"><tspan y="-323.28" x="349.43995">3</tspan></text>
<text fill="#231f20" xml:space="preserve" transform="matrix(1 0 -0 1 -18 802.8)" font-size="10.5" font-family="Bookman"><tspan y="-326.88" x="353.27995 355.72373 362.23054 365.31434 371.39064 378.3279 382.2622 387.698 390.9918 393.43559 399.94239 406.87968 412.74598 416.68028 422.54658 427.12138 432.55717 437.99296 444.49977 447.58357 452.15837 458.23466 462.16896 465.25276 471.11906 478.05635"> plants: photorespiration.</tspan><tspan y="-312.96" x="113.99994 120.86744 126.66394 136.52394 141.88994 144.26393 148.12844 152.63344 158.42993 164.86693 167.88094 173.24694 179.25344 182.26744 184.64144 191.07843 194.09244 200.09894 206.96643 210.83094 216.19693 218.57093 223.93692 230.80442 236.6009 244.7494 247.1234 253.1299 255.5039 260.8699 267.30693 272.6729 278.0389 281.05293 287.05943 290.07344 292.44743 296.31193 301.8879 308.32493 313.69093 316.0649 321.86143 325.08543 327.4594 333.89643 340.76393 346.56044 350.42494 356.22145 361.58744 367.16343 374.0309 377.89543 384.7629 390.1289 395.4949 398.5089 403.8749 406.2489 411.6149 417.6214 420.6354 423.6494 429.0154 435.45243 437.82643">Some tropical plants show a special type of photosynthesis called C</tspan></text>
<text fill="#231f20" xml:space="preserve" transform="matrix(1 0 -0 1 -18 802.8)" font-size="6.1" font-family="Bookman"><tspan y="-309.36" x="445.43995">4</tspan></text>
<text fill="#231f20" xml:space="preserve" transform="matrix(1 0 -0 1 -18 802.8)" font-size="10.5" font-family="Bookman"><tspan y="-312.96" x="449.27995 451.65943 458.10194 464.11393 467.98393 474.8569 483.0109 489.0229 494.6044"> pathway.</tspan><tspan y="-298.8" x="95.99994 99.47524 106.38404 108.79934 112.70514 119.61394 125.02124 130.42855 135.83585 138.25115 144.72945 147.78475 153.83255 160.74135 164.64716 170.05446 172.46976 176.37557 183.28437 188.69167 191.10697 194.37227 197.42757 201.97386 207.38117 211.28697 213.70227 220.18058 224.72687 230.56467 237.04297 244.16178 249.56908 253.47489 255.89017 261.72798 264.99327 267.40855 275.16786">In these plants the first product of CO</tspan></text>
<text fill="#231f20" xml:space="preserve" transform="matrix(1 0 -0 1 -18 802.8)" font-size="6.1" font-family="Bookman"><tspan y="-295.44" x="283.67994">2</tspan></text>
<text fill="#231f20" xml:space="preserve" transform="matrix(1 0 -0 1 -18 802.8)" font-size="10.5" font-family="Bookman"><tspan y="-298.8" x="287.51994 289.93574 293.20155 296.25733 302.0956 308.14393 312.05024 315.10603 320.9443 327.8536 330.2694 334.17573 341.08503 347.13334 351.03965 353.45545 357.36177 363.41007 369.88887 375.29667 380.70448 383.12028 389.59907 392.65486 398.70317 404.11097 409.51878 411.93458 414.99037 421.89967 424.31547 428.22178 435.13108 440.53889 442.95469 452.85649 458.26429 463.6721 469.51039 475.98918 482.89848 488.51628 491.57206 494.62785"> fixation that takes place in the mesophyll,</tspan><tspan y="-284.87998" x="95.99992 99.00462 104.36132 106.72602 112.72322 115.08792 121.515628 125.591327 130.94803 136.94524 141.44094 147.86864 153.65584 160.51404 162.87874 168.23545 174.02265 183.87335 190.30106 196.08826 203.15647 210.01467 216.44237 219.65708 222.02178 224.38648 227.81118 234.66938 237.03408 240.88927 247.74747 253.10417 255.46887 261.89659 268.96479 275.82298 282.25068 285.25538 290.61207 292.97676 298.33345 305.19163 310.5483 316.5455 320.4007 327.25889 329.62358 334.98027 340.33695 343.34165 346.34635 351.70304 354.06773 357.9229 364.7811 370.1378 372.50248 380.21119 386.20838 389.21308 394.56977 397.57447 404.43266 406.79734 413.22505 419.22224 423.07743 429.9356 438.0748 444.072 449.6387 452.0034 455.0081 460.36479 462.72947 468.08616 474.08335 478.57905 483.07475 486.07945 491.43614">is a 4-carbon compound.  In the bundle sheath cells the Calvin pathway is carried</tspan><tspan y="-270.95997" x="95.99992 101.87682 109.03472 112.97962 115.43402 118.73842 124.61532 129.20072 131.6551 135.6 142.54792 147.99431 150.4487 155.8951 161.5515 168.4994 172.4443 179.39221 184.83861 190.285 193.37941 198.8258 201.2802 207.1571 210.4615 212.9159 218.36229 224.44919 229.03459 235.55199 241.4289 248.3768 254.0332 260.5506 265.136 271.2229 275.1678 280.6142 286.0606">out for the synthesis of carbohydrates.</tspan></text>
<text fill="#00aeef" xml:space="preserve" transform="matrix(1 0 -0 1 -18 802.8)" font-size="13" font-family="Bookman,Bold" font-weight="bold"><tspan y="-219.83997" x="276.7199">E</tspan></text>
<text fill="#00aeef" xml:space="preserve" transform="matrix(1 0 -0 1 -18 802.8)" font-size="9.1" font-family="Bookman,Bold" font-weight="bold"><tspan y="-219.83997" x="286.31993 292.95054 299.58116 306.21177 313.02436 316.19697 322.28157 328.91218">XERCISES</tspan></text>
<text fill="#231f20" xml:space="preserve" transform="matrix(1 0 -0 1 -18 802.8)" font-size="10" font-family="Bookman"><tspan y="-181.19997" x="95.99991 101.64181 114.95991 122.879909 128.33861 131.4535 134.47222 140.63991 146.33731 152.64472 155.69211 162.40952 167.89691 171.04051 176.93791 180.79532 183.93892 189.83632 192.97992 199.28733 202.33472 208.23212 214.94953 218.80693 221.95053 227.23793 232.93534 236.79274 242.08014 246.54755 253.26496 259.16236 262.20976 265.25715 268.79994 272.04893 275.19413 280.48313 286.3821 293.1011 296.2463 301.73533 307.43434 314.35334 317.49855 321.35755 326.64656 329.69557 332.74458 335.88978 343.82878 350.54777 355.83677 359.69578 366.41477 371.70378 376.17277 379.31797 385.21696 388.36216 394.67115 397.72016 403.61915 410.33815 414.19715 417.34236 420.39137 425.68037 428.82557">1.By looking at a plant externally, can you tell whether a plant is C</tspan></text>
<text fill="#231f20" xml:space="preserve" transform="matrix(1 0 -0 1 -18 802.8)" font-size="5.8" font-family="Bookman"><tspan y="-177.83997" x="436.07994">3</tspan></text>
<text fill="#231f20" xml:space="preserve" transform="matrix(1 0 -0 1 -18 802.8)" font-size="10" font-family="Bookman"><tspan y="-181.19997" x="439.91993 443.07313 448.7763 453.2495 456.4027"> or C</tspan></text>
<text fill="#231f20" xml:space="preserve" transform="matrix(1 0 -0 1 -18 802.8)" font-size="5.8" font-family="Bookman"><tspan y="-177.83997" x="463.67994">4</tspan></text>
<text fill="#231f20" xml:space="preserve" transform="matrix(1 0 -0 1 -18 802.8)" font-size="10" font-family="Bookman"><tspan y="-181.19997" x="467.51994 472.99055 476.07115 485.82176 492.52235">? Why</tspan><tspan y="-167.27997" x="113.99994 119.80624 126.43253 132.64884 135.00513 141.63143 147.23772 155.08402">and how?</tspan><tspan y="-150.23996" x="95.99994 101.64184 114.95994 122.48714 127.974338 130.44153 133.48873 139.18593 144.88314 151.19034 154.23754 160.95473 166.44193 168.90912 174.80632 178.66352 181.1307 189.0679 195.7851 198.83229 204.11949 210.83669 213.3039 216.35109 223.06829 226.92548 232.21268 236.67987 243.39707 249.29427 252.34146 254.80866 260.09587 263.95307 268.42027 275.33747 280.62467 284.48188 291.39909 295.86628 301.15348 303.62068 309.31788 312.56507 315.03227 320.92945 323.39665 329.70384 332.75105 338.64823 345.36543 349.22264 351.68983 357.17704 362.87425 369.79145 372.25865 377.54585 383.44303 390.16023 392.6274 396.48463 401.77183 404.81904 407.86625 410.33345 418.27064 424.98783 430.27503 434.13224 440.84944 446.13664 450.60383 453.071 458.9682 461.4354 467.74259 470.7898 476.68699 483.40419 487.26139 489.72859 492.7758">2.By looking at which internal structure of a plant you can tell whether a plant is</tspan><tspan y="-136.31996" x="113.99994">C</tspan></text>
<text fill="#231f20" xml:space="preserve" transform="matrix(1 0 -0 1 -18 802.8)" font-size="5.8" font-family="Bookman"><tspan y="-132.95996" x="121.43994 125.14174">3 </tspan></text>
<text fill="#231f20" xml:space="preserve" transform="matrix(1 0 -0 1 -18 802.8)" font-size="10" font-family="Bookman"><tspan y="-136.31996" x="126.71994 132.40724 136.86455 139.60186">or C</tspan></text>
<text fill="#231f20" xml:space="preserve" transform="matrix(1 0 -0 1 -18 802.8)" font-size="5.8" font-family="Bookman"><tspan y="-132.95996" x="147.11994">4</tspan></text>
<text fill="#231f20" xml:space="preserve" transform="matrix(1 0 -0 1 -18 802.8)" font-size="10" font-family="Bookman"><tspan y="-136.31996" x="150.71994 156.20514 158.90033 166.22553 171.92073 178.22594 181.27114 187.16634 190.21154 196.92673">? Explain.</tspan><tspan y="-119.27996" x="95.99994 101.64184 114.95994 122.28894 127.57794 132.86695 139.58594 142.94744 146.80643 153.52542 159.22443 166.14344 171.63243 178.35143 181.71292 187.61193 190.97342 196.26242 201.55142 206.02042 211.50942 214.87091 218.1199 223.4089 231.3479 234.7094 239.9984 245.2874 248.3364 251.38539 256.67439 260.03587 263.08488 269.80387 273.16535 279.06434 282.4258">3.Even though a very few cells in a C</tspan></text>
<text fill="#231f20" xml:space="preserve" transform="matrix(1 0 -0 1 -18 802.8)" font-size="5.8" font-family="Bookman"><tspan y="-115.91996" x="289.91996">4</tspan></text>
<text fill="#231f20" xml:space="preserve" transform="matrix(1 0 -0 1 -18 802.8)" font-size="10" font-family="Bookman"><tspan y="-119.27996" x="293.51997 296.88206 303.18986 306.23765 312.13545 318.85325 322.71104 326.07313 331.36094 337.25874 341.72654 346.19435 351.68214 355.04423 360.74205 367.65983 371.5176 374.8797 378.7375 385.4553 390.7431 394.1052 400.413 403.4608 409.1586 414.4464 419.9342 426.652 430.5098 437.2276 442.5154 446.3732 449.421 454.7088 458.0709 463.14869 466.51078 474.03858 479.93638 482.98417 488.27198 491.31977"> plant carry out the biosynthetic &#x2013; Calvin</tspan><tspan y="-105.35996" x="113.999958 120.289157 126.16836 130.00756 136.70676 144.62596 150.50516 155.97437 159.20357 161.62168 167.09088 172.36008 176.19928 178.61739 182.45659 189.15579 194.42499 199.8942 202.3123 208.1915 212.6407 217.9099 220.328 227.0272 230.05641 235.52562 242.22483 245.25403 250.72324 253.14134 259.43055 263.87974 269.55894 275.84815 282.74736 288.01655 291.85575 294.88496 300.15415 305.42335 308.65254 311.07063 318.5798 324.459 331.1582 333.5763 339.0455 344.7247 351.6239 354.042 360.3312 363.3604 368.6296 373.8988 380.798 386.0672 391.3364 393.7545 401.67369 408.37287 413.84208">pathway, yet they are highly productive. Can you discuss why?</tspan></text>
<g clip-path="url(#clip_2116)">
<text xml:space="preserve" transform="matrix(1 0 -0 1 259.314 763.9998)" font-size="8" font-family="Arial"><tspan y="6.316" x="0"> </tspan></text>
</g>
</g>
</g>
</svg>
