<svg xmlns="http://www.w3.org/2000/svg" xmlns:xlink="http://www.w3.org/1999/xlink" xmlns:inkscape="http://www.inkscape.org/namespaces/inkscape" version="1.1" width="576" height="784.8" viewBox="0 0 576 784.8">
<defs>
<clipPath id="clip_21004">
<path transform="matrix(1,0,0,-1,-18,802.8)" d="M18 18H594V802.8H18Z" clip-rule="evenodd"/>
</clipPath>
<clipPath id="clip_21005">
<path transform="matrix(1,0,0,-1,259.314,763.99978)" d="M0-8H57.372V.800049H0Z"/>
</clipPath>
</defs>
<g clip-path="url(#clip_21004)">
<path transform="matrix(.24,0,0,-.24,-18,802.8)" d="M2 2H2548V214.67H2Z" fill="#cbdf7f" fill-rule="evenodd"/>
<path transform="matrix(.24,0,0,-.24,-18,802.8)" stroke-width="4" stroke-linecap="butt" stroke-miterlimit="1000" stroke-linejoin="miter" fill="none" stroke="#cbdf7f" d="M2 2H2548V214.67H2Z"/>
<path transform="matrix(.24,0,0,-.24,-18,802.8)" d="M0 3035.83H2550V3372.7003H0Z" fill="#d1d3d4" fill-rule="evenodd"/>
<path transform="matrix(.24,0,0,-.24,-18,802.8)" d="M0 3078.33H2550V3420H0Z" fill="#e1ecb6" fill-rule="evenodd"/>
<path transform="matrix(.24,0,0,-.24,62.6362,53.63501)" d="M0 0C7.32 7.32 16.16 10.98 26.52 10.98H97.35C107.71 10.98 116.55 7.32 123.87 0 131.19-7.33 134.85-16.17 134.85-26.52V-101.52C134.85-111.88 131.19-120.72 123.87-128.04 116.55-135.36 107.71-139.02 97.35-139.02H26.52C16.16-139.02 7.32-135.36 0-128.04-7.32-120.72-10.98-111.88-10.98-101.52V-26.52C-10.98-16.17-7.32-7.33 0 0" fill="#ffffff" fill-rule="evenodd"/>
<text fill="#231f20" xml:space="preserve" transform="matrix(1 0 -0 1 -18 802.8)" font-size="11" font-family="Bookman"><tspan y="-729.361" x="87.12 94.26001">36</tspan></text>
<text fill="#231f20" xml:space="preserve" transform="matrix(1 0 -0 1 -18 802.8)" font-size="11" font-family="Bookman"><tspan y="-729.361" x="513.12">B</tspan></text>
<text fill="#231f20" xml:space="preserve" transform="matrix(1 0 -0 1 -18 802.8)" font-size="7.69999" font-family="Bookman"><tspan y="-729.361" x="521.04 523.4336 529.3692 533.76486 539.70046 545.63607">IOLOGY</tspan></text>
<path transform="matrix(.24,0,0,-.24,-18,.35998536)" stroke-width="1" stroke-linecap="butt" stroke-miterlimit="10" stroke-linejoin="miter" fill="none" stroke="#000000" d="M0 0H60"/>
<path transform="matrix(.24,0,0,-.24,.12000084,-18)" stroke-width="1" stroke-linecap="butt" stroke-miterlimit="10" stroke-linejoin="miter" fill="none" stroke="#000000" d="M0 0V-60"/>
<path transform="matrix(.24,0,0,-.24,-18,784.68)" stroke-width="1" stroke-linecap="butt" stroke-miterlimit="10" stroke-linejoin="miter" fill="none" stroke="#000000" d="M0 0H60"/>
<path transform="matrix(.24,0,0,-.24,.12000084,788.16)" stroke-width="1" stroke-linecap="butt" stroke-miterlimit="10" stroke-linejoin="miter" fill="none" stroke="#000000" d="M0 0V-60"/>
<path transform="matrix(.24,0,0,-.24,593.64,784.56)" stroke-width="1" stroke-linecap="butt" stroke-miterlimit="10" stroke-linejoin="miter" fill="none" stroke="#000000" d="M0 0V-75"/>
<text fill="#231f20" xml:space="preserve" transform="matrix(1 0 -0 1 -18 802.8)" font-size="10" font-family="Bookman"><tspan y="-688.561" x="192 197.6806 210.95999 220.31999 224.7187 227.7174 231.51612 236.71483 239.25244 245.05115 247.58876 254.18747 259.7862 263.5849 268.7836 271.3212 276.91993 283.51866 286.05625 291.25495 296.45365 302.05238 308.6511 314.24983 323.64854 326.64726 331.84596 334.38356 337.38227 346.78099 352.97969 358.5784 362.9771 366.77583 372.57453 379.17326 384.37196 389.57066 392.10826 397.70698 400.90568 403.44328 409.24198 412.2407 417.6394 423.4381 428.6368 431.1744 436.9731 443.57185 449.77055 452.30815 457.70686 463.10557 472.50428 479.103 484.70173 489.90043 496.09913 501.29783 505.91999 515.3008 520.48159">5.Write a note on economic importance of algae and gymnosperms.</tspan><tspan y="-670.561" x="191.99997 197.68058 210.95996 218.36096 223.96196 227.76296 234.36396 238.67604 244.07704 249.47805 258.87904 265.48005 271.08106 276.28205 282.48304 287.68403 292.08503 301.48603 306.687 310.99909 316.80009 323.4011 329.60209 333.91416 339.71516 346.31617 351.71717 354.71818 360.31919 365.52018 371.72117 376.92216 381.32316 390.72416 395.92515 400.2372 406.4382 411.6392 417.4402 421.8412 426.15327 431.35426 436.55525 441.75624 447.9572 453.1582 456.3592 460.67127 464.47227 471.07328 476.27427 482.87528 487.18736 494.98835 501.58937 506.99037 511.30244 517.10348 521.50448 526.70547 531.0175 534.81857 541.41958 546.62057">6.Both gymnosperms and angiosperms bear seeds, then why are they</tspan><tspan y="-656.39999" x="209.99996 215.19745 218.19495 223.99245 229.18994 234.38744 237.38494 240.58243 243.57993 248.77742 254.97492 258.07243 263.26994 268.46745 274.66496 280.46244 284.85993 290.6574 294.4549 299.6524 302.6499 308.0474">classified separately?</tspan><tspan y="-638.39999" x="191.99996 197.68056 210.95996 220.57015 227.18033 232.99053 236.80072 241.61092 244.62111 249.8313 254.6415 261.25169 266.46189 270.27207 275.48228 279.89247 285.50267 290.71287 296.92304 302.53324 306.94343 312.3536 317.7638 322.574 329.9842 334.39439 337.40458 342.61479 345.82499 348.83518 354.24537 359.05558 364.26579 369.87599 379.28617 388.69636 393.90657 400.51676 404.32695 409.13716 414.74736 421.35755 426.16777 429.17796 432.98814 438.19834 443.00856 448.21876 451.22895 456.63914 463.24934 466.25953 469.46974 472.47993 477.69013 483.5003 490.1105 495.3207 500.5309 503.74113 508.55134 516.5615 519.5717 524.7819 529.9921 534.8023 538.6125 546.42269">7.What is heterospory? Briefly comment on its significance. Give two</tspan><tspan y="-624.48098" x="209.99996 215.10045 220.60095 226.30146 235.60196 241.70246 244.60295 249.70345 254.80394">examples.</tspan><tspan y="-606.48098" x="191.99996 197.68056 210.95996 218.15827 223.75658 229.95488 232.95319 238.7515 241.7498 248.34812 250.83213 257.03044 261.42875 264.42707 269.62538 272.82368 275.822 281.2203 283.7043 287.50263 294.10093 299.29924 301.78324 304.98155 310.57984 313.57817 316.57649 322.17478 329.97309 332.9714 339.5697 344.96803 347.45204 351.25035 356.44865 360.84696 370.24528 375.44358 377.92759 385.7259 388.7242 392.52253 399.12083 401.60484 406.80314 413.60145 416.59977 420.39808 426.19639 432.39469 435.393 440.5913 443.07533 448.27363 453.87193 459.67024 469.06855 475.26686 478.26518 483.46348 488.66178 491.86009">8.Explain briefly the following terms with suitable examples:-</tspan><tspan y="-588.48098" x="215.03997 217.97998 220.91999 227.03997 233.14536 237.45076 242.95616 246.66156 252.16696 258.67237 263.77778 273.08317">(i)protonema</tspan><tspan y="-574.561" x="211.91997 214.91997 217.91997 220.91997 227.03997 232.83226 239.42456 243.21686 249.80916 255.00147 259.39378 262.38609 268.57838 271.57069 278.36299">(ii)antheridium</tspan><tspan y="-560.39999" x="209.03997 212.00998 214.98 217.95001 220.92003 227.03997 232.82427 237.20856 242.39286 248.97716 254.16146 259.54576 265.13005 271.71434 274.69865 281.48295">(iii)archegonium</tspan><tspan y="-546.48098" x="209.75997 212.74686 215.73375 220.92066 227.03997 233.16518 236.0904 242.2156 245.14083 250.66603 257.19126 260.91648 263.84169">(iv)diplontic</tspan><tspan y="-532.561" x="212.63997 215.68025 220.92055 227.03997 232.12468 238.2094 243.6941 247.97882 253.46353 259.54826 266.03297 271.31767 274.20237">(v)sporophyll</tspan><tspan y="-518.39999" x="209.75997 212.74686 217.93376 220.92066 227.03997 229.88698 234.93399 240.381 245.628 251.27501 260.52204">(vi)isogamy</tspan><tspan y="-500.39997" x="191.99997 197.68058 210.95996 218.95136 221.94275 225.13416 228.32556 233.51697 237.90837 243.09978 249.69118 253.48258 256.47398 262.26539 266.0568 271.2482 273.63963 279.83103 285.02244 288.81385 296.60527 301.79667 306.98808 313.57948 315.9709 319.7623 326.3537 331.5451 333.93653 337.12794 342.71934 345.71073 348.70213 354.29353 362.08494 365.07633 371.66773 377.0591 380.25053">9.Differentiate between the following:-</tspan><tspan y="-484.56098" x="215.99996 218.93997 221.87998 228.95996 233.35778 238.55559 244.7534 247.77622 253.57402 256.57185 261.96965 267.76747 272.96528 275.9881 281.78593 288.38374 294.58155 297.60438 303.8022 308.19999 313.7978 321.5956 328.19343 331.21626 337.01408 340.01188 345.40968 351.2075">(i)red algae and brown algae</tspan><tspan y="-470.39997" x="213.11997 216.11997 219.11997 222.11997 228.95996 231.95867 234.95737 240.15608 245.3548 249.75351 257.55223 263.15095 267.54966 271.34837 276.54707 279.12077 284.91947 291.5182 297.7169 300.2906 309.6893 315.28804 320.48674">(ii)liverworts and moss</tspan><tspan y="-456.48097" x="209.99997 212.96999 215.94 218.91002 221.88004 228.95996 235.52617 241.09238 250.45859 256.0248 261.191 267.3572 272.92344 277.28965 282.85588 289.62208 294.78828 297.15449 302.9207 309.4869 315.6531 318.01933 324.58555 329.75175 333.51795 338.68415 343.05036 348.61659 353.78279 359.94898 365.5152 369.8814 375.44764 382.21385 387.38005 389.74626 395.91246 399.67866 404.84486 409.21107 412.17729 418.34349 423.9097 430.0759 436.64213 442.00834 445.77455">(iii)homosporous and heterosporous pteridophyte</tspan><tspan y="-438.48097" x="191.99997 197.84049 203.681 210.95996 220.15888 225.95778 229.75669 234.9556 241.5545 244.05342 247.85233 254.45124 259.65016 262.14909 265.348 270.9469 273.9458 276.9447 282.5436 290.34254 293.34144 299.94035 305.33924 307.83818 310.83708 316.03599 321.6349 324.6338 331.4327 340.8316 347.4305 349.92945 353.32835 355.82728 363.6262 366.6251 370.424 377.02293 379.52186 384.72077 390.31968 393.31858 400.1175 409.51643 416.11534 418.61427 422.01316 425.41206">10.Match the following (column I with column II)</tspan></text>
<text fill="#231f20" xml:space="preserve" transform="matrix(1 0 -0 1 -18 802.8)" font-size="10" font-family="Bookman"><tspan y="-418.56095" x="210.95996 218.41475 224.66954 228.12433 234.77912 244.83391 251.6887 254.2435 351.11997 358.51799 364.71598 368.11399 374.712 384.71003 391.50804 394.00605 398.00407">Column IColumn II</tspan></text>
<text fill="#231f20" xml:space="preserve" transform="matrix(1 0 -0 1 -18 802.8)" font-size="10" font-family="Bookman"><tspan y="-402.48097" x="210.95996 213.94696 219.73397 222.72097">(a) </tspan></text>
<text fill="#231f20" xml:space="preserve" transform="matrix(1 0 -0 1 -18 802.8)" font-size="10" font-family="Bookman" font-style="italic"><tspan y="-402.48097" x="225.11997 232.39026 238.66056 241.53084 247.80113 256.67143 262.7417 269.21199 274.68226 283.55256 289.02284 295.29313 301.56343">Chlamydomonas</tspan></text>
<text fill="#231f20" xml:space="preserve" transform="matrix(1 0 -0 1 -18 802.8)" font-size="10" font-family="Bookman"><tspan y="-402.48097" x="353.99998 356.93998 359.87998 366.95997 376.00059 381.4412 386.4818">(i)Moss</tspan><tspan y="-388.56095" x="210.95996 213.99686 220.23375 223.27065">(b) </tspan></text>
<text fill="#231f20" xml:space="preserve" transform="matrix(1 0 -0 1 -18 802.8)" font-size="10" font-family="Bookman" font-style="italic"><tspan y="-388.56095" x="226.31996 233.38007 239.24018 243.90029 249.96039">Cycas</tspan></text>
<text fill="#231f20" xml:space="preserve" transform="matrix(1 0 -0 1 -18 802.8)" font-size="10" font-family="Bookman"><tspan y="-388.56095" x="351.11997 354.11997 357.11997 360.11997 366.95997 373.08027 376.80058 381.92088 386.24119 389.1615 395.2818 400.80213 406.92243 413.44276 418.76307 422.48338">(ii)Pteridophyte</tspan><tspan y="-374.39994" x="210.95996 213.95366 219.14736 222.14105">(c) </tspan></text>
<text fill="#231f20" xml:space="preserve" transform="matrix(1 0 -0 1 -18 802.8)" font-size="10" font-family="Bookman" font-style="italic"><tspan y="-374.39994" x="225.83997 232.23636 237.63275 240.42916 246.62555 252.22196 255.01836 261.21476 266.61116 269.40754 272.20393">Selaginella</tspan></text>
<text fill="#231f20" xml:space="preserve" transform="matrix(1 0 -0 1 -18 802.8)" font-size="10" font-family="Bookman"><tspan y="-374.39994" x="347.99998 350.96998 353.93998 356.90998 359.87998 366.95997 373.75038 376.74079 382.1312 387.9216">(iii)Algae</tspan><tspan y="-360.48094" x="210.95996 213.98345 220.20694 223.23043">(d) </tspan></text>
<text fill="#231f20" xml:space="preserve" transform="matrix(1 0 -0 1 -18 802.8)" font-size="10" font-family="Bookman" font-style="italic"><tspan y="-360.48094" x="226.07996 228.92527 235.57056 241.81586 248.26116 254.70645 260.55177 266.99708 273.44239"> Sphagnum</tspan></text>
<text fill="#231f20" xml:space="preserve" transform="matrix(1 0 -0 1 -18 802.8)" font-size="10" font-family="Bookman"><tspan y="-360.48094" x="348.71998 351.70689 354.6938 359.88069 366.95997 374.78709 380.0142 389.2413 395.66844 401.09556 406.12266 412.14976 417.17686 421.40397">(iv)Gymnosperm</tspan><tspan y="-342.48094" x="191.99996 197.84047 203.68099 210.95996 218.95917 224.15837 229.35758 234.55678 238.956 241.9552 248.1544 253.3536 255.97283 259.77204 266.37126 271.57048 274.1897 277.1889 286.5881 292.78733 298.38655 302.78575 306.58497 312.3842 318.9834 322.78263 325.40187 330.60108 337.2003 342.9995 347.3987 353.19795 358.39717 362.19639 367.3956 371.7948 374.794 379.99324 383.79246 386.79167 391.99089 397.1901 399.80934 405.40855 408.60777 411.227 416.6262 422.0254 431.4246 438.0238 443.62303 448.82225 455.02146 460.22068 464.61988 474.01908 479.2183">11.Describe the important characteristics of gymnosperms.</tspan></text>
<g clip-path="url(#clip_21005)">
<text xml:space="preserve" transform="matrix(1 0 -0 1 259.314 763.99978)" font-size="8" font-family="Arial"><tspan y="6.316" x="0"> </tspan></text>
</g>
</g>
</svg>
