<svg xmlns="http://www.w3.org/2000/svg" xmlns:xlink="http://www.w3.org/1999/xlink" xmlns:inkscape="http://www.inkscape.org/namespaces/inkscape" version="1.1" width="576" height="784.8" viewBox="0 0 576 784.8">
<defs>
<clipPath id="clip_15">
<path transform="matrix(1,0,0,-1,-18,802.8)" d="M18 18H594V802.8H18Z" clip-rule="evenodd"/>
</clipPath>
<clipPath id="clip_16">
<path transform="matrix(1,0,0,-1,259.314,763.9998)" d="M0-8H57.372V.800049H0Z"/>
</clipPath>
</defs>
<g clip-path="url(#clip_15)">
<path transform="matrix(.23999998,0,0,-.23999998,-18,802.8)" d="M2 2H2548V214.67H2Z" fill="#cbdf7f" fill-rule="evenodd"/>
<path transform="matrix(.23999998,0,0,-.23999998,-18,802.8)" stroke-width="4" stroke-linecap="butt" stroke-miterlimit="1000" stroke-linejoin="miter" fill="none" stroke="#cbdf7f" d="M2 2H2548V214.67H2Z"/>
<path transform="matrix(.23999998,0,0,-.23999998,-18,802.8)" d="M0 3035.83H2550V3372.7003H0Z" fill="#d1d3d4" fill-rule="evenodd"/>
<path transform="matrix(.23999998,0,0,-.23999998,-18,802.8)" d="M0 3078.33H2550V3420H0Z" fill="#e1ecb6" fill-rule="evenodd"/>
<path transform="matrix(.23999998,0,0,-.23999998,62.63616,53.635194)" d="M0 0C7.32 7.32 16.16 10.98 26.52 10.98H97.35C107.7 10.98 116.54 7.32 123.87 0 131.19-7.32 134.85-16.16 134.85-26.52V-101.52C134.85-111.88 131.19-120.72 123.87-128.04 116.54-135.36 107.7-139.02 97.35-139.02H26.52C16.16-139.02 7.32-135.36 0-128.04-7.32-120.72-10.98-111.88-10.98-101.52V-26.52C-10.98-16.16-7.32-7.32 0 0" fill="#ffffff" fill-rule="evenodd"/>
<text fill="#231f20" xml:space="preserve" transform="matrix(1 0 -0 1 -18 802.8)" font-size="11" font-family="Bookman,Bold" font-weight="bold"><tspan y="-729.361" x="87.12 94.26001">88</tspan></text>
<text fill="#231f20" xml:space="preserve" transform="matrix(1 0 -0 1 -18 802.8)" font-size="11" font-family="Bookman"><tspan y="-729.361" x="513.12">B</tspan></text>
<text fill="#231f20" xml:space="preserve" transform="matrix(1 0 -0 1 -18 802.8)" font-size="7.69999" font-family="Bookman"><tspan y="-729.361" x="521.04 523.3687 529.3087 533.6779 539.6179 545.5579">IOLOGY</tspan></text>
<path transform="matrix(.23999998,0,0,-.23999998,-18,.35998536)" stroke-width="1" stroke-linecap="butt" stroke-miterlimit="10" stroke-linejoin="miter" fill="none" stroke="#000000" d="M0 0H60"/>
<path transform="matrix(.23999998,0,0,-.23999998,.12000084,-18)" stroke-width="1" stroke-linecap="butt" stroke-miterlimit="10" stroke-linejoin="miter" fill="none" stroke="#000000" d="M0 0V-60"/>
<path transform="matrix(.23999998,0,0,-.23999998,-18,784.68)" stroke-width="1" stroke-linecap="butt" stroke-miterlimit="10" stroke-linejoin="miter" fill="none" stroke="#000000" d="M0 0H60"/>
<path transform="matrix(.23999998,0,0,-.23999998,.12000084,788.16)" stroke-width="1" stroke-linecap="butt" stroke-miterlimit="10" stroke-linejoin="miter" fill="none" stroke="#000000" d="M0 0V-60"/>
<path transform="matrix(.23999998,0,0,-.23999998,593.64,784.56)" stroke-width="1" stroke-linecap="butt" stroke-miterlimit="10" stroke-linejoin="miter" fill="none" stroke="#000000" d="M0 0V-75"/>
<text fill="#231f20" xml:space="preserve" transform="matrix(1 0 -0 1 -18 802.8)" font-size="10.5" font-family="Bookman"><tspan y="-688.561" x="192.24 199.18541 204.62932 211.57472 219.80113 225.88555 232.83095 239.77635 242.74498 245.83689 252.35179 258.8667 265.38163 271.89656 274.98847 278.29039 281.259 287.3434 290.16 298.69483 304.23713 308.91844 318.95475 325.13755 332.18138 335.52 342.26719 348.24 354.1049 357.1873 363.0522 368.6966 371.779 377.21339 381.14628 384.43867 387.39106 392.82545 396.75834 403.90425 410.40965 413.49205 418.92643 425.43183 428.38423 434.88963 437.97203 441.84 445.1474 450.5968 455.1852 460.6346 467.5855 471.53343 474.50083 478.44874 484.10813 490.6285 496.0779 501.5273 504.49473 510.37464 513.682 516.6494 522.7393 529.69027 532.78768 542.7311 548.821">Schwann (1839), a German Zoologist, studied different types of animal</tspan><tspan y="-674.4" x="192.24 197.6737 203.1074 206.1891 209.2708 214.7045 217.1462 223.2204 230.1556 236.6603 239.10199 243.67469 249.10839 255.61309 261.4773 266.05 269.98219 275.41587 281.92057 284.36225 288.29444 295.22966 301.30384 305.23603 307.6777 313.1114 318.54508 321.62678 324.70848 330.14216 332.58384 339.51905 345.59324 352.09794 354.5396 360.6138 363.05549 366.98768 373.92289 377.00459 383.9398 386.38148 392.24568 399.39088 403.32307 408.75675 413.32945 415.77113 418.8528 424.927 430.5707 436.0044 440.5771 443.01878 451.23497 458.17018 461.25187 466.68556 473.62077 476.06245 479.14414 484.57783 487.0195 490.9517 496.8159 503.3206 509.39479 515.03848 517.48019 523.98489 530.92007 536.78427 545.0004">cells and reported that cells had a thin outer layer which is today known</tspan><tspan y="-660.481" x="192.24 198.32791 203.77532 206.90804 210.85395 217.80284 223.25025 226.38297 228.61737 235.13578 238.23117 244.31908 249.76648 259.7079 265.79579 268.92848 278.86988 284.31727 294.25868 300.77708 305.36347 311.45137 318.40028 323.84767 326.08207 329.38746 332.52015 340.32 345.7607 348.88673 354.96794 358.05665 363.49736 369.36854 372.49455 377.93525 383.80644 390.74864 396.18934 399.27806 406.43025 412.94194 418.38264 424.89433 428.19303 431.31904 437.83073 443.91194 449.35264 454.79335 461.30503 464.43104 470.30223 477.24443 480.37043 487.31263 490.40135 495.84205 498.96806 504.40876 508.34797 515.5002 522.0119 525.1006 530.54129 535.98196 539.108 544.9792">as the &#x2018;plasma membrane&#x2019;. He also concluded, based on his studies on</tspan><tspan y="-646.561" x="192.24 198.9644 202.26581 208.55971 215.7146 219.8665 223.5696 227.7215 231.0229 236.6763 242.3297 249.6946 255.34799 261.0014 264.51283 268.2159 272.3678 279.5227 285.81663 289.9685 293.6716 297.8235 304.9784 310.6318 314.3349 321.0593 325.85169 331.5051 337.1585 342.81193 349.96684 355.62025 361.27366 364.97676 371.06065 374.57206 378.27516 383.92857 389.58198 392.88337 396.18476 399.88786 408.32377 414.61769 417.91908 421.22047 424.92356 428.22496 433.87837 437.58146 443.87538 447.57847 454.94337 462.09828 465.39967 471.69358 479.05848 484.71189 488.41499 494.0684 501.2233 507.5172 512.30966 518.6035 524.2569 528.4088 534.0622 538.8546 542.55776 548.64169">plant tissues, that the presence of cell wall is a unique character of</tspan><tspan y="-632.4" x="192.24 196.2966 203.35619 208.91428 211.48036 218.10945 221.31554 227.51413 234.57372 238.63031 241.1964 246.75449 252.31258 255.51866 258.72477 264.28285 267.6989 270.26499 278.81559 285.87519 288.44126 292.49784 299.55744 305.11555 307.6816 314.3107 320.50929 326.06739 329.27348 334.83155 337.3976 343.3862 346.80229 349.36836 353.42494 360.48454 363.6906 369.24873 372.6648 375.23088 382.29048 387.84858 394.90818 403.24876 409.44734 416.50694 423.56654 426.1326 432.7617 437.45878 443.44737 450.07646 456.06504 461.6231 467.1812 473.8103 476.37638 480.43296 487.49256 493.05067 495.61674 502.67634 508.44444 515.07357 521.06216 525.1187 532.1783 537.7364 543.2945 546.5006">the plant cells. On the basis of this, Schwann proposed the hypothesis</tspan><tspan y="-618.481" x="192.24 196.42 203.60298 209.92498 214.10497 219.34445 223.52445 230.70743 236.38892 241.6284 248.38089 254.49288 261.24537 264.57487 270.25636 275.93785 281.1773 287.2893 290.8288 296.06828 302.39027 309.57325 312.90275 323.07823 329.4002 332.7297 338.4112 343.65068 349.97267 357.15565 363.90815 369.1476 375.90013 379.2296 385.5516 392.7346 396.91459 402.59608 407.83555 414.15754 418.97804 424.65953 429.899 435.58049 441.69248 451.86796 458.62046 464.73246 470.41395 476.09544 482.84794 488.0874 494.1994 497.7389 502.97837 508.65986 514.3414 517.67086 521.0003 526.6818 531.9213 538.2433 545.4263">that the bodies of animals and plants are composed of cells and</tspan><tspan y="-604.561" x="192.24 198.96031 203.74861 209.82842 216.54872 223.90952 229.55883 233.70662 239.35593 242.53823 248.61803 252.12532 255.30762 260.9569 266.6062 269.9035 273.2008 278.8501">products of cells.</tspan><tspan y="-590.4" x="210.24 217.2892 222.83689 229.88608 233.08177 238.62946 241.82515 248.44385 253.99153 261.0407 265.0714 271.2596 278.3088 284.9275 288.9582 296.0074 301.55509 308.60429 316.93449 323.12269 330.17189 337.22108 341.25178 345.29798 351.27616 357.03385 362.58155 366.62776 373.67695 379.22465 383.91133 387.94203 391.34773 397.3259 402.01258 412.05427 419.31346 422.50914 428.69734 432.74354 438.29124 444.9099 448.9406 452.98683 460.036 465.5837 469.6144 475.1621 480.7098 483.9055 487.10118 491.13188 495.17808 502.22727 507.77497 513.7532 518.4399 522.24 525.6297 529.6444 536.24716 543.28036 546.46">Schleiden and Schwann together formulated the cell theory. This</tspan><tspan y="-576.481" x="192.24 196.2079 203.1788 208.64821 214.54811 219.15651 224.8359 227.3133 234.2842 240.1841 248.436 253.90541 259.37483 264.8442 268.32 271.6525 274.13499 280.68049 283.80299 290.34849 292.83097 299.80699 305.71199 309.68498 312.16746 317.64195 323.54695 330.09245 333.21495 339.32994 342.45243 349.42845 351.91093 358.0259 363.5004 365.98289 369.95588 375.86088 378.34336 385.31938 391.22438 399.48136 401.96385 408.93986 414.41435 422.67134 425.1538 430.6283 436.10279 439.22529 442.34779 447.82228 450.30476 458.56175 464.03623 468.64973 474.1242 476.6067 479.93919 485.84419 490.45768 500.42619 505.90068 512.44619 515.7787 518.2612 525.87777 533.0637 539.6092 545.5142 548.6367">theory however, did not explain as to how new cells were formed. Rudolf</tspan><tspan y="-562.561" x="192.24 199.53842 202.56334 207.07926 212.45616 219.33457 225.14197 233.30138 235.68628 238.7112 245.1591 251.60701 258.05494 264.50285 267.52775 269.91267 273.14759 276.1725 280.6884 286.0653 289.9407 292.32563 297.70256 303.50996 309.95787 312.98277 319.00019 322.0251 328.9035 334.28044 340.72834 343.11326 346.98866 353.86708 359.8845 363.7599 366.1448 371.52174 376.89866 379.92356 382.94847 388.32539 390.7103 397.1582 400.1831 405.56004 408.58494 415.03285 420.40977 426.85768 429.24259 435.26 442.13844 448.58634 450.97126 457.84968 463.2266 471.38603 473.77095 479.14787 484.52479 487.54969 490.5746 495.9515 498.33644 504.35386 508.86976 514.24667 516.6316 519.8665 525.67398 530.1899 540.0608 545.4377">Virchow (1855) first explained that cells divided and new cells are formed</tspan><tspan y="-548.4" x="192.24 195.8808 200.8026 207.0159 217.2927 222.63349 229.48729 234.40909 240.1919 244.6937 250.4765 256.6898 260.12059 265.90339 270.1847 273.61549 280.89979 286.89259 292.23338 298.01618 303.79899 307.22978 310.66056 316.44337 321.78416">from pre-existing cells (</tspan></text>
<text fill="#231f20" xml:space="preserve" transform="matrix(1 0 -0 1 -18 802.8)" font-size="10.5" font-family="Bookman,Italic" font-style="italic"><tspan y="-548.4" x="325.2 333.8287 343.9274 351.0861 354.46479 360.15348 365.41716 371.10585 376.79454 380.17323 383.5519 390.9206 394.2993 400.61799 405.04667 410.73536 415.99903 421.6877 427.3764 430.7551 434.1338 441.50248 444.88117">Omnis cellula-e cellula</tspan></text>
<text fill="#231f20" xml:space="preserve" transform="matrix(1 0 -0 1 -18 802.8)" font-size="10.5" font-family="Bookman"><tspan y="-548.4" x="451.199 454.6078 458.2266 463.54539 471.84 477.6315 482.98097 493.26646 499.48844 506.35093 509.7904 513.4399 516.8794 522.6709 529.5334 534.8829 539.17288 546.4658">). He modified the</tspan><tspan y="-534.481" x="192.24 199.28781 205.04412 211.6614 217.63822 221.68302 228.73082 234.27712 239.82341 243.01772 248.56401 252.99552 258.97233 262.37663 266.8081 273.8559 279.4022 286.44999 289.6443 295.19059 298.3849 305.0022 310.5485 317.59629 322.02778 328.21458 335.26237 341.87968 346.31117 353.35896 358.90525 365.95304 374.28184 380.46864 387.51643 394.5642 398.9957 403.0405 409.0173 413.4488 419.20509 422.39939 427.94569 433.49198 437.92347 441.96827 449.01606 454.56236 458.99385 464.54014 470.08644 473.28074 476.47505 480.90653 484.95133 491.9991 497.5454 503.52223 508.20753 513.9638 518.3953 524.58218 529.0137 532.41799 535.61227 542.66006 548.84689">hypothesis of Schleiden and Schwann to give the cell theory a final</tspan><tspan y="-520.561" x="192.24 197.78261 204.8267 211.00981 217.62342 223.16602 226.56662 229.78392 237.67853 243.22113 246.41173 249.60233 252.81963 256.86073 263.90483 269.44743 275.42054 280.10215 285.85475 289.07206 295.25517 300.79777 304.01509 311.26918 318.31327 324.92686 330.46946 335.15107 340.69367 344.73478 350.7079 356.681 363.2946 366.5119 370.553 376.52613 383.1397 389.3228 395.0754 398.29273 401.48335 407.02595">shape. Cell theory as understood today is:</tspan><tspan y="-500.4" x="192.24 195.08512 197.93022 210.24 216.4276 219.62268 222.81777 225.88785 229.08293 232.27802 237.8251 241.02019 248.06877 253.82587 256.89598 262.87358 267.55967 273.31675 279.50434 286.55293 289.74803 295.2951 305.33619 310.88328 313.95338 320.14097 324.82707 330.37416 333.44425 338.99134 344.96894 355.01 361.6281 367.6057 373.1528 378.6999 385.318 388.3881 394.3657 397.77079 400.84089 406.38798 411.93507 415.13017 418.32527 423.87236 426.94245 433.13005 440.17863 446.79673 449.86683 456.48493 461.17103 467.14863 473.76673 481.0253 486.5724 490.61799 496.16508 499.23518 505.21278 508.61787 511.68797 517.23507 522.78219 525.97726 529.1723 534.7194">(i)all living organisms are composed of cells and products of cells.</tspan><tspan y="-480.481" x="192.24 195.177 198.114 201.051 210.24 216.429 219.6255 222.822 225.4685 231.017 236.56549 239.762 242.9585 248.50699 251.15349 257.3425 262.03 265.2265 270.775 276.3235 278.97 282.3765 287.064 293.043 303.0855 305.73204 312.35154 317.03904 322.58753 326.855 332.4035 338.3825 341.579 347.1275 351.1745 354.371 361.421 367.1795 369.82603 375.3745 380.923 384.1195 387.316 392.8645">(ii)all cells arise from pre-existing cells.</tspan></text>
<text fill="#00aeef" xml:space="preserve" transform="matrix(1 0 -0 1 -18 802.8)" font-size="13" font-family="Bookman,Bold" font-weight="bold"><tspan y="-447.361" x="192.24 200.3414 204.5428 228.24">8.3A</tspan></text>
<text fill="#00aeef" xml:space="preserve" transform="matrix(1 0 -0 1 -18 802.8)" font-size="9.1" font-family="Bookman,Bold" font-weight="bold"><tspan y="-447.361" x="237.6">N</tspan></text>
<text fill="#00aeef" xml:space="preserve" transform="matrix(1 0 -0 1 -18 802.8)" font-size="13" font-family="Bookman,Bold" font-weight="bold"><tspan y="-447.361" x="244.56 248.28189"> O</tspan></text>
<text fill="#00aeef" xml:space="preserve" transform="matrix(1 0 -0 1 -18 802.8)" font-size="9.1" font-family="Bookman,Bold" font-weight="bold"><tspan y="-447.361" x="259.2 265.9388 272.85963 279.78044 286.51924 289.98204 296.90284">VERVIEW</tspan></text>
<text fill="#00aeef" xml:space="preserve" transform="matrix(1 0 -0 1 -18 802.8)" font-size="13" font-family="Bookman,Bold" font-weight="bold"><tspan y="-447.361" x="306"> </tspan></text>
<text fill="#00aeef" xml:space="preserve" transform="matrix(1 0 -0 1 -18 802.8)" font-size="9.1" font-family="Bookman,Bold" font-weight="bold"><tspan y="-447.361" x="309.6 317.3331">OF</tspan></text>
<text fill="#00aeef" xml:space="preserve" transform="matrix(1 0 -0 1 -18 802.8)" font-size="13" font-family="Bookman,Bold" font-weight="bold"><tspan y="-447.361" x="323.52 327.0619"> C</tspan></text>
<text fill="#00aeef" xml:space="preserve" transform="matrix(1 0 -0 1 -18 802.8)" font-size="9.1" font-family="Bookman,Bold" font-weight="bold"><tspan y="-447.361" x="337.2 344.0743 349.8566">ELL</tspan></text>
<text fill="#231f20" xml:space="preserve" transform="matrix(1 0 -0 1 -18 802.8)" font-size="10.5" font-family="Bookman"><tspan y="-420.961" x="192.24 197.28 203.25659 210.51419 213.80469 220.8523 227.0389 232.58499 238.13109 241.42159 246.96768 253.15428 257.8394 261.03349 264.22758 269.77369 274.45878 277.7493 283.7259 290.343 295.8891 301.4352 306.1203 311.6664 317.21253 323.82963 327.12016 332.66627 338.21238 341.40647 344.60057 350.14668 353.4372 356.6313 363.6789 366.96943 373.15605 380.20365 383.49418 389.47077 396.51838 399.71247 405.68907 412.73667 416.0272 422.6443 428.4 433.95338 437.15476 440.45256 446.64643 453.70133 460.3257 466.7296 472.7135 477.40589 480.70368 487.75859 495.02348 505.07087 511.26475 518.31967 521.61746 527.17086 534.2257 539.76 545.38656">You have earlier observed cells in an onion peel and/or human cheek</tspan><tspan y="-406.8" x="192.24 197.5765 202.91301 205.8975 208.882 214.2185 216.563 223.61101 230.449 236.8565 242.19301 246.6685 249.013 252.848 259.686 265.0225 267.36698 277.19749 280.18199 285.51847 289.99397 295.76097 301.09745 306.43394 312.20094 318.60844 323.94493 327.1394 329.4839 335.6709 341.0074 344.84239 347.18687 354.23487 359.57136 361.91584 366.39134 371.7278 377.0643 382.8313 385.8158 388.8003 394.13679 399.47328 403.30827 405.65275 409.48774 416.32575 421.66224 424.64674 429.12223 431.4667 436.8032 440.63819 445.11369 452.16169 457.49818 461.33317 468.38117 472.85667 478.19316 481.38764 483.73213 490.13963 496.97764 502.31413 504.6586 510.4256 517.2636 520.2481 526.01516 532.85317 535.1977 540.5342 545.87069 548.85519">cells under the microscope. Let us recollect their structure. The onion cell</tspan><tspan y="-392.881" x="192.24 200.44622 207.37142 210.44312 215.86682 222.79203 225.22371 228.29541 233.71912 236.1508 242.215 244.64669 248.56888 254.20258 260.69728 263.76896 269.19267 275.25688 278.32856 280.76026 287.25495 290.32664 296.39085 303.31605 307.23826 309.66996 315.09367 320.51737 323.58906 326.66075 329.94245 332.37416 339.29936 345.36357 350.78727 353.21897 359.28318 361.71488 368.20957 371.28126 376.70497 380.62718 383.69886 390.62406 396.04777 399.96998 402.40168 407.82539 413.24909 416.32078 419.39247 421.82417 430.03038 436.09458 439.16627 442.23796 444.66966 450.73387 456.15757 458.58927 461.66096 465.58317 471.00688 473.43858 479.29277 486.42796 490.35017 495.77388 500.33659 502.76829 509.26298 515.1172 522.2524 529.17758 535.67227 541.73648 546.29916">which is a typical plant cell, has a distinct cell wall as its outer boundary</tspan><tspan y="-378.961" x="192.24 198.4281 205.4772 212.09581 215.2976 218.49321 225.7523 231.29991 235.34601 238.5478 246.8779 250.0735 254.1196 261.1687 264.3643 271.4134 274.6152 277.8108 281.8569 285.05873 288.2543 293.8019 297.00373 301.04985 308.09895 313.64656 316.84837 322.39598 327.94358 331.13917 334.33476 337.53657 347.57817 353.12577 363.16737 369.78596 374.47257 380.66069 387.70979 393.2574 396.663 399.8648 406.4834 413.5325 419.0801 422.28193 427.82954 433.37715 436.57273 439.7683 445.31593 448.51774 454.49583 457.90144 461.10325 465.14936 472.19847 477.74607 480.94789 487.99699 495.25608 505.29768 511.48579 518.53488 521.73666 527.28427 534.3333 539.8809 545.4285">and just within it is the cell membrane. The cells of the human cheek</tspan><tspan y="-364.8" x="192.24 199.289 205.47699 211.02448 216.57196 219.45017 225.63816 232.68715 235.56536 241.54335 248.80234 252.84833 258.3958 263.0823 265.9605 276.002 281.5495 291.591 298.2095 302.896 309.08399 316.13298 321.68046 324.55867 330.74665 336.29414 339.17234 343.21833 350.2673 355.8148 358.693 365.3115 370.85899 374.05448 377.24998 387.29148 390.48698 394.53297 397.72846 404.77745 410.5349 413.41313 418.9606 423.0066 427.69309 434.9521 440.49958 444.54557 451.80458 456.49107 462.03855 464.91676 470.89476 474.30024 477.17845 481.22444 488.2734 493.8209 496.6991 502.24659 507.79408 510.98957 514.18508 517.5906 520.4688 524.0843 531.1333 536.6808 539.8763 546.49478">have an outer membrane as the delimiting structure of the cell. Inside</tspan><tspan y="-350.881" x="192.24 197.7868 203.9741 209.5209 216.5692 220.309 225.8558 231.4026 234.5974 237.79219 241.532 244.72679 250.27359 254.0134 260.20069 263.94047 270.55827 276.10508 283.15339 288.7002 294.247 297.9868 308.0276 313.5744 323.6152 330.233 334.9188 341.10609 348.1544 353.7012 357.44099 364.05879 370.03608 377.29438 384.34269 390.96049 394.70027 400.24708 404.29237 408.97816 416.23646 421.78327 425.82856 433.08686 437.77265 443.31947 447.05924 452.60606 458.79335 461.98814 465.18293 470.72975 477.34754 481.0873 488.13563 495.39393 500.94075 504.13554 509.68235 516.9406 522.4874 525.8922 529.632 536.2498 543.2981 546.4929">each cell is a dense membrane bound structure called nucleus. This</tspan><tspan y="-336.961" x="192.24 199.2885 206.547 212.094 215.289 220.836 228.0945 233.6415 236.7965 242.34349 248.32099 255.36948 259.41499 265.60249 268.7975 275.84599 281.39299 284.54798 288.59349 295.64198 301.18898 304.34397 309.89097 316.93946 321.62547 327.60298 337.64399 343.6215 349.1685 355.146 365.187 370.734 376.281 379.436 387.7655 394.814 398.009 403.556 410.6045 413.7595 416.9545 424.003 427.158 431.2035 438.462 443.148 450.1965 453.3515 458.8985 464.876 471.9245 475.97 482.1575 485.3525 492.401 495.556 499.6015 506.65 512.197 515.35208 521.1091 526.65609 533.7046 539.2516 543.29708 546.49209">nucleus contains the chromosomes which in turn contain the genetic</tspan><tspan y="-322.8" x="192.24 202.305 208.51648 212.58597 218.15695 222.86695 226.08594 232.29743 235.51642 238.9454 244.07439 252.63788 260.56089 267.84339 271.27238 276.40135 284.32435 289.89533 293.11433 296.3333 301.9043 307.03327 311.10276 318.17524 324.38673 328.4562 333.58518 340.65766 346.86915 352.44013 358.0111 363.14009 373.20509 378.77607 388.84107 395.48307 400.19306 406.40455 413.47703 419.048 424.17698 430.81898 436.82048 444.10298 451.17546 457.81745 462.9464 470.0189 477.3014 482.87239 486.09138 491.66236 494.88136 500.0103 506.2218 510.9318 516.5028 521.63186 527.2028 533.4143 536.6333 539.8523 545.4233">material, DNA. Cells that have membrane bound nuclei are called</tspan><tspan y="-308.881" x="192.24 197.78769 205.04688 211.66556 217.85375 222.54044 228.29813 234.27632 238.32251 241.5182 247.06589 251.83266 260.16285 267.21205 272.75975 277.4464 282.9941 289.1823 294.73 299.4968 305.0445 310.5922 313.78788 316.98356 322.53126 327.29804 331.34425 338.39344 344.58164 348.62785 353.39463 356.5903 362.7785 368.3262 374.9449 379.71168 385.89988 390.66667 400.70835 406.25605 416.29774 422.9164 427.6031 433.7913 440.84049 446.38819 451.15498 457.77366 463.75184 471.01103 478.0602 484.6789 489.44569 496.49488 503.75407 509.30177 512.49746 518.0451 525.3043 530.852 535.6188 541.80697 546.49368">eukaryotic whereas cells that lack a membrane bound nucleus are</tspan><tspan y="-294.961" x="192.24 198.6768 203.18161 208.9779 215.4147 221.421 225.92581 231.50162 237.29792 241.16222 244.17601 249.54181 252.76561 255.1394 258.5732 265.44053 267.8143 274.2511 280.0474 283.91169 290.779 293.15278 299.58958 304.09437 309.89067 316.32746 322.33375 326.83854 332.41435 338.21064 342.07493 345.0887 350.45454 352.8283 358.8346 365.7019 372.1387 374.51249 379.8783 386.9556 393.3924 399.39869 403.90348 409.47929 415.27558 419.13987 422.15367 427.51948 429.89326 435.25907 440.62489 443.63868 446.65248 452.01829 455.24208 457.61585 463.62214 465.9959 471.36174 476.72755 486.58735 489.60115 493.68595 496.90974 499.92353 507.00083 510.01463 516.4514 518.82528 528.68508 534.69137 538.55569 543.0605 546.0743">prokaryotic. In both prokaryotic and eukaryotic cells, a semi-fluid matrix</tspan><tspan y="-280.8" x="192.24 197.7853 203.97109 207.16437 210.35765 215.90294 222.51923 225.50434 231.04962 236.80492 240.84871 246.8245 253.44078 256.63407 262.81986 268.36515 278.40443 281.38954 287.36534 292.9106 298.4559 305.7127 312.329 315.5223 321.0676 326.61289 329.598 333.64179 340.68858 346.23387 349.21897 354.76426 360.74006 363.93336 371.19013 381.2294 386.7747 389.7598 395.7356 399.1389 402.124 406.1678 413.21458 418.75987 421.74497 427.29026 432.83555 436.02885 439.22215 442.62544 445.61054 452.22685 459.27363 464.8189 467.80403 473.3493 479.10459 483.14839 489.12419 495.74049 498.93379 505.11958 510.66487 520.70419 523.6893 526.88259 532.42788 535.41299 539.4567 546.50357">called cytoplasm occupies the volume of the cell. The cytoplasm is the</tspan><tspan y="-266.881" x="192.24 202.01662 207.93973 210.87033 217.65444 219.94504 225.86815 230.28977 235.57238 242.35648 248.27959 250.57019 256.2833 259.42393 261.71455 266.99717 272.2798 275.2104 278.141 285.1351 288.0657 293.9888 298.4104 300.70103 306.6241 311.90675 315.68785 318.61845 323.90107 326.83168 330.61277 333.54338 338.826 344.1086 346.39924 349.32984 356.11396 358.40458 364.75819 370.47129 374.25239 381.0365 383.32713 387.10823 393.89234 399.17497 401.46559 407.81919 410.7498 416.67289 423.457 427.2381 429.52873 435.4518 442.23594 448.58955 450.88017 456.80326 463.58738 466.51799 476.2946 482.21769 485.1483 487.4389 492.72154 498.00416 500.93476 503.86537 509.14799 512.2886 514.5792 520.56 526.4664 530.8713 533.78518 539.48159 546.459">main arena of cellular activities in both the plant and animal cells. Various</tspan><tspan y="-252.961" x="192.24 197.68462 204.63072 210.07534 220.01395 223.10655 228.55117 234.63628 237.72888 240.18149 244.76509 250.2097 256.2948 261.7394 265.68254 268.77516 274.65028 281.59638 287.041 289.4936 295.3687 300.81333 306.25794 313.41404 317.99766 320.45027 323.54289 330.48899 332.9416 336.0342 339.97734 342.42994 346.37306 352.24818 354.70079 361.2164 366.661 372.10563 378.62126 381.07386 385.01698 391.96308 397.40769 399.8603 405.3049 410.7495 413.84214 416.93476 419.38737 422.47999 429.4261 431.8787 435.8218 442.7679 448.21253 450.66514 452.89674 455.98936 459.08198 464.52659 467.6192 474.5653 480.2199 482.67253 488.11714 492.06025 498.14537 502.08848 507.53309 509.76469">chemical reactions occur in it to keep the cell in the &#x2018;living state&#x2019;.</tspan><tspan y="-238.8" x="210.24 217.86782 223.14362 228.41942 231.34322 237.69002 242.96582 248.24163 250.52542 254.29973 261.07704 266.3528 268.6366 275.4139 282.4012 287.677 290.6008 295.8766 302.8639 308.13969 311.27348 313.55726 317.33155 324.10887 329.38465 331.66844 336.9442 343.93153 350.27833 356.1946 360.6094 366.0952 371.8015 375.5758 378.4996 383.7754 386.05918 391.33497 396.61076 399.53456 402.45835 407.73414 410.0179 416.79524 422.71153 427.9873 433.2631 435.54689 441.25318 445.02748 451.80479 457.08058 461.49537 463.77915 473.54896 478.82475 488.59455 494.94136 499.35615 505.27244 512.04977 517.32559 519.6094 525.9562 531.6625 538.6498 545.42709">Besides the nucleus, the eukaryotic cells have other membrane bound</tspan><tspan y="-224.881" x="192.24 198.62482 201.58663 206.90044 210.71276 213.67456 220.48987 225.80368 229.616 231.9378 237.25162 241.06394 245.51674 252.54206 257.85588 261.66819 268.69349 273.1463 278.4601 283.77394 286.09574 291.40956 297.36387 300.32569 303.2875 308.60133 314.9861">distinct structures called </tspan></text>
<text fill="#231f20" xml:space="preserve" transform="matrix(1 0 -0 1 -18 802.8)" font-size="10.5" font-family="Bookman,Bold" font-weight="bold"><tspan y="-224.881" x="317.28 323.33033 328.12065 333.96095 340.22126 347.32157 352.95188 356.2722 359.5925 365.2228 370.85313">organelles </tspan></text>
<text fill="#231f20" xml:space="preserve" transform="matrix(1 0 -0 1 -18 802.8)" font-size="10.5" font-family="Bookman"><tspan y="-224.881" x="373.44 376.3979 379.35578 385.73667 391.04658 393.36448 397.17289 403.98429 409.2942 411.6121 416.922 423.7334 430.1143 435.85469 442.23558 445.19346 451.14387 456.45378 466.25767 469.21556 474.52546 476.84336 481.29228 486.60218 490.41059 493.36848 498.67839 505.69978 508.65766 515.6791 525.483 527.8009 530.7588 538.2107 545.6626 548.6205">like the endoplasmic reticulum (ER),</tspan><tspan y="-210.961" x="192.24 196.20552 203.17403 208.64104 211.11605 216.79306 222.69057 225.80558 231.48259 234.5976 237.0726 242.53961 248.43712 258.39814 264.93617 268.05119 273.5182 279.4157 282.74073 285.21574 288.33076 294.00776 299.47477 305.37229 310.8393 316.73683 326.6978 332.16484 337.63185 340.95686 343.43186 353.39286 356.50788 360.4734 366.3709 371.83793 378.80644 384.70396 391.67247 398.21049 402.8165 405.93153 412.03904 415.36405 417.83906 427.80006 430.91508 436.38209 440.9881 446.88563 453.42366 459.32118 465.8592 468.9742 474.44123 479.90824 482.38325 488.49076 495.45927 501.99729 504.4723 509.9393 516.0468 521.5138 528.6923 534.58987 537.70486 543.1718 548.6388">the golgi complex, lysosomes, mitochondria, microbodies and vacuoles.</tspan><tspan y="-196.8" x="192.24 198.7839 205.7583 211.2312 213.7121 220.256 224.86789 230.77129 237.31519 243.42859 248.0405 253.7234 259.6268 263.5982 266.71913 272.19203 274.6729 280.1458 285.6187 288.73963 291.86054 297.33345 299.81434 302.93525 309.04866 314.52156 321.06547 323.54637 329.01927 336.20365 341.67655 348.65095 351.13185 361.09873 366.57164 376.5385 383.08244 387.69435 393.80775 400.78215 406.25505 408.73594 415.27986 421.18327 428.36766 435.34205 441.88597 444.36686 450.27027 454.88218 460.56507 466.67848 473.65287 479.12577 482.24668 485.36759 490.84049 496.3134">The prokaryotic cells lack such membrane bound organelles.</tspan><tspan y="-182.881" x="210.24 217.9051 221.0762 227.6703 233.6239 239.147 245.1006 255.1177 260.6408 266.1639 268.695 274.8586 279.52073 285.04383 287.57493 294.59953 300.55314 307.57774 311.81983 321.8369 327.36003 337.3771 343.9712 348.6333 354.7969 361.8215 367.3446 369.8757 376.4698 382.4234 389.658 396.6826 403.27668 405.80778 411.76139 416.4235 422.1566 428.3202 435.3448 440.8679 444.039 447.2101 452.73323 458.25633 460.7874 464.16853 470.12214 477.35673 484.38133 490.9754 493.5065 496.6776 503.7022 506.2333 512.3969 515.568 518.7391 521.2702 526.7933 532.31637 535.4874 538.6585 544.1816 546.7127">Ribosomes are non-membrane bound organelles found in all cells &#x2013;</tspan><tspan y="-168.961" x="192.24 198.8572 204.83388 208.87857 215.92626 219.23044 224.77663 232.03432 238.6515 244.8382 249.52339 255.27959 261.2563 265.30097 268.49516 274.04136 277.34556 283.53224 289.07844 292.3826 300.7113 306.2575 309.4517 312.64588 315.95005 322.13673 327.68293 330.9871 337.60429 342.28947 348.26615 354.88334 361.07 365.7552 371.51139 377.48808 381.53276 384.72694 390.27314 393.6773 396.98149 407.23167 410.42585 414.47053 421.51823 424.7124 431.7601 435.0643 439.10899 446.15669 451.70289 455.00706 460.55326 466.09947 469.29365 472.48783 475.89204 479.1962 483.88139 487.07557 493.69276 499.66944 505.21565 511.19233 521.2325 526.7787 532.3249 535.6291 541.8158 546.501">both eukaryotic as well as prokaryotic. Within the cell, ribosomes are</tspan><tspan y="-154.8" x="192.24 195.6426 201.61768 208.87377 215.91986 222.53545 226.37554 233.42163 239.39673 243.43982 247.2799 253.255 260.3011 263.49369 269.24827 273.08836 276.28096 283.32704 287.1671 291.2102 298.2563 303.80088 307.64097 313.18556 318.94013 322.98323 328.9583 335.5739 338.7665 344.9516 350.4962 360.5348 364.37489 370.99049 378.24659 382.28968 386.12977 392.31486 395.50746 401.05204 407.02714 410.86723 419.1943 422.3869 426.43 433.47608 436.66868 443.71476 447.55485 451.59794 458.644 464.1886 468.0287 472.07179 480.39888 486.37397 490.21406 496.18916 500.87275 506.62733 512.81246 519.8585 525.40316 528.5957 531.78829 537.3329 542.8775 546.7176">found not only in the cytoplasm but also within the two organelles &#x2013;</tspan><tspan y="-140.881" x="192.24 197.7109 204.6833 207.8022 213.7036 218.31349 224.21489 230.75679 233.87569 239.98709 245.458 249.4274 254.8983 257.3772 260.4961 263.615 270.5874 273.06629 279.6082 282.72709 288.83848 295.81089 299.78028 305.25117 308.37007 310.84895 316.96034 323.93275 330.47465 332.95353 342.91844 346.03733 350.0067 355.9081 361.379 368.3514 374.2528 381.22523 387.76713 392.377 395.4959 401.6073 404.08619 410.19758 417.16999 423.71189 426.19078 432.09217 439.06459 441.54347 446.15336 452.05476 459.23716 464.91807 471.89048 474.36936 481.98228 489.59519">chloroplasts (in plants) and mitochondria and on rough ER.</tspan><tspan y="-126.961" x="210.24 217.39311 224.33621 227.42581 237.36142 243.44353 246.53313 248.98273 254.42433 259.86595 262.95555 266.04515 271.48674 273.9363 279.3779 285.25 292.1931 296.1332 302.2153 305.3049 312.248 314.69758 320.77967 327.72279 333.59489 337.53498 344.4781 349.91969 354.50028 356.94987 363.89295 369.76506 376.70814 380.86875 390.80436 396.24595 406.18156 412.69416 417.27476 423.35685 430.29994 435.74153 438.1911 444.7037 450.5758 457.7289 464.672 471.1846 473.6342 479.5063 484.08689 489.7385 495.8206 502.76368 508.20527 511.29487 514.38449 519.82608 522.2757 527.7173 533.7994 536.889 539.9786 545.42019">Animal cells contain another non-membrane bound organelle called</tspan><tspan y="-112.8" x="192.24 197.6513 203.0626 209.9754 213.88521 218.4355 224.2773 229.6886 235.5304 245.4357 250.847 253.2663 261.46009 268.3729 271.4322 276.84349 283.7563 286.17558 293.08839 298.49967 301.55897 308.04127 313.45256 315.87184 318.93113 325.84394 328.2632 333.6745 339.0858 342.14509 345.20439 347.62367 354.10597 357.16526 362.57655 365.63584 371.04713 374.1064 379.9482 386.86103">centrosome which helps in cell division.</tspan><tspan y="-98.881" x="210.24 217.77942 222.96683 225.80223 228.63764 233.82505 236.02045 242.27886 245.11426 248.15967 251.20508 256.3925 260.7189 262.9143 268.3117 272.63813 277.82554 283.65345 287.33937 290.17478 295.57218 297.76759 300.603 307.2919 309.4873 314.6747 317.51014 322.26704 327.45445 330.49986 332.69526 337.88267 344.57157 350.39949 356.6579 361.8453 364.0407 369.86863 376.55754 382.81596 385.01136 390.83927 396.02668 399.7126 402.548 407.7354 410.57084 414.25675 417.09217 422.27958 427.46699 429.66239 432.4978 438.96623 441.80165 447.19905 454.09797 458.42439 463.6118 465.8072 472.0656 475.11103 481.36946 484.20487 487.25028 489.44569 495.9141 501.532 505.85844 508.05384 513.2413 518.8592 524.6871 534.36849 540.6269 543.4623 548.6497">Cells differ greatly in size, shape and activities (Figure 8.1). For example,</tspan><tspan y="-84.961" x="192.24 201.90702 207.51053 212.90404 218.72805 225.19255 228.23406 234.26807 239.66158 249.54909 255.5831 260.97663 264.22813 266.6296 270.5216 277.41664 282.81016 285.21165 290.60517 300.49269 306.52668 309.56819 312.60969 318.0032 323.39674 327.28874 329.69023 335.08375 340.47727 343.51878 346.56028 351.9538 355.2053 357.60679 363.64079 368.17329 373.5668 375.9683 381.7923 388.68733 391.72883 397.33235 399.73384 405.36 408.5987 415.0504">Mycoplasmas, the smallest cells, are only 0.3 </tspan></text>
<text fill="#231f20" xml:space="preserve" transform="matrix(1 0 -0 1 -18 802.8)" font-size="10.5" font-family="Symbol"><tspan y="-84.961" x="417.36">m</tspan></text>
<text fill="#231f20" xml:space="preserve" transform="matrix(1 0 -0 1 -18 802.8)" font-size="10.5" font-family="Bookman"><tspan y="-84.961" x="423.36 433.24839 435.6508 438.6932 445.5891 447.99153 451.03395 456.42835 463.32426 468.92866 472.82157 479.71748 482.11988 490.29679 497.1927 500.2351 503.27754 508.67195 511.07435 517.53976 523.57467 528.96908 532.86196 538.25637 542.78976 545.83218">m in length while bacteria</tspan></text>
<g clip-path="url(#clip_16)">
<text xml:space="preserve" transform="matrix(1 0 -0 1 259.314 763.9998)" font-size="8" font-family="Arial"><tspan y="6.316" x="0"> </tspan></text>
</g>
</g>
</svg>
