<svg xmlns="http://www.w3.org/2000/svg" xmlns:xlink="http://www.w3.org/1999/xlink" xmlns:inkscape="http://www.inkscape.org/namespaces/inkscape" version="1.1" width="576" height="784.8" viewBox="0 0 576 784.8">
<defs>
<clipPath id="clip_3385">
<path transform="matrix(1,0,0,-1,-18,802.8)" d="M18 18H594V802.8H18Z" clip-rule="evenodd"/>
</clipPath>
<clipPath id="clip_3386">
<path transform="matrix(1,0,0,-1,259.314,763.9998)" d="M0-8H57.372V.800049H0Z"/>
</clipPath>
</defs>
<g clip-path="url(#clip_3385)">
<path transform="matrix(.23999998,0,0,-.23999998,-18,802.8)" d="M2 2H2548V214.67H2Z" fill="#cbdf7f" fill-rule="evenodd"/>
<path transform="matrix(.23999998,0,0,-.23999998,-18,802.8)" stroke-width="4" stroke-linecap="butt" stroke-miterlimit="1000" stroke-linejoin="miter" fill="none" stroke="#cbdf7f" d="M2 2H2548V214.67H2Z"/>
<path transform="matrix(.23999998,0,0,-.23999998,-18,802.8)" d="M0 3035.83H2550V3372.7003H0Z" fill="#d1d3d4" fill-rule="evenodd"/>
<path transform="matrix(.23999998,0,0,-.23999998,-18,802.8)" d="M0 3078.33H2550V3420H0Z" fill="#e1ecb6" fill-rule="evenodd"/>
<path transform="matrix(.23999998,0,0,-.23999998,62.63616,53.635194)" d="M0 0C7.32 7.32 16.16 10.98 26.52 10.98H97.35C107.71 10.98 116.55 7.32 123.87 0 131.19-7.33 134.85-16.17 134.85-26.52V-101.52C134.85-111.88 131.19-120.72 123.87-128.04 116.55-135.36 107.71-139.02 97.35-139.02H26.52C16.16-139.02 7.32-135.36 0-128.04-7.32-120.72-10.98-111.88-10.98-101.52V-26.52C-10.98-16.17-7.32-7.33 0 0" fill="#ffffff" fill-rule="evenodd"/>
<text fill="#231f20" xml:space="preserve" transform="matrix(1 0 -0 1 -18 802.8)" font-size="11" font-family="Bookman"><tspan y="-729.361" x="87.12 94.409999 101.69999">180</tspan></text>
<text fill="#231f20" xml:space="preserve" transform="matrix(1 0 -0 1 -18 802.8)" font-size="11" font-family="Bookman"><tspan y="-729.361" x="513.12">B</tspan></text>
<text fill="#231f20" xml:space="preserve" transform="matrix(1 0 -0 1 -18 802.8)" font-size="7.69999" font-family="Bookman"><tspan y="-729.361" x="521.04 523.4336 529.3692 533.76486 539.70046 545.63607">IOLOGY</tspan></text>
<path transform="matrix(.23999998,0,0,-.23999998,-18,.35998536)" stroke-width="1" stroke-linecap="butt" stroke-miterlimit="10" stroke-linejoin="miter" fill="none" stroke="#000000" d="M0 0H60"/>
<path transform="matrix(.23999998,0,0,-.23999998,.12000084,-18)" stroke-width="1" stroke-linecap="butt" stroke-miterlimit="10" stroke-linejoin="miter" fill="none" stroke="#000000" d="M0 0V-60"/>
<path transform="matrix(.23999998,0,0,-.23999998,-18,784.68)" stroke-width="1" stroke-linecap="butt" stroke-miterlimit="10" stroke-linejoin="miter" fill="none" stroke="#000000" d="M0 0H60"/>
<path transform="matrix(.23999998,0,0,-.23999998,.12000084,788.16)" stroke-width="1" stroke-linecap="butt" stroke-miterlimit="10" stroke-linejoin="miter" fill="none" stroke="#000000" d="M0 0V-60"/>
<path transform="matrix(.23999998,0,0,-.23999998,593.64,784.56)" stroke-width="1" stroke-linecap="butt" stroke-miterlimit="10" stroke-linejoin="miter" fill="none" stroke="#000000" d="M0 0V-75"/>
<text fill="#231f20" xml:space="preserve" transform="matrix(1 0 -0 1 -18 802.8)" font-size="10" font-family="Bookman"><tspan y="-688.561" x="193.68 199.52051 205.36103 220.56 230.1603 236.76059 242.56089 246.36118 248.92818 256.7285 262.3288 269.1291 272.1294 278.32969 280.89668 287.09696 292.29725 294.86424 300.0645 305.66484 311.8651 317.0654 322.2657 326.06599 331.26628 337.46656 340.03355 343.83384 349.43415 352.00114 358.60145 364.40174 370.60203 376.8023 382.0026 388.6029 391.1699 394.1702 397.37049">10.What would be expected to happen if:</tspan><tspan y="-674.4" x="220.56 223.5643 229.3686 232.37291 235.2772 243.28151">(a) GA</tspan></text>
<text fill="#231f20" xml:space="preserve" transform="matrix(1 0 -0 1 -18 802.8)" font-size="5.8" font-family="Bookman"><tspan y="-671.041" x="250.08">3</tspan></text>
<text fill="#231f20" xml:space="preserve" transform="matrix(1 0 -0 1 -18 802.8)" font-size="10" font-family="Bookman"><tspan y="-674.4" x="253.68 256.5575 259.555 264.7525 267.63 273.4275 279.625 285.8225 288.82 291.8175 297.015 303.21253 306.09004 309.8875 315.48503 318.36253 322.76 325.7575 330.95503 336.15254 339.03004 344.22755 349.42506 354.62257 360.82008 363.81758 366.81507 373.41258 378.81007"> is applied to rice seedlings</tspan><tspan y="-660.481" x="220.56 223.5618 229.7636 232.7654 235.49219 241.69399 244.69579 249.89759 252.89939 259.1012 262.103 268.7048 274.1066 276.8334 282.03523 287.23704 290.23884 293.24064 298.44245 301.16926 306.37107 310.17286 315.77467 321.97648 324.70329 330.9051 333.9069 337.1087 340.31053 345.51234 349.91413 355.11595 361.71775 365.51954 368.52134 374.32313 378.1249 381.1267 387.72853">(b) dividing cells stop differentiating</tspan><tspan y="-646.561" x="220.56 223.5577 228.7554 231.7531 234.57579 240.37349 243.19618 247.59389 253.19159 256.9893 260.787 265.98469 272.58238 275.40507 278.60276 283.00047 289.79817 292.79588 296.59358 299.41627 304.81398 310.01167 313.80937 319.00706 321.82975 331.22746 334.22517 339.82286 345.02055 351.21824 354.04093 361.83863 364.83634 368.63404 375.23173 378.0544 384.8521 391.4498 395.8475 398.8452 405.0429 410.2406 413.0633 416.261 420.6587 427.4564 430.4541 434.2518">(c) a rotten fruit gets mixed with unripe fruits</tspan><tspan y="-632.4" x="220.56 223.5609 229.7618 232.7627 235.34691 240.7478 246.34871 253.14962 255.73384 258.93476 264.53565 268.93656 274.33747 279.53837 283.33927 285.92347 289.72438 295.32527 297.90946 303.71037 309.91127 316.11216 318.69636 323.89726 329.29817 333.09907 338.69996 344.90086 347.90174 354.50263 357.5035 364.1044 366.6886 370.4895 376.0904 378.6746 382.4755 389.0764 394.27729 396.86149 402.06239 408.86329 411.86418 415.66508 422.46598 426.86689 432.06779 434.65199 444.0529 449.25379 455.45469 458.45558 465.25648 474.65739">(d) you forget to add cytokinin to the culture medium.</tspan></text>
<g clip-path="url(#clip_3386)">
<text xml:space="preserve" transform="matrix(1 0 -0 1 259.314 763.9998)" font-size="8" font-family="Arial"><tspan y="6.316" x="0"> </tspan></text>
</g>
</g>
</svg>
