<svg xmlns="http://www.w3.org/2000/svg" xmlns:xlink="http://www.w3.org/1999/xlink" xmlns:inkscape="http://www.inkscape.org/namespaces/inkscape" version="1.1" width="576" height="784.8" viewBox="0 0 576 784.8">
<defs>
<clipPath id="clip_1780">
<path transform="matrix(1,0,0,-1,-18,802.8)" d="M18 18H594V802.8H18Z" clip-rule="evenodd"/>
</clipPath>
<clipPath id="clip_1781">
<path transform="matrix(1,0,0,-1,259.314,763.99978)" d="M0-8H57.372V.800049H0Z"/>
</clipPath>
</defs>
<g clip-path="url(#clip_1780)">
<path transform="matrix(.24,0,0,-.24,-18,802.8)" d="M0 3035.83H2550V3372.7003H0Z" fill="#d1d3d4" fill-rule="evenodd"/>
<path transform="matrix(.24,0,0,-.24,-18,802.8)" d="M0 3078.33H2550V3420H0Z" fill="#e1ecb6" fill-rule="evenodd"/>
<path transform="matrix(.24,0,0,-.24,-18,802.8)" d="M2 2H2548V214.67H2Z" fill="#cbdf7f" fill-rule="evenodd"/>
<path transform="matrix(.24,0,0,-.24,-18,802.8)" stroke-width="4" stroke-linecap="butt" stroke-miterlimit="1000" stroke-linejoin="miter" fill="none" stroke="#cbdf7f" d="M2 2H2548V214.67H2Z"/>
<text fill="#231f20" xml:space="preserve" transform="matrix(1 0 -0 1 -18 802.8)" font-size="11" font-family="Bookman"><tspan y="-730.081" x="84">B</tspan></text>
<text fill="#231f20" xml:space="preserve" transform="matrix(1 0 -0 1 -18 802.8)" font-size="7.69999" font-family="Bookman"><tspan y="-730.081" x="92.16 94.60841 100.66811 105.15702 111.21672 117.27642 119.72483 125.314838 130.43514">IOLOGICAL</tspan></text>
<text fill="#231f20" xml:space="preserve" transform="matrix(1 0 -0 1 -18 802.8)" font-size="11" font-family="Bookman"><tspan y="-730.081" x="134.64 137.16902"> C</tspan></text>
<text fill="#231f20" xml:space="preserve" transform="matrix(1 0 -0 1 -18 802.8)" font-size="7.69999" font-family="Bookman"><tspan y="-730.081" x="145.2 149.6808 154.793 159.7512 164.70941 167.14972 171.94623 174.38654 179.96845 185.08065 189.72315 192.16345 198.21506">LASSIFICATION</tspan></text>
<path transform="matrix(.24,0,0,-.24,482.635,53.63501)" d="M0 0C7.32 7.32 16.16 10.98 26.52 10.98H97.35C107.71 10.98 116.55 7.32 123.87 0 131.19-7.32 134.85-16.16 134.85-26.52V-101.52C134.85-111.88 131.19-120.72 123.87-128.04 116.55-135.36 107.71-139.02 97.35-139.02H26.52C16.16-139.02 7.32-135.36 0-128.04-7.32-120.72-10.98-111.88-10.98-101.52V-26.52C-10.98-16.16-7.32-7.32 0 0" fill="#ffffff" fill-rule="evenodd"/>
<text fill="#231f20" xml:space="preserve" transform="matrix(1 0 -0 1 -18 802.8)" font-size="11" font-family="Bookman,Bold" font-weight="bold"><tspan y="-729.361" x="505.92 513.06">19</tspan></text>
<path transform="matrix(.24,0,0,-.24,579.6,.11999512)" stroke-width="1" stroke-linecap="butt" stroke-miterlimit="10" stroke-linejoin="miter" fill="none" stroke="#000000" d="M0 0H60"/>
<path transform="matrix(.24,0,0,-.24,576.12,-18)" stroke-width="1" stroke-linecap="butt" stroke-miterlimit="10" stroke-linejoin="miter" fill="none" stroke="#000000" d="M0 0V-60"/>
<path transform="matrix(.24,0,0,-.24,579.6,784.44)" stroke-width="1" stroke-linecap="butt" stroke-miterlimit="10" stroke-linejoin="miter" fill="none" stroke="#000000" d="M0 0H60"/>
<path transform="matrix(.24,0,0,-.24,576.12,788.16)" stroke-width="1" stroke-linecap="butt" stroke-miterlimit="10" stroke-linejoin="miter" fill="none" stroke="#000000" d="M0 0V-59"/>
<path transform="matrix(.24,0,0,-.24,-17.88,-18.23999)" stroke-width="1" stroke-linecap="butt" stroke-miterlimit="10" stroke-linejoin="miter" fill="none" stroke="#000000" d="M0 0V-75"/>
<text fill="#00aeef" xml:space="preserve" transform="matrix(1 0 -0 1 -18 802.8)" font-size="13" font-family="Bookman,Bold" font-weight="bold"><tspan y="-688.561" x="60 68.4614 73.022808 94.56">2.4K</tspan></text>
<text fill="#00aeef" xml:space="preserve" transform="matrix(1 0 -0 1 -18 802.8)" font-size="9.1" font-family="Bookman,Bold" font-weight="bold"><tspan y="-688.561" x="104.399997 107.813709 114.86742 122.467128 130.06684 137.66655">INGDOM</tspan></text>
<text fill="#00aeef" xml:space="preserve" transform="matrix(1 0 -0 1 -18 802.8)" font-size="13" font-family="Bookman,Bold" font-weight="bold"><tspan y="-688.561" x="146.4 149.82181"> P</tspan></text>
<text fill="#00aeef" xml:space="preserve" transform="matrix(1 0 -0 1 -18 802.8)" font-size="9.1" font-family="Bookman,Bold" font-weight="bold"><tspan y="-688.561" x="158.4 164.1629 170.65381 177.69072 183.63564 190.12654">LANTAE</tspan></text>
<text fill="#231f20" xml:space="preserve" transform="matrix(1 0 -0 1 -18 802.8)" font-size="10.5" font-family="Bookman"><tspan y="-662.39999" x="59.999994 68.87999 72.39588 79.765277 85.84316 92.78205 99.080448 109.44234 114.86822 121.807109 125.323 131.83139 139.20078 143.56717 150.07556 155.94345 161.36934 164.88523 172.25461 178.1225 181.63838 189.21778 196.15666 202.02455 207.89244 213.31833 219.82672 223.3426 226.85849 232.28438 238.15227 245.73166 252.67055 259.17893 264.18583 270.2637 276.5621 280.9285 284.4444 290.3123 295.73817 301.60606 308.97544 312.49134 318.78974 323.79664 330.09504 337.03395 344.40333 350.4812 353.9971 357.513 362.09989 367.96778 374.26618 381.63557 386.00196 392.51036 396.02626 403.39564 406.91154 414.2809">Kingdom Plantae includes all eukaryotic chlorophyll-containing</tspan><tspan y="-648.48098" x="59.99999 66.19809 71.10469 77.08229 83.490398 90.75949 94.175098 99.942699 110.2043 115.9719 121.29749 127.065097 133.2632 143.5248 153.78639 159.9845 167.2536 170.6692 176.6468 181.9724 187.73999 194.14809 197.56369 200.9793 206.74689 213.5855 218.91109 225.7497 229.1653 235.5734 242.8425 247.1086 252.87619 256.5018 261.8274 269.3065 274.63209 278.2577 284.0253 292.5754 297.901 308.1626 313.9302 324.1918 331.0304 336.798 341.7046 347.4722 352.7978 359.2059 364.1125 369.8801 375.2057 382.04429 388.4524 393.35899 397.6251 401.04069 407.4488 410.86439 414.27998">organisms commonly called plants. A few members are partially</tspan><tspan y="-634.561" x="59.99999 66.88909 72.27669 76.16279 81.550388 86.07698 91.89508 95.78118 100.307788 106.125888 112.58449 119.47359 122.509189 127.89679 130.29239 135.68 142.7791 148.1667 155.0558 157.4514 163.4795 168.86711 171.26271 175.1488 182.0379 187.4255 189.8211 192.8567 199.7458 205.1334 210.52101 215.90862 219.79471 222.8303 228.21791 234.03601 238.5626 244.3807 251.47982 256.8674 259.263 265.7216 268.7572 274.7853 281.6744 285.56053 290.94813 293.34373 299.1618 303.68843 306.084 312.5426 318.5707 323.09733 329.12544 334.51304 337.54866 341.43476 346.82237 352.20997 355.45558 357.85118 365.59077 368.62638 374.65449 381.11308 387.57167 392.95927 397.48588 405.65599 411.47407 416.00068">heterotrophic such as the insectivorous plants or parasites. Bladderwort</tspan><tspan y="-620.39999" x="59.99999 66.0396 72.94021 79.41032 81.81743 87.83999 93.2461 100.15371 107.27132 112.67743 115.09154 118.355648 121.40975 127.02586 129.43997 133.34459 137.8897 143.93631 150.41342 152.82753 158.87415 163.41925 168.82537 171.23947 176.64559 182.4822 188.52881 198.42893 204.90604 207.96015 213.36626 218.77237 221.18648 227.02309 230.2872 232.70131 235.75542 242.66303 248.06914 253.47525 258.88136 262.78596 265.84007 271.24617 277.08277 281.62788 287.46449 294.5821 299.9882 302.40229 308.8794 311.9335 317.9801 324.88774 328.79234 334.19844 336.61253 342.65913 349.56675 356.04386">and Venus fly trap are examples of insectivorous plants and </tspan></text>
<text fill="#231f20" xml:space="preserve" transform="matrix(1 0 -0 1 -18 802.8)" font-size="10.5" font-family="Bookman,Italic" font-style="italic"><tspan y="-620.39999" x="358.56 366.19563 373.20124 378.52687 383.85249 390.8581 394.7137">Cuscuta</tspan></text>
<text fill="#231f20" xml:space="preserve" transform="matrix(1 0 -0 1 -18 802.8)" font-size="10.5" font-family="Bookman"><tspan y="-620.39999" x="400.56 402.9668 406.0136 411.4124 413.8192"> is a</tspan><tspan y="-606.48098" x="60 66.61959 72.808689 77.49628 83.68536 89.233959 92.43054 96.47763 102.02622 105.432819 108.47272 115.09231 122.142398 127.69099 130.7309 137.3505 140.54709 146.73618 153.78627 157.83336 160.87326 166.42185 171.97043 175.16703 178.36362 183.9122 186.9521 194.0022 200.19129 205.73987 211.28845 214.32836 220.51744 227.56754 230.60744 236.15602 243.4161 250.0357 256.2248 260.91239 266.67097 272.65007 276.69715 279.89375 285.44233 288.4822 294.0308 298.07789 302.76548 310.02558 315.57417 319.62126 326.88136 331.56895 337.11753 340.1574 348.4885 351.6851 355.73219 362.78227 365.82215 372.44175 377.12934 383.10844 393.15104 396.34764 403.3977 408.9463 415.99638">parasite. The plant cells have an eukaryotic structure with prominent</tspan><tspan y="-592.561" x="60 65.5463 72.5941 75.7884 81.7652 86.4505 92.4273 99.0446 102.2389 108.4257 113.972 118.0168 123.5631 126.699199 132.886 139.9338 146.5511 149.6872 155.23349 160.77979 163.97409 167.1684 170.30449 178.63329 184.82009 188.01439 191.2087 194.34479 204.38509 210.57189 213.76619 220.814 224.0083 229.7646 232.9007 242.941 249.12779 255.74509 261.29139 264.4275 270.4043 273.8086 276.9447 282.491 288.0373 291.2316 294.4259 301.68373 304.87803 310.85484 316.40113 321.94743 325.3517 328.48783 333.6 339.5766 346.8342 349.97013 358.29875 361.49284 364.68693 367.881 371.01695 376.56306 380.60765 387.86524 394.48234 400.23844 403.37437 407.41896 414.46656">chloroplasts and cell wall mainly made of cellulose. You will study the</tspan><tspan y="-578.39999" x="60 65.5356 72.7827 79.3893 85.5654 90.24 95.985599 101.9517 105.9858 109.1694 114.705 117.248607 122.7842 128.31981 131.5034 134.687 137.23059 142.76619 146.8003 151.4749 158.722 164.2576 168.2917 175.5388 180.21341 185.74901 188.2926 191.4762 198.51329 201.05689 207.66349 213.19908 217.23319 223.40929 226.59288 229.77648 232.32007 235.50366 242.54076 245.08435 252.97196 260.00907 266.18516 272.79176 276.82585 282.36146 287.03605 289.57963 296.18623 299.5798 302.12339 308.72999 311.91358 318.08967 325.12678 329.16087 335.33695 340.87257 343.41615 346.59974 353.63685 359.17247 362.35606 369.60316 376.20976 381.74537 387.28099 389.82456 396.00065 399.18424 404.92985 411.10594 416.64155">eukaryotic cell structure in detail in Chapter 8. Plantae includes algae,</tspan><tspan y="-564.48098" x="60 66.526508 71.121 76.7865 82.6725 89.199008 96.156009 101.8215 105.775508 111.231 116.6865 120 122.4635 128.99 132.944 138.3995 142.994 146.0975 152.62401 158.51001 165.03652 171.99352 177.65901 181.613 187.06851 192.52402 195.83753 198.30103 203.96652 209.63202 219.58152 226.53852 232.42452 237.88002 244.40653 249.86203 254.45653 264.40605 269.86155 272.32505 278.42106 285.37806 291.90455 294.36805 300.46406 307.42106 313.08656 316.19004 322.07603 327.53153 334.058 339.51353 344.10804 354.05754 359.51304">bryophytes, pteridophytes, gymnosperms and angiosperms.</tspan><tspan y="-550.561" x="78 84.3469 87.4913 90.8457 96.3421 98.846508 104.3429 110.0493 115.5457 118.6901 124.1865 126.6909 132.6178 135.9722 138.4766 145.04399 148.18839 154.32529 161.32318 165.31809 170.81449 173.31888 180.31678 186.45368 191.95008 194.45447 198.44937 206.72827 212.65517 215.15956 221.72696 224.87136 230.36775 234.36266 237.50705 244.50495 250.00135 253.99625 256.50065 263.06806 270.06596 276.20286 281.69926 287.19566 292.69206 295.19645 300.47236 302.97676 306.97166 313.96955 319.46595 321.97035 328.53776 331.68217 338.24958 341.39399 347.3209 350.4653 357.0327 359.5371 365.0335 371.60093 377.52784 382.16325 388.09016 394.65757 401.65547 407.36186 411.35676 414.50117">Life cycle of plants has two distinct phases &#x2013; the diploid sporophytic</tspan><tspan y="-536.39999" x="60 65.91401 72.68902 79.03353 81.31504 85.08705 91.86206 97.135578 99.41708 106.19209 112.1061 118.450618 121.37212 127.07613 129.99765 136.34217 138.62368 144.10718 150.0212 159.78871 165.06223 168.83423 174.53824 180.88275 187.65776 193.14127 196.91327 199.83478 205.10829 207.3898 212.44281 214.72432 218.49633 225.27133 231.18535 234.95735 237.23886 243.15288 246.07439 249.84639 255.1199 259.5324 266.30744 272.22145 275.99345 281.26695 283.54844 291.60444 294.52595 298.29795 305.07298 307.35447 312.62797 318.54197 323.81547 330.59049 332.87199 338.576 342.348 349.12303 354.3965 357.36 360.4928 362.7756 369.12144 375.89775 381.17256 383.45536 386.37818 391.65299 398.4293 403.9141 407.6874 414.4637">and the haploid gametophytic &#x2013; that alternate with each other. The lengths</tspan><tspan y="-522.48098" x="60 65.9766 69.3807 72.36211 76.40671 83.45431 89.000408 91.98181 99.02941 105.21601 111.833118 115.027217 121.003818 124.197917 130.81502 133.79644 139.98303 147.03064 153.64774 156.62915 163.24625 166.44036 173.05745 176.25156 182.22815 185.42226 192.03936 195.02077 201.63787 208.68546 214.87206 220.41815 225.96425 231.51035 234.91445 237.89586 244.08246 251.13007 257.74717 260.72859 269.0572 276.1048 281.6509 285.6955 292.7431 298.2892 302.9743 305.95573 310.0003 317.0479 322.59403 328.14015 333.68626 336.66767 343.28477 350.33238 356.51899 362.0651 367.6112 373.15733 376.13874 382.32536 387.01045 392.55656 395.53797 398.94209 403.62718 409.17329 414.7194">of the haploid and diploid phases, and whether these phases are free&#x2013;</tspan><tspan y="-508.56095" x="60 63.1936 66.3872 71.9328 75.1264 82.1735 87.9291 91.40769 97.38379 102.06839 105.54698 112.16358 117.70918 124.32578 129.87139 136.91849 143.5351 149.08069 156.12779 160.17189 163.65048 169.62659 176.67369 180.15229 186.12839 190.17249 197.21959 202.76519 207.44979 212.99538 216.39897 219.87757 225.42316 231.60926 236.29386 242.04946 245.52805 251.71414 261.75376 267.72987 274.77696 280.53254 284.0111 290.62773 293.82133 297.2249 300.6285 306.1741 310.8587 316.4043 323.4514 327.49549 330.97407 336.72969 341.41429 347.39039 354.6475 361.2641 366.8097 370.28828 373.48188 380.52897 384.00755 390.62416 393.81776 400.00386 407.05094 411.09504 416.64064">living or dependent on others, vary among different groups in plants.</tspan><tspan y="-494.39994" x="60 66.6159 73.6623 76.8552 82.4001 85.2405 91.8564 98.9028 104.4477 111.4941 117.469509 127.50841 133.05332 140.09972 146.07512 153.12152 155.96192 159.15482 164.69972 167.54012 173.08502 179.27042 182.46332 185.65622 191.20113 197.81703">This phenomenon is called </tspan></text>
<text fill="#231f20" xml:space="preserve" transform="matrix(1 0 -0 1 -18 802.8)" font-size="10.5" font-family="Bookman,Bold" font-weight="bold"><tspan y="-494.39994" x="200.64 207.15459 210.72917 215.14377 221.02835 226.07294 233.42752 239.94211 244.3567 247.93129 254.23589 261.59049 264.75007 271.05467 274.83924 277.9988 284.0934 289.978 297.33259 303.21717 308.26176 314.77635 319.19093 322.7655 329.0701 336.42469 342.30928">alternation of generations.</tspan></text>
<text fill="#231f20" xml:space="preserve" transform="matrix(1 0 -0 1 -18 802.8)" font-size="10.5" font-family="Bookman"><tspan y="-494.39994" x="346.08003 348.85664 354.00004 359.97404 367.22904 370.06385 378.38984 381.58134 384.77284 387.96434 390.79914 396.34263 400.3846 407.63963 414.25413"> You will study</tspan><tspan y="-480.48094" x="60.00003 63.31863 70.49073 75.09033 79.04943 86.01153 91.47213 96.07173 98.54034 105.07194 110.53254 114.49164 120.59274 123.70134 126.80994 132.27054 134.73914 140.63024 143.94884 146.41744 150.37654 157.33864 160.44724 165.90784 168.37644 174.90804 178.01663 184.97873 190.64933 197.18093 203.07202 213.02663 215.49523 218.60382 225.56592 228.03452 235.84712 242.80922 248.91033 255.44193 259.40104 264.86164 272.16004 278.59974">further details of this kingdom in Chapter3.</tspan></text>
<text fill="#00aeef" xml:space="preserve" transform="matrix(1 0 -0 1 -18 802.8)" font-size="13" font-family="Bookman,Bold" font-weight="bold"><tspan y="-448.5609" x="60.00003 68.46143 73.022838 94.32003">2.5K</tspan></text>
<text fill="#00aeef" xml:space="preserve" transform="matrix(1 0 -0 1 -18 802.8)" font-size="9.1" font-family="Bookman,Bold" font-weight="bold"><tspan y="-448.5609" x="104.160037 107.525737 114.53143 122.08313 129.63483 137.18653">INGDOM</tspan></text>
<text fill="#00aeef" xml:space="preserve" transform="matrix(1 0 -0 1 -18 802.8)" font-size="13" font-family="Bookman,Bold" font-weight="bold"><tspan y="-448.5609" x="145.92003 149.28185"> A</tspan></text>
<text fill="#00aeef" xml:space="preserve" transform="matrix(1 0 -0 1 -18 802.8)" font-size="9.1" font-family="Bookman,Bold" font-weight="bold"><tspan y="-448.5609" x="158.40003 165.39223 168.74443 177.37464 183.82083 189.53903 192.89124">NIMALIA</tspan></text>
<text fill="#231f20" xml:space="preserve" transform="matrix(1 0 -0 1 -18 802.8)" font-size="10.5" font-family="Bookman"><tspan y="-422.3999" x="60.000024 66.61752 73.66552 76.86002 82.406528 85.56824 92.18574 95.38024 102.42824 108.18474 114.80224 120.779239 130.81974 133.98145 137.17595 142.72245 145.88416 151.43065 158.47866 164.66565 169.35115 175.53815 181.08464 185.12964 190.67613 195.36164 198.55614 204.10263 209.64913 216.26663 219.42835 226.04586 231.80236 234.96407 242.01207 247.55857 251.60356 257.15007 261.83555 267.81254 271.85755 276.54304 282.52003 289.1375 296.18553 299.38 304.9265 308.08824 313.63475 320.89274 327.51023 333.69725 338.38273 344.13923 350.1162 354.16123 357.3557 362.90223 366.06394 372.04093 376.7264 382.4829 388.66993 395.71794 398.9124 404.45893 414.49943">This kingdom is characterised by heterotrophic eukaryotic organisms</tspan><tspan y="-408.4809" x="60.000024 64.04801 71.099 77.28899 81.336978 85.43537 91.62536 96.31385 101.86334 105.96174 116.005229 123.26622 126.46371 130.5117 133.7092 139.25868 144.80817 148.00566 151.20316 158.46414 161.66164 167.85163 172.54012 176.6385 182.82849 189.87949 196.49997 200.59836 204.64635 211.69734 217.24683 220.44432 225.13282 229.2312 234.78069 240.33017 243.52767 246.72516 252.27465 256.37303 259.5705 265.7605 271.31 277.93049 282.02888 287.57838 293.12788 296.32536 299.52284 303.62123 311.95323 318.14323 321.3407 324.53819 330.08769 333.49519 337.59358 344.21406 351.26506 356.81455 362.57405 366.67243 373.2929 376.4904 381.17887 386.72837 392.27787 396.32588 399.52336 405.28285 409.38124 415.3612">that are multicellular and their cells lack cell walls. They directly or</tspan><tspan y="-394.56089" x="60.000024 63.06782 69.98912 76.47992 79.54772 84.10652 89.52632 94.94612 98.86442 101.93222 107.56202 109.98982 116.48062 121.90042 128.39122 133.81102 140.73232 147.22312 149.65091 155.5012 162.4225 164.8503 171.3411 174.40889 180.4692 187.39049 191.30879 196.72859 199.15639 202.43419 208.28449 212.84329 215.27109 218.54889 224.39919 230.24948 236.74028 240.01808 242.44588 248.93668 255.85797 261.27778 266.90757 269.33537 275.82618 278.89399 284.52378 289.94358 295.36338 299.28169 301.70948 305.62779 312.54908 317.96888 321.03669 325.5955 328.0233 331.3011 337.1514 343.0017 349.49253 351.92033 354.98814 361.90943 364.33723 370.39753 377.31883 379.7466 382.81443 389.73573 393.65403 399.07383 403.63264 410.55393 416.61424">indirectly depend on plants for food. They digest their food in an internal</tspan><tspan y="-380.39988" x="60.000024 65.456539 71.55354 77.010059 80.11456 84.06957 89.736087 92.20059 98.2976 105.25561 111.78312 114.24763 119.70414 123.65915 129.54616 134.14167 139.59818 142.06269 145.3772 151.2642 157.15122 163.67873 166.14324 170.73874 176.19525 181.65177 187.10828 191.70378 197.1603 202.6168 208.07332 210.53783 216.63484 222.09136 224.55587 230.22237 233.32688 238.99338 244.44989 250.3369 256.00343 261.45994 268.41795 270.88246 276.76948 281.365 283.8295 287.144 293.24104 297.19606 300.51057 302.97508 309.50257 316.46058 321.91709 325.0216 329.61714 332.08164 342.03215 347.91917 354.44667 359.90318 362.36769 368.2547 371.5692 374.03373 380.99174 388.15974 392.11476 396.71028 399.8148 403.7698 406.87434 412.76136">cavity and store food reserves as glycogen or fat. Their mode of nutrition</tspan><tspan y="-366.48088" x="60.000024 63.191236 68.73444 71.71895 78.76366 84.737369 87.92857 93.90228 99.01499 104.9887 108.17991 113.72312 116.70763 122.030338 125.01484 131.62905 137.38225 140.36676 143.55797 150.60268 156.35588 161.8991 167.4423 171.48401 174.67522 180.64893 187.69364 190.67815 196.65186 200.05307 203.03759 206.4388 212.4125 218.38622 225.00043 228.40164 231.38616 238.00037 245.04508 250.58829 256.3415 259.32603 262.72724 268.70097 271.89219 275.0834 281.05714 289.38285 292.36738 298.5511 301.5356 308.1498 313.69303 317.09425 320.28547 327.33018 330.5214 334.5631 340.10633 343.09086 348.84407 353.52629 359.5 367.8257 371.86744 378.91215 381.89668 388.51087 394.69459 398.7363 402.778 408.32124 413.00346">is holozoic &#x2013; by ingestion of food. They follow a definite growth pattern</tspan><tspan y="-352.56086" x="60.000024 66.18793 73.236827 79.855228 82.67314 88.43054 93.11694 99.09484 107.42474 110.24266 113.438068 120.48696 124.53286 130.51076 133.32866 139.51656 146.13495 153.39385 156.58925 160.63515 166.18254 169.00045 173.04634 180.09525 186.28314 190.32904 193.14694 200.19585 206.38375 211.93114 217.47853 220.29644 226.48433 229.30223 235.92063 241.46802 244.87342 248.06882 255.11772 258.3131 262.359 267.9064 270.7243 276.2717 283.3206 289.50849 296.1269 301.6743 304.4922 310.68009 317.72898 324.34739 327.16529 332.71269 335.90809 341.025 346.5724 349.97779 352.7957 361.33558 364.53099 370.28837 377.33726 382.88465 387.57106 390.38896 393.79435 399.77226 404.45866 414.50007">and grow into adults that have a definite shape and size. Higher forms</tspan><tspan y="-338.39985" x="60.000024 65.53482 72.57112 78.53642 86.85372 89.39652 94.93132 98.11412 104.28942 110.89522 116.86052 121.53432 127.70962 131.74292 137.27773 139.82053 145.35533 150.89014 157.92644 163.46125 169.42655 174.10034 179.84514 182.38794 188.56324 195.59954 202.20534 204.74814 211.78444 217.31925 224.56555 229.23935 235.20465 245.23345 251.19875 255.23204 261.19734 265.87113 268.4139 278.44273 283.9775 289.5123 296.54859 302.72389 309.76017 312.94297 318.47776 328.50657 331.89936 334.44215 344.25044 350.21574 355.75053 359.7838 362.3266 368.2919 371.6847 374.22749 378.26078 385.29707 390.83186 400.86067 403.40345 409.57875 414.25254">show elaborate sensory and neuromotor mechanism. Most of them are</tspan><tspan y="-324.48085" x="60.000024 65.44222 71.524929 78.038127 84.12083 90.634029 93.72423 99.16643 101.61663 107.489337 110.789539 113.23974 116.32994 122.202648 127.644847 133.51755 143.45375 149.32645 153.26715 156.35735 162.23004 169.17374">capable of locomotion.</tspan><tspan y="-310.56083" x="78.00002 84.46262 91.35572 96.74732 99.14693 104.53853 109.93013 115.75223 122.85533 128.88744 131.92704 134.32663 138.85723 144.24883 150.71143 155.24202 161.06412 167.52672 174.62982 180.02143 183.91153 186.95113 192.77323 199.66632 202.06592 205.10552 210.49712 212.89672 219.35932 224.9609 227.3605 232.7521 238.5742 245.0368 252.13991 255.1795 261.2116 265.1017 268.14134 273.96345 280.85655 283.25614 289.07826 292.32786 294.72746 304.61305 310.64515 313.68476 319.07637 321.47596 327.50807 334.40116 340.86378 343.26338 346.51298 351.90458 361.79017 367.82228 370.86189 376.25349 378.65309 381.90269 387.7248 390.7644 393.80403 399.62614 407.80024 413.19184">The sexual reproduction is by copulation of male and female followed</tspan><tspan y="-296.3998" x="60.000024 66.61692 72.37282 76.77041 82.31631 92.35621 98.97311 103.658008 109.4139 115.390308 118.584209 124.56061 130.31652 133.5104 139.0563 145.2427 148.4366 152.83419 159.45108 164.99698 170.54288 176.08878 179.28267 185.25907 191.87596 201.91587 207.46176 214.50916 218.55356 221.95746 226.35504 233.40244 239.58884 242.78273 245.97663 251.52252 258.56993 262.61433 267.0119 270.4158 275.9617 282.1481 286.1925 293.4499 298.1348 303.6807 309.2266 313.62419 319.6006 323.0045 327.40208 332.94798 339.13438 343.81929 347.01319 352.9896 360.247 365.7929 370.1905 376.8074 383.8548 389.6107 392.8046 398.991 403.38859 409.57499 414.2599">by embryological development. Salient features of various phyla are</tspan><tspan y="-282.4808" x="60.000024 66.525829 71.98063 77.43543 82.890239 87.48404 90.58684 97.11264 102.567447 109.09325 111.556049 114.658847 121.61514 124.07794 131.88474 138.84104 144.93634 151.46215 155.41544 160.87024 165.46404 167.92684 174.45264">described in Chapter 4.</tspan></text>
<text fill="#00aeef" xml:space="preserve" transform="matrix(1 0 -0 1 -18 802.8)" font-size="13" font-family="Bookman,Bold" font-weight="bold"><tspan y="-250.5608" x="60.000024 68.461429 73.02283 94.32002">2.6V</tspan></text>
<text fill="#00aeef" xml:space="preserve" transform="matrix(1 0 -0 1 -18 802.8)" font-size="9.1" font-family="Bookman,Bold" font-weight="bold"><tspan y="-250.5608" x="103.92002 107.27213 114.082248 121.438358 127.70247 134.51258">IRUSES</tspan></text>
<text fill="#00aeef" xml:space="preserve" transform="matrix(1 0 -0 1 -18 802.8)" font-size="13" font-family="Bookman,Bold" font-weight="bold"><tspan y="-250.5608" x="140.64002 145.17232 148.54212">, V</tspan></text>
<text fill="#00aeef" xml:space="preserve" transform="matrix(1 0 -0 1 -18 802.8)" font-size="9.1" font-family="Bookman,Bold" font-weight="bold"><tspan y="-250.5608" x="158.16002 161.52863 168.35523 175.90982 179.27843 186.83303">IROIDS</tspan></text>
<text fill="#00aeef" xml:space="preserve" transform="matrix(1 0 -0 1 -18 802.8)" font-size="13" font-family="Bookman,Bold" font-weight="bold"><tspan y="-250.5608" x="192.96002 197.53263 200.94272">, P</tspan></text>
<text fill="#00aeef" xml:space="preserve" transform="matrix(1 0 -0 1 -18 802.8)" font-size="9.1" font-family="Bookman,Bold" font-weight="bold"><tspan y="-250.5608" x="209.28003 216.06504 219.39205 226.90506 233.87207">RIONS</tspan></text>
<text fill="#00aeef" xml:space="preserve" transform="matrix(1 0 -0 1 -18 802.8)" font-size="13" font-family="Bookman,Bold" font-weight="bold"><tspan y="-250.5608" x="240.24002"> </tspan></text>
<text fill="#00aeef" xml:space="preserve" transform="matrix(1 0 -0 1 -18 802.8)" font-size="9.1" font-family="Bookman,Bold" font-weight="bold"><tspan y="-250.5608" x="243.60002 250.06583 257.07765">AND</tspan></text>
<text fill="#00aeef" xml:space="preserve" transform="matrix(1 0 -0 1 -18 802.8)" font-size="13" font-family="Bookman,Bold" font-weight="bold"><tspan y="-250.5608" x="264.48 267.9215"> L</tspan></text>
<text fill="#00aeef" xml:space="preserve" transform="matrix(1 0 -0 1 -18 802.8)" font-size="9.1" font-family="Bookman,Bold" font-weight="bold"><tspan y="-250.5608" x="276.24003 279.61363 286.62724 294.18684 301.01844 308.03205">ICHENS</tspan></text>
<text fill="#231f20" xml:space="preserve" transform="matrix(1 0 -0 1 -18 802.8)" font-size="10.5" font-family="Bookman"><tspan y="-224.39981" x="60.000017 63.254728 69.94294 72.13765 75.82286 82.51107 87.697788 89.892498 92.9372 95.77191 100.95862 106.145328 108.340038 114.59775 117.43246 124.12067 129.51738 135.77509 141.3923 151.07302 153.26772 158.45442 161.28914 167.11635 172.30306 177.48976 180.32448 183.36919 186.2039 191.39061 197.21782 200.90303 203.73775 209.35495 216.04317 218.23787 223.85507 226.89978 229.09449 238.9852 245.67342 248.50814 252.19335 255.87856 261.70579 267.9635 273.1502 277.47593 279.67063 283.35585 290.04405 295.23075 299.55647 304.74317 306.93788 309.77259 314.9593 317.154 323.8422 329.4594 331.6541 341.33485 346.52156 353.20976 356.89497 359.72969 365.3469 372.0351 374.2298 379.84703 382.89173 385.08644 387.92115 390.75587 395.94258 402.63078 407.81748 414.50569">In the five kingdom classification of Whittaker there is no mention of lichens</tspan><tspan y="-210.4808" x="60.000017 66.06682 72.99462 79.49192 81.92622 87.35252 93.20932 103.12962 108.55592 110.99023 117.05703 122.48333 127.90963 130.98394 134.05823 141.19603 144.27033 150.33713 154.90244 157.33673 163.19353 167.75882 173.39513 179.46193 186.38973 189.46402 194.89032 204.81063 210.23693 212.67122 215.74552 218.81981 225.31711 230.74341 233.1777 238.604 241.6783 246.24359 253.3814 258.80769 264.23399 269.66029 272.94459 275.37889 280.80519 283.8795 288.4448 294.3016 297.37593 303.87324 309.29954 311.73384 317.80064 324.72843 331.22575 333.66004 340.15736 344.72267 347.79698 353.65379 360.58158 366.00788 369.29219 371.72648 378.2238 385.15159 390.57789 396.00419 401.43049 403.86479 409.93159 414.4969">and some acellular organisms like viruses, viroids and prions. These are</tspan><tspan y="-196.5608" x="60.000017 66.512317 71.09261 74.181919 79.623218 82.922519 86.01182 91.66312 94.11242 97.20172 104.14452 108.08432 112.66462 118.53642 125.04872 132.20153 137.64282 143.08412 149.59642 152.04572 158.98851 164.42981 169.01012 174.45142">briefly introduced here.</tspan><tspan y="-182.39981" x="78.000019 85.04662 88.02973 91.01284 93.784549 99.550159 102.74326 105.51497 112.56158 117.89669 120.668399 128.78601 135.62262 141.38823 144.15995 150.99655 156.97217 162.30728 167.6424 170.41411 175.74922 182.79584 185.98896 189.18207 194.51718 198.99129 204.3264 210.73252 213.50423 217.33783 224.17444 229.50955 232.28127 235.26438 238.24748 241.23059 244.0023 249.33742 252.53054 255.72365 261.05876 266.39387 270.22749 275.5626 278.33433 284.09996 287.29307 290.0648 295.3999 301.16554 310.99464 320.82374 326.58937 333.42597 336.1977 341.5328 347.29844 350.28157 356.68766 359.45939 365.225 369.69914 372.47087 374.59297 377.78608 380.7692 387.8158 389.9379 392.70964 399.11573 405.95234 411.71797">All of us who have suffered the ill effects of common cold or &#x2018;flu&#x2019; know</tspan><tspan y="-168.4808" x="60.000017 68.11612 74.95122 80.925319 84.757419 87.099018 92.43262 95.624217 98.81581 104.149417 109.48302 113.31512 118.64872 120.99032 126.32392 129.30553 133.77812 140.82323 146.15683 151.49044 156.82404 159.16564 164.49924 170.47335 177.30844 179.65004 186.48514 192.45925 197.79285 203.12645 205.46805 211.23215 218.06725 220.40885 227.45395 232.78755 235.97916 238.32076 243.65436 248.98796 254.32157 261.15669 263.49827 266.47987 269.67146 272.01304 280.12913 285.4627 287.8043 294.2089 299.973 302.31459 309.1497 314.9138 318.74589 321.08747 327.06156 332.39515 337.72874 343.49284 348.82643 351.808 357.7821 361.6142 366.94779 369.28938 372.27098 376.10307 378.44465 386.56074 389.54234 393.37443 400.20954 402.55113 408.31523 415.36033">what effects viruses can have on us, even if we do not associate it with our</tspan><tspan y="-154.5608" x="60.000017 65.33632 71.10312 77.94092 84.34822 87.33252 91.16732 94.15162 99.91842 106.75622 109.950519 112.794818 120.05261 123.03691 127.512218 134.56002 139.89632 145.23262 150.56893 153.41323 159.82053 162.80483 169.21213 172.05643 178.89423 184.66103 188.49582 191.34012 194.53443 197.51873 204.35652 210.76383 213.60813 219.58493 222.42923 228.83654 231.82083 237.79764 243.13394 248.47025 251.31455 254.29885 261.13667 263.98097 269.31727 272.30158 278.27839 283.6147 288.951 291.9353 295.1296 298.11393 303.45024 309.42704 313.26185 316.24617 322.01298 328.85078 331.69508 337.03138 340.0157 346.8535 352.1898 357.5261 360.3704 364.2052 371.043 376.3793 381.9256 384.7699 390.7467 395.22203 400.55833 403.40263 410.24043 416.00724">condition. Viruses did not find a place in classification since they are not</tspan><tspan y="-140.39981" x="60.000017 65.33791 71.106319 77.94572 83.283618 86.269519 92.67841 98.01631 102.49321 107.83111 114.240009 117.41092 121.24732 125.72422 132.77362 135.75952 141.30742 144.47834 146.60323 149.58913 152.57503 157.91294 160.89884 167.73824 173.28614 175.41103 178.60694 181.77783 184.76374 187.95963 191.13053 199.25093 204.58884 207.75974 214.80915 221.64855 228.05745 233.39536 237.87226 243.21016 247.04656 253.02495 259.86436 266.27326 269.44416 272.43006 275.41596 280.75386 283.73976 290.57914 296.12705 299.29795 305.27635 310.61424 313.78514 317.62153 324.4609 330.2293 335.5672 340.9051 344.076 349.8444 354.3213 359.8692 365.8476 372.68699 375.67289 381.01078 390.84269 396.18058 399.35148 403.18788 410.02726 416.00566">considered truly &#x2018;living&#x2019;, if we understand living as those organisms that</tspan><tspan y="-126.48081" x="60.000017 66.84083 72.82064 78.15995 83.49926 87.53746 93.51727 97.55547 102.89478 108.23409 111.221408 114.20872 118.24692 123.58623 127.424037 131.90235 138.95316 144.29247 148.13028 155.18109 159.65941 164.99872 168.19603 172.23424 176.27245 182.68276 189.52356 194.86287 198.90108 204.24039 207.22769 211.70601 218.75682 224.09613 229.43544 234.77475 238.81296 244.79277 249.27109 254.6104 258.6486 265.4894 271.25923 278.10005 282.15837 287.49769 292.837 295.8243 298.8116 305.86244 308.84974 314.82954 319.30784 323.346 329.1158 333.59413 339.14344 345.12324 351.96406 354.95137 360.29069 370.124 375.46333 379.5015 383.3393 390.1801 396.1599 399.9977 404.0359 410.0157 414.494">have a cell structure.  The viruses are non-cellular organisms that are</tspan><tspan y="-112.560817" x="60.000017 65.200428 71.902339 77.74325 82.08266 87.92357 93.12398 96.82289 102.0233 106.36271 109.21112 114.41153 119.61194 125.88335 128.09175 134.36316 139.77358 141.98198 148.68389 154.5248 159.7252 162.57361 169.27552 174.68593 176.89434 182.73525 189.43715 191.64556 194.49396 201.19586 206.39627 210.73569 214.4346 216.643 221.84342 226.18283 231.59325 236.79366 240.49257 246.33348 249.18189 252.03029 254.8787 261.5806 266.781 268.9894 274.18983 277.88874 282.22816 289.14006 294.34046 298.03938 304.95127 309.29069 314.4911 316.6995 322.3304 329.2423 332.94123 338.14164 340.99006 347.26148 352.46189 354.6703 358.3692 365.0711 370.2715 372.47993 375.32835 378.17677 383.37718 386.2256 392.9275 398.3379 400.5463 405.7467 410.9471 413.79554 416.64396">characterised by having an inert crystalline structure outside the living cell.</tspan></text>
<g clip-path="url(#clip_1781)">
<text xml:space="preserve" transform="matrix(1 0 -0 1 259.314 763.99978)" font-size="8" font-family="Arial"><tspan y="6.316" x="0"> </tspan></text>
</g>
</g>
</svg>
